M48
; DRILL file {KiCad (5.99.0-9739-g6a369b230f)} date Sat Mar 13 21:37:44 2021
; FORMAT={-:-/ absolute / inch / decimal}
; #@! TF.CreationDate,2021-03-13T21:37:44+01:00
; #@! TF.GenerationSoftware,Kicad,Pcbnew,(5.99.0-9739-g6a369b230f)
; #@! TF.FileFunction,Plated,1,2,PTH
FMAT,2
INCH
; #@! TA.AperFunction,ComponentDrill
T1C0.0118
; #@! TA.AperFunction,ViaDrill
T2C0.0130
; #@! TA.AperFunction,ComponentDrill
T3C0.0157
; #@! TA.AperFunction,ComponentDrill
T4C0.0177
; #@! TA.AperFunction,ComponentDrill
T5C0.0197
; #@! TA.AperFunction,ComponentDrill
T6C0.0315
; #@! TA.AperFunction,ComponentDrill
T7C0.0394
; #@! TA.AperFunction,ComponentDrill
T8C0.0500
; #@! TA.AperFunction,ComponentDrill
T9C0.0528
; #@! TA.AperFunction,ComponentDrill
T10C0.0787
; #@! TA.AperFunction,ComponentDrill
T11C0.1260
%
G90
G05
T1
; pad hole
X0.7402Y-2.0906
T2
; via hole
X0.5709Y-1.6339
X0.6654Y-3.5276
X0.7953Y-1.9882
X0.811Y-1.9134
X0.8504Y-2.622
X0.8543Y-1.752
X0.8749Y-1.7274
X0.878Y-2.2677
X0.9016Y-2.9764
X0.9028Y-1.7119
X0.9291Y-1.6929
X0.9449Y-2.7205
X0.9646Y-3.1693
X0.9685Y-1.5551
X0.9815Y-1.8307
X0.9843Y-2.1732
X0.9843Y-2.2282
X0.9921Y-1.9134
X1.0Y-1.4685
X1.0039Y-1.2795
X1.0079Y-1.8583
X1.0079Y-2.0906
X1.0118Y-1.8189
X1.0442Y-1.8552
X1.0827Y-3.9134
X1.0906Y-1.5472
X1.0906Y-3.8346
X1.0945Y-1.8976
X1.0984Y-1.9646
X1.13Y-1.1968
X1.1539Y-1.624
X1.1539Y-1.7028
X1.185Y-1.9409
X1.185Y-2.1929
X1.2085Y-1.9094
X1.2205Y-1.689
X1.2244Y-1.6063
X1.2323Y-1.9409
X1.2807Y-1.624
X1.2807Y-1.7028
X1.2835Y-2.2362
X1.2835Y-3.126
X1.2953Y-1.9961
X1.2992Y-1.9016
X1.3091Y-1.4567
X1.3228Y-1.2126
X1.3484Y-1.7028
X1.3496Y-1.624
X1.3496Y-1.7913
X1.3583Y-1.1909
X1.3583Y-1.9764
X1.374Y-2.0079
X1.4094Y-3.2835
X1.4252Y-1.8898
X1.4291Y-0.7559
X1.4291Y-0.815
X1.4961Y-1.6378
X1.5354Y-1.1417
X1.5409Y-1.0638
X1.5551Y-1.4055
X1.5827Y-1.6772
X1.5866Y-1.2598
X1.5866Y-1.3583
X1.6417Y-2.0669
X1.6417Y-3.4488
X1.7638Y-3.6378
X1.7795Y-3.9055
X1.8092Y-0.9724
X1.815Y-1.7756
X1.8512Y-0.9646
X1.8583Y-1.7753
X1.8927Y-1.7518
X1.9173Y-1.7283
X1.9213Y-1.0394
X1.9488Y-1.6929
X1.9488Y-2.1929
X1.9606Y-0.9685
X1.9764Y-1.189
X2.0551Y-1.122
X2.2638Y-2.0157
X2.4488Y-2.1811
X2.6102Y-1.9567
X3.2244Y-1.6654
X3.4331Y-1.8268
X4.0827Y-2.5354
X4.0866Y-1.8898
X4.1142Y-1.9764
X4.3071Y-2.1614
X4.9764Y-2.3701
X5.1378Y-2.5354
T3
; pad hole
X1.7298Y-0.8713
X1.7455Y-0.8433
X1.777Y-0.8433
X1.7928Y-0.8713
X1.8085Y-0.8433
X1.8243Y-0.8713
X1.8557Y-0.8713
X1.8715Y-0.8433
X1.8872Y-0.8713
X1.903Y-0.8433
X1.9345Y-0.8433
X1.9502Y-0.8713
T4
X1.7613Y-0.8713
X1.9187Y-0.8713
T5
X2.3465Y-4.0551
X2.3741Y-3.9883
X2.3741Y-4.1219
X2.4409Y-3.9606
X2.4409Y-4.1496
X2.5078Y-3.9883
X2.5078Y-4.1219
X2.5354Y-4.0551
X3.6063Y-4.0551
X3.634Y-3.9883
X3.634Y-4.1219
X3.7008Y-3.9606
X3.7008Y-4.1496
X3.7676Y-3.9883
X3.7676Y-4.1219
X3.7953Y-4.0551
X4.8661Y-4.0551
X4.8938Y-3.9883
X4.8938Y-4.1219
X4.9606Y-3.9606
X4.9606Y-4.1496
X5.0274Y-3.9883
X5.0274Y-4.1219
X5.0551Y-4.0551
T6
X2.27Y-1.46
X2.27Y-1.56
X2.57Y-1.46
X2.57Y-1.56
T7
X1.1063Y-1.3898
X1.2063Y-1.3898
X1.3063Y-1.3898
X1.4063Y-1.3898
X3.3622Y-1.5315
X3.4622Y-1.5315
X3.5622Y-1.5315
X3.6622Y-1.5315
X3.7622Y-1.5315
X3.8622Y-1.5315
X3.9622Y-1.5315
T8
X0.659Y-4.0211
X0.7881Y-4.1912
X0.969Y-3.4711
X1.0981Y-3.6412
X1.349Y-4.0711
X1.4781Y-4.2412
X2.1331Y-2.5389
X2.33Y-2.6216
X3.1174Y-2.1846
X3.3143Y-2.2673
X3.9835Y-2.4996
X4.1804Y-2.5822
X4.8497Y-2.8933
X5.0465Y-2.9759
T9
X1.6719Y-0.6398
X1.6719Y-0.826
X2.0081Y-0.6398
X2.0081Y-0.826
T10
X2.3527Y-0.9
X5.1873Y-0.9
T11
X2.4409Y-4.0551
X3.7008Y-4.0551
X4.9606Y-4.0551
T0
M30
