%TF.GenerationSoftware,KiCad,Pcbnew,(5.99.0-9634-gb691c18bfc)*%
%TF.CreationDate,2021-03-09T21:57:38+01:00*%
%TF.ProjectId,keychordz,6b657963-686f-4726-947a-2e6b69636164,rev?*%
%TF.SameCoordinates,Original*%
%TF.FileFunction,Soldermask,Top*%
%TF.FilePolarity,Negative*%
%FSLAX46Y46*%
G04 Gerber Fmt 4.6, Leading zero omitted, Abs format (unit mm)*
G04 Created by KiCad (PCBNEW (5.99.0-9634-gb691c18bfc)) date 2021-03-09 21:57:38*
%MOMM*%
%LPD*%
G01*
G04 APERTURE LIST*
G04 Aperture macros list*
%AMRoundRect*
0 Rectangle with rounded corners*
0 $1 Rounding radius*
0 $2 $3 $4 $5 $6 $7 $8 $9 X,Y pos of 4 corners*
0 Add a 4 corners polygon primitive as box body*
4,1,4,$2,$3,$4,$5,$6,$7,$8,$9,$2,$3,0*
0 Add four circle primitives for the rounded corners*
1,1,$1+$1,$2,$3*
1,1,$1+$1,$4,$5*
1,1,$1+$1,$6,$7*
1,1,$1+$1,$8,$9*
0 Add four rect primitives between the rounded corners*
20,1,$1+$1,$2,$3,$4,$5,0*
20,1,$1+$1,$4,$5,$6,$7,0*
20,1,$1+$1,$6,$7,$8,$9,0*
20,1,$1+$1,$8,$9,$2,$3,0*%
%AMRotRect*
0 Rectangle, with rotation*
0 The origin of the aperture is its center*
0 $1 length*
0 $2 width*
0 $3 Rotation angle, in degrees counterclockwise*
0 Add horizontal line*
21,1,$1,$2,0,0,$3*%
G04 Aperture macros list end*
%ADD10R,0.300000X1.200000*%
%ADD11C,0.650000*%
%ADD12C,0.550000*%
%ADD13C,2.010000*%
%ADD14R,0.200000X1.000000*%
%ADD15RoundRect,0.237500X-0.250000X-0.237500X0.250000X-0.237500X0.250000X0.237500X-0.250000X0.237500X0*%
%ADD16C,6.400000*%
%ADD17C,0.800000*%
%ADD18R,0.700000X0.700000*%
%ADD19R,1.600000X1.600000*%
%ADD20O,1.600000X1.600000*%
%ADD21RoundRect,0.237500X0.287500X0.237500X-0.287500X0.237500X-0.287500X-0.237500X0.287500X-0.237500X0*%
%ADD22C,3.429000*%
%ADD23C,1.701800*%
%ADD24C,0.990600*%
%ADD25C,2.032000*%
%ADD26RotRect,0.700000X0.700000X330.000000*%
%ADD27R,1.000000X0.600000*%
%ADD28R,0.600000X1.000000*%
%ADD29RoundRect,0.237500X-0.237500X0.250000X-0.237500X-0.250000X0.237500X-0.250000X0.237500X0.250000X0*%
%ADD30RoundRect,0.160000X0.197500X0.160000X-0.197500X0.160000X-0.197500X-0.160000X0.197500X-0.160000X0*%
%ADD31RoundRect,0.237500X-0.300000X-0.237500X0.300000X-0.237500X0.300000X0.237500X-0.300000X0.237500X0*%
%ADD32RoundRect,0.250000X-0.475000X0.337500X-0.475000X-0.337500X0.475000X-0.337500X0.475000X0.337500X0*%
%ADD33RoundRect,0.160000X-0.197500X-0.160000X0.197500X-0.160000X0.197500X0.160000X-0.197500X0.160000X0*%
%ADD34R,1.700000X1.700000*%
%ADD35O,1.700000X1.700000*%
%ADD36R,1.400000X0.300000*%
%ADD37RoundRect,0.237500X0.237500X-0.300000X0.237500X0.300000X-0.237500X0.300000X-0.237500X-0.300000X0*%
%ADD38RoundRect,0.155000X0.155000X-0.212500X0.155000X0.212500X-0.155000X0.212500X-0.155000X-0.212500X0*%
%ADD39C,3.200000*%
%ADD40R,3.500000X3.500000*%
%ADD41C,3.500000*%
%ADD42RoundRect,0.237500X-0.237500X0.300000X-0.237500X-0.300000X0.237500X-0.300000X0.237500X0.300000X0*%
G04 APERTURE END LIST*
D10*
%TO.C,J1*%
X49486000Y-23380000D03*
X48986000Y-23380000D03*
X48486000Y-23380000D03*
X47986000Y-23380000D03*
X47486000Y-23380000D03*
X46986000Y-23380000D03*
X46486000Y-23380000D03*
X45986000Y-23380000D03*
X45486000Y-23380000D03*
X44986000Y-23380000D03*
X44486000Y-23380000D03*
X43986000Y-23380000D03*
D11*
X43936000Y-22130000D03*
X44336000Y-21420000D03*
X45136000Y-21420000D03*
X45536000Y-22130000D03*
X45936000Y-21420000D03*
X46336000Y-22130000D03*
X47136000Y-22130000D03*
X47536000Y-21420000D03*
X47936000Y-22130000D03*
X48336000Y-21420000D03*
X49136000Y-21420000D03*
X49536000Y-22130000D03*
D12*
X44736000Y-22130000D03*
X48736000Y-22130000D03*
D13*
X51006000Y-20980000D03*
X42466000Y-20980000D03*
X51006000Y-16250000D03*
X42466000Y-16250000D03*
D14*
X46736000Y-18800000D03*
X46736000Y-15700000D03*
%TD*%
D15*
%TO.C,R3*%
X47001500Y-30530000D03*
X48826500Y-30530000D03*
%TD*%
D16*
%TO.C,MNT1*%
X62000000Y-103000000D03*
D17*
X59600000Y-103000000D03*
X60302944Y-104697056D03*
X62000000Y-105400000D03*
X64400000Y-103000000D03*
X60302944Y-101302944D03*
X63697056Y-104697056D03*
X63697056Y-101302944D03*
X62000000Y-100600000D03*
%TD*%
D18*
%TO.C,D8*%
X83185000Y-47525000D03*
X85015000Y-47525000D03*
X85015000Y-46425000D03*
X83185000Y-46425000D03*
%TD*%
D19*
%TO.C,SW9*%
X57658000Y-37084000D03*
D20*
X57658000Y-39624000D03*
X65278000Y-39624000D03*
X65278000Y-37084000D03*
%TD*%
D21*
%TO.C,D1*%
X18647000Y-22566000D03*
X16897000Y-22566000D03*
%TD*%
%TO.C,D3*%
X23981000Y-26884000D03*
X22231000Y-26884000D03*
%TD*%
D22*
%TO.C,SW1*%
X22968000Y-101346000D03*
D23*
X27731140Y-104096000D03*
D24*
X29588653Y-100318693D03*
D23*
X18204860Y-98596000D03*
D25*
X20018000Y-106455550D03*
X16737873Y-102136897D03*
%TD*%
D26*
%TO.C,D4*%
X24186587Y-97300814D03*
X25771413Y-98215814D03*
X26321413Y-97263186D03*
X24736587Y-96348186D03*
%TD*%
D27*
%TO.C,U1*%
X43200000Y-56600000D03*
X43200000Y-54600000D03*
X43200000Y-55600000D03*
X18200000Y-55600000D03*
X18200000Y-53600000D03*
X18200000Y-50600000D03*
X18200000Y-41600000D03*
D28*
X37200000Y-34600000D03*
X35200000Y-34600000D03*
D27*
X18200000Y-39600000D03*
D28*
X33200000Y-34600000D03*
X26200000Y-34600000D03*
X24200000Y-34600000D03*
X22200000Y-34600000D03*
D27*
X18200000Y-40600000D03*
X43200000Y-39600000D03*
D28*
X40200000Y-34600000D03*
X39200000Y-34600000D03*
X38200000Y-34600000D03*
X36200000Y-34600000D03*
X34200000Y-34600000D03*
X27200000Y-34600000D03*
X25200000Y-34600000D03*
X23200000Y-34600000D03*
X21200000Y-34600000D03*
X31200000Y-34600000D03*
D27*
X43200000Y-57600000D03*
X18200000Y-38600000D03*
D28*
X30200000Y-34600000D03*
D27*
X43200000Y-52600000D03*
X43200000Y-38600000D03*
X18200000Y-48600000D03*
X43200000Y-53600000D03*
X18200000Y-57600000D03*
X18200000Y-56600000D03*
X18200000Y-54600000D03*
X18200000Y-52600000D03*
X18200000Y-51600000D03*
X43200000Y-50600000D03*
X43200000Y-49600000D03*
X43200000Y-48600000D03*
X18200000Y-49600000D03*
X43200000Y-47600000D03*
X43200000Y-46600000D03*
X18200000Y-47600000D03*
X43200000Y-45600000D03*
X43200000Y-44600000D03*
X43200000Y-43600000D03*
X18200000Y-46600000D03*
X43200000Y-42600000D03*
X18200000Y-45600000D03*
X43200000Y-40600000D03*
X18200000Y-44600000D03*
X43200000Y-41600000D03*
X18200000Y-43600000D03*
X18200000Y-42600000D03*
X43200000Y-51600000D03*
D28*
X28200000Y-34600000D03*
X32200000Y-34600000D03*
X29200000Y-34600000D03*
%TD*%
D23*
%TO.C,SW5*%
X89682000Y-51689000D03*
X78682000Y-51689000D03*
D24*
X89402000Y-47489000D03*
D22*
X84182000Y-51689000D03*
D25*
X84182000Y-57589000D03*
X79182000Y-55489000D03*
%TD*%
D29*
%TO.C,R4*%
X53900000Y-25687500D03*
X53900000Y-27512500D03*
%TD*%
D26*
%TO.C,D5*%
X41712587Y-98570814D03*
X43297413Y-99485814D03*
X43847413Y-98533186D03*
X42262587Y-97618186D03*
%TD*%
D15*
%TO.C,R7*%
X26615000Y-25360000D03*
X28440000Y-25360000D03*
%TD*%
D30*
%TO.C,R6*%
X34371500Y-22820000D03*
X33176500Y-22820000D03*
%TD*%
D23*
%TO.C,SW6*%
X133682000Y-69689000D03*
X122682000Y-69689000D03*
D24*
X133402000Y-65489000D03*
D22*
X128182000Y-69689000D03*
D25*
X128182000Y-75589000D03*
X123182000Y-73489000D03*
%TD*%
D31*
%TO.C,C29*%
X101551500Y-50235000D03*
X103276500Y-50235000D03*
%TD*%
%TO.C,C30*%
X123395500Y-60141000D03*
X125120500Y-60141000D03*
%TD*%
D32*
%TO.C,C22*%
X50200000Y-26444500D03*
X50200000Y-28519500D03*
%TD*%
D33*
%TO.C,R5*%
X33176500Y-21550000D03*
X34371500Y-21550000D03*
%TD*%
D15*
%TO.C,R1*%
X21939500Y-21550000D03*
X23764500Y-21550000D03*
%TD*%
D31*
%TO.C,C28*%
X78845000Y-42361000D03*
X80570000Y-42361000D03*
%TD*%
D23*
%TO.C,SW2*%
X35730860Y-99866000D03*
X45257140Y-105366000D03*
D24*
X47114653Y-101588693D03*
D22*
X40494000Y-102616000D03*
D25*
X37544000Y-107725550D03*
X34263873Y-103406897D03*
%TD*%
D34*
%TO.C,J2*%
X14400000Y-44780000D03*
D35*
X14400000Y-42240000D03*
X14400000Y-39700000D03*
X14400000Y-37160000D03*
%TD*%
D17*
%TO.C,MNT3*%
X127697056Y-104697056D03*
X123600000Y-103000000D03*
X124302944Y-104697056D03*
X124302944Y-101302944D03*
X126000000Y-105400000D03*
X126000000Y-100600000D03*
X128400000Y-103000000D03*
D16*
X126000000Y-103000000D03*
D17*
X127697056Y-101302944D03*
%TD*%
D36*
%TO.C,IC1*%
X26594000Y-20450000D03*
X26594000Y-20950000D03*
X26594000Y-21450000D03*
X26594000Y-21950000D03*
X26594000Y-22450000D03*
X30994000Y-22450000D03*
X30994000Y-21950000D03*
X30994000Y-21450000D03*
X30994000Y-20950000D03*
X30994000Y-20450000D03*
%TD*%
D31*
%TO.C,C27*%
X54307500Y-51251000D03*
X56032500Y-51251000D03*
%TD*%
D23*
%TO.C,SW7*%
X100682000Y-59689000D03*
D22*
X106182000Y-59689000D03*
D23*
X111682000Y-59689000D03*
D24*
X111402000Y-55489000D03*
D25*
X106182000Y-65589000D03*
X101182000Y-63489000D03*
%TD*%
D26*
%TO.C,D6*%
X32009174Y-83095628D03*
X33594000Y-84010628D03*
X34144000Y-83058000D03*
X32559174Y-82143000D03*
%TD*%
D21*
%TO.C,D2*%
X18901000Y-19518000D03*
X17151000Y-19518000D03*
%TD*%
D37*
%TO.C,C4*%
X16872000Y-92556500D03*
X16872000Y-90831500D03*
%TD*%
D23*
%TO.C,SW3*%
X26078860Y-84626000D03*
X35605140Y-90126000D03*
D22*
X30842000Y-87376000D03*
D24*
X37462653Y-86348693D03*
D25*
X27892000Y-92485550D03*
X24611873Y-88166897D03*
%TD*%
D38*
%TO.C,C23*%
X33774000Y-20085500D03*
X33774000Y-18950500D03*
%TD*%
D17*
%TO.C,MNT2*%
X96400000Y-103000000D03*
X94000000Y-105400000D03*
X92302944Y-104697056D03*
X92302944Y-101302944D03*
X94000000Y-100600000D03*
X91600000Y-103000000D03*
D16*
X94000000Y-103000000D03*
D17*
X95697056Y-101302944D03*
X95697056Y-104697056D03*
%TD*%
D39*
%TO.C,BT1*%
X68403000Y-22860000D03*
X124013000Y-22860000D03*
D40*
X59758000Y-22860000D03*
D41*
X131758000Y-22860000D03*
%TD*%
D15*
%TO.C,R2*%
X22701500Y-19678000D03*
X24526500Y-19678000D03*
%TD*%
D22*
%TO.C,SW4*%
X59182000Y-60689000D03*
D24*
X64402000Y-56489000D03*
D23*
X53682000Y-60689000D03*
X64682000Y-60689000D03*
D25*
X59182000Y-66589000D03*
X54182000Y-64489000D03*
%TD*%
D18*
%TO.C,D10*%
X127307000Y-65480500D03*
X129137000Y-65480500D03*
X129137000Y-64380500D03*
X127307000Y-64380500D03*
%TD*%
D38*
%TO.C,C24*%
X26662000Y-18053500D03*
X26662000Y-16918500D03*
%TD*%
D42*
%TO.C,C26*%
X24492000Y-77470000D03*
X24492000Y-79195000D03*
%TD*%
D31*
%TO.C,C25*%
X41663500Y-92456000D03*
X43388500Y-92456000D03*
%TD*%
D34*
%TO.C,J3*%
X100640000Y-38900000D03*
D35*
X98100000Y-38900000D03*
X95560000Y-38900000D03*
X93020000Y-38900000D03*
X90480000Y-38900000D03*
X87940000Y-38900000D03*
X85400000Y-38900000D03*
%TD*%
D18*
%TO.C,D7*%
X58219000Y-56463500D03*
X60049000Y-56463500D03*
X60049000Y-55363500D03*
X58219000Y-55363500D03*
%TD*%
%TO.C,D9*%
X105336000Y-55447500D03*
X107166000Y-55447500D03*
X107166000Y-54347500D03*
X105336000Y-54347500D03*
%TD*%
M02*
