M48
; DRILL file {KiCad (5.99.0-9739-g6a369b230f)} date Sat Mar 13 21:37:44 2021
; FORMAT={-:-/ absolute / inch / decimal}
; #@! TF.CreationDate,2021-03-13T21:37:44+01:00
; #@! TF.GenerationSoftware,Kicad,Pcbnew,(5.99.0-9739-g6a369b230f)
; #@! TF.FileFunction,NonPlated,1,2,NPTH
FMAT,2
INCH
; #@! TA.AperFunction,MechanicalDrill
T1C0.0390
; #@! TA.AperFunction,MechanicalDrill
T2C0.0670
; #@! TA.AperFunction,MechanicalDrill
T3C0.1260
; #@! TA.AperFunction,MechanicalDrill
T4C0.1350
%
G90
G05
T1
; mechanical
X1.1649Y-3.9496
X1.4749Y-3.3996
X1.8549Y-3.9996
X2.5355Y-2.224
X3.5198Y-1.8696
X4.3859Y-2.1846
X5.252Y-2.5783
T2
X0.7167Y-3.8817
X1.0267Y-3.3317
X1.0918Y-4.0983
X1.4018Y-3.5483
X1.4067Y-3.9317
X1.7818Y-4.1483
X2.1135Y-2.3893
X2.5465Y-2.3893
X3.0977Y-2.035
X3.5308Y-2.035
X3.9639Y-2.35
X4.3969Y-2.35
X4.83Y-2.7437
X5.2631Y-2.7437
T3
X2.693Y-0.9
X4.8824Y-0.9
T4
X0.9043Y-3.99
X1.2143Y-3.44
X1.5943Y-4.04
X2.33Y-2.3893
X3.3143Y-2.035
X4.1804Y-2.35
X5.0465Y-2.7437
T0
M30
