%TF.GenerationSoftware,KiCad,Pcbnew,(5.99.0-9739-g6a369b230f)*%
%TF.CreationDate,2021-03-13T21:37:46+01:00*%
%TF.ProjectId,keychordz,6b657963-686f-4726-947a-2e6b69636164,rev?*%
%TF.SameCoordinates,Original*%
%TF.FileFunction,Paste,Top*%
%TF.FilePolarity,Positive*%
%FSLAX46Y46*%
G04 Gerber Fmt 4.6, Leading zero omitted, Abs format (unit mm)*
G04 Created by KiCad (PCBNEW (5.99.0-9739-g6a369b230f)) date 2021-03-13 21:37:46*
%MOMM*%
%LPD*%
G01*
G04 APERTURE LIST*
G04 Aperture macros list*
%AMRoundRect*
0 Rectangle with rounded corners*
0 $1 Rounding radius*
0 $2 $3 $4 $5 $6 $7 $8 $9 X,Y pos of 4 corners*
0 Add a 4 corners polygon primitive as box body*
4,1,4,$2,$3,$4,$5,$6,$7,$8,$9,$2,$3,0*
0 Add four circle primitives for the rounded corners*
1,1,$1+$1,$2,$3*
1,1,$1+$1,$4,$5*
1,1,$1+$1,$6,$7*
1,1,$1+$1,$8,$9*
0 Add four rect primitives between the rounded corners*
20,1,$1+$1,$2,$3,$4,$5,0*
20,1,$1+$1,$4,$5,$6,$7,0*
20,1,$1+$1,$6,$7,$8,$9,0*
20,1,$1+$1,$8,$9,$2,$3,0*%
%AMRotRect*
0 Rectangle, with rotation*
0 The origin of the aperture is its center*
0 $1 length*
0 $2 width*
0 $3 Rotation angle, in degrees counterclockwise*
0 Add horizontal line*
21,1,$1,$2,0,0,$3*%
G04 Aperture macros list end*
%ADD10R,1.800000X1.750000*%
%ADD11R,1.200000X0.800000*%
%ADD12RoundRect,0.150000X-0.512500X-0.150000X0.512500X-0.150000X0.512500X0.150000X-0.512500X0.150000X0*%
%ADD13RoundRect,0.237500X-0.237500X0.250000X-0.237500X-0.250000X0.237500X-0.250000X0.237500X0.250000X0*%
%ADD14R,1.800000X0.800000*%
%ADD15RoundRect,0.160000X-0.222500X-0.160000X0.222500X-0.160000X0.222500X0.160000X-0.222500X0.160000X0*%
%ADD16R,6.500000X6.500000*%
%ADD17R,0.200000X0.950000*%
%ADD18R,0.950000X0.200000*%
%ADD19R,1.200000X0.600000*%
%ADD20RoundRect,0.237500X-0.300000X-0.237500X0.300000X-0.237500X0.300000X0.237500X-0.300000X0.237500X0*%
%ADD21RoundRect,0.155000X0.212500X0.155000X-0.212500X0.155000X-0.212500X-0.155000X0.212500X-0.155000X0*%
%ADD22RoundRect,0.155000X0.155000X-0.212500X0.155000X0.212500X-0.155000X0.212500X-0.155000X-0.212500X0*%
%ADD23RoundRect,0.090000X-0.139000X-0.090000X0.139000X-0.090000X0.139000X0.090000X-0.139000X0.090000X0*%
%ADD24RoundRect,0.237500X0.300000X0.237500X-0.300000X0.237500X-0.300000X-0.237500X0.300000X-0.237500X0*%
%ADD25RoundRect,0.237500X0.237500X-0.300000X0.237500X0.300000X-0.237500X0.300000X-0.237500X-0.300000X0*%
%ADD26RoundRect,0.155000X-0.212500X-0.155000X0.212500X-0.155000X0.212500X0.155000X-0.212500X0.155000X0*%
%ADD27RoundRect,0.155000X-0.155000X0.212500X-0.155000X-0.212500X0.155000X-0.212500X0.155000X0.212500X0*%
%ADD28RoundRect,0.237500X-0.250000X-0.237500X0.250000X-0.237500X0.250000X0.237500X-0.250000X0.237500X0*%
%ADD29R,0.700000X0.700000*%
%ADD30RoundRect,0.237500X0.287500X0.237500X-0.287500X0.237500X-0.287500X-0.237500X0.287500X-0.237500X0*%
%ADD31RotRect,0.700000X0.700000X330.000000*%
%ADD32RoundRect,0.160000X0.197500X0.160000X-0.197500X0.160000X-0.197500X-0.160000X0.197500X-0.160000X0*%
%ADD33RoundRect,0.250000X-0.475000X0.337500X-0.475000X-0.337500X0.475000X-0.337500X0.475000X0.337500X0*%
%ADD34RoundRect,0.160000X-0.197500X-0.160000X0.197500X-0.160000X0.197500X0.160000X-0.197500X0.160000X0*%
%ADD35R,1.400000X0.300000*%
%ADD36R,0.300000X1.200000*%
%ADD37R,0.200000X1.000000*%
%ADD38RoundRect,0.237500X-0.237500X0.300000X-0.237500X-0.300000X0.237500X-0.300000X0.237500X0.300000X0*%
G04 APERTURE END LIST*
D10*
%TO.C,Y2*%
X20200000Y-39775000D03*
X20200000Y-43025000D03*
%TD*%
D11*
%TO.C,Y1*%
X39300000Y-50350000D03*
X37700000Y-50350000D03*
X37700000Y-49250000D03*
X39300000Y-49250000D03*
%TD*%
D12*
%TO.C,U1*%
X43837500Y-28850000D03*
X43837500Y-30750000D03*
X41562500Y-30750000D03*
X41562500Y-29800000D03*
X41562500Y-28850000D03*
%TD*%
D13*
%TO.C,R10*%
X49300000Y-39512500D03*
X49300000Y-37687500D03*
%TD*%
%TO.C,R9*%
X40600000Y-37500000D03*
X40600000Y-35675000D03*
%TD*%
%TO.C,R8*%
X40600000Y-40887500D03*
X40600000Y-39062500D03*
%TD*%
D14*
%TO.C,Q1*%
X42800000Y-38650000D03*
X46100000Y-37700000D03*
X46100000Y-39600000D03*
%TD*%
D15*
%TO.C,L1*%
X21920000Y-55150000D03*
X20775000Y-55150000D03*
%TD*%
D16*
%TO.C,IC3*%
X31700000Y-43300000D03*
D17*
X28500000Y-39350000D03*
X28900000Y-39350000D03*
X29300000Y-39350000D03*
X29700000Y-39350000D03*
X30100000Y-39350000D03*
X30500000Y-39350000D03*
X30900000Y-39350000D03*
X31300000Y-39350000D03*
X31700000Y-39350000D03*
X32100000Y-39350000D03*
X32500000Y-39350000D03*
X32900000Y-39350000D03*
X33300000Y-39350000D03*
X33700000Y-39350000D03*
X34100000Y-39350000D03*
X34500000Y-39350000D03*
X34900000Y-39350000D03*
D18*
X35650000Y-40100000D03*
X35650000Y-40500000D03*
X35650000Y-40900000D03*
X35650000Y-41300000D03*
X35650000Y-41700000D03*
X35650000Y-42100000D03*
X35650000Y-42500000D03*
X35650000Y-42900000D03*
X35650000Y-43300000D03*
X35650000Y-43700000D03*
X35650000Y-44100000D03*
X35650000Y-44500000D03*
X35650000Y-44900000D03*
X35650000Y-45300000D03*
X35650000Y-45700000D03*
X35650000Y-46100000D03*
X35650000Y-46500000D03*
D17*
X34900000Y-47250000D03*
X34500000Y-47250000D03*
X34100000Y-47250000D03*
X33700000Y-47250000D03*
X33300000Y-47250000D03*
X32900000Y-47250000D03*
X32500000Y-47250000D03*
X32100000Y-47250000D03*
X31700000Y-47250000D03*
X31300000Y-47250000D03*
X30900000Y-47250000D03*
X30500000Y-47250000D03*
X30100000Y-47250000D03*
X29700000Y-47250000D03*
X29300000Y-47250000D03*
X28900000Y-47250000D03*
X28500000Y-47250000D03*
D18*
X27750000Y-46500000D03*
X27750000Y-46100000D03*
X27750000Y-45700000D03*
X27750000Y-45300000D03*
X27750000Y-44900000D03*
X27750000Y-44500000D03*
X27750000Y-44100000D03*
X27750000Y-43700000D03*
X27750000Y-43300000D03*
X27750000Y-42900000D03*
X27750000Y-42500000D03*
X27750000Y-42100000D03*
X27750000Y-41700000D03*
X27750000Y-41300000D03*
X27750000Y-40900000D03*
X27750000Y-40500000D03*
X27750000Y-40100000D03*
%TD*%
D19*
%TO.C,IC2*%
X29750000Y-30410000D03*
X29750000Y-32310000D03*
X27250000Y-32310000D03*
X27250000Y-31360000D03*
X27250000Y-30410000D03*
%TD*%
D20*
%TO.C,C18*%
X17662500Y-43500000D03*
X15937500Y-43500000D03*
%TD*%
%TO.C,C15*%
X17762500Y-39800000D03*
X16037500Y-39800000D03*
%TD*%
D21*
%TO.C,C14*%
X44132500Y-35600000D03*
X45267500Y-35600000D03*
%TD*%
D22*
%TO.C,C13*%
X25400000Y-38300000D03*
X25400000Y-39435000D03*
%TD*%
D23*
%TO.C,C12*%
X24107500Y-55150000D03*
X23242500Y-55150000D03*
%TD*%
D24*
%TO.C,C11*%
X37737500Y-47400000D03*
X39462500Y-47400000D03*
%TD*%
D25*
%TO.C,C10*%
X36200000Y-48937500D03*
X36200000Y-50662500D03*
%TD*%
D26*
%TO.C,C9*%
X34867500Y-51700000D03*
X33732500Y-51700000D03*
%TD*%
D21*
%TO.C,C8*%
X24332500Y-45300000D03*
X25467500Y-45300000D03*
%TD*%
D26*
%TO.C,C7*%
X39167500Y-42600000D03*
X38032500Y-42600000D03*
%TD*%
%TO.C,C6*%
X32567500Y-31400000D03*
X31432500Y-31400000D03*
%TD*%
%TO.C,C5*%
X39667500Y-30300000D03*
X38532500Y-30300000D03*
%TD*%
D21*
%TO.C,C3*%
X38682500Y-27750000D03*
X39817500Y-27750000D03*
%TD*%
D26*
%TO.C,C2*%
X32567500Y-30160000D03*
X31432500Y-30160000D03*
%TD*%
D27*
%TO.C,C1*%
X25500000Y-31367500D03*
X25500000Y-30232500D03*
%TD*%
D28*
%TO.C,R3*%
X47001500Y-30530000D03*
X48826500Y-30530000D03*
%TD*%
D29*
%TO.C,D8*%
X83185000Y-47525000D03*
X85015000Y-47525000D03*
X85015000Y-46425000D03*
X83185000Y-46425000D03*
%TD*%
D30*
%TO.C,D1*%
X18647000Y-22566000D03*
X16897000Y-22566000D03*
%TD*%
%TO.C,D3*%
X23981000Y-26884000D03*
X22231000Y-26884000D03*
%TD*%
D31*
%TO.C,D4*%
X24186587Y-97300814D03*
X25771413Y-98215814D03*
X26321413Y-97263186D03*
X24736587Y-96348186D03*
%TD*%
D13*
%TO.C,R4*%
X53900000Y-25687500D03*
X53900000Y-27512500D03*
%TD*%
D31*
%TO.C,D5*%
X41712587Y-98570814D03*
X43297413Y-99485814D03*
X43847413Y-98533186D03*
X42262587Y-97618186D03*
%TD*%
D28*
%TO.C,R7*%
X26615000Y-25360000D03*
X28440000Y-25360000D03*
%TD*%
D32*
%TO.C,R6*%
X34371500Y-22820000D03*
X33176500Y-22820000D03*
%TD*%
D20*
%TO.C,C29*%
X101551500Y-50235000D03*
X103276500Y-50235000D03*
%TD*%
%TO.C,C30*%
X123395500Y-60141000D03*
X125120500Y-60141000D03*
%TD*%
D33*
%TO.C,C22*%
X50200000Y-26444500D03*
X50200000Y-28519500D03*
%TD*%
D34*
%TO.C,R5*%
X33176500Y-21550000D03*
X34371500Y-21550000D03*
%TD*%
D28*
%TO.C,R1*%
X21939500Y-21550000D03*
X23764500Y-21550000D03*
%TD*%
D20*
%TO.C,C28*%
X78845000Y-42361000D03*
X80570000Y-42361000D03*
%TD*%
D35*
%TO.C,IC1*%
X26594000Y-20450000D03*
X26594000Y-20950000D03*
X26594000Y-21450000D03*
X26594000Y-21950000D03*
X26594000Y-22450000D03*
X30994000Y-22450000D03*
X30994000Y-21950000D03*
X30994000Y-21450000D03*
X30994000Y-20950000D03*
X30994000Y-20450000D03*
%TD*%
D20*
%TO.C,C27*%
X54307500Y-51251000D03*
X56032500Y-51251000D03*
%TD*%
D31*
%TO.C,D6*%
X32009174Y-83095628D03*
X33594000Y-84010628D03*
X34144000Y-83058000D03*
X32559174Y-82143000D03*
%TD*%
D30*
%TO.C,D2*%
X18901000Y-19518000D03*
X17151000Y-19518000D03*
%TD*%
D25*
%TO.C,C4*%
X16872000Y-92556500D03*
X16872000Y-90831500D03*
%TD*%
D22*
%TO.C,C23*%
X33774000Y-20085500D03*
X33774000Y-18950500D03*
%TD*%
D28*
%TO.C,R2*%
X22701500Y-19678000D03*
X24526500Y-19678000D03*
%TD*%
D36*
%TO.C,J1*%
X49486000Y-23380000D03*
X48986000Y-23380000D03*
X48486000Y-23380000D03*
X47986000Y-23380000D03*
X47486000Y-23380000D03*
X46986000Y-23380000D03*
X46486000Y-23380000D03*
X45986000Y-23380000D03*
X45486000Y-23380000D03*
X44986000Y-23380000D03*
X44486000Y-23380000D03*
X43986000Y-23380000D03*
D37*
X46736000Y-18800000D03*
X46736000Y-15700000D03*
%TD*%
D29*
%TO.C,D10*%
X127307000Y-65480500D03*
X129137000Y-65480500D03*
X129137000Y-64380500D03*
X127307000Y-64380500D03*
%TD*%
D22*
%TO.C,C24*%
X26662000Y-18053500D03*
X26662000Y-16918500D03*
%TD*%
D38*
%TO.C,C26*%
X24492000Y-77470000D03*
X24492000Y-79195000D03*
%TD*%
D20*
%TO.C,C25*%
X41663500Y-92456000D03*
X43388500Y-92456000D03*
%TD*%
D29*
%TO.C,D7*%
X58219000Y-56463500D03*
X60049000Y-56463500D03*
X60049000Y-55363500D03*
X58219000Y-55363500D03*
%TD*%
%TO.C,D9*%
X105336000Y-55447500D03*
X107166000Y-55447500D03*
X107166000Y-54347500D03*
X105336000Y-54347500D03*
%TD*%
M02*
