M48
; DRILL file {KiCad (5.99.0-9634-gb691c18bfc)} date Tue Mar  9 21:57:40 2021
; FORMAT={-:-/ absolute / inch / decimal}
; #@! TF.CreationDate,2021-03-09T21:57:40+01:00
; #@! TF.GenerationSoftware,Kicad,Pcbnew,(5.99.0-9634-gb691c18bfc)
; #@! TF.FileFunction,Plated,1,2,PTH
FMAT,2
INCH
T1C0.0130
T2C0.0157
T3C0.0177
T4C0.0197
T5C0.0315
T6C0.0394
T7C0.0500
T8C0.0528
T9C0.0787
T10C0.1260
%
G90
G05
T1
X0.7559Y-3.5276
X0.7638Y-3.9764
X0.7874Y-2.2402
X0.8071Y-2.3031
X0.874Y-3.5906
X0.9252Y-3.8819
X1.0866Y-3.9291
X1.0984Y-3.8228
X1.189Y-3.0512
X1.2549Y-3.2126
X1.4016Y-3.3976
X1.4291Y-0.7559
X1.4291Y-0.815
X1.5118Y-3.8543
X1.5157Y-1.5591
X1.5866Y-1.3189
X1.626Y-1.2923
X1.7953Y-1.6654
X1.8135Y-1.0158
X1.8346Y-1.9134
X1.8346Y-1.9528
X1.8346Y-1.9921
X1.8455Y-1.0156
X2.0079Y-1.3386
X2.0354Y-2.063
X2.0433Y-1.0276
X2.122Y-1.1339
X2.2795Y-2.2835
X2.4331Y-1.1339
X2.4449Y-2.0669
X2.4646Y-2.1969
X3.0354Y-1.6811
X3.2244Y-1.6732
X3.4488Y-1.8307
X4.126Y-1.9252
X4.2874Y-2.0906
X4.9882Y-2.3543
T2
X1.7298Y-0.8713
X1.7455Y-0.8433
X1.777Y-0.8433
X1.7928Y-0.8713
X1.8085Y-0.8433
X1.8243Y-0.8713
X1.8557Y-0.8713
X1.8715Y-0.8433
X1.8872Y-0.8713
X1.903Y-0.8433
X1.9345Y-0.8433
X1.9502Y-0.8713
T3
X1.7613Y-0.8713
X1.9187Y-0.8713
T4
X2.3465Y-4.0551
X2.3741Y-3.9883
X2.3741Y-4.1219
X2.4409Y-3.9606
X2.4409Y-4.1496
X2.5078Y-3.9883
X2.5078Y-4.1219
X2.5354Y-4.0551
X3.6063Y-4.0551
X3.634Y-3.9883
X3.634Y-4.1219
X3.7008Y-3.9606
X3.7008Y-4.1496
X3.7676Y-3.9883
X3.7676Y-4.1219
X3.7953Y-4.0551
X4.8661Y-4.0551
X4.8938Y-3.9883
X4.8938Y-4.1219
X4.9606Y-3.9606
X4.9606Y-4.1496
X5.0274Y-3.9883
X5.0274Y-4.1219
X5.0551Y-4.0551
T5
X2.27Y-1.46
X2.27Y-1.56
X2.57Y-1.46
X2.57Y-1.56
T6
X0.5669Y-1.463
X0.5669Y-1.563
X0.5669Y-1.663
X0.5669Y-1.763
X3.3622Y-1.5315
X3.4622Y-1.5315
X3.5622Y-1.5315
X3.6622Y-1.5315
X3.7622Y-1.5315
X3.8622Y-1.5315
X3.9622Y-1.5315
T7
X0.659Y-4.0211
X0.7881Y-4.1912
X0.969Y-3.4711
X1.0981Y-3.6412
X1.349Y-4.0711
X1.4781Y-4.2412
X2.1331Y-2.5389
X2.33Y-2.6216
X3.1174Y-2.1846
X3.3143Y-2.2673
X3.9835Y-2.4996
X4.1804Y-2.5822
X4.8497Y-2.8933
X5.0465Y-2.9759
T8
X1.6719Y-0.6398
X1.6719Y-0.826
X2.0081Y-0.6398
X2.0081Y-0.826
T9
X2.3527Y-0.9
X5.1873Y-0.9
T10
X2.4409Y-4.0551
X3.7008Y-4.0551
X4.9606Y-4.0551
T0
M30
