%TF.GenerationSoftware,KiCad,Pcbnew,(5.99.0-9634-gb691c18bfc)*%
%TF.CreationDate,2021-03-09T21:57:38+01:00*%
%TF.ProjectId,keychordz,6b657963-686f-4726-947a-2e6b69636164,rev?*%
%TF.SameCoordinates,Original*%
%TF.FileFunction,Legend,Top*%
%TF.FilePolarity,Positive*%
%FSLAX46Y46*%
G04 Gerber Fmt 4.6, Leading zero omitted, Abs format (unit mm)*
G04 Created by KiCad (PCBNEW (5.99.0-9634-gb691c18bfc)) date 2021-03-09 21:57:38*
%MOMM*%
%LPD*%
G01*
G04 APERTURE LIST*
%ADD10C,0.152400*%
%ADD11C,0.300000*%
%ADD12C,0.304800*%
%ADD13C,0.254000*%
%ADD14C,0.150000*%
%ADD15C,0.200000*%
%ADD16C,0.100000*%
%ADD17C,0.120000*%
G04 APERTURE END LIST*
D10*
X94904076Y-36435695D02*
X94904076Y-35622895D01*
X95368533Y-36435695D02*
X95020190Y-35971238D01*
X95368533Y-35622895D02*
X94904076Y-36087352D01*
X95678171Y-35700304D02*
X95716876Y-35661600D01*
X95794285Y-35622895D01*
X95987809Y-35622895D01*
X96065219Y-35661600D01*
X96103923Y-35700304D01*
X96142628Y-35777714D01*
X96142628Y-35855123D01*
X96103923Y-35971238D01*
X95639466Y-36435695D01*
X96142628Y-36435695D01*
X12677638Y-51328990D02*
X12793752Y-51367695D01*
X12987276Y-51367695D01*
X13064685Y-51328990D01*
X13103390Y-51290285D01*
X13142095Y-51212876D01*
X13142095Y-51135466D01*
X13103390Y-51058057D01*
X13064685Y-51019352D01*
X12987276Y-50980647D01*
X12832457Y-50941942D01*
X12755047Y-50903238D01*
X12716342Y-50864533D01*
X12677638Y-50787123D01*
X12677638Y-50709714D01*
X12716342Y-50632304D01*
X12755047Y-50593600D01*
X12832457Y-50554895D01*
X13025980Y-50554895D01*
X13142095Y-50593600D01*
X13413028Y-50554895D02*
X13606552Y-51367695D01*
X13761371Y-50787123D01*
X13916190Y-51367695D01*
X14109714Y-50554895D01*
X14419352Y-51367695D02*
X14419352Y-50554895D01*
X14612876Y-50554895D01*
X14728990Y-50593600D01*
X14806400Y-50671009D01*
X14845104Y-50748419D01*
X14883809Y-50903238D01*
X14883809Y-51019352D01*
X14845104Y-51174171D01*
X14806400Y-51251580D01*
X14728990Y-51328990D01*
X14612876Y-51367695D01*
X14419352Y-51367695D01*
X15232152Y-51367695D02*
X15232152Y-50554895D01*
X15774019Y-50554895D02*
X15928838Y-50554895D01*
X16006247Y-50593600D01*
X16083657Y-50671009D01*
X16122361Y-50825828D01*
X16122361Y-51096761D01*
X16083657Y-51251580D01*
X16006247Y-51328990D01*
X15928838Y-51367695D01*
X15774019Y-51367695D01*
X15696609Y-51328990D01*
X15619200Y-51251580D01*
X15580495Y-51096761D01*
X15580495Y-50825828D01*
X15619200Y-50671009D01*
X15696609Y-50593600D01*
X15774019Y-50554895D01*
D11*
X45428571Y-82142857D02*
X45428571Y-85380952D01*
X45238095Y-85761904D01*
X45047619Y-85952380D01*
X44666666Y-86142857D01*
X44095238Y-86142857D01*
X43714285Y-85952380D01*
X45428571Y-84619047D02*
X45047619Y-84809523D01*
X44285714Y-84809523D01*
X43904761Y-84619047D01*
X43714285Y-84428571D01*
X43523809Y-84047619D01*
X43523809Y-82904761D01*
X43714285Y-82523809D01*
X43904761Y-82333333D01*
X44285714Y-82142857D01*
X45047619Y-82142857D01*
X45428571Y-82333333D01*
X47333333Y-84809523D02*
X47333333Y-82142857D01*
X47333333Y-80809523D02*
X47142857Y-81000000D01*
X47333333Y-81190476D01*
X47523809Y-81000000D01*
X47333333Y-80809523D01*
X47333333Y-81190476D01*
X48666666Y-82142857D02*
X50190476Y-82142857D01*
X49238095Y-80809523D02*
X49238095Y-84238095D01*
X49428571Y-84619047D01*
X49809523Y-84809523D01*
X50190476Y-84809523D01*
X51523809Y-84809523D02*
X51523809Y-80809523D01*
X53238095Y-84809523D02*
X53238095Y-82714285D01*
X53047619Y-82333333D01*
X52666666Y-82142857D01*
X52095238Y-82142857D01*
X51714285Y-82333333D01*
X51523809Y-82523809D01*
X56857142Y-82142857D02*
X56857142Y-84809523D01*
X55142857Y-82142857D02*
X55142857Y-84238095D01*
X55333333Y-84619047D01*
X55714285Y-84809523D01*
X56285714Y-84809523D01*
X56666666Y-84619047D01*
X56857142Y-84428571D01*
X58761904Y-84809523D02*
X58761904Y-80809523D01*
X58761904Y-82333333D02*
X59142857Y-82142857D01*
X59904761Y-82142857D01*
X60285714Y-82333333D01*
X60476190Y-82523809D01*
X60666666Y-82904761D01*
X60666666Y-84047619D01*
X60476190Y-84428571D01*
X60285714Y-84619047D01*
X59904761Y-84809523D01*
X59142857Y-84809523D01*
X58761904Y-84619047D01*
X62380952Y-84428571D02*
X62571428Y-84619047D01*
X62380952Y-84809523D01*
X62190476Y-84619047D01*
X62380952Y-84428571D01*
X62380952Y-84809523D01*
X65999999Y-84619047D02*
X65619047Y-84809523D01*
X64857142Y-84809523D01*
X64476190Y-84619047D01*
X64285714Y-84428571D01*
X64095238Y-84047619D01*
X64095238Y-82904761D01*
X64285714Y-82523809D01*
X64476190Y-82333333D01*
X64857142Y-82142857D01*
X65619047Y-82142857D01*
X65999999Y-82333333D01*
X68285714Y-84809523D02*
X67904761Y-84619047D01*
X67714285Y-84428571D01*
X67523809Y-84047619D01*
X67523809Y-82904761D01*
X67714285Y-82523809D01*
X67904761Y-82333333D01*
X68285714Y-82142857D01*
X68857142Y-82142857D01*
X69238095Y-82333333D01*
X69428571Y-82523809D01*
X69619047Y-82904761D01*
X69619047Y-84047619D01*
X69428571Y-84428571D01*
X69238095Y-84619047D01*
X68857142Y-84809523D01*
X68285714Y-84809523D01*
X71333333Y-84809523D02*
X71333333Y-82142857D01*
X71333333Y-82523809D02*
X71523809Y-82333333D01*
X71904761Y-82142857D01*
X72476190Y-82142857D01*
X72857142Y-82333333D01*
X73047619Y-82714285D01*
X73047619Y-84809523D01*
X73047619Y-82714285D02*
X73238095Y-82333333D01*
X73619047Y-82142857D01*
X74190476Y-82142857D01*
X74571428Y-82333333D01*
X74761904Y-82714285D01*
X74761904Y-84809523D01*
X79523809Y-80619047D02*
X76095238Y-85761904D01*
X81428571Y-84809523D02*
X81047619Y-84619047D01*
X80857142Y-84238095D01*
X80857142Y-80809523D01*
X84666666Y-82142857D02*
X84666666Y-84809523D01*
X82952380Y-82142857D02*
X82952380Y-84238095D01*
X83142857Y-84619047D01*
X83523809Y-84809523D01*
X84095238Y-84809523D01*
X84476190Y-84619047D01*
X84666666Y-84428571D01*
X86571428Y-84809523D02*
X86571428Y-80809523D01*
X86952380Y-83285714D02*
X88095238Y-84809523D01*
X88095238Y-82142857D02*
X86571428Y-83666666D01*
X89619047Y-84619047D02*
X89999999Y-84809523D01*
X90761904Y-84809523D01*
X91142857Y-84619047D01*
X91333333Y-84238095D01*
X91333333Y-84047619D01*
X91142857Y-83666666D01*
X90761904Y-83476190D01*
X90190476Y-83476190D01*
X89809523Y-83285714D01*
X89619047Y-82904761D01*
X89619047Y-82714285D01*
X89809523Y-82333333D01*
X90190476Y-82142857D01*
X90761904Y-82142857D01*
X91142857Y-82333333D01*
X94761904Y-84809523D02*
X94761904Y-82714285D01*
X94571428Y-82333333D01*
X94190476Y-82142857D01*
X93428571Y-82142857D01*
X93047619Y-82333333D01*
X94761904Y-84619047D02*
X94380952Y-84809523D01*
X93428571Y-84809523D01*
X93047619Y-84619047D01*
X92857142Y-84238095D01*
X92857142Y-83857142D01*
X93047619Y-83476190D01*
X93428571Y-83285714D01*
X94380952Y-83285714D01*
X94761904Y-83095238D01*
X96666666Y-84809523D02*
X96666666Y-80809523D01*
X96666666Y-82333333D02*
X97047619Y-82142857D01*
X97809523Y-82142857D01*
X98190476Y-82333333D01*
X98380952Y-82523809D01*
X98571428Y-82904761D01*
X98571428Y-84047619D01*
X98380952Y-84428571D01*
X98190476Y-84619047D01*
X97809523Y-84809523D01*
X97047619Y-84809523D01*
X96666666Y-84619047D01*
X103142857Y-80619047D02*
X99714285Y-85761904D01*
X104476190Y-84809523D02*
X104476190Y-80809523D01*
X104857142Y-83285714D02*
X105999999Y-84809523D01*
X105999999Y-82142857D02*
X104476190Y-83666666D01*
X109238095Y-84619047D02*
X108857142Y-84809523D01*
X108095238Y-84809523D01*
X107714285Y-84619047D01*
X107523809Y-84238095D01*
X107523809Y-82714285D01*
X107714285Y-82333333D01*
X108095238Y-82142857D01*
X108857142Y-82142857D01*
X109238095Y-82333333D01*
X109428571Y-82714285D01*
X109428571Y-83095238D01*
X107523809Y-83476190D01*
X110761904Y-82142857D02*
X111714285Y-84809523D01*
X112666666Y-82142857D02*
X111714285Y-84809523D01*
X111333333Y-85761904D01*
X111142857Y-85952380D01*
X110761904Y-86142857D01*
X115904761Y-84619047D02*
X115523809Y-84809523D01*
X114761904Y-84809523D01*
X114380952Y-84619047D01*
X114190476Y-84428571D01*
X113999999Y-84047619D01*
X113999999Y-82904761D01*
X114190476Y-82523809D01*
X114380952Y-82333333D01*
X114761904Y-82142857D01*
X115523809Y-82142857D01*
X115904761Y-82333333D01*
X117619047Y-84809523D02*
X117619047Y-80809523D01*
X119333333Y-84809523D02*
X119333333Y-82714285D01*
X119142857Y-82333333D01*
X118761904Y-82142857D01*
X118190476Y-82142857D01*
X117809523Y-82333333D01*
X117619047Y-82523809D01*
X121809523Y-84809523D02*
X121428571Y-84619047D01*
X121238095Y-84428571D01*
X121047619Y-84047619D01*
X121047619Y-82904761D01*
X121238095Y-82523809D01*
X121428571Y-82333333D01*
X121809523Y-82142857D01*
X122380952Y-82142857D01*
X122761904Y-82333333D01*
X122952380Y-82523809D01*
X123142857Y-82904761D01*
X123142857Y-84047619D01*
X122952380Y-84428571D01*
X122761904Y-84619047D01*
X122380952Y-84809523D01*
X121809523Y-84809523D01*
X124857142Y-84809523D02*
X124857142Y-82142857D01*
X124857142Y-82904761D02*
X125047619Y-82523809D01*
X125238095Y-82333333D01*
X125619047Y-82142857D01*
X125999999Y-82142857D01*
X129047619Y-84809523D02*
X129047619Y-80809523D01*
X129047619Y-84619047D02*
X128666666Y-84809523D01*
X127904761Y-84809523D01*
X127523809Y-84619047D01*
X127333333Y-84428571D01*
X127142857Y-84047619D01*
X127142857Y-82904761D01*
X127333333Y-82523809D01*
X127523809Y-82333333D01*
X127904761Y-82142857D01*
X128666666Y-82142857D01*
X129047619Y-82333333D01*
X130571428Y-82142857D02*
X132666666Y-82142857D01*
X130571428Y-84809523D01*
X132666666Y-84809523D01*
D10*
X13954895Y-50067695D02*
X13683961Y-49680647D01*
X13490438Y-50067695D02*
X13490438Y-49254895D01*
X13800076Y-49254895D01*
X13877485Y-49293600D01*
X13916190Y-49332304D01*
X13954895Y-49409714D01*
X13954895Y-49525828D01*
X13916190Y-49603238D01*
X13877485Y-49641942D01*
X13800076Y-49680647D01*
X13490438Y-49680647D01*
X14264533Y-50028990D02*
X14380647Y-50067695D01*
X14574171Y-50067695D01*
X14651580Y-50028990D01*
X14690285Y-49990285D01*
X14728990Y-49912876D01*
X14728990Y-49835466D01*
X14690285Y-49758057D01*
X14651580Y-49719352D01*
X14574171Y-49680647D01*
X14419352Y-49641942D01*
X14341942Y-49603238D01*
X14303238Y-49564533D01*
X14264533Y-49487123D01*
X14264533Y-49409714D01*
X14303238Y-49332304D01*
X14341942Y-49293600D01*
X14419352Y-49254895D01*
X14612876Y-49254895D01*
X14728990Y-49293600D01*
X14961219Y-49254895D02*
X15425676Y-49254895D01*
X15193447Y-50067695D02*
X15193447Y-49254895D01*
D12*
X22960571Y-47665428D02*
X22960571Y-48754000D01*
X22888000Y-48971714D01*
X22742857Y-49116857D01*
X22525142Y-49189428D01*
X22380000Y-49189428D01*
X24412000Y-49189428D02*
X23686285Y-49189428D01*
X23686285Y-47665428D01*
X25790857Y-49044285D02*
X25718285Y-49116857D01*
X25500571Y-49189428D01*
X25355428Y-49189428D01*
X25137714Y-49116857D01*
X24992571Y-48971714D01*
X24920000Y-48826571D01*
X24847428Y-48536285D01*
X24847428Y-48318571D01*
X24920000Y-48028285D01*
X24992571Y-47883142D01*
X25137714Y-47738000D01*
X25355428Y-47665428D01*
X25500571Y-47665428D01*
X25718285Y-47738000D01*
X25790857Y-47810571D01*
X26879428Y-47665428D02*
X26879428Y-48754000D01*
X26806857Y-48971714D01*
X26661714Y-49116857D01*
X26444000Y-49189428D01*
X26298857Y-49189428D01*
X28330857Y-49189428D02*
X27605142Y-49189428D01*
X27605142Y-47665428D01*
X29709714Y-49044285D02*
X29637142Y-49116857D01*
X29419428Y-49189428D01*
X29274285Y-49189428D01*
X29056571Y-49116857D01*
X28911428Y-48971714D01*
X28838857Y-48826571D01*
X28766285Y-48536285D01*
X28766285Y-48318571D01*
X28838857Y-48028285D01*
X28911428Y-47883142D01*
X29056571Y-47738000D01*
X29274285Y-47665428D01*
X29419428Y-47665428D01*
X29637142Y-47738000D01*
X29709714Y-47810571D01*
X30798285Y-47665428D02*
X30798285Y-48754000D01*
X30725714Y-48971714D01*
X30580571Y-49116857D01*
X30362857Y-49189428D01*
X30217714Y-49189428D01*
X32249714Y-49189428D02*
X31524000Y-49189428D01*
X31524000Y-47665428D01*
X33628571Y-49044285D02*
X33556000Y-49116857D01*
X33338285Y-49189428D01*
X33193142Y-49189428D01*
X32975428Y-49116857D01*
X32830285Y-48971714D01*
X32757714Y-48826571D01*
X32685142Y-48536285D01*
X32685142Y-48318571D01*
X32757714Y-48028285D01*
X32830285Y-47883142D01*
X32975428Y-47738000D01*
X33193142Y-47665428D01*
X33338285Y-47665428D01*
X33556000Y-47738000D01*
X33628571Y-47810571D01*
X34717142Y-47665428D02*
X34717142Y-48754000D01*
X34644571Y-48971714D01*
X34499428Y-49116857D01*
X34281714Y-49189428D01*
X34136571Y-49189428D01*
X36168571Y-49189428D02*
X35442857Y-49189428D01*
X35442857Y-47665428D01*
X37547428Y-49044285D02*
X37474857Y-49116857D01*
X37257142Y-49189428D01*
X37112000Y-49189428D01*
X36894285Y-49116857D01*
X36749142Y-48971714D01*
X36676571Y-48826571D01*
X36604000Y-48536285D01*
X36604000Y-48318571D01*
X36676571Y-48028285D01*
X36749142Y-47883142D01*
X36894285Y-47738000D01*
X37112000Y-47665428D01*
X37257142Y-47665428D01*
X37474857Y-47738000D01*
X37547428Y-47810571D01*
D10*
X97214266Y-35622895D02*
X97485200Y-36435695D01*
X97756133Y-35622895D01*
X98027066Y-36435695D02*
X98027066Y-35622895D01*
X98220590Y-35622895D01*
X98336704Y-35661600D01*
X98414114Y-35739009D01*
X98452819Y-35816419D01*
X98491523Y-35971238D01*
X98491523Y-36087352D01*
X98452819Y-36242171D01*
X98414114Y-36319580D01*
X98336704Y-36396990D01*
X98220590Y-36435695D01*
X98027066Y-36435695D01*
X98839866Y-36435695D02*
X98839866Y-35622895D01*
X99033390Y-35622895D01*
X99149504Y-35661600D01*
X99226914Y-35739009D01*
X99265619Y-35816419D01*
X99304323Y-35971238D01*
X99304323Y-36087352D01*
X99265619Y-36242171D01*
X99226914Y-36319580D01*
X99149504Y-36396990D01*
X99033390Y-36435695D01*
X98839866Y-36435695D01*
X84998076Y-36435695D02*
X84998076Y-35622895D01*
X85307714Y-35622895D01*
X85385123Y-35661600D01*
X85423828Y-35700304D01*
X85462533Y-35777714D01*
X85462533Y-35893828D01*
X85423828Y-35971238D01*
X85385123Y-36009942D01*
X85307714Y-36048647D01*
X84998076Y-36048647D01*
X85772171Y-35700304D02*
X85810876Y-35661600D01*
X85888285Y-35622895D01*
X86081809Y-35622895D01*
X86159219Y-35661600D01*
X86197923Y-35700304D01*
X86236628Y-35777714D01*
X86236628Y-35855123D01*
X86197923Y-35971238D01*
X85733466Y-36435695D01*
X86236628Y-36435695D01*
X100218723Y-35661600D02*
X100141314Y-35622895D01*
X100025200Y-35622895D01*
X99909085Y-35661600D01*
X99831676Y-35739009D01*
X99792971Y-35816419D01*
X99754266Y-35971238D01*
X99754266Y-36087352D01*
X99792971Y-36242171D01*
X99831676Y-36319580D01*
X99909085Y-36396990D01*
X100025200Y-36435695D01*
X100102609Y-36435695D01*
X100218723Y-36396990D01*
X100257428Y-36358285D01*
X100257428Y-36087352D01*
X100102609Y-36087352D01*
X100605771Y-36435695D02*
X100605771Y-35622895D01*
X101070228Y-36435695D01*
X101070228Y-35622895D01*
X101457276Y-36435695D02*
X101457276Y-35622895D01*
X101650800Y-35622895D01*
X101766914Y-35661600D01*
X101844323Y-35739009D01*
X101883028Y-35816419D01*
X101921733Y-35971238D01*
X101921733Y-36087352D01*
X101883028Y-36242171D01*
X101844323Y-36319580D01*
X101766914Y-36396990D01*
X101650800Y-36435695D01*
X101457276Y-36435695D01*
X87518723Y-36435695D02*
X87518723Y-35622895D01*
X87983180Y-36435695D01*
X87983180Y-35622895D01*
X88795980Y-36435695D02*
X88331523Y-36435695D01*
X88563752Y-36435695D02*
X88563752Y-35622895D01*
X88486342Y-35739009D01*
X88408933Y-35816419D01*
X88331523Y-35855123D01*
X12155123Y-52728990D02*
X12271238Y-52767695D01*
X12464761Y-52767695D01*
X12542171Y-52728990D01*
X12580876Y-52690285D01*
X12619580Y-52612876D01*
X12619580Y-52535466D01*
X12580876Y-52458057D01*
X12542171Y-52419352D01*
X12464761Y-52380647D01*
X12309942Y-52341942D01*
X12232533Y-52303238D01*
X12193828Y-52264533D01*
X12155123Y-52187123D01*
X12155123Y-52109714D01*
X12193828Y-52032304D01*
X12232533Y-51993600D01*
X12309942Y-51954895D01*
X12503466Y-51954895D01*
X12619580Y-51993600D01*
X12890514Y-51954895D02*
X13084038Y-52767695D01*
X13238857Y-52187123D01*
X13393676Y-52767695D01*
X13587200Y-51954895D01*
X13896838Y-52767695D02*
X13896838Y-51954895D01*
X14090361Y-51954895D01*
X14206476Y-51993600D01*
X14283885Y-52071009D01*
X14322590Y-52148419D01*
X14361295Y-52303238D01*
X14361295Y-52419352D01*
X14322590Y-52574171D01*
X14283885Y-52651580D01*
X14206476Y-52728990D01*
X14090361Y-52767695D01*
X13896838Y-52767695D01*
X15174095Y-52690285D02*
X15135390Y-52728990D01*
X15019276Y-52767695D01*
X14941866Y-52767695D01*
X14825752Y-52728990D01*
X14748342Y-52651580D01*
X14709638Y-52574171D01*
X14670933Y-52419352D01*
X14670933Y-52303238D01*
X14709638Y-52148419D01*
X14748342Y-52071009D01*
X14825752Y-51993600D01*
X14941866Y-51954895D01*
X15019276Y-51954895D01*
X15135390Y-51993600D01*
X15174095Y-52032304D01*
X15909485Y-52767695D02*
X15522438Y-52767695D01*
X15522438Y-51954895D01*
X16180419Y-52767695D02*
X16180419Y-51954895D01*
X16644876Y-52767695D02*
X16296533Y-52303238D01*
X16644876Y-51954895D02*
X16180419Y-52419352D01*
X93082533Y-36435695D02*
X92695485Y-36435695D01*
X92695485Y-35622895D01*
X93779219Y-36435695D02*
X93314761Y-36435695D01*
X93546990Y-36435695D02*
X93546990Y-35622895D01*
X93469580Y-35739009D01*
X93392171Y-35816419D01*
X93314761Y-35855123D01*
X90020019Y-36435695D02*
X90020019Y-35622895D01*
X90290952Y-36203466D01*
X90561885Y-35622895D01*
X90561885Y-36435695D01*
X90910228Y-35700304D02*
X90948933Y-35661600D01*
X91026342Y-35622895D01*
X91219866Y-35622895D01*
X91297276Y-35661600D01*
X91335980Y-35700304D01*
X91374685Y-35777714D01*
X91374685Y-35855123D01*
X91335980Y-35971238D01*
X90871523Y-36435695D01*
X91374685Y-36435695D01*
X13780723Y-47993600D02*
X13703314Y-47954895D01*
X13587200Y-47954895D01*
X13471085Y-47993600D01*
X13393676Y-48071009D01*
X13354971Y-48148419D01*
X13316266Y-48303238D01*
X13316266Y-48419352D01*
X13354971Y-48574171D01*
X13393676Y-48651580D01*
X13471085Y-48728990D01*
X13587200Y-48767695D01*
X13664609Y-48767695D01*
X13780723Y-48728990D01*
X13819428Y-48690285D01*
X13819428Y-48419352D01*
X13664609Y-48419352D01*
X14167771Y-48767695D02*
X14167771Y-47954895D01*
X14632228Y-48767695D01*
X14632228Y-47954895D01*
X15019276Y-48767695D02*
X15019276Y-47954895D01*
X15212800Y-47954895D01*
X15328914Y-47993600D01*
X15406323Y-48071009D01*
X15445028Y-48148419D01*
X15483733Y-48303238D01*
X15483733Y-48419352D01*
X15445028Y-48574171D01*
X15406323Y-48651580D01*
X15328914Y-48728990D01*
X15212800Y-48767695D01*
X15019276Y-48767695D01*
D13*
%TO.C,J1*%
X46376666Y-16604523D02*
X46376666Y-17511666D01*
X46316190Y-17693095D01*
X46195238Y-17814047D01*
X46013809Y-17874523D01*
X45892857Y-17874523D01*
X47646666Y-17874523D02*
X46920952Y-17874523D01*
X47283809Y-17874523D02*
X47283809Y-16604523D01*
X47162857Y-16785952D01*
X47041904Y-16906904D01*
X46920952Y-16967380D01*
D14*
%TO.C,R3*%
X47747333Y-29552380D02*
X47414000Y-29076190D01*
X47175904Y-29552380D02*
X47175904Y-28552380D01*
X47556857Y-28552380D01*
X47652095Y-28600000D01*
X47699714Y-28647619D01*
X47747333Y-28742857D01*
X47747333Y-28885714D01*
X47699714Y-28980952D01*
X47652095Y-29028571D01*
X47556857Y-29076190D01*
X47175904Y-29076190D01*
X48080666Y-28552380D02*
X48699714Y-28552380D01*
X48366380Y-28933333D01*
X48509238Y-28933333D01*
X48604476Y-28980952D01*
X48652095Y-29028571D01*
X48699714Y-29123809D01*
X48699714Y-29361904D01*
X48652095Y-29457142D01*
X48604476Y-29504761D01*
X48509238Y-29552380D01*
X48223523Y-29552380D01*
X48128285Y-29504761D01*
X48080666Y-29457142D01*
%TO.C,MNT1*%
X60285714Y-99252380D02*
X60285714Y-98252380D01*
X60619047Y-98966666D01*
X60952380Y-98252380D01*
X60952380Y-99252380D01*
X61428571Y-99252380D02*
X61428571Y-98252380D01*
X62000000Y-99252380D01*
X62000000Y-98252380D01*
X62333333Y-98252380D02*
X62904761Y-98252380D01*
X62619047Y-99252380D02*
X62619047Y-98252380D01*
X63761904Y-99252380D02*
X63190476Y-99252380D01*
X63476190Y-99252380D02*
X63476190Y-98252380D01*
X63380952Y-98395238D01*
X63285714Y-98490476D01*
X63190476Y-98538095D01*
%TO.C,D8*%
X79196904Y-47385380D02*
X79196904Y-46385380D01*
X79435000Y-46385380D01*
X79577857Y-46433000D01*
X79673095Y-46528238D01*
X79720714Y-46623476D01*
X79768333Y-46813952D01*
X79768333Y-46956809D01*
X79720714Y-47147285D01*
X79673095Y-47242523D01*
X79577857Y-47337761D01*
X79435000Y-47385380D01*
X79196904Y-47385380D01*
X80339761Y-46813952D02*
X80244523Y-46766333D01*
X80196904Y-46718714D01*
X80149285Y-46623476D01*
X80149285Y-46575857D01*
X80196904Y-46480619D01*
X80244523Y-46433000D01*
X80339761Y-46385380D01*
X80530238Y-46385380D01*
X80625476Y-46433000D01*
X80673095Y-46480619D01*
X80720714Y-46575857D01*
X80720714Y-46623476D01*
X80673095Y-46718714D01*
X80625476Y-46766333D01*
X80530238Y-46813952D01*
X80339761Y-46813952D01*
X80244523Y-46861571D01*
X80196904Y-46909190D01*
X80149285Y-47004428D01*
X80149285Y-47194904D01*
X80196904Y-47290142D01*
X80244523Y-47337761D01*
X80339761Y-47385380D01*
X80530238Y-47385380D01*
X80625476Y-47337761D01*
X80673095Y-47290142D01*
X80720714Y-47194904D01*
X80720714Y-47004428D01*
X80673095Y-46909190D01*
X80625476Y-46861571D01*
X80530238Y-46813952D01*
%TO.C,SW9*%
X60134666Y-34378761D02*
X60277523Y-34426380D01*
X60515619Y-34426380D01*
X60610857Y-34378761D01*
X60658476Y-34331142D01*
X60706095Y-34235904D01*
X60706095Y-34140666D01*
X60658476Y-34045428D01*
X60610857Y-33997809D01*
X60515619Y-33950190D01*
X60325142Y-33902571D01*
X60229904Y-33854952D01*
X60182285Y-33807333D01*
X60134666Y-33712095D01*
X60134666Y-33616857D01*
X60182285Y-33521619D01*
X60229904Y-33474000D01*
X60325142Y-33426380D01*
X60563238Y-33426380D01*
X60706095Y-33474000D01*
X61039428Y-33426380D02*
X61277523Y-34426380D01*
X61468000Y-33712095D01*
X61658476Y-34426380D01*
X61896571Y-33426380D01*
X62325142Y-34426380D02*
X62515619Y-34426380D01*
X62610857Y-34378761D01*
X62658476Y-34331142D01*
X62753714Y-34188285D01*
X62801333Y-33997809D01*
X62801333Y-33616857D01*
X62753714Y-33521619D01*
X62706095Y-33474000D01*
X62610857Y-33426380D01*
X62420380Y-33426380D01*
X62325142Y-33474000D01*
X62277523Y-33521619D01*
X62229904Y-33616857D01*
X62229904Y-33854952D01*
X62277523Y-33950190D01*
X62325142Y-33997809D01*
X62420380Y-34045428D01*
X62610857Y-34045428D01*
X62706095Y-33997809D01*
X62753714Y-33950190D01*
X62801333Y-33854952D01*
%TO.C,D1*%
X17033904Y-24448380D02*
X17033904Y-23448380D01*
X17272000Y-23448380D01*
X17414857Y-23496000D01*
X17510095Y-23591238D01*
X17557714Y-23686476D01*
X17605333Y-23876952D01*
X17605333Y-24019809D01*
X17557714Y-24210285D01*
X17510095Y-24305523D01*
X17414857Y-24400761D01*
X17272000Y-24448380D01*
X17033904Y-24448380D01*
X18557714Y-24448380D02*
X17986285Y-24448380D01*
X18272000Y-24448380D02*
X18272000Y-23448380D01*
X18176761Y-23591238D01*
X18081523Y-23686476D01*
X17986285Y-23734095D01*
%TO.C,D3*%
X22367904Y-28766380D02*
X22367904Y-27766380D01*
X22606000Y-27766380D01*
X22748857Y-27814000D01*
X22844095Y-27909238D01*
X22891714Y-28004476D01*
X22939333Y-28194952D01*
X22939333Y-28337809D01*
X22891714Y-28528285D01*
X22844095Y-28623523D01*
X22748857Y-28718761D01*
X22606000Y-28766380D01*
X22367904Y-28766380D01*
X23272666Y-27766380D02*
X23891714Y-27766380D01*
X23558380Y-28147333D01*
X23701238Y-28147333D01*
X23796476Y-28194952D01*
X23844095Y-28242571D01*
X23891714Y-28337809D01*
X23891714Y-28575904D01*
X23844095Y-28671142D01*
X23796476Y-28718761D01*
X23701238Y-28766380D01*
X23415523Y-28766380D01*
X23320285Y-28718761D01*
X23272666Y-28671142D01*
%TO.C,SW1*%
X28452581Y-94513092D02*
X28352673Y-94400424D01*
X28146476Y-94281377D01*
X28040188Y-94274997D01*
X27975139Y-94292427D01*
X27886281Y-94351096D01*
X27838662Y-94433574D01*
X27832282Y-94539862D01*
X27849712Y-94604911D01*
X27908381Y-94693770D01*
X28049529Y-94830247D01*
X28108198Y-94919105D01*
X28125627Y-94984154D01*
X28119248Y-95090442D01*
X28071629Y-95172921D01*
X27982770Y-95231590D01*
X27917721Y-95249020D01*
X27811433Y-95242640D01*
X27605237Y-95123592D01*
X27505328Y-95010925D01*
X27192844Y-94885497D02*
X27486647Y-93900424D01*
X26964547Y-94423776D01*
X27156733Y-93709948D01*
X26450536Y-94456926D01*
X26166989Y-93138519D02*
X26661861Y-93424234D01*
X26414425Y-93281377D02*
X25914425Y-94147402D01*
X26068332Y-94071303D01*
X26198430Y-94036444D01*
X26304718Y-94042823D01*
%TO.C,D4*%
X22558239Y-95245384D02*
X22058239Y-96111409D01*
X21852043Y-95992362D01*
X21752134Y-95879694D01*
X21717275Y-95749596D01*
X21723654Y-95643308D01*
X21777653Y-95454541D01*
X21849082Y-95330823D01*
X21985559Y-95189675D01*
X22074418Y-95131006D01*
X22204515Y-95096147D01*
X22352043Y-95126336D01*
X22558239Y-95245384D01*
X20987727Y-95108448D02*
X21321060Y-94531098D01*
X21003447Y-95557410D02*
X21566786Y-95057868D01*
X21030675Y-94748345D01*
%TO.C,U1*%
X30538095Y-29552380D02*
X30538095Y-30361904D01*
X30585714Y-30457142D01*
X30633333Y-30504761D01*
X30728571Y-30552380D01*
X30919047Y-30552380D01*
X31014285Y-30504761D01*
X31061904Y-30457142D01*
X31109523Y-30361904D01*
X31109523Y-29552380D01*
X32109523Y-30552380D02*
X31538095Y-30552380D01*
X31823809Y-30552380D02*
X31823809Y-29552380D01*
X31728571Y-29695238D01*
X31633333Y-29790476D01*
X31538095Y-29838095D01*
X44366666Y-39052380D02*
X44700000Y-40052380D01*
X45033333Y-39052380D01*
X45700000Y-39528571D02*
X45842857Y-39576190D01*
X45890476Y-39623809D01*
X45938095Y-39719047D01*
X45938095Y-39861904D01*
X45890476Y-39957142D01*
X45842857Y-40004761D01*
X45747619Y-40052380D01*
X45366666Y-40052380D01*
X45366666Y-39052380D01*
X45700000Y-39052380D01*
X45795238Y-39100000D01*
X45842857Y-39147619D01*
X45890476Y-39242857D01*
X45890476Y-39338095D01*
X45842857Y-39433333D01*
X45795238Y-39480952D01*
X45700000Y-39528571D01*
X45366666Y-39528571D01*
X46366666Y-39052380D02*
X46366666Y-39861904D01*
X46414285Y-39957142D01*
X46461904Y-40004761D01*
X46557142Y-40052380D01*
X46747619Y-40052380D01*
X46842857Y-40004761D01*
X46890476Y-39957142D01*
X46938095Y-39861904D01*
X46938095Y-39052380D01*
X47366666Y-40004761D02*
X47509523Y-40052380D01*
X47747619Y-40052380D01*
X47842857Y-40004761D01*
X47890476Y-39957142D01*
X47938095Y-39861904D01*
X47938095Y-39766666D01*
X47890476Y-39671428D01*
X47842857Y-39623809D01*
X47747619Y-39576190D01*
X47557142Y-39528571D01*
X47461904Y-39480952D01*
X47414285Y-39433333D01*
X47366666Y-39338095D01*
X47366666Y-39242857D01*
X47414285Y-39147619D01*
X47461904Y-39100000D01*
X47557142Y-39052380D01*
X47795238Y-39052380D01*
X47938095Y-39100000D01*
X16819047Y-48671428D02*
X17580952Y-48671428D01*
X31647619Y-30866666D02*
X30647619Y-31200000D01*
X31647619Y-31533333D01*
X30647619Y-31866666D02*
X31647619Y-31866666D01*
X31647619Y-32104761D01*
X31600000Y-32247619D01*
X31504761Y-32342857D01*
X31409523Y-32390476D01*
X31219047Y-32438095D01*
X31076190Y-32438095D01*
X30885714Y-32390476D01*
X30790476Y-32342857D01*
X30695238Y-32247619D01*
X30647619Y-32104761D01*
X30647619Y-31866666D01*
X30647619Y-32866666D02*
X31647619Y-32866666D01*
X31647619Y-33104761D01*
X31600000Y-33247619D01*
X31504761Y-33342857D01*
X31409523Y-33390476D01*
X31219047Y-33438095D01*
X31076190Y-33438095D01*
X30885714Y-33390476D01*
X30790476Y-33342857D01*
X30695238Y-33247619D01*
X30647619Y-33104761D01*
X30647619Y-32866666D01*
X43819047Y-52671428D02*
X44580952Y-52671428D01*
X29719047Y-32971428D02*
X30480952Y-32971428D01*
X31819047Y-33071428D02*
X32580952Y-33071428D01*
X32200000Y-33452380D02*
X32200000Y-32690476D01*
X43819047Y-38671428D02*
X44580952Y-38671428D01*
X43866666Y-51052380D02*
X44200000Y-52052380D01*
X44533333Y-51052380D01*
X44866666Y-52052380D02*
X44866666Y-51052380D01*
X45104761Y-51052380D01*
X45247619Y-51100000D01*
X45342857Y-51195238D01*
X45390476Y-51290476D01*
X45438095Y-51480952D01*
X45438095Y-51623809D01*
X45390476Y-51814285D01*
X45342857Y-51909523D01*
X45247619Y-52004761D01*
X45104761Y-52052380D01*
X44866666Y-52052380D01*
X45866666Y-52052380D02*
X45866666Y-51052380D01*
X46104761Y-51052380D01*
X46247619Y-51100000D01*
X46342857Y-51195238D01*
X46390476Y-51290476D01*
X46438095Y-51480952D01*
X46438095Y-51623809D01*
X46390476Y-51814285D01*
X46342857Y-51909523D01*
X46247619Y-52004761D01*
X46104761Y-52052380D01*
X45866666Y-52052380D01*
%TO.C,SW5*%
X82848666Y-43838761D02*
X82991523Y-43886380D01*
X83229619Y-43886380D01*
X83324857Y-43838761D01*
X83372476Y-43791142D01*
X83420095Y-43695904D01*
X83420095Y-43600666D01*
X83372476Y-43505428D01*
X83324857Y-43457809D01*
X83229619Y-43410190D01*
X83039142Y-43362571D01*
X82943904Y-43314952D01*
X82896285Y-43267333D01*
X82848666Y-43172095D01*
X82848666Y-43076857D01*
X82896285Y-42981619D01*
X82943904Y-42934000D01*
X83039142Y-42886380D01*
X83277238Y-42886380D01*
X83420095Y-42934000D01*
X83753428Y-42886380D02*
X83991523Y-43886380D01*
X84182000Y-43172095D01*
X84372476Y-43886380D01*
X84610571Y-42886380D01*
X85467714Y-42886380D02*
X84991523Y-42886380D01*
X84943904Y-43362571D01*
X84991523Y-43314952D01*
X85086761Y-43267333D01*
X85324857Y-43267333D01*
X85420095Y-43314952D01*
X85467714Y-43362571D01*
X85515333Y-43457809D01*
X85515333Y-43695904D01*
X85467714Y-43791142D01*
X85420095Y-43838761D01*
X85324857Y-43886380D01*
X85086761Y-43886380D01*
X84991523Y-43838761D01*
X84943904Y-43791142D01*
%TO.C,R4*%
X55782380Y-26766666D02*
X55306190Y-27100000D01*
X55782380Y-27338095D02*
X54782380Y-27338095D01*
X54782380Y-26957142D01*
X54830000Y-26861904D01*
X54877619Y-26814285D01*
X54972857Y-26766666D01*
X55115714Y-26766666D01*
X55210952Y-26814285D01*
X55258571Y-26861904D01*
X55306190Y-26957142D01*
X55306190Y-27338095D01*
X55115714Y-25909523D02*
X55782380Y-25909523D01*
X54734761Y-26147619D02*
X55449047Y-26385714D01*
X55449047Y-25766666D01*
%TO.C,D5*%
X39864269Y-96388384D02*
X39364269Y-97254409D01*
X39158073Y-97135362D01*
X39058164Y-97022694D01*
X39023305Y-96892596D01*
X39029684Y-96786308D01*
X39083683Y-96597541D01*
X39155112Y-96473823D01*
X39291589Y-96332675D01*
X39380448Y-96274006D01*
X39510545Y-96239147D01*
X39658073Y-96269336D01*
X39864269Y-96388384D01*
X38085851Y-96516314D02*
X38498244Y-96754409D01*
X38777578Y-96365826D01*
X38712530Y-96383255D01*
X38606241Y-96376876D01*
X38400045Y-96257828D01*
X38341376Y-96168970D01*
X38323946Y-96103921D01*
X38330326Y-95997633D01*
X38449373Y-95791436D01*
X38538232Y-95732767D01*
X38603281Y-95715337D01*
X38709569Y-95721717D01*
X38915765Y-95840765D01*
X38974434Y-95929623D01*
X38991864Y-95994672D01*
%TO.C,R7*%
X30051333Y-26066380D02*
X29718000Y-25590190D01*
X29479904Y-26066380D02*
X29479904Y-25066380D01*
X29860857Y-25066380D01*
X29956095Y-25114000D01*
X30003714Y-25161619D01*
X30051333Y-25256857D01*
X30051333Y-25399714D01*
X30003714Y-25494952D01*
X29956095Y-25542571D01*
X29860857Y-25590190D01*
X29479904Y-25590190D01*
X30384666Y-25066380D02*
X31051333Y-25066380D01*
X30622761Y-26066380D01*
%TO.C,R6*%
X35893333Y-23272380D02*
X35560000Y-22796190D01*
X35321904Y-23272380D02*
X35321904Y-22272380D01*
X35702857Y-22272380D01*
X35798095Y-22320000D01*
X35845714Y-22367619D01*
X35893333Y-22462857D01*
X35893333Y-22605714D01*
X35845714Y-22700952D01*
X35798095Y-22748571D01*
X35702857Y-22796190D01*
X35321904Y-22796190D01*
X36750476Y-22272380D02*
X36560000Y-22272380D01*
X36464761Y-22320000D01*
X36417142Y-22367619D01*
X36321904Y-22510476D01*
X36274285Y-22700952D01*
X36274285Y-23081904D01*
X36321904Y-23177142D01*
X36369523Y-23224761D01*
X36464761Y-23272380D01*
X36655238Y-23272380D01*
X36750476Y-23224761D01*
X36798095Y-23177142D01*
X36845714Y-23081904D01*
X36845714Y-22843809D01*
X36798095Y-22748571D01*
X36750476Y-22700952D01*
X36655238Y-22653333D01*
X36464761Y-22653333D01*
X36369523Y-22700952D01*
X36321904Y-22748571D01*
X36274285Y-22843809D01*
%TO.C,SW6*%
X126848666Y-61838761D02*
X126991523Y-61886380D01*
X127229619Y-61886380D01*
X127324857Y-61838761D01*
X127372476Y-61791142D01*
X127420095Y-61695904D01*
X127420095Y-61600666D01*
X127372476Y-61505428D01*
X127324857Y-61457809D01*
X127229619Y-61410190D01*
X127039142Y-61362571D01*
X126943904Y-61314952D01*
X126896285Y-61267333D01*
X126848666Y-61172095D01*
X126848666Y-61076857D01*
X126896285Y-60981619D01*
X126943904Y-60934000D01*
X127039142Y-60886380D01*
X127277238Y-60886380D01*
X127420095Y-60934000D01*
X127753428Y-60886380D02*
X127991523Y-61886380D01*
X128182000Y-61172095D01*
X128372476Y-61886380D01*
X128610571Y-60886380D01*
X129420095Y-60886380D02*
X129229619Y-60886380D01*
X129134380Y-60934000D01*
X129086761Y-60981619D01*
X128991523Y-61124476D01*
X128943904Y-61314952D01*
X128943904Y-61695904D01*
X128991523Y-61791142D01*
X129039142Y-61838761D01*
X129134380Y-61886380D01*
X129324857Y-61886380D01*
X129420095Y-61838761D01*
X129467714Y-61791142D01*
X129515333Y-61695904D01*
X129515333Y-61457809D01*
X129467714Y-61362571D01*
X129420095Y-61314952D01*
X129324857Y-61267333D01*
X129134380Y-61267333D01*
X129039142Y-61314952D01*
X128991523Y-61362571D01*
X128943904Y-61457809D01*
%TO.C,C29*%
X101771142Y-49162142D02*
X101723523Y-49209761D01*
X101580666Y-49257380D01*
X101485428Y-49257380D01*
X101342571Y-49209761D01*
X101247333Y-49114523D01*
X101199714Y-49019285D01*
X101152095Y-48828809D01*
X101152095Y-48685952D01*
X101199714Y-48495476D01*
X101247333Y-48400238D01*
X101342571Y-48305000D01*
X101485428Y-48257380D01*
X101580666Y-48257380D01*
X101723523Y-48305000D01*
X101771142Y-48352619D01*
X102152095Y-48352619D02*
X102199714Y-48305000D01*
X102294952Y-48257380D01*
X102533047Y-48257380D01*
X102628285Y-48305000D01*
X102675904Y-48352619D01*
X102723523Y-48447857D01*
X102723523Y-48543095D01*
X102675904Y-48685952D01*
X102104476Y-49257380D01*
X102723523Y-49257380D01*
X103199714Y-49257380D02*
X103390190Y-49257380D01*
X103485428Y-49209761D01*
X103533047Y-49162142D01*
X103628285Y-49019285D01*
X103675904Y-48828809D01*
X103675904Y-48447857D01*
X103628285Y-48352619D01*
X103580666Y-48305000D01*
X103485428Y-48257380D01*
X103294952Y-48257380D01*
X103199714Y-48305000D01*
X103152095Y-48352619D01*
X103104476Y-48447857D01*
X103104476Y-48685952D01*
X103152095Y-48781190D01*
X103199714Y-48828809D01*
X103294952Y-48876428D01*
X103485428Y-48876428D01*
X103580666Y-48828809D01*
X103628285Y-48781190D01*
X103675904Y-48685952D01*
%TO.C,C30*%
X123615142Y-59068142D02*
X123567523Y-59115761D01*
X123424666Y-59163380D01*
X123329428Y-59163380D01*
X123186571Y-59115761D01*
X123091333Y-59020523D01*
X123043714Y-58925285D01*
X122996095Y-58734809D01*
X122996095Y-58591952D01*
X123043714Y-58401476D01*
X123091333Y-58306238D01*
X123186571Y-58211000D01*
X123329428Y-58163380D01*
X123424666Y-58163380D01*
X123567523Y-58211000D01*
X123615142Y-58258619D01*
X123948476Y-58163380D02*
X124567523Y-58163380D01*
X124234190Y-58544333D01*
X124377047Y-58544333D01*
X124472285Y-58591952D01*
X124519904Y-58639571D01*
X124567523Y-58734809D01*
X124567523Y-58972904D01*
X124519904Y-59068142D01*
X124472285Y-59115761D01*
X124377047Y-59163380D01*
X124091333Y-59163380D01*
X123996095Y-59115761D01*
X123948476Y-59068142D01*
X125186571Y-58163380D02*
X125281809Y-58163380D01*
X125377047Y-58211000D01*
X125424666Y-58258619D01*
X125472285Y-58353857D01*
X125519904Y-58544333D01*
X125519904Y-58782428D01*
X125472285Y-58972904D01*
X125424666Y-59068142D01*
X125377047Y-59115761D01*
X125281809Y-59163380D01*
X125186571Y-59163380D01*
X125091333Y-59115761D01*
X125043714Y-59068142D01*
X124996095Y-58972904D01*
X124948476Y-58782428D01*
X124948476Y-58544333D01*
X124996095Y-58353857D01*
X125043714Y-58258619D01*
X125091333Y-58211000D01*
X125186571Y-58163380D01*
%TO.C,C22*%
X52237142Y-28124857D02*
X52284761Y-28172476D01*
X52332380Y-28315333D01*
X52332380Y-28410571D01*
X52284761Y-28553428D01*
X52189523Y-28648666D01*
X52094285Y-28696285D01*
X51903809Y-28743904D01*
X51760952Y-28743904D01*
X51570476Y-28696285D01*
X51475238Y-28648666D01*
X51380000Y-28553428D01*
X51332380Y-28410571D01*
X51332380Y-28315333D01*
X51380000Y-28172476D01*
X51427619Y-28124857D01*
X51427619Y-27743904D02*
X51380000Y-27696285D01*
X51332380Y-27601047D01*
X51332380Y-27362952D01*
X51380000Y-27267714D01*
X51427619Y-27220095D01*
X51522857Y-27172476D01*
X51618095Y-27172476D01*
X51760952Y-27220095D01*
X52332380Y-27791523D01*
X52332380Y-27172476D01*
X51427619Y-26791523D02*
X51380000Y-26743904D01*
X51332380Y-26648666D01*
X51332380Y-26410571D01*
X51380000Y-26315333D01*
X51427619Y-26267714D01*
X51522857Y-26220095D01*
X51618095Y-26220095D01*
X51760952Y-26267714D01*
X52332380Y-26839142D01*
X52332380Y-26220095D01*
%TO.C,R5*%
X35893333Y-22002380D02*
X35560000Y-21526190D01*
X35321904Y-22002380D02*
X35321904Y-21002380D01*
X35702857Y-21002380D01*
X35798095Y-21050000D01*
X35845714Y-21097619D01*
X35893333Y-21192857D01*
X35893333Y-21335714D01*
X35845714Y-21430952D01*
X35798095Y-21478571D01*
X35702857Y-21526190D01*
X35321904Y-21526190D01*
X36798095Y-21002380D02*
X36321904Y-21002380D01*
X36274285Y-21478571D01*
X36321904Y-21430952D01*
X36417142Y-21383333D01*
X36655238Y-21383333D01*
X36750476Y-21430952D01*
X36798095Y-21478571D01*
X36845714Y-21573809D01*
X36845714Y-21811904D01*
X36798095Y-21907142D01*
X36750476Y-21954761D01*
X36655238Y-22002380D01*
X36417142Y-22002380D01*
X36321904Y-21954761D01*
X36274285Y-21907142D01*
%TO.C,R1*%
X22733333Y-23552380D02*
X22400000Y-23076190D01*
X22161904Y-23552380D02*
X22161904Y-22552380D01*
X22542857Y-22552380D01*
X22638095Y-22600000D01*
X22685714Y-22647619D01*
X22733333Y-22742857D01*
X22733333Y-22885714D01*
X22685714Y-22980952D01*
X22638095Y-23028571D01*
X22542857Y-23076190D01*
X22161904Y-23076190D01*
X23685714Y-23552380D02*
X23114285Y-23552380D01*
X23400000Y-23552380D02*
X23400000Y-22552380D01*
X23304761Y-22695238D01*
X23209523Y-22790476D01*
X23114285Y-22838095D01*
%TO.C,C28*%
X79064642Y-41288142D02*
X79017023Y-41335761D01*
X78874166Y-41383380D01*
X78778928Y-41383380D01*
X78636071Y-41335761D01*
X78540833Y-41240523D01*
X78493214Y-41145285D01*
X78445595Y-40954809D01*
X78445595Y-40811952D01*
X78493214Y-40621476D01*
X78540833Y-40526238D01*
X78636071Y-40431000D01*
X78778928Y-40383380D01*
X78874166Y-40383380D01*
X79017023Y-40431000D01*
X79064642Y-40478619D01*
X79445595Y-40478619D02*
X79493214Y-40431000D01*
X79588452Y-40383380D01*
X79826547Y-40383380D01*
X79921785Y-40431000D01*
X79969404Y-40478619D01*
X80017023Y-40573857D01*
X80017023Y-40669095D01*
X79969404Y-40811952D01*
X79397976Y-41383380D01*
X80017023Y-41383380D01*
X80588452Y-40811952D02*
X80493214Y-40764333D01*
X80445595Y-40716714D01*
X80397976Y-40621476D01*
X80397976Y-40573857D01*
X80445595Y-40478619D01*
X80493214Y-40431000D01*
X80588452Y-40383380D01*
X80778928Y-40383380D01*
X80874166Y-40431000D01*
X80921785Y-40478619D01*
X80969404Y-40573857D01*
X80969404Y-40621476D01*
X80921785Y-40716714D01*
X80874166Y-40764333D01*
X80778928Y-40811952D01*
X80588452Y-40811952D01*
X80493214Y-40859571D01*
X80445595Y-40907190D01*
X80397976Y-41002428D01*
X80397976Y-41192904D01*
X80445595Y-41288142D01*
X80493214Y-41335761D01*
X80588452Y-41383380D01*
X80778928Y-41383380D01*
X80874166Y-41335761D01*
X80921785Y-41288142D01*
X80969404Y-41192904D01*
X80969404Y-41002428D01*
X80921785Y-40907190D01*
X80874166Y-40859571D01*
X80778928Y-40811952D01*
%TO.C,SW2*%
X45978581Y-95783092D02*
X45878673Y-95670424D01*
X45672476Y-95551377D01*
X45566188Y-95544997D01*
X45501139Y-95562427D01*
X45412281Y-95621096D01*
X45364662Y-95703574D01*
X45358282Y-95809862D01*
X45375712Y-95874911D01*
X45434381Y-95963770D01*
X45575529Y-96100247D01*
X45634198Y-96189105D01*
X45651627Y-96254154D01*
X45645248Y-96360442D01*
X45597629Y-96442921D01*
X45508770Y-96501590D01*
X45443721Y-96519020D01*
X45337433Y-96512640D01*
X45131237Y-96393592D01*
X45031328Y-96280925D01*
X44718844Y-96155497D02*
X45012647Y-95170424D01*
X44490547Y-95693776D01*
X44682733Y-94979948D01*
X43976536Y-95726926D01*
X43735480Y-95477781D02*
X43670431Y-95495210D01*
X43564143Y-95488831D01*
X43357947Y-95369783D01*
X43299278Y-95280925D01*
X43281848Y-95215876D01*
X43288228Y-95109588D01*
X43335847Y-95027109D01*
X43448514Y-94927201D01*
X44229100Y-94718043D01*
X43692989Y-94408519D01*
%TO.C,J2*%
X14066666Y-46562380D02*
X14066666Y-47276666D01*
X14019047Y-47419523D01*
X13923809Y-47514761D01*
X13780952Y-47562380D01*
X13685714Y-47562380D01*
X14495238Y-46657619D02*
X14542857Y-46610000D01*
X14638095Y-46562380D01*
X14876190Y-46562380D01*
X14971428Y-46610000D01*
X15019047Y-46657619D01*
X15066666Y-46752857D01*
X15066666Y-46848095D01*
X15019047Y-46990952D01*
X14447619Y-47562380D01*
X15066666Y-47562380D01*
%TO.C,MNT3*%
X124285714Y-99252380D02*
X124285714Y-98252380D01*
X124619047Y-98966666D01*
X124952380Y-98252380D01*
X124952380Y-99252380D01*
X125428571Y-99252380D02*
X125428571Y-98252380D01*
X126000000Y-99252380D01*
X126000000Y-98252380D01*
X126333333Y-98252380D02*
X126904761Y-98252380D01*
X126619047Y-99252380D02*
X126619047Y-98252380D01*
X127142857Y-98252380D02*
X127761904Y-98252380D01*
X127428571Y-98633333D01*
X127571428Y-98633333D01*
X127666666Y-98680952D01*
X127714285Y-98728571D01*
X127761904Y-98823809D01*
X127761904Y-99061904D01*
X127714285Y-99157142D01*
X127666666Y-99204761D01*
X127571428Y-99252380D01*
X127285714Y-99252380D01*
X127190476Y-99204761D01*
X127142857Y-99157142D01*
%TO.C,IC1*%
X27817809Y-19302380D02*
X27817809Y-18302380D01*
X28865428Y-19207142D02*
X28817809Y-19254761D01*
X28674952Y-19302380D01*
X28579714Y-19302380D01*
X28436857Y-19254761D01*
X28341619Y-19159523D01*
X28294000Y-19064285D01*
X28246380Y-18873809D01*
X28246380Y-18730952D01*
X28294000Y-18540476D01*
X28341619Y-18445238D01*
X28436857Y-18350000D01*
X28579714Y-18302380D01*
X28674952Y-18302380D01*
X28817809Y-18350000D01*
X28865428Y-18397619D01*
X29817809Y-19302380D02*
X29246380Y-19302380D01*
X29532095Y-19302380D02*
X29532095Y-18302380D01*
X29436857Y-18445238D01*
X29341619Y-18540476D01*
X29246380Y-18588095D01*
%TO.C,C27*%
X54527142Y-50178142D02*
X54479523Y-50225761D01*
X54336666Y-50273380D01*
X54241428Y-50273380D01*
X54098571Y-50225761D01*
X54003333Y-50130523D01*
X53955714Y-50035285D01*
X53908095Y-49844809D01*
X53908095Y-49701952D01*
X53955714Y-49511476D01*
X54003333Y-49416238D01*
X54098571Y-49321000D01*
X54241428Y-49273380D01*
X54336666Y-49273380D01*
X54479523Y-49321000D01*
X54527142Y-49368619D01*
X54908095Y-49368619D02*
X54955714Y-49321000D01*
X55050952Y-49273380D01*
X55289047Y-49273380D01*
X55384285Y-49321000D01*
X55431904Y-49368619D01*
X55479523Y-49463857D01*
X55479523Y-49559095D01*
X55431904Y-49701952D01*
X54860476Y-50273380D01*
X55479523Y-50273380D01*
X55812857Y-49273380D02*
X56479523Y-49273380D01*
X56050952Y-50273380D01*
%TO.C,SW7*%
X104848666Y-51838761D02*
X104991523Y-51886380D01*
X105229619Y-51886380D01*
X105324857Y-51838761D01*
X105372476Y-51791142D01*
X105420095Y-51695904D01*
X105420095Y-51600666D01*
X105372476Y-51505428D01*
X105324857Y-51457809D01*
X105229619Y-51410190D01*
X105039142Y-51362571D01*
X104943904Y-51314952D01*
X104896285Y-51267333D01*
X104848666Y-51172095D01*
X104848666Y-51076857D01*
X104896285Y-50981619D01*
X104943904Y-50934000D01*
X105039142Y-50886380D01*
X105277238Y-50886380D01*
X105420095Y-50934000D01*
X105753428Y-50886380D02*
X105991523Y-51886380D01*
X106182000Y-51172095D01*
X106372476Y-51886380D01*
X106610571Y-50886380D01*
X106896285Y-50886380D02*
X107562952Y-50886380D01*
X107134380Y-51886380D01*
%TO.C,D6*%
X30444326Y-80930213D02*
X29944326Y-81796238D01*
X29738130Y-81677191D01*
X29638221Y-81564523D01*
X29603362Y-81434425D01*
X29609741Y-81328137D01*
X29663740Y-81139370D01*
X29735169Y-81015652D01*
X29871646Y-80874504D01*
X29960505Y-80815835D01*
X30090602Y-80780976D01*
X30238130Y-80811165D01*
X30444326Y-80930213D01*
X28707147Y-81081952D02*
X28872104Y-81177191D01*
X28978392Y-81183570D01*
X29043441Y-81166140D01*
X29197348Y-81090042D01*
X29333826Y-80948894D01*
X29524302Y-80618979D01*
X29530682Y-80512691D01*
X29513252Y-80447643D01*
X29454583Y-80358784D01*
X29289626Y-80263546D01*
X29183338Y-80257166D01*
X29118289Y-80274596D01*
X29029430Y-80333265D01*
X28910383Y-80539462D01*
X28904003Y-80645750D01*
X28921433Y-80710799D01*
X28980102Y-80799657D01*
X29145059Y-80894895D01*
X29251347Y-80901275D01*
X29316396Y-80883845D01*
X29405254Y-80825176D01*
%TO.C,D2*%
X17287904Y-21400380D02*
X17287904Y-20400380D01*
X17526000Y-20400380D01*
X17668857Y-20448000D01*
X17764095Y-20543238D01*
X17811714Y-20638476D01*
X17859333Y-20828952D01*
X17859333Y-20971809D01*
X17811714Y-21162285D01*
X17764095Y-21257523D01*
X17668857Y-21352761D01*
X17526000Y-21400380D01*
X17287904Y-21400380D01*
X18240285Y-20495619D02*
X18287904Y-20448000D01*
X18383142Y-20400380D01*
X18621238Y-20400380D01*
X18716476Y-20448000D01*
X18764095Y-20495619D01*
X18811714Y-20590857D01*
X18811714Y-20686095D01*
X18764095Y-20828952D01*
X18192666Y-21400380D01*
X18811714Y-21400380D01*
%TO.C,C4*%
X15799142Y-91860666D02*
X15846761Y-91908285D01*
X15894380Y-92051142D01*
X15894380Y-92146380D01*
X15846761Y-92289238D01*
X15751523Y-92384476D01*
X15656285Y-92432095D01*
X15465809Y-92479714D01*
X15322952Y-92479714D01*
X15132476Y-92432095D01*
X15037238Y-92384476D01*
X14942000Y-92289238D01*
X14894380Y-92146380D01*
X14894380Y-92051142D01*
X14942000Y-91908285D01*
X14989619Y-91860666D01*
X15227714Y-91003523D02*
X15894380Y-91003523D01*
X14846761Y-91241619D02*
X15561047Y-91479714D01*
X15561047Y-90860666D01*
%TO.C,SW3*%
X36326581Y-80543092D02*
X36226673Y-80430424D01*
X36020476Y-80311377D01*
X35914188Y-80304997D01*
X35849139Y-80322427D01*
X35760281Y-80381096D01*
X35712662Y-80463574D01*
X35706282Y-80569862D01*
X35723712Y-80634911D01*
X35782381Y-80723770D01*
X35923529Y-80860247D01*
X35982198Y-80949105D01*
X35999627Y-81014154D01*
X35993248Y-81120442D01*
X35945629Y-81202921D01*
X35856770Y-81261590D01*
X35791721Y-81279020D01*
X35685433Y-81272640D01*
X35479237Y-81153592D01*
X35379328Y-81040925D01*
X35066844Y-80915497D02*
X35360647Y-79930424D01*
X34838547Y-80453776D01*
X35030733Y-79739948D01*
X34324536Y-80486926D01*
X34077100Y-80344069D02*
X33540989Y-80034545D01*
X34020141Y-79871297D01*
X33896423Y-79799868D01*
X33837754Y-79711010D01*
X33820324Y-79645961D01*
X33826704Y-79539673D01*
X33945751Y-79333477D01*
X34034610Y-79274808D01*
X34099659Y-79257378D01*
X34205947Y-79263758D01*
X34453382Y-79406615D01*
X34512052Y-79495473D01*
X34529481Y-79560522D01*
%TO.C,C23*%
X32971142Y-20160857D02*
X33018761Y-20208476D01*
X33066380Y-20351333D01*
X33066380Y-20446571D01*
X33018761Y-20589428D01*
X32923523Y-20684666D01*
X32828285Y-20732285D01*
X32637809Y-20779904D01*
X32494952Y-20779904D01*
X32304476Y-20732285D01*
X32209238Y-20684666D01*
X32114000Y-20589428D01*
X32066380Y-20446571D01*
X32066380Y-20351333D01*
X32114000Y-20208476D01*
X32161619Y-20160857D01*
X32161619Y-19779904D02*
X32114000Y-19732285D01*
X32066380Y-19637047D01*
X32066380Y-19398952D01*
X32114000Y-19303714D01*
X32161619Y-19256095D01*
X32256857Y-19208476D01*
X32352095Y-19208476D01*
X32494952Y-19256095D01*
X33066380Y-19827523D01*
X33066380Y-19208476D01*
X32066380Y-18875142D02*
X32066380Y-18256095D01*
X32447333Y-18589428D01*
X32447333Y-18446571D01*
X32494952Y-18351333D01*
X32542571Y-18303714D01*
X32637809Y-18256095D01*
X32875904Y-18256095D01*
X32971142Y-18303714D01*
X33018761Y-18351333D01*
X33066380Y-18446571D01*
X33066380Y-18732285D01*
X33018761Y-18827523D01*
X32971142Y-18875142D01*
%TO.C,MNT2*%
X92285714Y-99252380D02*
X92285714Y-98252380D01*
X92619047Y-98966666D01*
X92952380Y-98252380D01*
X92952380Y-99252380D01*
X93428571Y-99252380D02*
X93428571Y-98252380D01*
X94000000Y-99252380D01*
X94000000Y-98252380D01*
X94333333Y-98252380D02*
X94904761Y-98252380D01*
X94619047Y-99252380D02*
X94619047Y-98252380D01*
X95190476Y-98347619D02*
X95238095Y-98300000D01*
X95333333Y-98252380D01*
X95571428Y-98252380D01*
X95666666Y-98300000D01*
X95714285Y-98347619D01*
X95761904Y-98442857D01*
X95761904Y-98538095D01*
X95714285Y-98680952D01*
X95142857Y-99252380D01*
X95761904Y-99252380D01*
%TO.C,BT1*%
X94972285Y-23788571D02*
X95115142Y-23836190D01*
X95162761Y-23883809D01*
X95210380Y-23979047D01*
X95210380Y-24121904D01*
X95162761Y-24217142D01*
X95115142Y-24264761D01*
X95019904Y-24312380D01*
X94638952Y-24312380D01*
X94638952Y-23312380D01*
X94972285Y-23312380D01*
X95067523Y-23360000D01*
X95115142Y-23407619D01*
X95162761Y-23502857D01*
X95162761Y-23598095D01*
X95115142Y-23693333D01*
X95067523Y-23740952D01*
X94972285Y-23788571D01*
X94638952Y-23788571D01*
X95496095Y-23312380D02*
X96067523Y-23312380D01*
X95781809Y-24312380D02*
X95781809Y-23312380D01*
X96924666Y-24312380D02*
X96353238Y-24312380D01*
X96638952Y-24312380D02*
X96638952Y-23312380D01*
X96543714Y-23455238D01*
X96448476Y-23550476D01*
X96353238Y-23598095D01*
%TO.C,R2*%
X23447333Y-18700380D02*
X23114000Y-18224190D01*
X22875904Y-18700380D02*
X22875904Y-17700380D01*
X23256857Y-17700380D01*
X23352095Y-17748000D01*
X23399714Y-17795619D01*
X23447333Y-17890857D01*
X23447333Y-18033714D01*
X23399714Y-18128952D01*
X23352095Y-18176571D01*
X23256857Y-18224190D01*
X22875904Y-18224190D01*
X23828285Y-17795619D02*
X23875904Y-17748000D01*
X23971142Y-17700380D01*
X24209238Y-17700380D01*
X24304476Y-17748000D01*
X24352095Y-17795619D01*
X24399714Y-17890857D01*
X24399714Y-17986095D01*
X24352095Y-18128952D01*
X23780666Y-18700380D01*
X24399714Y-18700380D01*
%TO.C,SW4*%
X57848666Y-52838761D02*
X57991523Y-52886380D01*
X58229619Y-52886380D01*
X58324857Y-52838761D01*
X58372476Y-52791142D01*
X58420095Y-52695904D01*
X58420095Y-52600666D01*
X58372476Y-52505428D01*
X58324857Y-52457809D01*
X58229619Y-52410190D01*
X58039142Y-52362571D01*
X57943904Y-52314952D01*
X57896285Y-52267333D01*
X57848666Y-52172095D01*
X57848666Y-52076857D01*
X57896285Y-51981619D01*
X57943904Y-51934000D01*
X58039142Y-51886380D01*
X58277238Y-51886380D01*
X58420095Y-51934000D01*
X58753428Y-51886380D02*
X58991523Y-52886380D01*
X59182000Y-52172095D01*
X59372476Y-52886380D01*
X59610571Y-51886380D01*
X60420095Y-52219714D02*
X60420095Y-52886380D01*
X60182000Y-51838761D02*
X59943904Y-52553047D01*
X60562952Y-52553047D01*
%TO.C,D10*%
X122535714Y-65419380D02*
X122535714Y-64419380D01*
X122773809Y-64419380D01*
X122916666Y-64467000D01*
X123011904Y-64562238D01*
X123059523Y-64657476D01*
X123107142Y-64847952D01*
X123107142Y-64990809D01*
X123059523Y-65181285D01*
X123011904Y-65276523D01*
X122916666Y-65371761D01*
X122773809Y-65419380D01*
X122535714Y-65419380D01*
X124059523Y-65419380D02*
X123488095Y-65419380D01*
X123773809Y-65419380D02*
X123773809Y-64419380D01*
X123678571Y-64562238D01*
X123583333Y-64657476D01*
X123488095Y-64705095D01*
X124678571Y-64419380D02*
X124773809Y-64419380D01*
X124869047Y-64467000D01*
X124916666Y-64514619D01*
X124964285Y-64609857D01*
X125011904Y-64800333D01*
X125011904Y-65038428D01*
X124964285Y-65228904D01*
X124916666Y-65324142D01*
X124869047Y-65371761D01*
X124773809Y-65419380D01*
X124678571Y-65419380D01*
X124583333Y-65371761D01*
X124535714Y-65324142D01*
X124488095Y-65228904D01*
X124440476Y-65038428D01*
X124440476Y-64800333D01*
X124488095Y-64609857D01*
X124535714Y-64514619D01*
X124583333Y-64467000D01*
X124678571Y-64419380D01*
%TO.C,C24*%
X25859142Y-18128857D02*
X25906761Y-18176476D01*
X25954380Y-18319333D01*
X25954380Y-18414571D01*
X25906761Y-18557428D01*
X25811523Y-18652666D01*
X25716285Y-18700285D01*
X25525809Y-18747904D01*
X25382952Y-18747904D01*
X25192476Y-18700285D01*
X25097238Y-18652666D01*
X25002000Y-18557428D01*
X24954380Y-18414571D01*
X24954380Y-18319333D01*
X25002000Y-18176476D01*
X25049619Y-18128857D01*
X25049619Y-17747904D02*
X25002000Y-17700285D01*
X24954380Y-17605047D01*
X24954380Y-17366952D01*
X25002000Y-17271714D01*
X25049619Y-17224095D01*
X25144857Y-17176476D01*
X25240095Y-17176476D01*
X25382952Y-17224095D01*
X25954380Y-17795523D01*
X25954380Y-17176476D01*
X25287714Y-16319333D02*
X25954380Y-16319333D01*
X24906761Y-16557428D02*
X25621047Y-16795523D01*
X25621047Y-16176476D01*
%TO.C,C26*%
X26279142Y-78975357D02*
X26326761Y-79022976D01*
X26374380Y-79165833D01*
X26374380Y-79261071D01*
X26326761Y-79403928D01*
X26231523Y-79499166D01*
X26136285Y-79546785D01*
X25945809Y-79594404D01*
X25802952Y-79594404D01*
X25612476Y-79546785D01*
X25517238Y-79499166D01*
X25422000Y-79403928D01*
X25374380Y-79261071D01*
X25374380Y-79165833D01*
X25422000Y-79022976D01*
X25469619Y-78975357D01*
X25469619Y-78594404D02*
X25422000Y-78546785D01*
X25374380Y-78451547D01*
X25374380Y-78213452D01*
X25422000Y-78118214D01*
X25469619Y-78070595D01*
X25564857Y-78022976D01*
X25660095Y-78022976D01*
X25802952Y-78070595D01*
X26374380Y-78642023D01*
X26374380Y-78022976D01*
X25374380Y-77165833D02*
X25374380Y-77356309D01*
X25422000Y-77451547D01*
X25469619Y-77499166D01*
X25612476Y-77594404D01*
X25802952Y-77642023D01*
X26183904Y-77642023D01*
X26279142Y-77594404D01*
X26326761Y-77546785D01*
X26374380Y-77451547D01*
X26374380Y-77261071D01*
X26326761Y-77165833D01*
X26279142Y-77118214D01*
X26183904Y-77070595D01*
X25945809Y-77070595D01*
X25850571Y-77118214D01*
X25802952Y-77165833D01*
X25755333Y-77261071D01*
X25755333Y-77451547D01*
X25802952Y-77546785D01*
X25850571Y-77594404D01*
X25945809Y-77642023D01*
%TO.C,C25*%
X41883142Y-91383142D02*
X41835523Y-91430761D01*
X41692666Y-91478380D01*
X41597428Y-91478380D01*
X41454571Y-91430761D01*
X41359333Y-91335523D01*
X41311714Y-91240285D01*
X41264095Y-91049809D01*
X41264095Y-90906952D01*
X41311714Y-90716476D01*
X41359333Y-90621238D01*
X41454571Y-90526000D01*
X41597428Y-90478380D01*
X41692666Y-90478380D01*
X41835523Y-90526000D01*
X41883142Y-90573619D01*
X42264095Y-90573619D02*
X42311714Y-90526000D01*
X42406952Y-90478380D01*
X42645047Y-90478380D01*
X42740285Y-90526000D01*
X42787904Y-90573619D01*
X42835523Y-90668857D01*
X42835523Y-90764095D01*
X42787904Y-90906952D01*
X42216476Y-91478380D01*
X42835523Y-91478380D01*
X43740285Y-90478380D02*
X43264095Y-90478380D01*
X43216476Y-90954571D01*
X43264095Y-90906952D01*
X43359333Y-90859333D01*
X43597428Y-90859333D01*
X43692666Y-90906952D01*
X43740285Y-90954571D01*
X43787904Y-91049809D01*
X43787904Y-91287904D01*
X43740285Y-91383142D01*
X43692666Y-91430761D01*
X43597428Y-91478380D01*
X43359333Y-91478380D01*
X43264095Y-91430761D01*
X43216476Y-91383142D01*
%TO.C,J3*%
X102422380Y-39233333D02*
X103136666Y-39233333D01*
X103279523Y-39280952D01*
X103374761Y-39376190D01*
X103422380Y-39519047D01*
X103422380Y-39614285D01*
X102422380Y-38852380D02*
X102422380Y-38233333D01*
X102803333Y-38566666D01*
X102803333Y-38423809D01*
X102850952Y-38328571D01*
X102898571Y-38280952D01*
X102993809Y-38233333D01*
X103231904Y-38233333D01*
X103327142Y-38280952D01*
X103374761Y-38328571D01*
X103422380Y-38423809D01*
X103422380Y-38709523D01*
X103374761Y-38804761D01*
X103327142Y-38852380D01*
%TO.C,D7*%
X54431904Y-56656380D02*
X54431904Y-55656380D01*
X54670000Y-55656380D01*
X54812857Y-55704000D01*
X54908095Y-55799238D01*
X54955714Y-55894476D01*
X55003333Y-56084952D01*
X55003333Y-56227809D01*
X54955714Y-56418285D01*
X54908095Y-56513523D01*
X54812857Y-56608761D01*
X54670000Y-56656380D01*
X54431904Y-56656380D01*
X55336666Y-55656380D02*
X56003333Y-55656380D01*
X55574761Y-56656380D01*
%TO.C,D9*%
X101675904Y-55259380D02*
X101675904Y-54259380D01*
X101914000Y-54259380D01*
X102056857Y-54307000D01*
X102152095Y-54402238D01*
X102199714Y-54497476D01*
X102247333Y-54687952D01*
X102247333Y-54830809D01*
X102199714Y-55021285D01*
X102152095Y-55116523D01*
X102056857Y-55211761D01*
X101914000Y-55259380D01*
X101675904Y-55259380D01*
X102723523Y-55259380D02*
X102914000Y-55259380D01*
X103009238Y-55211761D01*
X103056857Y-55164142D01*
X103152095Y-55021285D01*
X103199714Y-54830809D01*
X103199714Y-54449857D01*
X103152095Y-54354619D01*
X103104476Y-54307000D01*
X103009238Y-54259380D01*
X102818761Y-54259380D01*
X102723523Y-54307000D01*
X102675904Y-54354619D01*
X102628285Y-54449857D01*
X102628285Y-54687952D01*
X102675904Y-54783190D01*
X102723523Y-54830809D01*
X102818761Y-54878428D01*
X103009238Y-54878428D01*
X103104476Y-54830809D01*
X103152095Y-54783190D01*
X103199714Y-54687952D01*
D15*
%TO.C,J1*%
X50186000Y-23950000D02*
X50186000Y-23950000D01*
X50186000Y-23750000D02*
X50186000Y-23750000D01*
D16*
X51106000Y-22350000D02*
X51106000Y-23050000D01*
X51106000Y-23050000D02*
X50236000Y-23050000D01*
X43236000Y-23050000D02*
X42366000Y-23050000D01*
X42366000Y-23050000D02*
X42366000Y-22380000D01*
X51106000Y-19380000D02*
X51106000Y-17880000D01*
X42366000Y-19380000D02*
X42366000Y-17880000D01*
X51106000Y-14880000D02*
X51106000Y-11850000D01*
X51106000Y-11850000D02*
X42366000Y-11850000D01*
X42366000Y-11850000D02*
X42366000Y-14880000D01*
D15*
X50186000Y-23750000D02*
G75*
G02*
X50186000Y-23950000I0J-100000D01*
G01*
X50186000Y-23950000D02*
G75*
G02*
X50186000Y-23750000I0J100000D01*
G01*
D17*
%TO.C,R3*%
X47659276Y-31052500D02*
X48168724Y-31052500D01*
X47659276Y-30007500D02*
X48168724Y-30007500D01*
%TO.C,D8*%
X82600000Y-48275000D02*
X85800000Y-48275000D01*
X85800000Y-48250000D02*
X85800000Y-47100000D01*
X82800000Y-45775000D02*
X85400000Y-45775000D01*
X83900000Y-45075000D02*
X84300000Y-45075000D01*
X84300000Y-45075000D02*
X84300000Y-45475000D01*
X84300000Y-45475000D02*
X83900000Y-45475000D01*
X83900000Y-45475000D02*
X83900000Y-45075000D01*
%TO.C,SW9*%
X60864667Y-38989000D02*
X60864667Y-40259000D01*
X59658000Y-36689000D02*
X60864667Y-36689000D01*
X59658000Y-40259000D02*
X63278000Y-40259000D01*
X59658000Y-37289000D02*
X60864667Y-37289000D01*
X63278000Y-37719000D02*
X63278000Y-36449000D01*
X63278000Y-40259000D02*
X63278000Y-38989000D01*
X58058000Y-34974000D02*
X64879000Y-34974000D01*
X59658000Y-37529000D02*
X60864667Y-37529000D01*
X64879000Y-38074000D02*
X64879000Y-38635000D01*
X58058000Y-38124000D02*
X58058000Y-38635000D01*
X59658000Y-39949000D02*
X60864667Y-39949000D01*
X59658000Y-39349000D02*
X60864667Y-39349000D01*
X59658000Y-39589000D02*
X60864667Y-39589000D01*
X59658000Y-37409000D02*
X60864667Y-37409000D01*
X59658000Y-36569000D02*
X60864667Y-36569000D01*
X59658000Y-36929000D02*
X60864667Y-36929000D01*
X63278000Y-36449000D02*
X59658000Y-36449000D01*
X60864667Y-36449000D02*
X60864667Y-37719000D01*
X57818000Y-34734000D02*
X59201000Y-34734000D01*
X59658000Y-36809000D02*
X60864667Y-36809000D01*
X59658000Y-39109000D02*
X60864667Y-39109000D01*
X64879000Y-34974000D02*
X64879000Y-36094000D01*
X59658000Y-40189000D02*
X60864667Y-40189000D01*
X59658000Y-39469000D02*
X60864667Y-39469000D01*
X64879000Y-40614000D02*
X64879000Y-41734000D01*
X63278000Y-38989000D02*
X59658000Y-38989000D01*
X58058000Y-40614000D02*
X58058000Y-41734000D01*
X59658000Y-37049000D02*
X60864667Y-37049000D01*
X57818000Y-34734000D02*
X57818000Y-36044000D01*
X59658000Y-36449000D02*
X59658000Y-37719000D01*
X59658000Y-39829000D02*
X60864667Y-39829000D01*
X58058000Y-41734000D02*
X64879000Y-41734000D01*
X59658000Y-37649000D02*
X60864667Y-37649000D01*
X59658000Y-38989000D02*
X59658000Y-40259000D01*
X58058000Y-34974000D02*
X58058000Y-36044000D01*
X59658000Y-39229000D02*
X60864667Y-39229000D01*
X59658000Y-40069000D02*
X60864667Y-40069000D01*
X59658000Y-37719000D02*
X63278000Y-37719000D01*
X59658000Y-37169000D02*
X60864667Y-37169000D01*
X59658000Y-39709000D02*
X60864667Y-39709000D01*
%TO.C,D1*%
X19432000Y-23301000D02*
X19432000Y-21831000D01*
X19432000Y-21831000D02*
X16972000Y-21831000D01*
X16972000Y-23301000D02*
X19432000Y-23301000D01*
%TO.C,D3*%
X24766000Y-26149000D02*
X22306000Y-26149000D01*
X24766000Y-27619000D02*
X24766000Y-26149000D01*
X22306000Y-27619000D02*
X24766000Y-27619000D01*
D14*
%TO.C,SW1*%
X19905822Y-92649848D02*
X20405822Y-91783822D01*
X21271848Y-92283822D02*
X20405822Y-91783822D01*
X32530178Y-98783822D02*
X32030178Y-99649848D01*
X13405822Y-103908178D02*
X13905822Y-103042152D01*
X13405822Y-103908178D02*
X14271848Y-104408178D01*
X32530178Y-98783822D02*
X31664152Y-98283822D01*
X24664152Y-110408178D02*
X25530178Y-110908178D01*
X26030178Y-110042152D02*
X25530178Y-110908178D01*
D17*
%TO.C,D4*%
X23304962Y-97657833D02*
X26076243Y-99257833D01*
X24728167Y-95592770D02*
X26979833Y-96892770D01*
X26088743Y-99236182D02*
X26663743Y-98240253D01*
X26030795Y-95536552D02*
X26377205Y-95736552D01*
X26377205Y-95736552D02*
X26177205Y-96082962D01*
X26177205Y-96082962D02*
X25830795Y-95882962D01*
X25830795Y-95882962D02*
X26030795Y-95536552D01*
D14*
%TO.C,SW5*%
X91182000Y-57689000D02*
X91182000Y-58689000D01*
X77182000Y-58689000D02*
X77182000Y-57689000D01*
X77182000Y-58689000D02*
X78182000Y-58689000D01*
X78182000Y-44689000D02*
X77182000Y-44689000D01*
X91182000Y-44689000D02*
X91182000Y-45689000D01*
X91182000Y-44689000D02*
X90182000Y-44689000D01*
X77182000Y-45689000D02*
X77182000Y-44689000D01*
X90182000Y-58689000D02*
X91182000Y-58689000D01*
D17*
%TO.C,R4*%
X53377500Y-26345276D02*
X53377500Y-26854724D01*
X54422500Y-26345276D02*
X54422500Y-26854724D01*
%TO.C,D5*%
X43614743Y-100506182D02*
X44189743Y-99510253D01*
X42254167Y-96862770D02*
X44505833Y-98162770D01*
X40830962Y-98927833D02*
X43602243Y-100527833D01*
X43556795Y-96806552D02*
X43903205Y-97006552D01*
X43903205Y-97006552D02*
X43703205Y-97352962D01*
X43703205Y-97352962D02*
X43356795Y-97152962D01*
X43356795Y-97152962D02*
X43556795Y-96806552D01*
%TO.C,R7*%
X27272776Y-24837500D02*
X27782224Y-24837500D01*
X27272776Y-25882500D02*
X27782224Y-25882500D01*
%TO.C,R6*%
X33941621Y-22440000D02*
X33606379Y-22440000D01*
X33941621Y-23200000D02*
X33606379Y-23200000D01*
D14*
%TO.C,SW6*%
X135182000Y-75689000D02*
X135182000Y-76689000D01*
X135182000Y-62689000D02*
X134182000Y-62689000D01*
X121182000Y-76689000D02*
X121182000Y-75689000D01*
X122182000Y-62689000D02*
X121182000Y-62689000D01*
X135182000Y-62689000D02*
X135182000Y-63689000D01*
X121182000Y-76689000D02*
X122182000Y-76689000D01*
X121182000Y-63689000D02*
X121182000Y-62689000D01*
X134182000Y-76689000D02*
X135182000Y-76689000D01*
D17*
%TO.C,C29*%
X102267733Y-50745000D02*
X102560267Y-50745000D01*
X102267733Y-49725000D02*
X102560267Y-49725000D01*
%TO.C,C30*%
X124111733Y-60651000D02*
X124404267Y-60651000D01*
X124111733Y-59631000D02*
X124404267Y-59631000D01*
%TO.C,C22*%
X50935000Y-27220748D02*
X50935000Y-27743252D01*
X49465000Y-27220748D02*
X49465000Y-27743252D01*
%TO.C,R5*%
X33606379Y-21170000D02*
X33941621Y-21170000D01*
X33606379Y-21930000D02*
X33941621Y-21930000D01*
%TO.C,R1*%
X22597276Y-22072500D02*
X23106724Y-22072500D01*
X22597276Y-21027500D02*
X23106724Y-21027500D01*
%TO.C,C28*%
X79561233Y-41851000D02*
X79853767Y-41851000D01*
X79561233Y-42871000D02*
X79853767Y-42871000D01*
D14*
%TO.C,SW2*%
X38797848Y-93553822D02*
X37931822Y-93053822D01*
X30931822Y-105178178D02*
X31431822Y-104312152D01*
X42190152Y-111678178D02*
X43056178Y-112178178D01*
X50056178Y-100053822D02*
X49190152Y-99553822D01*
X37431822Y-93919848D02*
X37931822Y-93053822D01*
X43556178Y-111312152D02*
X43056178Y-112178178D01*
X30931822Y-105178178D02*
X31797848Y-105678178D01*
X50056178Y-100053822D02*
X49556178Y-100919848D01*
D17*
%TO.C,J2*%
X15730000Y-43510000D02*
X15730000Y-35830000D01*
X15730000Y-35830000D02*
X13070000Y-35830000D01*
X13070000Y-43510000D02*
X13070000Y-35830000D01*
X15730000Y-44780000D02*
X15730000Y-46110000D01*
X15730000Y-43510000D02*
X13070000Y-43510000D01*
X15730000Y-46110000D02*
X14400000Y-46110000D01*
D14*
%TO.C,IC1*%
X30469000Y-23125000D02*
X30469000Y-22825000D01*
X27119000Y-20000000D02*
X25894000Y-20000000D01*
X30469000Y-19775000D02*
X30469000Y-20075000D01*
X27119000Y-23125000D02*
X27119000Y-22825000D01*
X27119000Y-19775000D02*
X30469000Y-19775000D01*
X27119000Y-19775000D02*
X27119000Y-20000000D01*
X27119000Y-23125000D02*
X30469000Y-23125000D01*
D17*
%TO.C,C27*%
X55023733Y-50741000D02*
X55316267Y-50741000D01*
X55023733Y-51761000D02*
X55316267Y-51761000D01*
D14*
%TO.C,SW7*%
X113182000Y-65689000D02*
X113182000Y-66689000D01*
X112182000Y-66689000D02*
X113182000Y-66689000D01*
X113182000Y-52689000D02*
X112182000Y-52689000D01*
X100182000Y-52689000D02*
X99182000Y-52689000D01*
X113182000Y-52689000D02*
X113182000Y-53689000D01*
X99182000Y-66689000D02*
X100182000Y-66689000D01*
X99182000Y-53689000D02*
X99182000Y-52689000D01*
X99182000Y-66689000D02*
X99182000Y-65689000D01*
D17*
%TO.C,D6*%
X32550754Y-81387584D02*
X34802420Y-82687584D01*
X31127549Y-83452647D02*
X33898830Y-85052647D01*
X33911330Y-85030996D02*
X34486330Y-84035067D01*
X33853382Y-81331366D02*
X34199792Y-81531366D01*
X34199792Y-81531366D02*
X33999792Y-81877776D01*
X33999792Y-81877776D02*
X33653382Y-81677776D01*
X33653382Y-81677776D02*
X33853382Y-81331366D01*
%TO.C,D2*%
X19686000Y-18783000D02*
X17226000Y-18783000D01*
X17226000Y-20253000D02*
X19686000Y-20253000D01*
X19686000Y-20253000D02*
X19686000Y-18783000D01*
%TO.C,C4*%
X17382000Y-91840267D02*
X17382000Y-91547733D01*
X16362000Y-91840267D02*
X16362000Y-91547733D01*
D14*
%TO.C,SW3*%
X29145848Y-78313822D02*
X28279822Y-77813822D01*
X40404178Y-84813822D02*
X39538152Y-84313822D01*
X21279822Y-89938178D02*
X21779822Y-89072152D01*
X32538152Y-96438178D02*
X33404178Y-96938178D01*
X40404178Y-84813822D02*
X39904178Y-85679848D01*
X27779822Y-78679848D02*
X28279822Y-77813822D01*
X21279822Y-89938178D02*
X22145848Y-90438178D01*
X33904178Y-96072152D02*
X33404178Y-96938178D01*
D17*
%TO.C,C23*%
X33414000Y-19633835D02*
X33414000Y-19402165D01*
X34134000Y-19633835D02*
X34134000Y-19402165D01*
%TO.C,BT1*%
X134758000Y-12810000D02*
X134758000Y-32910000D01*
X56758000Y-32910000D02*
X56758000Y-12810000D01*
X56758000Y-12810000D02*
X134758000Y-12810000D01*
X134758000Y-32910000D02*
X56758000Y-32910000D01*
%TO.C,R2*%
X23359276Y-20200500D02*
X23868724Y-20200500D01*
X23359276Y-19155500D02*
X23868724Y-19155500D01*
D14*
%TO.C,SW4*%
X52182000Y-54689000D02*
X52182000Y-53689000D01*
X52182000Y-67689000D02*
X52182000Y-66689000D01*
X65182000Y-67689000D02*
X66182000Y-67689000D01*
X66182000Y-53689000D02*
X66182000Y-54689000D01*
X52182000Y-67689000D02*
X53182000Y-67689000D01*
X53182000Y-53689000D02*
X52182000Y-53689000D01*
X66182000Y-53689000D02*
X65182000Y-53689000D01*
X66182000Y-66689000D02*
X66182000Y-67689000D01*
D17*
%TO.C,D10*%
X129922000Y-66205500D02*
X129922000Y-65055500D01*
X126722000Y-66230500D02*
X129922000Y-66230500D01*
X126922000Y-63730500D02*
X129522000Y-63730500D01*
X128022000Y-63030500D02*
X128422000Y-63030500D01*
X128422000Y-63030500D02*
X128422000Y-63430500D01*
X128422000Y-63430500D02*
X128022000Y-63430500D01*
X128022000Y-63430500D02*
X128022000Y-63030500D01*
%TO.C,C24*%
X26302000Y-17601835D02*
X26302000Y-17370165D01*
X27022000Y-17601835D02*
X27022000Y-17370165D01*
%TO.C,C26*%
X25002000Y-78186233D02*
X25002000Y-78478767D01*
X23982000Y-78186233D02*
X23982000Y-78478767D01*
%TO.C,C25*%
X42379733Y-92966000D02*
X42672267Y-92966000D01*
X42379733Y-91946000D02*
X42672267Y-91946000D01*
%TO.C,J3*%
X99370000Y-37570000D02*
X99370000Y-40230000D01*
X99370000Y-37570000D02*
X84070000Y-37570000D01*
X84070000Y-37570000D02*
X84070000Y-40230000D01*
X101970000Y-37570000D02*
X101970000Y-38900000D01*
X99370000Y-40230000D02*
X84070000Y-40230000D01*
X100640000Y-37570000D02*
X101970000Y-37570000D01*
%TO.C,D7*%
X60834000Y-57188500D02*
X60834000Y-56038500D01*
X57634000Y-57213500D02*
X60834000Y-57213500D01*
X57834000Y-54713500D02*
X60434000Y-54713500D01*
X58934000Y-54013500D02*
X59334000Y-54013500D01*
X59334000Y-54013500D02*
X59334000Y-54413500D01*
X59334000Y-54413500D02*
X58934000Y-54413500D01*
X58934000Y-54413500D02*
X58934000Y-54013500D01*
%TO.C,D9*%
X104951000Y-53697500D02*
X107551000Y-53697500D01*
X107951000Y-56172500D02*
X107951000Y-55022500D01*
X104751000Y-56197500D02*
X107951000Y-56197500D01*
X106051000Y-52997500D02*
X106451000Y-52997500D01*
X106451000Y-52997500D02*
X106451000Y-53397500D01*
X106451000Y-53397500D02*
X106051000Y-53397500D01*
X106051000Y-53397500D02*
X106051000Y-52997500D01*
%TO.C,G\u002A\u002A\u002A*%
G36*
X95060377Y-87784536D02*
G01*
X95101575Y-87789207D01*
X95260293Y-87849652D01*
X95358769Y-87892568D01*
X95505224Y-87968167D01*
X95569875Y-88039756D01*
X95559010Y-88124266D01*
X95484752Y-88231604D01*
X95299364Y-88523228D01*
X95196044Y-88850176D01*
X95174214Y-89214799D01*
X95194513Y-89417632D01*
X95227519Y-89810197D01*
X95215090Y-90207957D01*
X95159998Y-90583950D01*
X95065016Y-90911220D01*
X95033053Y-90987375D01*
X94809076Y-91400322D01*
X94535259Y-91752329D01*
X94242837Y-92027204D01*
X94052783Y-92170865D01*
X93820909Y-92326004D01*
X93570345Y-92479045D01*
X93324224Y-92616406D01*
X93105679Y-92724509D01*
X92950133Y-92786051D01*
X92842945Y-92811594D01*
X92760664Y-92798115D01*
X92660106Y-92736536D01*
X92637735Y-92720374D01*
X92272411Y-92489982D01*
X91921617Y-92345461D01*
X91576189Y-92285286D01*
X91226963Y-92307929D01*
X90864773Y-92411866D01*
X90841143Y-92421168D01*
X90703408Y-92488464D01*
X90543404Y-92584892D01*
X90380316Y-92696388D01*
X90233328Y-92808886D01*
X90121629Y-92908318D01*
X90064400Y-92980620D01*
X90060810Y-92993265D01*
X90016564Y-93021468D01*
X89900171Y-93022977D01*
X89724958Y-93000988D01*
X89504254Y-92958702D01*
X89251387Y-92899315D01*
X88979685Y-92826025D01*
X88702477Y-92742031D01*
X88433091Y-92650531D01*
X88184854Y-92554723D01*
X88122204Y-92528104D01*
X87507780Y-92222242D01*
X86964329Y-91870812D01*
X86494570Y-91476407D01*
X86101219Y-91041623D01*
X85786996Y-90569052D01*
X85563606Y-90085748D01*
X85473614Y-89798685D01*
X85433698Y-89544986D01*
X85431004Y-89456185D01*
X85569547Y-89456185D01*
X85585665Y-89694388D01*
X85640010Y-89936003D01*
X85656624Y-89985727D01*
X85838438Y-90397385D01*
X86090520Y-90801102D01*
X86391789Y-91177668D01*
X86776157Y-91562290D01*
X87214569Y-91900681D01*
X87713998Y-92196678D01*
X88281421Y-92454115D01*
X88923810Y-92676826D01*
X89321643Y-92788523D01*
X89887045Y-92935644D01*
X90192800Y-92670545D01*
X90536305Y-92419643D01*
X90890771Y-92256525D01*
X91265310Y-92178443D01*
X91669034Y-92182646D01*
X91768383Y-92195168D01*
X91981174Y-92234923D01*
X92160923Y-92293317D01*
X92350142Y-92385768D01*
X92448480Y-92441871D01*
X92614443Y-92533448D01*
X92761997Y-92604589D01*
X92865828Y-92643401D01*
X92885118Y-92647003D01*
X92989217Y-92627379D01*
X93148646Y-92562334D01*
X93346613Y-92461208D01*
X93566327Y-92333340D01*
X93790997Y-92188067D01*
X94003831Y-92034727D01*
X94048366Y-92000073D01*
X94410161Y-91676834D01*
X94693680Y-91337735D01*
X94911196Y-90968062D01*
X94914219Y-90961793D01*
X95015919Y-90678527D01*
X95082888Y-90338812D01*
X95112048Y-89971042D01*
X95100323Y-89603607D01*
X95079499Y-89437140D01*
X95057248Y-89142577D01*
X95079522Y-88850384D01*
X95141269Y-88580196D01*
X95237432Y-88351650D01*
X95362958Y-88184378D01*
X95412259Y-88144379D01*
X95455693Y-88106057D01*
X95441916Y-88074956D01*
X95358753Y-88036460D01*
X95305835Y-88016636D01*
X95173617Y-87965555D01*
X95070981Y-87921527D01*
X95049335Y-87910748D01*
X95007336Y-87909157D01*
X94964298Y-87961548D01*
X94911564Y-88081233D01*
X94876997Y-88175725D01*
X94686254Y-88588027D01*
X94415867Y-88984900D01*
X94076402Y-89358796D01*
X93678423Y-89702172D01*
X93232497Y-90007481D01*
X92749189Y-90267177D01*
X92239062Y-90473717D01*
X91712683Y-90619552D01*
X91374424Y-90677254D01*
X91069744Y-90697921D01*
X90708713Y-90693498D01*
X90321207Y-90666546D01*
X89937101Y-90619631D01*
X89586270Y-90555317D01*
X89397744Y-90507591D01*
X89125040Y-90423114D01*
X88862291Y-90328959D01*
X88593453Y-90217912D01*
X88302477Y-90082759D01*
X87973317Y-89916289D01*
X87589929Y-89711286D01*
X87424410Y-89620527D01*
X87019224Y-89400988D01*
X86682719Y-89228237D01*
X86407426Y-89100059D01*
X86185877Y-89014237D01*
X86010607Y-88968556D01*
X85874148Y-88960799D01*
X85769032Y-88988751D01*
X85687792Y-89050195D01*
X85652472Y-89094693D01*
X85591775Y-89247565D01*
X85569547Y-89456185D01*
X85431004Y-89456185D01*
X85430125Y-89427229D01*
X85432232Y-89133280D01*
X85636027Y-88962275D01*
X85755345Y-88866976D01*
X85842064Y-88821292D01*
X85931290Y-88814704D01*
X86056350Y-88836326D01*
X86214730Y-88881461D01*
X86419187Y-88961705D01*
X86676259Y-89080170D01*
X86992489Y-89239963D01*
X87374417Y-89444196D01*
X87622599Y-89580894D01*
X88015072Y-89796744D01*
X88345528Y-89971481D01*
X88629738Y-90110355D01*
X88883469Y-90218615D01*
X89122492Y-90301509D01*
X89362575Y-90364284D01*
X89619488Y-90412190D01*
X89908999Y-90450475D01*
X90246877Y-90484387D01*
X90370243Y-90495388D01*
X90745847Y-90525916D01*
X91050496Y-90543172D01*
X91303082Y-90545213D01*
X91522490Y-90530093D01*
X91727611Y-90495867D01*
X91937330Y-90440593D01*
X92170539Y-90362326D01*
X92365254Y-90290014D01*
X92955802Y-90025833D01*
X93473575Y-89708868D01*
X93920764Y-89337127D01*
X94299562Y-88908617D01*
X94612159Y-88421343D01*
X94765533Y-88107522D01*
X94847486Y-87928433D01*
X94916555Y-87820850D01*
X94994124Y-87777024D01*
X95060377Y-87784536D01*
G37*
%TD*%
M02*
