%TF.GenerationSoftware,KiCad,Pcbnew,(5.99.0-9634-gb691c18bfc)*%
%TF.CreationDate,2021-03-09T21:57:38+01:00*%
%TF.ProjectId,keychordz,6b657963-686f-4726-947a-2e6b69636164,rev?*%
%TF.SameCoordinates,Original*%
%TF.FileFunction,Soldermask,Bot*%
%TF.FilePolarity,Negative*%
%FSLAX46Y46*%
G04 Gerber Fmt 4.6, Leading zero omitted, Abs format (unit mm)*
G04 Created by KiCad (PCBNEW (5.99.0-9634-gb691c18bfc)) date 2021-03-09 21:57:38*
%MOMM*%
%LPD*%
G01*
G04 APERTURE LIST*
%ADD10C,0.650000*%
%ADD11C,0.550000*%
%ADD12C,2.010000*%
%ADD13C,6.400000*%
%ADD14C,0.800000*%
%ADD15R,1.600000X1.600000*%
%ADD16O,1.600000X1.600000*%
%ADD17C,3.429000*%
%ADD18C,1.701800*%
%ADD19C,0.990600*%
%ADD20C,2.032000*%
%ADD21R,1.700000X1.700000*%
%ADD22O,1.700000X1.700000*%
%ADD23C,3.200000*%
%ADD24R,3.500000X3.500000*%
%ADD25C,3.500000*%
G04 APERTURE END LIST*
D10*
%TO.C,J1*%
X43936000Y-22130000D03*
X44336000Y-21420000D03*
X45136000Y-21420000D03*
X45536000Y-22130000D03*
X45936000Y-21420000D03*
X46336000Y-22130000D03*
X47136000Y-22130000D03*
X47536000Y-21420000D03*
X47936000Y-22130000D03*
X48336000Y-21420000D03*
X49136000Y-21420000D03*
X49536000Y-22130000D03*
D11*
X44736000Y-22130000D03*
X48736000Y-22130000D03*
D12*
X51006000Y-20980000D03*
X42466000Y-20980000D03*
X51006000Y-16250000D03*
X42466000Y-16250000D03*
%TD*%
D13*
%TO.C,MNT1*%
X62000000Y-103000000D03*
D14*
X59600000Y-103000000D03*
X60302944Y-104697056D03*
X62000000Y-105400000D03*
X64400000Y-103000000D03*
X60302944Y-101302944D03*
X63697056Y-104697056D03*
X63697056Y-101302944D03*
X62000000Y-100600000D03*
%TD*%
D15*
%TO.C,SW9*%
X57658000Y-37084000D03*
D16*
X57658000Y-39624000D03*
X65278000Y-39624000D03*
X65278000Y-37084000D03*
%TD*%
D17*
%TO.C,SW1*%
X22968000Y-101346000D03*
D18*
X27731140Y-104096000D03*
D19*
X29588653Y-100318693D03*
D18*
X18204860Y-98596000D03*
D20*
X20018000Y-106455550D03*
X16737873Y-102136897D03*
%TD*%
D18*
%TO.C,SW5*%
X89682000Y-51689000D03*
X78682000Y-51689000D03*
D19*
X89402000Y-47489000D03*
D17*
X84182000Y-51689000D03*
D20*
X84182000Y-57589000D03*
X79182000Y-55489000D03*
%TD*%
D18*
%TO.C,SW6*%
X133682000Y-69689000D03*
X122682000Y-69689000D03*
D19*
X133402000Y-65489000D03*
D17*
X128182000Y-69689000D03*
D20*
X128182000Y-75589000D03*
X123182000Y-73489000D03*
%TD*%
D18*
%TO.C,SW2*%
X35730860Y-99866000D03*
X45257140Y-105366000D03*
D19*
X47114653Y-101588693D03*
D17*
X40494000Y-102616000D03*
D20*
X37544000Y-107725550D03*
X34263873Y-103406897D03*
%TD*%
D21*
%TO.C,J2*%
X14400000Y-44780000D03*
D22*
X14400000Y-42240000D03*
X14400000Y-39700000D03*
X14400000Y-37160000D03*
%TD*%
D14*
%TO.C,MNT3*%
X127697056Y-104697056D03*
X123600000Y-103000000D03*
X124302944Y-104697056D03*
X124302944Y-101302944D03*
X126000000Y-105400000D03*
X126000000Y-100600000D03*
X128400000Y-103000000D03*
D13*
X126000000Y-103000000D03*
D14*
X127697056Y-101302944D03*
%TD*%
D18*
%TO.C,SW7*%
X100682000Y-59689000D03*
D17*
X106182000Y-59689000D03*
D18*
X111682000Y-59689000D03*
D19*
X111402000Y-55489000D03*
D20*
X106182000Y-65589000D03*
X101182000Y-63489000D03*
%TD*%
D18*
%TO.C,SW3*%
X26078860Y-84626000D03*
X35605140Y-90126000D03*
D17*
X30842000Y-87376000D03*
D19*
X37462653Y-86348693D03*
D20*
X27892000Y-92485550D03*
X24611873Y-88166897D03*
%TD*%
D14*
%TO.C,MNT2*%
X96400000Y-103000000D03*
X94000000Y-105400000D03*
X92302944Y-104697056D03*
X92302944Y-101302944D03*
X94000000Y-100600000D03*
X91600000Y-103000000D03*
D13*
X94000000Y-103000000D03*
D14*
X95697056Y-101302944D03*
X95697056Y-104697056D03*
%TD*%
D23*
%TO.C,BT1*%
X68403000Y-22860000D03*
X124013000Y-22860000D03*
D24*
X59758000Y-22860000D03*
D25*
X131758000Y-22860000D03*
%TD*%
D17*
%TO.C,SW4*%
X59182000Y-60689000D03*
D19*
X64402000Y-56489000D03*
D18*
X53682000Y-60689000D03*
X64682000Y-60689000D03*
D20*
X59182000Y-66589000D03*
X54182000Y-64489000D03*
%TD*%
D21*
%TO.C,J3*%
X100640000Y-38900000D03*
D22*
X98100000Y-38900000D03*
X95560000Y-38900000D03*
X93020000Y-38900000D03*
X90480000Y-38900000D03*
X87940000Y-38900000D03*
X85400000Y-38900000D03*
%TD*%
M02*
