%TF.GenerationSoftware,KiCad,Pcbnew,6.0.4*%
%TF.CreationDate,2022-04-08T16:21:30+02:00*%
%TF.ProjectId,keychordz,6b657963-686f-4726-947a-2e6b69636164,rev?*%
%TF.SameCoordinates,Original*%
%TF.FileFunction,Copper,L1,Top*%
%TF.FilePolarity,Positive*%
%FSLAX46Y46*%
G04 Gerber Fmt 4.6, Leading zero omitted, Abs format (unit mm)*
G04 Created by KiCad (PCBNEW 6.0.4) date 2022-04-08 16:21:30*
%MOMM*%
%LPD*%
G01*
G04 APERTURE LIST*
G04 Aperture macros list*
%AMRoundRect*
0 Rectangle with rounded corners*
0 $1 Rounding radius*
0 $2 $3 $4 $5 $6 $7 $8 $9 X,Y pos of 4 corners*
0 Add a 4 corners polygon primitive as box body*
4,1,4,$2,$3,$4,$5,$6,$7,$8,$9,$2,$3,0*
0 Add four circle primitives for the rounded corners*
1,1,$1+$1,$2,$3*
1,1,$1+$1,$4,$5*
1,1,$1+$1,$6,$7*
1,1,$1+$1,$8,$9*
0 Add four rect primitives between the rounded corners*
20,1,$1+$1,$2,$3,$4,$5,0*
20,1,$1+$1,$4,$5,$6,$7,0*
20,1,$1+$1,$6,$7,$8,$9,0*
20,1,$1+$1,$8,$9,$2,$3,0*%
%AMRotRect*
0 Rectangle, with rotation*
0 The origin of the aperture is its center*
0 $1 length*
0 $2 width*
0 $3 Rotation angle, in degrees counterclockwise*
0 Add horizontal line*
21,1,$1,$2,0,0,$3*%
G04 Aperture macros list end*
%TA.AperFunction,ComponentPad*%
%ADD10R,0.850000X0.850000*%
%TD*%
%TA.AperFunction,ComponentPad*%
%ADD11O,0.850000X0.850000*%
%TD*%
%TA.AperFunction,ComponentPad*%
%ADD12C,6.400000*%
%TD*%
%TA.AperFunction,ComponentPad*%
%ADD13C,0.800000*%
%TD*%
%TA.AperFunction,ComponentPad*%
%ADD14R,1.600000X1.600000*%
%TD*%
%TA.AperFunction,ComponentPad*%
%ADD15C,1.600000*%
%TD*%
%TA.AperFunction,SMDPad,CuDef*%
%ADD16R,0.700000X0.700000*%
%TD*%
%TA.AperFunction,SMDPad,CuDef*%
%ADD17RoundRect,0.237500X-0.250000X-0.237500X0.250000X-0.237500X0.250000X0.237500X-0.250000X0.237500X0*%
%TD*%
%TA.AperFunction,ComponentPad*%
%ADD18C,2.032000*%
%TD*%
%TA.AperFunction,SMDPad,CuDef*%
%ADD19RotRect,0.700000X0.700000X330.000000*%
%TD*%
%TA.AperFunction,SMDPad,CuDef*%
%ADD20RoundRect,0.237500X-0.237500X0.250000X-0.237500X-0.250000X0.237500X-0.250000X0.237500X0.250000X0*%
%TD*%
%TA.AperFunction,SMDPad,CuDef*%
%ADD21RoundRect,0.237500X0.250000X0.237500X-0.250000X0.237500X-0.250000X-0.237500X0.250000X-0.237500X0*%
%TD*%
%TA.AperFunction,SMDPad,CuDef*%
%ADD22RoundRect,0.237500X-0.300000X-0.237500X0.300000X-0.237500X0.300000X0.237500X-0.300000X0.237500X0*%
%TD*%
%TA.AperFunction,SMDPad,CuDef*%
%ADD23RoundRect,0.250000X-0.475000X0.337500X-0.475000X-0.337500X0.475000X-0.337500X0.475000X0.337500X0*%
%TD*%
%TA.AperFunction,SMDPad,CuDef*%
%ADD24RoundRect,0.237500X0.237500X-0.300000X0.237500X0.300000X-0.237500X0.300000X-0.237500X-0.300000X0*%
%TD*%
%TA.AperFunction,SMDPad,CuDef*%
%ADD25R,0.300000X1.200000*%
%TD*%
%TA.AperFunction,ComponentPad*%
%ADD26C,0.650000*%
%TD*%
%TA.AperFunction,ComponentPad*%
%ADD27C,0.550000*%
%TD*%
%TA.AperFunction,ComponentPad*%
%ADD28C,2.010000*%
%TD*%
%TA.AperFunction,SMDPad,CuDef*%
%ADD29R,0.200000X1.000000*%
%TD*%
%TA.AperFunction,SMDPad,CuDef*%
%ADD30RoundRect,0.237500X-0.237500X0.300000X-0.237500X-0.300000X0.237500X-0.300000X0.237500X0.300000X0*%
%TD*%
%TA.AperFunction,SMDPad,CuDef*%
%ADD31R,1.200000X2.500000*%
%TD*%
%TA.AperFunction,ViaPad*%
%ADD32C,0.685800*%
%TD*%
%TA.AperFunction,Conductor*%
%ADD33C,0.254000*%
%TD*%
%TA.AperFunction,Conductor*%
%ADD34C,0.127000*%
%TD*%
%TA.AperFunction,Conductor*%
%ADD35C,0.152400*%
%TD*%
G04 APERTURE END LIST*
D10*
%TO.P,USB,1*%
%TO.N,USB_D-*%
X40005000Y-49276000D03*
D11*
%TO.P,USB,2*%
%TO.N,USB_D+*%
X40005000Y-50276000D03*
%TD*%
D12*
%TO.P,MNT5,1*%
%TO.N,N/C*%
X126000000Y-40000000D03*
D13*
X123600000Y-40000000D03*
X124302944Y-41697056D03*
X126000000Y-42400000D03*
X128400000Y-40000000D03*
X124302944Y-38302944D03*
X127697056Y-41697056D03*
X127697056Y-38302944D03*
X126000000Y-37600000D03*
%TD*%
D12*
%TO.P,MNT4,1*%
%TO.N,N/C*%
X62000000Y-40000000D03*
D13*
X59600000Y-40000000D03*
X60302944Y-41697056D03*
X62000000Y-42400000D03*
X64400000Y-40000000D03*
X60302944Y-38302944D03*
X63697056Y-41697056D03*
X63697056Y-38302944D03*
X62000000Y-37600000D03*
%TD*%
D14*
%TO.P,U1,1,TX*%
%TO.N,unconnected-(U1-Pad1)*%
X17701000Y-35520000D03*
D15*
%TO.P,U1,2,RX*%
%TO.N,unconnected-(U1-Pad2)*%
X17701000Y-38060000D03*
%TO.P,U1,3,GND*%
%TO.N,GND*%
X17701000Y-40600000D03*
%TO.P,U1,4,GND*%
X17701000Y-43140000D03*
%TO.P,U1,5,SDA*%
%TO.N,SDA*%
X17701000Y-45680000D03*
%TO.P,U1,6,SCL*%
%TO.N,SCK*%
X17701000Y-48220000D03*
%TO.P,U1,7,D4*%
%TO.N,BTN7*%
X17701000Y-50760000D03*
%TO.P,U1,8,C6*%
%TO.N,BTN6*%
X17701000Y-53300000D03*
%TO.P,U1,9,D7*%
%TO.N,BTN5*%
X17701000Y-55840000D03*
%TO.P,U1,10,E6*%
%TO.N,BTN4*%
X17701000Y-58380000D03*
%TO.P,U1,11,B4*%
%TO.N,unconnected-(U1-Pad11)*%
X17701000Y-60920000D03*
%TO.P,U1,12,B5*%
%TO.N,LED_IN*%
X17701000Y-63460000D03*
%TO.P,U1,13,B6*%
%TO.N,unconnected-(U1-Pad13)*%
X32941000Y-63460000D03*
%TO.P,U1,14,B2*%
%TO.N,BTN2*%
X32941000Y-60920000D03*
%TO.P,U1,15,B3*%
%TO.N,BTN3*%
X32941000Y-58380000D03*
%TO.P,U1,16,B1*%
%TO.N,BTN1*%
X32941000Y-55840000D03*
%TO.P,U1,17,F7*%
%TO.N,unconnected-(U1-Pad17)*%
X32941000Y-53300000D03*
%TO.P,U1,18,F6*%
%TO.N,unconnected-(U1-Pad18)*%
X32941000Y-50760000D03*
%TO.P,U1,19,F5*%
%TO.N,unconnected-(U1-Pad19)*%
X32941000Y-48220000D03*
%TO.P,U1,20,F4*%
%TO.N,unconnected-(U1-Pad20)*%
X32941000Y-45680000D03*
%TO.P,U1,21,VCC*%
%TO.N,unconnected-(U1-Pad21)*%
X32941000Y-43140000D03*
%TO.P,U1,22,RST*%
%TO.N,unconnected-(U1-Pad22)*%
X32941000Y-40600000D03*
%TO.P,U1,23,GND*%
%TO.N,GND*%
X32941000Y-38060000D03*
%TO.P,U1,24,RAW*%
%TO.N,+5V*%
X32941000Y-35520000D03*
%TD*%
D16*
%TO.P,D7,1,VDD*%
%TO.N,+5V*%
X58219000Y-56463500D03*
%TO.P,D7,2,DOUT*%
%TO.N,Net-(D6-Pad4)*%
X60049000Y-56463500D03*
%TO.P,D7,3,VSS*%
%TO.N,GND*%
X60049000Y-55363500D03*
%TO.P,D7,4,DIN*%
%TO.N,Net-(D7-Pad4)*%
X58219000Y-55363500D03*
%TD*%
D17*
%TO.P,R3,1*%
%TO.N,Net-(J1-PadA5)*%
X44137500Y-51132000D03*
%TO.P,R3,2*%
%TO.N,GND*%
X45962500Y-51132000D03*
%TD*%
D12*
%TO.P,MNT1,1*%
%TO.N,N/C*%
X62000000Y-103000000D03*
D13*
X59600000Y-103000000D03*
X60302944Y-104697056D03*
X62000000Y-105400000D03*
X64400000Y-103000000D03*
X60302944Y-101302944D03*
X63697056Y-104697056D03*
X63697056Y-101302944D03*
X62000000Y-100600000D03*
%TD*%
D16*
%TO.P,D8,1,VDD*%
%TO.N,+5V*%
X83185000Y-47525000D03*
%TO.P,D8,2,DOUT*%
%TO.N,Net-(D7-Pad4)*%
X85015000Y-47525000D03*
%TO.P,D8,3,VSS*%
%TO.N,GND*%
X85015000Y-46425000D03*
%TO.P,D8,4,DIN*%
%TO.N,Net-(D8-Pad4)*%
X83185000Y-46425000D03*
%TD*%
D18*
%TO.P,SW1,1,1*%
%TO.N,BTN1*%
X20018000Y-106455550D03*
%TO.P,SW1,2,2*%
%TO.N,GND*%
X16737873Y-102136897D03*
%TD*%
D19*
%TO.P,D4,1,VDD*%
%TO.N,+5V*%
X24186587Y-97300814D03*
%TO.P,D4,2,DOUT*%
%TO.N,LED_IN*%
X25771413Y-98215814D03*
%TO.P,D4,3,VSS*%
%TO.N,GND*%
X26321413Y-97263186D03*
%TO.P,D4,4,DIN*%
%TO.N,Net-(D4-Pad4)*%
X24736587Y-96348186D03*
%TD*%
D18*
%TO.P,SW5,1,1*%
%TO.N,BTN5*%
X84182000Y-57589000D03*
%TO.P,SW5,2,2*%
%TO.N,GND*%
X79182000Y-55489000D03*
%TD*%
D20*
%TO.P,R4,1*%
%TO.N,Net-(J1-PadB5)*%
X51036000Y-46289500D03*
%TO.P,R4,2*%
%TO.N,GND*%
X51036000Y-48114500D03*
%TD*%
D19*
%TO.P,D5,1,VDD*%
%TO.N,+5V*%
X41712587Y-98570814D03*
%TO.P,D5,2,DOUT*%
%TO.N,Net-(D4-Pad4)*%
X43297413Y-99485814D03*
%TO.P,D5,3,VSS*%
%TO.N,GND*%
X43847413Y-98533186D03*
%TO.P,D5,4,DIN*%
%TO.N,Net-(D5-Pad4)*%
X42262587Y-97618186D03*
%TD*%
D21*
%TO.P,R1,1*%
%TO.N,+5V*%
X25598500Y-44156000D03*
%TO.P,R1,2*%
%TO.N,SDA*%
X23773500Y-44156000D03*
%TD*%
D18*
%TO.P,SW6,1,1*%
%TO.N,BTN6*%
X128182000Y-75589000D03*
%TO.P,SW6,2,2*%
%TO.N,GND*%
X123182000Y-73489000D03*
%TD*%
D22*
%TO.P,C29,1*%
%TO.N,+5V*%
X101551500Y-50235000D03*
%TO.P,C29,2*%
%TO.N,GND*%
X103276500Y-50235000D03*
%TD*%
%TO.P,C30,1*%
%TO.N,+5V*%
X123395500Y-60141000D03*
%TO.P,C30,2*%
%TO.N,GND*%
X125120500Y-60141000D03*
%TD*%
D23*
%TO.P,C22,1*%
%TO.N,+5V*%
X47336000Y-47046500D03*
%TO.P,C22,2*%
%TO.N,GND*%
X47336000Y-49121500D03*
%TD*%
D22*
%TO.P,C28,1*%
%TO.N,+5V*%
X78845000Y-42361000D03*
%TO.P,C28,2*%
%TO.N,GND*%
X80570000Y-42361000D03*
%TD*%
D18*
%TO.P,SW2,1,1*%
%TO.N,BTN2*%
X37544000Y-107725550D03*
%TO.P,SW2,2,2*%
%TO.N,GND*%
X34263873Y-103406897D03*
%TD*%
D13*
%TO.P,MNT3,1*%
%TO.N,N/C*%
X127697056Y-104697056D03*
X123600000Y-103000000D03*
X124302944Y-104697056D03*
X124302944Y-101302944D03*
X126000000Y-105400000D03*
X126000000Y-100600000D03*
X128400000Y-103000000D03*
D12*
X126000000Y-103000000D03*
D13*
X127697056Y-101302944D03*
%TD*%
D22*
%TO.P,C27,1*%
%TO.N,+5V*%
X54307500Y-51251000D03*
%TO.P,C27,2*%
%TO.N,GND*%
X56032500Y-51251000D03*
%TD*%
D18*
%TO.P,SW7,1,1*%
%TO.N,BTN7*%
X106182000Y-65589000D03*
%TO.P,SW7,2,2*%
%TO.N,GND*%
X101182000Y-63489000D03*
%TD*%
D17*
%TO.P,R2,1*%
%TO.N,SCK*%
X23337500Y-46250000D03*
%TO.P,R2,2*%
%TO.N,+5V*%
X25162500Y-46250000D03*
%TD*%
D19*
%TO.P,D6,1,VDD*%
%TO.N,+5V*%
X32009174Y-83095628D03*
%TO.P,D6,2,DOUT*%
%TO.N,Net-(D5-Pad4)*%
X33594000Y-84010628D03*
%TO.P,D6,3,VSS*%
%TO.N,GND*%
X34144000Y-83058000D03*
%TO.P,D6,4,DIN*%
%TO.N,Net-(D6-Pad4)*%
X32559174Y-82143000D03*
%TD*%
D24*
%TO.P,C4,1*%
%TO.N,+5V*%
X16872000Y-92556500D03*
%TO.P,C4,2*%
%TO.N,GND*%
X16872000Y-90831500D03*
%TD*%
D18*
%TO.P,SW3,1,1*%
%TO.N,BTN3*%
X27892000Y-92485550D03*
%TO.P,SW3,2,2*%
%TO.N,GND*%
X24611873Y-88166897D03*
%TD*%
D13*
%TO.P,MNT2,1*%
%TO.N,N/C*%
X96400000Y-103000000D03*
X94000000Y-105400000D03*
X92302944Y-104697056D03*
X92302944Y-101302944D03*
X94000000Y-100600000D03*
X91600000Y-103000000D03*
D12*
X94000000Y-103000000D03*
D13*
X95697056Y-101302944D03*
X95697056Y-104697056D03*
%TD*%
D25*
%TO.P,J1,A1,GND*%
%TO.N,GND*%
X46622000Y-43982000D03*
%TO.P,J1,A2*%
%TO.N,N/C*%
X46122000Y-43982000D03*
%TO.P,J1,A3*%
X45622000Y-43982000D03*
%TO.P,J1,A4,VBUS*%
%TO.N,+5V*%
X45122000Y-43982000D03*
%TO.P,J1,A5,CC1*%
%TO.N,Net-(J1-PadA5)*%
X44622000Y-43982000D03*
%TO.P,J1,A6,D+*%
%TO.N,USB_D+*%
X44122000Y-43982000D03*
%TO.P,J1,A7,D-*%
%TO.N,USB_D-*%
X43622000Y-43982000D03*
%TO.P,J1,A8,SBU1*%
%TO.N,unconnected-(J1-PadA8)*%
X43122000Y-43982000D03*
%TO.P,J1,A9*%
%TO.N,N/C*%
X42622000Y-43982000D03*
%TO.P,J1,A10*%
X42122000Y-43982000D03*
%TO.P,J1,A11*%
X41622000Y-43982000D03*
%TO.P,J1,A12*%
X41122000Y-43982000D03*
D26*
%TO.P,J1,B1*%
X41072000Y-42732000D03*
%TO.P,J1,B2*%
X41472000Y-42022000D03*
%TO.P,J1,B3*%
X42272000Y-42022000D03*
%TO.P,J1,B4*%
X42672000Y-42732000D03*
%TO.P,J1,B5,CC2*%
%TO.N,Net-(J1-PadB5)*%
X43072000Y-42022000D03*
%TO.P,J1,B6,D+*%
%TO.N,USB_D+*%
X43472000Y-42732000D03*
%TO.P,J1,B7,D-*%
%TO.N,USB_D-*%
X44272000Y-42732000D03*
%TO.P,J1,B8,SBU2*%
%TO.N,unconnected-(J1-PadB8)*%
X44672000Y-42022000D03*
%TO.P,J1,B9*%
%TO.N,N/C*%
X45072000Y-42732000D03*
%TO.P,J1,B10*%
X45472000Y-42022000D03*
%TO.P,J1,B11*%
X46272000Y-42022000D03*
%TO.P,J1,B12*%
X46672000Y-42732000D03*
D27*
%TO.P,J1,GN1*%
X41872000Y-42732000D03*
%TO.P,J1,GR1*%
X45872000Y-42732000D03*
D28*
%TO.P,J1,MH1*%
X48142000Y-41582000D03*
%TO.P,J1,MH2*%
X39602000Y-41582000D03*
%TO.P,J1,MH3*%
X48142000Y-36852000D03*
%TO.P,J1,MH4*%
X39602000Y-36852000D03*
D29*
%TO.P,J1,MP1*%
X43872000Y-39402000D03*
%TO.P,J1,MP2*%
X43872000Y-36302000D03*
%TD*%
D18*
%TO.P,SW4,1,1*%
%TO.N,BTN4*%
X59182000Y-66589000D03*
%TO.P,SW4,2,2*%
%TO.N,GND*%
X54182000Y-64489000D03*
%TD*%
D16*
%TO.P,D10,1,VDD*%
%TO.N,+5V*%
X127307000Y-65480500D03*
%TO.P,D10,2,DOUT*%
%TO.N,Net-(D10-Pad2)*%
X129137000Y-65480500D03*
%TO.P,D10,3,VSS*%
%TO.N,GND*%
X129137000Y-64380500D03*
%TO.P,D10,4,DIN*%
%TO.N,unconnected-(D10-Pad4)*%
X127307000Y-64380500D03*
%TD*%
D30*
%TO.P,C26,1*%
%TO.N,+5V*%
X24492000Y-77470000D03*
%TO.P,C26,2*%
%TO.N,GND*%
X24492000Y-79195000D03*
%TD*%
D22*
%TO.P,C25,1*%
%TO.N,+5V*%
X41663500Y-92456000D03*
%TO.P,C25,2*%
%TO.N,GND*%
X43388500Y-92456000D03*
%TD*%
D31*
%TO.P,J2,T*%
%TO.N,SCK*%
X24253000Y-67770000D03*
%TO.P,J2,S*%
%TO.N,GND*%
X25353000Y-74270000D03*
%TO.P,J2,R2*%
%TO.N,SDA*%
X17253000Y-67770000D03*
%TO.P,J2,R1*%
%TO.N,+5V*%
X20253000Y-67770000D03*
%TD*%
D16*
%TO.P,D9,1,VDD*%
%TO.N,+5V*%
X105336000Y-55447500D03*
%TO.P,D9,2,DOUT*%
%TO.N,Net-(D8-Pad4)*%
X107166000Y-55447500D03*
%TO.P,D9,3,VSS*%
%TO.N,GND*%
X107166000Y-54347500D03*
%TO.P,D9,4,DIN*%
%TO.N,Net-(D10-Pad2)*%
X105336000Y-54347500D03*
%TD*%
D32*
%TO.N,+5V*%
X52750000Y-51250000D03*
%TO.N,Net-(D6-Pad4)*%
X35245989Y-57004011D03*
%TO.N,GND*%
X26250000Y-76500000D03*
%TO.N,BTN6*%
X28250000Y-53500000D03*
X28500000Y-75750000D03*
%TO.N,LED_IN*%
X30250000Y-63500000D03*
%TO.N,GND*%
X62200000Y-55400000D03*
X45200000Y-99200000D03*
X109400000Y-54900000D03*
X44800000Y-92400000D03*
X130500000Y-64400000D03*
X46936000Y-45202000D03*
X104500000Y-50200000D03*
X35800000Y-83400000D03*
X57500000Y-51200000D03*
X24500000Y-80500000D03*
X27700000Y-97400000D03*
X87200000Y-46400000D03*
X49336000Y-49102000D03*
X16900000Y-89600000D03*
X126400000Y-60200000D03*
X47336000Y-50802000D03*
X81900000Y-42300000D03*
%TO.N,+5V*%
X103700000Y-64400000D03*
X103800000Y-48000000D03*
X45936000Y-47002000D03*
X41700000Y-87600000D03*
X41700000Y-56116000D03*
X36275583Y-47621963D03*
%TO.N,USB_D+*%
X44155400Y-45102000D03*
%TO.N,Net-(D6-Pad4)*%
X32600000Y-79400000D03*
%TO.N,LED_IN*%
X27500000Y-99400000D03*
%TO.N,BTN1*%
X20066000Y-56007000D03*
%TO.N,BTN3*%
X27813000Y-58420000D03*
%TO.N,SCK*%
X24813000Y-63781000D03*
X24813000Y-48093000D03*
%TO.N,BTN4*%
X21638000Y-58380000D03*
X21717000Y-67564000D03*
%TO.N,BTN7*%
X23797000Y-50760000D03*
X24000000Y-70070000D03*
%TO.N,SDA*%
X15415000Y-65940000D03*
%TD*%
D33*
%TO.N,+5V*%
X26614500Y-43140000D02*
X26614500Y-41846500D01*
X26614500Y-41846500D02*
X32941000Y-35520000D01*
X41700000Y-56116000D02*
X37480000Y-56116000D01*
X37480000Y-56116000D02*
X36275583Y-54911583D01*
X36275583Y-54911583D02*
X36275583Y-38854583D01*
X36275583Y-38854583D02*
X32941000Y-35520000D01*
%TO.N,SCK*%
X24253000Y-67770000D02*
X24253000Y-64341000D01*
X24253000Y-64341000D02*
X24813000Y-63781000D01*
%TO.N,+5V*%
X66124000Y-49700000D02*
X55858500Y-49700000D01*
D34*
X71506000Y-49700000D02*
X66124000Y-49700000D01*
%TO.N,USB_D+*%
X44155400Y-45102000D02*
X44155400Y-46945636D01*
X44155400Y-46945636D02*
X40851048Y-50249988D01*
X40851048Y-50249988D02*
X40250008Y-50249988D01*
%TO.N,USB_D-*%
X43136000Y-46702000D02*
X42797998Y-46702000D01*
X42797998Y-46702000D02*
X40250008Y-49249990D01*
%TO.N,+5V*%
X54307500Y-51251000D02*
X54307500Y-52552000D01*
D33*
X54306500Y-51250000D02*
X54307500Y-51251000D01*
X52750000Y-51250000D02*
X54306500Y-51250000D01*
%TO.N,BTN5*%
X36411000Y-57589000D02*
X36399578Y-57600422D01*
X33143511Y-56893511D02*
X29168511Y-56893511D01*
X36399578Y-57600422D02*
X33850422Y-57600422D01*
X33850422Y-57600422D02*
X33143511Y-56893511D01*
X29168511Y-56893511D02*
X29004000Y-56729000D01*
D34*
%TO.N,Net-(D6-Pad4)*%
X35245989Y-57004011D02*
X59508489Y-57004011D01*
D33*
%TO.N,BTN7*%
X28150000Y-69100000D02*
X27180000Y-70070000D01*
X27180000Y-70070000D02*
X24000000Y-70070000D01*
%TO.N,+5V*%
X20253000Y-77150000D02*
X24172000Y-77150000D01*
X24172000Y-77150000D02*
X24492000Y-77470000D01*
%TO.N,GND*%
X25353000Y-75603000D02*
X26250000Y-76500000D01*
X25353000Y-74270000D02*
X25353000Y-75603000D01*
%TO.N,BTN6*%
X28250000Y-53500000D02*
X22854000Y-53500000D01*
X28411000Y-75589000D02*
X28500000Y-75678000D01*
X28500000Y-75678000D02*
X28500000Y-75750000D01*
X22854000Y-53500000D02*
X22654000Y-53300000D01*
X28411000Y-75589000D02*
X128182000Y-75589000D01*
%TO.N,BTN4*%
X26911000Y-66589000D02*
X26911000Y-67469022D01*
X26911000Y-67469022D02*
X25106511Y-69273511D01*
X25106511Y-69273511D02*
X23303511Y-69273511D01*
X23303511Y-69273511D02*
X21600000Y-67570000D01*
%TO.N,LED_IN*%
X29934589Y-63184589D02*
X17976411Y-63184589D01*
X30250000Y-63500000D02*
X29934589Y-63184589D01*
X17976411Y-63184589D02*
X17701000Y-63460000D01*
%TO.N,BTN7*%
X28150000Y-69100000D02*
X102671000Y-69100000D01*
%TO.N,BTN4*%
X26911000Y-66589000D02*
X59182000Y-66589000D01*
%TO.N,BTN5*%
X84182000Y-57589000D02*
X36411000Y-57589000D01*
%TO.N,+5V*%
X25598500Y-44156000D02*
X26614500Y-43140000D01*
X25162500Y-46250000D02*
X25162500Y-44592000D01*
X25162500Y-44592000D02*
X25598500Y-44156000D01*
%TO.N,SCK*%
X23337500Y-46250000D02*
X23337500Y-46617500D01*
X23337500Y-46617500D02*
X24813000Y-48093000D01*
%TO.N,SDA*%
X23773500Y-44156000D02*
X22249500Y-45680000D01*
X22249500Y-45680000D02*
X17701000Y-45680000D01*
D34*
%TO.N,GND*%
X130480500Y-64380500D02*
X130500000Y-64400000D01*
X45962500Y-50495000D02*
X47336000Y-49121500D01*
X125120500Y-60141000D02*
X126341000Y-60141000D01*
X108847500Y-54347500D02*
X109400000Y-54900000D01*
X43847413Y-98533186D02*
X44533186Y-98533186D01*
X44533186Y-98533186D02*
X45200000Y-99200000D01*
X107166000Y-54347500D02*
X108847500Y-54347500D01*
D33*
X85015000Y-46425000D02*
X87175000Y-46425000D01*
D34*
X50323500Y-48114500D02*
X49336000Y-49102000D01*
X103276500Y-50235000D02*
X104465000Y-50235000D01*
X35458000Y-83058000D02*
X35800000Y-83400000D01*
X16872000Y-90831500D02*
X16872000Y-89628000D01*
X62163500Y-55363500D02*
X62200000Y-55400000D01*
X27563186Y-97263186D02*
X27700000Y-97400000D01*
X49316500Y-49121500D02*
X49336000Y-49102000D01*
X104465000Y-50235000D02*
X104500000Y-50200000D01*
X126341000Y-60141000D02*
X126400000Y-60200000D01*
D33*
X81839000Y-42361000D02*
X81900000Y-42300000D01*
D34*
X129137000Y-64380500D02*
X130480500Y-64380500D01*
X26321413Y-97263186D02*
X27563186Y-97263186D01*
X60049000Y-55363500D02*
X62163500Y-55363500D01*
X16872000Y-89628000D02*
X16900000Y-89600000D01*
D33*
X80570000Y-42361000D02*
X81839000Y-42361000D01*
D34*
X24492000Y-80492000D02*
X24500000Y-80500000D01*
X47006000Y-51132000D02*
X47336000Y-50802000D01*
X57449000Y-51251000D02*
X57500000Y-51200000D01*
X24492000Y-79195000D02*
X24492000Y-80492000D01*
X45962500Y-51132000D02*
X47006000Y-51132000D01*
D33*
X46622000Y-43982000D02*
X46622000Y-44888000D01*
D34*
X45962500Y-51132000D02*
X45962500Y-50495000D01*
X56032500Y-51251000D02*
X57449000Y-51251000D01*
X47336000Y-49121500D02*
X49316500Y-49121500D01*
X43388500Y-92456000D02*
X44744000Y-92456000D01*
X34144000Y-83058000D02*
X35458000Y-83058000D01*
D33*
X87175000Y-46425000D02*
X87200000Y-46400000D01*
X46622000Y-44888000D02*
X46936000Y-45202000D01*
D34*
X51036000Y-48114500D02*
X50323500Y-48114500D01*
X44744000Y-92456000D02*
X44800000Y-92400000D01*
D33*
%TO.N,+5V*%
X20253000Y-77150000D02*
X20253000Y-66800000D01*
D34*
X42931216Y-93723716D02*
X41663500Y-92456000D01*
X33188457Y-82389371D02*
X32482200Y-83095628D01*
X101551500Y-51663000D02*
X101551500Y-50235000D01*
X123395500Y-64369478D02*
X123382489Y-64382489D01*
X103800000Y-48000000D02*
X103786500Y-48000000D01*
X41663500Y-92456000D02*
X41663500Y-88474051D01*
X42185613Y-98570814D02*
X42931216Y-97825211D01*
X98100000Y-44600000D02*
X81300000Y-44600000D01*
X126208989Y-64382489D02*
X123382489Y-64382489D01*
X28074556Y-81089000D02*
X28111000Y-81089000D01*
X103717511Y-64382489D02*
X103700000Y-64400000D01*
X80780000Y-45120000D02*
X83185000Y-47525000D01*
X41712587Y-98570814D02*
X42185613Y-98570814D01*
X78845000Y-43185000D02*
X80780000Y-45120000D01*
X123395500Y-60141000D02*
X123395500Y-64369478D01*
X30117628Y-83095628D02*
X28111000Y-81089000D01*
D33*
X55858500Y-49700000D02*
X54307500Y-51251000D01*
D34*
X32009174Y-83095628D02*
X30117628Y-83095628D01*
D33*
X47336000Y-47046500D02*
X45980500Y-47046500D01*
D34*
X19442273Y-89721283D02*
X28074556Y-81089000D01*
X127307000Y-65480500D02*
X126208989Y-64382489D01*
D33*
X45980500Y-47046500D02*
X45936000Y-47002000D01*
D34*
X41663500Y-88474051D02*
X35578820Y-82389371D01*
X42931216Y-97825211D02*
X42931216Y-93723716D01*
X81300000Y-44600000D02*
X80780000Y-45120000D01*
D33*
X45122000Y-43982000D02*
X45122000Y-44836000D01*
D34*
X105336000Y-55447500D02*
X101551500Y-51663000D01*
X123382489Y-64382489D02*
X103717511Y-64382489D01*
D33*
X45122000Y-44836000D02*
X47332500Y-47046500D01*
D34*
X54307500Y-52552000D02*
X58219000Y-56463500D01*
X78845000Y-42361000D02*
X78845000Y-43185000D01*
X16872000Y-92556500D02*
X19442273Y-92556500D01*
D33*
X47332500Y-47046500D02*
X47336000Y-47046500D01*
D34*
X28111000Y-81089000D02*
X24492000Y-77470000D01*
X100400000Y-44600000D02*
X98100000Y-44600000D01*
X41663500Y-87563500D02*
X41700000Y-87600000D01*
X19442273Y-92556500D02*
X24186587Y-97300814D01*
X35578820Y-82389371D02*
X33188457Y-82389371D01*
X71506000Y-49700000D02*
X78845000Y-42361000D01*
X32482200Y-83095628D02*
X32009174Y-83095628D01*
X19442273Y-92556500D02*
X19442273Y-89721283D01*
X103800000Y-48000000D02*
X100400000Y-44600000D01*
X41663500Y-88474051D02*
X41663500Y-87563500D01*
X103786500Y-48000000D02*
X101551500Y-50235000D01*
D35*
%TO.N,USB_D-*%
X43622000Y-43982000D02*
X43622000Y-43382000D01*
D34*
X43136000Y-46702000D02*
X43622000Y-46216000D01*
D35*
X43622000Y-43382000D02*
X44272000Y-42732000D01*
D34*
X43622000Y-46216000D02*
X43622000Y-43982000D01*
%TO.N,USB_D+*%
X44155400Y-45102000D02*
X44155400Y-44015400D01*
X44155400Y-44015400D02*
X44122000Y-43982000D01*
%TO.N,Net-(J1-PadB5)*%
X43587511Y-41506489D02*
X46519446Y-41506489D01*
X46946489Y-42199989D02*
X51036000Y-46289500D01*
X46519446Y-41506489D02*
X46946489Y-41933532D01*
X46946489Y-41933532D02*
X46946489Y-42199989D01*
X43072000Y-42022000D02*
X43587511Y-41506489D01*
%TO.N,Net-(J1-PadA5)*%
X44622000Y-43982000D02*
X44688811Y-44048811D01*
X44688811Y-44048811D02*
X44688811Y-50580689D01*
X44688811Y-50580689D02*
X44137500Y-51132000D01*
%TO.N,Net-(D4-Pad4)*%
X33754350Y-96348186D02*
X24736587Y-96348186D01*
X43297413Y-99485814D02*
X36891978Y-99485814D01*
X36891978Y-99485814D02*
X33754350Y-96348186D01*
%TO.N,Net-(D5-Pad4)*%
X33594000Y-89656164D02*
X41556022Y-97618186D01*
X33594000Y-84010628D02*
X33594000Y-89656164D01*
X41556022Y-97618186D02*
X42262587Y-97618186D01*
%TO.N,Net-(D6-Pad4)*%
X32559174Y-82143000D02*
X32559174Y-79440826D01*
X59508489Y-57004011D02*
X60049000Y-56463500D01*
X32559174Y-79440826D02*
X32600000Y-79400000D01*
%TO.N,Net-(D7-Pad4)*%
X85015000Y-47525000D02*
X82585980Y-49954020D01*
X58438000Y-53300000D02*
X58219000Y-53519000D01*
X58219000Y-53519000D02*
X58219000Y-55363500D01*
X63487431Y-53300000D02*
X58438000Y-53300000D01*
X82585980Y-49954020D02*
X66833411Y-49954020D01*
X66833411Y-49954020D02*
X63487431Y-53300000D01*
%TO.N,Net-(D8-Pad4)*%
X104995489Y-56100000D02*
X106513500Y-56100000D01*
X106513500Y-56100000D02*
X107166000Y-55447500D01*
X87400000Y-48400000D02*
X97295489Y-48400000D01*
X83185000Y-46425000D02*
X83725511Y-46965511D01*
X85965511Y-46965511D02*
X87400000Y-48400000D01*
X97295489Y-48400000D02*
X104995489Y-56100000D01*
X83725511Y-46965511D02*
X85965511Y-46965511D01*
%TO.N,Net-(D10-Pad2)*%
X130208949Y-65480500D02*
X131033411Y-64656038D01*
X131033411Y-64043962D02*
X120796438Y-53806989D01*
X131033411Y-64656038D02*
X131033411Y-64043962D01*
X129137000Y-65480500D02*
X130208949Y-65480500D01*
X120796438Y-53806989D02*
X105876511Y-53806989D01*
X105876511Y-53806989D02*
X105336000Y-54347500D01*
D33*
%TO.N,LED_IN*%
X26955599Y-99400000D02*
X25771413Y-98215814D01*
X27500000Y-99400000D02*
X26955599Y-99400000D01*
%TO.N,BTN1*%
X19987000Y-55967000D02*
X20114000Y-55840000D01*
X20114000Y-55840000D02*
X32941000Y-55840000D01*
%TO.N,BTN3*%
X27988000Y-58380000D02*
X32941000Y-58380000D01*
%TO.N,SCK*%
X24813000Y-48093000D02*
X24686000Y-48220000D01*
X24686000Y-48220000D02*
X17701000Y-48220000D01*
%TO.N,BTN4*%
X21638000Y-58380000D02*
X17701000Y-58380000D01*
%TO.N,BTN5*%
X18590000Y-56729000D02*
X17701000Y-55840000D01*
X29004000Y-56729000D02*
X18590000Y-56729000D01*
%TO.N,BTN6*%
X22654000Y-53300000D02*
X17701000Y-53300000D01*
%TO.N,BTN7*%
X102671000Y-69100000D02*
X106182000Y-65589000D01*
X23797000Y-50760000D02*
X17701000Y-50760000D01*
%TO.N,SDA*%
X17253000Y-67770000D02*
X15423000Y-65940000D01*
X15423000Y-65940000D02*
X15415000Y-65940000D01*
%TD*%
M02*
