M48
; DRILL file {KiCad 6.0.4} date Fri 08 Apr 2022 04:21:28 PM CEST
; FORMAT={3:3/ absolute / metric / suppress leading zeros}
; #@! TF.CreationDate,2022-04-08T16:21:28+02:00
; #@! TF.GenerationSoftware,Kicad,Pcbnew,6.0.4
; #@! TF.FileFunction,MixedPlating,1,2
FMAT,2
METRIC,TZ
; #@! TA.AperFunction,Plated,PTH,ViaDrill
T1C0.330
; #@! TA.AperFunction,Plated,PTH,ComponentDrill
T2C0.400
; #@! TA.AperFunction,Plated,PTH,ComponentDrill
T3C0.450
; #@! TA.AperFunction,Plated,PTH,ComponentDrill
T4C0.500
; #@! TA.AperFunction,Plated,PTH,ComponentDrill
T5C1.100
; #@! TA.AperFunction,Plated,PTH,ComponentDrill
T6C1.270
; #@! TA.AperFunction,Plated,PTH,ComponentDrill
T7C1.340
; #@! TA.AperFunction,Plated,PTH,ComponentDrill
T8C3.200
; #@! TA.AperFunction,NonPlated,NPTH,ComponentDrill
T9C0.991
; #@! TA.AperFunction,NonPlated,NPTH,ComponentDrill
T10C1.500
; #@! TA.AperFunction,NonPlated,NPTH,ComponentDrill
T11C1.702
; #@! TA.AperFunction,NonPlated,NPTH,ComponentDrill
T12C3.429
%
G90
G05
T1
X15415Y-65940
X16900Y-89600
X20066Y-56007
X21638Y-58380
X21717Y-67564
X23797Y-50760
X24000Y-70070
X24500Y-80500
X24813Y-48093
X24813Y-63781
X26250Y-76500
X27500Y-99400
X27700Y-97400
X27813Y-58420
X28250Y-53500
X28500Y-75750
X30250Y-63500
X32600Y-79400
X35246Y-57004
X35800Y-83400
X36276Y-47622
X41700Y-56116
X41700Y-87600
X44155Y-45102
X44800Y-92400
X45200Y-99200
X45936Y-47002
X46936Y-45202
X47336Y-50802
X49336Y-49102
X52750Y-51250
X57500Y-51200
X62200Y-55400
X81900Y-42300
X87200Y-46400
X103700Y-64400
X103800Y-48000
X104500Y-50200
X109400Y-54900
X126400Y-60200
X130500Y-64400
T2
X41072Y-42732
X41472Y-42022
X42272Y-42022
X42672Y-42732
X43072Y-42022
X43472Y-42732
X44272Y-42732
X44672Y-42022
X45072Y-42732
X45472Y-42022
X46272Y-42022
X46672Y-42732
T3
X41872Y-42732
X45872Y-42732
T4
X40005Y-49276
X40005Y-50276
X59600Y-40000
X59600Y-103000
X60303Y-38303
X60303Y-41697
X60303Y-101303
X60303Y-104697
X62000Y-37600
X62000Y-42400
X62000Y-100600
X62000Y-105400
X63697Y-38303
X63697Y-41697
X63697Y-101303
X63697Y-104697
X64400Y-40000
X64400Y-103000
X91600Y-103000
X92303Y-101303
X92303Y-104697
X94000Y-100600
X94000Y-105400
X95697Y-101303
X95697Y-104697
X96400Y-103000
X123600Y-40000
X123600Y-103000
X124303Y-38303
X124303Y-41697
X124303Y-101303
X124303Y-104697
X126000Y-37600
X126000Y-42400
X126000Y-100600
X126000Y-105400
X127697Y-38303
X127697Y-41697
X127697Y-101303
X127697Y-104697
X128400Y-40000
X128400Y-103000
T5
X17701Y-35520
X17701Y-38060
X17701Y-40600
X17701Y-43140
X17701Y-45680
X17701Y-48220
X17701Y-50760
X17701Y-53300
X17701Y-55840
X17701Y-58380
X17701Y-60920
X17701Y-63460
X32941Y-35520
X32941Y-38060
X32941Y-40600
X32941Y-43140
X32941Y-45680
X32941Y-48220
X32941Y-50760
X32941Y-53300
X32941Y-55840
X32941Y-58380
X32941Y-60920
X32941Y-63460
T6
X16738Y-102137
X20018Y-106456
X24612Y-88167
X27892Y-92486
X34264Y-103407
X37544Y-107726
X54182Y-64489
X59182Y-66589
X79182Y-55489
X84182Y-57589
X101182Y-63489
X106182Y-65589
X123182Y-73489
X128182Y-75589
T7
X39602Y-36852
X39602Y-41582
X48142Y-36852
X48142Y-41582
T8
X62000Y-40000
X62000Y-103000
X94000Y-103000
X126000Y-40000
X126000Y-103000
T9
X29589Y-100319
X37463Y-86349
X47115Y-101589
X64402Y-56489
X89402Y-47489
X111402Y-55489
X133402Y-65489
T10
X15653Y-71020
X22653Y-71020
T11
X18205Y-98596
X26079Y-84626
X27731Y-104096
X35605Y-90126
X35731Y-99866
X45257Y-105366
X53682Y-60689
X64682Y-60689
X78682Y-51689
X89682Y-51689
X100682Y-59689
X111682Y-59689
X122682Y-69689
X133682Y-69689
T12
X22968Y-101346
X30842Y-87376
X40494Y-102616
X59182Y-60689
X84182Y-51689
X106182Y-59689
X128182Y-69689
T0
M30
