%TF.GenerationSoftware,KiCad,Pcbnew,6.0.4*%
%TF.CreationDate,2022-04-08T16:21:30+02:00*%
%TF.ProjectId,keychordz,6b657963-686f-4726-947a-2e6b69636164,rev?*%
%TF.SameCoordinates,Original*%
%TF.FileFunction,Paste,Top*%
%TF.FilePolarity,Positive*%
%FSLAX46Y46*%
G04 Gerber Fmt 4.6, Leading zero omitted, Abs format (unit mm)*
G04 Created by KiCad (PCBNEW 6.0.4) date 2022-04-08 16:21:30*
%MOMM*%
%LPD*%
G01*
G04 APERTURE LIST*
G04 Aperture macros list*
%AMRoundRect*
0 Rectangle with rounded corners*
0 $1 Rounding radius*
0 $2 $3 $4 $5 $6 $7 $8 $9 X,Y pos of 4 corners*
0 Add a 4 corners polygon primitive as box body*
4,1,4,$2,$3,$4,$5,$6,$7,$8,$9,$2,$3,0*
0 Add four circle primitives for the rounded corners*
1,1,$1+$1,$2,$3*
1,1,$1+$1,$4,$5*
1,1,$1+$1,$6,$7*
1,1,$1+$1,$8,$9*
0 Add four rect primitives between the rounded corners*
20,1,$1+$1,$2,$3,$4,$5,0*
20,1,$1+$1,$4,$5,$6,$7,0*
20,1,$1+$1,$6,$7,$8,$9,0*
20,1,$1+$1,$8,$9,$2,$3,0*%
%AMRotRect*
0 Rectangle, with rotation*
0 The origin of the aperture is its center*
0 $1 length*
0 $2 width*
0 $3 Rotation angle, in degrees counterclockwise*
0 Add horizontal line*
21,1,$1,$2,0,0,$3*%
G04 Aperture macros list end*
%ADD10R,0.700000X0.700000*%
%ADD11RoundRect,0.237500X-0.250000X-0.237500X0.250000X-0.237500X0.250000X0.237500X-0.250000X0.237500X0*%
%ADD12RotRect,0.700000X0.700000X330.000000*%
%ADD13RoundRect,0.237500X-0.237500X0.250000X-0.237500X-0.250000X0.237500X-0.250000X0.237500X0.250000X0*%
%ADD14RoundRect,0.237500X0.250000X0.237500X-0.250000X0.237500X-0.250000X-0.237500X0.250000X-0.237500X0*%
%ADD15RoundRect,0.237500X-0.300000X-0.237500X0.300000X-0.237500X0.300000X0.237500X-0.300000X0.237500X0*%
%ADD16RoundRect,0.250000X-0.475000X0.337500X-0.475000X-0.337500X0.475000X-0.337500X0.475000X0.337500X0*%
%ADD17RoundRect,0.237500X0.237500X-0.300000X0.237500X0.300000X-0.237500X0.300000X-0.237500X-0.300000X0*%
%ADD18R,0.300000X1.200000*%
%ADD19R,0.200000X1.000000*%
%ADD20RoundRect,0.237500X-0.237500X0.300000X-0.237500X-0.300000X0.237500X-0.300000X0.237500X0.300000X0*%
%ADD21R,1.200000X2.500000*%
G04 APERTURE END LIST*
D10*
%TO.C,D7*%
X58219000Y-56463500D03*
X60049000Y-56463500D03*
X60049000Y-55363500D03*
X58219000Y-55363500D03*
%TD*%
D11*
%TO.C,R3*%
X44137500Y-51132000D03*
X45962500Y-51132000D03*
%TD*%
D10*
%TO.C,D8*%
X83185000Y-47525000D03*
X85015000Y-47525000D03*
X85015000Y-46425000D03*
X83185000Y-46425000D03*
%TD*%
D12*
%TO.C,D4*%
X24186587Y-97300814D03*
X25771413Y-98215814D03*
X26321413Y-97263186D03*
X24736587Y-96348186D03*
%TD*%
D13*
%TO.C,R4*%
X51036000Y-46289500D03*
X51036000Y-48114500D03*
%TD*%
D12*
%TO.C,D5*%
X41712587Y-98570814D03*
X43297413Y-99485814D03*
X43847413Y-98533186D03*
X42262587Y-97618186D03*
%TD*%
D14*
%TO.C,R1*%
X25598500Y-44156000D03*
X23773500Y-44156000D03*
%TD*%
D15*
%TO.C,C29*%
X101551500Y-50235000D03*
X103276500Y-50235000D03*
%TD*%
%TO.C,C30*%
X123395500Y-60141000D03*
X125120500Y-60141000D03*
%TD*%
D16*
%TO.C,C22*%
X47336000Y-47046500D03*
X47336000Y-49121500D03*
%TD*%
D15*
%TO.C,C28*%
X78845000Y-42361000D03*
X80570000Y-42361000D03*
%TD*%
%TO.C,C27*%
X54307500Y-51251000D03*
X56032500Y-51251000D03*
%TD*%
D11*
%TO.C,R2*%
X23337500Y-46250000D03*
X25162500Y-46250000D03*
%TD*%
D12*
%TO.C,D6*%
X32009174Y-83095628D03*
X33594000Y-84010628D03*
X34144000Y-83058000D03*
X32559174Y-82143000D03*
%TD*%
D17*
%TO.C,C4*%
X16872000Y-92556500D03*
X16872000Y-90831500D03*
%TD*%
D18*
%TO.C,J1*%
X46622000Y-43982000D03*
X46122000Y-43982000D03*
X45622000Y-43982000D03*
X45122000Y-43982000D03*
X44622000Y-43982000D03*
X44122000Y-43982000D03*
X43622000Y-43982000D03*
X43122000Y-43982000D03*
X42622000Y-43982000D03*
X42122000Y-43982000D03*
X41622000Y-43982000D03*
X41122000Y-43982000D03*
D19*
X43872000Y-39402000D03*
X43872000Y-36302000D03*
%TD*%
D10*
%TO.C,D10*%
X127307000Y-65480500D03*
X129137000Y-65480500D03*
X129137000Y-64380500D03*
X127307000Y-64380500D03*
%TD*%
D20*
%TO.C,C26*%
X24492000Y-77470000D03*
X24492000Y-79195000D03*
%TD*%
D15*
%TO.C,C25*%
X41663500Y-92456000D03*
X43388500Y-92456000D03*
%TD*%
D21*
%TO.C,J2*%
X24253000Y-67770000D03*
X25353000Y-74270000D03*
X17253000Y-67770000D03*
X20253000Y-67770000D03*
%TD*%
D10*
%TO.C,D9*%
X105336000Y-55447500D03*
X107166000Y-55447500D03*
X107166000Y-54347500D03*
X105336000Y-54347500D03*
%TD*%
M02*
