%TF.GenerationSoftware,KiCad,Pcbnew,6.0.4*%
%TF.CreationDate,2022-04-08T16:21:30+02:00*%
%TF.ProjectId,keychordz,6b657963-686f-4726-947a-2e6b69636164,rev?*%
%TF.SameCoordinates,Original*%
%TF.FileFunction,Soldermask,Top*%
%TF.FilePolarity,Negative*%
%FSLAX46Y46*%
G04 Gerber Fmt 4.6, Leading zero omitted, Abs format (unit mm)*
G04 Created by KiCad (PCBNEW 6.0.4) date 2022-04-08 16:21:30*
%MOMM*%
%LPD*%
G01*
G04 APERTURE LIST*
G04 Aperture macros list*
%AMRoundRect*
0 Rectangle with rounded corners*
0 $1 Rounding radius*
0 $2 $3 $4 $5 $6 $7 $8 $9 X,Y pos of 4 corners*
0 Add a 4 corners polygon primitive as box body*
4,1,4,$2,$3,$4,$5,$6,$7,$8,$9,$2,$3,0*
0 Add four circle primitives for the rounded corners*
1,1,$1+$1,$2,$3*
1,1,$1+$1,$4,$5*
1,1,$1+$1,$6,$7*
1,1,$1+$1,$8,$9*
0 Add four rect primitives between the rounded corners*
20,1,$1+$1,$2,$3,$4,$5,0*
20,1,$1+$1,$4,$5,$6,$7,0*
20,1,$1+$1,$6,$7,$8,$9,0*
20,1,$1+$1,$8,$9,$2,$3,0*%
%AMRotRect*
0 Rectangle, with rotation*
0 The origin of the aperture is its center*
0 $1 length*
0 $2 width*
0 $3 Rotation angle, in degrees counterclockwise*
0 Add horizontal line*
21,1,$1,$2,0,0,$3*%
G04 Aperture macros list end*
%ADD10R,0.850000X0.850000*%
%ADD11O,0.850000X0.850000*%
%ADD12C,6.400000*%
%ADD13C,0.800000*%
%ADD14R,1.600000X1.600000*%
%ADD15C,1.600000*%
%ADD16R,0.700000X0.700000*%
%ADD17RoundRect,0.237500X-0.250000X-0.237500X0.250000X-0.237500X0.250000X0.237500X-0.250000X0.237500X0*%
%ADD18C,3.429000*%
%ADD19C,1.701800*%
%ADD20C,0.990600*%
%ADD21C,2.032000*%
%ADD22RotRect,0.700000X0.700000X330.000000*%
%ADD23RoundRect,0.237500X-0.237500X0.250000X-0.237500X-0.250000X0.237500X-0.250000X0.237500X0.250000X0*%
%ADD24RoundRect,0.237500X0.250000X0.237500X-0.250000X0.237500X-0.250000X-0.237500X0.250000X-0.237500X0*%
%ADD25RoundRect,0.237500X-0.300000X-0.237500X0.300000X-0.237500X0.300000X0.237500X-0.300000X0.237500X0*%
%ADD26RoundRect,0.250000X-0.475000X0.337500X-0.475000X-0.337500X0.475000X-0.337500X0.475000X0.337500X0*%
%ADD27RoundRect,0.237500X0.237500X-0.300000X0.237500X0.300000X-0.237500X0.300000X-0.237500X-0.300000X0*%
%ADD28R,0.300000X1.200000*%
%ADD29C,0.650000*%
%ADD30C,0.550000*%
%ADD31C,2.010000*%
%ADD32R,0.200000X1.000000*%
%ADD33RoundRect,0.237500X-0.237500X0.300000X-0.237500X-0.300000X0.237500X-0.300000X0.237500X0.300000X0*%
%ADD34R,1.200000X2.500000*%
%ADD35C,1.500000*%
G04 APERTURE END LIST*
D10*
%TO.C,USB*%
X40005000Y-49276000D03*
D11*
X40005000Y-50276000D03*
%TD*%
D12*
%TO.C,MNT5*%
X126000000Y-40000000D03*
D13*
X123600000Y-40000000D03*
X124302944Y-41697056D03*
X126000000Y-42400000D03*
X128400000Y-40000000D03*
X124302944Y-38302944D03*
X127697056Y-41697056D03*
X127697056Y-38302944D03*
X126000000Y-37600000D03*
%TD*%
D12*
%TO.C,MNT4*%
X62000000Y-40000000D03*
D13*
X59600000Y-40000000D03*
X60302944Y-41697056D03*
X62000000Y-42400000D03*
X64400000Y-40000000D03*
X60302944Y-38302944D03*
X63697056Y-41697056D03*
X63697056Y-38302944D03*
X62000000Y-37600000D03*
%TD*%
D14*
%TO.C,U1*%
X17701000Y-35520000D03*
D15*
X17701000Y-38060000D03*
X17701000Y-40600000D03*
X17701000Y-43140000D03*
X17701000Y-45680000D03*
X17701000Y-48220000D03*
X17701000Y-50760000D03*
X17701000Y-53300000D03*
X17701000Y-55840000D03*
X17701000Y-58380000D03*
X17701000Y-60920000D03*
X17701000Y-63460000D03*
X32941000Y-63460000D03*
X32941000Y-60920000D03*
X32941000Y-58380000D03*
X32941000Y-55840000D03*
X32941000Y-53300000D03*
X32941000Y-50760000D03*
X32941000Y-48220000D03*
X32941000Y-45680000D03*
X32941000Y-43140000D03*
X32941000Y-40600000D03*
X32941000Y-38060000D03*
X32941000Y-35520000D03*
%TD*%
D16*
%TO.C,D7*%
X58219000Y-56463500D03*
X60049000Y-56463500D03*
X60049000Y-55363500D03*
X58219000Y-55363500D03*
%TD*%
D17*
%TO.C,R3*%
X44137500Y-51132000D03*
X45962500Y-51132000D03*
%TD*%
D12*
%TO.C,MNT1*%
X62000000Y-103000000D03*
D13*
X59600000Y-103000000D03*
X60302944Y-104697056D03*
X62000000Y-105400000D03*
X64400000Y-103000000D03*
X60302944Y-101302944D03*
X63697056Y-104697056D03*
X63697056Y-101302944D03*
X62000000Y-100600000D03*
%TD*%
D16*
%TO.C,D8*%
X83185000Y-47525000D03*
X85015000Y-47525000D03*
X85015000Y-46425000D03*
X83185000Y-46425000D03*
%TD*%
D18*
%TO.C,SW1*%
X22968000Y-101346000D03*
D19*
X27731140Y-104096000D03*
D20*
X29588653Y-100318693D03*
D19*
X18204860Y-98596000D03*
D21*
X20018000Y-106455550D03*
X16737873Y-102136897D03*
%TD*%
D22*
%TO.C,D4*%
X24186587Y-97300814D03*
X25771413Y-98215814D03*
X26321413Y-97263186D03*
X24736587Y-96348186D03*
%TD*%
D19*
%TO.C,SW5*%
X89682000Y-51689000D03*
X78682000Y-51689000D03*
D20*
X89402000Y-47489000D03*
D18*
X84182000Y-51689000D03*
D21*
X84182000Y-57589000D03*
X79182000Y-55489000D03*
%TD*%
D23*
%TO.C,R4*%
X51036000Y-46289500D03*
X51036000Y-48114500D03*
%TD*%
D22*
%TO.C,D5*%
X41712587Y-98570814D03*
X43297413Y-99485814D03*
X43847413Y-98533186D03*
X42262587Y-97618186D03*
%TD*%
D24*
%TO.C,R1*%
X25598500Y-44156000D03*
X23773500Y-44156000D03*
%TD*%
D19*
%TO.C,SW6*%
X133682000Y-69689000D03*
X122682000Y-69689000D03*
D20*
X133402000Y-65489000D03*
D18*
X128182000Y-69689000D03*
D21*
X128182000Y-75589000D03*
X123182000Y-73489000D03*
%TD*%
D25*
%TO.C,C29*%
X101551500Y-50235000D03*
X103276500Y-50235000D03*
%TD*%
%TO.C,C30*%
X123395500Y-60141000D03*
X125120500Y-60141000D03*
%TD*%
D26*
%TO.C,C22*%
X47336000Y-47046500D03*
X47336000Y-49121500D03*
%TD*%
D25*
%TO.C,C28*%
X78845000Y-42361000D03*
X80570000Y-42361000D03*
%TD*%
D19*
%TO.C,SW2*%
X35730860Y-99866000D03*
X45257140Y-105366000D03*
D20*
X47114653Y-101588693D03*
D18*
X40494000Y-102616000D03*
D21*
X37544000Y-107725550D03*
X34263873Y-103406897D03*
%TD*%
D13*
%TO.C,MNT3*%
X127697056Y-104697056D03*
X123600000Y-103000000D03*
X124302944Y-104697056D03*
X124302944Y-101302944D03*
X126000000Y-105400000D03*
X126000000Y-100600000D03*
X128400000Y-103000000D03*
D12*
X126000000Y-103000000D03*
D13*
X127697056Y-101302944D03*
%TD*%
D25*
%TO.C,C27*%
X54307500Y-51251000D03*
X56032500Y-51251000D03*
%TD*%
D19*
%TO.C,SW7*%
X100682000Y-59689000D03*
D18*
X106182000Y-59689000D03*
D19*
X111682000Y-59689000D03*
D20*
X111402000Y-55489000D03*
D21*
X106182000Y-65589000D03*
X101182000Y-63489000D03*
%TD*%
D17*
%TO.C,R2*%
X23337500Y-46250000D03*
X25162500Y-46250000D03*
%TD*%
D22*
%TO.C,D6*%
X32009174Y-83095628D03*
X33594000Y-84010628D03*
X34144000Y-83058000D03*
X32559174Y-82143000D03*
%TD*%
D27*
%TO.C,C4*%
X16872000Y-92556500D03*
X16872000Y-90831500D03*
%TD*%
D19*
%TO.C,SW3*%
X26078860Y-84626000D03*
X35605140Y-90126000D03*
D18*
X30842000Y-87376000D03*
D20*
X37462653Y-86348693D03*
D21*
X27892000Y-92485550D03*
X24611873Y-88166897D03*
%TD*%
D13*
%TO.C,MNT2*%
X96400000Y-103000000D03*
X94000000Y-105400000D03*
X92302944Y-104697056D03*
X92302944Y-101302944D03*
X94000000Y-100600000D03*
X91600000Y-103000000D03*
D12*
X94000000Y-103000000D03*
D13*
X95697056Y-101302944D03*
X95697056Y-104697056D03*
%TD*%
D28*
%TO.C,J1*%
X46622000Y-43982000D03*
X46122000Y-43982000D03*
X45622000Y-43982000D03*
X45122000Y-43982000D03*
X44622000Y-43982000D03*
X44122000Y-43982000D03*
X43622000Y-43982000D03*
X43122000Y-43982000D03*
X42622000Y-43982000D03*
X42122000Y-43982000D03*
X41622000Y-43982000D03*
X41122000Y-43982000D03*
D29*
X41072000Y-42732000D03*
X41472000Y-42022000D03*
X42272000Y-42022000D03*
X42672000Y-42732000D03*
X43072000Y-42022000D03*
X43472000Y-42732000D03*
X44272000Y-42732000D03*
X44672000Y-42022000D03*
X45072000Y-42732000D03*
X45472000Y-42022000D03*
X46272000Y-42022000D03*
X46672000Y-42732000D03*
D30*
X41872000Y-42732000D03*
X45872000Y-42732000D03*
D31*
X48142000Y-41582000D03*
X39602000Y-41582000D03*
X48142000Y-36852000D03*
X39602000Y-36852000D03*
D32*
X43872000Y-39402000D03*
X43872000Y-36302000D03*
%TD*%
D18*
%TO.C,SW4*%
X59182000Y-60689000D03*
D20*
X64402000Y-56489000D03*
D19*
X53682000Y-60689000D03*
X64682000Y-60689000D03*
D21*
X59182000Y-66589000D03*
X54182000Y-64489000D03*
%TD*%
D16*
%TO.C,D10*%
X127307000Y-65480500D03*
X129137000Y-65480500D03*
X129137000Y-64380500D03*
X127307000Y-64380500D03*
%TD*%
D33*
%TO.C,C26*%
X24492000Y-77470000D03*
X24492000Y-79195000D03*
%TD*%
D25*
%TO.C,C25*%
X41663500Y-92456000D03*
X43388500Y-92456000D03*
%TD*%
D34*
%TO.C,J2*%
X24253000Y-67770000D03*
X25353000Y-74270000D03*
X17253000Y-67770000D03*
X20253000Y-67770000D03*
D35*
X15653000Y-71020000D03*
X22653000Y-71020000D03*
%TD*%
D16*
%TO.C,D9*%
X105336000Y-55447500D03*
X107166000Y-55447500D03*
X107166000Y-54347500D03*
X105336000Y-54347500D03*
%TD*%
M02*
