M48
; DRILL file {KiCad (5.99.0-9634-gb691c18bfc)} date Sun Mar  7 16:09:02 2021
; FORMAT={-:-/ absolute / inch / decimal}
; #@! TF.CreationDate,2021-03-07T16:09:02+01:00
; #@! TF.GenerationSoftware,Kicad,Pcbnew,(5.99.0-9634-gb691c18bfc)
; #@! TF.FileFunction,Plated,1,2,PTH
FMAT,2
INCH
T1C0.0157
T2C0.0197
T3C0.0315
T4C0.0394
T5C0.0500
T6C0.0787
%
G90
G05
T1
X1.7298Y-0.8961
X1.7455Y-0.8685
X1.777Y-0.8685
X1.7928Y-0.8961
X1.8085Y-0.8685
X1.8243Y-0.8961
X1.8557Y-0.8961
X1.8715Y-0.8685
X1.8872Y-0.8961
X1.903Y-0.8685
X1.9345Y-0.8685
X1.9502Y-0.8961
T3
X2.27Y-1.46
X2.27Y-1.56
X2.57Y-1.46
X2.57Y-1.56
T4
X0.5669Y-1.463
X0.5669Y-1.563
X0.5669Y-1.663
X0.5669Y-1.763
T5
X0.659Y-4.0211
X0.7881Y-4.1912
X0.969Y-3.4711
X1.0981Y-3.6412
X1.349Y-4.0711
X1.4781Y-4.2412
X2.1331Y-2.5389
X2.33Y-2.6216
X3.1174Y-2.1846
X3.3143Y-2.2673
X3.9835Y-2.4996
X4.1804Y-2.5822
X4.8497Y-2.8933
X5.0465Y-2.9759
T6
X2.3527Y-0.9
X5.1873Y-0.9
T2
G00X1.6632Y-0.65
M15
G01X1.6632Y-0.6264
M16
G05
G00X1.6774Y-0.8843
M15
G01X1.6774Y-0.8606
M16
G05
G00X2.0026Y-0.8843
M15
G01X2.0026Y-0.8606
M16
G05
G00X2.0168Y-0.65
M15
G01X2.0168Y-0.6264
M16
G05
T0
M30
