M48
; DRILL file {KiCad (5.99.0-9634-gb691c18bfc)} date Tue Mar  9 21:57:48 2021
; FORMAT={-:-/ absolute / inch / decimal}
; #@! TF.CreationDate,2021-03-09T21:57:48+01:00
; #@! TF.GenerationSoftware,Kicad,Pcbnew,(5.99.0-9634-gb691c18bfc)
; #@! TF.FileFunction,NonPlated,1,2,NPTH
FMAT,2
INCH
T1C0.0390
T2C0.0670
T3C0.1260
T4C0.1350
%
G90
G05
T1
X0.9929Y-2.5512
X1.7803Y-2.1575
X2.6071Y-1.8696
X3.3964Y-2.2362
X4.3533Y-3.7871
X4.7244Y-3.1731
X5.0388Y-3.7285
T2
X0.5709Y-2.7165
X1.0039Y-2.7165
X1.3583Y-2.3228
X1.7913Y-2.3228
X2.185Y-2.035
X2.6181Y-2.035
X2.9743Y-2.4016
X3.4074Y-2.4016
X4.0704Y-4.1413
X4.4416Y-3.5273
X4.4455Y-3.9248
X4.756Y-4.0828
X4.8167Y-3.3108
X5.1311Y-3.8662
T3
X0.9585Y-0.8898
X3.1478Y-0.8898
T4
X0.7874Y-2.7165
X1.5748Y-2.3228
X2.4016Y-2.035
X3.1909Y-2.4016
X4.258Y-4.0331
X4.6291Y-3.419
X4.9435Y-3.9745
T0
M30
