%TF.GenerationSoftware,KiCad,Pcbnew,(5.99.0-9739-g6a369b230f)*%
%TF.CreationDate,2021-03-13T21:37:55+01:00*%
%TF.ProjectId,keychordz,6b657963-686f-4726-947a-2e6b69636164,rev?*%
%TF.SameCoordinates,Original*%
%TF.FileFunction,Copper,L1,Top*%
%TF.FilePolarity,Positive*%
%FSLAX46Y46*%
G04 Gerber Fmt 4.6, Leading zero omitted, Abs format (unit mm)*
G04 Created by KiCad (PCBNEW (5.99.0-9739-g6a369b230f)) date 2021-03-13 21:37:55*
%MOMM*%
%LPD*%
G01*
G04 APERTURE LIST*
G04 Aperture macros list*
%AMRoundRect*
0 Rectangle with rounded corners*
0 $1 Rounding radius*
0 $2 $3 $4 $5 $6 $7 $8 $9 X,Y pos of 4 corners*
0 Add a 4 corners polygon primitive as box body*
4,1,4,$2,$3,$4,$5,$6,$7,$8,$9,$2,$3,0*
0 Add four circle primitives for the rounded corners*
1,1,$1+$1,$2,$3*
1,1,$1+$1,$4,$5*
1,1,$1+$1,$6,$7*
1,1,$1+$1,$8,$9*
0 Add four rect primitives between the rounded corners*
20,1,$1+$1,$2,$3,$4,$5,0*
20,1,$1+$1,$4,$5,$6,$7,0*
20,1,$1+$1,$6,$7,$8,$9,0*
20,1,$1+$1,$8,$9,$2,$3,0*%
%AMRotRect*
0 Rectangle, with rotation*
0 The origin of the aperture is its center*
0 $1 length*
0 $2 width*
0 $3 Rotation angle, in degrees counterclockwise*
0 Add horizontal line*
21,1,$1,$2,0,0,$3*%
G04 Aperture macros list end*
%TA.AperFunction,ComponentPad*%
%ADD10C,0.800000*%
%TD*%
%TA.AperFunction,ComponentPad*%
%ADD11C,6.400000*%
%TD*%
%TA.AperFunction,SMDPad,CuDef*%
%ADD12R,1.750000X1.800000*%
%TD*%
%TA.AperFunction,SMDPad,CuDef*%
%ADD13RoundRect,0.237500X-0.237500X0.300000X-0.237500X-0.300000X0.237500X-0.300000X0.237500X0.300000X0*%
%TD*%
%TA.AperFunction,SMDPad,CuDef*%
%ADD14RoundRect,0.237500X-0.300000X-0.237500X0.300000X-0.237500X0.300000X0.237500X-0.300000X0.237500X0*%
%TD*%
%TA.AperFunction,SMDPad,CuDef*%
%ADD15R,1.800000X0.800000*%
%TD*%
%TA.AperFunction,SMDPad,CuDef*%
%ADD16RoundRect,0.237500X0.237500X-0.250000X0.237500X0.250000X-0.237500X0.250000X-0.237500X-0.250000X0*%
%TD*%
%TA.AperFunction,SMDPad,CuDef*%
%ADD17RoundRect,0.237500X-0.250000X-0.237500X0.250000X-0.237500X0.250000X0.237500X-0.250000X0.237500X0*%
%TD*%
%TA.AperFunction,SMDPad,CuDef*%
%ADD18RoundRect,0.155000X0.212500X0.155000X-0.212500X0.155000X-0.212500X-0.155000X0.212500X-0.155000X0*%
%TD*%
%TA.AperFunction,SMDPad,CuDef*%
%ADD19RoundRect,0.155000X-0.212500X-0.155000X0.212500X-0.155000X0.212500X0.155000X-0.212500X0.155000X0*%
%TD*%
%TA.AperFunction,SMDPad,CuDef*%
%ADD20R,0.700000X0.700000*%
%TD*%
%TA.AperFunction,ComponentPad*%
%ADD21O,1.600000X1.600000*%
%TD*%
%TA.AperFunction,ComponentPad*%
%ADD22R,1.600000X1.600000*%
%TD*%
%TA.AperFunction,SMDPad,CuDef*%
%ADD23RoundRect,0.237500X-0.287500X-0.237500X0.287500X-0.237500X0.287500X0.237500X-0.287500X0.237500X0*%
%TD*%
%TA.AperFunction,SMDPad,CuDef*%
%ADD24RoundRect,0.100000X-0.100000X0.217500X-0.100000X-0.217500X0.100000X-0.217500X0.100000X0.217500X0*%
%TD*%
%TA.AperFunction,ComponentPad*%
%ADD25C,2.032000*%
%TD*%
%TA.AperFunction,SMDPad,CuDef*%
%ADD26RotRect,0.700000X0.700000X30.000000*%
%TD*%
%TA.AperFunction,ConnectorPad*%
%ADD27R,0.500000X0.500000*%
%TD*%
%TA.AperFunction,ComponentPad*%
%ADD28R,0.500000X0.900000*%
%TD*%
%TA.AperFunction,SMDPad,CuDef*%
%ADD29RoundRect,0.237500X0.300000X0.237500X-0.300000X0.237500X-0.300000X-0.237500X0.300000X-0.237500X0*%
%TD*%
%TA.AperFunction,SMDPad,CuDef*%
%ADD30RoundRect,0.237500X-0.237500X0.250000X-0.237500X-0.250000X0.237500X-0.250000X0.237500X0.250000X0*%
%TD*%
%TA.AperFunction,SMDPad,CuDef*%
%ADD31RoundRect,0.237500X0.250000X0.237500X-0.250000X0.237500X-0.250000X-0.237500X0.250000X-0.237500X0*%
%TD*%
%TA.AperFunction,SMDPad,CuDef*%
%ADD32RoundRect,0.160000X-0.197500X-0.160000X0.197500X-0.160000X0.197500X0.160000X-0.197500X0.160000X0*%
%TD*%
%TA.AperFunction,SMDPad,CuDef*%
%ADD33RoundRect,0.250000X-0.475000X0.337500X-0.475000X-0.337500X0.475000X-0.337500X0.475000X0.337500X0*%
%TD*%
%TA.AperFunction,SMDPad,CuDef*%
%ADD34RoundRect,0.160000X0.197500X0.160000X-0.197500X0.160000X-0.197500X-0.160000X0.197500X-0.160000X0*%
%TD*%
%TA.AperFunction,SMDPad,CuDef*%
%ADD35R,1.200000X0.800000*%
%TD*%
%TA.AperFunction,ComponentPad*%
%ADD36R,1.700000X1.700000*%
%TD*%
%TA.AperFunction,ComponentPad*%
%ADD37O,1.700000X1.700000*%
%TD*%
%TA.AperFunction,SMDPad,CuDef*%
%ADD38R,1.400000X0.300000*%
%TD*%
%TA.AperFunction,SMDPad,CuDef*%
%ADD39RoundRect,0.150000X-0.512500X-0.150000X0.512500X-0.150000X0.512500X0.150000X-0.512500X0.150000X0*%
%TD*%
%TA.AperFunction,SMDPad,CuDef*%
%ADD40RoundRect,0.237500X0.237500X-0.300000X0.237500X0.300000X-0.237500X0.300000X-0.237500X-0.300000X0*%
%TD*%
%TA.AperFunction,SMDPad,CuDef*%
%ADD41RoundRect,0.160000X0.222500X0.160000X-0.222500X0.160000X-0.222500X-0.160000X0.222500X-0.160000X0*%
%TD*%
%TA.AperFunction,SMDPad,CuDef*%
%ADD42RoundRect,0.155000X-0.155000X0.212500X-0.155000X-0.212500X0.155000X-0.212500X0.155000X0.212500X0*%
%TD*%
%TA.AperFunction,ComponentPad*%
%ADD43R,3.500000X3.500000*%
%TD*%
%TA.AperFunction,ComponentPad*%
%ADD44C,3.500000*%
%TD*%
%TA.AperFunction,SMDPad,CuDef*%
%ADD45R,1.200000X0.600000*%
%TD*%
%TA.AperFunction,SMDPad,CuDef*%
%ADD46R,0.300000X1.200000*%
%TD*%
%TA.AperFunction,ComponentPad*%
%ADD47C,0.650000*%
%TD*%
%TA.AperFunction,ComponentPad*%
%ADD48C,0.550000*%
%TD*%
%TA.AperFunction,ComponentPad*%
%ADD49C,2.010000*%
%TD*%
%TA.AperFunction,SMDPad,CuDef*%
%ADD50R,0.200000X1.000000*%
%TD*%
%TA.AperFunction,SMDPad,CuDef*%
%ADD51RoundRect,0.155000X0.155000X-0.212500X0.155000X0.212500X-0.155000X0.212500X-0.155000X-0.212500X0*%
%TD*%
%TA.AperFunction,SMDPad,CuDef*%
%ADD52R,0.950000X0.200000*%
%TD*%
%TA.AperFunction,SMDPad,CuDef*%
%ADD53R,0.200000X0.950000*%
%TD*%
%TA.AperFunction,SMDPad,CuDef*%
%ADD54R,6.500000X6.500000*%
%TD*%
%TA.AperFunction,ViaPad*%
%ADD55C,0.685800*%
%TD*%
%TA.AperFunction,ViaPad*%
%ADD56C,0.889000*%
%TD*%
%TA.AperFunction,Conductor*%
%ADD57C,0.254000*%
%TD*%
%TA.AperFunction,Conductor*%
%ADD58C,0.127000*%
%TD*%
%TA.AperFunction,Conductor*%
%ADD59C,0.508000*%
%TD*%
%TA.AperFunction,Conductor*%
%ADD60C,0.762000*%
%TD*%
G04 APERTURE END LIST*
%TO.C,AE1*%
G36*
X134945000Y-52940000D02*
G01*
X132305000Y-52940000D01*
X132305000Y-54940000D01*
X134945000Y-54940000D01*
X134945000Y-57640000D01*
X132305000Y-57640000D01*
X132305000Y-59640000D01*
X134945000Y-59640000D01*
X134945000Y-62340000D01*
X130505000Y-62340000D01*
X130505000Y-61840000D01*
X134445000Y-61840000D01*
X134445000Y-60140000D01*
X131805000Y-60140000D01*
X131805000Y-57140000D01*
X134445000Y-57140000D01*
X134445000Y-55440000D01*
X131805000Y-55440000D01*
X131805000Y-52440000D01*
X134445000Y-52440000D01*
X134445000Y-50740000D01*
X129545000Y-50740000D01*
X129545000Y-50240000D01*
X134445000Y-50240000D01*
X134445000Y-48840000D01*
X129545000Y-48840000D01*
X129545000Y-48364844D01*
X129648957Y-48364844D01*
X129649700Y-48413363D01*
X129662600Y-48458878D01*
X129673213Y-48477489D01*
X129708447Y-48511132D01*
X129753632Y-48531691D01*
X129803158Y-48538222D01*
X129851417Y-48529782D01*
X129883643Y-48512888D01*
X129916313Y-48477628D01*
X129936408Y-48432318D01*
X129942982Y-48382733D01*
X129935092Y-48334647D01*
X129918186Y-48301755D01*
X129881416Y-48266815D01*
X129836622Y-48247153D01*
X129788215Y-48242417D01*
X129740605Y-48252258D01*
X129698203Y-48276326D01*
X129665419Y-48314269D01*
X129661065Y-48322181D01*
X129648957Y-48364844D01*
X129545000Y-48364844D01*
X129545000Y-47940000D01*
X134945000Y-47940000D01*
X134945000Y-52940000D01*
G37*
%TD*%
D10*
%TO.P,MNT2,1*%
%TO.N,N/C*%
X56400000Y-103000000D03*
X54000000Y-105400000D03*
X52302944Y-104697056D03*
X52302944Y-101302944D03*
X54000000Y-100600000D03*
X51600000Y-103000000D03*
D11*
X54000000Y-103000000D03*
D10*
X55697056Y-101302944D03*
X55697056Y-104697056D03*
%TD*%
%TO.P,MNT3,1*%
%TO.N,N/C*%
X87697056Y-104697056D03*
X83600000Y-103000000D03*
X84302944Y-104697056D03*
X84302944Y-101302944D03*
X86000000Y-105400000D03*
X86000000Y-100600000D03*
X88400000Y-103000000D03*
D11*
X86000000Y-103000000D03*
D10*
X87697056Y-101302944D03*
%TD*%
D11*
%TO.P,MNT1,1*%
%TO.N,N/C*%
X22000000Y-103000000D03*
D10*
X19600000Y-103000000D03*
X20302944Y-104697056D03*
X22000000Y-105400000D03*
X24400000Y-103000000D03*
X20302944Y-101302944D03*
X23697056Y-104697056D03*
X23697056Y-101302944D03*
X22000000Y-100600000D03*
%TD*%
D12*
%TO.P,Y2,2,2*%
%TO.N,Net-(IC3-Pad3)*%
X115925000Y-41400000D03*
%TO.P,Y2,1,1*%
%TO.N,Net-(IC3-Pad4)*%
X112675000Y-41400000D03*
%TD*%
D13*
%TO.P,C18,2*%
%TO.N,Net-(IC3-Pad4)*%
X110700000Y-44062500D03*
%TO.P,C18,1*%
%TO.N,GND*%
X110700000Y-42337500D03*
%TD*%
D14*
%TO.P,C15,2*%
%TO.N,Net-(IC3-Pad3)*%
X114562500Y-39200000D03*
%TO.P,C15,1*%
%TO.N,GND*%
X112837500Y-39200000D03*
%TD*%
D15*
%TO.P,Q1,3,D*%
%TO.N,Net-(Q1-Pad3)*%
X134340000Y-34100000D03*
%TO.P,Q1,2,S*%
%TO.N,V_BAT*%
X131040000Y-35050000D03*
%TO.P,Q1,1,G*%
%TO.N,Net-(C14-Pad1)*%
X131040000Y-33150000D03*
%TD*%
D16*
%TO.P,R10,2*%
%TO.N,Net-(C14-Pad1)*%
X128930000Y-33217500D03*
%TO.P,R10,1*%
%TO.N,V_BAT*%
X128930000Y-35042500D03*
%TD*%
D17*
%TO.P,R9,2*%
%TO.N,V_BAT{slash}2*%
X132252500Y-38680000D03*
%TO.P,R9,1*%
%TO.N,GND*%
X130427500Y-38680000D03*
%TD*%
D16*
%TO.P,R8,2*%
%TO.N,Net-(Q1-Pad3)*%
X134370000Y-36947500D03*
%TO.P,R8,1*%
%TO.N,V_BAT{slash}2*%
X134370000Y-38772500D03*
%TD*%
D18*
%TO.P,C14,2*%
%TO.N,V_BAT_Toggle*%
X129142500Y-31710000D03*
%TO.P,C14,1*%
%TO.N,Net-(C14-Pad1)*%
X130277500Y-31710000D03*
%TD*%
D17*
%TO.P,R3,1*%
%TO.N,Net-(J1-PadA5)*%
X100265500Y-29620000D03*
%TO.P,R3,2*%
%TO.N,GND*%
X102090500Y-29620000D03*
%TD*%
D19*
%TO.P,C2,1*%
%TO.N,2.4V*%
X127512500Y-42640000D03*
%TO.P,C2,2*%
%TO.N,GND*%
X128647500Y-42640000D03*
%TD*%
%TO.P,C13,1*%
%TO.N,2.4V*%
X127292500Y-48110000D03*
%TO.P,C13,2*%
%TO.N,GND*%
X128427500Y-48110000D03*
%TD*%
D20*
%TO.P,D8,1,VDD*%
%TO.N,V_BAT*%
X60003000Y-47525000D03*
%TO.P,D8,2,DOUT*%
%TO.N,Net-(D7-Pad4)*%
X61833000Y-47525000D03*
%TO.P,D8,3,VSS*%
%TO.N,GND*%
X61833000Y-46425000D03*
%TO.P,D8,4,DIN*%
%TO.N,Net-(D8-Pad4)*%
X60003000Y-46425000D03*
%TD*%
D19*
%TO.P,C8,1*%
%TO.N,2.4V*%
X122652500Y-37000000D03*
%TO.P,C8,2*%
%TO.N,GND*%
X123787500Y-37000000D03*
%TD*%
D21*
%TO.P,SW9,1,A*%
%TO.N,V_BAT*%
X21820000Y-36750000D03*
D22*
%TO.P,SW9,2,B*%
%TO.N,V_BAT_SW*%
X14200000Y-36750000D03*
D21*
%TO.P,SW9,3*%
%TO.N,N/C*%
X21820000Y-39290000D03*
%TO.P,SW9,4*%
X14200000Y-39290000D03*
%TD*%
D23*
%TO.P,D1,1,K*%
%TO.N,Net-(D1-Pad1)*%
X129247000Y-19084000D03*
%TO.P,D1,2,A*%
%TO.N,GND*%
X130997000Y-19084000D03*
%TD*%
%TO.P,D3,1,K*%
%TO.N,Net-(D3-Pad1)*%
X123913000Y-14766000D03*
%TO.P,D3,2,A*%
%TO.N,GND*%
X125663000Y-14766000D03*
%TD*%
D24*
%TO.P,C12,1*%
%TO.N,Net-(C12-Pad1)*%
X127220000Y-51752500D03*
%TO.P,C12,2*%
%TO.N,GND*%
X127220000Y-52567500D03*
%TD*%
D25*
%TO.P,SW1,1,1*%
%TO.N,BTN1*%
X128516000Y-106061550D03*
%TO.P,SW1,2,2*%
%TO.N,GND*%
X123135873Y-106742897D03*
%TD*%
D26*
%TO.P,D4,1,VDD*%
%TO.N,V_BAT*%
X122622587Y-97815814D03*
%TO.P,D4,2,DOUT*%
%TO.N,LED_IN*%
X124207413Y-96900814D03*
%TO.P,D4,3,VSS*%
%TO.N,GND*%
X123657413Y-95948186D03*
%TO.P,D4,4,DIN*%
%TO.N,Net-(D4-Pad4)*%
X122072587Y-96863186D03*
%TD*%
D27*
%TO.P,AE1,1,A*%
%TO.N,Net-(AE1-Pad1)*%
X129795000Y-50490000D03*
D28*
%TO.P,AE1,2*%
%TO.N,N/C*%
X129795000Y-48390000D03*
%TD*%
D19*
%TO.P,C9,1*%
%TO.N,2.4V*%
X125352500Y-49540000D03*
%TO.P,C9,2*%
%TO.N,GND*%
X126487500Y-49540000D03*
%TD*%
D25*
%TO.P,SW5,1,1*%
%TO.N,BTN5*%
X61000000Y-57589000D03*
%TO.P,SW5,2,2*%
%TO.N,GND*%
X56000000Y-55489000D03*
%TD*%
D29*
%TO.P,C11,1*%
%TO.N,Net-(C11-Pad1)*%
X132015000Y-41440000D03*
%TO.P,C11,2*%
%TO.N,GND*%
X130290000Y-41440000D03*
%TD*%
D30*
%TO.P,R4,1*%
%TO.N,Net-(J1-PadB5)*%
X107164000Y-24777500D03*
%TO.P,R4,2*%
%TO.N,GND*%
X107164000Y-26602500D03*
%TD*%
D26*
%TO.P,D5,1,VDD*%
%TO.N,V_BAT*%
X105282587Y-99233814D03*
%TO.P,D5,2,DOUT*%
%TO.N,Net-(D4-Pad4)*%
X106867413Y-98318814D03*
%TO.P,D5,3,VSS*%
%TO.N,GND*%
X106317413Y-97366186D03*
%TO.P,D5,4,DIN*%
%TO.N,Net-(D5-Pad4)*%
X104732587Y-98281186D03*
%TD*%
D31*
%TO.P,R7,1*%
%TO.N,Net-(D3-Pad1)*%
X121279000Y-16290000D03*
%TO.P,R7,2*%
%TO.N,Net-(IC1-Pad7)*%
X119454000Y-16290000D03*
%TD*%
D32*
%TO.P,R6,1*%
%TO.N,GND*%
X113522500Y-18830000D03*
%TO.P,R6,2*%
%TO.N,Net-(IC1-Pad6)*%
X114717500Y-18830000D03*
%TD*%
D25*
%TO.P,SW6,1,1*%
%TO.N,BTN6*%
X20000000Y-74900000D03*
%TO.P,SW6,2,2*%
%TO.N,GND*%
X15000000Y-72800000D03*
%TD*%
D14*
%TO.P,C29,1*%
%TO.N,V_BAT*%
X35369500Y-49546000D03*
%TO.P,C29,2*%
%TO.N,GND*%
X37094500Y-49546000D03*
%TD*%
%TO.P,C30,1*%
%TO.N,V_BAT*%
X15213500Y-59452000D03*
%TO.P,C30,2*%
%TO.N,GND*%
X16938500Y-59452000D03*
%TD*%
D19*
%TO.P,C6,1*%
%TO.N,2.4V*%
X122662500Y-35990000D03*
%TO.P,C6,2*%
%TO.N,GND*%
X123797500Y-35990000D03*
%TD*%
D33*
%TO.P,C22,1*%
%TO.N,+5V*%
X103464000Y-25534500D03*
%TO.P,C22,2*%
%TO.N,GND*%
X103464000Y-27609500D03*
%TD*%
D34*
%TO.P,R5,1*%
%TO.N,Net-(IC1-Pad8)*%
X114717500Y-20100000D03*
%TO.P,R5,2*%
%TO.N,GND*%
X113522500Y-20100000D03*
%TD*%
D14*
%TO.P,C10,1*%
%TO.N,Net-(C10-Pad1)*%
X130370000Y-46280000D03*
%TO.P,C10,2*%
%TO.N,GND*%
X132095000Y-46280000D03*
%TD*%
D35*
%TO.P,Y1,1,1*%
%TO.N,Net-(C11-Pad1)*%
X131972500Y-43320000D03*
%TO.P,Y1,2,2*%
%TO.N,GND*%
X130372500Y-43320000D03*
%TO.P,Y1,3,3*%
%TO.N,Net-(C10-Pad1)*%
X130372500Y-44420000D03*
%TO.P,Y1,4,4*%
%TO.N,GND*%
X131972500Y-44420000D03*
%TD*%
D31*
%TO.P,R1,1*%
%TO.N,Net-(D1-Pad1)*%
X125954500Y-20100000D03*
%TO.P,R1,2*%
%TO.N,Net-(IC1-Pad3)*%
X124129500Y-20100000D03*
%TD*%
D14*
%TO.P,C28,1*%
%TO.N,V_BAT*%
X55663000Y-42361000D03*
%TO.P,C28,2*%
%TO.N,GND*%
X57388000Y-42361000D03*
%TD*%
D19*
%TO.P,C7,1*%
%TO.N,2.4V*%
X122362500Y-50870000D03*
%TO.P,C7,2*%
%TO.N,GND*%
X123497500Y-50870000D03*
%TD*%
D25*
%TO.P,SW2,1,1*%
%TO.N,BTN2*%
X111102000Y-107549550D03*
%TO.P,SW2,2,2*%
%TO.N,GND*%
X105721873Y-108230897D03*
%TD*%
D36*
%TO.P,J2,1,Pin_1*%
%TO.N,SWO*%
X108100000Y-42900000D03*
D37*
%TO.P,J2,2,Pin_2*%
%TO.N,SWCLK*%
X108100000Y-40360000D03*
%TO.P,J2,3,Pin_3*%
%TO.N,SWDIO*%
X108100000Y-37820000D03*
%TO.P,J2,4,Pin_4*%
%TO.N,GND*%
X108100000Y-35280000D03*
%TD*%
D38*
%TO.P,IC1,1,VDD_1*%
%TO.N,+5V*%
X121300000Y-21200000D03*
%TO.P,IC1,2,VDD_2*%
X121300000Y-20700000D03*
%TO.P,IC1,3,STAT1*%
%TO.N,Net-(IC1-Pad3)*%
X121300000Y-20200000D03*
%TO.P,IC1,4,STAT2*%
%TO.N,Net-(IC1-Pad4)*%
X121300000Y-19700000D03*
%TO.P,IC1,5,VSS*%
%TO.N,GND*%
X121300000Y-19200000D03*
%TO.P,IC1,6,PROG*%
%TO.N,Net-(IC1-Pad6)*%
X116900000Y-19200000D03*
%TO.P,IC1,7,~PG~/~TE*%
%TO.N,Net-(IC1-Pad7)*%
X116900000Y-19700000D03*
%TO.P,IC1,8,THERM*%
%TO.N,Net-(IC1-Pad8)*%
X116900000Y-20200000D03*
%TO.P,IC1,9,VBAT_1*%
%TO.N,V_BAT_SW*%
X116900000Y-20700000D03*
%TO.P,IC1,10,VBAT_2*%
X116900000Y-21200000D03*
%TD*%
D14*
%TO.P,C27,1*%
%TO.N,V_BAT*%
X76173500Y-51562000D03*
%TO.P,C27,2*%
%TO.N,GND*%
X77898500Y-51562000D03*
%TD*%
D25*
%TO.P,SW7,1,1*%
%TO.N,BTN7*%
X40000000Y-64900000D03*
%TO.P,SW7,2,2*%
%TO.N,GND*%
X35000000Y-62800000D03*
%TD*%
D26*
%TO.P,D6,1,VDD*%
%TO.N,V_BAT*%
X114562587Y-83577314D03*
%TO.P,D6,2,DOUT*%
%TO.N,Net-(D5-Pad4)*%
X116147413Y-82662314D03*
%TO.P,D6,3,VSS*%
%TO.N,GND*%
X115597413Y-81709686D03*
%TO.P,D6,4,DIN*%
%TO.N,Net-(D6-Pad4)*%
X114012587Y-82624686D03*
%TD*%
D39*
%TO.P,U1,1,VIN*%
%TO.N,+5V*%
X129782500Y-26770000D03*
%TO.P,U1,2,GND*%
%TO.N,GND*%
X129782500Y-27720000D03*
%TO.P,U1,3,EN*%
%TO.N,+5V*%
X129782500Y-28670000D03*
%TO.P,U1,4,NC*%
%TO.N,unconnected-(U1-Pad4)*%
X132057500Y-28670000D03*
%TO.P,U1,5,VOUT*%
%TO.N,3.3V_USB*%
X132057500Y-26770000D03*
%TD*%
D23*
%TO.P,D2,1,K*%
%TO.N,Net-(D2-Pad1)*%
X128993000Y-22132000D03*
%TO.P,D2,2,A*%
%TO.N,GND*%
X130743000Y-22132000D03*
%TD*%
D40*
%TO.P,C4,1*%
%TO.N,V_BAT*%
X131500000Y-92262500D03*
%TO.P,C4,2*%
%TO.N,GND*%
X131500000Y-90537500D03*
%TD*%
D25*
%TO.P,SW3,1,1*%
%TO.N,BTN3*%
X120530000Y-91953050D03*
%TO.P,SW3,2,2*%
%TO.N,GND*%
X115149873Y-92634397D03*
%TD*%
D41*
%TO.P,L1,1*%
%TO.N,Net-(AE1-Pad1)*%
X128362500Y-50510000D03*
%TO.P,L1,2*%
%TO.N,Net-(C12-Pad1)*%
X127217500Y-50510000D03*
%TD*%
D42*
%TO.P,C23,1*%
%TO.N,V_BAT_SW*%
X114120000Y-21564500D03*
%TO.P,C23,2*%
%TO.N,GND*%
X114120000Y-22699500D03*
%TD*%
D43*
%TO.P,BT1,1,+*%
%TO.N,V_BAT_SW*%
X15700000Y-22600000D03*
D44*
%TO.P,BT1,2,-*%
%TO.N,GND*%
X87700000Y-22600000D03*
%TD*%
D45*
%TO.P,IC2,1,IN*%
%TO.N,V_BAT*%
X124350000Y-34570000D03*
%TO.P,IC2,2,GND*%
%TO.N,GND*%
X124350000Y-33620000D03*
%TO.P,IC2,3,EN*%
%TO.N,V_BAT*%
X124350000Y-32670000D03*
%TO.P,IC2,4,N/C*%
%TO.N,unconnected-(IC2-Pad4)*%
X121850000Y-32670000D03*
%TO.P,IC2,5,OUT*%
%TO.N,2.4V*%
X121850000Y-34570000D03*
%TD*%
D31*
%TO.P,R2,1*%
%TO.N,Net-(D2-Pad1)*%
X125192500Y-21972000D03*
%TO.P,R2,2*%
%TO.N,Net-(IC1-Pad4)*%
X123367500Y-21972000D03*
%TD*%
D46*
%TO.P,J1,A1,GND*%
%TO.N,GND*%
X102750000Y-23380000D03*
%TO.P,J1,A2*%
%TO.N,N/C*%
X102250000Y-23380000D03*
%TO.P,J1,A3*%
X101750000Y-23380000D03*
%TO.P,J1,A4,VBUS*%
%TO.N,+5V*%
X101250000Y-23380000D03*
%TO.P,J1,A5,CC1*%
%TO.N,Net-(J1-PadA5)*%
X100750000Y-23380000D03*
%TO.P,J1,A6,D+*%
%TO.N,USB_D+*%
X100250000Y-23380000D03*
%TO.P,J1,A7,D-*%
%TO.N,USB_D-*%
X99750000Y-23380000D03*
%TO.P,J1,A8,SBU1*%
%TO.N,unconnected-(J1-PadA8)*%
X99250000Y-23380000D03*
%TO.P,J1,A9*%
%TO.N,N/C*%
X98750000Y-23380000D03*
%TO.P,J1,A10*%
X98250000Y-23380000D03*
%TO.P,J1,A11*%
X97750000Y-23380000D03*
%TO.P,J1,A12*%
X97250000Y-23380000D03*
D47*
%TO.P,J1,B1*%
X97200000Y-22130000D03*
%TO.P,J1,B2*%
X97600000Y-21420000D03*
%TO.P,J1,B3*%
X98400000Y-21420000D03*
%TO.P,J1,B4*%
X98800000Y-22130000D03*
%TO.P,J1,B5,CC2*%
%TO.N,Net-(J1-PadB5)*%
X99200000Y-21420000D03*
%TO.P,J1,B6,D+*%
%TO.N,USB_D+*%
X99600000Y-22130000D03*
%TO.P,J1,B7,D-*%
%TO.N,USB_D-*%
X100400000Y-22130000D03*
%TO.P,J1,B8,SBU2*%
%TO.N,unconnected-(J1-PadB8)*%
X100800000Y-21420000D03*
%TO.P,J1,B9*%
%TO.N,N/C*%
X101200000Y-22130000D03*
%TO.P,J1,B10*%
X101600000Y-21420000D03*
%TO.P,J1,B11*%
X102400000Y-21420000D03*
%TO.P,J1,B12*%
X102800000Y-22130000D03*
D48*
%TO.P,J1,GN1*%
X98000000Y-22130000D03*
%TO.P,J1,GR1*%
X102000000Y-22130000D03*
D49*
%TO.P,J1,MH1*%
X104270000Y-20980000D03*
%TO.P,J1,MH2*%
X95730000Y-20980000D03*
%TO.P,J1,MH3*%
X104270000Y-16250000D03*
%TO.P,J1,MH4*%
X95730000Y-16250000D03*
D50*
%TO.P,J1,MP1*%
X100000000Y-18800000D03*
%TO.P,J1,MP2*%
X100000000Y-15700000D03*
%TD*%
D25*
%TO.P,SW4,1,1*%
%TO.N,BTN4*%
X81048000Y-66900000D03*
%TO.P,SW4,2,2*%
%TO.N,GND*%
X76048000Y-64800000D03*
%TD*%
D20*
%TO.P,D10,1,VDD*%
%TO.N,V_BAT*%
X19125000Y-64791500D03*
%TO.P,D10,2,DOUT*%
%TO.N,Net-(D10-Pad2)*%
X20955000Y-64791500D03*
%TO.P,D10,3,VSS*%
%TO.N,GND*%
X20955000Y-63691500D03*
%TO.P,D10,4,DIN*%
%TO.N,unconnected-(D10-Pad4)*%
X19125000Y-63691500D03*
%TD*%
D19*
%TO.P,C5,1*%
%TO.N,3.3V_USB*%
X133692500Y-27790000D03*
%TO.P,C5,2*%
%TO.N,GND*%
X134827500Y-27790000D03*
%TD*%
D42*
%TO.P,C24,1*%
%TO.N,+5V*%
X121232000Y-23596500D03*
%TO.P,C24,2*%
%TO.N,GND*%
X121232000Y-24731500D03*
%TD*%
D13*
%TO.P,C26,1*%
%TO.N,V_BAT*%
X124400000Y-78037500D03*
%TO.P,C26,2*%
%TO.N,GND*%
X124400000Y-79762500D03*
%TD*%
D14*
%TO.P,C25,1*%
%TO.N,V_BAT*%
X105337500Y-92200000D03*
%TO.P,C25,2*%
%TO.N,GND*%
X107062500Y-92200000D03*
%TD*%
D19*
%TO.P,C3,1*%
%TO.N,+5V*%
X133922500Y-25650000D03*
%TO.P,C3,2*%
%TO.N,GND*%
X135057500Y-25650000D03*
%TD*%
D51*
%TO.P,C1,1*%
%TO.N,V_BAT*%
X126150000Y-34687500D03*
%TO.P,C1,2*%
%TO.N,GND*%
X126150000Y-33552500D03*
%TD*%
D36*
%TO.P,J3,1,Pin_1*%
%TO.N,GND*%
X63000000Y-38000000D03*
D37*
%TO.P,J3,2,Pin_2*%
%TO.N,V_BAT*%
X60460000Y-38000000D03*
%TO.P,J3,3,Pin_3*%
%TO.N,SCK*%
X57920000Y-38000000D03*
%TO.P,J3,4,Pin_4*%
%TO.N,MOSI*%
X55380000Y-38000000D03*
%TO.P,J3,5,Pin_5*%
%TO.N,OLED_RES*%
X52840000Y-38000000D03*
%TO.P,J3,6,Pin_6*%
%TO.N,OLED_DC*%
X50300000Y-38000000D03*
%TO.P,J3,7,Pin_7*%
%TO.N,OLED_CS*%
X47760000Y-38000000D03*
%TD*%
D20*
%TO.P,D7,1,VDD*%
%TO.N,V_BAT*%
X80085000Y-56774500D03*
%TO.P,D7,2,DOUT*%
%TO.N,Net-(D6-Pad4)*%
X81915000Y-56774500D03*
%TO.P,D7,3,VSS*%
%TO.N,GND*%
X81915000Y-55674500D03*
%TO.P,D7,4,DIN*%
%TO.N,Net-(D7-Pad4)*%
X80085000Y-55674500D03*
%TD*%
%TO.P,D9,1,VDD*%
%TO.N,V_BAT*%
X39154000Y-54758500D03*
%TO.P,D9,2,DOUT*%
%TO.N,Net-(D8-Pad4)*%
X40984000Y-54758500D03*
%TO.P,D9,3,VSS*%
%TO.N,GND*%
X40984000Y-53658500D03*
%TO.P,D9,4,DIN*%
%TO.N,Net-(D10-Pad2)*%
X39154000Y-53658500D03*
%TD*%
D52*
%TO.P,IC3,1,VBAT*%
%TO.N,2.4V*%
X118050000Y-40570000D03*
%TO.P,IC3,2,PC13*%
%TO.N,unconnected-(IC3-Pad2)*%
X118050000Y-40970000D03*
%TO.P,IC3,3,PC14-_OSC32_IN*%
%TO.N,Net-(IC3-Pad3)*%
X118050000Y-41370000D03*
%TO.P,IC3,4,PC15-_OSC32_OUT*%
%TO.N,Net-(IC3-Pad4)*%
X118050000Y-41770000D03*
%TO.P,IC3,5,PH3-BOOT0*%
%TO.N,unconnected-(IC3-Pad5)*%
X118050000Y-42170000D03*
%TO.P,IC3,6,PB8*%
%TO.N,unconnected-(IC3-Pad6)*%
X118050000Y-42570000D03*
%TO.P,IC3,7,PB9*%
%TO.N,unconnected-(IC3-Pad7)*%
X118050000Y-42970000D03*
%TO.P,IC3,8,NRST*%
%TO.N,unconnected-(IC3-Pad8)*%
X118050000Y-43370000D03*
%TO.P,IC3,9,PC0*%
%TO.N,BTN7*%
X118050000Y-43770000D03*
%TO.P,IC3,10,PC1*%
%TO.N,BTN6*%
X118050000Y-44170000D03*
%TO.P,IC3,11,PC2*%
%TO.N,BTN5*%
X118050000Y-44570000D03*
%TO.P,IC3,12,PC3*%
%TO.N,BTN4*%
X118050000Y-44970000D03*
%TO.P,IC3,13,VREF+*%
%TO.N,unconnected-(IC3-Pad13)*%
X118050000Y-45370000D03*
%TO.P,IC3,14,VDDA*%
%TO.N,2.4V*%
X118050000Y-45770000D03*
%TO.P,IC3,15,PA0*%
%TO.N,OLED_RES*%
X118050000Y-46170000D03*
%TO.P,IC3,16,PA1*%
%TO.N,SCK*%
X118050000Y-46570000D03*
%TO.P,IC3,17,PA2*%
%TO.N,OLED_DC*%
X118050000Y-46970000D03*
D53*
%TO.P,IC3,18,PA3*%
%TO.N,OLED_CS*%
X118800000Y-47720000D03*
%TO.P,IC3,19,PA4*%
%TO.N,unconnected-(IC3-Pad19)*%
X119200000Y-47720000D03*
%TO.P,IC3,20,PA5*%
%TO.N,unconnected-(IC3-Pad20)*%
X119600000Y-47720000D03*
%TO.P,IC3,21,PA6*%
%TO.N,MISO*%
X120000000Y-47720000D03*
%TO.P,IC3,22,PA7*%
%TO.N,MOSI*%
X120400000Y-47720000D03*
%TO.P,IC3,23,PA8*%
%TO.N,LED_IN*%
X120800000Y-47720000D03*
%TO.P,IC3,24,PA9*%
%TO.N,unconnected-(IC3-Pad24)*%
X121200000Y-47720000D03*
%TO.P,IC3,25,PC4*%
%TO.N,BTN2*%
X121600000Y-47720000D03*
%TO.P,IC3,26,PC5*%
%TO.N,BTN3*%
X122000000Y-47720000D03*
%TO.P,IC3,27,PB2*%
%TO.N,BTN1*%
X122400000Y-47720000D03*
%TO.P,IC3,28,PB10*%
%TO.N,unconnected-(IC3-Pad28)*%
X122800000Y-47720000D03*
%TO.P,IC3,29,PB11*%
%TO.N,unconnected-(IC3-Pad29)*%
X123200000Y-47720000D03*
%TO.P,IC3,30,VDD_1*%
%TO.N,2.4V*%
X123600000Y-47720000D03*
%TO.P,IC3,31,RF1*%
%TO.N,Net-(C12-Pad1)*%
X124000000Y-47720000D03*
%TO.P,IC3,32,VSSRF*%
%TO.N,GND*%
X124400000Y-47720000D03*
%TO.P,IC3,33,VDDRF*%
%TO.N,2.4V*%
X124800000Y-47720000D03*
%TO.P,IC3,34,OSC_OUT*%
%TO.N,Net-(C10-Pad1)*%
X125200000Y-47720000D03*
D52*
%TO.P,IC3,35,OSC_IN*%
%TO.N,Net-(C11-Pad1)*%
X125950000Y-46970000D03*
%TO.P,IC3,36,AT0*%
%TO.N,unconnected-(IC3-Pad36)*%
X125950000Y-46570000D03*
%TO.P,IC3,37,AT1*%
%TO.N,unconnected-(IC3-Pad37)*%
X125950000Y-46170000D03*
%TO.P,IC3,38,PB0*%
%TO.N,unconnected-(IC3-Pad38)*%
X125950000Y-45770000D03*
%TO.P,IC3,39,PB1*%
%TO.N,unconnected-(IC3-Pad39)*%
X125950000Y-45370000D03*
%TO.P,IC3,40,PE4*%
%TO.N,unconnected-(IC3-Pad40)*%
X125950000Y-44970000D03*
%TO.P,IC3,41,VFBSMPS*%
%TO.N,unconnected-(IC3-Pad41)*%
X125950000Y-44570000D03*
%TO.P,IC3,42,VSSSMPS*%
%TO.N,unconnected-(IC3-Pad42)*%
X125950000Y-44170000D03*
%TO.P,IC3,43,VLXSMPS*%
%TO.N,unconnected-(IC3-Pad43)*%
X125950000Y-43770000D03*
%TO.P,IC3,44,VDDSMPS*%
%TO.N,2.4V*%
X125950000Y-43370000D03*
%TO.P,IC3,45,VDD_2*%
X125950000Y-42970000D03*
%TO.P,IC3,46,PB12*%
%TO.N,unconnected-(IC3-Pad46)*%
X125950000Y-42570000D03*
%TO.P,IC3,47,PB13*%
%TO.N,unconnected-(IC3-Pad47)*%
X125950000Y-42170000D03*
%TO.P,IC3,48,PB14*%
%TO.N,unconnected-(IC3-Pad48)*%
X125950000Y-41770000D03*
%TO.P,IC3,49,PB15*%
%TO.N,unconnected-(IC3-Pad49)*%
X125950000Y-41370000D03*
%TO.P,IC3,50,PC6*%
%TO.N,V_BAT{slash}2*%
X125950000Y-40970000D03*
%TO.P,IC3,51,PA10*%
%TO.N,V_BAT_Toggle*%
X125950000Y-40570000D03*
D53*
%TO.P,IC3,52,PA11*%
%TO.N,USB_D-*%
X125200000Y-39820000D03*
%TO.P,IC3,53,PA12*%
%TO.N,USB_D+*%
X124800000Y-39820000D03*
%TO.P,IC3,54,PA13_(JTMS_SWDIO)*%
%TO.N,SWDIO*%
X124400000Y-39820000D03*
%TO.P,IC3,55,VDDUSB*%
%TO.N,3.3V_USB*%
X124000000Y-39820000D03*
%TO.P,IC3,56,PA14_(JTCK_SWCLK_)*%
%TO.N,SWCLK*%
X123600000Y-39820000D03*
%TO.P,IC3,57,PA15_(JTDI)*%
%TO.N,unconnected-(IC3-Pad57)*%
X123200000Y-39820000D03*
%TO.P,IC3,58,PC10*%
%TO.N,unconnected-(IC3-Pad58)*%
X122800000Y-39820000D03*
%TO.P,IC3,59,PC11*%
%TO.N,unconnected-(IC3-Pad59)*%
X122400000Y-39820000D03*
%TO.P,IC3,60,PC12*%
%TO.N,unconnected-(IC3-Pad60)*%
X122000000Y-39820000D03*
%TO.P,IC3,61,PD0*%
%TO.N,unconnected-(IC3-Pad61)*%
X121600000Y-39820000D03*
%TO.P,IC3,62,PD1*%
%TO.N,unconnected-(IC3-Pad62)*%
X121200000Y-39820000D03*
%TO.P,IC3,63,PB3_(JTDO)*%
%TO.N,SWO*%
X120800000Y-39820000D03*
%TO.P,IC3,64,PB4_(NJTRST)*%
%TO.N,unconnected-(IC3-Pad64)*%
X120400000Y-39820000D03*
%TO.P,IC3,65,PB5*%
%TO.N,unconnected-(IC3-Pad65)*%
X120000000Y-39820000D03*
%TO.P,IC3,66,PB6*%
%TO.N,unconnected-(IC3-Pad66)*%
X119600000Y-39820000D03*
%TO.P,IC3,67,PB7*%
%TO.N,unconnected-(IC3-Pad67)*%
X119200000Y-39820000D03*
%TO.P,IC3,68,VDD_3*%
%TO.N,2.4V*%
X118800000Y-39820000D03*
D54*
%TO.P,IC3,69,EP*%
%TO.N,GND*%
X122000000Y-43770000D03*
%TD*%
D55*
%TO.N,GND*%
X123700000Y-25800000D03*
X111000000Y-40900000D03*
X129130000Y-38680000D03*
%TO.N,V_BAT*%
X126403100Y-31620000D03*
X128020000Y-36130000D03*
X130175000Y-92329000D03*
X16891000Y-49530000D03*
D56*
X98679000Y-30099000D03*
D55*
X119947500Y-78037500D03*
X120015000Y-36068000D03*
D56*
X103759000Y-30099000D03*
D55*
X130175000Y-77978000D03*
X125250000Y-35660000D03*
X16891000Y-65786000D03*
%TO.N,GND*%
X129540000Y-90678000D03*
X77470000Y-57404000D03*
X122750000Y-41750000D03*
X128660000Y-41870000D03*
X119530000Y-41750000D03*
X124470000Y-43750000D03*
X131030000Y-42430000D03*
X122750000Y-46000000D03*
X102235000Y-31115000D03*
X64100000Y-45700000D03*
X124500000Y-46000000D03*
X111647000Y-22483500D03*
X121250000Y-41750000D03*
X124532120Y-92202000D03*
X84200000Y-55100000D03*
X108204000Y-96266000D03*
X130810000Y-79756000D03*
X23000000Y-63000000D03*
X119530000Y-43750000D03*
X106220000Y-28490000D03*
X129000000Y-49730000D03*
X124500000Y-41750000D03*
X121220000Y-43750000D03*
X119530000Y-46000000D03*
X122750000Y-43750000D03*
X111647000Y-20983500D03*
X121250000Y-46000000D03*
X108204000Y-92964000D03*
X43100000Y-53000000D03*
X129000000Y-51230000D03*
X123040000Y-33680000D03*
%TO.N,2.4V*%
X118800000Y-38880000D03*
X125510000Y-48670000D03*
X127300000Y-48900000D03*
X115970000Y-50800000D03*
X118810000Y-36490000D03*
X123020000Y-48900000D03*
X116000000Y-45573100D03*
X115950000Y-39820000D03*
X127300000Y-43400000D03*
%TO.N,+5V*%
X125603000Y-23622000D03*
X125603000Y-25527000D03*
X103251000Y-24384000D03*
X120142000Y-23749000D03*
%TO.N,Net-(IC1-Pad4)*%
X122174000Y-22733000D03*
X123063000Y-18923000D03*
%TO.N,USB_D-*%
X128016000Y-27051000D03*
X99568000Y-27051000D03*
%TO.N,USB_D+*%
X100153100Y-27686000D03*
X127000000Y-27686000D03*
%TO.N,3.3V_USB*%
X133560000Y-30000000D03*
X123906600Y-38581159D03*
%TO.N,Net-(D6-Pad4)*%
X109220000Y-80010000D03*
X109200000Y-59900000D03*
%TO.N,LED_IN*%
X117990000Y-76200000D03*
X126940000Y-76150000D03*
X118000960Y-50006195D03*
X127000000Y-88646000D03*
%TO.N,MOSI*%
X114300000Y-33401000D03*
X114290000Y-49390000D03*
%TO.N,OLED_CS*%
X116713000Y-32004000D03*
X116720000Y-48793100D03*
%TO.N,OLED_DC*%
X117965751Y-32792796D03*
X117990000Y-47820000D03*
%TO.N,SCK*%
X113400000Y-46620000D03*
X113411000Y-33743900D03*
%TO.N,OLED_RES*%
X115190000Y-46170000D03*
X115189000Y-33020000D03*
%TO.N,BTN1*%
X123200000Y-59800000D03*
X122400404Y-49593100D03*
%TO.N,BTN2*%
X121200000Y-56100000D03*
X120990693Y-49593100D03*
X104521000Y-56007000D03*
%TO.N,BTN3*%
X120523000Y-89027000D03*
X121773769Y-49075436D03*
%TO.N,BTN4*%
X112010000Y-47050000D03*
X111970000Y-66910000D03*
%TO.N,BTN5*%
X110890000Y-47310000D03*
X110890000Y-61650000D03*
%TO.N,BTN6*%
X109820000Y-47530000D03*
X109820000Y-74800000D03*
%TO.N,BTN7*%
X90560000Y-69480000D03*
X90580000Y-47780000D03*
%TD*%
D57*
%TO.N,GND*%
X129000000Y-51230000D02*
X128975794Y-51170000D01*
X127223162Y-52567500D02*
X127220000Y-52567500D01*
X128975794Y-51170000D02*
X127870000Y-51170000D01*
X127870000Y-51170000D02*
X127750000Y-51290000D01*
X127750000Y-51290000D02*
X127750000Y-52040662D01*
X127750000Y-52040662D02*
X127223162Y-52567500D01*
%TO.N,V_BAT*%
X67056000Y-40894000D02*
X60606000Y-40894000D01*
X60606000Y-40894000D02*
X56261000Y-40894000D01*
D58*
X60460000Y-38000000D02*
X60460000Y-40748000D01*
X60460000Y-40748000D02*
X60606000Y-40894000D01*
D59*
%TO.N,GND*%
X123665000Y-25765000D02*
X123700000Y-25800000D01*
X123665000Y-24765000D02*
X123665000Y-25765000D01*
X121285000Y-24765000D02*
X123665000Y-24765000D01*
X123665000Y-24765000D02*
X128196500Y-24765000D01*
D58*
%TO.N,Net-(IC3-Pad4)*%
X113875000Y-42600000D02*
X112675000Y-41400000D01*
X118050000Y-41770000D02*
X117530000Y-41770000D01*
X116900000Y-42600000D02*
X113875000Y-42600000D01*
X117530000Y-41770000D02*
X117100000Y-42200000D01*
X117100000Y-42400000D02*
X116900000Y-42600000D01*
X117100000Y-42200000D02*
X117100000Y-42400000D01*
%TO.N,GND*%
X112837500Y-39200000D02*
X112700000Y-39200000D01*
X112700000Y-39200000D02*
X111000000Y-40900000D01*
X110700000Y-41200000D02*
X111000000Y-40900000D01*
X110700000Y-42337500D02*
X110700000Y-41200000D01*
%TO.N,SWO*%
X111212000Y-39558000D02*
X111212000Y-39788000D01*
X111212000Y-39788000D02*
X108100000Y-42900000D01*
%TO.N,Net-(IC3-Pad4)*%
X110700000Y-44062500D02*
X112675000Y-42087500D01*
X112675000Y-42087500D02*
X112675000Y-41400000D01*
%TO.N,Net-(IC3-Pad3)*%
X114562500Y-39200000D02*
X114562500Y-40137500D01*
X114562500Y-40137500D02*
X115825000Y-41400000D01*
X118050000Y-41370000D02*
X115855000Y-41370000D01*
X115855000Y-41370000D02*
X115825000Y-41400000D01*
D57*
%TO.N,SWCLK*%
X109494000Y-40360000D02*
X108200000Y-40360000D01*
X123240980Y-38798968D02*
X123240980Y-38019020D01*
X111222000Y-38638000D02*
X111216000Y-38638000D01*
X123600000Y-39820000D02*
X123600000Y-39157988D01*
X123240980Y-38019020D02*
X111840980Y-38019020D01*
X123600000Y-39157988D02*
X123240980Y-38798968D01*
X111840980Y-38019020D02*
X111222000Y-38638000D01*
X111216000Y-38638000D02*
X109494000Y-40360000D01*
%TO.N,SWDIO*%
X109676000Y-37638000D02*
X109494000Y-37820000D01*
X109494000Y-37820000D02*
X108200000Y-37820000D01*
%TO.N,Net-(Q1-Pad3)*%
X134370000Y-36947500D02*
X134370000Y-34130000D01*
X134370000Y-34130000D02*
X134340000Y-34100000D01*
%TO.N,V_BAT{slash}2*%
X132252500Y-38680000D02*
X134277500Y-38680000D01*
X134277500Y-38680000D02*
X134370000Y-38772500D01*
%TO.N,GND*%
X130427500Y-38680000D02*
X129130000Y-38680000D01*
%TO.N,V_BAT{slash}2*%
X128240000Y-40030000D02*
X127370000Y-40900000D01*
X127300000Y-40970000D02*
X127370000Y-40900000D01*
X125950000Y-40970000D02*
X127300000Y-40970000D01*
X132252500Y-38680000D02*
X130902500Y-40030000D01*
X130902500Y-40030000D02*
X128240000Y-40030000D01*
%TO.N,V_BAT*%
X128930000Y-35042500D02*
X131032500Y-35042500D01*
X131032500Y-35042500D02*
X131040000Y-35050000D01*
X126403100Y-31620000D02*
X126353100Y-31570000D01*
X126353100Y-31570000D02*
X124350000Y-31570000D01*
X128930000Y-35220000D02*
X128020000Y-36130000D01*
X128930000Y-35042500D02*
X128930000Y-35220000D01*
%TO.N,Net-(C14-Pad1)*%
X130277500Y-31710000D02*
X130277500Y-32387500D01*
X130277500Y-32387500D02*
X131040000Y-33150000D01*
X130277500Y-31710000D02*
X130277500Y-31870000D01*
X130277500Y-31870000D02*
X128930000Y-33217500D01*
%TO.N,V_BAT_Toggle*%
X128610000Y-31710000D02*
X129142500Y-31710000D01*
X125950000Y-40570000D02*
X125950000Y-37210000D01*
X125950000Y-37210000D02*
X127820000Y-35340000D01*
X127820000Y-35340000D02*
X127820000Y-32500000D01*
X127820000Y-32500000D02*
X128610000Y-31710000D01*
%TO.N,USB_D-*%
X128016000Y-27694000D02*
X128016000Y-27051000D01*
X125200000Y-39820000D02*
X125200000Y-37360000D01*
X125200000Y-37360000D02*
X127430000Y-35130000D01*
X127830000Y-27730000D02*
X127980000Y-27730000D01*
X127430000Y-35130000D02*
X127430000Y-28130000D01*
X127430000Y-28130000D02*
X127830000Y-27730000D01*
X127980000Y-27730000D02*
X128016000Y-27694000D01*
%TO.N,V_BAT*%
X113960186Y-83577314D02*
X114562587Y-83577314D01*
X124350000Y-31570000D02*
X123630000Y-30850000D01*
X114562587Y-83577314D02*
X114818805Y-83321096D01*
X56261000Y-40894000D02*
X55663000Y-41492000D01*
X39707209Y-53054489D02*
X39758011Y-53105291D01*
X80689011Y-56170489D02*
X80085000Y-56774500D01*
X38402989Y-53054489D02*
X39707209Y-53054489D01*
X122622587Y-97815814D02*
X125946686Y-97815814D01*
X125250000Y-35470000D02*
X124350000Y-34570000D01*
X114818805Y-81522836D02*
X118304141Y-78037500D01*
X125250000Y-35660000D02*
X125250000Y-35470000D01*
D59*
X119253000Y-30099000D02*
X120015000Y-30861000D01*
D57*
X126032500Y-34570000D02*
X126150000Y-34687500D01*
X130175000Y-92329000D02*
X130175000Y-92964000D01*
X76173500Y-51562000D02*
X79681989Y-55070489D01*
X123630000Y-30850000D02*
X120026000Y-30850000D01*
D59*
X49911000Y-31623000D02*
X51435000Y-30099000D01*
D57*
X120026000Y-30850000D02*
X120015000Y-30861000D01*
X102362000Y-95123000D02*
X105285000Y-92200000D01*
X120000000Y-36053000D02*
X120015000Y-36068000D01*
X125946686Y-97815814D02*
X130486750Y-93275750D01*
X76173500Y-50011500D02*
X67056000Y-40894000D01*
X17885500Y-64791500D02*
X16891000Y-65786000D01*
X39758011Y-53105291D02*
X39758011Y-54758489D01*
X130115500Y-78037500D02*
X130175000Y-77978000D01*
X39758011Y-54758489D02*
X39758000Y-54758500D01*
X55663000Y-42361000D02*
X42554500Y-42361000D01*
X124350000Y-34570000D02*
X126032500Y-34570000D01*
X39758000Y-54758500D02*
X39154000Y-54758500D01*
X35369500Y-50021000D02*
X38402989Y-53054489D01*
X79681989Y-55070489D02*
X80638209Y-55070489D01*
X120000000Y-35000000D02*
X120000000Y-36053000D01*
X60556209Y-45820989D02*
X60607011Y-45871791D01*
X102789814Y-99233814D02*
X102362000Y-98806000D01*
X55663000Y-42361000D02*
X55663000Y-42836000D01*
X55663000Y-42836000D02*
X58647989Y-45820989D01*
X118304141Y-78037500D02*
X119947500Y-78037500D01*
X21820000Y-36750000D02*
X16891000Y-41679000D01*
X124350000Y-32670000D02*
X124350000Y-31570000D01*
X35369500Y-49546000D02*
X35369500Y-50021000D01*
D59*
X44784000Y-36750000D02*
X49911000Y-31623000D01*
D57*
X105282587Y-99233814D02*
X102789814Y-99233814D01*
X42554500Y-42361000D02*
X35369500Y-49546000D01*
D59*
X120000000Y-30876000D02*
X120000000Y-35000000D01*
D57*
X19125000Y-64791500D02*
X17885500Y-64791500D01*
D59*
X120015000Y-30861000D02*
X120000000Y-30876000D01*
X21820000Y-36750000D02*
X44784000Y-36750000D01*
D57*
X130486750Y-93275750D02*
X131500000Y-92262500D01*
X58647989Y-45820989D02*
X60556209Y-45820989D01*
X60607011Y-46920989D02*
X60003000Y-47525000D01*
X124400000Y-78037500D02*
X130115500Y-78037500D01*
X55663000Y-41492000D02*
X55663000Y-42361000D01*
X105337500Y-92200000D02*
X113960186Y-83577314D01*
X119947500Y-78037500D02*
X124400000Y-78037500D01*
X80689011Y-55121291D02*
X80689011Y-56170489D01*
X19125000Y-64791500D02*
X15213500Y-60880000D01*
X102362000Y-98806000D02*
X102362000Y-95123000D01*
X80638209Y-55070489D02*
X80689011Y-55121291D01*
X60607011Y-45871791D02*
X60607011Y-46920989D01*
X131433500Y-92329000D02*
X131500000Y-92262500D01*
X16891000Y-41679000D02*
X16891000Y-49530000D01*
D59*
X51435000Y-30099000D02*
X98679000Y-30099000D01*
D57*
X114818805Y-83321096D02*
X114818805Y-81522836D01*
X16891000Y-49530000D02*
X16907000Y-49546000D01*
X76173500Y-51562000D02*
X76173500Y-50011500D01*
D59*
X103759000Y-30099000D02*
X119253000Y-30099000D01*
D57*
X16907000Y-49546000D02*
X35369500Y-49546000D01*
X105285000Y-92200000D02*
X105337500Y-92200000D01*
X15213500Y-60880000D02*
X15213500Y-59452000D01*
X130175000Y-92964000D02*
X130486750Y-93275750D01*
%TO.N,GND*%
X126600000Y-52147500D02*
X126600000Y-51010000D01*
X40984000Y-53435500D02*
X40984000Y-53658500D01*
X37094500Y-49546000D02*
X40984000Y-53435500D01*
X130372500Y-43320000D02*
X130372500Y-42487500D01*
X127020000Y-52567500D02*
X126600000Y-52147500D01*
X108204000Y-96266000D02*
X107417599Y-96266000D01*
X126140000Y-50120000D02*
X124986556Y-50120000D01*
X102750000Y-22920000D02*
X104443020Y-24613020D01*
X57769000Y-42361000D02*
X61833000Y-46425000D01*
D59*
X131050000Y-19117500D02*
X131050000Y-21911500D01*
D57*
X123040000Y-33680000D02*
X123436000Y-33680000D01*
X131377648Y-26215980D02*
X133815980Y-26215980D01*
X135057500Y-26622500D02*
X135057500Y-27560000D01*
X124400000Y-47720000D02*
X124400000Y-46991000D01*
D59*
X126732000Y-14799500D02*
X131050000Y-19117500D01*
D57*
X130810000Y-79756000D02*
X130803500Y-79762500D01*
X128707500Y-48390000D02*
X128427500Y-48110000D01*
X20955000Y-63468500D02*
X16938500Y-59452000D01*
X132095000Y-44542500D02*
X131972500Y-44420000D01*
X123436000Y-33680000D02*
X123496000Y-33620000D01*
X131140980Y-26452648D02*
X131377648Y-26215980D01*
X130803500Y-79762500D02*
X124400000Y-79762500D01*
X83625500Y-55674500D02*
X84200000Y-55100000D01*
X130972500Y-42487500D02*
X131030000Y-42430000D01*
X124400000Y-49590000D02*
X124400000Y-47720000D01*
X130445000Y-27720000D02*
X131140980Y-27024020D01*
X124350000Y-33620000D02*
X123496000Y-33620000D01*
D59*
X117856000Y-24765000D02*
X116205000Y-24765000D01*
D57*
X128660000Y-41870000D02*
X128660000Y-42627500D01*
X107528000Y-26602500D02*
X111647000Y-22483500D01*
D58*
X130672500Y-43320000D02*
X130372500Y-43320000D01*
D57*
X119548521Y-85097964D02*
X119548521Y-88235749D01*
X124400000Y-46100000D02*
X124500000Y-46000000D01*
X125000000Y-50930000D02*
X123890000Y-50930000D01*
D59*
X116205000Y-24765000D02*
X114173000Y-22733000D01*
D57*
X123495989Y-35728489D02*
X123887500Y-36120000D01*
D59*
X112497000Y-20133500D02*
X111647000Y-20983500D01*
X131050000Y-21911500D02*
X130796000Y-22165500D01*
D57*
X134230000Y-26630000D02*
X135050000Y-26630000D01*
X124350000Y-33620000D02*
X126082500Y-33620000D01*
X81915000Y-55578500D02*
X81915000Y-55674500D01*
D59*
X128196500Y-24765000D02*
X130796000Y-22165500D01*
D57*
X135057500Y-25650000D02*
X135057500Y-26622500D01*
X135050000Y-26630000D02*
X135057500Y-26622500D01*
X106014716Y-107938054D02*
X106014716Y-97668883D01*
D59*
X121285000Y-24765000D02*
X117856000Y-24765000D01*
X102235000Y-31115000D02*
X102235000Y-29764500D01*
D57*
X107440000Y-92200000D02*
X108204000Y-92964000D01*
X132095000Y-46280000D02*
X132095000Y-44542500D01*
X115597413Y-81709686D02*
X116160243Y-81709686D01*
X106014716Y-97668883D02*
X106317413Y-97366186D01*
X107164000Y-26602500D02*
X107528000Y-26602500D01*
X106157000Y-27609500D02*
X106157000Y-28427000D01*
X135057500Y-25650000D02*
X134868444Y-25650000D01*
X119548521Y-88235749D02*
X115149873Y-92634397D01*
X126710000Y-49730000D02*
X129000000Y-49730000D01*
D59*
X113575500Y-18863500D02*
X113575500Y-20133500D01*
D57*
X126520000Y-50930000D02*
X125000000Y-50930000D01*
X105721873Y-108230897D02*
X106014716Y-107938054D01*
X123657413Y-93076707D02*
X124532120Y-92202000D01*
X115149873Y-92634397D02*
X116790063Y-94274587D01*
X128427500Y-49157500D02*
X129000000Y-49730000D01*
X122119874Y-105726898D02*
X108225872Y-105726898D01*
X124986556Y-50120000D02*
X124590000Y-49780000D01*
X126487500Y-49540000D02*
X126487500Y-49772500D01*
X42441500Y-53658500D02*
X43100000Y-53000000D01*
X81915000Y-55674500D02*
X81311000Y-55674500D01*
X22308500Y-63691500D02*
X23000000Y-63000000D01*
X126082500Y-33620000D02*
X126150000Y-33552500D01*
X128427500Y-48110000D02*
X128427500Y-49157500D01*
X121353000Y-19233500D02*
X121353000Y-19162500D01*
X108225872Y-105726898D02*
X105721873Y-108230897D01*
X130372500Y-42487500D02*
X130972500Y-42487500D01*
X123496000Y-33620000D02*
X123495989Y-33620011D01*
X135057500Y-27560000D02*
X134827500Y-27790000D01*
X129782500Y-27720000D02*
X130445000Y-27720000D01*
D59*
X113923500Y-22483500D02*
X114173000Y-22733000D01*
D57*
X77898500Y-51562000D02*
X81915000Y-55578500D01*
X128660000Y-42627500D02*
X128647500Y-42640000D01*
X102090500Y-28983000D02*
X103464000Y-27609500D01*
X61833000Y-46425000D02*
X63375000Y-46425000D01*
X131140980Y-27024020D02*
X131140980Y-26452648D01*
D59*
X111647000Y-22483500D02*
X113923500Y-22483500D01*
D57*
X57388000Y-42361000D02*
X57769000Y-42361000D01*
X106157000Y-28427000D02*
X106220000Y-28490000D01*
X104443020Y-26630480D02*
X103464000Y-27609500D01*
X124400011Y-46990989D02*
X124496791Y-46990989D01*
D60*
X129795000Y-48390000D02*
X128707500Y-48390000D01*
D57*
X124400000Y-79762500D02*
X124400000Y-80246485D01*
X134868444Y-25650000D02*
X133983444Y-24765000D01*
X106157000Y-27609500D02*
X107164000Y-26602500D01*
X116160243Y-81709686D02*
X119548521Y-85097964D01*
D59*
X133983444Y-24765000D02*
X128196500Y-24765000D01*
D57*
X103464000Y-27609500D02*
X106157000Y-27609500D01*
X124570000Y-49760000D02*
X124400000Y-49590000D01*
D58*
X131772500Y-44420000D02*
X130672500Y-43320000D01*
D57*
X63375000Y-46425000D02*
X64100000Y-45700000D01*
X81070031Y-55915469D02*
X81070031Y-56946689D01*
X123135873Y-106742897D02*
X122119874Y-105726898D01*
X80612720Y-57404000D02*
X77470000Y-57404000D01*
X133815980Y-26215980D02*
X134230000Y-26630000D01*
D59*
X113575500Y-20133500D02*
X112497000Y-20133500D01*
D57*
X126487500Y-49772500D02*
X126140000Y-50120000D01*
D58*
X131972500Y-44420000D02*
X131772500Y-44420000D01*
D57*
X123495989Y-33620011D02*
X123495989Y-35728489D01*
X129540000Y-90678000D02*
X131359500Y-90678000D01*
X81311000Y-55674500D02*
X81070031Y-55915469D01*
X124496791Y-46990989D02*
X124418980Y-47068800D01*
X107417599Y-96266000D02*
X106317413Y-97366186D01*
X20955000Y-63691500D02*
X20955000Y-63468500D01*
X20955000Y-63691500D02*
X22308500Y-63691500D01*
X121353000Y-19162500D02*
X125716000Y-14799500D01*
X107062500Y-92200000D02*
X107440000Y-92200000D01*
X124400000Y-46991000D02*
X124400011Y-46990989D01*
X123787500Y-36000000D02*
X123797500Y-35990000D01*
X102090500Y-29620000D02*
X102090500Y-28983000D01*
X81070031Y-56946689D02*
X80612720Y-57404000D01*
X123657413Y-94274587D02*
X123657413Y-93076707D01*
X131359500Y-90678000D02*
X131500000Y-90537500D01*
X123890000Y-50930000D02*
X123680000Y-50720000D01*
X124400000Y-80246485D02*
X119548521Y-85097964D01*
X81915000Y-55674500D02*
X83625500Y-55674500D01*
X104443020Y-24613020D02*
X104443020Y-26630480D01*
X130372500Y-42487500D02*
X130372500Y-41522500D01*
D59*
X125716000Y-14799500D02*
X126732000Y-14799500D01*
D57*
X127220000Y-52567500D02*
X127020000Y-52567500D01*
X126600000Y-51010000D02*
X126520000Y-50930000D01*
X116790063Y-94274587D02*
X123657413Y-94274587D01*
X40984000Y-53658500D02*
X42441500Y-53658500D01*
X124400000Y-47720000D02*
X124400000Y-46100000D01*
X123657413Y-95948186D02*
X123657413Y-94274587D01*
X102235000Y-29764500D02*
X102090500Y-29620000D01*
X123787500Y-37000000D02*
X123787500Y-36000000D01*
%TO.N,2.4V*%
X121850000Y-34570000D02*
X121850000Y-35217500D01*
X121647500Y-50202500D02*
X121050000Y-50800000D01*
X127292500Y-48110000D02*
X127292500Y-48892500D01*
X127292500Y-48110000D02*
X126782500Y-48110000D01*
X122652500Y-37000000D02*
X122652500Y-36000000D01*
X124800000Y-48617500D02*
X125352500Y-49540000D01*
X122350000Y-50190000D02*
X123350000Y-50190000D01*
X118050000Y-45770000D02*
X116196900Y-45770000D01*
X124800000Y-47720000D02*
X124800000Y-48617500D01*
X118120000Y-39820000D02*
X118050000Y-39890000D01*
X123020000Y-48900000D02*
X123580000Y-48900000D01*
X116196900Y-45770000D02*
X116000000Y-45573100D01*
X123580000Y-48900000D02*
X123600000Y-48880000D01*
X118800000Y-39820000D02*
X118800000Y-38880000D01*
X123600000Y-48880000D02*
X123600000Y-47720000D01*
X122652500Y-36000000D02*
X122662500Y-35990000D01*
X122362500Y-50202500D02*
X121647500Y-50202500D01*
X118120000Y-39820000D02*
X118800000Y-39820000D01*
X126782500Y-48110000D02*
X125352500Y-49540000D01*
X115950000Y-39820000D02*
X118120000Y-39820000D01*
X125950000Y-42970000D02*
X127182500Y-42970000D01*
X127292500Y-48892500D02*
X127300000Y-48900000D01*
X126782500Y-43370000D02*
X127512500Y-42640000D01*
X125352500Y-49540000D02*
X125352500Y-48827500D01*
X123350000Y-50190000D02*
X123600000Y-49940000D01*
X118810000Y-36490000D02*
X118984911Y-36664911D01*
X121850000Y-35217500D02*
X122752500Y-36120000D01*
X118984911Y-36664911D02*
X121322869Y-36664911D01*
X127300000Y-42852500D02*
X127512500Y-42640000D01*
X121050000Y-50800000D02*
X115970000Y-50800000D01*
X125950000Y-43370000D02*
X126782500Y-43370000D01*
X127300000Y-43400000D02*
X127300000Y-42852500D01*
X121322869Y-36664911D02*
X121867780Y-36120000D01*
X122752500Y-36120000D02*
X121867780Y-36120000D01*
X118050000Y-39890000D02*
X118050000Y-40570000D01*
X127182500Y-42970000D02*
X127512500Y-42640000D01*
X123600000Y-49940000D02*
X123600000Y-48880000D01*
X122362500Y-50202500D02*
X122350000Y-50190000D01*
X125352500Y-48827500D02*
X125510000Y-48670000D01*
X122362500Y-50870000D02*
X122362500Y-50202500D01*
%TO.N,+5V*%
X128910000Y-26910000D02*
X128950000Y-26870000D01*
X128880000Y-27050000D02*
X128880000Y-26970000D01*
X133922500Y-25650000D02*
X132330500Y-25650000D01*
X103235000Y-24400000D02*
X101240000Y-24400000D01*
X128950000Y-26850000D02*
X129040000Y-26760000D01*
X128910000Y-26940000D02*
X128910000Y-26910000D01*
X121079500Y-23749000D02*
X121232000Y-23596500D01*
X132326500Y-25654000D02*
X129784000Y-25654000D01*
X128880000Y-26970000D02*
X128910000Y-26940000D01*
X103464000Y-25534500D02*
X103464000Y-24597000D01*
X121353000Y-20733500D02*
X121353000Y-21233500D01*
X125730000Y-25654000D02*
X129784000Y-25654000D01*
X125577500Y-23596500D02*
X125603000Y-23622000D01*
X101240000Y-24400000D02*
X101250000Y-24390000D01*
X132330500Y-25650000D02*
X132326500Y-25654000D01*
D59*
X121285000Y-22721500D02*
X121285000Y-21301500D01*
D57*
X129040000Y-26760000D02*
X129070000Y-26760000D01*
D59*
X121285000Y-23630000D02*
X121285000Y-22721500D01*
D57*
X129782500Y-28670000D02*
X129120000Y-28670000D01*
X103251000Y-24384000D02*
X103235000Y-24400000D01*
X129120000Y-28670000D02*
X128865980Y-28415980D01*
X129110000Y-26720000D02*
X129732500Y-26720000D01*
X129070000Y-26760000D02*
X129110000Y-26720000D01*
D59*
X121285000Y-21301500D02*
X121353000Y-21233500D01*
D57*
X120142000Y-23749000D02*
X121079500Y-23749000D01*
X128865980Y-28415980D02*
X128865980Y-27064020D01*
X129782500Y-25655500D02*
X129784000Y-25654000D01*
X128865980Y-27064020D02*
X128880000Y-27050000D01*
X103464000Y-24597000D02*
X103251000Y-24384000D01*
X128950000Y-26870000D02*
X128950000Y-26850000D01*
X121232000Y-23596500D02*
X125577500Y-23596500D01*
X129732500Y-26720000D02*
X129782500Y-26770000D01*
X101250000Y-24390000D02*
X101250000Y-23380000D01*
X129782500Y-26770000D02*
X129782500Y-25655500D01*
X125603000Y-25527000D02*
X125730000Y-25654000D01*
%TO.N,Net-(D1-Pad1)*%
X128284000Y-20133500D02*
X129300000Y-19117500D01*
X126007500Y-20133500D02*
X128284000Y-20133500D01*
%TO.N,Net-(D2-Pad1)*%
X128886000Y-22005500D02*
X129046000Y-22165500D01*
X125245500Y-22005500D02*
X128886000Y-22005500D01*
%TO.N,Net-(D3-Pad1)*%
X123966000Y-14799500D02*
X122856000Y-14799500D01*
X122856000Y-14799500D02*
X121332000Y-16323500D01*
%TO.N,Net-(IC1-Pad8)*%
X116953000Y-20233500D02*
X114870500Y-20233500D01*
X114870500Y-20233500D02*
X114770500Y-20133500D01*
%TO.N,Net-(IC1-Pad7)*%
X117907000Y-19733500D02*
X119507000Y-18133500D01*
X116953000Y-19733500D02*
X117907000Y-19733500D01*
X119507000Y-18133500D02*
X119507000Y-16323500D01*
%TO.N,Net-(IC1-Pad6)*%
X116953000Y-19233500D02*
X115140500Y-19233500D01*
X115140500Y-19233500D02*
X114770500Y-18863500D01*
%TO.N,Net-(IC1-Pad4)*%
X121300000Y-19700000D02*
X122286000Y-19700000D01*
X122174000Y-22733000D02*
X122606500Y-22733000D01*
X122286000Y-19700000D02*
X123063000Y-18923000D01*
X122606500Y-22733000D02*
X123367500Y-21972000D01*
%TO.N,Net-(IC1-Pad3)*%
X121353000Y-20233500D02*
X124082500Y-20233500D01*
X124082500Y-20233500D02*
X124182500Y-20133500D01*
%TO.N,USB_D-*%
X99750000Y-23821000D02*
X99750000Y-22920000D01*
X99750000Y-23380000D02*
X99750000Y-26869000D01*
X128000000Y-27067000D02*
X128016000Y-27051000D01*
X99750000Y-26869000D02*
X99568000Y-27051000D01*
%TO.N,USB_D+*%
X124800000Y-39820000D02*
X124800000Y-37200000D01*
D58*
X99600000Y-22130000D02*
X100250000Y-22780000D01*
D57*
X100250000Y-27589100D02*
X100250000Y-22920000D01*
D58*
X100250000Y-22780000D02*
X100250000Y-23380000D01*
D57*
X124800000Y-37200000D02*
X127000000Y-35000000D01*
X100153100Y-27686000D02*
X100250000Y-27589100D01*
X127000000Y-35000000D02*
X127000000Y-27686000D01*
%TO.N,Net-(J1-PadB5)*%
X100389011Y-19720989D02*
X99200000Y-20910000D01*
X104874326Y-19720989D02*
X100389011Y-19720989D01*
X107164000Y-24777500D02*
X107164000Y-22010663D01*
X99200000Y-20910000D02*
X99200000Y-21420000D01*
X107164000Y-22010663D02*
X104874326Y-19720989D01*
X100389011Y-19720989D02*
X100054020Y-20055980D01*
%TO.N,Net-(J1-PadA5)*%
X100750000Y-29135500D02*
X100750000Y-22920000D01*
X100265500Y-29620000D02*
X100750000Y-29135500D01*
%TO.N,3.3V_USB*%
X133692500Y-27790000D02*
X133077500Y-27790000D01*
X124000000Y-38674559D02*
X123906600Y-38581159D01*
X133560000Y-27922500D02*
X133692500Y-27790000D01*
X133077500Y-27790000D02*
X132057500Y-26770000D01*
X133560000Y-30000000D02*
X133560000Y-27922500D01*
X124000000Y-39820000D02*
X124000000Y-38674559D01*
%TO.N,Net-(C10-Pad1)*%
X130370000Y-46280000D02*
X130370000Y-44422500D01*
X125200000Y-47720000D02*
X126040000Y-47720000D01*
X129298980Y-47351020D02*
X130370000Y-46280000D01*
X130370000Y-44422500D02*
X130372500Y-44420000D01*
X126040000Y-47720000D02*
X126408980Y-47351020D01*
X126408980Y-47351020D02*
X129298980Y-47351020D01*
%TO.N,SWDIO*%
X124418980Y-37638000D02*
X124400000Y-37656980D01*
D58*
X124440000Y-37658490D02*
X124440000Y-39821510D01*
D57*
X109676000Y-37638000D02*
X124418980Y-37638000D01*
%TO.N,Net-(D4-Pad4)*%
X120616959Y-98318814D02*
X122072587Y-96863186D01*
X106867413Y-98318814D02*
X120616959Y-98318814D01*
%TO.N,Net-(D5-Pad4)*%
X104732587Y-97877041D02*
X111911207Y-90698421D01*
X113347223Y-90698421D02*
X115611479Y-88434165D01*
X104732587Y-98281186D02*
X104732587Y-97877041D01*
X115611479Y-83198248D02*
X116147413Y-82662314D01*
X111911207Y-90698421D02*
X113347223Y-90698421D01*
X115611479Y-88434165D02*
X115611479Y-83198248D01*
%TO.N,Net-(D6-Pad4)*%
X109195079Y-59895079D02*
X85035579Y-59895079D01*
X109607484Y-80384516D02*
X112088686Y-82624686D01*
X109232968Y-80010000D02*
X109607484Y-80384516D01*
X112088686Y-82624686D02*
X114012587Y-82624686D01*
X109195079Y-59895079D02*
X92026079Y-59895079D01*
X109474000Y-80264000D02*
X109607484Y-80384516D01*
X109220000Y-80010000D02*
X109232968Y-80010000D01*
X109200000Y-59900000D02*
X109195079Y-59895079D01*
X85035579Y-59895079D02*
X81915000Y-56774500D01*
%TO.N,Net-(D7-Pad4)*%
X63971284Y-47525000D02*
X61833000Y-47525000D01*
X80085000Y-55674500D02*
X72120784Y-55674500D01*
X72120784Y-55674500D02*
X63971284Y-47525000D01*
%TO.N,Net-(D8-Pad4)*%
X44577000Y-53213000D02*
X43031500Y-54758500D01*
X53905000Y-46425000D02*
X47117000Y-53213000D01*
X47117000Y-53213000D02*
X44577000Y-53213000D01*
X43031500Y-54758500D02*
X40984000Y-54758500D01*
X60003000Y-46425000D02*
X53905000Y-46425000D01*
%TO.N,Net-(D10-Pad2)*%
X39154000Y-53658500D02*
X34098500Y-53658500D01*
X22965500Y-64791500D02*
X20955000Y-64791500D01*
X34098500Y-53658500D02*
X22965500Y-64791500D01*
%TO.N,Net-(C11-Pad1)*%
X131285980Y-40710980D02*
X129519020Y-40710980D01*
X132015000Y-41440000D02*
X131285980Y-40710980D01*
X127330000Y-46970000D02*
X125950000Y-46970000D01*
X129420000Y-40810000D02*
X129420000Y-44880000D01*
X131972500Y-41482500D02*
X132015000Y-41440000D01*
X129420000Y-44880000D02*
X127330000Y-46970000D01*
X131972500Y-43320000D02*
X131972500Y-41482500D01*
X129519020Y-40710980D02*
X129420000Y-40810000D01*
%TO.N,LED_IN*%
X127000000Y-94108227D02*
X125129020Y-95979207D01*
X119420737Y-50006195D02*
X118000960Y-50006195D01*
X126890000Y-76200000D02*
X126940000Y-76150000D01*
X120800000Y-48626932D02*
X119420737Y-50006195D01*
X117990000Y-76200000D02*
X126890000Y-76200000D01*
X127000000Y-94108227D02*
X124207413Y-96900814D01*
X120800000Y-47720000D02*
X120800000Y-48626932D01*
X127000000Y-88646000D02*
X127000000Y-94108227D01*
D58*
%TO.N,SWO*%
X112423411Y-38346589D02*
X111212000Y-39558000D01*
X119928589Y-38346589D02*
X112423411Y-38346589D01*
X120800000Y-39218000D02*
X119928589Y-38346589D01*
X120800000Y-39820000D02*
X120800000Y-39218000D01*
D59*
%TO.N,Net-(AE1-Pad1)*%
X128293750Y-50500000D02*
X129706250Y-50500000D01*
D57*
X129775000Y-50510000D02*
X129795000Y-50490000D01*
D59*
%TO.N,V_BAT_SW*%
X15700000Y-22600000D02*
X20171020Y-18128980D01*
X20282040Y-18240000D02*
X20171020Y-18128980D01*
X101050000Y-17660000D02*
X99280000Y-17660000D01*
X110871000Y-21590000D02*
X110988411Y-21707411D01*
X101518980Y-18128980D02*
X101050000Y-17660000D01*
X107451029Y-18128980D02*
X110871000Y-21590000D01*
D57*
X116953000Y-20733500D02*
X116953000Y-21233500D01*
D59*
X107451029Y-18128980D02*
X101518980Y-18128980D01*
X110988411Y-21707411D02*
X113977089Y-21707411D01*
D57*
X116953000Y-21233500D02*
X114537500Y-21233500D01*
D59*
X99280000Y-17660000D02*
X98700000Y-18240000D01*
X15700000Y-35250000D02*
X14200000Y-36750000D01*
X98700000Y-18240000D02*
X20282040Y-18240000D01*
X113977089Y-21707411D02*
X114120000Y-21564500D01*
D57*
X114537500Y-21233500D02*
X114173000Y-21598000D01*
D59*
X15700000Y-22600000D02*
X15700000Y-35250000D01*
D57*
%TO.N,MOSI*%
X120400000Y-48449000D02*
X119459000Y-49390000D01*
X55380000Y-38000000D02*
X60233000Y-33147000D01*
X104521000Y-33147000D02*
X114046000Y-33147000D01*
X114046000Y-33147000D02*
X114300000Y-33401000D01*
X120400000Y-47720000D02*
X120400000Y-48449000D01*
X60233000Y-33147000D02*
X65278000Y-33147000D01*
X119459000Y-49390000D02*
X114290000Y-49390000D01*
X65278000Y-33147000D02*
X104521000Y-33147000D01*
%TO.N,OLED_CS*%
X105000000Y-32000000D02*
X116709000Y-32000000D01*
X118800000Y-48270000D02*
X118800000Y-47720000D01*
X47760000Y-38000000D02*
X53760000Y-32000000D01*
X116709000Y-32000000D02*
X116713000Y-32004000D01*
X118200000Y-48870000D02*
X118800000Y-48270000D01*
X116830000Y-32121000D02*
X116713000Y-32004000D01*
X116720000Y-48793100D02*
X116796900Y-48870000D01*
X104000000Y-32000000D02*
X105000000Y-32000000D01*
X53760000Y-32000000D02*
X104000000Y-32000000D01*
X116796900Y-48870000D02*
X118200000Y-48870000D01*
%TO.N,OLED_DC*%
X50300000Y-38000000D02*
X55915000Y-32385000D01*
X104775000Y-32385000D02*
X104846156Y-32385000D01*
X69596000Y-32385000D02*
X104775000Y-32385000D01*
X104775000Y-32385000D02*
X115739100Y-32385000D01*
X117965751Y-32792796D02*
X117773866Y-32600911D01*
X115955011Y-32600911D02*
X115739100Y-32385000D01*
X118050000Y-46970000D02*
X118050000Y-47760000D01*
X118050000Y-47760000D02*
X117990000Y-47820000D01*
X117773866Y-32600911D02*
X115955011Y-32600911D01*
X55915000Y-32385000D02*
X69596000Y-32385000D01*
%TO.N,SCK*%
X113546911Y-46766911D02*
X116363089Y-46766911D01*
X116363089Y-46766911D02*
X116560000Y-46570000D01*
X113195100Y-33528000D02*
X113411000Y-33743900D01*
X113400000Y-46620000D02*
X113546911Y-46766911D01*
X116560000Y-46570000D02*
X118050000Y-46570000D01*
X104267000Y-33528000D02*
X113195100Y-33528000D01*
X62392000Y-33528000D02*
X63373000Y-33528000D01*
X57920000Y-38000000D02*
X62392000Y-33528000D01*
X63373000Y-33528000D02*
X104267000Y-33528000D01*
%TO.N,OLED_RES*%
X58074000Y-32766000D02*
X60198000Y-32766000D01*
X114935000Y-32766000D02*
X115189000Y-33020000D01*
X104688312Y-32766000D02*
X114935000Y-32766000D01*
X52840000Y-38000000D02*
X58074000Y-32766000D01*
X60198000Y-32766000D02*
X104688312Y-32766000D01*
X115190000Y-46170000D02*
X118050000Y-46170000D01*
%TO.N,BTN1*%
X122400404Y-49593100D02*
X122400404Y-47720404D01*
X134300000Y-100277550D02*
X134300000Y-99700000D01*
X134300000Y-70900000D02*
X128600000Y-65200000D01*
X128600000Y-65200000D02*
X123200000Y-59800000D01*
X122400404Y-47720404D02*
X122400000Y-47720000D01*
X134300000Y-99700000D02*
X134300000Y-70900000D01*
X128516000Y-106061550D02*
X134300000Y-100277550D01*
%TO.N,BTN2*%
X121600000Y-47720000D02*
X121600000Y-48365776D01*
X104521000Y-56007000D02*
X121107000Y-56007000D01*
X121107000Y-56007000D02*
X121200000Y-56100000D01*
X121600000Y-48365776D02*
X120990693Y-48975083D01*
X120990693Y-48975083D02*
X120990693Y-49593100D01*
%TO.N,BTN3*%
X121773769Y-49075436D02*
X122000000Y-48849205D01*
X122000000Y-48849205D02*
X122000000Y-47720000D01*
X120530000Y-91953050D02*
X120530000Y-89034000D01*
X120530000Y-89034000D02*
X120523000Y-89027000D01*
%TO.N,BTN4*%
X114090000Y-44970000D02*
X112010000Y-47050000D01*
X111970000Y-66910000D02*
X111960000Y-66900000D01*
X118050000Y-44970000D02*
X114090000Y-44970000D01*
X111960000Y-66900000D02*
X81048000Y-66900000D01*
%TO.N,BTN5*%
X110890000Y-61650000D02*
X109010011Y-63529989D01*
X66940989Y-63529989D02*
X61000000Y-57589000D01*
X113630000Y-44570000D02*
X110890000Y-47310000D01*
X118050000Y-44570000D02*
X113630000Y-44570000D01*
X109010011Y-63529989D02*
X66940989Y-63529989D01*
%TO.N,BTN6*%
X109720000Y-74900000D02*
X20000000Y-74900000D01*
X109820000Y-74800000D02*
X109720000Y-74900000D01*
X118050000Y-44170000D02*
X113180000Y-44170000D01*
X113180000Y-44170000D02*
X109820000Y-47530000D01*
%TO.N,BTN7*%
X90560000Y-69480000D02*
X44580000Y-69480000D01*
X118050000Y-43770000D02*
X112730000Y-43770000D01*
X44580000Y-69480000D02*
X43270011Y-68170011D01*
X112730000Y-43770000D02*
X108670000Y-47830000D01*
X44580000Y-69480000D02*
X40000000Y-64900000D01*
X90630000Y-47830000D02*
X90580000Y-47780000D01*
X108670000Y-47830000D02*
X90630000Y-47830000D01*
%TO.N,Net-(IC3-Pad31)*%
X127220000Y-51752500D02*
X127220000Y-50512500D01*
X127220000Y-50512500D02*
X127217500Y-50510000D01*
X124000000Y-47720000D02*
X124000000Y-49900000D01*
X124000000Y-49900000D02*
X124610000Y-50510000D01*
X124610000Y-50510000D02*
X127217500Y-50510000D01*
%TD*%
M02*
