%TF.GenerationSoftware,KiCad,Pcbnew,(5.99.0-9634-gb691c18bfc)*%
%TF.CreationDate,2021-03-09T21:57:17+01:00*%
%TF.ProjectId,keychordz,6b657963-686f-4726-947a-2e6b69636164,rev?*%
%TF.SameCoordinates,Original*%
%TF.FileFunction,Soldermask,Bot*%
%TF.FilePolarity,Negative*%
%FSLAX46Y46*%
G04 Gerber Fmt 4.6, Leading zero omitted, Abs format (unit mm)*
G04 Created by KiCad (PCBNEW (5.99.0-9634-gb691c18bfc)) date 2021-03-09 21:57:17*
%MOMM*%
%LPD*%
G01*
G04 APERTURE LIST*
%ADD10C,2.010000*%
%ADD11C,0.550000*%
%ADD12C,0.650000*%
%ADD13C,0.800000*%
%ADD14C,6.400000*%
%ADD15R,1.600000X1.600000*%
%ADD16O,1.600000X1.600000*%
%ADD17C,3.429000*%
%ADD18C,1.701800*%
%ADD19C,0.990600*%
%ADD20C,2.032000*%
%ADD21R,1.700000X1.700000*%
%ADD22O,1.700000X1.700000*%
%ADD23C,3.200000*%
%ADD24R,3.500000X3.500000*%
%ADD25C,3.500000*%
G04 APERTURE END LIST*
D10*
%TO.C,J1*%
X95730000Y-16250000D03*
X104270000Y-16250000D03*
X95730000Y-20980000D03*
X104270000Y-20980000D03*
D11*
X102000000Y-22130000D03*
X98000000Y-22130000D03*
D12*
X102800000Y-22130000D03*
X102400000Y-21420000D03*
X101600000Y-21420000D03*
X101200000Y-22130000D03*
X100800000Y-21420000D03*
X100400000Y-22130000D03*
X99600000Y-22130000D03*
X99200000Y-21420000D03*
X98800000Y-22130000D03*
X98400000Y-21420000D03*
X97600000Y-21420000D03*
X97200000Y-22130000D03*
%TD*%
D13*
%TO.C,MNT1*%
X87697056Y-104697056D03*
X83600000Y-103000000D03*
X84302944Y-104697056D03*
X84302944Y-101302944D03*
X86000000Y-105400000D03*
X86000000Y-100600000D03*
X88400000Y-103000000D03*
D14*
X86000000Y-103000000D03*
D13*
X87697056Y-101302944D03*
%TD*%
%TO.C,MNT2*%
X56400000Y-103000000D03*
X54000000Y-105400000D03*
X52302944Y-104697056D03*
X52302944Y-101302944D03*
X54000000Y-100600000D03*
X51600000Y-103000000D03*
D14*
X54000000Y-103000000D03*
D13*
X55697056Y-101302944D03*
X55697056Y-104697056D03*
%TD*%
D14*
%TO.C,MNT3*%
X22000000Y-103000000D03*
D13*
X19600000Y-103000000D03*
X20302944Y-104697056D03*
X22000000Y-105400000D03*
X24400000Y-103000000D03*
X20302944Y-101302944D03*
X23697056Y-104697056D03*
X23697056Y-101302944D03*
X22000000Y-100600000D03*
%TD*%
D15*
%TO.C,SW9*%
X14200000Y-36750000D03*
D16*
X14200000Y-39290000D03*
X21820000Y-39290000D03*
X21820000Y-36750000D03*
%TD*%
D17*
%TO.C,SW1*%
X125566000Y-100952000D03*
D18*
X130329140Y-98202000D03*
D19*
X127986653Y-94704693D03*
D18*
X120802860Y-103702000D03*
D20*
X128516000Y-106061550D03*
X123135873Y-106742897D03*
%TD*%
D18*
%TO.C,SW5*%
X66500000Y-51689000D03*
X55500000Y-51689000D03*
D19*
X66220000Y-47489000D03*
D17*
X61000000Y-51689000D03*
D20*
X61000000Y-57589000D03*
X56000000Y-55489000D03*
%TD*%
D18*
%TO.C,SW6*%
X25500000Y-69000000D03*
X14500000Y-69000000D03*
D19*
X25220000Y-64800000D03*
D17*
X20000000Y-69000000D03*
D20*
X20000000Y-74900000D03*
X15000000Y-72800000D03*
%TD*%
D18*
%TO.C,SW2*%
X103388860Y-105190000D03*
X112915140Y-99690000D03*
D19*
X110572653Y-96192693D03*
D17*
X108152000Y-102440000D03*
D20*
X111102000Y-107549550D03*
X105721873Y-108230897D03*
%TD*%
D21*
%TO.C,J2*%
X102200000Y-45180000D03*
D22*
X102200000Y-42640000D03*
X102200000Y-40100000D03*
X102200000Y-37560000D03*
%TD*%
D18*
%TO.C,SW7*%
X34500000Y-59000000D03*
D17*
X40000000Y-59000000D03*
D18*
X45500000Y-59000000D03*
D19*
X45220000Y-54800000D03*
D20*
X40000000Y-64900000D03*
X35000000Y-62800000D03*
%TD*%
D18*
%TO.C,SW3*%
X112816860Y-89593500D03*
X122343140Y-84093500D03*
D17*
X117580000Y-86843500D03*
D19*
X120000653Y-80596193D03*
D20*
X120530000Y-91953050D03*
X115149873Y-92634397D03*
%TD*%
D23*
%TO.C,BT1*%
X24345000Y-22600000D03*
X79955000Y-22600000D03*
D24*
X15700000Y-22600000D03*
D25*
X87700000Y-22600000D03*
%TD*%
D17*
%TO.C,SW4*%
X81048000Y-61000000D03*
D19*
X86268000Y-56800000D03*
D18*
X75548000Y-61000000D03*
X86548000Y-61000000D03*
D20*
X81048000Y-66900000D03*
X76048000Y-64800000D03*
%TD*%
D21*
%TO.C,J3*%
X63000000Y-38000000D03*
D22*
X60460000Y-38000000D03*
X57920000Y-38000000D03*
X55380000Y-38000000D03*
X52840000Y-38000000D03*
X50300000Y-38000000D03*
X47760000Y-38000000D03*
%TD*%
M02*
