%TF.GenerationSoftware,KiCad,Pcbnew,(5.99.0-9634-gb691c18bfc)*%
%TF.CreationDate,2021-03-09T21:57:16+01:00*%
%TF.ProjectId,keychordz,6b657963-686f-4726-947a-2e6b69636164,rev?*%
%TF.SameCoordinates,Original*%
%TF.FileFunction,Paste,Top*%
%TF.FilePolarity,Positive*%
%FSLAX46Y46*%
G04 Gerber Fmt 4.6, Leading zero omitted, Abs format (unit mm)*
G04 Created by KiCad (PCBNEW (5.99.0-9634-gb691c18bfc)) date 2021-03-09 21:57:16*
%MOMM*%
%LPD*%
G01*
G04 APERTURE LIST*
G04 Aperture macros list*
%AMRoundRect*
0 Rectangle with rounded corners*
0 $1 Rounding radius*
0 $2 $3 $4 $5 $6 $7 $8 $9 X,Y pos of 4 corners*
0 Add a 4 corners polygon primitive as box body*
4,1,4,$2,$3,$4,$5,$6,$7,$8,$9,$2,$3,0*
0 Add four circle primitives for the rounded corners*
1,1,$1+$1,$2,$3*
1,1,$1+$1,$4,$5*
1,1,$1+$1,$6,$7*
1,1,$1+$1,$8,$9*
0 Add four rect primitives between the rounded corners*
20,1,$1+$1,$2,$3,$4,$5,0*
20,1,$1+$1,$4,$5,$6,$7,0*
20,1,$1+$1,$6,$7,$8,$9,0*
20,1,$1+$1,$8,$9,$2,$3,0*%
%AMRotRect*
0 Rectangle, with rotation*
0 The origin of the aperture is its center*
0 $1 length*
0 $2 width*
0 $3 Rotation angle, in degrees counterclockwise*
0 Add horizontal line*
21,1,$1,$2,0,0,$3*%
G04 Aperture macros list end*
%ADD10R,0.200000X1.000000*%
%ADD11R,0.300000X1.200000*%
%ADD12RoundRect,0.237500X-0.250000X-0.237500X0.250000X-0.237500X0.250000X0.237500X-0.250000X0.237500X0*%
%ADD13R,0.700000X0.700000*%
%ADD14RoundRect,0.237500X-0.287500X-0.237500X0.287500X-0.237500X0.287500X0.237500X-0.287500X0.237500X0*%
%ADD15RotRect,0.700000X0.700000X30.000000*%
%ADD16R,1.000000X0.600000*%
%ADD17R,0.600000X1.000000*%
%ADD18RoundRect,0.237500X-0.237500X0.250000X-0.237500X-0.250000X0.237500X-0.250000X0.237500X0.250000X0*%
%ADD19RoundRect,0.237500X0.250000X0.237500X-0.250000X0.237500X-0.250000X-0.237500X0.250000X-0.237500X0*%
%ADD20RoundRect,0.160000X-0.197500X-0.160000X0.197500X-0.160000X0.197500X0.160000X-0.197500X0.160000X0*%
%ADD21RoundRect,0.237500X-0.300000X-0.237500X0.300000X-0.237500X0.300000X0.237500X-0.300000X0.237500X0*%
%ADD22RoundRect,0.250000X-0.475000X0.337500X-0.475000X-0.337500X0.475000X-0.337500X0.475000X0.337500X0*%
%ADD23RoundRect,0.160000X0.197500X0.160000X-0.197500X0.160000X-0.197500X-0.160000X0.197500X-0.160000X0*%
%ADD24R,1.400000X0.300000*%
%ADD25RoundRect,0.237500X0.237500X-0.300000X0.237500X0.300000X-0.237500X0.300000X-0.237500X-0.300000X0*%
%ADD26RoundRect,0.155000X-0.155000X0.212500X-0.155000X-0.212500X0.155000X-0.212500X0.155000X0.212500X0*%
%ADD27RoundRect,0.237500X-0.237500X0.300000X-0.237500X-0.300000X0.237500X-0.300000X0.237500X0.300000X0*%
G04 APERTURE END LIST*
D10*
%TO.C,J1*%
X100000000Y-15700000D03*
X100000000Y-18800000D03*
D11*
X97250000Y-23380000D03*
X97750000Y-23380000D03*
X98250000Y-23380000D03*
X98750000Y-23380000D03*
X99250000Y-23380000D03*
X99750000Y-23380000D03*
X100250000Y-23380000D03*
X100750000Y-23380000D03*
X101250000Y-23380000D03*
X101750000Y-23380000D03*
X102250000Y-23380000D03*
X102750000Y-23380000D03*
%TD*%
D12*
%TO.C,R3*%
X100265500Y-29620000D03*
X102090500Y-29620000D03*
%TD*%
D13*
%TO.C,D8*%
X60003000Y-47525000D03*
X61833000Y-47525000D03*
X61833000Y-46425000D03*
X60003000Y-46425000D03*
%TD*%
D14*
%TO.C,D1*%
X129247000Y-19084000D03*
X130997000Y-19084000D03*
%TD*%
%TO.C,D3*%
X123913000Y-14766000D03*
X125663000Y-14766000D03*
%TD*%
D15*
%TO.C,D4*%
X122622587Y-97815814D03*
X124207413Y-96900814D03*
X123657413Y-95948186D03*
X122072587Y-96863186D03*
%TD*%
D16*
%TO.C,U1*%
X131000000Y-57000000D03*
X131000000Y-55000000D03*
X131000000Y-56000000D03*
X106000000Y-56000000D03*
X106000000Y-54000000D03*
X106000000Y-51000000D03*
X106000000Y-42000000D03*
D17*
X125000000Y-35000000D03*
X123000000Y-35000000D03*
D16*
X106000000Y-40000000D03*
D17*
X121000000Y-35000000D03*
X114000000Y-35000000D03*
X112000000Y-35000000D03*
X110000000Y-35000000D03*
D16*
X106000000Y-41000000D03*
X131000000Y-40000000D03*
D17*
X128000000Y-35000000D03*
X127000000Y-35000000D03*
X126000000Y-35000000D03*
X124000000Y-35000000D03*
X122000000Y-35000000D03*
X115000000Y-35000000D03*
X113000000Y-35000000D03*
X111000000Y-35000000D03*
X109000000Y-35000000D03*
X119000000Y-35000000D03*
D16*
X131000000Y-58000000D03*
X106000000Y-39000000D03*
D17*
X118000000Y-35000000D03*
D16*
X131000000Y-53000000D03*
X131000000Y-39000000D03*
X106000000Y-49000000D03*
X131000000Y-54000000D03*
X106000000Y-58000000D03*
X106000000Y-57000000D03*
X106000000Y-55000000D03*
X106000000Y-53000000D03*
X106000000Y-52000000D03*
X131000000Y-51000000D03*
X131000000Y-50000000D03*
X131000000Y-49000000D03*
X106000000Y-50000000D03*
X131000000Y-48000000D03*
X131000000Y-47000000D03*
X106000000Y-48000000D03*
X131000000Y-46000000D03*
X131000000Y-45000000D03*
X131000000Y-44000000D03*
X106000000Y-47000000D03*
X131000000Y-43000000D03*
X106000000Y-46000000D03*
X131000000Y-41000000D03*
X106000000Y-45000000D03*
X131000000Y-42000000D03*
X106000000Y-44000000D03*
X106000000Y-43000000D03*
X131000000Y-52000000D03*
D17*
X116000000Y-35000000D03*
X120000000Y-35000000D03*
X117000000Y-35000000D03*
%TD*%
D18*
%TO.C,R4*%
X107164000Y-24777500D03*
X107164000Y-26602500D03*
%TD*%
D15*
%TO.C,D5*%
X105282587Y-99233814D03*
X106867413Y-98318814D03*
X106317413Y-97366186D03*
X104732587Y-98281186D03*
%TD*%
D19*
%TO.C,R7*%
X121279000Y-16290000D03*
X119454000Y-16290000D03*
%TD*%
D20*
%TO.C,R6*%
X113522500Y-18830000D03*
X114717500Y-18830000D03*
%TD*%
D21*
%TO.C,C29*%
X35369500Y-49546000D03*
X37094500Y-49546000D03*
%TD*%
%TO.C,C30*%
X15213500Y-59452000D03*
X16938500Y-59452000D03*
%TD*%
D22*
%TO.C,C22*%
X103464000Y-25534500D03*
X103464000Y-27609500D03*
%TD*%
D23*
%TO.C,R5*%
X114717500Y-20100000D03*
X113522500Y-20100000D03*
%TD*%
D19*
%TO.C,R1*%
X125954500Y-20100000D03*
X124129500Y-20100000D03*
%TD*%
D21*
%TO.C,C28*%
X55663000Y-42361000D03*
X57388000Y-42361000D03*
%TD*%
D24*
%TO.C,IC1*%
X121300000Y-21200000D03*
X121300000Y-20700000D03*
X121300000Y-20200000D03*
X121300000Y-19700000D03*
X121300000Y-19200000D03*
X116900000Y-19200000D03*
X116900000Y-19700000D03*
X116900000Y-20200000D03*
X116900000Y-20700000D03*
X116900000Y-21200000D03*
%TD*%
D21*
%TO.C,C27*%
X76173500Y-51562000D03*
X77898500Y-51562000D03*
%TD*%
D15*
%TO.C,D6*%
X114562587Y-83577314D03*
X116147413Y-82662314D03*
X115597413Y-81709686D03*
X114012587Y-82624686D03*
%TD*%
D14*
%TO.C,D2*%
X128993000Y-22132000D03*
X130743000Y-22132000D03*
%TD*%
D25*
%TO.C,C4*%
X131500000Y-92262500D03*
X131500000Y-90537500D03*
%TD*%
D26*
%TO.C,C23*%
X114120000Y-21564500D03*
X114120000Y-22699500D03*
%TD*%
D19*
%TO.C,R2*%
X125192500Y-21972000D03*
X123367500Y-21972000D03*
%TD*%
D13*
%TO.C,D10*%
X19125000Y-64791500D03*
X20955000Y-64791500D03*
X20955000Y-63691500D03*
X19125000Y-63691500D03*
%TD*%
D26*
%TO.C,C24*%
X121232000Y-23596500D03*
X121232000Y-24731500D03*
%TD*%
D27*
%TO.C,C26*%
X124400000Y-78037500D03*
X124400000Y-79762500D03*
%TD*%
D21*
%TO.C,C25*%
X105337500Y-92200000D03*
X107062500Y-92200000D03*
%TD*%
D13*
%TO.C,D7*%
X80085000Y-56774500D03*
X81915000Y-56774500D03*
X81915000Y-55674500D03*
X80085000Y-55674500D03*
%TD*%
%TO.C,D9*%
X39154000Y-54758500D03*
X40984000Y-54758500D03*
X40984000Y-53658500D03*
X39154000Y-53658500D03*
%TD*%
M02*
