%TF.GenerationSoftware,KiCad,Pcbnew,(5.99.0-9634-gb691c18bfc)*%
%TF.CreationDate,2021-03-09T21:57:16+01:00*%
%TF.ProjectId,keychordz,6b657963-686f-4726-947a-2e6b69636164,rev?*%
%TF.SameCoordinates,Original*%
%TF.FileFunction,Copper,L1,Top*%
%TF.FilePolarity,Positive*%
%FSLAX46Y46*%
G04 Gerber Fmt 4.6, Leading zero omitted, Abs format (unit mm)*
G04 Created by KiCad (PCBNEW (5.99.0-9634-gb691c18bfc)) date 2021-03-09 21:57:16*
%MOMM*%
%LPD*%
G01*
G04 APERTURE LIST*
G04 Aperture macros list*
%AMRoundRect*
0 Rectangle with rounded corners*
0 $1 Rounding radius*
0 $2 $3 $4 $5 $6 $7 $8 $9 X,Y pos of 4 corners*
0 Add a 4 corners polygon primitive as box body*
4,1,4,$2,$3,$4,$5,$6,$7,$8,$9,$2,$3,0*
0 Add four circle primitives for the rounded corners*
1,1,$1+$1,$2,$3*
1,1,$1+$1,$4,$5*
1,1,$1+$1,$6,$7*
1,1,$1+$1,$8,$9*
0 Add four rect primitives between the rounded corners*
20,1,$1+$1,$2,$3,$4,$5,0*
20,1,$1+$1,$4,$5,$6,$7,0*
20,1,$1+$1,$6,$7,$8,$9,0*
20,1,$1+$1,$8,$9,$2,$3,0*%
%AMRotRect*
0 Rectangle, with rotation*
0 The origin of the aperture is its center*
0 $1 length*
0 $2 width*
0 $3 Rotation angle, in degrees counterclockwise*
0 Add horizontal line*
21,1,$1,$2,0,0,$3*%
G04 Aperture macros list end*
%TA.AperFunction,SMDPad,CuDef*%
%ADD10R,0.200000X1.000000*%
%TD*%
%TA.AperFunction,ComponentPad*%
%ADD11C,2.010000*%
%TD*%
%TA.AperFunction,ComponentPad*%
%ADD12C,0.550000*%
%TD*%
%TA.AperFunction,ComponentPad*%
%ADD13C,0.650000*%
%TD*%
%TA.AperFunction,SMDPad,CuDef*%
%ADD14R,0.300000X1.200000*%
%TD*%
%TA.AperFunction,ComponentPad*%
%ADD15C,0.800000*%
%TD*%
%TA.AperFunction,ComponentPad*%
%ADD16C,6.400000*%
%TD*%
%TA.AperFunction,ComponentPad*%
%ADD17R,1.600000X1.600000*%
%TD*%
%TA.AperFunction,ComponentPad*%
%ADD18O,1.600000X1.600000*%
%TD*%
%TA.AperFunction,SMDPad,CuDef*%
%ADD19RoundRect,0.237500X-0.250000X-0.237500X0.250000X-0.237500X0.250000X0.237500X-0.250000X0.237500X0*%
%TD*%
%TA.AperFunction,SMDPad,CuDef*%
%ADD20R,0.700000X0.700000*%
%TD*%
%TA.AperFunction,SMDPad,CuDef*%
%ADD21RoundRect,0.237500X-0.287500X-0.237500X0.287500X-0.237500X0.287500X0.237500X-0.287500X0.237500X0*%
%TD*%
%TA.AperFunction,ComponentPad*%
%ADD22C,2.032000*%
%TD*%
%TA.AperFunction,SMDPad,CuDef*%
%ADD23RotRect,0.700000X0.700000X30.000000*%
%TD*%
%TA.AperFunction,SMDPad,CuDef*%
%ADD24R,1.000000X0.600000*%
%TD*%
%TA.AperFunction,SMDPad,CuDef*%
%ADD25R,0.600000X1.000000*%
%TD*%
%TA.AperFunction,SMDPad,CuDef*%
%ADD26RoundRect,0.237500X-0.237500X0.250000X-0.237500X-0.250000X0.237500X-0.250000X0.237500X0.250000X0*%
%TD*%
%TA.AperFunction,SMDPad,CuDef*%
%ADD27RoundRect,0.237500X0.250000X0.237500X-0.250000X0.237500X-0.250000X-0.237500X0.250000X-0.237500X0*%
%TD*%
%TA.AperFunction,SMDPad,CuDef*%
%ADD28RoundRect,0.160000X-0.197500X-0.160000X0.197500X-0.160000X0.197500X0.160000X-0.197500X0.160000X0*%
%TD*%
%TA.AperFunction,SMDPad,CuDef*%
%ADD29RoundRect,0.237500X-0.300000X-0.237500X0.300000X-0.237500X0.300000X0.237500X-0.300000X0.237500X0*%
%TD*%
%TA.AperFunction,SMDPad,CuDef*%
%ADD30RoundRect,0.250000X-0.475000X0.337500X-0.475000X-0.337500X0.475000X-0.337500X0.475000X0.337500X0*%
%TD*%
%TA.AperFunction,SMDPad,CuDef*%
%ADD31RoundRect,0.160000X0.197500X0.160000X-0.197500X0.160000X-0.197500X-0.160000X0.197500X-0.160000X0*%
%TD*%
%TA.AperFunction,ComponentPad*%
%ADD32R,1.700000X1.700000*%
%TD*%
%TA.AperFunction,ComponentPad*%
%ADD33O,1.700000X1.700000*%
%TD*%
%TA.AperFunction,SMDPad,CuDef*%
%ADD34R,1.400000X0.300000*%
%TD*%
%TA.AperFunction,SMDPad,CuDef*%
%ADD35RoundRect,0.237500X0.237500X-0.300000X0.237500X0.300000X-0.237500X0.300000X-0.237500X-0.300000X0*%
%TD*%
%TA.AperFunction,SMDPad,CuDef*%
%ADD36RoundRect,0.155000X-0.155000X0.212500X-0.155000X-0.212500X0.155000X-0.212500X0.155000X0.212500X0*%
%TD*%
%TA.AperFunction,ComponentPad*%
%ADD37R,3.500000X3.500000*%
%TD*%
%TA.AperFunction,ComponentPad*%
%ADD38C,3.500000*%
%TD*%
%TA.AperFunction,SMDPad,CuDef*%
%ADD39RoundRect,0.237500X-0.237500X0.300000X-0.237500X-0.300000X0.237500X-0.300000X0.237500X0.300000X0*%
%TD*%
%TA.AperFunction,ViaPad*%
%ADD40C,0.889000*%
%TD*%
%TA.AperFunction,ViaPad*%
%ADD41C,0.685800*%
%TD*%
%TA.AperFunction,Conductor*%
%ADD42C,0.254000*%
%TD*%
%TA.AperFunction,Conductor*%
%ADD43C,0.127000*%
%TD*%
%TA.AperFunction,Conductor*%
%ADD44C,0.508000*%
%TD*%
G04 APERTURE END LIST*
D10*
%TO.P,J1,MP2*%
%TO.N,N/C*%
X100000000Y-15700000D03*
%TO.P,J1,MP1*%
X100000000Y-18800000D03*
D11*
%TO.P,J1,MH4*%
X95730000Y-16250000D03*
%TO.P,J1,MH3*%
X104270000Y-16250000D03*
%TO.P,J1,MH2*%
X95730000Y-20980000D03*
%TO.P,J1,MH1*%
X104270000Y-20980000D03*
D12*
%TO.P,J1,GR1*%
X102000000Y-22130000D03*
%TO.P,J1,GN1*%
X98000000Y-22130000D03*
D13*
%TO.P,J1,B12*%
X102800000Y-22130000D03*
%TO.P,J1,B11*%
X102400000Y-21420000D03*
%TO.P,J1,B10*%
X101600000Y-21420000D03*
%TO.P,J1,B9*%
X101200000Y-22130000D03*
%TO.P,J1,B8,SBU2*%
%TO.N,unconnected-(J1-PadB8)*%
X100800000Y-21420000D03*
%TO.P,J1,B7,D-*%
%TO.N,USB_D-*%
X100400000Y-22130000D03*
%TO.P,J1,B6,D+*%
%TO.N,USB_D+*%
X99600000Y-22130000D03*
%TO.P,J1,B5,CC2*%
%TO.N,Net-(J1-PadB5)*%
X99200000Y-21420000D03*
%TO.P,J1,B4*%
%TO.N,N/C*%
X98800000Y-22130000D03*
%TO.P,J1,B3*%
X98400000Y-21420000D03*
%TO.P,J1,B2*%
X97600000Y-21420000D03*
%TO.P,J1,B1*%
X97200000Y-22130000D03*
D14*
%TO.P,J1,A12*%
X97250000Y-23380000D03*
%TO.P,J1,A11*%
X97750000Y-23380000D03*
%TO.P,J1,A10*%
X98250000Y-23380000D03*
%TO.P,J1,A9*%
X98750000Y-23380000D03*
%TO.P,J1,A8,SBU1*%
%TO.N,unconnected-(J1-PadA8)*%
X99250000Y-23380000D03*
%TO.P,J1,A7,D-*%
%TO.N,USB_D-*%
X99750000Y-23380000D03*
%TO.P,J1,A6,D+*%
%TO.N,USB_D+*%
X100250000Y-23380000D03*
%TO.P,J1,A5,CC1*%
%TO.N,Net-(J1-PadA5)*%
X100750000Y-23380000D03*
%TO.P,J1,A4,VBUS*%
%TO.N,+5V*%
X101250000Y-23380000D03*
%TO.P,J1,A3*%
%TO.N,N/C*%
X101750000Y-23380000D03*
%TO.P,J1,A2*%
X102250000Y-23380000D03*
%TO.P,J1,A1,GND*%
%TO.N,GND*%
X102750000Y-23380000D03*
%TD*%
D15*
%TO.P,MNT1,1*%
%TO.N,N/C*%
X87697056Y-104697056D03*
X83600000Y-103000000D03*
X84302944Y-104697056D03*
X84302944Y-101302944D03*
X86000000Y-105400000D03*
X86000000Y-100600000D03*
X88400000Y-103000000D03*
D16*
X86000000Y-103000000D03*
D15*
X87697056Y-101302944D03*
%TD*%
%TO.P,MNT2,1*%
%TO.N,N/C*%
X56400000Y-103000000D03*
X54000000Y-105400000D03*
X52302944Y-104697056D03*
X52302944Y-101302944D03*
X54000000Y-100600000D03*
X51600000Y-103000000D03*
D16*
X54000000Y-103000000D03*
D15*
X55697056Y-101302944D03*
X55697056Y-104697056D03*
%TD*%
D16*
%TO.P,MNT3,1*%
%TO.N,N/C*%
X22000000Y-103000000D03*
D15*
X19600000Y-103000000D03*
X20302944Y-104697056D03*
X22000000Y-105400000D03*
X24400000Y-103000000D03*
X20302944Y-101302944D03*
X23697056Y-104697056D03*
X23697056Y-101302944D03*
X22000000Y-100600000D03*
%TD*%
D17*
%TO.P,SW9,2,B*%
%TO.N,V_BAT_SW*%
X14200000Y-36750000D03*
D18*
%TO.P,SW9,4*%
%TO.N,N/C*%
X14200000Y-39290000D03*
%TO.P,SW9,3*%
X21820000Y-39290000D03*
%TO.P,SW9,1,A*%
%TO.N,V_BAT*%
X21820000Y-36750000D03*
%TD*%
D19*
%TO.P,R3,1*%
%TO.N,Net-(J1-PadA5)*%
X100265500Y-29620000D03*
%TO.P,R3,2*%
%TO.N,GND*%
X102090500Y-29620000D03*
%TD*%
D20*
%TO.P,D8,1,VDD*%
%TO.N,V_BAT*%
X60003000Y-47525000D03*
%TO.P,D8,2,DOUT*%
%TO.N,Net-(D7-Pad4)*%
X61833000Y-47525000D03*
%TO.P,D8,3,VSS*%
%TO.N,GND*%
X61833000Y-46425000D03*
%TO.P,D8,4,DIN*%
%TO.N,Net-(D8-Pad4)*%
X60003000Y-46425000D03*
%TD*%
D21*
%TO.P,D1,1,K*%
%TO.N,Net-(D1-Pad1)*%
X129247000Y-19084000D03*
%TO.P,D1,2,A*%
%TO.N,GND*%
X130997000Y-19084000D03*
%TD*%
%TO.P,D3,1,K*%
%TO.N,Net-(D3-Pad1)*%
X123913000Y-14766000D03*
%TO.P,D3,2,A*%
%TO.N,GND*%
X125663000Y-14766000D03*
%TD*%
D22*
%TO.P,SW1,1,1*%
%TO.N,Net-(SW1-Pad1)*%
X128516000Y-106061550D03*
%TO.P,SW1,2,2*%
%TO.N,GND*%
X123135873Y-106742897D03*
%TD*%
D23*
%TO.P,D4,1,VDD*%
%TO.N,V_BAT*%
X122622587Y-97815814D03*
%TO.P,D4,2,DOUT*%
%TO.N,Net-(D4-Pad2)*%
X124207413Y-96900814D03*
%TO.P,D4,3,VSS*%
%TO.N,GND*%
X123657413Y-95948186D03*
%TO.P,D4,4,DIN*%
%TO.N,Net-(D4-Pad4)*%
X122072587Y-96863186D03*
%TD*%
D24*
%TO.P,U1,A8,AIN7/P0.31*%
%TO.N,Net-(SW4-Pad1)*%
X131000000Y-57000000D03*
%TO.P,U1,A10,AIN5/P0.29*%
%TO.N,unconnected-(U1-PadA10)*%
X131000000Y-55000000D03*
%TO.P,U1,A12,AIN0/P0.02*%
%TO.N,unconnected-(U1-PadA12)*%
X131000000Y-56000000D03*
%TO.P,U1,A14,P1.15*%
%TO.N,Net-(SW2-Pad1)*%
X106000000Y-56000000D03*
%TO.P,U1,A16,P1.13*%
%TO.N,unconnected-(U1-PadA16)*%
X106000000Y-54000000D03*
%TO.P,U1,A20,P1.10*%
%TO.N,unconnected-(U1-PadA20)*%
X106000000Y-51000000D03*
%TO.P,U1,AA24,SWDCLK*%
%TO.N,SWDCLK*%
X106000000Y-42000000D03*
D25*
%TO.P,U1,AC9,P0.14*%
%TO.N,unconnected-(U1-PadAC9)*%
X125000000Y-35000000D03*
%TO.P,U1,AC11,P0.16*%
%TO.N,unconnected-(U1-PadAC11)*%
X123000000Y-35000000D03*
D24*
%TO.P,U1,AC13,P0.18/~RESET*%
%TO.N,RST*%
X106000000Y-40000000D03*
D25*
%TO.P,U1,AC15,P0.19*%
%TO.N,unconnected-(U1-PadAC15)*%
X121000000Y-35000000D03*
%TO.P,U1,AC17,P0.21*%
%TO.N,unconnected-(U1-PadAC17)*%
X114000000Y-35000000D03*
%TO.P,U1,AC19,P0.23*%
%TO.N,unconnected-(U1-PadAC19)*%
X112000000Y-35000000D03*
%TO.P,U1,AC21,P0.25*%
%TO.N,unconnected-(U1-PadAC21)*%
X110000000Y-35000000D03*
D24*
%TO.P,U1,AC24,SWDIO*%
%TO.N,SWDIO*%
X106000000Y-41000000D03*
%TO.P,U1,AD2,VBUS*%
%TO.N,+5V*%
X131000000Y-40000000D03*
D25*
%TO.P,U1,AD4,D-*%
%TO.N,USB_D-*%
X128000000Y-35000000D03*
%TO.P,U1,AD6,D+*%
%TO.N,USB_D+*%
X127000000Y-35000000D03*
%TO.P,U1,AD8,P0.13*%
%TO.N,unconnected-(U1-PadAD8)*%
X126000000Y-35000000D03*
%TO.P,U1,AD10,P0.15*%
%TO.N,unconnected-(U1-PadAD10)*%
X124000000Y-35000000D03*
%TO.P,U1,AD12,P0.17*%
%TO.N,unconnected-(U1-PadAD12)*%
X122000000Y-35000000D03*
%TO.P,U1,AD16,P0.20*%
%TO.N,unconnected-(U1-PadAD16)*%
X115000000Y-35000000D03*
%TO.P,U1,AD18,P0.22*%
%TO.N,unconnected-(U1-PadAD18)*%
X113000000Y-35000000D03*
%TO.P,U1,AD20,P0.24*%
%TO.N,unconnected-(U1-PadAD20)*%
X111000000Y-35000000D03*
%TO.P,U1,AD22,TRACEDATA0/P1.00*%
%TO.N,Net-(D4-Pad2)*%
X109000000Y-35000000D03*
%TO.P,U1,B1,VDD*%
%TO.N,Net-(J3-Pad2)*%
X119000000Y-35000000D03*
D24*
%TO.P,U1,B7,VSS*%
%TO.N,GND*%
X131000000Y-58000000D03*
X106000000Y-39000000D03*
D25*
X118000000Y-35000000D03*
D24*
X131000000Y-53000000D03*
X131000000Y-39000000D03*
X106000000Y-49000000D03*
%TO.P,U1,B9,AIN6/P0.30*%
%TO.N,unconnected-(U1-PadB9)*%
X131000000Y-54000000D03*
%TO.P,U1,B11,AIN4/P0.28*%
%TO.N,Net-(SW1-Pad1)*%
X106000000Y-58000000D03*
%TO.P,U1,B13,AIN1/P0.03*%
%TO.N,unconnected-(U1-PadB13)*%
X106000000Y-57000000D03*
%TO.P,U1,B15,P1.14*%
%TO.N,Net-(SW3-Pad1)*%
X106000000Y-55000000D03*
%TO.P,U1,B17,P1.12*%
%TO.N,unconnected-(U1-PadB17)*%
X106000000Y-53000000D03*
%TO.P,U1,B19,P1.11*%
%TO.N,unconnected-(U1-PadB19)*%
X106000000Y-52000000D03*
%TO.P,U1,G1,P0.26*%
%TO.N,Net-(SW5-Pad1)*%
X131000000Y-51000000D03*
%TO.P,U1,H2,P0.27*%
%TO.N,Net-(SW6-Pad1)*%
X131000000Y-50000000D03*
%TO.P,U1,J1,AIN2/P0.04*%
%TO.N,Net-(SW7-Pad1)*%
X131000000Y-49000000D03*
%TO.P,U1,J24,NFC2/P0.10*%
%TO.N,unconnected-(U1-PadJ24)*%
X106000000Y-50000000D03*
%TO.P,U1,K2,AIN3/P0.05*%
%TO.N,Net-(J3-Pad3)*%
X131000000Y-48000000D03*
%TO.P,U1,L1,P0.06*%
%TO.N,Net-(J3-Pad4)*%
X131000000Y-47000000D03*
%TO.P,U1,L24,NFC1/P0.09*%
%TO.N,unconnected-(U1-PadL24)*%
X106000000Y-48000000D03*
%TO.P,U1,M2,TRACECLK/P0.07*%
%TO.N,Net-(J3-Pad5)*%
X131000000Y-46000000D03*
%TO.P,U1,N1,P0.08*%
%TO.N,Net-(J3-Pad6)*%
X131000000Y-45000000D03*
%TO.P,U1,P2,P1.08*%
%TO.N,Net-(J3-Pad7)*%
X131000000Y-44000000D03*
%TO.P,U1,P23,P1.07*%
%TO.N,unconnected-(U1-PadP23)*%
X106000000Y-47000000D03*
%TO.P,U1,R1,TRACEDATA3/P1.09*%
%TO.N,unconnected-(U1-PadR1)*%
X131000000Y-43000000D03*
%TO.P,U1,R24,P1.06*%
%TO.N,unconnected-(U1-PadR24)*%
X106000000Y-46000000D03*
%TO.P,U1,T2,TRACEDATA2/P0.11*%
%TO.N,unconnected-(U1-PadT2)*%
X131000000Y-41000000D03*
%TO.P,U1,T23,P1.05*%
%TO.N,unconnected-(U1-PadT23)*%
X106000000Y-45000000D03*
%TO.P,U1,U1,TRACEDATA1/P0.12*%
%TO.N,unconnected-(U1-PadU1)*%
X131000000Y-42000000D03*
%TO.P,U1,U24,P1.04*%
%TO.N,unconnected-(U1-PadU24)*%
X106000000Y-44000000D03*
%TO.P,U1,V23,P1.03*%
%TO.N,unconnected-(U1-PadV23)*%
X106000000Y-43000000D03*
%TO.P,U1,W1,VDD*%
%TO.N,unconnected-(U1-PadW1)*%
X131000000Y-52000000D03*
D25*
%TO.P,U1,W25*%
%TO.N,N/C*%
X116000000Y-35000000D03*
%TO.P,U1,Y2,VDDH*%
%TO.N,V_BAT*%
X120000000Y-35000000D03*
%TO.P,U1,Y23,P1.01*%
%TO.N,unconnected-(U1-PadY23)*%
X117000000Y-35000000D03*
%TD*%
D22*
%TO.P,SW5,1,1*%
%TO.N,Net-(SW5-Pad1)*%
X61000000Y-57589000D03*
%TO.P,SW5,2,2*%
%TO.N,GND*%
X56000000Y-55489000D03*
%TD*%
D26*
%TO.P,R4,1*%
%TO.N,Net-(J1-PadB5)*%
X107164000Y-24777500D03*
%TO.P,R4,2*%
%TO.N,GND*%
X107164000Y-26602500D03*
%TD*%
D23*
%TO.P,D5,1,VDD*%
%TO.N,V_BAT*%
X105282587Y-99233814D03*
%TO.P,D5,2,DOUT*%
%TO.N,Net-(D4-Pad4)*%
X106867413Y-98318814D03*
%TO.P,D5,3,VSS*%
%TO.N,GND*%
X106317413Y-97366186D03*
%TO.P,D5,4,DIN*%
%TO.N,Net-(D5-Pad4)*%
X104732587Y-98281186D03*
%TD*%
D27*
%TO.P,R7,1*%
%TO.N,Net-(D3-Pad1)*%
X121279000Y-16290000D03*
%TO.P,R7,2*%
%TO.N,Net-(IC1-Pad7)*%
X119454000Y-16290000D03*
%TD*%
D28*
%TO.P,R6,1*%
%TO.N,GND*%
X113522500Y-18830000D03*
%TO.P,R6,2*%
%TO.N,Net-(IC1-Pad6)*%
X114717500Y-18830000D03*
%TD*%
D22*
%TO.P,SW6,1,1*%
%TO.N,Net-(SW6-Pad1)*%
X20000000Y-74900000D03*
%TO.P,SW6,2,2*%
%TO.N,GND*%
X15000000Y-72800000D03*
%TD*%
D29*
%TO.P,C29,1*%
%TO.N,V_BAT*%
X35369500Y-49546000D03*
%TO.P,C29,2*%
%TO.N,GND*%
X37094500Y-49546000D03*
%TD*%
%TO.P,C30,1*%
%TO.N,V_BAT*%
X15213500Y-59452000D03*
%TO.P,C30,2*%
%TO.N,GND*%
X16938500Y-59452000D03*
%TD*%
D30*
%TO.P,C22,1*%
%TO.N,+5V*%
X103464000Y-25534500D03*
%TO.P,C22,2*%
%TO.N,GND*%
X103464000Y-27609500D03*
%TD*%
D31*
%TO.P,R5,1*%
%TO.N,Net-(IC1-Pad8)*%
X114717500Y-20100000D03*
%TO.P,R5,2*%
%TO.N,GND*%
X113522500Y-20100000D03*
%TD*%
D27*
%TO.P,R1,1*%
%TO.N,Net-(D1-Pad1)*%
X125954500Y-20100000D03*
%TO.P,R1,2*%
%TO.N,Net-(IC1-Pad3)*%
X124129500Y-20100000D03*
%TD*%
D29*
%TO.P,C28,1*%
%TO.N,V_BAT*%
X55663000Y-42361000D03*
%TO.P,C28,2*%
%TO.N,GND*%
X57388000Y-42361000D03*
%TD*%
D22*
%TO.P,SW2,1,1*%
%TO.N,Net-(SW2-Pad1)*%
X111102000Y-107549550D03*
%TO.P,SW2,2,2*%
%TO.N,GND*%
X105721873Y-108230897D03*
%TD*%
D32*
%TO.P,J2,1,Pin_1*%
%TO.N,SWDCLK*%
X102200000Y-45180000D03*
D33*
%TO.P,J2,2,Pin_2*%
%TO.N,SWDIO*%
X102200000Y-42640000D03*
%TO.P,J2,3,Pin_3*%
%TO.N,RST*%
X102200000Y-40100000D03*
%TO.P,J2,4,Pin_4*%
%TO.N,GND*%
X102200000Y-37560000D03*
%TD*%
D34*
%TO.P,IC1,1,VDD_1*%
%TO.N,+5V*%
X121300000Y-21200000D03*
%TO.P,IC1,2,VDD_2*%
X121300000Y-20700000D03*
%TO.P,IC1,3,STAT1*%
%TO.N,Net-(IC1-Pad3)*%
X121300000Y-20200000D03*
%TO.P,IC1,4,STAT2*%
%TO.N,Net-(IC1-Pad4)*%
X121300000Y-19700000D03*
%TO.P,IC1,5,VSS*%
%TO.N,GND*%
X121300000Y-19200000D03*
%TO.P,IC1,6,PROG*%
%TO.N,Net-(IC1-Pad6)*%
X116900000Y-19200000D03*
%TO.P,IC1,7,~PG~/~TE*%
%TO.N,Net-(IC1-Pad7)*%
X116900000Y-19700000D03*
%TO.P,IC1,8,THERM*%
%TO.N,Net-(IC1-Pad8)*%
X116900000Y-20200000D03*
%TO.P,IC1,9,VBAT_1*%
%TO.N,V_BAT_SW*%
X116900000Y-20700000D03*
%TO.P,IC1,10,VBAT_2*%
X116900000Y-21200000D03*
%TD*%
D29*
%TO.P,C27,1*%
%TO.N,V_BAT*%
X76173500Y-51562000D03*
%TO.P,C27,2*%
%TO.N,GND*%
X77898500Y-51562000D03*
%TD*%
D22*
%TO.P,SW7,1,1*%
%TO.N,Net-(SW7-Pad1)*%
X40000000Y-64900000D03*
%TO.P,SW7,2,2*%
%TO.N,GND*%
X35000000Y-62800000D03*
%TD*%
D23*
%TO.P,D6,1,VDD*%
%TO.N,V_BAT*%
X114562587Y-83577314D03*
%TO.P,D6,2,DOUT*%
%TO.N,Net-(D5-Pad4)*%
X116147413Y-82662314D03*
%TO.P,D6,3,VSS*%
%TO.N,GND*%
X115597413Y-81709686D03*
%TO.P,D6,4,DIN*%
%TO.N,Net-(D6-Pad4)*%
X114012587Y-82624686D03*
%TD*%
D21*
%TO.P,D2,1,K*%
%TO.N,Net-(D2-Pad1)*%
X128993000Y-22132000D03*
%TO.P,D2,2,A*%
%TO.N,GND*%
X130743000Y-22132000D03*
%TD*%
D35*
%TO.P,C4,1*%
%TO.N,V_BAT*%
X131500000Y-92262500D03*
%TO.P,C4,2*%
%TO.N,GND*%
X131500000Y-90537500D03*
%TD*%
D22*
%TO.P,SW3,1,1*%
%TO.N,Net-(SW3-Pad1)*%
X120530000Y-91953050D03*
%TO.P,SW3,2,2*%
%TO.N,GND*%
X115149873Y-92634397D03*
%TD*%
D36*
%TO.P,C23,1*%
%TO.N,V_BAT_SW*%
X114120000Y-21564500D03*
%TO.P,C23,2*%
%TO.N,GND*%
X114120000Y-22699500D03*
%TD*%
D37*
%TO.P,BT1,1,+*%
%TO.N,V_BAT_SW*%
X15700000Y-22600000D03*
D38*
%TO.P,BT1,2,-*%
%TO.N,GND*%
X87700000Y-22600000D03*
%TD*%
D27*
%TO.P,R2,1*%
%TO.N,Net-(D2-Pad1)*%
X125192500Y-21972000D03*
%TO.P,R2,2*%
%TO.N,Net-(IC1-Pad4)*%
X123367500Y-21972000D03*
%TD*%
D22*
%TO.P,SW4,1,1*%
%TO.N,Net-(SW4-Pad1)*%
X81048000Y-66900000D03*
%TO.P,SW4,2,2*%
%TO.N,GND*%
X76048000Y-64800000D03*
%TD*%
D20*
%TO.P,D10,1,VDD*%
%TO.N,V_BAT*%
X19125000Y-64791500D03*
%TO.P,D10,2,DOUT*%
%TO.N,Net-(D10-Pad2)*%
X20955000Y-64791500D03*
%TO.P,D10,3,VSS*%
%TO.N,GND*%
X20955000Y-63691500D03*
%TO.P,D10,4,DIN*%
%TO.N,unconnected-(D10-Pad4)*%
X19125000Y-63691500D03*
%TD*%
D36*
%TO.P,C24,1*%
%TO.N,+5V*%
X121232000Y-23596500D03*
%TO.P,C24,2*%
%TO.N,GND*%
X121232000Y-24731500D03*
%TD*%
D39*
%TO.P,C26,1*%
%TO.N,V_BAT*%
X124400000Y-78037500D03*
%TO.P,C26,2*%
%TO.N,GND*%
X124400000Y-79762500D03*
%TD*%
D29*
%TO.P,C25,1*%
%TO.N,V_BAT*%
X105337500Y-92200000D03*
%TO.P,C25,2*%
%TO.N,GND*%
X107062500Y-92200000D03*
%TD*%
D32*
%TO.P,J3,1,Pin_1*%
%TO.N,GND*%
X63000000Y-38000000D03*
D33*
%TO.P,J3,2,Pin_2*%
%TO.N,Net-(J3-Pad2)*%
X60460000Y-38000000D03*
%TO.P,J3,3,Pin_3*%
%TO.N,Net-(J3-Pad3)*%
X57920000Y-38000000D03*
%TO.P,J3,4,Pin_4*%
%TO.N,Net-(J3-Pad4)*%
X55380000Y-38000000D03*
%TO.P,J3,5,Pin_5*%
%TO.N,Net-(J3-Pad5)*%
X52840000Y-38000000D03*
%TO.P,J3,6,Pin_6*%
%TO.N,Net-(J3-Pad6)*%
X50300000Y-38000000D03*
%TO.P,J3,7,Pin_7*%
%TO.N,Net-(J3-Pad7)*%
X47760000Y-38000000D03*
%TD*%
D20*
%TO.P,D7,1,VDD*%
%TO.N,V_BAT*%
X80085000Y-56774500D03*
%TO.P,D7,2,DOUT*%
%TO.N,Net-(D6-Pad4)*%
X81915000Y-56774500D03*
%TO.P,D7,3,VSS*%
%TO.N,GND*%
X81915000Y-55674500D03*
%TO.P,D7,4,DIN*%
%TO.N,Net-(D7-Pad4)*%
X80085000Y-55674500D03*
%TD*%
%TO.P,D9,1,VDD*%
%TO.N,V_BAT*%
X39154000Y-54758500D03*
%TO.P,D9,2,DOUT*%
%TO.N,Net-(D8-Pad4)*%
X40984000Y-54758500D03*
%TO.P,D9,3,VSS*%
%TO.N,GND*%
X40984000Y-53658500D03*
%TO.P,D9,4,DIN*%
%TO.N,Net-(D10-Pad2)*%
X39154000Y-53658500D03*
%TD*%
D40*
%TO.N,V_BAT*%
X98679000Y-30099000D03*
X103759000Y-30099000D03*
D41*
%TO.N,Net-(IC1-Pad4)*%
X122174000Y-22733000D03*
X123063000Y-18923000D03*
%TO.N,GND*%
X117856000Y-28448000D03*
X117983000Y-31965900D03*
%TO.N,+5V*%
X120142000Y-23749000D03*
X103251000Y-24384000D03*
%TO.N,V_BAT*%
X119947500Y-78037500D03*
X120015000Y-36068000D03*
%TO.N,GND*%
X133604000Y-38989000D03*
X133604000Y-52959000D03*
%TO.N,+5V*%
X131953000Y-40005000D03*
X131953000Y-25654000D03*
X125603000Y-23622000D03*
X125603000Y-25527000D03*
%TO.N,GND*%
X111647000Y-22483500D03*
X111647000Y-20983500D03*
%TO.N,USB_D-*%
X128016000Y-27051000D03*
X99568000Y-27051000D03*
%TO.N,USB_D+*%
X100153100Y-27686000D03*
X127000000Y-27686000D03*
%TO.N,GND*%
X87700000Y-31172000D03*
X102235000Y-31115000D03*
%TO.N,Net-(J3-Pad3)*%
X113411000Y-48006000D03*
X113411000Y-33743900D03*
%TO.N,Net-(J3-Pad4)*%
X114300000Y-46990000D03*
X114300000Y-33401000D03*
%TO.N,Net-(J3-Pad5)*%
X115189000Y-45974000D03*
X115189000Y-33020000D03*
%TO.N,Net-(D4-Pad2)*%
X127000000Y-39878000D03*
%TO.N,Net-(J3-Pad6)*%
X115951000Y-45085000D03*
X115951000Y-32596900D03*
%TO.N,Net-(J3-Pad7)*%
X116713000Y-32004000D03*
X116901356Y-43787060D03*
%TO.N,Net-(J3-Pad2)*%
X104013000Y-34798000D03*
X104013000Y-31369000D03*
%TO.N,GND*%
X87503000Y-34124900D03*
X62992000Y-42418000D03*
%TO.N,V_BAT*%
X130175000Y-92329000D03*
X130175000Y-77978000D03*
%TO.N,GND*%
X130937000Y-59055000D03*
X130810000Y-79756000D03*
%TO.N,Net-(SW5-Pad1)*%
X129628900Y-51054000D03*
X129628900Y-62230000D03*
%TO.N,GND*%
X77470000Y-57404000D03*
X103251000Y-49022000D03*
X103251000Y-55753000D03*
%TO.N,Net-(SW7-Pad1)*%
X129032000Y-49022000D03*
X129032000Y-68199000D03*
%TO.N,V_BAT*%
X16891000Y-49530000D03*
X16891000Y-65786000D03*
%TO.N,Net-(SW4-Pad1)*%
X128397000Y-57023000D03*
X128358900Y-66929000D03*
%TO.N,Net-(SW6-Pad1)*%
X127762000Y-50038000D03*
X127762000Y-74930000D03*
%TO.N,Net-(D6-Pad4)*%
X109220000Y-80010000D03*
X109220000Y-60833000D03*
%TO.N,Net-(SW2-Pad1)*%
X104521000Y-56007000D03*
%TO.N,Net-(D4-Pad2)*%
X127000000Y-88646000D03*
%TO.N,Net-(SW1-Pad1)*%
X110363000Y-60833000D03*
X121031000Y-100965000D03*
%TO.N,Net-(SW3-Pad1)*%
X120777000Y-54991000D03*
X120523000Y-89027000D03*
%TO.N,GND*%
X108204000Y-96266000D03*
X108204000Y-92964000D03*
X129540000Y-90678000D03*
X124532120Y-92202000D03*
%TD*%
D42*
%TO.N,GND*%
X107164000Y-26602500D02*
X107528000Y-26602500D01*
X107528000Y-26602500D02*
X111647000Y-22483500D01*
%TO.N,Net-(J1-PadB5)*%
X100389011Y-19720989D02*
X100054020Y-20055980D01*
X104874326Y-19720989D02*
X100389011Y-19720989D01*
X107164000Y-24777500D02*
X107164000Y-22010663D01*
X107164000Y-22010663D02*
X104874326Y-19720989D01*
X100389011Y-19720989D02*
X99200000Y-20910000D01*
X99200000Y-20910000D02*
X99200000Y-21420000D01*
D43*
%TO.N,USB_D+*%
X99600000Y-22130000D02*
X100250000Y-22780000D01*
X100250000Y-22780000D02*
X100250000Y-23380000D01*
D44*
%TO.N,V_BAT*%
X103759000Y-30099000D02*
X119253000Y-30099000D01*
X49911000Y-31623000D02*
X51435000Y-30099000D01*
X21820000Y-36750000D02*
X44784000Y-36750000D01*
X51435000Y-30099000D02*
X98679000Y-30099000D01*
X44784000Y-36750000D02*
X49911000Y-31623000D01*
X120000000Y-30876000D02*
X120000000Y-35000000D01*
X119253000Y-30099000D02*
X120015000Y-30861000D01*
X120015000Y-30861000D02*
X120000000Y-30876000D01*
D42*
%TO.N,Net-(IC1-Pad4)*%
X121300000Y-19700000D02*
X122286000Y-19700000D01*
X122286000Y-19700000D02*
X123063000Y-18923000D01*
X122174000Y-22733000D02*
X122606500Y-22733000D01*
X122606500Y-22733000D02*
X123367500Y-21972000D01*
D44*
%TO.N,V_BAT_SW*%
X110871000Y-21590000D02*
X110988411Y-21707411D01*
X110988411Y-21707411D02*
X113977089Y-21707411D01*
X113977089Y-21707411D02*
X114120000Y-21564500D01*
X15700000Y-22600000D02*
X20171020Y-18128980D01*
X20171020Y-18128980D02*
X107451029Y-18128980D01*
X107451029Y-18128980D02*
X110871000Y-21590000D01*
%TO.N,GND*%
X121285000Y-24765000D02*
X117856000Y-24765000D01*
D42*
X118000000Y-35000000D02*
X118000000Y-31982900D01*
X118000000Y-31982900D02*
X117983000Y-31965900D01*
D44*
X117856000Y-24765000D02*
X116205000Y-24765000D01*
D42*
X117856000Y-28448000D02*
X117856000Y-24765000D01*
%TO.N,+5V*%
X103464000Y-25534500D02*
X103464000Y-24597000D01*
X103464000Y-24597000D02*
X103251000Y-24384000D01*
X120142000Y-23749000D02*
X121079500Y-23749000D01*
X121079500Y-23749000D02*
X121232000Y-23596500D01*
%TO.N,V_BAT*%
X55663000Y-42361000D02*
X42554500Y-42361000D01*
X42554500Y-42361000D02*
X35369500Y-49546000D01*
X55663000Y-41492000D02*
X55663000Y-42361000D01*
X76173500Y-51562000D02*
X76173500Y-50011500D01*
X76173500Y-50011500D02*
X67056000Y-40894000D01*
X67056000Y-40894000D02*
X56261000Y-40894000D01*
X56261000Y-40894000D02*
X55663000Y-41492000D01*
X118304141Y-78037500D02*
X119947500Y-78037500D01*
X119947500Y-78037500D02*
X124400000Y-78037500D01*
%TO.N,Net-(SW3-Pad1)*%
X120777000Y-54991000D02*
X110354000Y-55000000D01*
X110354000Y-55000000D02*
X106000000Y-55000000D01*
%TO.N,V_BAT*%
X120000000Y-36053000D02*
X120015000Y-36068000D01*
X120000000Y-35000000D02*
X120000000Y-36053000D01*
%TO.N,GND*%
X131000000Y-53000000D02*
X133563000Y-53000000D01*
X133563000Y-53000000D02*
X133604000Y-52959000D01*
X133604000Y-38989000D02*
X133593000Y-39000000D01*
X133593000Y-39000000D02*
X131000000Y-39000000D01*
%TO.N,+5V*%
X125603000Y-25527000D02*
X125730000Y-25654000D01*
X125730000Y-25654000D02*
X131953000Y-25654000D01*
X131953000Y-40005000D02*
X131005000Y-40005000D01*
X131005000Y-40005000D02*
X131000000Y-40000000D01*
X121232000Y-23596500D02*
X125577500Y-23596500D01*
X125577500Y-23596500D02*
X125603000Y-23622000D01*
D44*
%TO.N,GND*%
X111647000Y-22483500D02*
X113923500Y-22483500D01*
D42*
%TO.N,V_BAT_SW*%
X116953000Y-21233500D02*
X114537500Y-21233500D01*
X116953000Y-20733500D02*
X116953000Y-21233500D01*
X114537500Y-21233500D02*
X114173000Y-21598000D01*
%TO.N,Net-(IC1-Pad3)*%
X124082500Y-20233500D02*
X124182500Y-20133500D01*
X121353000Y-20233500D02*
X124082500Y-20233500D01*
%TO.N,Net-(D1-Pad1)*%
X128284000Y-20133500D02*
X129300000Y-19117500D01*
D44*
%TO.N,GND*%
X112497000Y-20133500D02*
X111647000Y-20983500D01*
X113575500Y-20133500D02*
X112497000Y-20133500D01*
D42*
%TO.N,Net-(D1-Pad1)*%
X126007500Y-20133500D02*
X128284000Y-20133500D01*
%TO.N,Net-(D2-Pad1)*%
X125245500Y-22005500D02*
X128886000Y-22005500D01*
X128886000Y-22005500D02*
X129046000Y-22165500D01*
%TO.N,Net-(D3-Pad1)*%
X122856000Y-14799500D02*
X121332000Y-16323500D01*
X123966000Y-14799500D02*
X122856000Y-14799500D01*
%TO.N,Net-(IC1-Pad7)*%
X116953000Y-19733500D02*
X117907000Y-19733500D01*
%TO.N,Net-(IC1-Pad8)*%
X114870500Y-20233500D02*
X114770500Y-20133500D01*
D44*
%TO.N,+5V*%
X121285000Y-22721500D02*
X121285000Y-21301500D01*
X121285000Y-23630000D02*
X121285000Y-22721500D01*
X121285000Y-21301500D02*
X121353000Y-21233500D01*
%TO.N,GND*%
X126732000Y-14799500D02*
X131050000Y-19117500D01*
X131050000Y-21911500D02*
X130796000Y-22165500D01*
X113575500Y-18863500D02*
X113575500Y-20133500D01*
X128196500Y-24765000D02*
X130796000Y-22165500D01*
X121285000Y-24765000D02*
X128196500Y-24765000D01*
X113923500Y-22483500D02*
X114173000Y-22733000D01*
D42*
%TO.N,Net-(IC1-Pad7)*%
X117907000Y-19733500D02*
X119507000Y-18133500D01*
X119507000Y-18133500D02*
X119507000Y-16323500D01*
%TO.N,+5V*%
X121353000Y-20733500D02*
X121353000Y-21233500D01*
%TO.N,Net-(IC1-Pad8)*%
X116953000Y-20233500D02*
X114870500Y-20233500D01*
%TO.N,Net-(IC1-Pad6)*%
X116953000Y-19233500D02*
X115140500Y-19233500D01*
X115140500Y-19233500D02*
X114770500Y-18863500D01*
D44*
%TO.N,GND*%
X125716000Y-14799500D02*
X126732000Y-14799500D01*
D42*
X121353000Y-19162500D02*
X125716000Y-14799500D01*
D44*
X131050000Y-19117500D02*
X131050000Y-21911500D01*
D42*
X121353000Y-19233500D02*
X121353000Y-19162500D01*
D44*
X116205000Y-24765000D02*
X114173000Y-22733000D01*
D42*
%TO.N,USB_D-*%
X99568000Y-24003000D02*
X99750000Y-23821000D01*
X128000000Y-27067000D02*
X128016000Y-27051000D01*
X128000000Y-35000000D02*
X128000000Y-27067000D01*
X99750000Y-23821000D02*
X99750000Y-22920000D01*
X99568000Y-27051000D02*
X99568000Y-24003000D01*
%TO.N,USB_D+*%
X127000000Y-35000000D02*
X127000000Y-27686000D01*
X100250000Y-27589100D02*
X100250000Y-22920000D01*
X100153100Y-27686000D02*
X100250000Y-27589100D01*
%TO.N,Net-(J1-PadA5)*%
X100265500Y-29620000D02*
X100750000Y-29135500D01*
X100750000Y-29135500D02*
X100750000Y-22920000D01*
D44*
%TO.N,GND*%
X102235000Y-31115000D02*
X87757000Y-31115000D01*
D42*
X87757000Y-31115000D02*
X87700000Y-31172000D01*
X102750000Y-22920000D02*
X104443020Y-24613020D01*
X104443020Y-24613020D02*
X104443020Y-26630480D01*
X104443020Y-26630480D02*
X103464000Y-27609500D01*
%TO.N,+5V*%
X103464000Y-25534500D02*
X101250000Y-23320500D01*
X101250000Y-23320500D02*
X101250000Y-22920000D01*
%TO.N,GND*%
X103464000Y-27609500D02*
X106157000Y-27609500D01*
X106157000Y-27609500D02*
X107164000Y-26602500D01*
X102090500Y-29620000D02*
X102090500Y-28983000D01*
X102090500Y-28983000D02*
X103464000Y-27609500D01*
D44*
X102235000Y-31115000D02*
X102235000Y-29764500D01*
D42*
X102235000Y-29764500D02*
X102090500Y-29620000D01*
%TO.N,Net-(J3-Pad3)*%
X104267000Y-33528000D02*
X113195100Y-33528000D01*
X113195100Y-33528000D02*
X113411000Y-33743900D01*
X113411000Y-48006000D02*
X128016000Y-48006000D01*
X113411000Y-48006000D02*
X118745000Y-48006000D01*
%TO.N,Net-(J3-Pad4)*%
X114300000Y-46990000D02*
X128016000Y-46990000D01*
X104521000Y-33147000D02*
X114046000Y-33147000D01*
X114046000Y-33147000D02*
X114300000Y-33401000D01*
X114300000Y-46990000D02*
X118364000Y-46990000D01*
%TO.N,Net-(J3-Pad5)*%
X104688312Y-32766000D02*
X114935000Y-32766000D01*
X114935000Y-32766000D02*
X115189000Y-33020000D01*
X115189000Y-45974000D02*
X117896312Y-45974000D01*
X115189000Y-45974000D02*
X128016000Y-45974000D01*
%TO.N,Net-(D4-Pad2)*%
X127000000Y-39878000D02*
X108966000Y-39878000D01*
X108966000Y-39878000D02*
X109000000Y-39844000D01*
X109000000Y-39844000D02*
X109000000Y-35000000D01*
%TO.N,Net-(J3-Pad6)*%
X104775000Y-32385000D02*
X104846156Y-32385000D01*
X69596000Y-32385000D02*
X104775000Y-32385000D01*
X104775000Y-32385000D02*
X115739100Y-32385000D01*
X115739100Y-32385000D02*
X115951000Y-32596900D01*
X115951000Y-45085000D02*
X117546157Y-45085000D01*
X115951000Y-45085000D02*
X128016000Y-45085000D01*
%TO.N,Net-(J3-Pad7)*%
X116709000Y-32000000D02*
X116713000Y-32004000D01*
X105000000Y-32000000D02*
X116709000Y-32000000D01*
%TO.N,Net-(J3-Pad2)*%
X104013000Y-31369000D02*
X118999000Y-31369000D01*
X118999000Y-31369000D02*
X118999000Y-32131000D01*
X64908989Y-39104011D02*
X69215000Y-34798000D01*
X61564011Y-39104011D02*
X64908989Y-39104011D01*
X60460000Y-38000000D02*
X61564011Y-39104011D01*
X69215000Y-34798000D02*
X104013000Y-34798000D01*
%TO.N,GND*%
X87287100Y-33909000D02*
X87503000Y-34124900D01*
X67183000Y-33909000D02*
X87287100Y-33909000D01*
X63000000Y-38000000D02*
X67091000Y-33909000D01*
X67091000Y-33909000D02*
X67183000Y-33909000D01*
X87503000Y-34124900D02*
X87700000Y-33927900D01*
%TO.N,Net-(J3-Pad2)*%
X118999000Y-32131000D02*
X119000000Y-32132000D01*
X119000000Y-32132000D02*
X119000000Y-35000000D01*
%TO.N,GND*%
X62935000Y-42361000D02*
X62992000Y-42418000D01*
X58639000Y-42361000D02*
X62935000Y-42361000D01*
%TO.N,V_BAT*%
X125946686Y-97815814D02*
X130486750Y-93275750D01*
X130486750Y-93275750D02*
X131500000Y-92262500D01*
X130175000Y-92964000D02*
X130486750Y-93275750D01*
X130175000Y-92329000D02*
X130175000Y-92964000D01*
X124400000Y-78037500D02*
X130115500Y-78037500D01*
X130115500Y-78037500D02*
X130175000Y-77978000D01*
X131433500Y-92329000D02*
X131500000Y-92262500D01*
%TO.N,GND*%
X130810000Y-79756000D02*
X130803500Y-79762500D01*
X130803500Y-79762500D02*
X124400000Y-79762500D01*
X131000000Y-58000000D02*
X131000000Y-58992000D01*
X131000000Y-58992000D02*
X130937000Y-59055000D01*
X131000000Y-58000000D02*
X131257220Y-58000000D01*
X131257220Y-58000000D02*
X131754011Y-57503209D01*
X131754011Y-57503209D02*
X131754011Y-53554011D01*
X131754011Y-53554011D02*
X131200000Y-53000000D01*
X131200000Y-53000000D02*
X131000000Y-53000000D01*
%TO.N,Net-(SW5-Pad1)*%
X86142716Y-62230000D02*
X89154000Y-62230000D01*
X84455000Y-60542284D02*
X86142716Y-62230000D01*
X84455000Y-60198000D02*
X84455000Y-60542284D01*
X61000000Y-57589000D02*
X62015999Y-58604999D01*
X62015999Y-58604999D02*
X82861999Y-58604999D01*
X82861999Y-58604999D02*
X84455000Y-60198000D01*
X89154000Y-62230000D02*
X129628900Y-62230000D01*
X129628900Y-51054000D02*
X130946000Y-51054000D01*
X130946000Y-51054000D02*
X131000000Y-51000000D01*
%TO.N,GND*%
X81070031Y-56946689D02*
X80612720Y-57404000D01*
X81070031Y-55915469D02*
X81070031Y-56946689D01*
X81311000Y-55674500D02*
X81070031Y-55915469D01*
X80612720Y-57404000D02*
X77470000Y-57404000D01*
X81915000Y-55674500D02*
X81311000Y-55674500D01*
X56000000Y-55489000D02*
X56000000Y-52793921D01*
X56000000Y-52793921D02*
X61228989Y-47564932D01*
X61228989Y-47564932D02*
X61228989Y-47029011D01*
X61228989Y-47029011D02*
X61833000Y-46425000D01*
X103251000Y-49022000D02*
X103146000Y-49000000D01*
X103146000Y-49000000D02*
X106000000Y-49000000D01*
X81915000Y-55674500D02*
X103172500Y-55674500D01*
X103172500Y-55674500D02*
X103251000Y-55753000D01*
%TO.N,Net-(SW7-Pad1)*%
X40000000Y-64900000D02*
X43270011Y-68170011D01*
X43270011Y-68170011D02*
X129003011Y-68170011D01*
X129003011Y-68170011D02*
X129032000Y-68199000D01*
X129032000Y-49022000D02*
X130978000Y-49022000D01*
X130978000Y-49022000D02*
X131000000Y-49000000D01*
%TO.N,GND*%
X40984000Y-53658500D02*
X40379989Y-54262511D01*
X40379989Y-55251011D02*
X35000000Y-60631000D01*
X40379989Y-54262511D02*
X40379989Y-55251011D01*
X35000000Y-60631000D02*
X35000000Y-62800000D01*
X20955000Y-63691500D02*
X20350989Y-64295511D01*
X20350989Y-64295511D02*
X20350989Y-65344709D01*
X25719000Y-62800000D02*
X35000000Y-62800000D01*
X20350989Y-65344709D02*
X20401791Y-65395511D01*
X20401791Y-65395511D02*
X23123489Y-65395511D01*
X23123489Y-65395511D02*
X25719000Y-62800000D01*
%TO.N,V_BAT*%
X21820000Y-36750000D02*
X16891000Y-41679000D01*
X16891000Y-41679000D02*
X16891000Y-49530000D01*
X19125000Y-64791500D02*
X17885500Y-64791500D01*
X17885500Y-64791500D02*
X16891000Y-65786000D01*
X16891000Y-49530000D02*
X16907000Y-49546000D01*
X16907000Y-49546000D02*
X35369500Y-49546000D01*
X35369500Y-49546000D02*
X35369500Y-50021000D01*
X35369500Y-50021000D02*
X38402989Y-53054489D01*
X38402989Y-53054489D02*
X39707209Y-53054489D01*
X39707209Y-53054489D02*
X39758011Y-53105291D01*
X39758011Y-53105291D02*
X39758011Y-54758489D01*
X39758011Y-54758489D02*
X39758000Y-54758500D01*
X39758000Y-54758500D02*
X39154000Y-54758500D01*
%TO.N,GND*%
X37094500Y-49546000D02*
X40984000Y-53435500D01*
X40984000Y-53435500D02*
X40984000Y-53658500D01*
X57388000Y-42361000D02*
X58639000Y-42361000D01*
X57388000Y-42361000D02*
X57769000Y-42361000D01*
X57769000Y-42361000D02*
X61833000Y-46425000D01*
%TO.N,V_BAT*%
X55663000Y-42361000D02*
X55663000Y-42836000D01*
X55663000Y-42836000D02*
X58647989Y-45820989D01*
X58647989Y-45820989D02*
X60556209Y-45820989D01*
X60556209Y-45820989D02*
X60607011Y-45871791D01*
X60607011Y-45871791D02*
X60607011Y-46920989D01*
X60607011Y-46920989D02*
X60003000Y-47525000D01*
%TO.N,GND*%
X77898500Y-51562000D02*
X81915000Y-55578500D01*
X81915000Y-55578500D02*
X81915000Y-55674500D01*
%TO.N,V_BAT*%
X76173500Y-51562000D02*
X79681989Y-55070489D01*
X79681989Y-55070489D02*
X80638209Y-55070489D01*
X80638209Y-55070489D02*
X80689011Y-55121291D01*
X80689011Y-55121291D02*
X80689011Y-56170489D01*
X80689011Y-56170489D02*
X80085000Y-56774500D01*
%TO.N,Net-(SW4-Pad1)*%
X81048000Y-66900000D02*
X128329900Y-66900000D01*
X128329900Y-66900000D02*
X128358900Y-66929000D01*
X128397000Y-57023000D02*
X128420000Y-57000000D01*
X128420000Y-57000000D02*
X131000000Y-57000000D01*
%TO.N,Net-(SW2-Pad1)*%
X104521000Y-56007000D02*
X105993000Y-56007000D01*
X105993000Y-56007000D02*
X106000000Y-56000000D01*
%TO.N,Net-(SW6-Pad1)*%
X127762000Y-50038000D02*
X127800000Y-50000000D01*
X127800000Y-50000000D02*
X131000000Y-50000000D01*
X95661000Y-74900000D02*
X127732000Y-74900000D01*
X127732000Y-74900000D02*
X127762000Y-74930000D01*
%TO.N,Net-(D6-Pad4)*%
X91899079Y-59895079D02*
X85035579Y-59895079D01*
X92026079Y-59895079D02*
X91899079Y-59895079D01*
X91899079Y-59895079D02*
X108282079Y-59895079D01*
X109220000Y-80010000D02*
X109232968Y-80010000D01*
X108282079Y-59895079D02*
X109220000Y-60833000D01*
X109474000Y-80264000D02*
X109607484Y-80384516D01*
X109607484Y-80384516D02*
X112088686Y-82624686D01*
X109232968Y-80010000D02*
X109607484Y-80384516D01*
X112088686Y-82624686D02*
X114012587Y-82624686D01*
%TO.N,Net-(D4-Pad2)*%
X127000000Y-94108227D02*
X125129020Y-95979207D01*
X127000000Y-88646000D02*
X127000000Y-94108227D01*
X127000000Y-94108227D02*
X124207413Y-96900814D01*
%TO.N,Net-(SW6-Pad1)*%
X20000000Y-74900000D02*
X95661000Y-74900000D01*
%TO.N,GND*%
X20350989Y-64295511D02*
X20350989Y-65735599D01*
X20350989Y-65735599D02*
X15000000Y-71086588D01*
X15000000Y-71086588D02*
X15000000Y-72800000D01*
%TO.N,V_BAT*%
X19125000Y-64791500D02*
X15213500Y-60880000D01*
X15213500Y-60880000D02*
X15213500Y-59452000D01*
%TO.N,GND*%
X20955000Y-63691500D02*
X20955000Y-63468500D01*
X20955000Y-63468500D02*
X16938500Y-59452000D01*
%TO.N,Net-(D10-Pad2)*%
X22965500Y-64791500D02*
X20955000Y-64791500D01*
X39154000Y-53658500D02*
X34098500Y-53658500D01*
X34098500Y-53658500D02*
X22965500Y-64791500D01*
%TO.N,Net-(D8-Pad4)*%
X43031500Y-54758500D02*
X40984000Y-54758500D01*
X44577000Y-53213000D02*
X43031500Y-54758500D01*
X60003000Y-46425000D02*
X53905000Y-46425000D01*
X53905000Y-46425000D02*
X47117000Y-53213000D01*
X47117000Y-53213000D02*
X44577000Y-53213000D01*
%TO.N,Net-(D7-Pad4)*%
X80085000Y-55674500D02*
X72120784Y-55674500D01*
X63971284Y-47525000D02*
X61833000Y-47525000D01*
X72120784Y-55674500D02*
X63971284Y-47525000D01*
%TO.N,Net-(D6-Pad4)*%
X85035579Y-59895079D02*
X81915000Y-56774500D01*
%TO.N,Net-(SW1-Pad1)*%
X110363000Y-60833000D02*
X107530000Y-58000000D01*
X128516000Y-106061550D02*
X126127550Y-106061550D01*
X126127550Y-106061550D02*
X121031000Y-100965000D01*
X107530000Y-58000000D02*
X106000000Y-58000000D01*
%TO.N,GND*%
X123135873Y-106742897D02*
X122119874Y-105726898D01*
X122119874Y-105726898D02*
X108225872Y-105726898D01*
X108225872Y-105726898D02*
X105721873Y-108230897D01*
%TO.N,Net-(SW3-Pad1)*%
X120530000Y-91953050D02*
X120530000Y-89034000D01*
X120530000Y-89034000D02*
X120523000Y-89027000D01*
%TO.N,V_BAT*%
X114562587Y-83577314D02*
X114818805Y-83321096D01*
X114818805Y-83321096D02*
X114818805Y-81522836D01*
X114818805Y-81522836D02*
X118304141Y-78037500D01*
%TO.N,GND*%
X124400000Y-79762500D02*
X124400000Y-80246485D01*
X124400000Y-80246485D02*
X119548521Y-85097964D01*
X115597413Y-81709686D02*
X116160243Y-81709686D01*
X116160243Y-81709686D02*
X119548521Y-85097964D01*
X119548521Y-85097964D02*
X119548521Y-88235749D01*
X119548521Y-88235749D02*
X115149873Y-92634397D01*
%TO.N,V_BAT*%
X105337500Y-92200000D02*
X113960186Y-83577314D01*
X113960186Y-83577314D02*
X114562587Y-83577314D01*
%TO.N,GND*%
X108204000Y-96266000D02*
X107417599Y-96266000D01*
X107417599Y-96266000D02*
X106317413Y-97366186D01*
X107440000Y-92200000D02*
X108204000Y-92964000D01*
X107062500Y-92200000D02*
X107440000Y-92200000D01*
%TO.N,Net-(D5-Pad4)*%
X104732587Y-98281186D02*
X104732587Y-97877041D01*
X104732587Y-97877041D02*
X111911207Y-90698421D01*
X111911207Y-90698421D02*
X113347223Y-90698421D01*
X113347223Y-90698421D02*
X115611479Y-88434165D01*
X115611479Y-88434165D02*
X115611479Y-83198248D01*
X115611479Y-83198248D02*
X116147413Y-82662314D01*
%TO.N,GND*%
X105721873Y-108230897D02*
X106014716Y-107938054D01*
X106014716Y-107938054D02*
X106014716Y-97668883D01*
X106014716Y-97668883D02*
X106317413Y-97366186D01*
%TO.N,V_BAT*%
X105285000Y-92200000D02*
X105337500Y-92200000D01*
X105282587Y-99233814D02*
X102789814Y-99233814D01*
X102789814Y-99233814D02*
X102362000Y-98806000D01*
X102362000Y-98806000D02*
X102362000Y-95123000D01*
X102362000Y-95123000D02*
X105285000Y-92200000D01*
%TO.N,Net-(D4-Pad4)*%
X106867413Y-98318814D02*
X120616959Y-98318814D01*
X120616959Y-98318814D02*
X122072587Y-96863186D01*
%TO.N,GND*%
X123657413Y-95948186D02*
X123657413Y-94274587D01*
X123657413Y-94274587D02*
X123657413Y-93076707D01*
X115149873Y-92634397D02*
X116790063Y-94274587D01*
X116790063Y-94274587D02*
X123657413Y-94274587D01*
X123657413Y-93076707D02*
X124532120Y-92202000D01*
X129540000Y-90678000D02*
X131359500Y-90678000D01*
X131359500Y-90678000D02*
X131500000Y-90537500D01*
%TO.N,V_BAT*%
X122622587Y-97815814D02*
X125946686Y-97815814D01*
%TO.N,GND*%
X109474000Y-45726000D02*
X109474000Y-42164000D01*
X106310000Y-39000000D02*
X106000000Y-39000000D01*
X106200000Y-49000000D02*
X109474000Y-45726000D01*
X106000000Y-49000000D02*
X106200000Y-49000000D01*
X109474000Y-42164000D02*
X106310000Y-39000000D01*
X121793000Y-39007000D02*
X121800000Y-39000000D01*
X118000000Y-35000000D02*
X118000000Y-35200000D01*
X118000000Y-35200000D02*
X121800000Y-39000000D01*
X121800000Y-39000000D02*
X131000000Y-39000000D01*
%TO.N,Net-(J3-Pad3)*%
X63373000Y-33528000D02*
X104267000Y-33528000D01*
X57920000Y-38000000D02*
X62392000Y-33528000D01*
X62392000Y-33528000D02*
X63373000Y-33528000D01*
X128022000Y-48000000D02*
X131000000Y-48000000D01*
%TO.N,Net-(J3-Pad4)*%
X128026000Y-47000000D02*
X131000000Y-47000000D01*
X60233000Y-33147000D02*
X65278000Y-33147000D01*
X55380000Y-38000000D02*
X60233000Y-33147000D01*
X65278000Y-33147000D02*
X104521000Y-33147000D01*
%TO.N,Net-(J3-Pad5)*%
X128042000Y-46000000D02*
X131000000Y-46000000D01*
X60198000Y-32766000D02*
X104688312Y-32766000D01*
X52840000Y-38000000D02*
X58074000Y-32766000D01*
X58074000Y-32766000D02*
X60198000Y-32766000D01*
%TO.N,Net-(J3-Pad6)*%
X128101000Y-45000000D02*
X131000000Y-45000000D01*
X50300000Y-38000000D02*
X55915000Y-32385000D01*
X55915000Y-32385000D02*
X69596000Y-32385000D01*
%TO.N,Net-(J3-Pad7)*%
X117000000Y-44000000D02*
X128000000Y-44000000D01*
X53760000Y-32000000D02*
X104000000Y-32000000D01*
X47760000Y-38000000D02*
X53760000Y-32000000D01*
X104000000Y-32000000D02*
X105000000Y-32000000D01*
X128000000Y-44000000D02*
X131000000Y-44000000D01*
D44*
%TO.N,V_BAT_SW*%
X15700000Y-22600000D02*
X15700000Y-35250000D01*
X15700000Y-35250000D02*
X14200000Y-36750000D01*
D42*
%TO.N,SWDCLK*%
X102200000Y-44800000D02*
X102200000Y-45180000D01*
X106000000Y-42000000D02*
X105000000Y-42000000D01*
X105000000Y-42000000D02*
X102200000Y-44800000D01*
%TO.N,SWDIO*%
X106000000Y-41000000D02*
X103840000Y-41000000D01*
X103840000Y-41000000D02*
X102200000Y-42640000D01*
%TO.N,RST*%
X106000000Y-40000000D02*
X102300000Y-40000000D01*
X102300000Y-40000000D02*
X102200000Y-40100000D01*
%TO.N,GND*%
X106000000Y-39000000D02*
X103640000Y-39000000D01*
X103640000Y-39000000D02*
X102200000Y-37560000D01*
%TD*%
M02*
