%TF.GenerationSoftware,KiCad,Pcbnew,(5.99.0-9634-gb691c18bfc)*%
%TF.CreationDate,2021-03-09T21:57:16+01:00*%
%TF.ProjectId,keychordz,6b657963-686f-4726-947a-2e6b69636164,rev?*%
%TF.SameCoordinates,Original*%
%TF.FileFunction,Copper,L2,Bot*%
%TF.FilePolarity,Positive*%
%FSLAX46Y46*%
G04 Gerber Fmt 4.6, Leading zero omitted, Abs format (unit mm)*
G04 Created by KiCad (PCBNEW (5.99.0-9634-gb691c18bfc)) date 2021-03-09 21:57:16*
%MOMM*%
%LPD*%
G01*
G04 APERTURE LIST*
%TA.AperFunction,ComponentPad*%
%ADD10C,2.010000*%
%TD*%
%TA.AperFunction,ComponentPad*%
%ADD11C,0.550000*%
%TD*%
%TA.AperFunction,ComponentPad*%
%ADD12C,0.650000*%
%TD*%
%TA.AperFunction,ComponentPad*%
%ADD13C,0.800000*%
%TD*%
%TA.AperFunction,ComponentPad*%
%ADD14C,6.400000*%
%TD*%
%TA.AperFunction,ComponentPad*%
%ADD15R,1.600000X1.600000*%
%TD*%
%TA.AperFunction,ComponentPad*%
%ADD16O,1.600000X1.600000*%
%TD*%
%TA.AperFunction,ComponentPad*%
%ADD17C,2.032000*%
%TD*%
%TA.AperFunction,ComponentPad*%
%ADD18R,1.700000X1.700000*%
%TD*%
%TA.AperFunction,ComponentPad*%
%ADD19O,1.700000X1.700000*%
%TD*%
%TA.AperFunction,ComponentPad*%
%ADD20R,3.500000X3.500000*%
%TD*%
%TA.AperFunction,ComponentPad*%
%ADD21C,3.500000*%
%TD*%
%TA.AperFunction,ViaPad*%
%ADD22C,0.889000*%
%TD*%
%TA.AperFunction,ViaPad*%
%ADD23C,0.685800*%
%TD*%
%TA.AperFunction,Conductor*%
%ADD24C,0.254000*%
%TD*%
%TA.AperFunction,Conductor*%
%ADD25C,0.127000*%
%TD*%
%TA.AperFunction,Conductor*%
%ADD26C,0.508000*%
%TD*%
G04 APERTURE END LIST*
D10*
%TO.P,J1,MH4*%
%TO.N,N/C*%
X95730000Y-16250000D03*
%TO.P,J1,MH3*%
X104270000Y-16250000D03*
%TO.P,J1,MH2*%
X95730000Y-20980000D03*
%TO.P,J1,MH1*%
X104270000Y-20980000D03*
D11*
%TO.P,J1,GR1*%
X102000000Y-22130000D03*
%TO.P,J1,GN1*%
X98000000Y-22130000D03*
D12*
%TO.P,J1,B12*%
X102800000Y-22130000D03*
%TO.P,J1,B11*%
X102400000Y-21420000D03*
%TO.P,J1,B10*%
X101600000Y-21420000D03*
%TO.P,J1,B9*%
X101200000Y-22130000D03*
%TO.P,J1,B8,SBU2*%
%TO.N,unconnected-(J1-PadB8)*%
X100800000Y-21420000D03*
%TO.P,J1,B7,D-*%
%TO.N,USB_D-*%
X100400000Y-22130000D03*
%TO.P,J1,B6,D+*%
%TO.N,USB_D+*%
X99600000Y-22130000D03*
%TO.P,J1,B5,CC2*%
%TO.N,Net-(J1-PadB5)*%
X99200000Y-21420000D03*
%TO.P,J1,B4*%
%TO.N,N/C*%
X98800000Y-22130000D03*
%TO.P,J1,B3*%
X98400000Y-21420000D03*
%TO.P,J1,B2*%
X97600000Y-21420000D03*
%TO.P,J1,B1*%
X97200000Y-22130000D03*
%TD*%
D13*
%TO.P,MNT1,1*%
%TO.N,N/C*%
X87697056Y-104697056D03*
X83600000Y-103000000D03*
X84302944Y-104697056D03*
X84302944Y-101302944D03*
X86000000Y-105400000D03*
X86000000Y-100600000D03*
X88400000Y-103000000D03*
D14*
X86000000Y-103000000D03*
D13*
X87697056Y-101302944D03*
%TD*%
%TO.P,MNT2,1*%
%TO.N,N/C*%
X56400000Y-103000000D03*
X54000000Y-105400000D03*
X52302944Y-104697056D03*
X52302944Y-101302944D03*
X54000000Y-100600000D03*
X51600000Y-103000000D03*
D14*
X54000000Y-103000000D03*
D13*
X55697056Y-101302944D03*
X55697056Y-104697056D03*
%TD*%
D14*
%TO.P,MNT3,1*%
%TO.N,N/C*%
X22000000Y-103000000D03*
D13*
X19600000Y-103000000D03*
X20302944Y-104697056D03*
X22000000Y-105400000D03*
X24400000Y-103000000D03*
X20302944Y-101302944D03*
X23697056Y-104697056D03*
X23697056Y-101302944D03*
X22000000Y-100600000D03*
%TD*%
D15*
%TO.P,SW9,2,B*%
%TO.N,V_BAT_SW*%
X14200000Y-36750000D03*
D16*
%TO.P,SW9,4*%
%TO.N,N/C*%
X14200000Y-39290000D03*
%TO.P,SW9,3*%
X21820000Y-39290000D03*
%TO.P,SW9,1,A*%
%TO.N,V_BAT*%
X21820000Y-36750000D03*
%TD*%
D17*
%TO.P,SW1,1,1*%
%TO.N,Net-(SW1-Pad1)*%
X128516000Y-106061550D03*
%TO.P,SW1,2,2*%
%TO.N,GND*%
X123135873Y-106742897D03*
%TD*%
%TO.P,SW5,1,1*%
%TO.N,Net-(SW5-Pad1)*%
X61000000Y-57589000D03*
%TO.P,SW5,2,2*%
%TO.N,GND*%
X56000000Y-55489000D03*
%TD*%
%TO.P,SW6,1,1*%
%TO.N,Net-(SW6-Pad1)*%
X20000000Y-74900000D03*
%TO.P,SW6,2,2*%
%TO.N,GND*%
X15000000Y-72800000D03*
%TD*%
%TO.P,SW2,1,1*%
%TO.N,Net-(SW2-Pad1)*%
X111102000Y-107549550D03*
%TO.P,SW2,2,2*%
%TO.N,GND*%
X105721873Y-108230897D03*
%TD*%
D18*
%TO.P,J2,1,Pin_1*%
%TO.N,SWDCLK*%
X102200000Y-45180000D03*
D19*
%TO.P,J2,2,Pin_2*%
%TO.N,SWDIO*%
X102200000Y-42640000D03*
%TO.P,J2,3,Pin_3*%
%TO.N,RST*%
X102200000Y-40100000D03*
%TO.P,J2,4,Pin_4*%
%TO.N,GND*%
X102200000Y-37560000D03*
%TD*%
D17*
%TO.P,SW7,1,1*%
%TO.N,Net-(SW7-Pad1)*%
X40000000Y-64900000D03*
%TO.P,SW7,2,2*%
%TO.N,GND*%
X35000000Y-62800000D03*
%TD*%
%TO.P,SW3,1,1*%
%TO.N,Net-(SW3-Pad1)*%
X120530000Y-91953050D03*
%TO.P,SW3,2,2*%
%TO.N,GND*%
X115149873Y-92634397D03*
%TD*%
D20*
%TO.P,BT1,1,+*%
%TO.N,V_BAT_SW*%
X15700000Y-22600000D03*
D21*
%TO.P,BT1,2,-*%
%TO.N,GND*%
X87700000Y-22600000D03*
%TD*%
D17*
%TO.P,SW4,1,1*%
%TO.N,Net-(SW4-Pad1)*%
X81048000Y-66900000D03*
%TO.P,SW4,2,2*%
%TO.N,GND*%
X76048000Y-64800000D03*
%TD*%
D18*
%TO.P,J3,1,Pin_1*%
%TO.N,GND*%
X63000000Y-38000000D03*
D19*
%TO.P,J3,2,Pin_2*%
%TO.N,Net-(J3-Pad2)*%
X60460000Y-38000000D03*
%TO.P,J3,3,Pin_3*%
%TO.N,Net-(J3-Pad3)*%
X57920000Y-38000000D03*
%TO.P,J3,4,Pin_4*%
%TO.N,Net-(J3-Pad4)*%
X55380000Y-38000000D03*
%TO.P,J3,5,Pin_5*%
%TO.N,Net-(J3-Pad5)*%
X52840000Y-38000000D03*
%TO.P,J3,6,Pin_6*%
%TO.N,Net-(J3-Pad6)*%
X50300000Y-38000000D03*
%TO.P,J3,7,Pin_7*%
%TO.N,Net-(J3-Pad7)*%
X47760000Y-38000000D03*
%TD*%
D22*
%TO.N,V_BAT*%
X98679000Y-30099000D03*
X103759000Y-30099000D03*
D23*
%TO.N,Net-(IC1-Pad4)*%
X122174000Y-22733000D03*
X123063000Y-18923000D03*
%TO.N,GND*%
X117856000Y-28448000D03*
X117983000Y-31965900D03*
%TO.N,+5V*%
X120142000Y-23749000D03*
X103251000Y-24384000D03*
%TO.N,V_BAT*%
X119947500Y-78037500D03*
X120015000Y-36068000D03*
%TO.N,GND*%
X133604000Y-38989000D03*
X133604000Y-52959000D03*
%TO.N,+5V*%
X131953000Y-40005000D03*
X131953000Y-25654000D03*
X125603000Y-23622000D03*
X125603000Y-25527000D03*
%TO.N,GND*%
X111647000Y-22483500D03*
X111647000Y-20983500D03*
%TO.N,USB_D-*%
X128016000Y-27051000D03*
X99568000Y-27051000D03*
%TO.N,USB_D+*%
X100153100Y-27686000D03*
X127000000Y-27686000D03*
%TO.N,GND*%
X87700000Y-31172000D03*
X102235000Y-31115000D03*
%TO.N,Net-(J3-Pad3)*%
X113411000Y-48006000D03*
X113411000Y-33743900D03*
%TO.N,Net-(J3-Pad4)*%
X114300000Y-46990000D03*
X114300000Y-33401000D03*
%TO.N,Net-(J3-Pad5)*%
X115189000Y-45974000D03*
X115189000Y-33020000D03*
%TO.N,Net-(D4-Pad2)*%
X127000000Y-39878000D03*
%TO.N,Net-(J3-Pad6)*%
X115951000Y-45085000D03*
X115951000Y-32596900D03*
%TO.N,Net-(J3-Pad7)*%
X116713000Y-32004000D03*
X116901356Y-43787060D03*
%TO.N,Net-(J3-Pad2)*%
X104013000Y-34798000D03*
X104013000Y-31369000D03*
%TO.N,GND*%
X87503000Y-34124900D03*
X62992000Y-42418000D03*
%TO.N,V_BAT*%
X130175000Y-92329000D03*
X130175000Y-77978000D03*
%TO.N,GND*%
X130937000Y-59055000D03*
X130810000Y-79756000D03*
%TO.N,Net-(SW5-Pad1)*%
X129628900Y-51054000D03*
X129628900Y-62230000D03*
%TO.N,GND*%
X77470000Y-57404000D03*
X103251000Y-49022000D03*
X103251000Y-55753000D03*
%TO.N,Net-(SW7-Pad1)*%
X129032000Y-49022000D03*
X129032000Y-68199000D03*
%TO.N,V_BAT*%
X16891000Y-49530000D03*
X16891000Y-65786000D03*
%TO.N,Net-(SW4-Pad1)*%
X128397000Y-57023000D03*
X128358900Y-66929000D03*
%TO.N,Net-(SW6-Pad1)*%
X127762000Y-50038000D03*
X127762000Y-74930000D03*
%TO.N,Net-(D6-Pad4)*%
X109220000Y-80010000D03*
X109220000Y-60833000D03*
%TO.N,Net-(SW2-Pad1)*%
X104521000Y-56007000D03*
%TO.N,Net-(D4-Pad2)*%
X127000000Y-88646000D03*
%TO.N,Net-(SW1-Pad1)*%
X110363000Y-60833000D03*
X121031000Y-100965000D03*
%TO.N,Net-(SW3-Pad1)*%
X120777000Y-54991000D03*
X120523000Y-89027000D03*
%TO.N,GND*%
X108204000Y-96266000D03*
X108204000Y-92964000D03*
X129540000Y-90678000D03*
X124532120Y-92202000D03*
%TD*%
D24*
%TO.N,USB_D-*%
X128016000Y-27051000D02*
X100457000Y-27051000D01*
X100457000Y-27051000D02*
X100076000Y-27051000D01*
D25*
X100400000Y-22130000D02*
X100400000Y-26994000D01*
X100400000Y-26994000D02*
X100457000Y-27051000D01*
D26*
%TO.N,V_BAT*%
X98679000Y-30099000D02*
X103759000Y-30099000D01*
D24*
%TO.N,Net-(IC1-Pad4)*%
X123063000Y-21844000D02*
X122174000Y-22733000D01*
X123063000Y-18923000D02*
X123063000Y-21844000D01*
%TO.N,GND*%
X117983000Y-28575000D02*
X117856000Y-28448000D01*
X117983000Y-31965900D02*
X117983000Y-28575000D01*
%TO.N,+5V*%
X103251000Y-24384000D02*
X119507000Y-24384000D01*
X119507000Y-24384000D02*
X120142000Y-23749000D01*
%TO.N,V_BAT*%
X120015000Y-36068000D02*
X120015000Y-77970000D01*
X120015000Y-77970000D02*
X119947500Y-78037500D01*
%TO.N,Net-(SW3-Pad1)*%
X120777000Y-54991000D02*
X120749974Y-65377974D01*
X120749974Y-65377974D02*
X120749974Y-82000562D01*
X120749974Y-82000562D02*
X120523000Y-82227536D01*
X120523000Y-82227536D02*
X120523000Y-89027000D01*
%TO.N,GND*%
X133604000Y-52959000D02*
X133604000Y-38989000D01*
%TO.N,+5V*%
X131953000Y-25654000D02*
X131953000Y-40005000D01*
X125603000Y-23622000D02*
X125603000Y-25527000D01*
D26*
%TO.N,GND*%
X111647000Y-20983500D02*
X111647000Y-22483500D01*
D24*
%TO.N,USB_D-*%
X100076000Y-27051000D02*
X99568000Y-27051000D01*
%TO.N,USB_D+*%
X127000000Y-27686000D02*
X100153100Y-27686000D01*
%TO.N,GND*%
X87700000Y-33927900D02*
X87700000Y-31172000D01*
D26*
X87700000Y-31172000D02*
X87700000Y-22600000D01*
D24*
X102200000Y-31150000D02*
X102235000Y-31115000D01*
X102200000Y-37560000D02*
X102200000Y-31150000D01*
%TO.N,Net-(J3-Pad3)*%
X113411000Y-33743900D02*
X113411000Y-48006000D01*
%TO.N,Net-(J3-Pad4)*%
X114300000Y-33401000D02*
X114300000Y-46990000D01*
%TO.N,Net-(J3-Pad5)*%
X115189000Y-33020000D02*
X115189000Y-45974000D01*
%TO.N,Net-(D4-Pad2)*%
X127000000Y-57150000D02*
X127000000Y-39878000D01*
%TO.N,Net-(J3-Pad6)*%
X115951000Y-32596900D02*
X115951000Y-45085000D01*
%TO.N,Net-(J3-Pad7)*%
X116713000Y-32004000D02*
X116713000Y-43598704D01*
X116713000Y-43598704D02*
X116901356Y-43787060D01*
%TO.N,Net-(J3-Pad2)*%
X104013000Y-34798000D02*
X104013000Y-31369000D01*
%TO.N,GND*%
X62992000Y-42418000D02*
X63000000Y-42410000D01*
X63000000Y-42410000D02*
X63000000Y-38000000D01*
%TO.N,V_BAT*%
X130175000Y-77978000D02*
X130175000Y-92329000D01*
%TO.N,GND*%
X130810000Y-59182000D02*
X130810000Y-79756000D01*
X130937000Y-59055000D02*
X130810000Y-59182000D01*
%TO.N,Net-(SW5-Pad1)*%
X129628900Y-62230000D02*
X129628900Y-51054000D01*
%TO.N,GND*%
X77470000Y-63378000D02*
X76048000Y-64800000D01*
X77470000Y-57404000D02*
X77470000Y-63378000D01*
X103251000Y-49022000D02*
X103251000Y-55753000D01*
%TO.N,Net-(SW7-Pad1)*%
X129032000Y-68199000D02*
X129032000Y-49022000D01*
%TO.N,V_BAT*%
X16891000Y-65786000D02*
X16891000Y-49530000D01*
%TO.N,Net-(SW4-Pad1)*%
X128358900Y-66929000D02*
X128397000Y-66890900D01*
X128397000Y-66890900D02*
X128397000Y-57023000D01*
%TO.N,Net-(SW2-Pad1)*%
X104521000Y-56007000D02*
X104493781Y-56487781D01*
X104493781Y-56487781D02*
X104493781Y-105763781D01*
X104493781Y-105763781D02*
X105029000Y-106299000D01*
X105029000Y-106299000D02*
X109851450Y-106299000D01*
X109851450Y-106299000D02*
X111102000Y-107549550D01*
%TO.N,Net-(SW6-Pad1)*%
X127762000Y-74930000D02*
X127762000Y-50038000D01*
%TO.N,Net-(D6-Pad4)*%
X109220000Y-60833000D02*
X109220000Y-80010000D01*
%TO.N,Net-(D4-Pad2)*%
X127000000Y-57150000D02*
X127000000Y-88646000D01*
%TO.N,Net-(SW1-Pad1)*%
X110363000Y-82539912D02*
X110363000Y-60833000D01*
X116635109Y-96569109D02*
X116635109Y-88812021D01*
X121031000Y-100965000D02*
X116635109Y-96569109D01*
X116635109Y-88812021D02*
X110363000Y-82539912D01*
%TO.N,GND*%
X108204000Y-92964000D02*
X108204000Y-96266000D01*
X108204000Y-92964000D02*
X108533603Y-92634397D01*
X108533603Y-92634397D02*
X115149873Y-92634397D01*
X126056120Y-90678000D02*
X129540000Y-90678000D01*
X124532120Y-92202000D02*
X126056120Y-90678000D01*
%TD*%
M02*
