%TF.GenerationSoftware,KiCad,Pcbnew,(5.99.0-9634-gb691c18bfc)*%
%TF.CreationDate,2021-03-09T21:57:17+01:00*%
%TF.ProjectId,keychordz,6b657963-686f-4726-947a-2e6b69636164,rev?*%
%TF.SameCoordinates,Original*%
%TF.FileFunction,Legend,Top*%
%TF.FilePolarity,Positive*%
%FSLAX46Y46*%
G04 Gerber Fmt 4.6, Leading zero omitted, Abs format (unit mm)*
G04 Created by KiCad (PCBNEW (5.99.0-9634-gb691c18bfc)) date 2021-03-09 21:57:17*
%MOMM*%
%LPD*%
G01*
G04 APERTURE LIST*
%ADD10C,0.152400*%
%ADD11C,0.300000*%
%ADD12C,0.304800*%
%ADD13C,0.254000*%
%ADD14C,0.150000*%
%ADD15C,0.200000*%
%ADD16C,0.100000*%
%ADD17C,0.120000*%
G04 APERTURE END LIST*
D10*
X56931076Y-35673695D02*
X56931076Y-34860895D01*
X57395533Y-35673695D02*
X57047190Y-35209238D01*
X57395533Y-34860895D02*
X56931076Y-35325352D01*
X57705171Y-34938304D02*
X57743876Y-34899600D01*
X57821285Y-34860895D01*
X58014809Y-34860895D01*
X58092219Y-34899600D01*
X58130923Y-34938304D01*
X58169628Y-35015714D01*
X58169628Y-35093123D01*
X58130923Y-35209238D01*
X57666466Y-35673695D01*
X58169628Y-35673695D01*
X96194638Y-43127990D02*
X96310752Y-43166695D01*
X96504276Y-43166695D01*
X96581685Y-43127990D01*
X96620390Y-43089285D01*
X96659095Y-43011876D01*
X96659095Y-42934466D01*
X96620390Y-42857057D01*
X96581685Y-42818352D01*
X96504276Y-42779647D01*
X96349457Y-42740942D01*
X96272047Y-42702238D01*
X96233342Y-42663533D01*
X96194638Y-42586123D01*
X96194638Y-42508714D01*
X96233342Y-42431304D01*
X96272047Y-42392600D01*
X96349457Y-42353895D01*
X96542980Y-42353895D01*
X96659095Y-42392600D01*
X96930028Y-42353895D02*
X97123552Y-43166695D01*
X97278371Y-42586123D01*
X97433190Y-43166695D01*
X97626714Y-42353895D01*
X97936352Y-43166695D02*
X97936352Y-42353895D01*
X98129876Y-42353895D01*
X98245990Y-42392600D01*
X98323400Y-42470009D01*
X98362104Y-42547419D01*
X98400809Y-42702238D01*
X98400809Y-42818352D01*
X98362104Y-42973171D01*
X98323400Y-43050580D01*
X98245990Y-43127990D01*
X98129876Y-43166695D01*
X97936352Y-43166695D01*
X98749152Y-43166695D02*
X98749152Y-42353895D01*
X99291019Y-42353895D02*
X99445838Y-42353895D01*
X99523247Y-42392600D01*
X99600657Y-42470009D01*
X99639361Y-42624828D01*
X99639361Y-42895761D01*
X99600657Y-43050580D01*
X99523247Y-43127990D01*
X99445838Y-43166695D01*
X99291019Y-43166695D01*
X99213609Y-43127990D01*
X99136200Y-43050580D01*
X99097495Y-42895761D01*
X99097495Y-42624828D01*
X99136200Y-42470009D01*
X99213609Y-42392600D01*
X99291019Y-42353895D01*
D11*
X16428571Y-80766857D02*
X16428571Y-84004952D01*
X16238095Y-84385904D01*
X16047619Y-84576380D01*
X15666666Y-84766857D01*
X15095238Y-84766857D01*
X14714285Y-84576380D01*
X16428571Y-83243047D02*
X16047619Y-83433523D01*
X15285714Y-83433523D01*
X14904761Y-83243047D01*
X14714285Y-83052571D01*
X14523809Y-82671619D01*
X14523809Y-81528761D01*
X14714285Y-81147809D01*
X14904761Y-80957333D01*
X15285714Y-80766857D01*
X16047619Y-80766857D01*
X16428571Y-80957333D01*
X18333333Y-83433523D02*
X18333333Y-80766857D01*
X18333333Y-79433523D02*
X18142857Y-79624000D01*
X18333333Y-79814476D01*
X18523809Y-79624000D01*
X18333333Y-79433523D01*
X18333333Y-79814476D01*
X19666666Y-80766857D02*
X21190476Y-80766857D01*
X20238095Y-79433523D02*
X20238095Y-82862095D01*
X20428571Y-83243047D01*
X20809523Y-83433523D01*
X21190476Y-83433523D01*
X22523809Y-83433523D02*
X22523809Y-79433523D01*
X24238095Y-83433523D02*
X24238095Y-81338285D01*
X24047619Y-80957333D01*
X23666666Y-80766857D01*
X23095238Y-80766857D01*
X22714285Y-80957333D01*
X22523809Y-81147809D01*
X27857142Y-80766857D02*
X27857142Y-83433523D01*
X26142857Y-80766857D02*
X26142857Y-82862095D01*
X26333333Y-83243047D01*
X26714285Y-83433523D01*
X27285714Y-83433523D01*
X27666666Y-83243047D01*
X27857142Y-83052571D01*
X29761904Y-83433523D02*
X29761904Y-79433523D01*
X29761904Y-80957333D02*
X30142857Y-80766857D01*
X30904761Y-80766857D01*
X31285714Y-80957333D01*
X31476190Y-81147809D01*
X31666666Y-81528761D01*
X31666666Y-82671619D01*
X31476190Y-83052571D01*
X31285714Y-83243047D01*
X30904761Y-83433523D01*
X30142857Y-83433523D01*
X29761904Y-83243047D01*
X33380952Y-83052571D02*
X33571428Y-83243047D01*
X33380952Y-83433523D01*
X33190476Y-83243047D01*
X33380952Y-83052571D01*
X33380952Y-83433523D01*
X36999999Y-83243047D02*
X36619047Y-83433523D01*
X35857142Y-83433523D01*
X35476190Y-83243047D01*
X35285714Y-83052571D01*
X35095238Y-82671619D01*
X35095238Y-81528761D01*
X35285714Y-81147809D01*
X35476190Y-80957333D01*
X35857142Y-80766857D01*
X36619047Y-80766857D01*
X36999999Y-80957333D01*
X39285714Y-83433523D02*
X38904761Y-83243047D01*
X38714285Y-83052571D01*
X38523809Y-82671619D01*
X38523809Y-81528761D01*
X38714285Y-81147809D01*
X38904761Y-80957333D01*
X39285714Y-80766857D01*
X39857142Y-80766857D01*
X40238095Y-80957333D01*
X40428571Y-81147809D01*
X40619047Y-81528761D01*
X40619047Y-82671619D01*
X40428571Y-83052571D01*
X40238095Y-83243047D01*
X39857142Y-83433523D01*
X39285714Y-83433523D01*
X42333333Y-83433523D02*
X42333333Y-80766857D01*
X42333333Y-81147809D02*
X42523809Y-80957333D01*
X42904761Y-80766857D01*
X43476190Y-80766857D01*
X43857142Y-80957333D01*
X44047619Y-81338285D01*
X44047619Y-83433523D01*
X44047619Y-81338285D02*
X44238095Y-80957333D01*
X44619047Y-80766857D01*
X45190476Y-80766857D01*
X45571428Y-80957333D01*
X45761904Y-81338285D01*
X45761904Y-83433523D01*
X50523809Y-79243047D02*
X47095238Y-84385904D01*
X52428571Y-83433523D02*
X52047619Y-83243047D01*
X51857142Y-82862095D01*
X51857142Y-79433523D01*
X55666666Y-80766857D02*
X55666666Y-83433523D01*
X53952380Y-80766857D02*
X53952380Y-82862095D01*
X54142857Y-83243047D01*
X54523809Y-83433523D01*
X55095238Y-83433523D01*
X55476190Y-83243047D01*
X55666666Y-83052571D01*
X57571428Y-83433523D02*
X57571428Y-79433523D01*
X57952380Y-81909714D02*
X59095238Y-83433523D01*
X59095238Y-80766857D02*
X57571428Y-82290666D01*
X60619047Y-83243047D02*
X60999999Y-83433523D01*
X61761904Y-83433523D01*
X62142857Y-83243047D01*
X62333333Y-82862095D01*
X62333333Y-82671619D01*
X62142857Y-82290666D01*
X61761904Y-82100190D01*
X61190476Y-82100190D01*
X60809523Y-81909714D01*
X60619047Y-81528761D01*
X60619047Y-81338285D01*
X60809523Y-80957333D01*
X61190476Y-80766857D01*
X61761904Y-80766857D01*
X62142857Y-80957333D01*
X65761904Y-83433523D02*
X65761904Y-81338285D01*
X65571428Y-80957333D01*
X65190476Y-80766857D01*
X64428571Y-80766857D01*
X64047619Y-80957333D01*
X65761904Y-83243047D02*
X65380952Y-83433523D01*
X64428571Y-83433523D01*
X64047619Y-83243047D01*
X63857142Y-82862095D01*
X63857142Y-82481142D01*
X64047619Y-82100190D01*
X64428571Y-81909714D01*
X65380952Y-81909714D01*
X65761904Y-81719238D01*
X67666666Y-83433523D02*
X67666666Y-79433523D01*
X67666666Y-80957333D02*
X68047619Y-80766857D01*
X68809523Y-80766857D01*
X69190476Y-80957333D01*
X69380952Y-81147809D01*
X69571428Y-81528761D01*
X69571428Y-82671619D01*
X69380952Y-83052571D01*
X69190476Y-83243047D01*
X68809523Y-83433523D01*
X68047619Y-83433523D01*
X67666666Y-83243047D01*
X74142857Y-79243047D02*
X70714285Y-84385904D01*
X75476190Y-83433523D02*
X75476190Y-79433523D01*
X75857142Y-81909714D02*
X76999999Y-83433523D01*
X76999999Y-80766857D02*
X75476190Y-82290666D01*
X80238095Y-83243047D02*
X79857142Y-83433523D01*
X79095238Y-83433523D01*
X78714285Y-83243047D01*
X78523809Y-82862095D01*
X78523809Y-81338285D01*
X78714285Y-80957333D01*
X79095238Y-80766857D01*
X79857142Y-80766857D01*
X80238095Y-80957333D01*
X80428571Y-81338285D01*
X80428571Y-81719238D01*
X78523809Y-82100190D01*
X81761904Y-80766857D02*
X82714285Y-83433523D01*
X83666666Y-80766857D02*
X82714285Y-83433523D01*
X82333333Y-84385904D01*
X82142857Y-84576380D01*
X81761904Y-84766857D01*
X86904761Y-83243047D02*
X86523809Y-83433523D01*
X85761904Y-83433523D01*
X85380952Y-83243047D01*
X85190476Y-83052571D01*
X84999999Y-82671619D01*
X84999999Y-81528761D01*
X85190476Y-81147809D01*
X85380952Y-80957333D01*
X85761904Y-80766857D01*
X86523809Y-80766857D01*
X86904761Y-80957333D01*
X88619047Y-83433523D02*
X88619047Y-79433523D01*
X90333333Y-83433523D02*
X90333333Y-81338285D01*
X90142857Y-80957333D01*
X89761904Y-80766857D01*
X89190476Y-80766857D01*
X88809523Y-80957333D01*
X88619047Y-81147809D01*
X92809523Y-83433523D02*
X92428571Y-83243047D01*
X92238095Y-83052571D01*
X92047619Y-82671619D01*
X92047619Y-81528761D01*
X92238095Y-81147809D01*
X92428571Y-80957333D01*
X92809523Y-80766857D01*
X93380952Y-80766857D01*
X93761904Y-80957333D01*
X93952380Y-81147809D01*
X94142857Y-81528761D01*
X94142857Y-82671619D01*
X93952380Y-83052571D01*
X93761904Y-83243047D01*
X93380952Y-83433523D01*
X92809523Y-83433523D01*
X95857142Y-83433523D02*
X95857142Y-80766857D01*
X95857142Y-81528761D02*
X96047619Y-81147809D01*
X96238095Y-80957333D01*
X96619047Y-80766857D01*
X96999999Y-80766857D01*
X100047619Y-83433523D02*
X100047619Y-79433523D01*
X100047619Y-83243047D02*
X99666666Y-83433523D01*
X98904761Y-83433523D01*
X98523809Y-83243047D01*
X98333333Y-83052571D01*
X98142857Y-82671619D01*
X98142857Y-81528761D01*
X98333333Y-81147809D01*
X98523809Y-80957333D01*
X98904761Y-80766857D01*
X99666666Y-80766857D01*
X100047619Y-80957333D01*
X101571428Y-80766857D02*
X103666666Y-80766857D01*
X101571428Y-83433523D01*
X103666666Y-83433523D01*
D10*
X97471895Y-40753695D02*
X97200961Y-40366647D01*
X97007438Y-40753695D02*
X97007438Y-39940895D01*
X97317076Y-39940895D01*
X97394485Y-39979600D01*
X97433190Y-40018304D01*
X97471895Y-40095714D01*
X97471895Y-40211828D01*
X97433190Y-40289238D01*
X97394485Y-40327942D01*
X97317076Y-40366647D01*
X97007438Y-40366647D01*
X97781533Y-40714990D02*
X97897647Y-40753695D01*
X98091171Y-40753695D01*
X98168580Y-40714990D01*
X98207285Y-40676285D01*
X98245990Y-40598876D01*
X98245990Y-40521466D01*
X98207285Y-40444057D01*
X98168580Y-40405352D01*
X98091171Y-40366647D01*
X97936352Y-40327942D01*
X97858942Y-40289238D01*
X97820238Y-40250533D01*
X97781533Y-40173123D01*
X97781533Y-40095714D01*
X97820238Y-40018304D01*
X97858942Y-39979600D01*
X97936352Y-39940895D01*
X98129876Y-39940895D01*
X98245990Y-39979600D01*
X98478219Y-39940895D02*
X98942676Y-39940895D01*
X98710447Y-40753695D02*
X98710447Y-39940895D01*
D12*
X110760571Y-48065428D02*
X110760571Y-49154000D01*
X110688000Y-49371714D01*
X110542857Y-49516857D01*
X110325142Y-49589428D01*
X110180000Y-49589428D01*
X112212000Y-49589428D02*
X111486285Y-49589428D01*
X111486285Y-48065428D01*
X113590857Y-49444285D02*
X113518285Y-49516857D01*
X113300571Y-49589428D01*
X113155428Y-49589428D01*
X112937714Y-49516857D01*
X112792571Y-49371714D01*
X112720000Y-49226571D01*
X112647428Y-48936285D01*
X112647428Y-48718571D01*
X112720000Y-48428285D01*
X112792571Y-48283142D01*
X112937714Y-48138000D01*
X113155428Y-48065428D01*
X113300571Y-48065428D01*
X113518285Y-48138000D01*
X113590857Y-48210571D01*
X114679428Y-48065428D02*
X114679428Y-49154000D01*
X114606857Y-49371714D01*
X114461714Y-49516857D01*
X114244000Y-49589428D01*
X114098857Y-49589428D01*
X116130857Y-49589428D02*
X115405142Y-49589428D01*
X115405142Y-48065428D01*
X117509714Y-49444285D02*
X117437142Y-49516857D01*
X117219428Y-49589428D01*
X117074285Y-49589428D01*
X116856571Y-49516857D01*
X116711428Y-49371714D01*
X116638857Y-49226571D01*
X116566285Y-48936285D01*
X116566285Y-48718571D01*
X116638857Y-48428285D01*
X116711428Y-48283142D01*
X116856571Y-48138000D01*
X117074285Y-48065428D01*
X117219428Y-48065428D01*
X117437142Y-48138000D01*
X117509714Y-48210571D01*
X118598285Y-48065428D02*
X118598285Y-49154000D01*
X118525714Y-49371714D01*
X118380571Y-49516857D01*
X118162857Y-49589428D01*
X118017714Y-49589428D01*
X120049714Y-49589428D02*
X119324000Y-49589428D01*
X119324000Y-48065428D01*
X121428571Y-49444285D02*
X121356000Y-49516857D01*
X121138285Y-49589428D01*
X120993142Y-49589428D01*
X120775428Y-49516857D01*
X120630285Y-49371714D01*
X120557714Y-49226571D01*
X120485142Y-48936285D01*
X120485142Y-48718571D01*
X120557714Y-48428285D01*
X120630285Y-48283142D01*
X120775428Y-48138000D01*
X120993142Y-48065428D01*
X121138285Y-48065428D01*
X121356000Y-48138000D01*
X121428571Y-48210571D01*
X122517142Y-48065428D02*
X122517142Y-49154000D01*
X122444571Y-49371714D01*
X122299428Y-49516857D01*
X122081714Y-49589428D01*
X121936571Y-49589428D01*
X123968571Y-49589428D02*
X123242857Y-49589428D01*
X123242857Y-48065428D01*
X125347428Y-49444285D02*
X125274857Y-49516857D01*
X125057142Y-49589428D01*
X124912000Y-49589428D01*
X124694285Y-49516857D01*
X124549142Y-49371714D01*
X124476571Y-49226571D01*
X124404000Y-48936285D01*
X124404000Y-48718571D01*
X124476571Y-48428285D01*
X124549142Y-48283142D01*
X124694285Y-48138000D01*
X124912000Y-48065428D01*
X125057142Y-48065428D01*
X125274857Y-48138000D01*
X125347428Y-48210571D01*
D10*
X59241266Y-34860895D02*
X59512200Y-35673695D01*
X59783133Y-34860895D01*
X60054066Y-35673695D02*
X60054066Y-34860895D01*
X60247590Y-34860895D01*
X60363704Y-34899600D01*
X60441114Y-34977009D01*
X60479819Y-35054419D01*
X60518523Y-35209238D01*
X60518523Y-35325352D01*
X60479819Y-35480171D01*
X60441114Y-35557580D01*
X60363704Y-35634990D01*
X60247590Y-35673695D01*
X60054066Y-35673695D01*
X60866866Y-35673695D02*
X60866866Y-34860895D01*
X61060390Y-34860895D01*
X61176504Y-34899600D01*
X61253914Y-34977009D01*
X61292619Y-35054419D01*
X61331323Y-35209238D01*
X61331323Y-35325352D01*
X61292619Y-35480171D01*
X61253914Y-35557580D01*
X61176504Y-35634990D01*
X61060390Y-35673695D01*
X60866866Y-35673695D01*
X47025076Y-35673695D02*
X47025076Y-34860895D01*
X47334714Y-34860895D01*
X47412123Y-34899600D01*
X47450828Y-34938304D01*
X47489533Y-35015714D01*
X47489533Y-35131828D01*
X47450828Y-35209238D01*
X47412123Y-35247942D01*
X47334714Y-35286647D01*
X47025076Y-35286647D01*
X47799171Y-34938304D02*
X47837876Y-34899600D01*
X47915285Y-34860895D01*
X48108809Y-34860895D01*
X48186219Y-34899600D01*
X48224923Y-34938304D01*
X48263628Y-35015714D01*
X48263628Y-35093123D01*
X48224923Y-35209238D01*
X47760466Y-35673695D01*
X48263628Y-35673695D01*
X62245723Y-34899600D02*
X62168314Y-34860895D01*
X62052200Y-34860895D01*
X61936085Y-34899600D01*
X61858676Y-34977009D01*
X61819971Y-35054419D01*
X61781266Y-35209238D01*
X61781266Y-35325352D01*
X61819971Y-35480171D01*
X61858676Y-35557580D01*
X61936085Y-35634990D01*
X62052200Y-35673695D01*
X62129609Y-35673695D01*
X62245723Y-35634990D01*
X62284428Y-35596285D01*
X62284428Y-35325352D01*
X62129609Y-35325352D01*
X62632771Y-35673695D02*
X62632771Y-34860895D01*
X63097228Y-35673695D01*
X63097228Y-34860895D01*
X63484276Y-35673695D02*
X63484276Y-34860895D01*
X63677800Y-34860895D01*
X63793914Y-34899600D01*
X63871323Y-34977009D01*
X63910028Y-35054419D01*
X63948733Y-35209238D01*
X63948733Y-35325352D01*
X63910028Y-35480171D01*
X63871323Y-35557580D01*
X63793914Y-35634990D01*
X63677800Y-35673695D01*
X63484276Y-35673695D01*
X49545723Y-35673695D02*
X49545723Y-34860895D01*
X50010180Y-35673695D01*
X50010180Y-34860895D01*
X50822980Y-35673695D02*
X50358523Y-35673695D01*
X50590752Y-35673695D02*
X50590752Y-34860895D01*
X50513342Y-34977009D01*
X50435933Y-35054419D01*
X50358523Y-35093123D01*
X95418123Y-45794990D02*
X95534238Y-45833695D01*
X95727761Y-45833695D01*
X95805171Y-45794990D01*
X95843876Y-45756285D01*
X95882580Y-45678876D01*
X95882580Y-45601466D01*
X95843876Y-45524057D01*
X95805171Y-45485352D01*
X95727761Y-45446647D01*
X95572942Y-45407942D01*
X95495533Y-45369238D01*
X95456828Y-45330533D01*
X95418123Y-45253123D01*
X95418123Y-45175714D01*
X95456828Y-45098304D01*
X95495533Y-45059600D01*
X95572942Y-45020895D01*
X95766466Y-45020895D01*
X95882580Y-45059600D01*
X96153514Y-45020895D02*
X96347038Y-45833695D01*
X96501857Y-45253123D01*
X96656676Y-45833695D01*
X96850200Y-45020895D01*
X97159838Y-45833695D02*
X97159838Y-45020895D01*
X97353361Y-45020895D01*
X97469476Y-45059600D01*
X97546885Y-45137009D01*
X97585590Y-45214419D01*
X97624295Y-45369238D01*
X97624295Y-45485352D01*
X97585590Y-45640171D01*
X97546885Y-45717580D01*
X97469476Y-45794990D01*
X97353361Y-45833695D01*
X97159838Y-45833695D01*
X98437095Y-45756285D02*
X98398390Y-45794990D01*
X98282276Y-45833695D01*
X98204866Y-45833695D01*
X98088752Y-45794990D01*
X98011342Y-45717580D01*
X97972638Y-45640171D01*
X97933933Y-45485352D01*
X97933933Y-45369238D01*
X97972638Y-45214419D01*
X98011342Y-45137009D01*
X98088752Y-45059600D01*
X98204866Y-45020895D01*
X98282276Y-45020895D01*
X98398390Y-45059600D01*
X98437095Y-45098304D01*
X99172485Y-45833695D02*
X98785438Y-45833695D01*
X98785438Y-45020895D01*
X99443419Y-45833695D02*
X99443419Y-45020895D01*
X99907876Y-45833695D02*
X99559533Y-45369238D01*
X99907876Y-45020895D02*
X99443419Y-45485352D01*
X55109533Y-35673695D02*
X54722485Y-35673695D01*
X54722485Y-34860895D01*
X55806219Y-35673695D02*
X55341761Y-35673695D01*
X55573990Y-35673695D02*
X55573990Y-34860895D01*
X55496580Y-34977009D01*
X55419171Y-35054419D01*
X55341761Y-35093123D01*
X52047019Y-35673695D02*
X52047019Y-34860895D01*
X52317952Y-35441466D01*
X52588885Y-34860895D01*
X52588885Y-35673695D01*
X52937228Y-34938304D02*
X52975933Y-34899600D01*
X53053342Y-34860895D01*
X53246866Y-34860895D01*
X53324276Y-34899600D01*
X53362980Y-34938304D01*
X53401685Y-35015714D01*
X53401685Y-35093123D01*
X53362980Y-35209238D01*
X52898523Y-35673695D01*
X53401685Y-35673695D01*
X97424723Y-37185600D02*
X97347314Y-37146895D01*
X97231200Y-37146895D01*
X97115085Y-37185600D01*
X97037676Y-37263009D01*
X96998971Y-37340419D01*
X96960266Y-37495238D01*
X96960266Y-37611352D01*
X96998971Y-37766171D01*
X97037676Y-37843580D01*
X97115085Y-37920990D01*
X97231200Y-37959695D01*
X97308609Y-37959695D01*
X97424723Y-37920990D01*
X97463428Y-37882285D01*
X97463428Y-37611352D01*
X97308609Y-37611352D01*
X97811771Y-37959695D02*
X97811771Y-37146895D01*
X98276228Y-37959695D01*
X98276228Y-37146895D01*
X98663276Y-37959695D02*
X98663276Y-37146895D01*
X98856800Y-37146895D01*
X98972914Y-37185600D01*
X99050323Y-37263009D01*
X99089028Y-37340419D01*
X99127733Y-37495238D01*
X99127733Y-37611352D01*
X99089028Y-37766171D01*
X99050323Y-37843580D01*
X98972914Y-37920990D01*
X98856800Y-37959695D01*
X98663276Y-37959695D01*
D13*
%TO.C,J1*%
X99576666Y-17219523D02*
X99576666Y-18126666D01*
X99516190Y-18308095D01*
X99395238Y-18429047D01*
X99213809Y-18489523D01*
X99092857Y-18489523D01*
X100846666Y-18489523D02*
X100120952Y-18489523D01*
X100483809Y-18489523D02*
X100483809Y-17219523D01*
X100362857Y-17400952D01*
X100241904Y-17521904D01*
X100120952Y-17582380D01*
D14*
%TO.C,MNT1*%
X84285714Y-99252380D02*
X84285714Y-98252380D01*
X84619047Y-98966666D01*
X84952380Y-98252380D01*
X84952380Y-99252380D01*
X85428571Y-99252380D02*
X85428571Y-98252380D01*
X86000000Y-99252380D01*
X86000000Y-98252380D01*
X86333333Y-98252380D02*
X86904761Y-98252380D01*
X86619047Y-99252380D02*
X86619047Y-98252380D01*
X87761904Y-99252380D02*
X87190476Y-99252380D01*
X87476190Y-99252380D02*
X87476190Y-98252380D01*
X87380952Y-98395238D01*
X87285714Y-98490476D01*
X87190476Y-98538095D01*
%TO.C,MNT2*%
X52285714Y-99252380D02*
X52285714Y-98252380D01*
X52619047Y-98966666D01*
X52952380Y-98252380D01*
X52952380Y-99252380D01*
X53428571Y-99252380D02*
X53428571Y-98252380D01*
X54000000Y-99252380D01*
X54000000Y-98252380D01*
X54333333Y-98252380D02*
X54904761Y-98252380D01*
X54619047Y-99252380D02*
X54619047Y-98252380D01*
X55190476Y-98347619D02*
X55238095Y-98300000D01*
X55333333Y-98252380D01*
X55571428Y-98252380D01*
X55666666Y-98300000D01*
X55714285Y-98347619D01*
X55761904Y-98442857D01*
X55761904Y-98538095D01*
X55714285Y-98680952D01*
X55142857Y-99252380D01*
X55761904Y-99252380D01*
%TO.C,MNT3*%
X20285714Y-99252380D02*
X20285714Y-98252380D01*
X20619047Y-98966666D01*
X20952380Y-98252380D01*
X20952380Y-99252380D01*
X21428571Y-99252380D02*
X21428571Y-98252380D01*
X22000000Y-99252380D01*
X22000000Y-98252380D01*
X22333333Y-98252380D02*
X22904761Y-98252380D01*
X22619047Y-99252380D02*
X22619047Y-98252380D01*
X23142857Y-98252380D02*
X23761904Y-98252380D01*
X23428571Y-98633333D01*
X23571428Y-98633333D01*
X23666666Y-98680952D01*
X23714285Y-98728571D01*
X23761904Y-98823809D01*
X23761904Y-99061904D01*
X23714285Y-99157142D01*
X23666666Y-99204761D01*
X23571428Y-99252380D01*
X23285714Y-99252380D01*
X23190476Y-99204761D01*
X23142857Y-99157142D01*
%TO.C,SW9*%
X16676666Y-34044761D02*
X16819523Y-34092380D01*
X17057619Y-34092380D01*
X17152857Y-34044761D01*
X17200476Y-33997142D01*
X17248095Y-33901904D01*
X17248095Y-33806666D01*
X17200476Y-33711428D01*
X17152857Y-33663809D01*
X17057619Y-33616190D01*
X16867142Y-33568571D01*
X16771904Y-33520952D01*
X16724285Y-33473333D01*
X16676666Y-33378095D01*
X16676666Y-33282857D01*
X16724285Y-33187619D01*
X16771904Y-33140000D01*
X16867142Y-33092380D01*
X17105238Y-33092380D01*
X17248095Y-33140000D01*
X17581428Y-33092380D02*
X17819523Y-34092380D01*
X18010000Y-33378095D01*
X18200476Y-34092380D01*
X18438571Y-33092380D01*
X18867142Y-34092380D02*
X19057619Y-34092380D01*
X19152857Y-34044761D01*
X19200476Y-33997142D01*
X19295714Y-33854285D01*
X19343333Y-33663809D01*
X19343333Y-33282857D01*
X19295714Y-33187619D01*
X19248095Y-33140000D01*
X19152857Y-33092380D01*
X18962380Y-33092380D01*
X18867142Y-33140000D01*
X18819523Y-33187619D01*
X18771904Y-33282857D01*
X18771904Y-33520952D01*
X18819523Y-33616190D01*
X18867142Y-33663809D01*
X18962380Y-33711428D01*
X19152857Y-33711428D01*
X19248095Y-33663809D01*
X19295714Y-33616190D01*
X19343333Y-33520952D01*
%TO.C,R3*%
X101011333Y-28642380D02*
X100678000Y-28166190D01*
X100439904Y-28642380D02*
X100439904Y-27642380D01*
X100820857Y-27642380D01*
X100916095Y-27690000D01*
X100963714Y-27737619D01*
X101011333Y-27832857D01*
X101011333Y-27975714D01*
X100963714Y-28070952D01*
X100916095Y-28118571D01*
X100820857Y-28166190D01*
X100439904Y-28166190D01*
X101344666Y-27642380D02*
X101963714Y-27642380D01*
X101630380Y-28023333D01*
X101773238Y-28023333D01*
X101868476Y-28070952D01*
X101916095Y-28118571D01*
X101963714Y-28213809D01*
X101963714Y-28451904D01*
X101916095Y-28547142D01*
X101868476Y-28594761D01*
X101773238Y-28642380D01*
X101487523Y-28642380D01*
X101392285Y-28594761D01*
X101344666Y-28547142D01*
%TO.C,D8*%
X56014904Y-47385380D02*
X56014904Y-46385380D01*
X56253000Y-46385380D01*
X56395857Y-46433000D01*
X56491095Y-46528238D01*
X56538714Y-46623476D01*
X56586333Y-46813952D01*
X56586333Y-46956809D01*
X56538714Y-47147285D01*
X56491095Y-47242523D01*
X56395857Y-47337761D01*
X56253000Y-47385380D01*
X56014904Y-47385380D01*
X57157761Y-46813952D02*
X57062523Y-46766333D01*
X57014904Y-46718714D01*
X56967285Y-46623476D01*
X56967285Y-46575857D01*
X57014904Y-46480619D01*
X57062523Y-46433000D01*
X57157761Y-46385380D01*
X57348238Y-46385380D01*
X57443476Y-46433000D01*
X57491095Y-46480619D01*
X57538714Y-46575857D01*
X57538714Y-46623476D01*
X57491095Y-46718714D01*
X57443476Y-46766333D01*
X57348238Y-46813952D01*
X57157761Y-46813952D01*
X57062523Y-46861571D01*
X57014904Y-46909190D01*
X56967285Y-47004428D01*
X56967285Y-47194904D01*
X57014904Y-47290142D01*
X57062523Y-47337761D01*
X57157761Y-47385380D01*
X57348238Y-47385380D01*
X57443476Y-47337761D01*
X57491095Y-47290142D01*
X57538714Y-47194904D01*
X57538714Y-47004428D01*
X57491095Y-46909190D01*
X57443476Y-46861571D01*
X57348238Y-46813952D01*
%TO.C,D1*%
X129383904Y-18106380D02*
X129383904Y-17106380D01*
X129622000Y-17106380D01*
X129764857Y-17154000D01*
X129860095Y-17249238D01*
X129907714Y-17344476D01*
X129955333Y-17534952D01*
X129955333Y-17677809D01*
X129907714Y-17868285D01*
X129860095Y-17963523D01*
X129764857Y-18058761D01*
X129622000Y-18106380D01*
X129383904Y-18106380D01*
X130907714Y-18106380D02*
X130336285Y-18106380D01*
X130622000Y-18106380D02*
X130622000Y-17106380D01*
X130526761Y-17249238D01*
X130431523Y-17344476D01*
X130336285Y-17392095D01*
%TO.C,D3*%
X124049904Y-13788380D02*
X124049904Y-12788380D01*
X124288000Y-12788380D01*
X124430857Y-12836000D01*
X124526095Y-12931238D01*
X124573714Y-13026476D01*
X124621333Y-13216952D01*
X124621333Y-13359809D01*
X124573714Y-13550285D01*
X124526095Y-13645523D01*
X124430857Y-13740761D01*
X124288000Y-13788380D01*
X124049904Y-13788380D01*
X124954666Y-12788380D02*
X125573714Y-12788380D01*
X125240380Y-13169333D01*
X125383238Y-13169333D01*
X125478476Y-13216952D01*
X125526095Y-13264571D01*
X125573714Y-13359809D01*
X125573714Y-13597904D01*
X125526095Y-13693142D01*
X125478476Y-13740761D01*
X125383238Y-13788380D01*
X125097523Y-13788380D01*
X125002285Y-13740761D01*
X124954666Y-13693142D01*
%TO.C,SW1*%
X120486180Y-94820160D02*
X120633707Y-94789971D01*
X120839904Y-94670923D01*
X120898573Y-94582065D01*
X120916003Y-94517016D01*
X120909623Y-94410728D01*
X120862004Y-94328249D01*
X120773146Y-94269580D01*
X120708097Y-94252151D01*
X120601809Y-94258530D01*
X120413042Y-94312529D01*
X120306754Y-94318909D01*
X120241705Y-94301479D01*
X120152847Y-94242810D01*
X120105228Y-94160331D01*
X120098848Y-94054043D01*
X120116278Y-93988994D01*
X120174947Y-93900136D01*
X120381143Y-93781088D01*
X120528671Y-93750899D01*
X120793536Y-93542993D02*
X121499733Y-94289971D01*
X121307547Y-93576143D01*
X121829647Y-94099495D01*
X121535844Y-93114422D01*
X122819391Y-93528066D02*
X122324519Y-93813781D01*
X122571955Y-93670923D02*
X122071955Y-92804898D01*
X122060905Y-92976235D01*
X122026045Y-93106333D01*
X121967376Y-93195191D01*
%TO.C,D4*%
X119202321Y-99719931D02*
X118702321Y-98853905D01*
X118908517Y-98734857D01*
X119056045Y-98704668D01*
X119186142Y-98739528D01*
X119275001Y-98798197D01*
X119411478Y-98939345D01*
X119482907Y-99063062D01*
X119536905Y-99251829D01*
X119543285Y-99358117D01*
X119508426Y-99488215D01*
X119408517Y-99600883D01*
X119202321Y-99719931D01*
X120106167Y-98428295D02*
X120439500Y-99005645D01*
X119709494Y-98217428D02*
X119860440Y-98955065D01*
X120396551Y-98645541D01*
%TO.C,U1*%
X118338095Y-29952380D02*
X118338095Y-30761904D01*
X118385714Y-30857142D01*
X118433333Y-30904761D01*
X118528571Y-30952380D01*
X118719047Y-30952380D01*
X118814285Y-30904761D01*
X118861904Y-30857142D01*
X118909523Y-30761904D01*
X118909523Y-29952380D01*
X119909523Y-30952380D02*
X119338095Y-30952380D01*
X119623809Y-30952380D02*
X119623809Y-29952380D01*
X119528571Y-30095238D01*
X119433333Y-30190476D01*
X119338095Y-30238095D01*
X132166666Y-39452380D02*
X132500000Y-40452380D01*
X132833333Y-39452380D01*
X133500000Y-39928571D02*
X133642857Y-39976190D01*
X133690476Y-40023809D01*
X133738095Y-40119047D01*
X133738095Y-40261904D01*
X133690476Y-40357142D01*
X133642857Y-40404761D01*
X133547619Y-40452380D01*
X133166666Y-40452380D01*
X133166666Y-39452380D01*
X133500000Y-39452380D01*
X133595238Y-39500000D01*
X133642857Y-39547619D01*
X133690476Y-39642857D01*
X133690476Y-39738095D01*
X133642857Y-39833333D01*
X133595238Y-39880952D01*
X133500000Y-39928571D01*
X133166666Y-39928571D01*
X134166666Y-39452380D02*
X134166666Y-40261904D01*
X134214285Y-40357142D01*
X134261904Y-40404761D01*
X134357142Y-40452380D01*
X134547619Y-40452380D01*
X134642857Y-40404761D01*
X134690476Y-40357142D01*
X134738095Y-40261904D01*
X134738095Y-39452380D01*
X135166666Y-40404761D02*
X135309523Y-40452380D01*
X135547619Y-40452380D01*
X135642857Y-40404761D01*
X135690476Y-40357142D01*
X135738095Y-40261904D01*
X135738095Y-40166666D01*
X135690476Y-40071428D01*
X135642857Y-40023809D01*
X135547619Y-39976190D01*
X135357142Y-39928571D01*
X135261904Y-39880952D01*
X135214285Y-39833333D01*
X135166666Y-39738095D01*
X135166666Y-39642857D01*
X135214285Y-39547619D01*
X135261904Y-39500000D01*
X135357142Y-39452380D01*
X135595238Y-39452380D01*
X135738095Y-39500000D01*
X104619047Y-49071428D02*
X105380952Y-49071428D01*
X119447619Y-31266666D02*
X118447619Y-31600000D01*
X119447619Y-31933333D01*
X118447619Y-32266666D02*
X119447619Y-32266666D01*
X119447619Y-32504761D01*
X119400000Y-32647619D01*
X119304761Y-32742857D01*
X119209523Y-32790476D01*
X119019047Y-32838095D01*
X118876190Y-32838095D01*
X118685714Y-32790476D01*
X118590476Y-32742857D01*
X118495238Y-32647619D01*
X118447619Y-32504761D01*
X118447619Y-32266666D01*
X118447619Y-33266666D02*
X119447619Y-33266666D01*
X119447619Y-33504761D01*
X119400000Y-33647619D01*
X119304761Y-33742857D01*
X119209523Y-33790476D01*
X119019047Y-33838095D01*
X118876190Y-33838095D01*
X118685714Y-33790476D01*
X118590476Y-33742857D01*
X118495238Y-33647619D01*
X118447619Y-33504761D01*
X118447619Y-33266666D01*
X131619047Y-53071428D02*
X132380952Y-53071428D01*
X117519047Y-33371428D02*
X118280952Y-33371428D01*
X119619047Y-33471428D02*
X120380952Y-33471428D01*
X120000000Y-33852380D02*
X120000000Y-33090476D01*
X131619047Y-39071428D02*
X132380952Y-39071428D01*
X131666666Y-51452380D02*
X132000000Y-52452380D01*
X132333333Y-51452380D01*
X132666666Y-52452380D02*
X132666666Y-51452380D01*
X132904761Y-51452380D01*
X133047619Y-51500000D01*
X133142857Y-51595238D01*
X133190476Y-51690476D01*
X133238095Y-51880952D01*
X133238095Y-52023809D01*
X133190476Y-52214285D01*
X133142857Y-52309523D01*
X133047619Y-52404761D01*
X132904761Y-52452380D01*
X132666666Y-52452380D01*
X133666666Y-52452380D02*
X133666666Y-51452380D01*
X133904761Y-51452380D01*
X134047619Y-51500000D01*
X134142857Y-51595238D01*
X134190476Y-51690476D01*
X134238095Y-51880952D01*
X134238095Y-52023809D01*
X134190476Y-52214285D01*
X134142857Y-52309523D01*
X134047619Y-52404761D01*
X133904761Y-52452380D01*
X133666666Y-52452380D01*
%TO.C,SW5*%
X59666666Y-43838761D02*
X59809523Y-43886380D01*
X60047619Y-43886380D01*
X60142857Y-43838761D01*
X60190476Y-43791142D01*
X60238095Y-43695904D01*
X60238095Y-43600666D01*
X60190476Y-43505428D01*
X60142857Y-43457809D01*
X60047619Y-43410190D01*
X59857142Y-43362571D01*
X59761904Y-43314952D01*
X59714285Y-43267333D01*
X59666666Y-43172095D01*
X59666666Y-43076857D01*
X59714285Y-42981619D01*
X59761904Y-42934000D01*
X59857142Y-42886380D01*
X60095238Y-42886380D01*
X60238095Y-42934000D01*
X60571428Y-42886380D02*
X60809523Y-43886380D01*
X61000000Y-43172095D01*
X61190476Y-43886380D01*
X61428571Y-42886380D01*
X62285714Y-42886380D02*
X61809523Y-42886380D01*
X61761904Y-43362571D01*
X61809523Y-43314952D01*
X61904761Y-43267333D01*
X62142857Y-43267333D01*
X62238095Y-43314952D01*
X62285714Y-43362571D01*
X62333333Y-43457809D01*
X62333333Y-43695904D01*
X62285714Y-43791142D01*
X62238095Y-43838761D01*
X62142857Y-43886380D01*
X61904761Y-43886380D01*
X61809523Y-43838761D01*
X61761904Y-43791142D01*
%TO.C,R4*%
X109046380Y-25856666D02*
X108570190Y-26190000D01*
X109046380Y-26428095D02*
X108046380Y-26428095D01*
X108046380Y-26047142D01*
X108094000Y-25951904D01*
X108141619Y-25904285D01*
X108236857Y-25856666D01*
X108379714Y-25856666D01*
X108474952Y-25904285D01*
X108522571Y-25951904D01*
X108570190Y-26047142D01*
X108570190Y-26428095D01*
X108379714Y-24999523D02*
X109046380Y-24999523D01*
X107998761Y-25237619D02*
X108713047Y-25475714D01*
X108713047Y-24856666D01*
%TO.C,D5*%
X101642351Y-101264931D02*
X101142351Y-100398905D01*
X101348547Y-100279857D01*
X101496075Y-100249668D01*
X101626172Y-100284528D01*
X101715031Y-100343197D01*
X101851508Y-100484345D01*
X101922937Y-100608062D01*
X101976935Y-100796829D01*
X101983315Y-100903117D01*
X101948456Y-101033215D01*
X101848547Y-101145883D01*
X101642351Y-101264931D01*
X102420769Y-99660810D02*
X102008376Y-99898905D01*
X102205232Y-100335108D01*
X102222662Y-100270059D01*
X102281331Y-100181201D01*
X102487527Y-100062153D01*
X102593816Y-100055773D01*
X102658864Y-100073203D01*
X102747723Y-100131872D01*
X102866770Y-100338069D01*
X102873150Y-100444357D01*
X102855720Y-100509405D01*
X102797051Y-100598264D01*
X102590855Y-100717311D01*
X102484567Y-100723691D01*
X102419518Y-100706261D01*
%TO.C,R7*%
X117509333Y-16488380D02*
X117176000Y-16012190D01*
X116937904Y-16488380D02*
X116937904Y-15488380D01*
X117318857Y-15488380D01*
X117414095Y-15536000D01*
X117461714Y-15583619D01*
X117509333Y-15678857D01*
X117509333Y-15821714D01*
X117461714Y-15916952D01*
X117414095Y-15964571D01*
X117318857Y-16012190D01*
X116937904Y-16012190D01*
X117842666Y-15488380D02*
X118509333Y-15488380D01*
X118080761Y-16488380D01*
%TO.C,R6*%
X111667333Y-19282380D02*
X111334000Y-18806190D01*
X111095904Y-19282380D02*
X111095904Y-18282380D01*
X111476857Y-18282380D01*
X111572095Y-18330000D01*
X111619714Y-18377619D01*
X111667333Y-18472857D01*
X111667333Y-18615714D01*
X111619714Y-18710952D01*
X111572095Y-18758571D01*
X111476857Y-18806190D01*
X111095904Y-18806190D01*
X112524476Y-18282380D02*
X112334000Y-18282380D01*
X112238761Y-18330000D01*
X112191142Y-18377619D01*
X112095904Y-18520476D01*
X112048285Y-18710952D01*
X112048285Y-19091904D01*
X112095904Y-19187142D01*
X112143523Y-19234761D01*
X112238761Y-19282380D01*
X112429238Y-19282380D01*
X112524476Y-19234761D01*
X112572095Y-19187142D01*
X112619714Y-19091904D01*
X112619714Y-18853809D01*
X112572095Y-18758571D01*
X112524476Y-18710952D01*
X112429238Y-18663333D01*
X112238761Y-18663333D01*
X112143523Y-18710952D01*
X112095904Y-18758571D01*
X112048285Y-18853809D01*
%TO.C,SW6*%
X18666666Y-61149761D02*
X18809523Y-61197380D01*
X19047619Y-61197380D01*
X19142857Y-61149761D01*
X19190476Y-61102142D01*
X19238095Y-61006904D01*
X19238095Y-60911666D01*
X19190476Y-60816428D01*
X19142857Y-60768809D01*
X19047619Y-60721190D01*
X18857142Y-60673571D01*
X18761904Y-60625952D01*
X18714285Y-60578333D01*
X18666666Y-60483095D01*
X18666666Y-60387857D01*
X18714285Y-60292619D01*
X18761904Y-60245000D01*
X18857142Y-60197380D01*
X19095238Y-60197380D01*
X19238095Y-60245000D01*
X19571428Y-60197380D02*
X19809523Y-61197380D01*
X20000000Y-60483095D01*
X20190476Y-61197380D01*
X20428571Y-60197380D01*
X21238095Y-60197380D02*
X21047619Y-60197380D01*
X20952380Y-60245000D01*
X20904761Y-60292619D01*
X20809523Y-60435476D01*
X20761904Y-60625952D01*
X20761904Y-61006904D01*
X20809523Y-61102142D01*
X20857142Y-61149761D01*
X20952380Y-61197380D01*
X21142857Y-61197380D01*
X21238095Y-61149761D01*
X21285714Y-61102142D01*
X21333333Y-61006904D01*
X21333333Y-60768809D01*
X21285714Y-60673571D01*
X21238095Y-60625952D01*
X21142857Y-60578333D01*
X20952380Y-60578333D01*
X20857142Y-60625952D01*
X20809523Y-60673571D01*
X20761904Y-60768809D01*
%TO.C,C29*%
X35589142Y-48473142D02*
X35541523Y-48520761D01*
X35398666Y-48568380D01*
X35303428Y-48568380D01*
X35160571Y-48520761D01*
X35065333Y-48425523D01*
X35017714Y-48330285D01*
X34970095Y-48139809D01*
X34970095Y-47996952D01*
X35017714Y-47806476D01*
X35065333Y-47711238D01*
X35160571Y-47616000D01*
X35303428Y-47568380D01*
X35398666Y-47568380D01*
X35541523Y-47616000D01*
X35589142Y-47663619D01*
X35970095Y-47663619D02*
X36017714Y-47616000D01*
X36112952Y-47568380D01*
X36351047Y-47568380D01*
X36446285Y-47616000D01*
X36493904Y-47663619D01*
X36541523Y-47758857D01*
X36541523Y-47854095D01*
X36493904Y-47996952D01*
X35922476Y-48568380D01*
X36541523Y-48568380D01*
X37017714Y-48568380D02*
X37208190Y-48568380D01*
X37303428Y-48520761D01*
X37351047Y-48473142D01*
X37446285Y-48330285D01*
X37493904Y-48139809D01*
X37493904Y-47758857D01*
X37446285Y-47663619D01*
X37398666Y-47616000D01*
X37303428Y-47568380D01*
X37112952Y-47568380D01*
X37017714Y-47616000D01*
X36970095Y-47663619D01*
X36922476Y-47758857D01*
X36922476Y-47996952D01*
X36970095Y-48092190D01*
X37017714Y-48139809D01*
X37112952Y-48187428D01*
X37303428Y-48187428D01*
X37398666Y-48139809D01*
X37446285Y-48092190D01*
X37493904Y-47996952D01*
%TO.C,C30*%
X15433142Y-58379142D02*
X15385523Y-58426761D01*
X15242666Y-58474380D01*
X15147428Y-58474380D01*
X15004571Y-58426761D01*
X14909333Y-58331523D01*
X14861714Y-58236285D01*
X14814095Y-58045809D01*
X14814095Y-57902952D01*
X14861714Y-57712476D01*
X14909333Y-57617238D01*
X15004571Y-57522000D01*
X15147428Y-57474380D01*
X15242666Y-57474380D01*
X15385523Y-57522000D01*
X15433142Y-57569619D01*
X15766476Y-57474380D02*
X16385523Y-57474380D01*
X16052190Y-57855333D01*
X16195047Y-57855333D01*
X16290285Y-57902952D01*
X16337904Y-57950571D01*
X16385523Y-58045809D01*
X16385523Y-58283904D01*
X16337904Y-58379142D01*
X16290285Y-58426761D01*
X16195047Y-58474380D01*
X15909333Y-58474380D01*
X15814095Y-58426761D01*
X15766476Y-58379142D01*
X17004571Y-57474380D02*
X17099809Y-57474380D01*
X17195047Y-57522000D01*
X17242666Y-57569619D01*
X17290285Y-57664857D01*
X17337904Y-57855333D01*
X17337904Y-58093428D01*
X17290285Y-58283904D01*
X17242666Y-58379142D01*
X17195047Y-58426761D01*
X17099809Y-58474380D01*
X17004571Y-58474380D01*
X16909333Y-58426761D01*
X16861714Y-58379142D01*
X16814095Y-58283904D01*
X16766476Y-58093428D01*
X16766476Y-57855333D01*
X16814095Y-57664857D01*
X16861714Y-57569619D01*
X16909333Y-57522000D01*
X17004571Y-57474380D01*
%TO.C,C22*%
X105501142Y-27214857D02*
X105548761Y-27262476D01*
X105596380Y-27405333D01*
X105596380Y-27500571D01*
X105548761Y-27643428D01*
X105453523Y-27738666D01*
X105358285Y-27786285D01*
X105167809Y-27833904D01*
X105024952Y-27833904D01*
X104834476Y-27786285D01*
X104739238Y-27738666D01*
X104644000Y-27643428D01*
X104596380Y-27500571D01*
X104596380Y-27405333D01*
X104644000Y-27262476D01*
X104691619Y-27214857D01*
X104691619Y-26833904D02*
X104644000Y-26786285D01*
X104596380Y-26691047D01*
X104596380Y-26452952D01*
X104644000Y-26357714D01*
X104691619Y-26310095D01*
X104786857Y-26262476D01*
X104882095Y-26262476D01*
X105024952Y-26310095D01*
X105596380Y-26881523D01*
X105596380Y-26262476D01*
X104691619Y-25881523D02*
X104644000Y-25833904D01*
X104596380Y-25738666D01*
X104596380Y-25500571D01*
X104644000Y-25405333D01*
X104691619Y-25357714D01*
X104786857Y-25310095D01*
X104882095Y-25310095D01*
X105024952Y-25357714D01*
X105596380Y-25929142D01*
X105596380Y-25310095D01*
%TO.C,R5*%
X111667333Y-20552380D02*
X111334000Y-20076190D01*
X111095904Y-20552380D02*
X111095904Y-19552380D01*
X111476857Y-19552380D01*
X111572095Y-19600000D01*
X111619714Y-19647619D01*
X111667333Y-19742857D01*
X111667333Y-19885714D01*
X111619714Y-19980952D01*
X111572095Y-20028571D01*
X111476857Y-20076190D01*
X111095904Y-20076190D01*
X112572095Y-19552380D02*
X112095904Y-19552380D01*
X112048285Y-20028571D01*
X112095904Y-19980952D01*
X112191142Y-19933333D01*
X112429238Y-19933333D01*
X112524476Y-19980952D01*
X112572095Y-20028571D01*
X112619714Y-20123809D01*
X112619714Y-20361904D01*
X112572095Y-20457142D01*
X112524476Y-20504761D01*
X112429238Y-20552380D01*
X112191142Y-20552380D01*
X112095904Y-20504761D01*
X112048285Y-20457142D01*
%TO.C,R1*%
X124827333Y-19002380D02*
X124494000Y-18526190D01*
X124255904Y-19002380D02*
X124255904Y-18002380D01*
X124636857Y-18002380D01*
X124732095Y-18050000D01*
X124779714Y-18097619D01*
X124827333Y-18192857D01*
X124827333Y-18335714D01*
X124779714Y-18430952D01*
X124732095Y-18478571D01*
X124636857Y-18526190D01*
X124255904Y-18526190D01*
X125779714Y-19002380D02*
X125208285Y-19002380D01*
X125494000Y-19002380D02*
X125494000Y-18002380D01*
X125398761Y-18145238D01*
X125303523Y-18240476D01*
X125208285Y-18288095D01*
%TO.C,C28*%
X55882642Y-41288142D02*
X55835023Y-41335761D01*
X55692166Y-41383380D01*
X55596928Y-41383380D01*
X55454071Y-41335761D01*
X55358833Y-41240523D01*
X55311214Y-41145285D01*
X55263595Y-40954809D01*
X55263595Y-40811952D01*
X55311214Y-40621476D01*
X55358833Y-40526238D01*
X55454071Y-40431000D01*
X55596928Y-40383380D01*
X55692166Y-40383380D01*
X55835023Y-40431000D01*
X55882642Y-40478619D01*
X56263595Y-40478619D02*
X56311214Y-40431000D01*
X56406452Y-40383380D01*
X56644547Y-40383380D01*
X56739785Y-40431000D01*
X56787404Y-40478619D01*
X56835023Y-40573857D01*
X56835023Y-40669095D01*
X56787404Y-40811952D01*
X56215976Y-41383380D01*
X56835023Y-41383380D01*
X57406452Y-40811952D02*
X57311214Y-40764333D01*
X57263595Y-40716714D01*
X57215976Y-40621476D01*
X57215976Y-40573857D01*
X57263595Y-40478619D01*
X57311214Y-40431000D01*
X57406452Y-40383380D01*
X57596928Y-40383380D01*
X57692166Y-40431000D01*
X57739785Y-40478619D01*
X57787404Y-40573857D01*
X57787404Y-40621476D01*
X57739785Y-40716714D01*
X57692166Y-40764333D01*
X57596928Y-40811952D01*
X57406452Y-40811952D01*
X57311214Y-40859571D01*
X57263595Y-40907190D01*
X57215976Y-41002428D01*
X57215976Y-41192904D01*
X57263595Y-41288142D01*
X57311214Y-41335761D01*
X57406452Y-41383380D01*
X57596928Y-41383380D01*
X57692166Y-41335761D01*
X57739785Y-41288142D01*
X57787404Y-41192904D01*
X57787404Y-41002428D01*
X57739785Y-40907190D01*
X57692166Y-40859571D01*
X57596928Y-40811952D01*
%TO.C,SW2*%
X103072180Y-96308160D02*
X103219707Y-96277971D01*
X103425904Y-96158923D01*
X103484573Y-96070065D01*
X103502003Y-96005016D01*
X103495623Y-95898728D01*
X103448004Y-95816249D01*
X103359146Y-95757580D01*
X103294097Y-95740151D01*
X103187809Y-95746530D01*
X102999042Y-95800529D01*
X102892754Y-95806909D01*
X102827705Y-95789479D01*
X102738847Y-95730810D01*
X102691228Y-95648331D01*
X102684848Y-95542043D01*
X102702278Y-95476994D01*
X102760947Y-95388136D01*
X102967143Y-95269088D01*
X103114671Y-95238899D01*
X103379536Y-95030993D02*
X104085733Y-95777971D01*
X103893547Y-95064143D01*
X104415647Y-95587495D01*
X104121844Y-94602422D01*
X104458138Y-94518234D02*
X104475568Y-94453185D01*
X104534237Y-94364327D01*
X104740433Y-94245279D01*
X104846721Y-94238899D01*
X104911770Y-94256329D01*
X105000629Y-94314998D01*
X105048248Y-94397477D01*
X105078437Y-94545004D01*
X104869280Y-95325590D01*
X105405391Y-95016066D01*
%TO.C,J2*%
X101866666Y-46962380D02*
X101866666Y-47676666D01*
X101819047Y-47819523D01*
X101723809Y-47914761D01*
X101580952Y-47962380D01*
X101485714Y-47962380D01*
X102295238Y-47057619D02*
X102342857Y-47010000D01*
X102438095Y-46962380D01*
X102676190Y-46962380D01*
X102771428Y-47010000D01*
X102819047Y-47057619D01*
X102866666Y-47152857D01*
X102866666Y-47248095D01*
X102819047Y-47390952D01*
X102247619Y-47962380D01*
X102866666Y-47962380D01*
%TO.C,IC1*%
X118123809Y-23252380D02*
X118123809Y-22252380D01*
X119171428Y-23157142D02*
X119123809Y-23204761D01*
X118980952Y-23252380D01*
X118885714Y-23252380D01*
X118742857Y-23204761D01*
X118647619Y-23109523D01*
X118600000Y-23014285D01*
X118552380Y-22823809D01*
X118552380Y-22680952D01*
X118600000Y-22490476D01*
X118647619Y-22395238D01*
X118742857Y-22300000D01*
X118885714Y-22252380D01*
X118980952Y-22252380D01*
X119123809Y-22300000D01*
X119171428Y-22347619D01*
X120123809Y-23252380D02*
X119552380Y-23252380D01*
X119838095Y-23252380D02*
X119838095Y-22252380D01*
X119742857Y-22395238D01*
X119647619Y-22490476D01*
X119552380Y-22538095D01*
%TO.C,C27*%
X76393142Y-50489142D02*
X76345523Y-50536761D01*
X76202666Y-50584380D01*
X76107428Y-50584380D01*
X75964571Y-50536761D01*
X75869333Y-50441523D01*
X75821714Y-50346285D01*
X75774095Y-50155809D01*
X75774095Y-50012952D01*
X75821714Y-49822476D01*
X75869333Y-49727238D01*
X75964571Y-49632000D01*
X76107428Y-49584380D01*
X76202666Y-49584380D01*
X76345523Y-49632000D01*
X76393142Y-49679619D01*
X76774095Y-49679619D02*
X76821714Y-49632000D01*
X76916952Y-49584380D01*
X77155047Y-49584380D01*
X77250285Y-49632000D01*
X77297904Y-49679619D01*
X77345523Y-49774857D01*
X77345523Y-49870095D01*
X77297904Y-50012952D01*
X76726476Y-50584380D01*
X77345523Y-50584380D01*
X77678857Y-49584380D02*
X78345523Y-49584380D01*
X77916952Y-50584380D01*
%TO.C,SW7*%
X40830666Y-51077761D02*
X40973523Y-51125380D01*
X41211619Y-51125380D01*
X41306857Y-51077761D01*
X41354476Y-51030142D01*
X41402095Y-50934904D01*
X41402095Y-50839666D01*
X41354476Y-50744428D01*
X41306857Y-50696809D01*
X41211619Y-50649190D01*
X41021142Y-50601571D01*
X40925904Y-50553952D01*
X40878285Y-50506333D01*
X40830666Y-50411095D01*
X40830666Y-50315857D01*
X40878285Y-50220619D01*
X40925904Y-50173000D01*
X41021142Y-50125380D01*
X41259238Y-50125380D01*
X41402095Y-50173000D01*
X41735428Y-50125380D02*
X41973523Y-51125380D01*
X42164000Y-50411095D01*
X42354476Y-51125380D01*
X42592571Y-50125380D01*
X42878285Y-50125380D02*
X43544952Y-50125380D01*
X43116380Y-51125380D01*
%TO.C,D6*%
X111078821Y-85371446D02*
X110578821Y-84505420D01*
X110785017Y-84386372D01*
X110932545Y-84356183D01*
X111062642Y-84391043D01*
X111151501Y-84449712D01*
X111287978Y-84590860D01*
X111359407Y-84714577D01*
X111413405Y-84903344D01*
X111419785Y-85009632D01*
X111384926Y-85139730D01*
X111285017Y-85252398D01*
X111078821Y-85371446D01*
X111816000Y-83791134D02*
X111651043Y-83886372D01*
X111592374Y-83975231D01*
X111574944Y-84040280D01*
X111563894Y-84211617D01*
X111617893Y-84400383D01*
X111808369Y-84730298D01*
X111897227Y-84788967D01*
X111962276Y-84806397D01*
X112068564Y-84800017D01*
X112233521Y-84704779D01*
X112292190Y-84615920D01*
X112309620Y-84550872D01*
X112303240Y-84444584D01*
X112184193Y-84238387D01*
X112095334Y-84179718D01*
X112030286Y-84162288D01*
X111923997Y-84168668D01*
X111759040Y-84263906D01*
X111700371Y-84352764D01*
X111682941Y-84417813D01*
X111689321Y-84524101D01*
%TO.C,D2*%
X129129904Y-21154380D02*
X129129904Y-20154380D01*
X129368000Y-20154380D01*
X129510857Y-20202000D01*
X129606095Y-20297238D01*
X129653714Y-20392476D01*
X129701333Y-20582952D01*
X129701333Y-20725809D01*
X129653714Y-20916285D01*
X129606095Y-21011523D01*
X129510857Y-21106761D01*
X129368000Y-21154380D01*
X129129904Y-21154380D01*
X130082285Y-20249619D02*
X130129904Y-20202000D01*
X130225142Y-20154380D01*
X130463238Y-20154380D01*
X130558476Y-20202000D01*
X130606095Y-20249619D01*
X130653714Y-20344857D01*
X130653714Y-20440095D01*
X130606095Y-20582952D01*
X130034666Y-21154380D01*
X130653714Y-21154380D01*
%TO.C,C4*%
X133357142Y-91566666D02*
X133404761Y-91614285D01*
X133452380Y-91757142D01*
X133452380Y-91852380D01*
X133404761Y-91995238D01*
X133309523Y-92090476D01*
X133214285Y-92138095D01*
X133023809Y-92185714D01*
X132880952Y-92185714D01*
X132690476Y-92138095D01*
X132595238Y-92090476D01*
X132500000Y-91995238D01*
X132452380Y-91852380D01*
X132452380Y-91757142D01*
X132500000Y-91614285D01*
X132547619Y-91566666D01*
X132785714Y-90709523D02*
X133452380Y-90709523D01*
X132404761Y-90947619D02*
X133119047Y-91185714D01*
X133119047Y-90566666D01*
%TO.C,SW3*%
X112500180Y-80711660D02*
X112647707Y-80681471D01*
X112853904Y-80562423D01*
X112912573Y-80473565D01*
X112930003Y-80408516D01*
X112923623Y-80302228D01*
X112876004Y-80219749D01*
X112787146Y-80161080D01*
X112722097Y-80143651D01*
X112615809Y-80150030D01*
X112427042Y-80204029D01*
X112320754Y-80210409D01*
X112255705Y-80192979D01*
X112166847Y-80134310D01*
X112119228Y-80051831D01*
X112112848Y-79945543D01*
X112130278Y-79880494D01*
X112188947Y-79791636D01*
X112395143Y-79672588D01*
X112542671Y-79642399D01*
X112807536Y-79434493D02*
X113513733Y-80181471D01*
X113321547Y-79467643D01*
X113843647Y-79990995D01*
X113549844Y-79005922D01*
X113797280Y-78863065D02*
X114333391Y-78553541D01*
X114235192Y-79050122D01*
X114358909Y-78978693D01*
X114465198Y-78972314D01*
X114530246Y-78989743D01*
X114619105Y-79048412D01*
X114738152Y-79254609D01*
X114744532Y-79360897D01*
X114727102Y-79425946D01*
X114668433Y-79514804D01*
X114420997Y-79657661D01*
X114314709Y-79664041D01*
X114249661Y-79646611D01*
%TO.C,C23*%
X115637142Y-22774857D02*
X115684761Y-22822476D01*
X115732380Y-22965333D01*
X115732380Y-23060571D01*
X115684761Y-23203428D01*
X115589523Y-23298666D01*
X115494285Y-23346285D01*
X115303809Y-23393904D01*
X115160952Y-23393904D01*
X114970476Y-23346285D01*
X114875238Y-23298666D01*
X114780000Y-23203428D01*
X114732380Y-23060571D01*
X114732380Y-22965333D01*
X114780000Y-22822476D01*
X114827619Y-22774857D01*
X114827619Y-22393904D02*
X114780000Y-22346285D01*
X114732380Y-22251047D01*
X114732380Y-22012952D01*
X114780000Y-21917714D01*
X114827619Y-21870095D01*
X114922857Y-21822476D01*
X115018095Y-21822476D01*
X115160952Y-21870095D01*
X115732380Y-22441523D01*
X115732380Y-21822476D01*
X114732380Y-21489142D02*
X114732380Y-20870095D01*
X115113333Y-21203428D01*
X115113333Y-21060571D01*
X115160952Y-20965333D01*
X115208571Y-20917714D01*
X115303809Y-20870095D01*
X115541904Y-20870095D01*
X115637142Y-20917714D01*
X115684761Y-20965333D01*
X115732380Y-21060571D01*
X115732380Y-21346285D01*
X115684761Y-21441523D01*
X115637142Y-21489142D01*
%TO.C,BT1*%
X50914285Y-23528571D02*
X51057142Y-23576190D01*
X51104761Y-23623809D01*
X51152380Y-23719047D01*
X51152380Y-23861904D01*
X51104761Y-23957142D01*
X51057142Y-24004761D01*
X50961904Y-24052380D01*
X50580952Y-24052380D01*
X50580952Y-23052380D01*
X50914285Y-23052380D01*
X51009523Y-23100000D01*
X51057142Y-23147619D01*
X51104761Y-23242857D01*
X51104761Y-23338095D01*
X51057142Y-23433333D01*
X51009523Y-23480952D01*
X50914285Y-23528571D01*
X50580952Y-23528571D01*
X51438095Y-23052380D02*
X52009523Y-23052380D01*
X51723809Y-24052380D02*
X51723809Y-23052380D01*
X52866666Y-24052380D02*
X52295238Y-24052380D01*
X52580952Y-24052380D02*
X52580952Y-23052380D01*
X52485714Y-23195238D01*
X52390476Y-23290476D01*
X52295238Y-23338095D01*
%TO.C,R2*%
X124113333Y-23854380D02*
X123780000Y-23378190D01*
X123541904Y-23854380D02*
X123541904Y-22854380D01*
X123922857Y-22854380D01*
X124018095Y-22902000D01*
X124065714Y-22949619D01*
X124113333Y-23044857D01*
X124113333Y-23187714D01*
X124065714Y-23282952D01*
X124018095Y-23330571D01*
X123922857Y-23378190D01*
X123541904Y-23378190D01*
X124494285Y-22949619D02*
X124541904Y-22902000D01*
X124637142Y-22854380D01*
X124875238Y-22854380D01*
X124970476Y-22902000D01*
X125018095Y-22949619D01*
X125065714Y-23044857D01*
X125065714Y-23140095D01*
X125018095Y-23282952D01*
X124446666Y-23854380D01*
X125065714Y-23854380D01*
%TO.C,SW4*%
X79714666Y-53149761D02*
X79857523Y-53197380D01*
X80095619Y-53197380D01*
X80190857Y-53149761D01*
X80238476Y-53102142D01*
X80286095Y-53006904D01*
X80286095Y-52911666D01*
X80238476Y-52816428D01*
X80190857Y-52768809D01*
X80095619Y-52721190D01*
X79905142Y-52673571D01*
X79809904Y-52625952D01*
X79762285Y-52578333D01*
X79714666Y-52483095D01*
X79714666Y-52387857D01*
X79762285Y-52292619D01*
X79809904Y-52245000D01*
X79905142Y-52197380D01*
X80143238Y-52197380D01*
X80286095Y-52245000D01*
X80619428Y-52197380D02*
X80857523Y-53197380D01*
X81048000Y-52483095D01*
X81238476Y-53197380D01*
X81476571Y-52197380D01*
X82286095Y-52530714D02*
X82286095Y-53197380D01*
X82048000Y-52149761D02*
X81809904Y-52864047D01*
X82428952Y-52864047D01*
%TO.C,D10*%
X14353714Y-64730380D02*
X14353714Y-63730380D01*
X14591809Y-63730380D01*
X14734666Y-63778000D01*
X14829904Y-63873238D01*
X14877523Y-63968476D01*
X14925142Y-64158952D01*
X14925142Y-64301809D01*
X14877523Y-64492285D01*
X14829904Y-64587523D01*
X14734666Y-64682761D01*
X14591809Y-64730380D01*
X14353714Y-64730380D01*
X15877523Y-64730380D02*
X15306095Y-64730380D01*
X15591809Y-64730380D02*
X15591809Y-63730380D01*
X15496571Y-63873238D01*
X15401333Y-63968476D01*
X15306095Y-64016095D01*
X16496571Y-63730380D02*
X16591809Y-63730380D01*
X16687047Y-63778000D01*
X16734666Y-63825619D01*
X16782285Y-63920857D01*
X16829904Y-64111333D01*
X16829904Y-64349428D01*
X16782285Y-64539904D01*
X16734666Y-64635142D01*
X16687047Y-64682761D01*
X16591809Y-64730380D01*
X16496571Y-64730380D01*
X16401333Y-64682761D01*
X16353714Y-64635142D01*
X16306095Y-64539904D01*
X16258476Y-64349428D01*
X16258476Y-64111333D01*
X16306095Y-63920857D01*
X16353714Y-63825619D01*
X16401333Y-63778000D01*
X16496571Y-63730380D01*
%TO.C,C24*%
X122749142Y-24806857D02*
X122796761Y-24854476D01*
X122844380Y-24997333D01*
X122844380Y-25092571D01*
X122796761Y-25235428D01*
X122701523Y-25330666D01*
X122606285Y-25378285D01*
X122415809Y-25425904D01*
X122272952Y-25425904D01*
X122082476Y-25378285D01*
X121987238Y-25330666D01*
X121892000Y-25235428D01*
X121844380Y-25092571D01*
X121844380Y-24997333D01*
X121892000Y-24854476D01*
X121939619Y-24806857D01*
X121939619Y-24425904D02*
X121892000Y-24378285D01*
X121844380Y-24283047D01*
X121844380Y-24044952D01*
X121892000Y-23949714D01*
X121939619Y-23902095D01*
X122034857Y-23854476D01*
X122130095Y-23854476D01*
X122272952Y-23902095D01*
X122844380Y-24473523D01*
X122844380Y-23854476D01*
X122177714Y-22997333D02*
X122844380Y-22997333D01*
X121796761Y-23235428D02*
X122511047Y-23473523D01*
X122511047Y-22854476D01*
%TO.C,C26*%
X123357142Y-79542857D02*
X123404761Y-79590476D01*
X123452380Y-79733333D01*
X123452380Y-79828571D01*
X123404761Y-79971428D01*
X123309523Y-80066666D01*
X123214285Y-80114285D01*
X123023809Y-80161904D01*
X122880952Y-80161904D01*
X122690476Y-80114285D01*
X122595238Y-80066666D01*
X122500000Y-79971428D01*
X122452380Y-79828571D01*
X122452380Y-79733333D01*
X122500000Y-79590476D01*
X122547619Y-79542857D01*
X122547619Y-79161904D02*
X122500000Y-79114285D01*
X122452380Y-79019047D01*
X122452380Y-78780952D01*
X122500000Y-78685714D01*
X122547619Y-78638095D01*
X122642857Y-78590476D01*
X122738095Y-78590476D01*
X122880952Y-78638095D01*
X123452380Y-79209523D01*
X123452380Y-78590476D01*
X122452380Y-77733333D02*
X122452380Y-77923809D01*
X122500000Y-78019047D01*
X122547619Y-78066666D01*
X122690476Y-78161904D01*
X122880952Y-78209523D01*
X123261904Y-78209523D01*
X123357142Y-78161904D01*
X123404761Y-78114285D01*
X123452380Y-78019047D01*
X123452380Y-77828571D01*
X123404761Y-77733333D01*
X123357142Y-77685714D01*
X123261904Y-77638095D01*
X123023809Y-77638095D01*
X122928571Y-77685714D01*
X122880952Y-77733333D01*
X122833333Y-77828571D01*
X122833333Y-78019047D01*
X122880952Y-78114285D01*
X122928571Y-78161904D01*
X123023809Y-78209523D01*
%TO.C,C25*%
X105557142Y-91057142D02*
X105509523Y-91104761D01*
X105366666Y-91152380D01*
X105271428Y-91152380D01*
X105128571Y-91104761D01*
X105033333Y-91009523D01*
X104985714Y-90914285D01*
X104938095Y-90723809D01*
X104938095Y-90580952D01*
X104985714Y-90390476D01*
X105033333Y-90295238D01*
X105128571Y-90200000D01*
X105271428Y-90152380D01*
X105366666Y-90152380D01*
X105509523Y-90200000D01*
X105557142Y-90247619D01*
X105938095Y-90247619D02*
X105985714Y-90200000D01*
X106080952Y-90152380D01*
X106319047Y-90152380D01*
X106414285Y-90200000D01*
X106461904Y-90247619D01*
X106509523Y-90342857D01*
X106509523Y-90438095D01*
X106461904Y-90580952D01*
X105890476Y-91152380D01*
X106509523Y-91152380D01*
X107414285Y-90152380D02*
X106938095Y-90152380D01*
X106890476Y-90628571D01*
X106938095Y-90580952D01*
X107033333Y-90533333D01*
X107271428Y-90533333D01*
X107366666Y-90580952D01*
X107414285Y-90628571D01*
X107461904Y-90723809D01*
X107461904Y-90961904D01*
X107414285Y-91057142D01*
X107366666Y-91104761D01*
X107271428Y-91152380D01*
X107033333Y-91152380D01*
X106938095Y-91104761D01*
X106890476Y-91057142D01*
%TO.C,J3*%
X64782380Y-38333333D02*
X65496666Y-38333333D01*
X65639523Y-38380952D01*
X65734761Y-38476190D01*
X65782380Y-38619047D01*
X65782380Y-38714285D01*
X64782380Y-37952380D02*
X64782380Y-37333333D01*
X65163333Y-37666666D01*
X65163333Y-37523809D01*
X65210952Y-37428571D01*
X65258571Y-37380952D01*
X65353809Y-37333333D01*
X65591904Y-37333333D01*
X65687142Y-37380952D01*
X65734761Y-37428571D01*
X65782380Y-37523809D01*
X65782380Y-37809523D01*
X65734761Y-37904761D01*
X65687142Y-37952380D01*
%TO.C,D7*%
X53115904Y-56967380D02*
X53115904Y-55967380D01*
X53354000Y-55967380D01*
X53496857Y-56015000D01*
X53592095Y-56110238D01*
X53639714Y-56205476D01*
X53687333Y-56395952D01*
X53687333Y-56538809D01*
X53639714Y-56729285D01*
X53592095Y-56824523D01*
X53496857Y-56919761D01*
X53354000Y-56967380D01*
X53115904Y-56967380D01*
X54020666Y-55967380D02*
X54687333Y-55967380D01*
X54258761Y-56967380D01*
%TO.C,D9*%
X35493904Y-54570380D02*
X35493904Y-53570380D01*
X35732000Y-53570380D01*
X35874857Y-53618000D01*
X35970095Y-53713238D01*
X36017714Y-53808476D01*
X36065333Y-53998952D01*
X36065333Y-54141809D01*
X36017714Y-54332285D01*
X35970095Y-54427523D01*
X35874857Y-54522761D01*
X35732000Y-54570380D01*
X35493904Y-54570380D01*
X36541523Y-54570380D02*
X36732000Y-54570380D01*
X36827238Y-54522761D01*
X36874857Y-54475142D01*
X36970095Y-54332285D01*
X37017714Y-54141809D01*
X37017714Y-53760857D01*
X36970095Y-53665619D01*
X36922476Y-53618000D01*
X36827238Y-53570380D01*
X36636761Y-53570380D01*
X36541523Y-53618000D01*
X36493904Y-53665619D01*
X36446285Y-53760857D01*
X36446285Y-53998952D01*
X36493904Y-54094190D01*
X36541523Y-54141809D01*
X36636761Y-54189428D01*
X36827238Y-54189428D01*
X36922476Y-54141809D01*
X36970095Y-54094190D01*
X37017714Y-53998952D01*
D15*
%TO.C,J1*%
X103450000Y-23950000D02*
G75*
G02*
X103450000Y-23750000I0J100000D01*
G01*
X103450000Y-23750000D02*
G75*
G02*
X103450000Y-23950000I0J-100000D01*
G01*
D16*
X95630000Y-11850000D02*
X95630000Y-14880000D01*
X104370000Y-11850000D02*
X95630000Y-11850000D01*
X104370000Y-14880000D02*
X104370000Y-11850000D01*
X95630000Y-19380000D02*
X95630000Y-17880000D01*
X104370000Y-19380000D02*
X104370000Y-17880000D01*
X95630000Y-23050000D02*
X95630000Y-22380000D01*
X96500000Y-23050000D02*
X95630000Y-23050000D01*
X104370000Y-23050000D02*
X103500000Y-23050000D01*
X104370000Y-22350000D02*
X104370000Y-23050000D01*
D15*
X103450000Y-23750000D02*
X103450000Y-23750000D01*
X103450000Y-23950000D02*
X103450000Y-23950000D01*
D17*
%TO.C,SW9*%
X17406667Y-38655000D02*
X17406667Y-39925000D01*
X16200000Y-36355000D02*
X17406667Y-36355000D01*
X16200000Y-39925000D02*
X19820000Y-39925000D01*
X16200000Y-36955000D02*
X17406667Y-36955000D01*
X19820000Y-37385000D02*
X19820000Y-36115000D01*
X19820000Y-39925000D02*
X19820000Y-38655000D01*
X14600000Y-34640000D02*
X21421000Y-34640000D01*
X16200000Y-37195000D02*
X17406667Y-37195000D01*
X21421000Y-37740000D02*
X21421000Y-38301000D01*
X14600000Y-37790000D02*
X14600000Y-38301000D01*
X16200000Y-39615000D02*
X17406667Y-39615000D01*
X16200000Y-39015000D02*
X17406667Y-39015000D01*
X16200000Y-39255000D02*
X17406667Y-39255000D01*
X16200000Y-37075000D02*
X17406667Y-37075000D01*
X16200000Y-36235000D02*
X17406667Y-36235000D01*
X16200000Y-36595000D02*
X17406667Y-36595000D01*
X19820000Y-36115000D02*
X16200000Y-36115000D01*
X17406667Y-36115000D02*
X17406667Y-37385000D01*
X14360000Y-34400000D02*
X15743000Y-34400000D01*
X16200000Y-36475000D02*
X17406667Y-36475000D01*
X16200000Y-38775000D02*
X17406667Y-38775000D01*
X21421000Y-34640000D02*
X21421000Y-35760000D01*
X16200000Y-39855000D02*
X17406667Y-39855000D01*
X16200000Y-39135000D02*
X17406667Y-39135000D01*
X21421000Y-40280000D02*
X21421000Y-41400000D01*
X19820000Y-38655000D02*
X16200000Y-38655000D01*
X14600000Y-40280000D02*
X14600000Y-41400000D01*
X16200000Y-36715000D02*
X17406667Y-36715000D01*
X14360000Y-34400000D02*
X14360000Y-35710000D01*
X16200000Y-36115000D02*
X16200000Y-37385000D01*
X16200000Y-39495000D02*
X17406667Y-39495000D01*
X14600000Y-41400000D02*
X21421000Y-41400000D01*
X16200000Y-37315000D02*
X17406667Y-37315000D01*
X16200000Y-38655000D02*
X16200000Y-39925000D01*
X14600000Y-34640000D02*
X14600000Y-35710000D01*
X16200000Y-38895000D02*
X17406667Y-38895000D01*
X16200000Y-39735000D02*
X17406667Y-39735000D01*
X16200000Y-37385000D02*
X19820000Y-37385000D01*
X16200000Y-36835000D02*
X17406667Y-36835000D01*
X16200000Y-39375000D02*
X17406667Y-39375000D01*
%TO.C,R3*%
X100923276Y-30142500D02*
X101432724Y-30142500D01*
X100923276Y-29097500D02*
X101432724Y-29097500D01*
%TO.C,D8*%
X59418000Y-48275000D02*
X62618000Y-48275000D01*
X62618000Y-48250000D02*
X62618000Y-47100000D01*
X59618000Y-45775000D02*
X62218000Y-45775000D01*
X60718000Y-45075000D02*
X61118000Y-45075000D01*
X61118000Y-45075000D02*
X61118000Y-45475000D01*
X61118000Y-45475000D02*
X60718000Y-45475000D01*
X60718000Y-45475000D02*
X60718000Y-45075000D01*
%TO.C,D1*%
X128462000Y-18349000D02*
X128462000Y-19819000D01*
X128462000Y-19819000D02*
X130922000Y-19819000D01*
X130922000Y-18349000D02*
X128462000Y-18349000D01*
%TO.C,D3*%
X123128000Y-15501000D02*
X125588000Y-15501000D01*
X123128000Y-14031000D02*
X123128000Y-15501000D01*
X125588000Y-14031000D02*
X123128000Y-14031000D01*
D14*
%TO.C,SW1*%
X116503822Y-99255848D02*
X116003822Y-98389822D01*
X116869848Y-97889822D02*
X116003822Y-98389822D01*
X128128178Y-91389822D02*
X128628178Y-92255848D01*
X123003822Y-110514178D02*
X122503822Y-109648152D01*
X123003822Y-110514178D02*
X123869848Y-110014178D01*
X128128178Y-91389822D02*
X127262152Y-91889822D01*
X134262152Y-104014178D02*
X135128178Y-103514178D01*
X134628178Y-102648152D02*
X135128178Y-103514178D01*
D17*
%TO.C,D4*%
X122490962Y-98757833D02*
X125262243Y-97157833D01*
X121414167Y-96492770D02*
X123665833Y-95192770D01*
X125249743Y-97136182D02*
X124674743Y-96140253D01*
X122016795Y-95336552D02*
X122363205Y-95136552D01*
X122363205Y-95136552D02*
X122563205Y-95482962D01*
X122563205Y-95482962D02*
X122216795Y-95682962D01*
X122216795Y-95682962D02*
X122016795Y-95336552D01*
D14*
%TO.C,SW5*%
X68000000Y-57689000D02*
X68000000Y-58689000D01*
X54000000Y-58689000D02*
X54000000Y-57689000D01*
X54000000Y-58689000D02*
X55000000Y-58689000D01*
X55000000Y-44689000D02*
X54000000Y-44689000D01*
X68000000Y-44689000D02*
X68000000Y-45689000D01*
X68000000Y-44689000D02*
X67000000Y-44689000D01*
X54000000Y-45689000D02*
X54000000Y-44689000D01*
X67000000Y-58689000D02*
X68000000Y-58689000D01*
D17*
%TO.C,R4*%
X106641500Y-25435276D02*
X106641500Y-25944724D01*
X107686500Y-25435276D02*
X107686500Y-25944724D01*
%TO.C,D5*%
X107909743Y-98554182D02*
X107334743Y-97558253D01*
X104074167Y-97910770D02*
X106325833Y-96610770D01*
X105150962Y-100175833D02*
X107922243Y-98575833D01*
X104676795Y-96754552D02*
X105023205Y-96554552D01*
X105023205Y-96554552D02*
X105223205Y-96900962D01*
X105223205Y-96900962D02*
X104876795Y-97100962D01*
X104876795Y-97100962D02*
X104676795Y-96754552D01*
%TO.C,R7*%
X120621224Y-16812500D02*
X120111776Y-16812500D01*
X120621224Y-15767500D02*
X120111776Y-15767500D01*
%TO.C,R6*%
X113952379Y-19210000D02*
X114287621Y-19210000D01*
X113952379Y-18450000D02*
X114287621Y-18450000D01*
D14*
%TO.C,SW6*%
X27000000Y-75000000D02*
X27000000Y-76000000D01*
X27000000Y-62000000D02*
X26000000Y-62000000D01*
X13000000Y-76000000D02*
X13000000Y-75000000D01*
X14000000Y-62000000D02*
X13000000Y-62000000D01*
X27000000Y-62000000D02*
X27000000Y-63000000D01*
X13000000Y-76000000D02*
X14000000Y-76000000D01*
X13000000Y-63000000D02*
X13000000Y-62000000D01*
X26000000Y-76000000D02*
X27000000Y-76000000D01*
D17*
%TO.C,C29*%
X36085733Y-50056000D02*
X36378267Y-50056000D01*
X36085733Y-49036000D02*
X36378267Y-49036000D01*
%TO.C,C30*%
X15929733Y-59962000D02*
X16222267Y-59962000D01*
X15929733Y-58942000D02*
X16222267Y-58942000D01*
%TO.C,C22*%
X104199000Y-26310748D02*
X104199000Y-26833252D01*
X102729000Y-26310748D02*
X102729000Y-26833252D01*
%TO.C,R5*%
X114287621Y-20480000D02*
X113952379Y-20480000D01*
X114287621Y-19720000D02*
X113952379Y-19720000D01*
%TO.C,R1*%
X125296724Y-19577500D02*
X124787276Y-19577500D01*
X125296724Y-20622500D02*
X124787276Y-20622500D01*
%TO.C,C28*%
X56379233Y-41851000D02*
X56671767Y-41851000D01*
X56379233Y-42871000D02*
X56671767Y-42871000D01*
D14*
%TO.C,SW2*%
X99455848Y-99377822D02*
X98589822Y-99877822D01*
X105589822Y-112002178D02*
X105089822Y-111136152D01*
X116848152Y-105502178D02*
X117714178Y-105002178D01*
X110714178Y-92877822D02*
X109848152Y-93377822D01*
X99089822Y-100743848D02*
X98589822Y-99877822D01*
X117214178Y-104136152D02*
X117714178Y-105002178D01*
X105589822Y-112002178D02*
X106455848Y-111502178D01*
X110714178Y-92877822D02*
X111214178Y-93743848D01*
D17*
%TO.C,J2*%
X103530000Y-43910000D02*
X103530000Y-36230000D01*
X103530000Y-36230000D02*
X100870000Y-36230000D01*
X100870000Y-43910000D02*
X100870000Y-36230000D01*
X103530000Y-45180000D02*
X103530000Y-46510000D01*
X103530000Y-43910000D02*
X100870000Y-43910000D01*
X103530000Y-46510000D02*
X102200000Y-46510000D01*
D14*
%TO.C,IC1*%
X117425000Y-18525000D02*
X117425000Y-18825000D01*
X120775000Y-21650000D02*
X122000000Y-21650000D01*
X117425000Y-21875000D02*
X117425000Y-21575000D01*
X120775000Y-18525000D02*
X120775000Y-18825000D01*
X120775000Y-21875000D02*
X117425000Y-21875000D01*
X120775000Y-21875000D02*
X120775000Y-21650000D01*
X120775000Y-18525000D02*
X117425000Y-18525000D01*
D17*
%TO.C,C27*%
X76889733Y-51052000D02*
X77182267Y-51052000D01*
X76889733Y-52072000D02*
X77182267Y-52072000D01*
D14*
%TO.C,SW7*%
X47000000Y-65000000D02*
X47000000Y-66000000D01*
X46000000Y-66000000D02*
X47000000Y-66000000D01*
X47000000Y-52000000D02*
X46000000Y-52000000D01*
X34000000Y-52000000D02*
X33000000Y-52000000D01*
X47000000Y-52000000D02*
X47000000Y-53000000D01*
X33000000Y-66000000D02*
X34000000Y-66000000D01*
X33000000Y-53000000D02*
X33000000Y-52000000D01*
X33000000Y-66000000D02*
X33000000Y-65000000D01*
D17*
%TO.C,D6*%
X113354167Y-82254270D02*
X115605833Y-80954270D01*
X114430962Y-84519333D02*
X117202243Y-82919333D01*
X117189743Y-82897682D02*
X116614743Y-81901753D01*
X113956795Y-81098052D02*
X114303205Y-80898052D01*
X114303205Y-80898052D02*
X114503205Y-81244462D01*
X114503205Y-81244462D02*
X114156795Y-81444462D01*
X114156795Y-81444462D02*
X113956795Y-81098052D01*
%TO.C,D2*%
X128208000Y-22867000D02*
X130668000Y-22867000D01*
X130668000Y-21397000D02*
X128208000Y-21397000D01*
X128208000Y-21397000D02*
X128208000Y-22867000D01*
%TO.C,C4*%
X132010000Y-91546267D02*
X132010000Y-91253733D01*
X130990000Y-91546267D02*
X130990000Y-91253733D01*
D14*
%TO.C,SW3*%
X108883848Y-83781322D02*
X108017822Y-84281322D01*
X120142178Y-77281322D02*
X119276152Y-77781322D01*
X115017822Y-96405678D02*
X114517822Y-95539652D01*
X126276152Y-89905678D02*
X127142178Y-89405678D01*
X120142178Y-77281322D02*
X120642178Y-78147348D01*
X108517822Y-85147348D02*
X108017822Y-84281322D01*
X115017822Y-96405678D02*
X115883848Y-95905678D01*
X126642178Y-88539652D02*
X127142178Y-89405678D01*
D17*
%TO.C,C23*%
X114480000Y-22016165D02*
X114480000Y-22247835D01*
X113760000Y-22016165D02*
X113760000Y-22247835D01*
%TO.C,BT1*%
X90700000Y-12550000D02*
X90700000Y-32650000D01*
X12700000Y-32650000D02*
X12700000Y-12550000D01*
X12700000Y-12550000D02*
X90700000Y-12550000D01*
X90700000Y-32650000D02*
X12700000Y-32650000D01*
%TO.C,R2*%
X124534724Y-21449500D02*
X124025276Y-21449500D01*
X124534724Y-22494500D02*
X124025276Y-22494500D01*
D14*
%TO.C,SW4*%
X74048000Y-55000000D02*
X74048000Y-54000000D01*
X74048000Y-68000000D02*
X74048000Y-67000000D01*
X87048000Y-68000000D02*
X88048000Y-68000000D01*
X88048000Y-54000000D02*
X88048000Y-55000000D01*
X74048000Y-68000000D02*
X75048000Y-68000000D01*
X75048000Y-54000000D02*
X74048000Y-54000000D01*
X88048000Y-54000000D02*
X87048000Y-54000000D01*
X88048000Y-67000000D02*
X88048000Y-68000000D01*
D17*
%TO.C,D10*%
X21740000Y-65516500D02*
X21740000Y-64366500D01*
X18540000Y-65541500D02*
X21740000Y-65541500D01*
X18740000Y-63041500D02*
X21340000Y-63041500D01*
X19840000Y-62341500D02*
X20240000Y-62341500D01*
X20240000Y-62341500D02*
X20240000Y-62741500D01*
X20240000Y-62741500D02*
X19840000Y-62741500D01*
X19840000Y-62741500D02*
X19840000Y-62341500D01*
%TO.C,C24*%
X121592000Y-24048165D02*
X121592000Y-24279835D01*
X120872000Y-24048165D02*
X120872000Y-24279835D01*
%TO.C,C26*%
X124910000Y-78753733D02*
X124910000Y-79046267D01*
X123890000Y-78753733D02*
X123890000Y-79046267D01*
%TO.C,C25*%
X106053733Y-92710000D02*
X106346267Y-92710000D01*
X106053733Y-91690000D02*
X106346267Y-91690000D01*
%TO.C,J3*%
X61730000Y-36670000D02*
X61730000Y-39330000D01*
X61730000Y-36670000D02*
X46430000Y-36670000D01*
X46430000Y-36670000D02*
X46430000Y-39330000D01*
X64330000Y-36670000D02*
X64330000Y-38000000D01*
X61730000Y-39330000D02*
X46430000Y-39330000D01*
X63000000Y-36670000D02*
X64330000Y-36670000D01*
%TO.C,D7*%
X82700000Y-57499500D02*
X82700000Y-56349500D01*
X79500000Y-57524500D02*
X82700000Y-57524500D01*
X79700000Y-55024500D02*
X82300000Y-55024500D01*
X80800000Y-54324500D02*
X81200000Y-54324500D01*
X81200000Y-54324500D02*
X81200000Y-54724500D01*
X81200000Y-54724500D02*
X80800000Y-54724500D01*
X80800000Y-54724500D02*
X80800000Y-54324500D01*
%TO.C,D9*%
X38769000Y-53008500D02*
X41369000Y-53008500D01*
X41769000Y-55483500D02*
X41769000Y-54333500D01*
X38569000Y-55508500D02*
X41769000Y-55508500D01*
X39869000Y-52308500D02*
X40269000Y-52308500D01*
X40269000Y-52308500D02*
X40269000Y-52708500D01*
X40269000Y-52708500D02*
X39869000Y-52708500D01*
X39869000Y-52708500D02*
X39869000Y-52308500D01*
%TO.C,G\u002A\u002A\u002A*%
G36*
X65664484Y-86582324D02*
G01*
X65705682Y-86586995D01*
X65864400Y-86647440D01*
X65962876Y-86690356D01*
X66109331Y-86765955D01*
X66173982Y-86837544D01*
X66163117Y-86922054D01*
X66088859Y-87029392D01*
X65903471Y-87321016D01*
X65800151Y-87647964D01*
X65778321Y-88012587D01*
X65798620Y-88215420D01*
X65831626Y-88607985D01*
X65819197Y-89005745D01*
X65764105Y-89381738D01*
X65669123Y-89709008D01*
X65637160Y-89785163D01*
X65413183Y-90198110D01*
X65139366Y-90550117D01*
X64846944Y-90824992D01*
X64656890Y-90968653D01*
X64425016Y-91123792D01*
X64174452Y-91276833D01*
X63928331Y-91414194D01*
X63709786Y-91522297D01*
X63554240Y-91583839D01*
X63447052Y-91609382D01*
X63364771Y-91595903D01*
X63264213Y-91534324D01*
X63241842Y-91518162D01*
X62876518Y-91287770D01*
X62525724Y-91143249D01*
X62180296Y-91083074D01*
X61831070Y-91105717D01*
X61468880Y-91209654D01*
X61445250Y-91218956D01*
X61307515Y-91286252D01*
X61147511Y-91382680D01*
X60984423Y-91494176D01*
X60837435Y-91606674D01*
X60725736Y-91706106D01*
X60668507Y-91778408D01*
X60664917Y-91791053D01*
X60620671Y-91819256D01*
X60504278Y-91820765D01*
X60329065Y-91798776D01*
X60108361Y-91756490D01*
X59855494Y-91697103D01*
X59583792Y-91623813D01*
X59306584Y-91539819D01*
X59037198Y-91448319D01*
X58788961Y-91352511D01*
X58726311Y-91325892D01*
X58111887Y-91020030D01*
X57568436Y-90668600D01*
X57098677Y-90274195D01*
X56705326Y-89839411D01*
X56391103Y-89366840D01*
X56167713Y-88883536D01*
X56077721Y-88596473D01*
X56037805Y-88342774D01*
X56035111Y-88253973D01*
X56173654Y-88253973D01*
X56189772Y-88492176D01*
X56244117Y-88733791D01*
X56260731Y-88783515D01*
X56442545Y-89195173D01*
X56694627Y-89598890D01*
X56995896Y-89975456D01*
X57380264Y-90360078D01*
X57818676Y-90698469D01*
X58318105Y-90994466D01*
X58885528Y-91251903D01*
X59527917Y-91474614D01*
X59925750Y-91586311D01*
X60491152Y-91733432D01*
X60796907Y-91468333D01*
X61140412Y-91217431D01*
X61494878Y-91054313D01*
X61869417Y-90976231D01*
X62273141Y-90980434D01*
X62372490Y-90992956D01*
X62585281Y-91032711D01*
X62765030Y-91091105D01*
X62954249Y-91183556D01*
X63052587Y-91239659D01*
X63218550Y-91331236D01*
X63366104Y-91402377D01*
X63469935Y-91441189D01*
X63489225Y-91444791D01*
X63593324Y-91425167D01*
X63752753Y-91360122D01*
X63950720Y-91258996D01*
X64170434Y-91131128D01*
X64395104Y-90985855D01*
X64607938Y-90832515D01*
X64652473Y-90797861D01*
X65014268Y-90474622D01*
X65297787Y-90135523D01*
X65515303Y-89765850D01*
X65518326Y-89759581D01*
X65620026Y-89476315D01*
X65686995Y-89136600D01*
X65716155Y-88768830D01*
X65704430Y-88401395D01*
X65683606Y-88234928D01*
X65661355Y-87940365D01*
X65683629Y-87648172D01*
X65745376Y-87377984D01*
X65841539Y-87149438D01*
X65967065Y-86982166D01*
X66016366Y-86942167D01*
X66059800Y-86903845D01*
X66046023Y-86872744D01*
X65962860Y-86834248D01*
X65909942Y-86814424D01*
X65777724Y-86763343D01*
X65675088Y-86719315D01*
X65653442Y-86708536D01*
X65611443Y-86706945D01*
X65568405Y-86759336D01*
X65515671Y-86879021D01*
X65481104Y-86973513D01*
X65290361Y-87385815D01*
X65019974Y-87782688D01*
X64680509Y-88156584D01*
X64282530Y-88499960D01*
X63836604Y-88805269D01*
X63353296Y-89064965D01*
X62843169Y-89271505D01*
X62316790Y-89417340D01*
X61978531Y-89475042D01*
X61673851Y-89495709D01*
X61312820Y-89491286D01*
X60925314Y-89464334D01*
X60541208Y-89417419D01*
X60190377Y-89353105D01*
X60001851Y-89305379D01*
X59729147Y-89220902D01*
X59466398Y-89126747D01*
X59197560Y-89015700D01*
X58906584Y-88880547D01*
X58577424Y-88714077D01*
X58194036Y-88509074D01*
X58028517Y-88418315D01*
X57623331Y-88198776D01*
X57286826Y-88026025D01*
X57011533Y-87897847D01*
X56789984Y-87812025D01*
X56614714Y-87766344D01*
X56478255Y-87758587D01*
X56373139Y-87786539D01*
X56291899Y-87847983D01*
X56256579Y-87892481D01*
X56195882Y-88045353D01*
X56173654Y-88253973D01*
X56035111Y-88253973D01*
X56034232Y-88225017D01*
X56036339Y-87931068D01*
X56240134Y-87760063D01*
X56359452Y-87664764D01*
X56446171Y-87619080D01*
X56535397Y-87612492D01*
X56660457Y-87634114D01*
X56818837Y-87679249D01*
X57023294Y-87759493D01*
X57280366Y-87877958D01*
X57596596Y-88037751D01*
X57978524Y-88241984D01*
X58226706Y-88378682D01*
X58619179Y-88594532D01*
X58949635Y-88769269D01*
X59233845Y-88908143D01*
X59487576Y-89016403D01*
X59726599Y-89099297D01*
X59966682Y-89162072D01*
X60223595Y-89209978D01*
X60513106Y-89248263D01*
X60850984Y-89282175D01*
X60974350Y-89293176D01*
X61349954Y-89323704D01*
X61654603Y-89340960D01*
X61907189Y-89343001D01*
X62126597Y-89327881D01*
X62331718Y-89293655D01*
X62541437Y-89238381D01*
X62774646Y-89160114D01*
X62969361Y-89087802D01*
X63559909Y-88823621D01*
X64077682Y-88506656D01*
X64524871Y-88134915D01*
X64903669Y-87706405D01*
X65216266Y-87219131D01*
X65369640Y-86905310D01*
X65451593Y-86726221D01*
X65520662Y-86618638D01*
X65598231Y-86574812D01*
X65664484Y-86582324D01*
G37*
%TD*%
M02*
