M48
; DRILL file {KiCad (5.99.0-9739-g6a369b230f)} date Sat Mar 13 21:37:53 2021
; FORMAT={-:-/ absolute / inch / decimal}
; #@! TF.CreationDate,2021-03-13T21:37:53+01:00
; #@! TF.GenerationSoftware,Kicad,Pcbnew,(5.99.0-9739-g6a369b230f)
; #@! TF.FileFunction,Plated,1,2,PTH
FMAT,2
INCH
; #@! TA.AperFunction,ComponentDrill
T1C0.0118
; #@! TA.AperFunction,ViaDrill
T2C0.0130
; #@! TA.AperFunction,ViaDrill
T3C0.0150
; #@! TA.AperFunction,ComponentDrill
T4C0.0157
; #@! TA.AperFunction,ComponentDrill
T5C0.0177
; #@! TA.AperFunction,ComponentDrill
T6C0.0197
; #@! TA.AperFunction,ComponentDrill
T7C0.0315
; #@! TA.AperFunction,ComponentDrill
T8C0.0394
; #@! TA.AperFunction,ComponentDrill
T9C0.0500
; #@! TA.AperFunction,ComponentDrill
T10C0.0528
; #@! TA.AperFunction,ComponentDrill
T11C0.0787
; #@! TA.AperFunction,ComponentDrill
T12C0.1260
%
G90
G05
T1
; pad hole
X5.11Y-1.9051
T2
; via hole
X0.665Y-1.95
X0.665Y-2.59
X0.9055Y-2.4803
X1.6969Y-2.0866
X2.5236Y-1.7992
X3.05Y-2.26
X3.315Y-2.1693
X3.5654Y-2.7354
X3.5661Y-1.8811
X3.92Y-1.065
X3.943Y-1.09
X4.025Y-1.225
X4.065Y-0.96
X4.115Y-2.205
X4.1819Y-1.1217
X4.26Y-3.66
X4.26Y-3.79
X4.2992Y-2.3583
X4.3Y-3.15
X4.3236Y-1.8713
X4.3236Y-2.9449
X4.3657Y-1.8626
X4.3657Y-2.4272
X4.3701Y-1.6102
X4.3956Y-0.8261
X4.3956Y-0.8852
X4.4083Y-2.6343
X4.4098Y-1.8524
X4.4646Y-1.8354
X4.465Y-1.3285
X4.4996Y-1.9445
X4.5Y-1.315
X4.535Y-1.3
X4.535Y-1.8177
X4.565Y-1.5677
X4.5657Y-2.0
X4.5669Y-1.7942
X4.595Y-1.26
X4.5953Y-1.921
X4.6443Y-1.2911
X4.6453Y-1.8827
X4.6453Y-3.0
X4.6457Y-1.9687
X4.6772Y-1.5307
X4.6776Y-1.4366
X4.7059Y-1.6437
X4.7059Y-1.7224
X4.7059Y-1.811
X4.7223Y-3.0723
X4.725Y-1.42
X4.73Y-0.935
X4.745Y-3.505
X4.7634Y-1.9525
X4.7717Y-2.2087
X4.7724Y-1.7224
X4.7736Y-1.6437
X4.7736Y-1.811
X4.7942Y-1.9321
X4.81Y-0.895
X4.8189Y-1.9525
X4.8327Y-1.6437
X4.8327Y-1.7224
X4.8327Y-1.811
X4.8433Y-1.9252
X4.8441Y-1.326
X4.845Y-0.745
X4.8504Y-2.3543
X4.8701Y-1.0157
X4.8782Y-1.5189
X4.9004Y-1.7224
X4.9016Y-1.6437
X4.9016Y-1.811
X4.9028Y-3.63
X4.9311Y-1.4039
X4.9413Y-1.9161
X4.945Y-0.93
X4.945Y-1.005
X4.9765Y-1.2449
X4.9976Y-2.998
X5.0Y-1.09
X5.0Y-3.49
X5.0118Y-1.7087
X5.0118Y-1.9252
X5.04Y-1.065
X5.0402Y-1.4224
X5.0654Y-1.6484
X5.0787Y-1.9579
X5.0787Y-2.0169
X5.0839Y-1.5228
X5.1Y-3.57
X5.125Y-3.07
X5.125Y-3.635
X5.15Y-3.14
X5.1587Y-1.6705
X5.2583Y-1.1811
T3
X3.885Y-1.185
X4.085Y-1.185
T4
; pad hole
X3.8268Y-0.8713
X3.8425Y-0.8433
X3.874Y-0.8433
X3.8898Y-0.8713
X3.9055Y-0.8433
X3.9213Y-0.8713
X3.9528Y-0.8713
X3.9685Y-0.8433
X3.9843Y-0.8713
X4.0Y-0.8433
X4.0315Y-0.8433
X4.0472Y-0.8713
T5
X3.8583Y-0.8713
X4.0157Y-0.8713
T6
X0.7717Y-4.0551
X0.7993Y-3.9883
X0.7993Y-4.1219
X0.8661Y-3.9606
X0.8661Y-4.1496
X0.933Y-3.9883
X0.933Y-4.1219
X0.9606Y-4.0551
X2.0315Y-4.0551
X2.0592Y-3.9883
X2.0592Y-4.1219
X2.126Y-3.9606
X2.126Y-4.1496
X2.1928Y-3.9883
X2.1928Y-4.1219
X2.2205Y-4.0551
X3.2913Y-4.0551
X3.319Y-3.9883
X3.319Y-4.1219
X3.3858Y-3.9606
X3.3858Y-4.1496
X3.4526Y-3.9883
X3.4526Y-4.1219
X3.4803Y-4.0551
T7
X0.5591Y-1.4469
X0.5591Y-1.5469
X0.8591Y-1.4469
X0.8591Y-1.5469
T8
X1.8803Y-1.4961
X1.9803Y-1.4961
X2.0803Y-1.4961
X2.1803Y-1.4961
X2.2803Y-1.4961
X2.3803Y-1.4961
X2.4803Y-1.4961
X4.2559Y-1.389
X4.2559Y-1.489
X4.2559Y-1.589
X4.2559Y-1.689
T9
X0.5906Y-2.8661
X0.7874Y-2.9488
X1.378Y-2.4724
X1.5748Y-2.5551
X2.2047Y-2.1846
X2.4016Y-2.2673
X2.994Y-2.5512
X3.1909Y-2.6339
X4.1623Y-4.2611
X4.3741Y-4.2342
X4.5335Y-3.647
X4.7453Y-3.6202
X4.8479Y-4.2025
X5.0597Y-4.1757
T10
X3.7689Y-0.6398
X3.7689Y-0.826
X4.1051Y-0.6398
X4.1051Y-0.826
T11
X0.6181Y-0.8898
X3.4528Y-0.8898
T12
X0.8661Y-4.0551
X2.126Y-4.0551
X3.3858Y-4.0551
T0
M30
