M48
; DRILL file {KiCad (5.99.0-9634-gb691c18bfc)} date Tue Mar  9 21:57:48 2021
; FORMAT={-:-/ absolute / inch / decimal}
; #@! TF.CreationDate,2021-03-09T21:57:48+01:00
; #@! TF.GenerationSoftware,Kicad,Pcbnew,(5.99.0-9634-gb691c18bfc)
; #@! TF.FileFunction,Plated,1,2,PTH
FMAT,2
INCH
T1C0.0130
T2C0.0150
T3C0.0157
T4C0.0177
T5C0.0197
T6C0.0315
T7C0.0394
T8C0.0500
T9C0.0528
T10C0.0787
T11C0.1260
%
G90
G05
T1
X0.665Y-1.95
X0.665Y-2.59
X2.48Y-1.67
X3.05Y-2.26
X3.445Y-1.3435
X3.4528Y-1.2272
X3.92Y-1.065
X3.943Y-1.09
X4.025Y-1.225
X4.065Y-0.96
X4.065Y-1.93
X4.065Y-2.195
X4.095Y-1.235
X4.095Y-1.37
X4.115Y-2.205
X4.26Y-3.66
X4.26Y-3.79
X4.3Y-2.395
X4.3Y-3.15
X4.345Y-2.395
X4.3956Y-0.8261
X4.3956Y-0.8852
X4.465Y-1.3285
X4.465Y-1.89
X4.5Y-1.315
X4.5Y-1.85
X4.535Y-1.3
X4.535Y-1.81
X4.565Y-1.2833
X4.565Y-1.775
X4.595Y-1.26
X4.6024Y-1.7239
X4.64Y-1.12
X4.645Y-1.2585
X4.7223Y-3.0723
X4.725Y-1.42
X4.73Y-0.935
X4.745Y-3.505
X4.755Y-2.165
X4.765Y-3.975
X4.81Y-0.895
X4.845Y-0.745
X4.9028Y-3.63
X4.945Y-0.93
X4.945Y-1.005
X5.0Y-1.09
X5.0Y-1.57
X5.0Y-3.49
X5.03Y-1.97
X5.03Y-2.95
X5.04Y-1.065
X5.0535Y-2.635
X5.055Y-2.245
X5.08Y-1.93
X5.08Y-2.685
X5.1Y-3.57
X5.1035Y-2.01
X5.1035Y-2.45
X5.125Y-3.07
X5.125Y-3.635
X5.15Y-3.14
X5.155Y-2.325
X5.195Y-1.01
X5.195Y-1.575
X5.26Y-1.535
X5.26Y-2.085
T2
X3.885Y-1.185
X4.085Y-1.185
T3
X3.8268Y-0.8713
X3.8425Y-0.8433
X3.874Y-0.8433
X3.8898Y-0.8713
X3.9055Y-0.8433
X3.9213Y-0.8713
X3.9528Y-0.8713
X3.9685Y-0.8433
X3.9843Y-0.8713
X4.0Y-0.8433
X4.0315Y-0.8433
X4.0472Y-0.8713
T4
X3.8583Y-0.8713
X4.0157Y-0.8713
T5
X0.7717Y-4.0551
X0.7993Y-3.9883
X0.7993Y-4.1219
X0.8661Y-3.9606
X0.8661Y-4.1496
X0.933Y-3.9883
X0.933Y-4.1219
X0.9606Y-4.0551
X2.0315Y-4.0551
X2.0592Y-3.9883
X2.0592Y-4.1219
X2.126Y-3.9606
X2.126Y-4.1496
X2.1928Y-3.9883
X2.1928Y-4.1219
X2.2205Y-4.0551
X3.2913Y-4.0551
X3.319Y-3.9883
X3.319Y-4.1219
X3.3858Y-3.9606
X3.3858Y-4.1496
X3.4526Y-3.9883
X3.4526Y-4.1219
X3.4803Y-4.0551
T6
X0.5591Y-1.4469
X0.5591Y-1.5469
X0.8591Y-1.4469
X0.8591Y-1.5469
T7
X1.8803Y-1.4961
X1.9803Y-1.4961
X2.0803Y-1.4961
X2.1803Y-1.4961
X2.2803Y-1.4961
X2.3803Y-1.4961
X2.4803Y-1.4961
X4.0236Y-1.4787
X4.0236Y-1.5787
X4.0236Y-1.6787
X4.0236Y-1.7787
T8
X0.5906Y-2.8661
X0.7874Y-2.9488
X1.378Y-2.4724
X1.5748Y-2.5551
X2.2047Y-2.1846
X2.4016Y-2.2673
X2.994Y-2.5512
X3.1909Y-2.6339
X4.1623Y-4.2611
X4.3741Y-4.2342
X4.5335Y-3.647
X4.7453Y-3.6202
X4.8479Y-4.2025
X5.0597Y-4.1757
T9
X3.7689Y-0.6398
X3.7689Y-0.826
X4.1051Y-0.6398
X4.1051Y-0.826
T10
X0.6181Y-0.8898
X3.4528Y-0.8898
T11
X0.8661Y-4.0551
X2.126Y-4.0551
X3.3858Y-4.0551
T0
M30
