%TF.GenerationSoftware,KiCad,Pcbnew,6.0.4*%
%TF.CreationDate,2022-04-08T16:19:54+02:00*%
%TF.ProjectId,keychordz,6b657963-686f-4726-947a-2e6b69636164,rev?*%
%TF.SameCoordinates,Original*%
%TF.FileFunction,Copper,L1,Top*%
%TF.FilePolarity,Positive*%
%FSLAX46Y46*%
G04 Gerber Fmt 4.6, Leading zero omitted, Abs format (unit mm)*
G04 Created by KiCad (PCBNEW 6.0.4) date 2022-04-08 16:19:54*
%MOMM*%
%LPD*%
G01*
G04 APERTURE LIST*
G04 Aperture macros list*
%AMRoundRect*
0 Rectangle with rounded corners*
0 $1 Rounding radius*
0 $2 $3 $4 $5 $6 $7 $8 $9 X,Y pos of 4 corners*
0 Add a 4 corners polygon primitive as box body*
4,1,4,$2,$3,$4,$5,$6,$7,$8,$9,$2,$3,0*
0 Add four circle primitives for the rounded corners*
1,1,$1+$1,$2,$3*
1,1,$1+$1,$4,$5*
1,1,$1+$1,$6,$7*
1,1,$1+$1,$8,$9*
0 Add four rect primitives between the rounded corners*
20,1,$1+$1,$2,$3,$4,$5,0*
20,1,$1+$1,$4,$5,$6,$7,0*
20,1,$1+$1,$6,$7,$8,$9,0*
20,1,$1+$1,$8,$9,$2,$3,0*%
%AMRotRect*
0 Rectangle, with rotation*
0 The origin of the aperture is its center*
0 $1 length*
0 $2 width*
0 $3 Rotation angle, in degrees counterclockwise*
0 Add horizontal line*
21,1,$1,$2,0,0,$3*%
G04 Aperture macros list end*
%TA.AperFunction,ComponentPad*%
%ADD10R,0.850000X0.850000*%
%TD*%
%TA.AperFunction,ComponentPad*%
%ADD11O,0.850000X0.850000*%
%TD*%
%TA.AperFunction,ComponentPad*%
%ADD12C,0.800000*%
%TD*%
%TA.AperFunction,ComponentPad*%
%ADD13C,6.400000*%
%TD*%
%TA.AperFunction,SMDPad,CuDef*%
%ADD14RoundRect,0.237500X-0.250000X-0.237500X0.250000X-0.237500X0.250000X0.237500X-0.250000X0.237500X0*%
%TD*%
%TA.AperFunction,SMDPad,CuDef*%
%ADD15RoundRect,0.237500X0.250000X0.237500X-0.250000X0.237500X-0.250000X-0.237500X0.250000X-0.237500X0*%
%TD*%
%TA.AperFunction,SMDPad,CuDef*%
%ADD16R,1.200000X2.500000*%
%TD*%
%TA.AperFunction,SMDPad,CuDef*%
%ADD17R,0.700000X0.700000*%
%TD*%
%TA.AperFunction,ComponentPad*%
%ADD18C,2.032000*%
%TD*%
%TA.AperFunction,SMDPad,CuDef*%
%ADD19RotRect,0.700000X0.700000X30.000000*%
%TD*%
%TA.AperFunction,SMDPad,CuDef*%
%ADD20RoundRect,0.237500X-0.237500X0.250000X-0.237500X-0.250000X0.237500X-0.250000X0.237500X0.250000X0*%
%TD*%
%TA.AperFunction,SMDPad,CuDef*%
%ADD21RoundRect,0.237500X-0.300000X-0.237500X0.300000X-0.237500X0.300000X0.237500X-0.300000X0.237500X0*%
%TD*%
%TA.AperFunction,ComponentPad*%
%ADD22R,1.600000X1.600000*%
%TD*%
%TA.AperFunction,ComponentPad*%
%ADD23C,1.600000*%
%TD*%
%TA.AperFunction,SMDPad,CuDef*%
%ADD24RoundRect,0.250000X-0.475000X0.337500X-0.475000X-0.337500X0.475000X-0.337500X0.475000X0.337500X0*%
%TD*%
%TA.AperFunction,SMDPad,CuDef*%
%ADD25RoundRect,0.237500X0.237500X-0.300000X0.237500X0.300000X-0.237500X0.300000X-0.237500X-0.300000X0*%
%TD*%
%TA.AperFunction,SMDPad,CuDef*%
%ADD26R,0.200000X1.000000*%
%TD*%
%TA.AperFunction,ComponentPad*%
%ADD27C,2.010000*%
%TD*%
%TA.AperFunction,ComponentPad*%
%ADD28C,0.550000*%
%TD*%
%TA.AperFunction,ComponentPad*%
%ADD29C,0.650000*%
%TD*%
%TA.AperFunction,SMDPad,CuDef*%
%ADD30R,0.300000X1.200000*%
%TD*%
%TA.AperFunction,SMDPad,CuDef*%
%ADD31RoundRect,0.237500X-0.237500X0.300000X-0.237500X-0.300000X0.237500X-0.300000X0.237500X0.300000X0*%
%TD*%
%TA.AperFunction,ViaPad*%
%ADD32C,0.685800*%
%TD*%
%TA.AperFunction,Conductor*%
%ADD33C,0.254000*%
%TD*%
%TA.AperFunction,Conductor*%
%ADD34C,0.508000*%
%TD*%
%TA.AperFunction,Conductor*%
%ADD35C,0.127000*%
%TD*%
G04 APERTURE END LIST*
D10*
%TO.P,USB,1*%
%TO.N,USB_D-*%
X97231200Y-48361600D03*
D11*
%TO.P,USB,2*%
%TO.N,USB_D+*%
X97231200Y-49361598D03*
%TD*%
D12*
%TO.P,MNT5,1*%
%TO.N,N/C*%
X83697056Y-44697056D03*
X79600000Y-43000000D03*
X80302944Y-44697056D03*
X80302944Y-41302944D03*
X82000000Y-45400000D03*
X82000000Y-40600000D03*
X84400000Y-43000000D03*
D13*
X82000000Y-43000000D03*
D12*
X83697056Y-41302944D03*
%TD*%
%TO.P,MNT4,1*%
%TO.N,N/C*%
X23697056Y-44697056D03*
X19600000Y-43000000D03*
X20302944Y-44697056D03*
X20302944Y-41302944D03*
X22000000Y-45400000D03*
X22000000Y-40600000D03*
X24400000Y-43000000D03*
D13*
X22000000Y-43000000D03*
D12*
X23697056Y-41302944D03*
%TD*%
D14*
%TO.P,R2,2*%
%TO.N,+5V*%
X123035700Y-49987200D03*
%TO.P,R2,1*%
%TO.N,SCK*%
X121210700Y-49987200D03*
%TD*%
D15*
%TO.P,R1,1*%
%TO.N,+5V*%
X123035700Y-47142400D03*
%TO.P,R1,2*%
%TO.N,SDA*%
X121210700Y-47142400D03*
%TD*%
D16*
%TO.P,J2,T*%
%TO.N,SCK*%
X123683000Y-74116000D03*
%TO.P,J2,S*%
%TO.N,GND*%
X122583000Y-67616000D03*
%TO.P,J2,R2*%
%TO.N,SDA*%
X130683000Y-74116000D03*
%TO.P,J2,R1*%
%TO.N,+5V*%
X127683000Y-74116000D03*
%TD*%
D14*
%TO.P,R3,1*%
%TO.N,Net-(J1-PadA5)*%
X100392500Y-51337000D03*
%TO.P,R3,2*%
%TO.N,GND*%
X102217500Y-51337000D03*
%TD*%
D17*
%TO.P,D8,1,VDD*%
%TO.N,+5V*%
X60003000Y-47525000D03*
%TO.P,D8,2,DOUT*%
%TO.N,Net-(D7-Pad4)*%
X61833000Y-47525000D03*
%TO.P,D8,3,VSS*%
%TO.N,GND*%
X61833000Y-46425000D03*
%TO.P,D8,4,DIN*%
%TO.N,Net-(D8-Pad4)*%
X60003000Y-46425000D03*
%TD*%
D18*
%TO.P,SW1,2,2*%
%TO.N,GND*%
X123135873Y-106742897D03*
%TO.P,SW1,1,1*%
%TO.N,BTN1*%
X128516000Y-106061550D03*
%TD*%
D19*
%TO.P,D4,1,VDD*%
%TO.N,+5V*%
X122622587Y-97815814D03*
%TO.P,D4,2,DOUT*%
%TO.N,LED_IN*%
X124207413Y-96900814D03*
%TO.P,D4,3,VSS*%
%TO.N,GND*%
X123657413Y-95948186D03*
%TO.P,D4,4,DIN*%
%TO.N,Net-(D4-Pad4)*%
X122072587Y-96863186D03*
%TD*%
D12*
%TO.P,MNT3,1*%
%TO.N,N/C*%
X87697056Y-104697056D03*
X83600000Y-103000000D03*
X84302944Y-104697056D03*
X84302944Y-101302944D03*
X86000000Y-105400000D03*
X86000000Y-100600000D03*
X88400000Y-103000000D03*
D13*
X86000000Y-103000000D03*
D12*
X87697056Y-101302944D03*
%TD*%
D18*
%TO.P,SW5,2,2*%
%TO.N,GND*%
X56000000Y-55489000D03*
%TO.P,SW5,1,1*%
%TO.N,BTN5*%
X61000000Y-57589000D03*
%TD*%
D20*
%TO.P,R4,1*%
%TO.N,Net-(J1-PadB5)*%
X107291000Y-46494500D03*
%TO.P,R4,2*%
%TO.N,GND*%
X107291000Y-48319500D03*
%TD*%
D19*
%TO.P,D5,1,VDD*%
%TO.N,+5V*%
X105282587Y-99233814D03*
%TO.P,D5,2,DOUT*%
%TO.N,Net-(D4-Pad4)*%
X106867413Y-98318814D03*
%TO.P,D5,3,VSS*%
%TO.N,GND*%
X106317413Y-97366186D03*
%TO.P,D5,4,DIN*%
%TO.N,Net-(D5-Pad4)*%
X104732587Y-98281186D03*
%TD*%
D18*
%TO.P,SW6,2,2*%
%TO.N,GND*%
X15000000Y-72800000D03*
%TO.P,SW6,1,1*%
%TO.N,BTN6*%
X20000000Y-74900000D03*
%TD*%
D21*
%TO.P,C29,1*%
%TO.N,+5V*%
X35369500Y-49546000D03*
%TO.P,C29,2*%
%TO.N,GND*%
X37094500Y-49546000D03*
%TD*%
%TO.P,C30,1*%
%TO.N,+5V*%
X15213500Y-59452000D03*
%TO.P,C30,2*%
%TO.N,GND*%
X16938500Y-59452000D03*
%TD*%
D22*
%TO.P,U2,1,TX*%
%TO.N,unconnected-(U2-Pad1)*%
X116205000Y-36830000D03*
D23*
%TO.P,U2,2,RX*%
%TO.N,unconnected-(U2-Pad2)*%
X116205000Y-39370000D03*
%TO.P,U2,3,GND*%
%TO.N,GND*%
X116205000Y-41910000D03*
%TO.P,U2,4,GND*%
X116205000Y-44450000D03*
%TO.P,U2,5,SDA*%
%TO.N,SDA*%
X116205000Y-46990000D03*
%TO.P,U2,6,SCL*%
%TO.N,SCK*%
X116205000Y-49530000D03*
%TO.P,U2,7,D4*%
%TO.N,BTN7*%
X116205000Y-52070000D03*
%TO.P,U2,8,C6*%
%TO.N,BTN6*%
X116205000Y-54610000D03*
%TO.P,U2,9,D7*%
%TO.N,BTN5*%
X116205000Y-57150000D03*
%TO.P,U2,10,E6*%
%TO.N,BTN4*%
X116205000Y-59690000D03*
%TO.P,U2,11,B4*%
%TO.N,unconnected-(U2-Pad11)*%
X116205000Y-62230000D03*
%TO.P,U2,12,B5*%
%TO.N,LED_IN*%
X116205000Y-64770000D03*
%TO.P,U2,13,B6*%
%TO.N,unconnected-(U2-Pad13)*%
X131445000Y-64770000D03*
%TO.P,U2,14,B2*%
%TO.N,BTN2*%
X131445000Y-62230000D03*
%TO.P,U2,15,B3*%
%TO.N,BTN3*%
X131445000Y-59690000D03*
%TO.P,U2,16,B1*%
%TO.N,BTN1*%
X131445000Y-57150000D03*
%TO.P,U2,17,F7*%
%TO.N,unconnected-(U2-Pad17)*%
X131445000Y-54610000D03*
%TO.P,U2,18,F6*%
%TO.N,unconnected-(U2-Pad18)*%
X131445000Y-52070000D03*
%TO.P,U2,19,F5*%
%TO.N,unconnected-(U2-Pad19)*%
X131445000Y-49530000D03*
%TO.P,U2,20,F4*%
%TO.N,unconnected-(U2-Pad20)*%
X131445000Y-46990000D03*
%TO.P,U2,21,VCC*%
%TO.N,unconnected-(U2-Pad21)*%
X131445000Y-44450000D03*
%TO.P,U2,22,RST*%
%TO.N,unconnected-(U2-Pad22)*%
X131445000Y-41910000D03*
%TO.P,U2,23,GND*%
%TO.N,GND*%
X131445000Y-39370000D03*
%TO.P,U2,24,RAW*%
%TO.N,+5V*%
X131445000Y-36830000D03*
%TD*%
D24*
%TO.P,C22,1*%
%TO.N,+5V*%
X103591000Y-47251500D03*
%TO.P,C22,2*%
%TO.N,GND*%
X103591000Y-49326500D03*
%TD*%
D21*
%TO.P,C28,1*%
%TO.N,+5V*%
X55663000Y-42361000D03*
%TO.P,C28,2*%
%TO.N,GND*%
X57388000Y-42361000D03*
%TD*%
D18*
%TO.P,SW2,2,2*%
%TO.N,GND*%
X105721873Y-108230897D03*
%TO.P,SW2,1,1*%
%TO.N,BTN2*%
X111102000Y-107549550D03*
%TD*%
D21*
%TO.P,C27,1*%
%TO.N,+5V*%
X76173500Y-51562000D03*
%TO.P,C27,2*%
%TO.N,GND*%
X77898500Y-51562000D03*
%TD*%
D18*
%TO.P,SW7,2,2*%
%TO.N,GND*%
X35000000Y-62800000D03*
%TO.P,SW7,1,1*%
%TO.N,BTN7*%
X40000000Y-64900000D03*
%TD*%
D19*
%TO.P,D6,1,VDD*%
%TO.N,+5V*%
X114562587Y-83577314D03*
%TO.P,D6,2,DOUT*%
%TO.N,Net-(D5-Pad4)*%
X116147413Y-82662314D03*
%TO.P,D6,3,VSS*%
%TO.N,GND*%
X115597413Y-81709686D03*
%TO.P,D6,4,DIN*%
%TO.N,Net-(D6-Pad4)*%
X114012587Y-82624686D03*
%TD*%
D25*
%TO.P,C4,1*%
%TO.N,+5V*%
X131500000Y-92262500D03*
%TO.P,C4,2*%
%TO.N,GND*%
X131500000Y-90537500D03*
%TD*%
D18*
%TO.P,SW3,2,2*%
%TO.N,GND*%
X115149873Y-92634397D03*
%TO.P,SW3,1,1*%
%TO.N,BTN3*%
X120530000Y-91953050D03*
%TD*%
D12*
%TO.P,MNT2,1*%
%TO.N,N/C*%
X56400000Y-103000000D03*
X54000000Y-105400000D03*
X52302944Y-104697056D03*
X52302944Y-101302944D03*
X54000000Y-100600000D03*
X51600000Y-103000000D03*
D13*
X54000000Y-103000000D03*
D12*
X55697056Y-101302944D03*
X55697056Y-104697056D03*
%TD*%
D26*
%TO.P,J1,MP2*%
%TO.N,N/C*%
X100127000Y-37417000D03*
%TO.P,J1,MP1*%
X100127000Y-40517000D03*
D27*
%TO.P,J1,MH4*%
X95857000Y-37967000D03*
%TO.P,J1,MH3*%
X104397000Y-37967000D03*
%TO.P,J1,MH2*%
X95857000Y-42697000D03*
%TO.P,J1,MH1*%
X104397000Y-42697000D03*
D28*
%TO.P,J1,GR1*%
X102127000Y-43847000D03*
%TO.P,J1,GN1*%
X98127000Y-43847000D03*
D29*
%TO.P,J1,B12*%
X102927000Y-43847000D03*
%TO.P,J1,B11*%
X102527000Y-43137000D03*
%TO.P,J1,B10*%
X101727000Y-43137000D03*
%TO.P,J1,B9*%
X101327000Y-43847000D03*
%TO.P,J1,B8,SBU2*%
%TO.N,unconnected-(J1-PadB8)*%
X100927000Y-43137000D03*
%TO.P,J1,B7,D-*%
%TO.N,USB_D-*%
X100527000Y-43847000D03*
%TO.P,J1,B6,D+*%
%TO.N,USB_D+*%
X99727000Y-43847000D03*
%TO.P,J1,B5,CC2*%
%TO.N,Net-(J1-PadB5)*%
X99327000Y-43137000D03*
%TO.P,J1,B4*%
%TO.N,N/C*%
X98927000Y-43847000D03*
%TO.P,J1,B3*%
X98527000Y-43137000D03*
%TO.P,J1,B2*%
X97727000Y-43137000D03*
%TO.P,J1,B1*%
X97327000Y-43847000D03*
D30*
%TO.P,J1,A12*%
X97377000Y-45097000D03*
%TO.P,J1,A11*%
X97877000Y-45097000D03*
%TO.P,J1,A10*%
X98377000Y-45097000D03*
%TO.P,J1,A9*%
X98877000Y-45097000D03*
%TO.P,J1,A8,SBU1*%
%TO.N,unconnected-(J1-PadA8)*%
X99377000Y-45097000D03*
%TO.P,J1,A7,D-*%
%TO.N,USB_D-*%
X99877000Y-45097000D03*
%TO.P,J1,A6,D+*%
%TO.N,USB_D+*%
X100377000Y-45097000D03*
%TO.P,J1,A5,CC1*%
%TO.N,Net-(J1-PadA5)*%
X100877000Y-45097000D03*
%TO.P,J1,A4,VBUS*%
%TO.N,+5V*%
X101377000Y-45097000D03*
%TO.P,J1,A3*%
%TO.N,N/C*%
X101877000Y-45097000D03*
%TO.P,J1,A2*%
X102377000Y-45097000D03*
%TO.P,J1,A1,GND*%
%TO.N,GND*%
X102877000Y-45097000D03*
%TD*%
D18*
%TO.P,SW4,2,2*%
%TO.N,GND*%
X76048000Y-64800000D03*
%TO.P,SW4,1,1*%
%TO.N,BTN4*%
X81048000Y-66900000D03*
%TD*%
D17*
%TO.P,D10,1,VDD*%
%TO.N,+5V*%
X19125000Y-64791500D03*
%TO.P,D10,2,DOUT*%
%TO.N,Net-(D10-Pad2)*%
X20955000Y-64791500D03*
%TO.P,D10,3,VSS*%
%TO.N,GND*%
X20955000Y-63691500D03*
%TO.P,D10,4,DIN*%
%TO.N,unconnected-(D10-Pad4)*%
X19125000Y-63691500D03*
%TD*%
D31*
%TO.P,C26,1*%
%TO.N,+5V*%
X124400000Y-78037500D03*
%TO.P,C26,2*%
%TO.N,GND*%
X124400000Y-79762500D03*
%TD*%
D21*
%TO.P,C25,1*%
%TO.N,+5V*%
X105337500Y-92200000D03*
%TO.P,C25,2*%
%TO.N,GND*%
X107062500Y-92200000D03*
%TD*%
D13*
%TO.P,MNT1,1*%
%TO.N,N/C*%
X22000000Y-103000000D03*
D12*
X19600000Y-103000000D03*
X20302944Y-104697056D03*
X22000000Y-105400000D03*
X24400000Y-103000000D03*
X20302944Y-101302944D03*
X23697056Y-104697056D03*
X23697056Y-101302944D03*
X22000000Y-100600000D03*
%TD*%
D17*
%TO.P,D7,1,VDD*%
%TO.N,+5V*%
X80085000Y-56774500D03*
%TO.P,D7,2,DOUT*%
%TO.N,Net-(D6-Pad4)*%
X81915000Y-56774500D03*
%TO.P,D7,3,VSS*%
%TO.N,GND*%
X81915000Y-55674500D03*
%TO.P,D7,4,DIN*%
%TO.N,Net-(D7-Pad4)*%
X80085000Y-55674500D03*
%TD*%
%TO.P,D9,1,VDD*%
%TO.N,+5V*%
X39154000Y-54758500D03*
%TO.P,D9,2,DOUT*%
%TO.N,Net-(D8-Pad4)*%
X40984000Y-54758500D03*
%TO.P,D9,3,VSS*%
%TO.N,GND*%
X40984000Y-53658500D03*
%TO.P,D9,4,DIN*%
%TO.N,Net-(D10-Pad2)*%
X39154000Y-53658500D03*
%TD*%
D32*
%TO.N,USB_D-*%
X99695000Y-48768000D03*
%TO.N,+5V*%
X120300000Y-48392600D03*
%TO.N,SDA*%
X127558800Y-71958200D03*
X127533400Y-48590200D03*
%TO.N,SCK*%
X123317000Y-51562000D03*
X123571000Y-72136000D03*
%TO.N,BTN3*%
X121285000Y-59690000D03*
%TO.N,BTN2*%
X129540000Y-56007000D03*
%TO.N,GND*%
X123952000Y-67183000D03*
%TO.N,LED_IN*%
X117990000Y-76708000D03*
%TO.N,GND*%
X129540000Y-90678000D03*
X77470000Y-57404000D03*
X102362000Y-52832000D03*
X64100000Y-45700000D03*
X124532120Y-92202000D03*
X84200000Y-55100000D03*
X108204000Y-96266000D03*
X130810000Y-79756000D03*
X23000000Y-63000000D03*
X106347000Y-50207000D03*
X108204000Y-92964000D03*
X43100000Y-53000000D03*
%TO.N,+5V*%
X130175000Y-92329000D03*
X16891000Y-49530000D03*
X119947500Y-78037500D03*
X108331000Y-40259000D03*
X130175000Y-77978000D03*
X103378000Y-46101000D03*
X16891000Y-65786000D03*
%TO.N,Net-(D6-Pad4)*%
X109220000Y-80010000D03*
X109200000Y-59900000D03*
%TO.N,LED_IN*%
X126940000Y-76708000D03*
X127000000Y-88646000D03*
%TO.N,BTN2*%
X104521000Y-56007000D03*
%TO.N,BTN3*%
X120523000Y-89027000D03*
%TO.N,BTN4*%
X112014000Y-66910000D03*
%TO.N,BTN5*%
X110890000Y-61650000D03*
%TO.N,BTN6*%
X109820000Y-74800000D03*
%TO.N,BTN7*%
X90551000Y-69469000D03*
X110998000Y-54991000D03*
X90551000Y-56134000D03*
%TD*%
D33*
%TO.N,USB_D-*%
X99695000Y-48768000D02*
X99288600Y-48361600D01*
X99288600Y-48361600D02*
X97434400Y-48361600D01*
%TO.N,USB_D+*%
X100280100Y-49403000D02*
X97475802Y-49403000D01*
X97475802Y-49403000D02*
X97434400Y-49361598D01*
%TO.N,+5V*%
X123035700Y-48486700D02*
X123035700Y-47142400D01*
X123035700Y-49987200D02*
X123035700Y-48486700D01*
X120394100Y-48486700D02*
X120300000Y-48392600D01*
X123035700Y-48486700D02*
X120394100Y-48486700D01*
%TO.N,SDA*%
X121210700Y-47142400D02*
X121058300Y-46990000D01*
X121058300Y-46990000D02*
X116205000Y-46990000D01*
X127533400Y-48590200D02*
X124993400Y-46050200D01*
X124993400Y-46050200D02*
X122302900Y-46050200D01*
X122302900Y-46050200D02*
X121210700Y-47142400D01*
X128525200Y-71958200D02*
X127558800Y-71958200D01*
X130683000Y-74116000D02*
X128525200Y-71958200D01*
%TO.N,SCK*%
X121210700Y-49987200D02*
X120753500Y-49530000D01*
X120753500Y-49530000D02*
X116205000Y-49530000D01*
X123317000Y-51562000D02*
X122785500Y-51562000D01*
X122785500Y-51562000D02*
X121210700Y-49987200D01*
X123683000Y-74116000D02*
X123683000Y-72248000D01*
X123683000Y-72248000D02*
X123571000Y-72136000D01*
%TO.N,BTN3*%
X121285000Y-59690000D02*
X131445000Y-59690000D01*
%TO.N,BTN2*%
X121107000Y-56007000D02*
X129540000Y-56007000D01*
%TO.N,GND*%
X123519000Y-67616000D02*
X123952000Y-67183000D01*
X122583000Y-67616000D02*
X123519000Y-67616000D01*
%TO.N,+5V*%
X127683000Y-74116000D02*
X127683000Y-75486000D01*
X127683000Y-75486000D02*
X130175000Y-77978000D01*
%TO.N,GND*%
X40984000Y-53435500D02*
X40984000Y-53658500D01*
X37094500Y-49546000D02*
X40984000Y-53435500D01*
X108204000Y-96266000D02*
X107417599Y-96266000D01*
X102877000Y-44637000D02*
X104570020Y-46330020D01*
X57769000Y-42361000D02*
X61833000Y-46425000D01*
X130810000Y-79756000D02*
X130803500Y-79762500D01*
X20955000Y-63468500D02*
X16938500Y-59452000D01*
X130803500Y-79762500D02*
X124400000Y-79762500D01*
X83625500Y-55674500D02*
X84200000Y-55100000D01*
X119548521Y-85097964D02*
X119548521Y-88235749D01*
X81915000Y-55578500D02*
X81915000Y-55674500D01*
X106014716Y-107938054D02*
X106014716Y-97668883D01*
D34*
X102362000Y-52832000D02*
X102362000Y-51481500D01*
D33*
X107440000Y-92200000D02*
X108204000Y-92964000D01*
X115597413Y-81709686D02*
X116160243Y-81709686D01*
X106014716Y-97668883D02*
X106317413Y-97366186D01*
X106284000Y-49326500D02*
X106284000Y-50144000D01*
X119548521Y-88235749D02*
X115149873Y-92634397D01*
X105721873Y-108230897D02*
X106014716Y-107938054D01*
X123657413Y-93076707D02*
X124532120Y-92202000D01*
X115149873Y-92634397D02*
X116790063Y-94274587D01*
X122119874Y-105726898D02*
X108225872Y-105726898D01*
X42441500Y-53658500D02*
X43100000Y-53000000D01*
X81915000Y-55674500D02*
X81311000Y-55674500D01*
X22308500Y-63691500D02*
X23000000Y-63000000D01*
X108225872Y-105726898D02*
X105721873Y-108230897D01*
X77898500Y-51562000D02*
X81915000Y-55578500D01*
X102217500Y-50700000D02*
X103591000Y-49326500D01*
X61833000Y-46425000D02*
X63375000Y-46425000D01*
X57388000Y-42361000D02*
X57769000Y-42361000D01*
X106284000Y-50144000D02*
X106347000Y-50207000D01*
X104570020Y-48347480D02*
X103591000Y-49326500D01*
X124400000Y-79762500D02*
X124400000Y-80246485D01*
X106284000Y-49326500D02*
X107291000Y-48319500D01*
X116160243Y-81709686D02*
X119548521Y-85097964D01*
X103591000Y-49326500D02*
X106284000Y-49326500D01*
X63375000Y-46425000D02*
X64100000Y-45700000D01*
X81070031Y-55915469D02*
X81070031Y-56946689D01*
X123135873Y-106742897D02*
X122119874Y-105726898D01*
X80612720Y-57404000D02*
X77470000Y-57404000D01*
X129540000Y-90678000D02*
X131359500Y-90678000D01*
X81311000Y-55674500D02*
X81070031Y-55915469D01*
X107417599Y-96266000D02*
X106317413Y-97366186D01*
X20955000Y-63691500D02*
X20955000Y-63468500D01*
X20955000Y-63691500D02*
X22308500Y-63691500D01*
X107062500Y-92200000D02*
X107440000Y-92200000D01*
X102217500Y-51337000D02*
X102217500Y-50700000D01*
X81070031Y-56946689D02*
X80612720Y-57404000D01*
X123657413Y-94274587D02*
X123657413Y-93076707D01*
X131359500Y-90678000D02*
X131500000Y-90537500D01*
X124400000Y-80246485D02*
X119548521Y-85097964D01*
X81915000Y-55674500D02*
X83625500Y-55674500D01*
X104570020Y-46330020D02*
X104570020Y-48347480D01*
X116790063Y-94274587D02*
X123657413Y-94274587D01*
X40984000Y-53658500D02*
X42441500Y-53658500D01*
X123657413Y-95948186D02*
X123657413Y-94274587D01*
X102362000Y-51481500D02*
X102217500Y-51337000D01*
D34*
%TO.N,+5V*%
X92500000Y-40250000D02*
X98000000Y-40250000D01*
D33*
X113960186Y-83577314D02*
X114562587Y-83577314D01*
X114562587Y-83577314D02*
X114818805Y-83321096D01*
X56261000Y-40894000D02*
X55663000Y-41492000D01*
X39707209Y-53054489D02*
X39758011Y-53105291D01*
X80689011Y-56170489D02*
X80085000Y-56774500D01*
X38402989Y-53054489D02*
X39707209Y-53054489D01*
D34*
X102250000Y-40250000D02*
X108250000Y-40250000D01*
D33*
X122622587Y-97815814D02*
X125946686Y-97815814D01*
X114818805Y-81522836D02*
X118304141Y-78037500D01*
D34*
X101000000Y-39000000D02*
X102250000Y-40250000D01*
X89000000Y-36750000D02*
X92500000Y-40250000D01*
D33*
X130175000Y-92329000D02*
X130175000Y-92964000D01*
X103362000Y-46117000D02*
X101367000Y-46117000D01*
X76173500Y-51562000D02*
X79681989Y-55070489D01*
D34*
X44784000Y-36750000D02*
X89000000Y-36750000D01*
D33*
X102362000Y-95123000D02*
X105285000Y-92200000D01*
X125946686Y-97815814D02*
X130486750Y-93275750D01*
X76173500Y-50011500D02*
X67056000Y-40894000D01*
X17885500Y-64791500D02*
X16891000Y-65786000D01*
X67056000Y-40894000D02*
X60606000Y-40894000D01*
X39758011Y-53105291D02*
X39758011Y-54758489D01*
X130115500Y-78037500D02*
X130175000Y-77978000D01*
X39758011Y-54758489D02*
X39758000Y-54758500D01*
X55663000Y-42361000D02*
X42554500Y-42361000D01*
X39758000Y-54758500D02*
X39154000Y-54758500D01*
X35369500Y-50021000D02*
X38402989Y-53054489D01*
X103591000Y-47251500D02*
X103591000Y-46314000D01*
X79681989Y-55070489D02*
X80638209Y-55070489D01*
X60556209Y-45820989D02*
X60607011Y-45871791D01*
X102789814Y-99233814D02*
X102362000Y-98806000D01*
X55663000Y-42361000D02*
X55663000Y-42836000D01*
X101367000Y-46117000D02*
X101377000Y-46107000D01*
X55663000Y-42836000D02*
X58647989Y-45820989D01*
X118304141Y-78037500D02*
X119947500Y-78037500D01*
X21820000Y-36750000D02*
X16891000Y-41679000D01*
X35369500Y-49546000D02*
X35369500Y-50021000D01*
X105282587Y-99233814D02*
X102789814Y-99233814D01*
X42554500Y-42361000D02*
X35369500Y-49546000D01*
X19125000Y-64791500D02*
X17885500Y-64791500D01*
X103378000Y-46101000D02*
X103362000Y-46117000D01*
D34*
X21820000Y-36750000D02*
X44784000Y-36750000D01*
D33*
X130486750Y-93275750D02*
X131500000Y-92262500D01*
X58647989Y-45820989D02*
X60556209Y-45820989D01*
D34*
X98000000Y-40250000D02*
X99250000Y-39000000D01*
D33*
X60606000Y-40894000D02*
X56261000Y-40894000D01*
X60607011Y-46920989D02*
X60003000Y-47525000D01*
X124400000Y-78037500D02*
X130115500Y-78037500D01*
X55663000Y-41492000D02*
X55663000Y-42361000D01*
X105337500Y-92200000D02*
X113960186Y-83577314D01*
X119947500Y-78037500D02*
X124400000Y-78037500D01*
X80689011Y-55121291D02*
X80689011Y-56170489D01*
X19125000Y-64791500D02*
X15213500Y-60880000D01*
X102362000Y-98806000D02*
X102362000Y-95123000D01*
X80638209Y-55070489D02*
X80689011Y-55121291D01*
X60607011Y-45871791D02*
X60607011Y-46920989D01*
X103591000Y-46314000D02*
X103378000Y-46101000D01*
D34*
X108250000Y-40250000D02*
X108322000Y-40250000D01*
D33*
X16891000Y-41679000D02*
X16891000Y-49530000D01*
X114818805Y-83321096D02*
X114818805Y-81522836D01*
X16891000Y-49530000D02*
X16907000Y-49546000D01*
X101377000Y-46107000D02*
X101377000Y-45097000D01*
D34*
X99250000Y-39000000D02*
X101000000Y-39000000D01*
X108322000Y-40250000D02*
X108331000Y-40259000D01*
D33*
X76173500Y-51562000D02*
X76173500Y-50011500D01*
X16907000Y-49546000D02*
X35369500Y-49546000D01*
X105285000Y-92200000D02*
X105337500Y-92200000D01*
X15213500Y-60880000D02*
X15213500Y-59452000D01*
X130175000Y-92964000D02*
X130486750Y-93275750D01*
%TO.N,USB_D-*%
X99877000Y-45097000D02*
X99877000Y-48586000D01*
X99877000Y-48586000D02*
X99695000Y-48768000D01*
D35*
%TO.N,USB_D+*%
X99727000Y-43847000D02*
X100377000Y-44497000D01*
D33*
X100377000Y-49306100D02*
X100377000Y-44637000D01*
D35*
X100377000Y-44497000D02*
X100377000Y-45097000D01*
D33*
X100280100Y-49403000D02*
X100377000Y-49306100D01*
%TO.N,Net-(J1-PadB5)*%
X99327000Y-42627000D02*
X100516011Y-41437989D01*
X105001326Y-41437989D02*
X100516011Y-41437989D01*
X107291000Y-46494500D02*
X107291000Y-43727663D01*
X99327000Y-42627000D02*
X99327000Y-43137000D01*
X107291000Y-43727663D02*
X105001326Y-41437989D01*
%TO.N,Net-(J1-PadA5)*%
X100877000Y-50852500D02*
X100877000Y-44637000D01*
X100392500Y-51337000D02*
X100877000Y-50852500D01*
%TO.N,Net-(D4-Pad4)*%
X120616959Y-98318814D02*
X122072587Y-96863186D01*
X106867413Y-98318814D02*
X120616959Y-98318814D01*
%TO.N,Net-(D5-Pad4)*%
X104732587Y-97877041D02*
X111911207Y-90698421D01*
X113347223Y-90698421D02*
X115611479Y-88434165D01*
X104732587Y-98281186D02*
X104732587Y-97877041D01*
X115611479Y-83198248D02*
X116147413Y-82662314D01*
X111911207Y-90698421D02*
X113347223Y-90698421D01*
X115611479Y-88434165D02*
X115611479Y-83198248D01*
%TO.N,Net-(D6-Pad4)*%
X85035579Y-59895079D02*
X109195079Y-59895079D01*
X109607484Y-80384516D02*
X112088686Y-82624686D01*
X109232968Y-80010000D02*
X109607484Y-80384516D01*
X112088686Y-82624686D02*
X114012587Y-82624686D01*
X109474000Y-80264000D02*
X109607484Y-80384516D01*
X109220000Y-80010000D02*
X109232968Y-80010000D01*
X109200000Y-59900000D02*
X109195079Y-59895079D01*
X85035579Y-59895079D02*
X81915000Y-56774500D01*
%TO.N,Net-(D7-Pad4)*%
X63971284Y-47525000D02*
X61833000Y-47525000D01*
X80085000Y-55674500D02*
X72120784Y-55674500D01*
X72120784Y-55674500D02*
X63971284Y-47525000D01*
%TO.N,Net-(D8-Pad4)*%
X44577000Y-53213000D02*
X43031500Y-54758500D01*
X53905000Y-46425000D02*
X47117000Y-53213000D01*
X47117000Y-53213000D02*
X44577000Y-53213000D01*
X43031500Y-54758500D02*
X40984000Y-54758500D01*
X60003000Y-46425000D02*
X53905000Y-46425000D01*
%TO.N,Net-(D10-Pad2)*%
X39154000Y-53658500D02*
X34098500Y-53658500D01*
X22965500Y-64791500D02*
X20955000Y-64791500D01*
X34098500Y-53658500D02*
X22965500Y-64791500D01*
%TO.N,LED_IN*%
X124207413Y-96900814D02*
X127000000Y-94108227D01*
X117990000Y-76708000D02*
X126890000Y-76708000D01*
X127000000Y-88646000D02*
X127000000Y-94108227D01*
%TO.N,BTN1*%
X134300000Y-60005000D02*
X131445000Y-57150000D01*
X134300000Y-100277550D02*
X134300000Y-60005000D01*
X128516000Y-106061550D02*
X134300000Y-100277550D01*
%TO.N,BTN2*%
X104521000Y-56007000D02*
X121107000Y-56007000D01*
%TO.N,BTN3*%
X120530000Y-91953050D02*
X120530000Y-89034000D01*
X120530000Y-89034000D02*
X120523000Y-89027000D01*
%TO.N,BTN4*%
X111970000Y-66910000D02*
X111960000Y-66900000D01*
X111960000Y-66900000D02*
X81048000Y-66900000D01*
%TO.N,BTN5*%
X110890000Y-61650000D02*
X109010011Y-63529989D01*
X66940989Y-63529989D02*
X61000000Y-57589000D01*
X109010011Y-63529989D02*
X66940989Y-63529989D01*
%TO.N,BTN6*%
X109720000Y-74900000D02*
X20000000Y-74900000D01*
X109820000Y-74800000D02*
X109720000Y-74900000D01*
%TO.N,BTN7*%
X90560000Y-69480000D02*
X44580000Y-69480000D01*
X90551000Y-56134000D02*
X91694000Y-54991000D01*
X91694000Y-54991000D02*
X110998000Y-54991000D01*
X40000000Y-64900000D02*
X44580000Y-69480000D01*
%TD*%
M02*
