%TF.GenerationSoftware,KiCad,Pcbnew,6.0.4*%
%TF.CreationDate,2022-04-08T16:19:54+02:00*%
%TF.ProjectId,keychordz,6b657963-686f-4726-947a-2e6b69636164,rev?*%
%TF.SameCoordinates,Original*%
%TF.FileFunction,Soldermask,Top*%
%TF.FilePolarity,Negative*%
%FSLAX46Y46*%
G04 Gerber Fmt 4.6, Leading zero omitted, Abs format (unit mm)*
G04 Created by KiCad (PCBNEW 6.0.4) date 2022-04-08 16:19:54*
%MOMM*%
%LPD*%
G01*
G04 APERTURE LIST*
G04 Aperture macros list*
%AMRoundRect*
0 Rectangle with rounded corners*
0 $1 Rounding radius*
0 $2 $3 $4 $5 $6 $7 $8 $9 X,Y pos of 4 corners*
0 Add a 4 corners polygon primitive as box body*
4,1,4,$2,$3,$4,$5,$6,$7,$8,$9,$2,$3,0*
0 Add four circle primitives for the rounded corners*
1,1,$1+$1,$2,$3*
1,1,$1+$1,$4,$5*
1,1,$1+$1,$6,$7*
1,1,$1+$1,$8,$9*
0 Add four rect primitives between the rounded corners*
20,1,$1+$1,$2,$3,$4,$5,0*
20,1,$1+$1,$4,$5,$6,$7,0*
20,1,$1+$1,$6,$7,$8,$9,0*
20,1,$1+$1,$8,$9,$2,$3,0*%
%AMRotRect*
0 Rectangle, with rotation*
0 The origin of the aperture is its center*
0 $1 length*
0 $2 width*
0 $3 Rotation angle, in degrees counterclockwise*
0 Add horizontal line*
21,1,$1,$2,0,0,$3*%
G04 Aperture macros list end*
%ADD10R,0.850000X0.850000*%
%ADD11O,0.850000X0.850000*%
%ADD12C,0.800000*%
%ADD13C,6.400000*%
%ADD14RoundRect,0.237500X-0.250000X-0.237500X0.250000X-0.237500X0.250000X0.237500X-0.250000X0.237500X0*%
%ADD15RoundRect,0.237500X0.250000X0.237500X-0.250000X0.237500X-0.250000X-0.237500X0.250000X-0.237500X0*%
%ADD16R,1.200000X2.500000*%
%ADD17C,1.500000*%
%ADD18R,0.700000X0.700000*%
%ADD19C,2.032000*%
%ADD20C,1.701800*%
%ADD21C,0.990600*%
%ADD22C,3.429000*%
%ADD23RotRect,0.700000X0.700000X30.000000*%
%ADD24RoundRect,0.237500X-0.237500X0.250000X-0.237500X-0.250000X0.237500X-0.250000X0.237500X0.250000X0*%
%ADD25RoundRect,0.237500X-0.300000X-0.237500X0.300000X-0.237500X0.300000X0.237500X-0.300000X0.237500X0*%
%ADD26R,1.600000X1.600000*%
%ADD27C,1.600000*%
%ADD28RoundRect,0.250000X-0.475000X0.337500X-0.475000X-0.337500X0.475000X-0.337500X0.475000X0.337500X0*%
%ADD29RoundRect,0.237500X0.237500X-0.300000X0.237500X0.300000X-0.237500X0.300000X-0.237500X-0.300000X0*%
%ADD30R,0.200000X1.000000*%
%ADD31C,2.010000*%
%ADD32C,0.550000*%
%ADD33C,0.650000*%
%ADD34R,0.300000X1.200000*%
%ADD35RoundRect,0.237500X-0.237500X0.300000X-0.237500X-0.300000X0.237500X-0.300000X0.237500X0.300000X0*%
G04 APERTURE END LIST*
D10*
%TO.C,USB*%
X97231200Y-48361600D03*
D11*
X97231200Y-49361598D03*
%TD*%
D12*
%TO.C,MNT5*%
X83697056Y-44697056D03*
X79600000Y-43000000D03*
X80302944Y-44697056D03*
X80302944Y-41302944D03*
X82000000Y-45400000D03*
X82000000Y-40600000D03*
X84400000Y-43000000D03*
D13*
X82000000Y-43000000D03*
D12*
X83697056Y-41302944D03*
%TD*%
%TO.C,MNT4*%
X23697056Y-44697056D03*
X19600000Y-43000000D03*
X20302944Y-44697056D03*
X20302944Y-41302944D03*
X22000000Y-45400000D03*
X22000000Y-40600000D03*
X24400000Y-43000000D03*
D13*
X22000000Y-43000000D03*
D12*
X23697056Y-41302944D03*
%TD*%
D14*
%TO.C,R2*%
X123035700Y-49987200D03*
X121210700Y-49987200D03*
%TD*%
D15*
%TO.C,R1*%
X123035700Y-47142400D03*
X121210700Y-47142400D03*
%TD*%
D16*
%TO.C,J2*%
X123683000Y-74116000D03*
X122583000Y-67616000D03*
X130683000Y-74116000D03*
X127683000Y-74116000D03*
D17*
X132283000Y-70866000D03*
X125283000Y-70866000D03*
%TD*%
D14*
%TO.C,R3*%
X100392500Y-51337000D03*
X102217500Y-51337000D03*
%TD*%
D18*
%TO.C,D8*%
X60003000Y-47525000D03*
X61833000Y-47525000D03*
X61833000Y-46425000D03*
X60003000Y-46425000D03*
%TD*%
D19*
%TO.C,SW1*%
X123135873Y-106742897D03*
X128516000Y-106061550D03*
D20*
X120802860Y-103702000D03*
D21*
X127986653Y-94704693D03*
D20*
X130329140Y-98202000D03*
D22*
X125566000Y-100952000D03*
%TD*%
D23*
%TO.C,D4*%
X122622587Y-97815814D03*
X124207413Y-96900814D03*
X123657413Y-95948186D03*
X122072587Y-96863186D03*
%TD*%
D12*
%TO.C,MNT3*%
X87697056Y-104697056D03*
X83600000Y-103000000D03*
X84302944Y-104697056D03*
X84302944Y-101302944D03*
X86000000Y-105400000D03*
X86000000Y-100600000D03*
X88400000Y-103000000D03*
D13*
X86000000Y-103000000D03*
D12*
X87697056Y-101302944D03*
%TD*%
D19*
%TO.C,SW5*%
X56000000Y-55489000D03*
X61000000Y-57589000D03*
D22*
X61000000Y-51689000D03*
D21*
X66220000Y-47489000D03*
D20*
X55500000Y-51689000D03*
X66500000Y-51689000D03*
%TD*%
D24*
%TO.C,R4*%
X107291000Y-46494500D03*
X107291000Y-48319500D03*
%TD*%
D23*
%TO.C,D5*%
X105282587Y-99233814D03*
X106867413Y-98318814D03*
X106317413Y-97366186D03*
X104732587Y-98281186D03*
%TD*%
D19*
%TO.C,SW6*%
X15000000Y-72800000D03*
X20000000Y-74900000D03*
D22*
X20000000Y-69000000D03*
D21*
X25220000Y-64800000D03*
D20*
X14500000Y-69000000D03*
X25500000Y-69000000D03*
%TD*%
D25*
%TO.C,C29*%
X35369500Y-49546000D03*
X37094500Y-49546000D03*
%TD*%
%TO.C,C30*%
X15213500Y-59452000D03*
X16938500Y-59452000D03*
%TD*%
D26*
%TO.C,U2*%
X116205000Y-36830000D03*
D27*
X116205000Y-39370000D03*
X116205000Y-41910000D03*
X116205000Y-44450000D03*
X116205000Y-46990000D03*
X116205000Y-49530000D03*
X116205000Y-52070000D03*
X116205000Y-54610000D03*
X116205000Y-57150000D03*
X116205000Y-59690000D03*
X116205000Y-62230000D03*
X116205000Y-64770000D03*
X131445000Y-64770000D03*
X131445000Y-62230000D03*
X131445000Y-59690000D03*
X131445000Y-57150000D03*
X131445000Y-54610000D03*
X131445000Y-52070000D03*
X131445000Y-49530000D03*
X131445000Y-46990000D03*
X131445000Y-44450000D03*
X131445000Y-41910000D03*
X131445000Y-39370000D03*
X131445000Y-36830000D03*
%TD*%
D28*
%TO.C,C22*%
X103591000Y-47251500D03*
X103591000Y-49326500D03*
%TD*%
D25*
%TO.C,C28*%
X55663000Y-42361000D03*
X57388000Y-42361000D03*
%TD*%
D19*
%TO.C,SW2*%
X105721873Y-108230897D03*
X111102000Y-107549550D03*
D22*
X108152000Y-102440000D03*
D21*
X110572653Y-96192693D03*
D20*
X112915140Y-99690000D03*
X103388860Y-105190000D03*
%TD*%
D25*
%TO.C,C27*%
X76173500Y-51562000D03*
X77898500Y-51562000D03*
%TD*%
D19*
%TO.C,SW7*%
X35000000Y-62800000D03*
X40000000Y-64900000D03*
D21*
X45220000Y-54800000D03*
D20*
X45500000Y-59000000D03*
D22*
X40000000Y-59000000D03*
D20*
X34500000Y-59000000D03*
%TD*%
D23*
%TO.C,D6*%
X114562587Y-83577314D03*
X116147413Y-82662314D03*
X115597413Y-81709686D03*
X114012587Y-82624686D03*
%TD*%
D29*
%TO.C,C4*%
X131500000Y-92262500D03*
X131500000Y-90537500D03*
%TD*%
D19*
%TO.C,SW3*%
X115149873Y-92634397D03*
X120530000Y-91953050D03*
D21*
X120000653Y-80596193D03*
D22*
X117580000Y-86843500D03*
D20*
X122343140Y-84093500D03*
X112816860Y-89593500D03*
%TD*%
D12*
%TO.C,MNT2*%
X56400000Y-103000000D03*
X54000000Y-105400000D03*
X52302944Y-104697056D03*
X52302944Y-101302944D03*
X54000000Y-100600000D03*
X51600000Y-103000000D03*
D13*
X54000000Y-103000000D03*
D12*
X55697056Y-101302944D03*
X55697056Y-104697056D03*
%TD*%
D30*
%TO.C,J1*%
X100127000Y-37417000D03*
X100127000Y-40517000D03*
D31*
X95857000Y-37967000D03*
X104397000Y-37967000D03*
X95857000Y-42697000D03*
X104397000Y-42697000D03*
D32*
X102127000Y-43847000D03*
X98127000Y-43847000D03*
D33*
X102927000Y-43847000D03*
X102527000Y-43137000D03*
X101727000Y-43137000D03*
X101327000Y-43847000D03*
X100927000Y-43137000D03*
X100527000Y-43847000D03*
X99727000Y-43847000D03*
X99327000Y-43137000D03*
X98927000Y-43847000D03*
X98527000Y-43137000D03*
X97727000Y-43137000D03*
X97327000Y-43847000D03*
D34*
X97377000Y-45097000D03*
X97877000Y-45097000D03*
X98377000Y-45097000D03*
X98877000Y-45097000D03*
X99377000Y-45097000D03*
X99877000Y-45097000D03*
X100377000Y-45097000D03*
X100877000Y-45097000D03*
X101377000Y-45097000D03*
X101877000Y-45097000D03*
X102377000Y-45097000D03*
X102877000Y-45097000D03*
%TD*%
D19*
%TO.C,SW4*%
X76048000Y-64800000D03*
X81048000Y-66900000D03*
D20*
X86548000Y-61000000D03*
X75548000Y-61000000D03*
D21*
X86268000Y-56800000D03*
D22*
X81048000Y-61000000D03*
%TD*%
D18*
%TO.C,D10*%
X19125000Y-64791500D03*
X20955000Y-64791500D03*
X20955000Y-63691500D03*
X19125000Y-63691500D03*
%TD*%
D35*
%TO.C,C26*%
X124400000Y-78037500D03*
X124400000Y-79762500D03*
%TD*%
D25*
%TO.C,C25*%
X105337500Y-92200000D03*
X107062500Y-92200000D03*
%TD*%
D13*
%TO.C,MNT1*%
X22000000Y-103000000D03*
D12*
X19600000Y-103000000D03*
X20302944Y-104697056D03*
X22000000Y-105400000D03*
X24400000Y-103000000D03*
X20302944Y-101302944D03*
X23697056Y-104697056D03*
X23697056Y-101302944D03*
X22000000Y-100600000D03*
%TD*%
D18*
%TO.C,D7*%
X80085000Y-56774500D03*
X81915000Y-56774500D03*
X81915000Y-55674500D03*
X80085000Y-55674500D03*
%TD*%
%TO.C,D9*%
X39154000Y-54758500D03*
X40984000Y-54758500D03*
X40984000Y-53658500D03*
X39154000Y-53658500D03*
%TD*%
M02*
