M48
; DRILL file {KiCad 6.0.4} date Fri 08 Apr 2022 04:19:53 PM CEST
; FORMAT={3:3/ absolute / metric / suppress leading zeros}
; #@! TF.CreationDate,2022-04-08T16:19:53+02:00
; #@! TF.GenerationSoftware,Kicad,Pcbnew,6.0.4
; #@! TF.FileFunction,MixedPlating,1,2
FMAT,2
METRIC,TZ
; #@! TA.AperFunction,Plated,PTH,ViaDrill
T1C0.330
; #@! TA.AperFunction,Plated,PTH,ComponentDrill
T2C0.400
; #@! TA.AperFunction,Plated,PTH,ComponentDrill
T3C0.450
; #@! TA.AperFunction,Plated,PTH,ComponentDrill
T4C0.500
; #@! TA.AperFunction,Plated,PTH,ComponentDrill
T5C1.100
; #@! TA.AperFunction,Plated,PTH,ComponentDrill
T6C1.270
; #@! TA.AperFunction,Plated,PTH,ComponentDrill
T7C1.340
; #@! TA.AperFunction,Plated,PTH,ComponentDrill
T8C3.200
; #@! TA.AperFunction,NonPlated,NPTH,ComponentDrill
T9C0.991
; #@! TA.AperFunction,NonPlated,NPTH,ComponentDrill
T10C1.500
; #@! TA.AperFunction,NonPlated,NPTH,ComponentDrill
T11C1.702
; #@! TA.AperFunction,NonPlated,NPTH,ComponentDrill
T12C3.429
%
G90
G05
T1
X16891Y-49530
X16891Y-65786
X23000Y-63000
X43100Y-53000
X64100Y-45700
X77470Y-57404
X84200Y-55100
X90551Y-56134
X90551Y-69469
X99695Y-48768
X102362Y-52832
X103378Y-46101
X104521Y-56007
X106347Y-50207
X108204Y-92964
X108204Y-96266
X108331Y-40259
X109200Y-59900
X109220Y-80010
X109820Y-74800
X110890Y-61650
X110998Y-54991
X112014Y-66910
X117990Y-76708
X119948Y-78038
X120300Y-48393
X120523Y-89027
X121285Y-59690
X123317Y-51562
X123571Y-72136
X123952Y-67183
X124532Y-92202
X126940Y-76708
X127000Y-88646
X127533Y-48590
X127559Y-71958
X129540Y-56007
X129540Y-90678
X130175Y-77978
X130175Y-92329
X130810Y-79756
T2
X97327Y-43847
X97727Y-43137
X98527Y-43137
X98927Y-43847
X99327Y-43137
X99727Y-43847
X100527Y-43847
X100927Y-43137
X101327Y-43847
X101727Y-43137
X102527Y-43137
X102927Y-43847
T3
X98127Y-43847
X102127Y-43847
T4
X19600Y-43000
X19600Y-103000
X20303Y-41303
X20303Y-44697
X20303Y-101303
X20303Y-104697
X22000Y-40600
X22000Y-45400
X22000Y-100600
X22000Y-105400
X23697Y-41303
X23697Y-44697
X23697Y-101303
X23697Y-104697
X24400Y-43000
X24400Y-103000
X51600Y-103000
X52303Y-101303
X52303Y-104697
X54000Y-100600
X54000Y-105400
X55697Y-101303
X55697Y-104697
X56400Y-103000
X79600Y-43000
X80303Y-41303
X80303Y-44697
X82000Y-40600
X82000Y-45400
X83600Y-103000
X83697Y-41303
X83697Y-44697
X84303Y-101303
X84303Y-104697
X84400Y-43000
X86000Y-100600
X86000Y-105400
X87697Y-101303
X87697Y-104697
X88400Y-103000
X97231Y-48362
X97231Y-49362
T5
X116205Y-36830
X116205Y-39370
X116205Y-41910
X116205Y-44450
X116205Y-46990
X116205Y-49530
X116205Y-52070
X116205Y-54610
X116205Y-57150
X116205Y-59690
X116205Y-62230
X116205Y-64770
X131445Y-36830
X131445Y-39370
X131445Y-41910
X131445Y-44450
X131445Y-46990
X131445Y-49530
X131445Y-52070
X131445Y-54610
X131445Y-57150
X131445Y-59690
X131445Y-62230
X131445Y-64770
T6
X15000Y-72800
X20000Y-74900
X35000Y-62800
X40000Y-64900
X56000Y-55489
X61000Y-57589
X76048Y-64800
X81048Y-66900
X105722Y-108231
X111102Y-107550
X115150Y-92634
X120530Y-91953
X123136Y-106743
X128516Y-106062
T7
X95857Y-37967
X95857Y-42697
X104397Y-37967
X104397Y-42697
T8
X22000Y-43000
X22000Y-103000
X54000Y-103000
X82000Y-43000
X86000Y-103000
T9
X25220Y-64800
X45220Y-54800
X66220Y-47489
X86268Y-56800
X110573Y-96193
X120001Y-80596
X127987Y-94705
T10
X125283Y-70866
X132283Y-70866
T11
X14500Y-69000
X25500Y-69000
X34500Y-59000
X45500Y-59000
X55500Y-51689
X66500Y-51689
X75548Y-61000
X86548Y-61000
X103389Y-105190
X112817Y-89593
X112915Y-99690
X120803Y-103702
X122343Y-84093
X130329Y-98202
T12
X20000Y-69000
X40000Y-59000
X61000Y-51689
X81048Y-61000
X108152Y-102440
X117580Y-86843
X125566Y-100952
T0
M30
