%TF.GenerationSoftware,KiCad,Pcbnew,6.0.4*%
%TF.CreationDate,2022-04-08T16:19:54+02:00*%
%TF.ProjectId,keychordz,6b657963-686f-4726-947a-2e6b69636164,rev?*%
%TF.SameCoordinates,Original*%
%TF.FileFunction,Soldermask,Bot*%
%TF.FilePolarity,Negative*%
%FSLAX46Y46*%
G04 Gerber Fmt 4.6, Leading zero omitted, Abs format (unit mm)*
G04 Created by KiCad (PCBNEW 6.0.4) date 2022-04-08 16:19:54*
%MOMM*%
%LPD*%
G01*
G04 APERTURE LIST*
%ADD10R,0.850000X0.850000*%
%ADD11O,0.850000X0.850000*%
%ADD12C,0.800000*%
%ADD13C,6.400000*%
%ADD14C,1.500000*%
%ADD15C,2.032000*%
%ADD16C,1.701800*%
%ADD17C,0.990600*%
%ADD18C,3.429000*%
%ADD19R,1.600000X1.600000*%
%ADD20C,1.600000*%
%ADD21C,2.010000*%
%ADD22C,0.550000*%
%ADD23C,0.650000*%
G04 APERTURE END LIST*
D10*
%TO.C,USB*%
X97231200Y-48361600D03*
D11*
X97231200Y-49361598D03*
%TD*%
D12*
%TO.C,MNT5*%
X83697056Y-44697056D03*
X79600000Y-43000000D03*
X80302944Y-44697056D03*
X80302944Y-41302944D03*
X82000000Y-45400000D03*
X82000000Y-40600000D03*
X84400000Y-43000000D03*
D13*
X82000000Y-43000000D03*
D12*
X83697056Y-41302944D03*
%TD*%
%TO.C,MNT4*%
X23697056Y-44697056D03*
X19600000Y-43000000D03*
X20302944Y-44697056D03*
X20302944Y-41302944D03*
X22000000Y-45400000D03*
X22000000Y-40600000D03*
X24400000Y-43000000D03*
D13*
X22000000Y-43000000D03*
D12*
X23697056Y-41302944D03*
%TD*%
D14*
%TO.C,J2*%
X132283000Y-70866000D03*
X125283000Y-70866000D03*
%TD*%
D15*
%TO.C,SW1*%
X123135873Y-106742897D03*
X128516000Y-106061550D03*
D16*
X120802860Y-103702000D03*
D17*
X127986653Y-94704693D03*
D16*
X130329140Y-98202000D03*
D18*
X125566000Y-100952000D03*
%TD*%
D12*
%TO.C,MNT3*%
X87697056Y-104697056D03*
X83600000Y-103000000D03*
X84302944Y-104697056D03*
X84302944Y-101302944D03*
X86000000Y-105400000D03*
X86000000Y-100600000D03*
X88400000Y-103000000D03*
D13*
X86000000Y-103000000D03*
D12*
X87697056Y-101302944D03*
%TD*%
D15*
%TO.C,SW5*%
X56000000Y-55489000D03*
X61000000Y-57589000D03*
D18*
X61000000Y-51689000D03*
D17*
X66220000Y-47489000D03*
D16*
X55500000Y-51689000D03*
X66500000Y-51689000D03*
%TD*%
D15*
%TO.C,SW6*%
X15000000Y-72800000D03*
X20000000Y-74900000D03*
D18*
X20000000Y-69000000D03*
D17*
X25220000Y-64800000D03*
D16*
X14500000Y-69000000D03*
X25500000Y-69000000D03*
%TD*%
D19*
%TO.C,U2*%
X116205000Y-36830000D03*
D20*
X116205000Y-39370000D03*
X116205000Y-41910000D03*
X116205000Y-44450000D03*
X116205000Y-46990000D03*
X116205000Y-49530000D03*
X116205000Y-52070000D03*
X116205000Y-54610000D03*
X116205000Y-57150000D03*
X116205000Y-59690000D03*
X116205000Y-62230000D03*
X116205000Y-64770000D03*
X131445000Y-64770000D03*
X131445000Y-62230000D03*
X131445000Y-59690000D03*
X131445000Y-57150000D03*
X131445000Y-54610000D03*
X131445000Y-52070000D03*
X131445000Y-49530000D03*
X131445000Y-46990000D03*
X131445000Y-44450000D03*
X131445000Y-41910000D03*
X131445000Y-39370000D03*
X131445000Y-36830000D03*
%TD*%
D15*
%TO.C,SW2*%
X105721873Y-108230897D03*
X111102000Y-107549550D03*
D18*
X108152000Y-102440000D03*
D17*
X110572653Y-96192693D03*
D16*
X112915140Y-99690000D03*
X103388860Y-105190000D03*
%TD*%
D15*
%TO.C,SW7*%
X35000000Y-62800000D03*
X40000000Y-64900000D03*
D17*
X45220000Y-54800000D03*
D16*
X45500000Y-59000000D03*
D18*
X40000000Y-59000000D03*
D16*
X34500000Y-59000000D03*
%TD*%
D15*
%TO.C,SW3*%
X115149873Y-92634397D03*
X120530000Y-91953050D03*
D17*
X120000653Y-80596193D03*
D18*
X117580000Y-86843500D03*
D16*
X122343140Y-84093500D03*
X112816860Y-89593500D03*
%TD*%
D12*
%TO.C,MNT2*%
X56400000Y-103000000D03*
X54000000Y-105400000D03*
X52302944Y-104697056D03*
X52302944Y-101302944D03*
X54000000Y-100600000D03*
X51600000Y-103000000D03*
D13*
X54000000Y-103000000D03*
D12*
X55697056Y-101302944D03*
X55697056Y-104697056D03*
%TD*%
D21*
%TO.C,J1*%
X95857000Y-37967000D03*
X104397000Y-37967000D03*
X95857000Y-42697000D03*
X104397000Y-42697000D03*
D22*
X102127000Y-43847000D03*
X98127000Y-43847000D03*
D23*
X102927000Y-43847000D03*
X102527000Y-43137000D03*
X101727000Y-43137000D03*
X101327000Y-43847000D03*
X100927000Y-43137000D03*
X100527000Y-43847000D03*
X99727000Y-43847000D03*
X99327000Y-43137000D03*
X98927000Y-43847000D03*
X98527000Y-43137000D03*
X97727000Y-43137000D03*
X97327000Y-43847000D03*
%TD*%
D15*
%TO.C,SW4*%
X76048000Y-64800000D03*
X81048000Y-66900000D03*
D16*
X86548000Y-61000000D03*
X75548000Y-61000000D03*
D17*
X86268000Y-56800000D03*
D18*
X81048000Y-61000000D03*
%TD*%
D13*
%TO.C,MNT1*%
X22000000Y-103000000D03*
D12*
X19600000Y-103000000D03*
X20302944Y-104697056D03*
X22000000Y-105400000D03*
X24400000Y-103000000D03*
X20302944Y-101302944D03*
X23697056Y-104697056D03*
X23697056Y-101302944D03*
X22000000Y-100600000D03*
%TD*%
M02*
