M48
; DRILL file {KiCad (5.99.0-9634-gb691c18bfc)} date Sat Mar  6 19:44:34 2021
; FORMAT={-:-/ absolute / inch / decimal}
; #@! TF.CreationDate,2021-03-06T19:44:34+01:00
; #@! TF.GenerationSoftware,Kicad,Pcbnew,(5.99.0-9634-gb691c18bfc)
; #@! TF.FileFunction,Plated,1,4,PTH
FMAT,2
INCH
T1C0.0079
T2C0.0118
T3C0.0130
T4C0.0157
%
G90
G05
T1
X0.311Y-0.9425
X0.4472Y-0.4028
X0.4475Y-0.1018
X0.5079Y-0.9413
X0.5165Y-0.452
X0.524Y-0.1835
X0.5465Y-0.4661
X0.5676Y-0.4867
X0.574Y-0.363
X0.5976Y-0.4614
X0.6047Y-0.0571
X0.6154Y-0.3528
X0.6173Y-0.3925
X0.6173Y-0.4122
X0.6173Y-0.4319
X0.6173Y-0.4516
X0.6173Y-0.4713
X0.6826Y-0.6047
X0.6862Y-0.5402
X0.6885Y-0.6451
X0.7059Y-0.5393
X0.7197Y-0.324
X0.7202Y-0.6031
X0.7256Y-0.5402
X0.7453Y-0.5402
X0.7516Y-0.5996
X0.765Y-0.3236
X0.7748Y-0.5598
X0.7757Y-0.5825
X0.7793Y-0.2823
X0.7839Y-0.5402
X0.7846Y-0.3236
X0.7846Y-0.7323
X0.7886Y-0.2244
X0.7967Y-0.3063
X0.8193Y-0.324
X0.8339Y-0.3728
X0.8339Y-0.3925
X0.8339Y-0.4122
X0.8339Y-0.4319
X0.8339Y-0.4516
X0.8339Y-0.4713
X0.8346Y-0.3364
X0.8658Y-0.5231
X0.8744Y-0.4028
X0.8807Y-0.5102
X0.8874Y-0.3529
X0.9075Y-0.5157
X0.913Y-0.2783
X0.9142Y-0.3382
X0.9346Y-0.4789
X0.9381Y-0.5261
X0.9476Y-0.402
X0.9528Y-0.424
X0.9543Y-0.3512
X0.9638Y-0.2772
X0.9728Y-0.4957
X0.9874Y-0.2756
X1.0173Y-0.2378
T2
X0.2327Y-0.087
T3
X0.2661Y-0.087
X0.4138Y-0.3783
X0.4492Y-0.6972
X0.4567Y-0.4465
X0.5043Y-0.335
X0.5201Y-0.7878
X0.5476Y-0.402
X0.5476Y-0.9335
X0.5645Y-0.7012
X0.6228Y-0.1795
X0.6539Y-0.3665
X0.6539Y-0.4098
X0.6539Y-0.4531
X0.6539Y-0.4965
X0.6657Y-0.0421
X0.6933Y-0.8075
X0.7012Y-0.3665
X0.7012Y-0.4098
X0.7012Y-0.4531
X0.7012Y-0.4965
X0.7421Y-0.6736
X0.7524Y-0.3665
X0.7524Y-0.4098
X0.7524Y-0.4531
X0.7524Y-0.4965
X0.7996Y-0.3665
X0.7996Y-0.4098
X0.7996Y-0.4531
X0.7996Y-0.4965
X0.8424Y-0.8807
X0.8614Y-0.1689
X0.8626Y-0.0693
X0.8634Y-0.135
X0.8862Y-0.6031
X0.9409Y-0.0693
X0.9421Y-0.1665
X0.9425Y-0.1331
X0.9634Y-0.6484
X1.0591Y-0.939
X1.0598Y-0.0469
X1.0783Y-0.7925
X1.1685Y-0.4736
T4
X0.311Y0.0
X0.3114Y-0.9846
X0.3504Y0.0
X0.3508Y-0.9846
X0.3898Y0.0
X0.3902Y-0.9846
X0.4291Y0.0
X0.4295Y-0.9846
X0.4685Y0.0
X0.4689Y-0.9846
X0.5079Y0.0
X0.5083Y-0.9846
X0.5472Y0.0
X0.5476Y-0.9846
X0.5866Y0.0
X0.587Y-0.9846
X0.626Y0.0
X0.6264Y-0.9846
X0.6654Y0.0
X0.6657Y-0.9846
X0.7047Y0.0
X0.7051Y-0.9846
X0.7441Y0.0
X0.7445Y-0.9846
X0.7835Y0.0
X0.7839Y-0.9846
X0.8228Y0.0
X0.8232Y-0.9846
X0.8622Y0.0
X0.8626Y-0.9846
X0.9016Y0.0
X0.902Y-0.9846
X0.9409Y0.0
X0.9413Y-0.9846
X0.9803Y0.0
X0.9807Y-0.9846
X1.0197Y0.0
X1.0201Y-0.9846
X1.0591Y0.0
X1.0594Y-0.9846
X1.2165Y-0.1185
X1.2165Y-0.1579
X1.2165Y-0.1972
X1.2165Y-0.2366
X1.2165Y-0.276
X1.2165Y-0.3154
X1.2165Y-0.3547
X1.2165Y-0.3941
X1.2165Y-0.4335
X1.2165Y-0.4728
X1.2165Y-0.5122
X1.2165Y-0.5516
X1.2165Y-0.5909
X1.2165Y-0.6303
X1.2165Y-0.6697
X1.2165Y-0.7091
X1.2165Y-0.7484
X1.2165Y-0.7878
X1.2165Y-0.8272
X1.2165Y-0.8665
T0
M30
