%TF.GenerationSoftware,KiCad,Pcbnew,(5.99.0-9634-gb691c18bfc)*%
%TF.CreationDate,2021-03-08T14:44:59+01:00*%
%TF.ProjectId,nRF52840Breakout,6e524635-3238-4343-9042-7265616b6f75,rev?*%
%TF.SameCoordinates,Original*%
%TF.FileFunction,Paste,Top*%
%TF.FilePolarity,Positive*%
%FSLAX46Y46*%
G04 Gerber Fmt 4.6, Leading zero omitted, Abs format (unit mm)*
G04 Created by KiCad (PCBNEW (5.99.0-9634-gb691c18bfc)) date 2021-03-08 14:44:59*
%MOMM*%
%LPD*%
G01*
G04 APERTURE LIST*
G04 Aperture macros list*
%AMRoundRect*
0 Rectangle with rounded corners*
0 $1 Rounding radius*
0 $2 $3 $4 $5 $6 $7 $8 $9 X,Y pos of 4 corners*
0 Add a 4 corners polygon primitive as box body*
4,1,4,$2,$3,$4,$5,$6,$7,$8,$9,$2,$3,0*
0 Add four circle primitives for the rounded corners*
1,1,$1+$1,$2,$3*
1,1,$1+$1,$4,$5*
1,1,$1+$1,$6,$7*
1,1,$1+$1,$8,$9*
0 Add four rect primitives between the rounded corners*
20,1,$1+$1,$2,$3,$4,$5,0*
20,1,$1+$1,$4,$5,$6,$7,0*
20,1,$1+$1,$6,$7,$8,$9,0*
20,1,$1+$1,$8,$9,$2,$3,0*%
G04 Aperture macros list end*
%ADD10RoundRect,0.155000X-0.155000X0.212500X-0.155000X-0.212500X0.155000X-0.212500X0.155000X0.212500X0*%
%ADD11RoundRect,0.155000X0.212500X0.155000X-0.212500X0.155000X-0.212500X-0.155000X0.212500X-0.155000X0*%
%ADD12RoundRect,0.237500X0.237500X-0.300000X0.237500X0.300000X-0.237500X0.300000X-0.237500X-0.300000X0*%
%ADD13R,1.500000X2.000000*%
%ADD14RoundRect,0.160000X-0.160000X0.197500X-0.160000X-0.197500X0.160000X-0.197500X0.160000X0.197500X0*%
%ADD15RoundRect,0.160000X-0.222500X-0.160000X0.222500X-0.160000X0.222500X0.160000X-0.222500X0.160000X0*%
%ADD16R,0.750000X0.700000*%
%ADD17RoundRect,0.250001X0.462499X1.074999X-0.462499X1.074999X-0.462499X-1.074999X0.462499X-1.074999X0*%
%ADD18RoundRect,0.250000X-0.412500X-0.650000X0.412500X-0.650000X0.412500X0.650000X-0.412500X0.650000X0*%
%ADD19RoundRect,0.155000X0.155000X-0.212500X0.155000X0.212500X-0.155000X0.212500X-0.155000X-0.212500X0*%
%ADD20RoundRect,0.250000X0.412500X0.650000X-0.412500X0.650000X-0.412500X-0.650000X0.412500X-0.650000X0*%
%ADD21RoundRect,0.160000X0.160000X-0.222500X0.160000X0.222500X-0.160000X0.222500X-0.160000X-0.222500X0*%
%ADD22RoundRect,0.237500X-0.237500X0.300000X-0.237500X-0.300000X0.237500X-0.300000X0.237500X0.300000X0*%
%ADD23RoundRect,0.155000X-0.212500X-0.155000X0.212500X-0.155000X0.212500X0.155000X-0.212500X0.155000X0*%
%ADD24R,1.800000X1.750000*%
%ADD25R,2.000000X2.000000*%
%ADD26C,0.250000*%
%ADD27RoundRect,0.090000X0.139000X0.090000X-0.139000X0.090000X-0.139000X-0.090000X0.139000X-0.090000X0*%
%ADD28RoundRect,0.237500X-0.300000X-0.237500X0.300000X-0.237500X0.300000X0.237500X-0.300000X0.237500X0*%
%ADD29RoundRect,0.237500X0.300000X0.237500X-0.300000X0.237500X-0.300000X-0.237500X0.300000X-0.237500X0*%
G04 APERTURE END LIST*
D10*
%TO.C,C12*%
X30980000Y-24255000D03*
X30980000Y-25390000D03*
%TD*%
D11*
%TO.C,C10*%
X32347500Y-20930000D03*
X31212500Y-20930000D03*
%TD*%
D12*
%TO.C,C21*%
X40470000Y-32302500D03*
X40470000Y-30577500D03*
%TD*%
D13*
%TO.C,SW1*%
X44350000Y-30790000D03*
X44350000Y-22590000D03*
%TD*%
D14*
%TO.C,R1*%
X41750000Y-29762500D03*
X41750000Y-30957500D03*
%TD*%
D15*
%TO.C,L1*%
X24167500Y-20460000D03*
X25312500Y-20460000D03*
%TD*%
D16*
%TO.C,X1*%
X28450000Y-22160000D03*
X27100000Y-22160000D03*
X27100000Y-23160000D03*
X28450000Y-23160000D03*
%TD*%
D17*
%TO.C,L2*%
X29877500Y-30490000D03*
X26902500Y-30490000D03*
%TD*%
D18*
%TO.C,C6*%
X36467500Y-38050000D03*
X39592500Y-38050000D03*
%TD*%
D19*
%TO.C,C7*%
X40370000Y-26937500D03*
X40370000Y-25802500D03*
%TD*%
D20*
%TO.C,C20*%
X43872500Y-34330000D03*
X40747500Y-34330000D03*
%TD*%
D11*
%TO.C,C1*%
X29517500Y-20760000D03*
X28382500Y-20760000D03*
%TD*%
D17*
%TO.C,L4*%
X38807500Y-35140000D03*
X35832500Y-35140000D03*
%TD*%
D21*
%TO.C,L3*%
X25300000Y-30550000D03*
X25300000Y-29405000D03*
%TD*%
D12*
%TO.C,C15*%
X26240000Y-27902500D03*
X26240000Y-26177500D03*
%TD*%
D19*
%TO.C,C16*%
X27710000Y-28120000D03*
X27710000Y-26985000D03*
%TD*%
D22*
%TO.C,C14*%
X29940000Y-33057500D03*
X29940000Y-34782500D03*
%TD*%
D23*
%TO.C,C9*%
X36002500Y-22650000D03*
X37137500Y-22650000D03*
%TD*%
D24*
%TO.C,X2*%
X33100000Y-38265000D03*
X33100000Y-35015000D03*
%TD*%
D25*
%TO.C,U1*%
X34257500Y-28332500D03*
X34257500Y-25907500D03*
X36682500Y-28332500D03*
X36682500Y-25907500D03*
D26*
X32220000Y-28370000D03*
X32220000Y-27870000D03*
X32220000Y-27370000D03*
X32220000Y-26870000D03*
X32220000Y-26370000D03*
X32220000Y-25870000D03*
X32220000Y-25370000D03*
X32220000Y-24870000D03*
X32220000Y-24370000D03*
X37720000Y-23870000D03*
X37970000Y-29870000D03*
X38220000Y-29120000D03*
X38220000Y-28120000D03*
X38220000Y-27620000D03*
X38220000Y-27120000D03*
X38220000Y-26620000D03*
X38220000Y-26120000D03*
X38220000Y-25620000D03*
X38220000Y-25120000D03*
X38220000Y-23870000D03*
X38720000Y-29870000D03*
X38720000Y-29370000D03*
X38720000Y-28870000D03*
X38720000Y-28370000D03*
X38720000Y-27870000D03*
X38720000Y-27370000D03*
X38720000Y-26870000D03*
X38720000Y-26370000D03*
X38720000Y-25870000D03*
X38720000Y-25370000D03*
X38720000Y-24870000D03*
X38720000Y-24370000D03*
X32720000Y-30370000D03*
X32720000Y-29620000D03*
X32720000Y-29120000D03*
X32720000Y-28620000D03*
X32720000Y-28120000D03*
X32720000Y-27620000D03*
X32720000Y-27120000D03*
X32720000Y-26620000D03*
X32720000Y-26120000D03*
X32720000Y-25620000D03*
X32720000Y-23870000D03*
X33220000Y-30370000D03*
X33470000Y-29870000D03*
X33470000Y-24370000D03*
X33720000Y-23870000D03*
X33970000Y-29870000D03*
X33970000Y-24370000D03*
X34220000Y-30370000D03*
X34470000Y-29870000D03*
X34470000Y-24370000D03*
X34720000Y-30370000D03*
X34720000Y-23870000D03*
X34970000Y-29870000D03*
X35220000Y-30370000D03*
X35220000Y-23870000D03*
X35470000Y-29870000D03*
X35720000Y-30370000D03*
X35720000Y-23870000D03*
X35970000Y-29870000D03*
X35970000Y-24370000D03*
X36220000Y-30370000D03*
X36220000Y-23870000D03*
X36470000Y-29870000D03*
X36470000Y-24370000D03*
X36720000Y-30370000D03*
X36720000Y-23870000D03*
X36970000Y-24370000D03*
X37220000Y-30370000D03*
X37220000Y-23870000D03*
X37470000Y-29870000D03*
X37470000Y-24370000D03*
%TD*%
D27*
%TO.C,C3*%
X25272500Y-19300000D03*
X24407500Y-19300000D03*
%TD*%
D28*
%TO.C,C19*%
X35797500Y-32380000D03*
X37522500Y-32380000D03*
%TD*%
D11*
%TO.C,C5*%
X32415000Y-33080000D03*
X31280000Y-33080000D03*
%TD*%
%TO.C,C2*%
X28517500Y-24560000D03*
X27382500Y-24560000D03*
%TD*%
D29*
%TO.C,C11*%
X32702500Y-22280000D03*
X30977500Y-22280000D03*
%TD*%
D10*
%TO.C,C18*%
X34920000Y-37422500D03*
X34920000Y-38557500D03*
%TD*%
D11*
%TO.C,C13*%
X29850000Y-25660000D03*
X28715000Y-25660000D03*
%TD*%
D23*
%TO.C,C8*%
X40242500Y-24020000D03*
X41377500Y-24020000D03*
%TD*%
D19*
%TO.C,C17*%
X31300000Y-36227500D03*
X31300000Y-35092500D03*
%TD*%
M02*
