%TF.GenerationSoftware,KiCad,Pcbnew,(5.99.0-9634-gb691c18bfc)*%
%TF.CreationDate,2021-03-09T19:13:23+01:00*%
%TF.ProjectId,nRF52840Breakout,6e524635-3238-4343-9042-7265616b6f75,rev?*%
%TF.SameCoordinates,Original*%
%TF.FileFunction,Copper,L2,Inr*%
%TF.FilePolarity,Positive*%
%FSLAX46Y46*%
G04 Gerber Fmt 4.6, Leading zero omitted, Abs format (unit mm)*
G04 Created by KiCad (PCBNEW (5.99.0-9634-gb691c18bfc)) date 2021-03-09 19:13:23*
%MOMM*%
%LPD*%
G01*
G04 APERTURE LIST*
%TA.AperFunction,ComponentPad*%
%ADD10R,0.600000X0.800000*%
%TD*%
%TA.AperFunction,ComponentPad*%
%ADD11R,0.800000X0.600000*%
%TD*%
%TA.AperFunction,ComponentPad*%
%ADD12R,0.500000X0.900000*%
%TD*%
%TA.AperFunction,ViaPad*%
%ADD13C,0.685800*%
%TD*%
%TA.AperFunction,ViaPad*%
%ADD14C,0.400000*%
%TD*%
G04 APERTURE END LIST*
D10*
%TO.N,Net-(J2-Pad1)*%
%TO.C,J2*%
X24940000Y-16150000D03*
%TO.N,Net-(J2-Pad2)*%
X25940000Y-16150000D03*
%TO.N,Net-(J2-Pad3)*%
X26940000Y-16150000D03*
%TO.N,Net-(J2-Pad4)*%
X27940000Y-16150000D03*
%TO.N,Net-(J2-Pad5)*%
X28940000Y-16150000D03*
%TO.N,Net-(J2-Pad6)*%
X29940000Y-16150000D03*
%TO.N,Net-(J2-Pad7)*%
X30940000Y-16150000D03*
%TO.N,Net-(J2-Pad8)*%
X31940000Y-16150000D03*
%TO.N,Net-(J2-Pad9)*%
X32940000Y-16150000D03*
%TO.N,GND*%
X33940000Y-16150000D03*
%TO.N,Net-(J2-Pad11)*%
X34940000Y-16150000D03*
%TO.N,Net-(J2-Pad12)*%
X35940000Y-16150000D03*
%TO.N,Net-(J2-Pad13)*%
X36940000Y-16150000D03*
%TO.N,Net-(J2-Pad14)*%
X37940000Y-16150000D03*
%TO.N,Net-(J2-Pad15)*%
X38940000Y-16150000D03*
%TO.N,Net-(J2-Pad16)*%
X39940000Y-16150000D03*
%TO.N,SWDCLK*%
X40940000Y-16150000D03*
%TO.N,SWDIO*%
X41940000Y-16150000D03*
%TO.N,RST*%
X42940000Y-16150000D03*
%TO.N,GND*%
X43940000Y-16150000D03*
%TD*%
D11*
%TO.N,Net-(J3-Pad1)*%
%TO.C,J3*%
X47940000Y-19160000D03*
%TO.N,Net-(J3-Pad2)*%
X47940000Y-20160000D03*
%TO.N,Net-(J3-Pad3)*%
X47940000Y-21160000D03*
%TO.N,Net-(J3-Pad4)*%
X47940000Y-22160000D03*
%TO.N,Net-(J3-Pad5)*%
X47940000Y-23160000D03*
%TO.N,Net-(J3-Pad6)*%
X47940000Y-24160000D03*
%TO.N,Net-(J3-Pad7)*%
X47940000Y-25160000D03*
%TO.N,Net-(J3-Pad8)*%
X47940000Y-26160000D03*
%TO.N,Net-(J3-Pad9)*%
X47940000Y-27160000D03*
%TO.N,GND*%
X47940000Y-28160000D03*
%TO.N,VDD*%
X47940000Y-29160000D03*
%TO.N,VDDH*%
X47940000Y-30160000D03*
%TO.N,Net-(J3-Pad13)*%
X47940000Y-31160000D03*
%TO.N,Net-(J3-Pad14)*%
X47940000Y-32160000D03*
%TO.N,Net-(J3-Pad15)*%
X47940000Y-33160000D03*
%TO.N,Net-(J3-Pad16)*%
X47940000Y-34160000D03*
%TO.N,Net-(J3-Pad17)*%
X47940000Y-35160000D03*
%TO.N,Net-(J3-Pad18)*%
X47940000Y-36160000D03*
%TO.N,USB_D+*%
X47940000Y-37160000D03*
%TO.N,USB_D-*%
X47940000Y-38160000D03*
%TD*%
D12*
%TO.N,N/C*%
%TO.C,AE1*%
X22950000Y-18360000D03*
%TD*%
D10*
%TO.N,GND*%
%TO.C,J1*%
X24950000Y-41160000D03*
%TO.N,Net-(J1-Pad2)*%
X25950000Y-41160000D03*
%TO.N,Net-(J1-Pad3)*%
X26950000Y-41160000D03*
%TO.N,Net-(J1-Pad4)*%
X27950000Y-41160000D03*
%TO.N,Net-(J1-Pad5)*%
X28950000Y-41160000D03*
%TO.N,GND*%
X29950000Y-41160000D03*
%TO.N,VDD*%
X30950000Y-41160000D03*
%TO.N,Net-(J1-Pad8)*%
X31950000Y-41160000D03*
%TO.N,Net-(J1-Pad9)*%
X32950000Y-41160000D03*
%TO.N,Net-(J1-Pad10)*%
X33950000Y-41160000D03*
%TO.N,Net-(J1-Pad11)*%
X34950000Y-41160000D03*
%TO.N,Net-(J1-Pad12)*%
X35950000Y-41160000D03*
%TO.N,Net-(J1-Pad13)*%
X36950000Y-41160000D03*
%TO.N,Net-(J1-Pad14)*%
X37950000Y-41160000D03*
%TO.N,Net-(J1-Pad15)*%
X38950000Y-41160000D03*
%TO.N,Net-(J1-Pad16)*%
X39950000Y-41160000D03*
%TO.N,Net-(J1-Pad17)*%
X40950000Y-41160000D03*
%TO.N,Net-(J1-Pad18)*%
X41950000Y-41160000D03*
%TO.N,VBUS*%
X42950000Y-41160000D03*
%TO.N,GND*%
X43950000Y-41160000D03*
%TD*%
D13*
%TO.N,GND*%
X37350000Y-26560000D03*
X30250000Y-36160000D03*
X34850000Y-28760000D03*
D14*
X37070000Y-21850000D03*
D13*
X36150000Y-27660000D03*
X33650000Y-25460000D03*
X35889831Y-33260000D03*
X43960000Y-17340000D03*
X34850000Y-27660000D03*
X36150000Y-28760000D03*
X46720000Y-28180000D03*
X34850000Y-25460000D03*
D14*
X29940000Y-40060000D03*
D13*
X33650000Y-28760000D03*
X23800000Y-18360000D03*
X31377500Y-33960000D03*
D14*
X24940000Y-40090000D03*
X41750000Y-28740000D03*
D13*
X44430000Y-36280000D03*
X39550000Y-31470000D03*
X33950000Y-17220000D03*
X34850000Y-26560000D03*
X27550000Y-25760000D03*
X36150000Y-26560000D03*
X37350000Y-28760000D03*
X30950000Y-26360000D03*
X33650000Y-27660000D03*
X38436400Y-38520000D03*
D14*
X30350000Y-20810000D03*
D13*
X33650000Y-26560000D03*
X36150000Y-25460000D03*
X37350000Y-25460000D03*
X34650000Y-36660000D03*
X37350000Y-27660000D03*
X43940000Y-40000000D03*
D14*
X41280000Y-25070000D03*
D13*
%TO.N,VDD*%
X38920000Y-20440000D03*
X30950000Y-39860000D03*
X40980000Y-19530000D03*
X40970000Y-20380000D03*
D14*
X40230000Y-23220000D03*
D13*
X40940000Y-17910000D03*
X28450000Y-33860000D03*
X29850000Y-24660000D03*
D14*
X41240000Y-26920000D03*
D13*
X38950000Y-17910000D03*
X38970000Y-19580000D03*
D14*
X36970000Y-34750000D03*
D13*
%TO.N,DEC4_6*%
X28640000Y-27490000D03*
X32860000Y-20710000D03*
D14*
%TO.N,Net-(J1-Pad3)*%
X30920000Y-27990000D03*
%TO.N,Net-(J1-Pad5)*%
X32720000Y-28120000D03*
%TO.N,USB_D-*%
X39031113Y-29436263D03*
%TO.N,USB_D+*%
X39410000Y-29110000D03*
%TO.N,RST*%
X38220000Y-27120009D03*
X42880000Y-22190000D03*
%TO.N,Net-(J1-Pad8)*%
X34377000Y-31510000D03*
%TO.N,Net-(J1-Pad9)*%
X34470000Y-29870000D03*
%TO.N,Net-(J1-Pad10)*%
X34528969Y-32535099D03*
%TO.N,Net-(J1-Pad11)*%
X34969550Y-29848743D03*
%TO.N,Net-(J1-Pad12)*%
X35333050Y-31470000D03*
%TO.N,Net-(J1-Pad13)*%
X35470000Y-29870000D03*
%TO.N,Net-(J1-Pad14)*%
X36130000Y-31380000D03*
%TO.N,Net-(J1-Pad15)*%
X35970003Y-29870000D03*
%TO.N,Net-(J1-Pad16)*%
X36743387Y-30946139D03*
%TO.N,Net-(J2-Pad4)*%
X32720000Y-26619991D03*
%TO.N,Net-(J2-Pad3)*%
X30160000Y-27630000D03*
%TO.N,Net-(J2-Pad2)*%
X32720000Y-27119994D03*
%TO.N,Net-(J2-Pad1)*%
X32720000Y-27619997D03*
%TO.N,Net-(J1-Pad2)*%
X31456935Y-28510980D03*
%TO.N,Net-(J1-Pad17)*%
X36720000Y-30370000D03*
%TO.N,Net-(J1-Pad18)*%
X36950000Y-29870000D03*
%TO.N,Net-(J1-Pad4)*%
X32220000Y-27870000D03*
%TO.N,Net-(J2-Pad5)*%
X28406411Y-18735000D03*
X28400000Y-26380000D03*
%TO.N,Net-(J2-Pad6)*%
X32720000Y-26119988D03*
%TO.N,Net-(J2-Pad7)*%
X32400000Y-17600000D03*
X32670000Y-25110000D03*
%TO.N,Net-(J2-Pad8)*%
X31620000Y-25370000D03*
%TO.N,Net-(J2-Pad12)*%
X35320000Y-24380000D03*
%TO.N,Net-(J2-Pad14)*%
X36470000Y-24370000D03*
%TO.N,Net-(J2-Pad15)*%
X36833500Y-23320000D03*
%TO.N,Net-(J2-Pad16)*%
X36970000Y-24370000D03*
%TO.N,Net-(J3-Pad1)*%
X40260000Y-24740000D03*
%TO.N,Net-(J3-Pad2)*%
X38238380Y-24694902D03*
D13*
%TO.N,VBUS*%
X41510000Y-32620000D03*
D14*
%TO.N,Net-(J3-Pad3)*%
X39580718Y-25112782D03*
%TO.N,Net-(J3-Pad4)*%
X38220000Y-25620000D03*
%TO.N,Net-(J3-Pad5)*%
X41110000Y-26360000D03*
%TO.N,Net-(J3-Pad6)*%
X38220000Y-26120003D03*
%TO.N,Net-(J3-Pad7)*%
X39250000Y-26380000D03*
%TO.N,Net-(J3-Pad8)*%
X37276459Y-23929106D03*
X42120000Y-23150000D03*
%TO.N,Net-(J3-Pad9)*%
X41520000Y-23190000D03*
X37850000Y-24380000D03*
%TO.N,Net-(J3-Pad13)*%
X38220000Y-26620006D03*
%TO.N,Net-(J3-Pad14)*%
X40780000Y-28313500D03*
%TO.N,Net-(J3-Pad15)*%
X38220000Y-27620012D03*
%TO.N,Net-(J3-Pad16)*%
X40867966Y-29512034D03*
%TO.N,Net-(J3-Pad17)*%
X38220000Y-28120015D03*
%TO.N,Net-(J3-Pad18)*%
X40090932Y-29249068D03*
%TD*%
%TA.AperFunction,Conductor*%
%TO.N,GND*%
G36*
X23524740Y-16005055D02*
G01*
X24000541Y-16005206D01*
X24068654Y-16025230D01*
X24115130Y-16078900D01*
X24126500Y-16131206D01*
X24126500Y-16550000D01*
X24131727Y-16623079D01*
X24172904Y-16763316D01*
X24197426Y-16801472D01*
X24247051Y-16878691D01*
X24247053Y-16878694D01*
X24251923Y-16886271D01*
X24258733Y-16892172D01*
X24355569Y-16976082D01*
X24355572Y-16976084D01*
X24362381Y-16981984D01*
X24370579Y-16985728D01*
X24486876Y-17038839D01*
X24495330Y-17042700D01*
X24504245Y-17043982D01*
X24504246Y-17043982D01*
X24635552Y-17062861D01*
X24635559Y-17062862D01*
X24640000Y-17063500D01*
X25240000Y-17063500D01*
X25313079Y-17058273D01*
X25399672Y-17032847D01*
X25470668Y-17032847D01*
X25486734Y-17038839D01*
X25487131Y-17038956D01*
X25495330Y-17042700D01*
X25504247Y-17043982D01*
X25635552Y-17062861D01*
X25635559Y-17062862D01*
X25640000Y-17063500D01*
X26240000Y-17063500D01*
X26313079Y-17058273D01*
X26399672Y-17032847D01*
X26470668Y-17032847D01*
X26486734Y-17038839D01*
X26487131Y-17038956D01*
X26495330Y-17042700D01*
X26504247Y-17043982D01*
X26635552Y-17062861D01*
X26635559Y-17062862D01*
X26640000Y-17063500D01*
X27240000Y-17063500D01*
X27313079Y-17058273D01*
X27399672Y-17032847D01*
X27470668Y-17032847D01*
X27486734Y-17038839D01*
X27487131Y-17038956D01*
X27495330Y-17042700D01*
X27504247Y-17043982D01*
X27635552Y-17062861D01*
X27635559Y-17062862D01*
X27640000Y-17063500D01*
X28240000Y-17063500D01*
X28313079Y-17058273D01*
X28399672Y-17032847D01*
X28470668Y-17032847D01*
X28486734Y-17038839D01*
X28487131Y-17038956D01*
X28495330Y-17042700D01*
X28504247Y-17043982D01*
X28635552Y-17062861D01*
X28635559Y-17062862D01*
X28640000Y-17063500D01*
X29240000Y-17063500D01*
X29313079Y-17058273D01*
X29399672Y-17032847D01*
X29470668Y-17032847D01*
X29486734Y-17038839D01*
X29487131Y-17038956D01*
X29495330Y-17042700D01*
X29504247Y-17043982D01*
X29635552Y-17062861D01*
X29635559Y-17062862D01*
X29640000Y-17063500D01*
X30240000Y-17063500D01*
X30313079Y-17058273D01*
X30399672Y-17032847D01*
X30470668Y-17032847D01*
X30486734Y-17038839D01*
X30487131Y-17038956D01*
X30495330Y-17042700D01*
X30504247Y-17043982D01*
X30635552Y-17062861D01*
X30635559Y-17062862D01*
X30640000Y-17063500D01*
X31240000Y-17063500D01*
X31313079Y-17058273D01*
X31399672Y-17032847D01*
X31470668Y-17032847D01*
X31486734Y-17038839D01*
X31487131Y-17038956D01*
X31495330Y-17042700D01*
X31504247Y-17043982D01*
X31635552Y-17062861D01*
X31635559Y-17062862D01*
X31640000Y-17063500D01*
X31668725Y-17063500D01*
X31736846Y-17083502D01*
X31783339Y-17137158D01*
X31793443Y-17207432D01*
X31777032Y-17248793D01*
X31779147Y-17249927D01*
X31775560Y-17256617D01*
X31771190Y-17262835D01*
X31708916Y-17422560D01*
X31707925Y-17430087D01*
X31689791Y-17567828D01*
X31686539Y-17592528D01*
X31705351Y-17762928D01*
X31724238Y-17814538D01*
X31760266Y-17912988D01*
X31764267Y-17923922D01*
X31768503Y-17930225D01*
X31768503Y-17930226D01*
X31834861Y-18028977D01*
X31859884Y-18066216D01*
X31865503Y-18071329D01*
X31865504Y-18071330D01*
X31981067Y-18176484D01*
X31986683Y-18181594D01*
X32000975Y-18189354D01*
X32130666Y-18259771D01*
X32130668Y-18259772D01*
X32137343Y-18263396D01*
X32144692Y-18265324D01*
X32295817Y-18304971D01*
X32295819Y-18304971D01*
X32303167Y-18306899D01*
X32390639Y-18308273D01*
X32466982Y-18309472D01*
X32466985Y-18309472D01*
X32474581Y-18309591D01*
X32481985Y-18307895D01*
X32481987Y-18307895D01*
X32566141Y-18288621D01*
X32641690Y-18271318D01*
X32794845Y-18194289D01*
X32925205Y-18082951D01*
X32951991Y-18045675D01*
X33020808Y-17949906D01*
X33020809Y-17949905D01*
X33025245Y-17943731D01*
X33089188Y-17784667D01*
X33113344Y-17614942D01*
X33113500Y-17600000D01*
X33111685Y-17584997D01*
X33104108Y-17522386D01*
X33092904Y-17429806D01*
X33032306Y-17269438D01*
X33026417Y-17260869D01*
X33025779Y-17258922D01*
X33024485Y-17256447D01*
X33024897Y-17256231D01*
X33004315Y-17193401D01*
X33022199Y-17124694D01*
X33074389Y-17076562D01*
X33130255Y-17063500D01*
X33240000Y-17063500D01*
X33313079Y-17058273D01*
X33400398Y-17032634D01*
X33471393Y-17032634D01*
X33486263Y-17038180D01*
X33504388Y-17043502D01*
X33635554Y-17062361D01*
X33644495Y-17063000D01*
X33667885Y-17063000D01*
X33683124Y-17058525D01*
X33684329Y-17057135D01*
X33686000Y-17049452D01*
X33686000Y-16824337D01*
X33697387Y-16771994D01*
X33728957Y-16702867D01*
X33728958Y-16702864D01*
X33732700Y-16694670D01*
X33742993Y-16623079D01*
X33752861Y-16554448D01*
X33752862Y-16554441D01*
X33753500Y-16550000D01*
X33753500Y-16134338D01*
X33773502Y-16066217D01*
X33827158Y-16019724D01*
X33879540Y-16008338D01*
X33934548Y-16008355D01*
X34000541Y-16008376D01*
X34068654Y-16028399D01*
X34115130Y-16082070D01*
X34126500Y-16134376D01*
X34126500Y-16550000D01*
X34131727Y-16623079D01*
X34172904Y-16763316D01*
X34177775Y-16770895D01*
X34181520Y-16779096D01*
X34178530Y-16780461D01*
X34194000Y-16833139D01*
X34194000Y-17044885D01*
X34198475Y-17060124D01*
X34199865Y-17061329D01*
X34207548Y-17063000D01*
X34237743Y-17063000D01*
X34242250Y-17062839D01*
X34306269Y-17058260D01*
X34319488Y-17055875D01*
X34398983Y-17032533D01*
X34469980Y-17032533D01*
X34486829Y-17038818D01*
X34487134Y-17038957D01*
X34495330Y-17042700D01*
X34504245Y-17043982D01*
X34504246Y-17043982D01*
X34635552Y-17062861D01*
X34635559Y-17062862D01*
X34640000Y-17063500D01*
X35240000Y-17063500D01*
X35313079Y-17058273D01*
X35399672Y-17032847D01*
X35470668Y-17032847D01*
X35486734Y-17038839D01*
X35487131Y-17038956D01*
X35495330Y-17042700D01*
X35504247Y-17043982D01*
X35635552Y-17062861D01*
X35635559Y-17062862D01*
X35640000Y-17063500D01*
X36240000Y-17063500D01*
X36313079Y-17058273D01*
X36399672Y-17032847D01*
X36470668Y-17032847D01*
X36486734Y-17038839D01*
X36487131Y-17038956D01*
X36495330Y-17042700D01*
X36504247Y-17043982D01*
X36635552Y-17062861D01*
X36635559Y-17062862D01*
X36640000Y-17063500D01*
X37240000Y-17063500D01*
X37313079Y-17058273D01*
X37399672Y-17032847D01*
X37470668Y-17032847D01*
X37486734Y-17038839D01*
X37487131Y-17038956D01*
X37495330Y-17042700D01*
X37504247Y-17043982D01*
X37635552Y-17062861D01*
X37635559Y-17062862D01*
X37640000Y-17063500D01*
X38240000Y-17063500D01*
X38242249Y-17063339D01*
X38242253Y-17063339D01*
X38283402Y-17060396D01*
X38352776Y-17075488D01*
X38402978Y-17125690D01*
X38418069Y-17195064D01*
X38393258Y-17261584D01*
X38373721Y-17282310D01*
X38329819Y-17319410D01*
X38325672Y-17324833D01*
X38325671Y-17324835D01*
X38221610Y-17460941D01*
X38221607Y-17460945D01*
X38217466Y-17466362D01*
X38139290Y-17634012D01*
X38098937Y-17814538D01*
X38098291Y-17999518D01*
X38099734Y-18006191D01*
X38099734Y-18006193D01*
X38130635Y-18149110D01*
X38137383Y-18180322D01*
X38214387Y-18348514D01*
X38218491Y-18353960D01*
X38218492Y-18353962D01*
X38296797Y-18457875D01*
X38325711Y-18496246D01*
X38330890Y-18500685D01*
X38330891Y-18500686D01*
X38448874Y-18601809D01*
X38466162Y-18616627D01*
X38507957Y-18639037D01*
X38558540Y-18688856D01*
X38574159Y-18758113D01*
X38549855Y-18824820D01*
X38507179Y-18861538D01*
X38491107Y-18870012D01*
X38485894Y-18874417D01*
X38485890Y-18874420D01*
X38355033Y-18985003D01*
X38355029Y-18985007D01*
X38349819Y-18989410D01*
X38345672Y-18994833D01*
X38345671Y-18994835D01*
X38241610Y-19130941D01*
X38241607Y-19130945D01*
X38237466Y-19136362D01*
X38159290Y-19304012D01*
X38118937Y-19484538D01*
X38118291Y-19669518D01*
X38119734Y-19676191D01*
X38119734Y-19676193D01*
X38145130Y-19793650D01*
X38157383Y-19850322D01*
X38160224Y-19856527D01*
X38181788Y-19903628D01*
X38191958Y-19973893D01*
X38181419Y-20009328D01*
X38137268Y-20104012D01*
X38109290Y-20164012D01*
X38068937Y-20344538D01*
X38068913Y-20351367D01*
X38068913Y-20351368D01*
X38068825Y-20376508D01*
X38068291Y-20529518D01*
X38069734Y-20536191D01*
X38069734Y-20536193D01*
X38103134Y-20690668D01*
X38107383Y-20710322D01*
X38184387Y-20878514D01*
X38188491Y-20883960D01*
X38188492Y-20883962D01*
X38256077Y-20973650D01*
X38295711Y-21026246D01*
X38300890Y-21030685D01*
X38300891Y-21030686D01*
X38430106Y-21141436D01*
X38436162Y-21146627D01*
X38449842Y-21153962D01*
X38593170Y-21230814D01*
X38593172Y-21230815D01*
X38599187Y-21234040D01*
X38605755Y-21235899D01*
X38605756Y-21235899D01*
X38704893Y-21263952D01*
X38777179Y-21284407D01*
X38783987Y-21284811D01*
X38783990Y-21284812D01*
X38936958Y-21293900D01*
X38961835Y-21295378D01*
X39042833Y-21282549D01*
X39137805Y-21267507D01*
X39137809Y-21267506D01*
X39144539Y-21266440D01*
X39150885Y-21263953D01*
X39150889Y-21263952D01*
X39310412Y-21201436D01*
X39310416Y-21201434D01*
X39316767Y-21198945D01*
X39383961Y-21153962D01*
X39464815Y-21099835D01*
X39464818Y-21099832D01*
X39470483Y-21096040D01*
X39483771Y-21082184D01*
X39593795Y-20967452D01*
X39598517Y-20962528D01*
X39694894Y-20804637D01*
X39725233Y-20716527D01*
X39752895Y-20636191D01*
X39752896Y-20636188D01*
X39755118Y-20629734D01*
X39757648Y-20607872D01*
X39775975Y-20449471D01*
X39775975Y-20449470D01*
X39776379Y-20445979D01*
X39776400Y-20440000D01*
X39775750Y-20434012D01*
X39758208Y-20272543D01*
X39756422Y-20256101D01*
X39703498Y-20098838D01*
X39700728Y-20027897D01*
X39715368Y-19993009D01*
X39744894Y-19944637D01*
X39757841Y-19907035D01*
X39802895Y-19776191D01*
X39802896Y-19776188D01*
X39805118Y-19769734D01*
X39817504Y-19662689D01*
X39825975Y-19589471D01*
X39825975Y-19589470D01*
X39826379Y-19585979D01*
X39826400Y-19580000D01*
X39806422Y-19396101D01*
X39760847Y-19260675D01*
X39749597Y-19227246D01*
X39749596Y-19227244D01*
X39747421Y-19220781D01*
X39652148Y-19062221D01*
X39525050Y-18927819D01*
X39439990Y-18870012D01*
X39399186Y-18842282D01*
X39354087Y-18787449D01*
X39345793Y-18716939D01*
X39376936Y-18653137D01*
X39399914Y-18633366D01*
X39494815Y-18569835D01*
X39494818Y-18569832D01*
X39500483Y-18566040D01*
X39628517Y-18432528D01*
X39645374Y-18404913D01*
X39721334Y-18280469D01*
X39724894Y-18274637D01*
X39766376Y-18154164D01*
X39782895Y-18106191D01*
X39782896Y-18106188D01*
X39785118Y-18099734D01*
X39788276Y-18072445D01*
X39805975Y-17919471D01*
X39805975Y-17919470D01*
X39806379Y-17915979D01*
X39806400Y-17910000D01*
X39805258Y-17899481D01*
X39794939Y-17804502D01*
X39786422Y-17726101D01*
X39743985Y-17600000D01*
X39729597Y-17557246D01*
X39729596Y-17557244D01*
X39727421Y-17550781D01*
X39632148Y-17392221D01*
X39588324Y-17345878D01*
X39519617Y-17273223D01*
X39487345Y-17209985D01*
X39494385Y-17139338D01*
X39538502Y-17083713D01*
X39605689Y-17060769D01*
X39629099Y-17061933D01*
X39635546Y-17062860D01*
X39635551Y-17062860D01*
X39640000Y-17063500D01*
X40240000Y-17063500D01*
X40272476Y-17061177D01*
X40341849Y-17076268D01*
X40392052Y-17126470D01*
X40407144Y-17195844D01*
X40382334Y-17262364D01*
X40362793Y-17283094D01*
X40325033Y-17315003D01*
X40325029Y-17315007D01*
X40319819Y-17319410D01*
X40315672Y-17324833D01*
X40315671Y-17324835D01*
X40211610Y-17460941D01*
X40211607Y-17460945D01*
X40207466Y-17466362D01*
X40129290Y-17634012D01*
X40088937Y-17814538D01*
X40088291Y-17999518D01*
X40089734Y-18006191D01*
X40089734Y-18006193D01*
X40120635Y-18149110D01*
X40127383Y-18180322D01*
X40204387Y-18348514D01*
X40208491Y-18353960D01*
X40208492Y-18353962D01*
X40286797Y-18457875D01*
X40315711Y-18496246D01*
X40320890Y-18500685D01*
X40320891Y-18500686D01*
X40438874Y-18601809D01*
X40456162Y-18616627D01*
X40467509Y-18622711D01*
X40518092Y-18672528D01*
X40533712Y-18741785D01*
X40509409Y-18808492D01*
X40489296Y-18829993D01*
X40365033Y-18935003D01*
X40365029Y-18935007D01*
X40359819Y-18939410D01*
X40355672Y-18944833D01*
X40355671Y-18944835D01*
X40251610Y-19080941D01*
X40251607Y-19080945D01*
X40247466Y-19086362D01*
X40169290Y-19254012D01*
X40128937Y-19434538D01*
X40128913Y-19441367D01*
X40128913Y-19441368D01*
X40128617Y-19526028D01*
X40128291Y-19619518D01*
X40129734Y-19626191D01*
X40129734Y-19626193D01*
X40164486Y-19786921D01*
X40167383Y-19800322D01*
X40170224Y-19806527D01*
X40209295Y-19891866D01*
X40219465Y-19962130D01*
X40208926Y-19997567D01*
X40203442Y-20009328D01*
X40159290Y-20104012D01*
X40118937Y-20284538D01*
X40118291Y-20469518D01*
X40119734Y-20476191D01*
X40119734Y-20476193D01*
X40154328Y-20636191D01*
X40157383Y-20650322D01*
X40234387Y-20818514D01*
X40238491Y-20823960D01*
X40238492Y-20823962D01*
X40316797Y-20927875D01*
X40345711Y-20966246D01*
X40486162Y-21086627D01*
X40510795Y-21099835D01*
X40643170Y-21170814D01*
X40643172Y-21170815D01*
X40649187Y-21174040D01*
X40655755Y-21175899D01*
X40655756Y-21175899D01*
X40723784Y-21195149D01*
X40827179Y-21224407D01*
X40833987Y-21224811D01*
X40833990Y-21224812D01*
X40986958Y-21233900D01*
X41011835Y-21235378D01*
X41092833Y-21222549D01*
X41187805Y-21207507D01*
X41187809Y-21207506D01*
X41194539Y-21206440D01*
X41200885Y-21203953D01*
X41200889Y-21203952D01*
X41360412Y-21141436D01*
X41360416Y-21141434D01*
X41366767Y-21138945D01*
X41430857Y-21096040D01*
X41514815Y-21039835D01*
X41514818Y-21039832D01*
X41520483Y-21036040D01*
X41648517Y-20902528D01*
X41663176Y-20878514D01*
X41741334Y-20750469D01*
X41744894Y-20744637D01*
X41756710Y-20710322D01*
X41802895Y-20576191D01*
X41802896Y-20576188D01*
X41805118Y-20569734D01*
X41810167Y-20526101D01*
X41825975Y-20389471D01*
X41825975Y-20389470D01*
X41826379Y-20385979D01*
X41826400Y-20380000D01*
X41821824Y-20337872D01*
X41807159Y-20202888D01*
X41806422Y-20196101D01*
X41747421Y-20020781D01*
X41745093Y-20016907D01*
X41734808Y-19947552D01*
X41749286Y-19907035D01*
X41748433Y-19906634D01*
X41751334Y-19900469D01*
X41754894Y-19894637D01*
X41765354Y-19864260D01*
X41812895Y-19726191D01*
X41812896Y-19726188D01*
X41815118Y-19719734D01*
X41826696Y-19619672D01*
X41835975Y-19539471D01*
X41835975Y-19539470D01*
X41836379Y-19535979D01*
X41836400Y-19530000D01*
X41836003Y-19526340D01*
X41822591Y-19402888D01*
X41816422Y-19346101D01*
X41776423Y-19227246D01*
X41759597Y-19177246D01*
X41759596Y-19177244D01*
X41757421Y-19170781D01*
X41662148Y-19012221D01*
X41535050Y-18877819D01*
X41523563Y-18870012D01*
X41436324Y-18810725D01*
X41391225Y-18755892D01*
X41382931Y-18685382D01*
X41414074Y-18621581D01*
X41437053Y-18601809D01*
X41484811Y-18569838D01*
X41484816Y-18569834D01*
X41490483Y-18566040D01*
X41618517Y-18432528D01*
X41635374Y-18404913D01*
X41711334Y-18280469D01*
X41714894Y-18274637D01*
X41756376Y-18154164D01*
X41772895Y-18106191D01*
X41772896Y-18106188D01*
X41775118Y-18099734D01*
X41778276Y-18072445D01*
X41795975Y-17919471D01*
X41795975Y-17919470D01*
X41796379Y-17915979D01*
X41796400Y-17910000D01*
X41795258Y-17899481D01*
X41784939Y-17804502D01*
X41776422Y-17726101D01*
X41733985Y-17600000D01*
X41719597Y-17557246D01*
X41719596Y-17557244D01*
X41717421Y-17550781D01*
X41645325Y-17430793D01*
X45709874Y-17430793D01*
X45710231Y-17437610D01*
X45710231Y-17437614D01*
X45712349Y-17478016D01*
X45719839Y-17620935D01*
X45721650Y-17627509D01*
X45721650Y-17627510D01*
X45764939Y-17784667D01*
X45770402Y-17804502D01*
X45859203Y-17972929D01*
X45863605Y-17978138D01*
X45863607Y-17978141D01*
X45925447Y-18051318D01*
X45982100Y-18118357D01*
X46133359Y-18234004D01*
X46250487Y-18288621D01*
X46291821Y-18307895D01*
X46305923Y-18314471D01*
X46312580Y-18315959D01*
X46486697Y-18354879D01*
X46486700Y-18354879D01*
X46491740Y-18356006D01*
X46496904Y-18356295D01*
X46496906Y-18356295D01*
X46497609Y-18356334D01*
X46500575Y-18356500D01*
X46636027Y-18356500D01*
X46640575Y-18356006D01*
X46728080Y-18346500D01*
X46779289Y-18340937D01*
X46959747Y-18280206D01*
X46969016Y-18274637D01*
X47102736Y-18194289D01*
X47122954Y-18182141D01*
X47261296Y-18051318D01*
X47353272Y-17915979D01*
X47364484Y-17899481D01*
X47364485Y-17899479D01*
X47368318Y-17893839D01*
X47388389Y-17843660D01*
X47436492Y-17723394D01*
X47436493Y-17723392D01*
X47439028Y-17717053D01*
X47460890Y-17584997D01*
X47469011Y-17535945D01*
X47469011Y-17535941D01*
X47470126Y-17529207D01*
X47469745Y-17521923D01*
X47460518Y-17345878D01*
X47460161Y-17339065D01*
X47441113Y-17269913D01*
X47411410Y-17162076D01*
X47411410Y-17162075D01*
X47409598Y-17155498D01*
X47320797Y-16987071D01*
X47316395Y-16981862D01*
X47316393Y-16981859D01*
X47202305Y-16846856D01*
X47197900Y-16841643D01*
X47186778Y-16833139D01*
X47116092Y-16779096D01*
X47046641Y-16725996D01*
X46874077Y-16645529D01*
X46802645Y-16629562D01*
X46693303Y-16605121D01*
X46693300Y-16605121D01*
X46688260Y-16603994D01*
X46683096Y-16603705D01*
X46683094Y-16603705D01*
X46682391Y-16603666D01*
X46679425Y-16603500D01*
X46543973Y-16603500D01*
X46540576Y-16603869D01*
X46529051Y-16605121D01*
X46400711Y-16619063D01*
X46220253Y-16679794D01*
X46214403Y-16683309D01*
X46214401Y-16683310D01*
X46181853Y-16702867D01*
X46057046Y-16777859D01*
X45918704Y-16908682D01*
X45914869Y-16914325D01*
X45815785Y-17060124D01*
X45811682Y-17066161D01*
X45809150Y-17072490D01*
X45809149Y-17072493D01*
X45754156Y-17209985D01*
X45740972Y-17242947D01*
X45734455Y-17282314D01*
X45712108Y-17417300D01*
X45709874Y-17430793D01*
X41645325Y-17430793D01*
X41622148Y-17392221D01*
X41508043Y-17271558D01*
X41475772Y-17208321D01*
X41482812Y-17137674D01*
X41526929Y-17082049D01*
X41594116Y-17059105D01*
X41617525Y-17060269D01*
X41635544Y-17062860D01*
X41635553Y-17062861D01*
X41640000Y-17063500D01*
X42240000Y-17063500D01*
X42313079Y-17058273D01*
X42399672Y-17032847D01*
X42470668Y-17032847D01*
X42486734Y-17038839D01*
X42487131Y-17038956D01*
X42495330Y-17042700D01*
X42504247Y-17043982D01*
X42635552Y-17062861D01*
X42635559Y-17062862D01*
X42640000Y-17063500D01*
X43240000Y-17063500D01*
X43313079Y-17058273D01*
X43400398Y-17032634D01*
X43471393Y-17032634D01*
X43486263Y-17038180D01*
X43504388Y-17043502D01*
X43635554Y-17062361D01*
X43644495Y-17063000D01*
X43667885Y-17063000D01*
X43683124Y-17058525D01*
X43684329Y-17057135D01*
X43686000Y-17049452D01*
X43686000Y-16824337D01*
X43697387Y-16771994D01*
X43728957Y-16702867D01*
X43728958Y-16702864D01*
X43732700Y-16694670D01*
X43742993Y-16623079D01*
X43752861Y-16554448D01*
X43752862Y-16554441D01*
X43753500Y-16550000D01*
X43753500Y-16417548D01*
X44194000Y-16417548D01*
X44194000Y-17044885D01*
X44198475Y-17060124D01*
X44199865Y-17061329D01*
X44207548Y-17063000D01*
X44237743Y-17063000D01*
X44242250Y-17062839D01*
X44306269Y-17058260D01*
X44319491Y-17055874D01*
X44444458Y-17019181D01*
X44460692Y-17011767D01*
X44568360Y-16942574D01*
X44581847Y-16930888D01*
X44665662Y-16834160D01*
X44675307Y-16819152D01*
X44728477Y-16702725D01*
X44733502Y-16685612D01*
X44752361Y-16554446D01*
X44753000Y-16545503D01*
X44753000Y-16422115D01*
X44748525Y-16406876D01*
X44747135Y-16405671D01*
X44739452Y-16404000D01*
X44212115Y-16404000D01*
X44196876Y-16408475D01*
X44195671Y-16409865D01*
X44194000Y-16417548D01*
X43753500Y-16417548D01*
X43753500Y-16137507D01*
X43773502Y-16069386D01*
X43827158Y-16022893D01*
X43879539Y-16011507D01*
X47804040Y-16012751D01*
X47872154Y-16032775D01*
X47918630Y-16086445D01*
X47930000Y-16138751D01*
X47930000Y-18220500D01*
X47909998Y-18288621D01*
X47856342Y-18335114D01*
X47804000Y-18346500D01*
X47540000Y-18346500D01*
X47466921Y-18351727D01*
X47413884Y-18367300D01*
X47335330Y-18390365D01*
X47335328Y-18390366D01*
X47326684Y-18392904D01*
X47288528Y-18417426D01*
X47211309Y-18467051D01*
X47211306Y-18467053D01*
X47203729Y-18471923D01*
X47197828Y-18478733D01*
X47113918Y-18575569D01*
X47113916Y-18575572D01*
X47108016Y-18582381D01*
X47104272Y-18590579D01*
X47090904Y-18619852D01*
X47047300Y-18715330D01*
X47046018Y-18724245D01*
X47046018Y-18724246D01*
X47027139Y-18855552D01*
X47027138Y-18855559D01*
X47026500Y-18860000D01*
X47026500Y-19460000D01*
X47031727Y-19533079D01*
X47057108Y-19619518D01*
X47057153Y-19619672D01*
X47057153Y-19690668D01*
X47051161Y-19706734D01*
X47051044Y-19707131D01*
X47047300Y-19715330D01*
X47046018Y-19724247D01*
X47027139Y-19855552D01*
X47027138Y-19855559D01*
X47026500Y-19860000D01*
X47026500Y-20460000D01*
X47031727Y-20533079D01*
X47057153Y-20619672D01*
X47057153Y-20690668D01*
X47051161Y-20706734D01*
X47051044Y-20707131D01*
X47047300Y-20715330D01*
X47046018Y-20724247D01*
X47027139Y-20855552D01*
X47027138Y-20855559D01*
X47026500Y-20860000D01*
X47026500Y-21460000D01*
X47031727Y-21533079D01*
X47057153Y-21619672D01*
X47057153Y-21690668D01*
X47051161Y-21706734D01*
X47051044Y-21707131D01*
X47047300Y-21715330D01*
X47046018Y-21724247D01*
X47027139Y-21855552D01*
X47027138Y-21855559D01*
X47026500Y-21860000D01*
X47026500Y-22460000D01*
X47031727Y-22533079D01*
X47054937Y-22612126D01*
X47057153Y-22619672D01*
X47057153Y-22690668D01*
X47051161Y-22706734D01*
X47051044Y-22707131D01*
X47047300Y-22715330D01*
X47046018Y-22724247D01*
X47027139Y-22855552D01*
X47027138Y-22855559D01*
X47026500Y-22860000D01*
X47026500Y-23460000D01*
X47031727Y-23533079D01*
X47050949Y-23598544D01*
X47057153Y-23619672D01*
X47057153Y-23690668D01*
X47051161Y-23706734D01*
X47051044Y-23707131D01*
X47047300Y-23715330D01*
X47046018Y-23724247D01*
X47027139Y-23855552D01*
X47027138Y-23855559D01*
X47026500Y-23860000D01*
X47026500Y-24460000D01*
X47031727Y-24533079D01*
X47040964Y-24564538D01*
X47057153Y-24619672D01*
X47057153Y-24690668D01*
X47051161Y-24706734D01*
X47051044Y-24707131D01*
X47047300Y-24715330D01*
X47046018Y-24724247D01*
X47027139Y-24855552D01*
X47027138Y-24855559D01*
X47026500Y-24860000D01*
X47026500Y-25460000D01*
X47031727Y-25533079D01*
X47049307Y-25592951D01*
X47057153Y-25619672D01*
X47057153Y-25690668D01*
X47051161Y-25706734D01*
X47051044Y-25707131D01*
X47047300Y-25715330D01*
X47046018Y-25724247D01*
X47027139Y-25855552D01*
X47027138Y-25855559D01*
X47026500Y-25860000D01*
X47026500Y-26460000D01*
X47031727Y-26533079D01*
X47050361Y-26596540D01*
X47057153Y-26619672D01*
X47057153Y-26690668D01*
X47051161Y-26706734D01*
X47051044Y-26707131D01*
X47047300Y-26715330D01*
X47046018Y-26724247D01*
X47027139Y-26855552D01*
X47027138Y-26855559D01*
X47026500Y-26860000D01*
X47026500Y-27460000D01*
X47031727Y-27533079D01*
X47057253Y-27620012D01*
X47057366Y-27620397D01*
X47057366Y-27691393D01*
X47051820Y-27706263D01*
X47046498Y-27724388D01*
X47027639Y-27855554D01*
X47027000Y-27864495D01*
X47027000Y-27887885D01*
X47031475Y-27903124D01*
X47032865Y-27904329D01*
X47040548Y-27906000D01*
X47265663Y-27906000D01*
X47318006Y-27917387D01*
X47387133Y-27948957D01*
X47387136Y-27948958D01*
X47395330Y-27952700D01*
X47404247Y-27953982D01*
X47535552Y-27972861D01*
X47535559Y-27972862D01*
X47540000Y-27973500D01*
X47930000Y-27973500D01*
X47930000Y-28346500D01*
X47540000Y-28346500D01*
X47466921Y-28351727D01*
X47413884Y-28367300D01*
X47335330Y-28390365D01*
X47335328Y-28390366D01*
X47326684Y-28392904D01*
X47319105Y-28397775D01*
X47310904Y-28401520D01*
X47309539Y-28398530D01*
X47256861Y-28414000D01*
X47045115Y-28414000D01*
X47029876Y-28418475D01*
X47028671Y-28419865D01*
X47027000Y-28427548D01*
X47027000Y-28457743D01*
X47027161Y-28462250D01*
X47031740Y-28526269D01*
X47034125Y-28539488D01*
X47057467Y-28618983D01*
X47057467Y-28689980D01*
X47051182Y-28706829D01*
X47047300Y-28715330D01*
X47046018Y-28724245D01*
X47046018Y-28724246D01*
X47027139Y-28855552D01*
X47027138Y-28855559D01*
X47026500Y-28860000D01*
X47026500Y-29460000D01*
X47031727Y-29533079D01*
X47033631Y-29539562D01*
X47057153Y-29619672D01*
X47057153Y-29690668D01*
X47051161Y-29706734D01*
X47051044Y-29707131D01*
X47047300Y-29715330D01*
X47046018Y-29724247D01*
X47027139Y-29855552D01*
X47027138Y-29855559D01*
X47026500Y-29860000D01*
X47026500Y-30460000D01*
X47031727Y-30533079D01*
X47052623Y-30604244D01*
X47057153Y-30619672D01*
X47057153Y-30690668D01*
X47051161Y-30706734D01*
X47051044Y-30707131D01*
X47047300Y-30715330D01*
X47046018Y-30724247D01*
X47027139Y-30855552D01*
X47027138Y-30855559D01*
X47026500Y-30860000D01*
X47026500Y-31460000D01*
X47031727Y-31533079D01*
X47057000Y-31619152D01*
X47057153Y-31619672D01*
X47057153Y-31690668D01*
X47051161Y-31706734D01*
X47051044Y-31707131D01*
X47047300Y-31715330D01*
X47046018Y-31724247D01*
X47027139Y-31855552D01*
X47027138Y-31855559D01*
X47026500Y-31860000D01*
X47026500Y-32460000D01*
X47031727Y-32533079D01*
X47052748Y-32604670D01*
X47057153Y-32619672D01*
X47057153Y-32690668D01*
X47051161Y-32706734D01*
X47051044Y-32707131D01*
X47047300Y-32715330D01*
X47046018Y-32724247D01*
X47027139Y-32855552D01*
X47027138Y-32855559D01*
X47026500Y-32860000D01*
X47026500Y-33460000D01*
X47031727Y-33533079D01*
X47046682Y-33584012D01*
X47057153Y-33619672D01*
X47057153Y-33690668D01*
X47051161Y-33706734D01*
X47051044Y-33707131D01*
X47047300Y-33715330D01*
X47046018Y-33724247D01*
X47027139Y-33855552D01*
X47027138Y-33855559D01*
X47026500Y-33860000D01*
X47026500Y-34460000D01*
X47031727Y-34533079D01*
X47057153Y-34619672D01*
X47057153Y-34690668D01*
X47051161Y-34706734D01*
X47051044Y-34707131D01*
X47047300Y-34715330D01*
X47046018Y-34724247D01*
X47027139Y-34855552D01*
X47027138Y-34855559D01*
X47026500Y-34860000D01*
X47026500Y-35460000D01*
X47031727Y-35533079D01*
X47033631Y-35539562D01*
X47057153Y-35619672D01*
X47057153Y-35690668D01*
X47051161Y-35706734D01*
X47051044Y-35707131D01*
X47047300Y-35715330D01*
X47046018Y-35724247D01*
X47027139Y-35855552D01*
X47027138Y-35855559D01*
X47026500Y-35860000D01*
X47026500Y-36460000D01*
X47031727Y-36533079D01*
X47033631Y-36539562D01*
X47057153Y-36619672D01*
X47057153Y-36690668D01*
X47051161Y-36706734D01*
X47051044Y-36707131D01*
X47047300Y-36715330D01*
X47046018Y-36724247D01*
X47027139Y-36855552D01*
X47027138Y-36855559D01*
X47026500Y-36860000D01*
X47026500Y-37460000D01*
X47031727Y-37533079D01*
X47033631Y-37539562D01*
X47057153Y-37619672D01*
X47057153Y-37690668D01*
X47051161Y-37706734D01*
X47051044Y-37707131D01*
X47047300Y-37715330D01*
X47046018Y-37724247D01*
X47027139Y-37855552D01*
X47027138Y-37855559D01*
X47026500Y-37860000D01*
X47026500Y-38460000D01*
X47031727Y-38533079D01*
X47072904Y-38673316D01*
X47077775Y-38680895D01*
X47147051Y-38788691D01*
X47147053Y-38788694D01*
X47151923Y-38796271D01*
X47158733Y-38802172D01*
X47255569Y-38886082D01*
X47255572Y-38886084D01*
X47262381Y-38891984D01*
X47395330Y-38952700D01*
X47404245Y-38953982D01*
X47404246Y-38953982D01*
X47535552Y-38972861D01*
X47535559Y-38972862D01*
X47540000Y-38973500D01*
X47804000Y-38973500D01*
X47872121Y-38993502D01*
X47918614Y-39047158D01*
X47930000Y-39099500D01*
X47930000Y-41266000D01*
X47909998Y-41334121D01*
X47856342Y-41380614D01*
X47804000Y-41392000D01*
X43889500Y-41392000D01*
X43821379Y-41371998D01*
X43774886Y-41318342D01*
X43763500Y-41266000D01*
X43763500Y-40760000D01*
X43758273Y-40686921D01*
X43717096Y-40546684D01*
X43712225Y-40539105D01*
X43708480Y-40530904D01*
X43711470Y-40529539D01*
X43696000Y-40476861D01*
X43696000Y-40265115D01*
X43694659Y-40260548D01*
X44204000Y-40260548D01*
X44204000Y-40887885D01*
X44208475Y-40903124D01*
X44209865Y-40904329D01*
X44217548Y-40906000D01*
X44744885Y-40906000D01*
X44760124Y-40901525D01*
X44761329Y-40900135D01*
X44763000Y-40892452D01*
X44763000Y-40762257D01*
X44762839Y-40757750D01*
X44758260Y-40693731D01*
X44755874Y-40680509D01*
X44719181Y-40555542D01*
X44711767Y-40539308D01*
X44642574Y-40431640D01*
X44630888Y-40418153D01*
X44534160Y-40334338D01*
X44519152Y-40324693D01*
X44402725Y-40271523D01*
X44385612Y-40266498D01*
X44254446Y-40247639D01*
X44245505Y-40247000D01*
X44222115Y-40247000D01*
X44206876Y-40251475D01*
X44205671Y-40252865D01*
X44204000Y-40260548D01*
X43694659Y-40260548D01*
X43691525Y-40249876D01*
X43690135Y-40248671D01*
X43682452Y-40247000D01*
X43652257Y-40247000D01*
X43647750Y-40247161D01*
X43583731Y-40251740D01*
X43570512Y-40254125D01*
X43491017Y-40277467D01*
X43420020Y-40277467D01*
X43403171Y-40271182D01*
X43402866Y-40271043D01*
X43394670Y-40267300D01*
X43385755Y-40266018D01*
X43385754Y-40266018D01*
X43254448Y-40247139D01*
X43254441Y-40247138D01*
X43250000Y-40246500D01*
X42650000Y-40246500D01*
X42576921Y-40251727D01*
X42490328Y-40277153D01*
X42419332Y-40277153D01*
X42403266Y-40271161D01*
X42402869Y-40271044D01*
X42394670Y-40267300D01*
X42374947Y-40264464D01*
X42254448Y-40247139D01*
X42254441Y-40247138D01*
X42250000Y-40246500D01*
X41650000Y-40246500D01*
X41576921Y-40251727D01*
X41490328Y-40277153D01*
X41419332Y-40277153D01*
X41403266Y-40271161D01*
X41402869Y-40271044D01*
X41394670Y-40267300D01*
X41374947Y-40264464D01*
X41254448Y-40247139D01*
X41254441Y-40247138D01*
X41250000Y-40246500D01*
X40650000Y-40246500D01*
X40576921Y-40251727D01*
X40490328Y-40277153D01*
X40419332Y-40277153D01*
X40403266Y-40271161D01*
X40402869Y-40271044D01*
X40394670Y-40267300D01*
X40374947Y-40264464D01*
X40254448Y-40247139D01*
X40254441Y-40247138D01*
X40250000Y-40246500D01*
X39650000Y-40246500D01*
X39576921Y-40251727D01*
X39490328Y-40277153D01*
X39419332Y-40277153D01*
X39403266Y-40271161D01*
X39402869Y-40271044D01*
X39394670Y-40267300D01*
X39374947Y-40264464D01*
X39254448Y-40247139D01*
X39254441Y-40247138D01*
X39250000Y-40246500D01*
X38650000Y-40246500D01*
X38576921Y-40251727D01*
X38490328Y-40277153D01*
X38419332Y-40277153D01*
X38403266Y-40271161D01*
X38402869Y-40271044D01*
X38394670Y-40267300D01*
X38374947Y-40264464D01*
X38254448Y-40247139D01*
X38254441Y-40247138D01*
X38250000Y-40246500D01*
X37650000Y-40246500D01*
X37576921Y-40251727D01*
X37490328Y-40277153D01*
X37419332Y-40277153D01*
X37403266Y-40271161D01*
X37402869Y-40271044D01*
X37394670Y-40267300D01*
X37374947Y-40264464D01*
X37254448Y-40247139D01*
X37254441Y-40247138D01*
X37250000Y-40246500D01*
X36650000Y-40246500D01*
X36576921Y-40251727D01*
X36490328Y-40277153D01*
X36419332Y-40277153D01*
X36403266Y-40271161D01*
X36402869Y-40271044D01*
X36394670Y-40267300D01*
X36374947Y-40264464D01*
X36254448Y-40247139D01*
X36254441Y-40247138D01*
X36250000Y-40246500D01*
X35650000Y-40246500D01*
X35576921Y-40251727D01*
X35490328Y-40277153D01*
X35419332Y-40277153D01*
X35403266Y-40271161D01*
X35402869Y-40271044D01*
X35394670Y-40267300D01*
X35374947Y-40264464D01*
X35254448Y-40247139D01*
X35254441Y-40247138D01*
X35250000Y-40246500D01*
X34650000Y-40246500D01*
X34576921Y-40251727D01*
X34490328Y-40277153D01*
X34419332Y-40277153D01*
X34403266Y-40271161D01*
X34402869Y-40271044D01*
X34394670Y-40267300D01*
X34374947Y-40264464D01*
X34254448Y-40247139D01*
X34254441Y-40247138D01*
X34250000Y-40246500D01*
X33650000Y-40246500D01*
X33576921Y-40251727D01*
X33490328Y-40277153D01*
X33419332Y-40277153D01*
X33403266Y-40271161D01*
X33402869Y-40271044D01*
X33394670Y-40267300D01*
X33374947Y-40264464D01*
X33254448Y-40247139D01*
X33254441Y-40247138D01*
X33250000Y-40246500D01*
X32650000Y-40246500D01*
X32576921Y-40251727D01*
X32490328Y-40277153D01*
X32419332Y-40277153D01*
X32403266Y-40271161D01*
X32402869Y-40271044D01*
X32394670Y-40267300D01*
X32374947Y-40264464D01*
X32254448Y-40247139D01*
X32254441Y-40247138D01*
X32250000Y-40246500D01*
X31894011Y-40246500D01*
X31825890Y-40226498D01*
X31779397Y-40172842D01*
X31769293Y-40102568D01*
X31774874Y-40079483D01*
X31785118Y-40049734D01*
X31797504Y-39942689D01*
X31805975Y-39869471D01*
X31805975Y-39869470D01*
X31806379Y-39865979D01*
X31806400Y-39860000D01*
X31786422Y-39676101D01*
X31727421Y-39500781D01*
X31632148Y-39342221D01*
X31505050Y-39207819D01*
X31419990Y-39150012D01*
X31357698Y-39107679D01*
X31352055Y-39103844D01*
X31345725Y-39101312D01*
X31345721Y-39101310D01*
X31186641Y-39037683D01*
X31180303Y-39035148D01*
X31173573Y-39034034D01*
X31173570Y-39034033D01*
X31004543Y-39006050D01*
X31004540Y-39006050D01*
X30997806Y-39004935D01*
X30990990Y-39005292D01*
X30990986Y-39005292D01*
X30870426Y-39011611D01*
X30813078Y-39014617D01*
X30806500Y-39016429D01*
X30806499Y-39016429D01*
X30641315Y-39061927D01*
X30641311Y-39061928D01*
X30634738Y-39063739D01*
X30628707Y-39066919D01*
X30628704Y-39066920D01*
X30570051Y-39097845D01*
X30471107Y-39150012D01*
X30465894Y-39154417D01*
X30465890Y-39154420D01*
X30335033Y-39265003D01*
X30335029Y-39265007D01*
X30329819Y-39269410D01*
X30325672Y-39274833D01*
X30325671Y-39274835D01*
X30221610Y-39410941D01*
X30221607Y-39410945D01*
X30217466Y-39416362D01*
X30139290Y-39584012D01*
X30098937Y-39764538D01*
X30098291Y-39949518D01*
X30099734Y-39956191D01*
X30099734Y-39956193D01*
X30126390Y-40079477D01*
X30137383Y-40130322D01*
X30140224Y-40136527D01*
X30192564Y-40250848D01*
X30204000Y-40303299D01*
X30204000Y-40485663D01*
X30192613Y-40538005D01*
X30157300Y-40615330D01*
X30156018Y-40624247D01*
X30137139Y-40755552D01*
X30137139Y-40755554D01*
X30136500Y-40760000D01*
X30136500Y-41266000D01*
X30116498Y-41334121D01*
X30062842Y-41380614D01*
X30010500Y-41392000D01*
X29889500Y-41392000D01*
X29821379Y-41371998D01*
X29774886Y-41318342D01*
X29763500Y-41266000D01*
X29763500Y-40760000D01*
X29758273Y-40686921D01*
X29717096Y-40546684D01*
X29712225Y-40539105D01*
X29708480Y-40530904D01*
X29711470Y-40529539D01*
X29696000Y-40476861D01*
X29696000Y-40265115D01*
X29691525Y-40249876D01*
X29690135Y-40248671D01*
X29682452Y-40247000D01*
X29652257Y-40247000D01*
X29647750Y-40247161D01*
X29583731Y-40251740D01*
X29570512Y-40254125D01*
X29491017Y-40277467D01*
X29420020Y-40277467D01*
X29403171Y-40271182D01*
X29402866Y-40271043D01*
X29394670Y-40267300D01*
X29385755Y-40266018D01*
X29385754Y-40266018D01*
X29254448Y-40247139D01*
X29254441Y-40247138D01*
X29250000Y-40246500D01*
X28650000Y-40246500D01*
X28576921Y-40251727D01*
X28490328Y-40277153D01*
X28419332Y-40277153D01*
X28403266Y-40271161D01*
X28402869Y-40271044D01*
X28394670Y-40267300D01*
X28374947Y-40264464D01*
X28254448Y-40247139D01*
X28254441Y-40247138D01*
X28250000Y-40246500D01*
X27650000Y-40246500D01*
X27576921Y-40251727D01*
X27490328Y-40277153D01*
X27419332Y-40277153D01*
X27403266Y-40271161D01*
X27402869Y-40271044D01*
X27394670Y-40267300D01*
X27374947Y-40264464D01*
X27254448Y-40247139D01*
X27254441Y-40247138D01*
X27250000Y-40246500D01*
X26650000Y-40246500D01*
X26576921Y-40251727D01*
X26490328Y-40277153D01*
X26419332Y-40277153D01*
X26403266Y-40271161D01*
X26402869Y-40271044D01*
X26394670Y-40267300D01*
X26374947Y-40264464D01*
X26254448Y-40247139D01*
X26254441Y-40247138D01*
X26250000Y-40246500D01*
X25650000Y-40246500D01*
X25576921Y-40251727D01*
X25489602Y-40277366D01*
X25418607Y-40277366D01*
X25403737Y-40271820D01*
X25385612Y-40266498D01*
X25254446Y-40247639D01*
X25245505Y-40247000D01*
X25222115Y-40247000D01*
X25206876Y-40251475D01*
X25205671Y-40252865D01*
X25204000Y-40260548D01*
X25204000Y-40485663D01*
X25192613Y-40538005D01*
X25157300Y-40615330D01*
X25156018Y-40624247D01*
X25137139Y-40755552D01*
X25137139Y-40755554D01*
X25136500Y-40760000D01*
X25136500Y-41266000D01*
X25116498Y-41334121D01*
X25062842Y-41380614D01*
X25010500Y-41392000D01*
X23476000Y-41392000D01*
X23407879Y-41371998D01*
X23361386Y-41318342D01*
X23350000Y-41266000D01*
X23350000Y-40764495D01*
X24137000Y-40764495D01*
X24137000Y-40887885D01*
X24141475Y-40903124D01*
X24142865Y-40904329D01*
X24150548Y-40906000D01*
X24677885Y-40906000D01*
X24693124Y-40901525D01*
X24694329Y-40900135D01*
X24696000Y-40892452D01*
X24696000Y-40265115D01*
X24691525Y-40249876D01*
X24690135Y-40248671D01*
X24682452Y-40247000D01*
X24652257Y-40247000D01*
X24647750Y-40247161D01*
X24583731Y-40251740D01*
X24570509Y-40254126D01*
X24445542Y-40290819D01*
X24429308Y-40298233D01*
X24321640Y-40367426D01*
X24308153Y-40379112D01*
X24224338Y-40475840D01*
X24214693Y-40490848D01*
X24161523Y-40607275D01*
X24156498Y-40624388D01*
X24137639Y-40755554D01*
X24137000Y-40764495D01*
X23350000Y-40764495D01*
X23350000Y-34742528D01*
X36256539Y-34742528D01*
X36275351Y-34912928D01*
X36334267Y-35073922D01*
X36429884Y-35216216D01*
X36435503Y-35221329D01*
X36435504Y-35221330D01*
X36453697Y-35237884D01*
X36556683Y-35331594D01*
X36563356Y-35335217D01*
X36700666Y-35409771D01*
X36700668Y-35409772D01*
X36707343Y-35413396D01*
X36714692Y-35415324D01*
X36865817Y-35454971D01*
X36865819Y-35454971D01*
X36873167Y-35456899D01*
X36960639Y-35458273D01*
X37036982Y-35459472D01*
X37036985Y-35459472D01*
X37044581Y-35459591D01*
X37051985Y-35457895D01*
X37051987Y-35457895D01*
X37114789Y-35443511D01*
X37211690Y-35421318D01*
X37364845Y-35344289D01*
X37495205Y-35232951D01*
X37595245Y-35093731D01*
X37659188Y-34934667D01*
X37683344Y-34764942D01*
X37683500Y-34750000D01*
X37681685Y-34734997D01*
X37663816Y-34587346D01*
X37662904Y-34579806D01*
X37602306Y-34419438D01*
X37572935Y-34376703D01*
X37509506Y-34284413D01*
X37509505Y-34284411D01*
X37505204Y-34278154D01*
X37499533Y-34273101D01*
X37382877Y-34169164D01*
X37382875Y-34169162D01*
X37377204Y-34164110D01*
X37370495Y-34160558D01*
X37370491Y-34160555D01*
X37232411Y-34087445D01*
X37232408Y-34087444D01*
X37225696Y-34083890D01*
X37115421Y-34056191D01*
X37066795Y-34043977D01*
X37066793Y-34043977D01*
X37059425Y-34042126D01*
X37051827Y-34042086D01*
X37051825Y-34042086D01*
X36977841Y-34041699D01*
X36887992Y-34041229D01*
X36880613Y-34043001D01*
X36880609Y-34043001D01*
X36728673Y-34079477D01*
X36728669Y-34079478D01*
X36721294Y-34081249D01*
X36568954Y-34159878D01*
X36439766Y-34272575D01*
X36341190Y-34412835D01*
X36278916Y-34572560D01*
X36277925Y-34580087D01*
X36258946Y-34724247D01*
X36256539Y-34742528D01*
X23350000Y-34742528D01*
X23350000Y-33949518D01*
X27598291Y-33949518D01*
X27599734Y-33956191D01*
X27599734Y-33956193D01*
X27627344Y-34083890D01*
X27637383Y-34130322D01*
X27640224Y-34136527D01*
X27705066Y-34278154D01*
X27714387Y-34298514D01*
X27718491Y-34303960D01*
X27718492Y-34303962D01*
X27795850Y-34406619D01*
X27825711Y-34446246D01*
X27830890Y-34450685D01*
X27830891Y-34450686D01*
X27934585Y-34539562D01*
X27966162Y-34566627D01*
X27977494Y-34572703D01*
X28123170Y-34650814D01*
X28123172Y-34650815D01*
X28129187Y-34654040D01*
X28135755Y-34655899D01*
X28135756Y-34655899D01*
X28234893Y-34683952D01*
X28307179Y-34704407D01*
X28313987Y-34704811D01*
X28313990Y-34704812D01*
X28466958Y-34713900D01*
X28491835Y-34715378D01*
X28572833Y-34702549D01*
X28667805Y-34687507D01*
X28667809Y-34687506D01*
X28674539Y-34686440D01*
X28680885Y-34683953D01*
X28680889Y-34683952D01*
X28840412Y-34621436D01*
X28840416Y-34621434D01*
X28846767Y-34618945D01*
X28915842Y-34572703D01*
X28994815Y-34519835D01*
X28994818Y-34519832D01*
X29000483Y-34516040D01*
X29128517Y-34382528D01*
X29224894Y-34224637D01*
X29273357Y-34083890D01*
X29282895Y-34056191D01*
X29282896Y-34056188D01*
X29285118Y-34049734D01*
X29286098Y-34041269D01*
X29305975Y-33869471D01*
X29305975Y-33869470D01*
X29306379Y-33865979D01*
X29306400Y-33860000D01*
X29286422Y-33676101D01*
X29240472Y-33539562D01*
X29229597Y-33507246D01*
X29229596Y-33507244D01*
X29227421Y-33500781D01*
X29132148Y-33342221D01*
X29117402Y-33326627D01*
X29037484Y-33242117D01*
X29005050Y-33207819D01*
X28997967Y-33203005D01*
X28857698Y-33107679D01*
X28852055Y-33103844D01*
X28845725Y-33101312D01*
X28845721Y-33101310D01*
X28686641Y-33037683D01*
X28680303Y-33035148D01*
X28673573Y-33034034D01*
X28673570Y-33034033D01*
X28504543Y-33006050D01*
X28504540Y-33006050D01*
X28497806Y-33004935D01*
X28490990Y-33005292D01*
X28490986Y-33005292D01*
X28370426Y-33011611D01*
X28313078Y-33014617D01*
X28306500Y-33016429D01*
X28306499Y-33016429D01*
X28141315Y-33061927D01*
X28141311Y-33061928D01*
X28134738Y-33063739D01*
X28128707Y-33066919D01*
X28128704Y-33066920D01*
X28070051Y-33097845D01*
X27971107Y-33150012D01*
X27965894Y-33154417D01*
X27965890Y-33154420D01*
X27835033Y-33265003D01*
X27835029Y-33265007D01*
X27829819Y-33269410D01*
X27825672Y-33274833D01*
X27825671Y-33274835D01*
X27721610Y-33410941D01*
X27721607Y-33410945D01*
X27717466Y-33416362D01*
X27639290Y-33584012D01*
X27598937Y-33764538D01*
X27598291Y-33949518D01*
X23350000Y-33949518D01*
X23350000Y-31502528D01*
X33663539Y-31502528D01*
X33682351Y-31672928D01*
X33701131Y-31724247D01*
X33737541Y-31823739D01*
X33741267Y-31833922D01*
X33745503Y-31840225D01*
X33745503Y-31840226D01*
X33760774Y-31862951D01*
X33836884Y-31976216D01*
X33842503Y-31981329D01*
X33842504Y-31981330D01*
X33888361Y-32023057D01*
X33925283Y-32083697D01*
X33923560Y-32154673D01*
X33906648Y-32188700D01*
X33904530Y-32191713D01*
X33904526Y-32191720D01*
X33900159Y-32197934D01*
X33837885Y-32357659D01*
X33836894Y-32365186D01*
X33824709Y-32457743D01*
X33815508Y-32527627D01*
X33834320Y-32698027D01*
X33893236Y-32859021D01*
X33897472Y-32865324D01*
X33897472Y-32865325D01*
X33973306Y-32978178D01*
X33988853Y-33001315D01*
X33994472Y-33006428D01*
X33994473Y-33006429D01*
X34026035Y-33035148D01*
X34115652Y-33116693D01*
X34122325Y-33120316D01*
X34259635Y-33194870D01*
X34259637Y-33194871D01*
X34266312Y-33198495D01*
X34273661Y-33200423D01*
X34424786Y-33240070D01*
X34424788Y-33240070D01*
X34432136Y-33241998D01*
X34519608Y-33243372D01*
X34595951Y-33244571D01*
X34595954Y-33244571D01*
X34603550Y-33244690D01*
X34610954Y-33242994D01*
X34610956Y-33242994D01*
X34673758Y-33228610D01*
X34770659Y-33206417D01*
X34923814Y-33129388D01*
X35054174Y-33018050D01*
X35082825Y-32978178D01*
X35149777Y-32885005D01*
X35149778Y-32885004D01*
X35154214Y-32878830D01*
X35218157Y-32719766D01*
X35219616Y-32709518D01*
X40658291Y-32709518D01*
X40659734Y-32716191D01*
X40659734Y-32716193D01*
X40693373Y-32871775D01*
X40697383Y-32890322D01*
X40774387Y-33058514D01*
X40778491Y-33063960D01*
X40778492Y-33063962D01*
X40843336Y-33150012D01*
X40885711Y-33206246D01*
X40890890Y-33210685D01*
X40890891Y-33210686D01*
X40959406Y-33269410D01*
X41026162Y-33326627D01*
X41045991Y-33337259D01*
X41183170Y-33410814D01*
X41183172Y-33410815D01*
X41189187Y-33414040D01*
X41195755Y-33415899D01*
X41195756Y-33415899D01*
X41294893Y-33443952D01*
X41367179Y-33464407D01*
X41373987Y-33464811D01*
X41373990Y-33464812D01*
X41526958Y-33473900D01*
X41551835Y-33475378D01*
X41632833Y-33462549D01*
X41727805Y-33447507D01*
X41727809Y-33447506D01*
X41734539Y-33446440D01*
X41740885Y-33443953D01*
X41740889Y-33443952D01*
X41900412Y-33381436D01*
X41900416Y-33381434D01*
X41906767Y-33378945D01*
X41969036Y-33337259D01*
X42054815Y-33279835D01*
X42054818Y-33279832D01*
X42060483Y-33276040D01*
X42188517Y-33142528D01*
X42194455Y-33132801D01*
X42281334Y-32990469D01*
X42284894Y-32984637D01*
X42319667Y-32883650D01*
X42342895Y-32816191D01*
X42342896Y-32816188D01*
X42345118Y-32809734D01*
X42357036Y-32706734D01*
X42365975Y-32629471D01*
X42365975Y-32629470D01*
X42366379Y-32625979D01*
X42366400Y-32620000D01*
X42346422Y-32436101D01*
X42287421Y-32260781D01*
X42192148Y-32102221D01*
X42180205Y-32089591D01*
X42100426Y-32005228D01*
X42065050Y-31967819D01*
X41979990Y-31910012D01*
X41917698Y-31867679D01*
X41912055Y-31863844D01*
X41905725Y-31861312D01*
X41905721Y-31861310D01*
X41746641Y-31797683D01*
X41740303Y-31795148D01*
X41733573Y-31794034D01*
X41733570Y-31794033D01*
X41564543Y-31766050D01*
X41564540Y-31766050D01*
X41557806Y-31764935D01*
X41550990Y-31765292D01*
X41550986Y-31765292D01*
X41430426Y-31771611D01*
X41373078Y-31774617D01*
X41366500Y-31776429D01*
X41366499Y-31776429D01*
X41201315Y-31821927D01*
X41201311Y-31821928D01*
X41194738Y-31823739D01*
X41188707Y-31826919D01*
X41188704Y-31826920D01*
X41134399Y-31855552D01*
X41031107Y-31910012D01*
X41025894Y-31914417D01*
X41025890Y-31914420D01*
X40895033Y-32025003D01*
X40895029Y-32025007D01*
X40889819Y-32029410D01*
X40885672Y-32034833D01*
X40885671Y-32034835D01*
X40781610Y-32170941D01*
X40781607Y-32170945D01*
X40777466Y-32176362D01*
X40699290Y-32344012D01*
X40658937Y-32524538D01*
X40658913Y-32531367D01*
X40658913Y-32531368D01*
X40658862Y-32545919D01*
X40658291Y-32709518D01*
X35219616Y-32709518D01*
X35242313Y-32550041D01*
X35242469Y-32535099D01*
X35240654Y-32520096D01*
X35222785Y-32372445D01*
X35221873Y-32364905D01*
X35219190Y-32357806D01*
X35219189Y-32357800D01*
X35215856Y-32348980D01*
X35210489Y-32278187D01*
X35244249Y-32215730D01*
X35306415Y-32181440D01*
X35335699Y-32178461D01*
X35370377Y-32179006D01*
X35400033Y-32179472D01*
X35400036Y-32179472D01*
X35407631Y-32179591D01*
X35415035Y-32177895D01*
X35415037Y-32177895D01*
X35477839Y-32163511D01*
X35574740Y-32141318D01*
X35727895Y-32064289D01*
X35733674Y-32059353D01*
X35739996Y-32055153D01*
X35741070Y-32056769D01*
X35796660Y-32031855D01*
X35860095Y-32039545D01*
X35860669Y-32039772D01*
X35867343Y-32043396D01*
X35874687Y-32045323D01*
X35874688Y-32045323D01*
X36025817Y-32084971D01*
X36025819Y-32084971D01*
X36033167Y-32086899D01*
X36120639Y-32088273D01*
X36196982Y-32089472D01*
X36196985Y-32089472D01*
X36204581Y-32089591D01*
X36211985Y-32087895D01*
X36211987Y-32087895D01*
X36274789Y-32073511D01*
X36371690Y-32051318D01*
X36524845Y-31974289D01*
X36655205Y-31862951D01*
X36755245Y-31723731D01*
X36758078Y-31716684D01*
X36760571Y-31712149D01*
X36810916Y-31662090D01*
X36842854Y-31650030D01*
X36899090Y-31637151D01*
X36977677Y-31619152D01*
X36977678Y-31619152D01*
X36985077Y-31617457D01*
X37138232Y-31540428D01*
X37268592Y-31429090D01*
X37368632Y-31289870D01*
X37432575Y-31130806D01*
X37456731Y-30961081D01*
X37456887Y-30946139D01*
X37453605Y-30919013D01*
X37443979Y-30839477D01*
X37436291Y-30775945D01*
X37409170Y-30704172D01*
X37397423Y-30673084D01*
X37392055Y-30602291D01*
X37398381Y-30581551D01*
X37406355Y-30561714D01*
X37409188Y-30554667D01*
X37426026Y-30436359D01*
X37455427Y-30371737D01*
X37468943Y-30358299D01*
X37469428Y-30357885D01*
X37475205Y-30352951D01*
X37575245Y-30213731D01*
X37639188Y-30054667D01*
X37663344Y-29884942D01*
X37663500Y-29870000D01*
X37662429Y-29861144D01*
X37653446Y-29786921D01*
X37642904Y-29699806D01*
X37582306Y-29539438D01*
X37527710Y-29460000D01*
X37489506Y-29404413D01*
X37489505Y-29404411D01*
X37485204Y-29398154D01*
X37479533Y-29393101D01*
X37362877Y-29289164D01*
X37362875Y-29289162D01*
X37357204Y-29284110D01*
X37350492Y-29280556D01*
X37350491Y-29280555D01*
X37212411Y-29207445D01*
X37212408Y-29207444D01*
X37205696Y-29203890D01*
X37188127Y-29199477D01*
X37046795Y-29163977D01*
X37046793Y-29163977D01*
X37039425Y-29162126D01*
X37031827Y-29162086D01*
X37031825Y-29162086D01*
X36957841Y-29161699D01*
X36867992Y-29161229D01*
X36860613Y-29163001D01*
X36860609Y-29163001D01*
X36708673Y-29199477D01*
X36708669Y-29199478D01*
X36701294Y-29201249D01*
X36548954Y-29279878D01*
X36543230Y-29284871D01*
X36536949Y-29289140D01*
X36536193Y-29288028D01*
X36478958Y-29314399D01*
X36408650Y-29304531D01*
X36388701Y-29293209D01*
X36382875Y-29289160D01*
X36377207Y-29284110D01*
X36362636Y-29276395D01*
X36232414Y-29207445D01*
X36232411Y-29207444D01*
X36225699Y-29203890D01*
X36208130Y-29199477D01*
X36066798Y-29163977D01*
X36066796Y-29163977D01*
X36059428Y-29162126D01*
X36051830Y-29162086D01*
X36051828Y-29162086D01*
X35977844Y-29161699D01*
X35887995Y-29161229D01*
X35880616Y-29163001D01*
X35880612Y-29163001D01*
X35748263Y-29194775D01*
X35688154Y-29194460D01*
X35566795Y-29163977D01*
X35566793Y-29163977D01*
X35559425Y-29162126D01*
X35551827Y-29162086D01*
X35551825Y-29162086D01*
X35477841Y-29161699D01*
X35387992Y-29161229D01*
X35290037Y-29184746D01*
X35225774Y-29180531D01*
X35225246Y-29182633D01*
X35066345Y-29142720D01*
X35066343Y-29142720D01*
X35058975Y-29140869D01*
X35051377Y-29140829D01*
X35051375Y-29140829D01*
X34977391Y-29140442D01*
X34887542Y-29139972D01*
X34880163Y-29141744D01*
X34880159Y-29141744D01*
X34728233Y-29178218D01*
X34720844Y-29179992D01*
X34719994Y-29180431D01*
X34648063Y-29184390D01*
X34608195Y-29174376D01*
X34566795Y-29163977D01*
X34566794Y-29163977D01*
X34559425Y-29162126D01*
X34551827Y-29162086D01*
X34551825Y-29162086D01*
X34477841Y-29161699D01*
X34387992Y-29161229D01*
X34380613Y-29163001D01*
X34380609Y-29163001D01*
X34228673Y-29199477D01*
X34228669Y-29199478D01*
X34221294Y-29201249D01*
X34068954Y-29279878D01*
X34063232Y-29284870D01*
X34063230Y-29284871D01*
X34006067Y-29334737D01*
X33939766Y-29392575D01*
X33841190Y-29532835D01*
X33778916Y-29692560D01*
X33777925Y-29700087D01*
X33777443Y-29703752D01*
X33756539Y-29862528D01*
X33775351Y-30032928D01*
X33834267Y-30193922D01*
X33838503Y-30200225D01*
X33838503Y-30200226D01*
X33852883Y-30221625D01*
X33929884Y-30336216D01*
X33935503Y-30341329D01*
X33935504Y-30341330D01*
X33953698Y-30357885D01*
X34056683Y-30451594D01*
X34063356Y-30455217D01*
X34200666Y-30529771D01*
X34200668Y-30529772D01*
X34207343Y-30533396D01*
X34292140Y-30555642D01*
X34297099Y-30556943D01*
X34357914Y-30593577D01*
X34389269Y-30657274D01*
X34381210Y-30727812D01*
X34336294Y-30782795D01*
X34294538Y-30801338D01*
X34128294Y-30841249D01*
X33975954Y-30919878D01*
X33970232Y-30924870D01*
X33970230Y-30924871D01*
X33924046Y-30965160D01*
X33846766Y-31032575D01*
X33748190Y-31172835D01*
X33685916Y-31332560D01*
X33684925Y-31340087D01*
X33668842Y-31462250D01*
X33663539Y-31502528D01*
X23350000Y-31502528D01*
X23350000Y-26372528D01*
X27686539Y-26372528D01*
X27705351Y-26542928D01*
X27733436Y-26619672D01*
X27759417Y-26690668D01*
X27764267Y-26703922D01*
X27768503Y-26710225D01*
X27768503Y-26710226D01*
X27845820Y-26825286D01*
X27859884Y-26846216D01*
X27886001Y-26869980D01*
X27892641Y-26876022D01*
X27929564Y-26936662D01*
X27927841Y-27007637D01*
X27913887Y-27034346D01*
X27915144Y-27035107D01*
X27911611Y-27040941D01*
X27907466Y-27046362D01*
X27829290Y-27214012D01*
X27813883Y-27282937D01*
X27790493Y-27387579D01*
X27788937Y-27394538D01*
X27788913Y-27401367D01*
X27788913Y-27401368D01*
X27788629Y-27482610D01*
X27788291Y-27579518D01*
X27789734Y-27586191D01*
X27789734Y-27586193D01*
X27820545Y-27728694D01*
X27827383Y-27760322D01*
X27904387Y-27928514D01*
X27908491Y-27933960D01*
X27908492Y-27933962D01*
X27986797Y-28037875D01*
X28015711Y-28076246D01*
X28020890Y-28080685D01*
X28020891Y-28080686D01*
X28079384Y-28130820D01*
X28156162Y-28196627D01*
X28246364Y-28244993D01*
X28313170Y-28280814D01*
X28313172Y-28280815D01*
X28319187Y-28284040D01*
X28325755Y-28285899D01*
X28325756Y-28285899D01*
X28468551Y-28326306D01*
X28497179Y-28334407D01*
X28503987Y-28334811D01*
X28503990Y-28334812D01*
X28656958Y-28343900D01*
X28681835Y-28345378D01*
X28763009Y-28332521D01*
X28857805Y-28317507D01*
X28857809Y-28317506D01*
X28864539Y-28316440D01*
X28870885Y-28313953D01*
X28870889Y-28313952D01*
X29030412Y-28251436D01*
X29030416Y-28251434D01*
X29036767Y-28248945D01*
X29100194Y-28206484D01*
X29184815Y-28149835D01*
X29184818Y-28149832D01*
X29190483Y-28146040D01*
X29318517Y-28012528D01*
X29332746Y-27989217D01*
X29385307Y-27941495D01*
X29455328Y-27929765D01*
X29520575Y-27957754D01*
X29544874Y-27984589D01*
X29619884Y-28096216D01*
X29625503Y-28101329D01*
X29625504Y-28101330D01*
X29730234Y-28196627D01*
X29746683Y-28211594D01*
X29753356Y-28215217D01*
X29890666Y-28289771D01*
X29890668Y-28289772D01*
X29897343Y-28293396D01*
X29904692Y-28295324D01*
X30055817Y-28334971D01*
X30055819Y-28334971D01*
X30063167Y-28336899D01*
X30234581Y-28339591D01*
X30234535Y-28342549D01*
X30290940Y-28352875D01*
X30338832Y-28395126D01*
X30375643Y-28449906D01*
X30375647Y-28449910D01*
X30379884Y-28456216D01*
X30385503Y-28461329D01*
X30385504Y-28461330D01*
X30456871Y-28526269D01*
X30506683Y-28571594D01*
X30657343Y-28653396D01*
X30664685Y-28655322D01*
X30664692Y-28655325D01*
X30701413Y-28664959D01*
X30762228Y-28701593D01*
X30787763Y-28743531D01*
X30818273Y-28826899D01*
X30821202Y-28834902D01*
X30825438Y-28841205D01*
X30825438Y-28841206D01*
X30855759Y-28886328D01*
X30916819Y-28977196D01*
X30922438Y-28982309D01*
X30922439Y-28982310D01*
X30986046Y-29040188D01*
X31043618Y-29092574D01*
X31050291Y-29096197D01*
X31187601Y-29170751D01*
X31187603Y-29170752D01*
X31194278Y-29174376D01*
X31201627Y-29176304D01*
X31352752Y-29215951D01*
X31352754Y-29215951D01*
X31360102Y-29217879D01*
X31447574Y-29219253D01*
X31523917Y-29220452D01*
X31523920Y-29220452D01*
X31531516Y-29220571D01*
X31538920Y-29218875D01*
X31538922Y-29218875D01*
X31623617Y-29199477D01*
X31698625Y-29182298D01*
X31851780Y-29105269D01*
X31982140Y-28993931D01*
X32059461Y-28886328D01*
X32077743Y-28860886D01*
X32077744Y-28860885D01*
X32082180Y-28854711D01*
X32120676Y-28758949D01*
X32164642Y-28703204D01*
X32231767Y-28680079D01*
X32300739Y-28696916D01*
X32303476Y-28698676D01*
X32306683Y-28701594D01*
X32336350Y-28717702D01*
X32450666Y-28779771D01*
X32450668Y-28779772D01*
X32457343Y-28783396D01*
X32464692Y-28785324D01*
X32615817Y-28824971D01*
X32615819Y-28824971D01*
X32623167Y-28826899D01*
X32710639Y-28828273D01*
X32786982Y-28829472D01*
X32786985Y-28829472D01*
X32794581Y-28829591D01*
X32801985Y-28827895D01*
X32801987Y-28827895D01*
X32864789Y-28813511D01*
X32961690Y-28791318D01*
X33114845Y-28714289D01*
X33245205Y-28602951D01*
X33295112Y-28533498D01*
X33340808Y-28469906D01*
X33340809Y-28469905D01*
X33345245Y-28463731D01*
X33409188Y-28304667D01*
X33433344Y-28134942D01*
X33433500Y-28120000D01*
X33428743Y-28080686D01*
X33417773Y-27990041D01*
X33412904Y-27949806D01*
X33400654Y-27917387D01*
X33400197Y-27916177D01*
X33394830Y-27845384D01*
X33401156Y-27824646D01*
X33406355Y-27811713D01*
X33406356Y-27811708D01*
X33409188Y-27804664D01*
X33433344Y-27634939D01*
X33433500Y-27619997D01*
X33432812Y-27614306D01*
X33420708Y-27514289D01*
X33412904Y-27449803D01*
X33404333Y-27427120D01*
X33400197Y-27416174D01*
X33394830Y-27345381D01*
X33401156Y-27324643D01*
X33406355Y-27311710D01*
X33406356Y-27311705D01*
X33409188Y-27304661D01*
X33433344Y-27134936D01*
X33433500Y-27119994D01*
X33432586Y-27112436D01*
X33424317Y-27044110D01*
X33412904Y-26949800D01*
X33400197Y-26916171D01*
X33394830Y-26845378D01*
X33401156Y-26824640D01*
X33406355Y-26811707D01*
X33406356Y-26811702D01*
X33409188Y-26804658D01*
X33433344Y-26634933D01*
X33433500Y-26619991D01*
X33431685Y-26604988D01*
X33414411Y-26462250D01*
X33412904Y-26449797D01*
X33400197Y-26416168D01*
X33394830Y-26345375D01*
X33401156Y-26324637D01*
X33406355Y-26311704D01*
X33406356Y-26311699D01*
X33409188Y-26304655D01*
X33433344Y-26134930D01*
X33433500Y-26119988D01*
X33429690Y-26088500D01*
X33423021Y-26033396D01*
X33412904Y-25949794D01*
X33352306Y-25789426D01*
X33300969Y-25714730D01*
X33256642Y-25650234D01*
X33234542Y-25582765D01*
X33252427Y-25514058D01*
X33258159Y-25505342D01*
X33290809Y-25459904D01*
X33295245Y-25453731D01*
X33359188Y-25294667D01*
X33383344Y-25124942D01*
X33383500Y-25110000D01*
X33382933Y-25105310D01*
X33367022Y-24973834D01*
X33362904Y-24939806D01*
X33302306Y-24779438D01*
X33275201Y-24740000D01*
X33209506Y-24644413D01*
X33209505Y-24644411D01*
X33205204Y-24638154D01*
X33199533Y-24633101D01*
X33082877Y-24529164D01*
X33082875Y-24529162D01*
X33077204Y-24524110D01*
X33070495Y-24520558D01*
X33070491Y-24520555D01*
X32932411Y-24447445D01*
X32932408Y-24447444D01*
X32925696Y-24443890D01*
X32908127Y-24439477D01*
X32766795Y-24403977D01*
X32766793Y-24403977D01*
X32759425Y-24402126D01*
X32751827Y-24402086D01*
X32751825Y-24402086D01*
X32677841Y-24401699D01*
X32587992Y-24401229D01*
X32580613Y-24403001D01*
X32580609Y-24403001D01*
X32428673Y-24439477D01*
X32428669Y-24439478D01*
X32421294Y-24441249D01*
X32268954Y-24519878D01*
X32263232Y-24524870D01*
X32263230Y-24524871D01*
X32192246Y-24586794D01*
X32139766Y-24632575D01*
X32095495Y-24695567D01*
X32039962Y-24739797D01*
X31969330Y-24746983D01*
X31933449Y-24734469D01*
X31882411Y-24707445D01*
X31882408Y-24707444D01*
X31875696Y-24703890D01*
X31858127Y-24699477D01*
X31716795Y-24663977D01*
X31716793Y-24663977D01*
X31709425Y-24662126D01*
X31701827Y-24662086D01*
X31701825Y-24662086D01*
X31627841Y-24661699D01*
X31537992Y-24661229D01*
X31530613Y-24663001D01*
X31530609Y-24663001D01*
X31378673Y-24699477D01*
X31378669Y-24699478D01*
X31371294Y-24701249D01*
X31218954Y-24779878D01*
X31213232Y-24784870D01*
X31213230Y-24784871D01*
X31098628Y-24884844D01*
X31089766Y-24892575D01*
X30991190Y-25032835D01*
X30928916Y-25192560D01*
X30927925Y-25200087D01*
X30910257Y-25334289D01*
X30906539Y-25362528D01*
X30925351Y-25532928D01*
X30943589Y-25582765D01*
X30977772Y-25676173D01*
X30984267Y-25693922D01*
X30988503Y-25700225D01*
X30988503Y-25700226D01*
X31053216Y-25796529D01*
X31079884Y-25836216D01*
X31085503Y-25841329D01*
X31085504Y-25841330D01*
X31196758Y-25942563D01*
X31206683Y-25951594D01*
X31213356Y-25955217D01*
X31350666Y-26029771D01*
X31350668Y-26029772D01*
X31357343Y-26033396D01*
X31364692Y-26035324D01*
X31515817Y-26074971D01*
X31515819Y-26074971D01*
X31523167Y-26076899D01*
X31610639Y-26078273D01*
X31686982Y-26079472D01*
X31686985Y-26079472D01*
X31694581Y-26079591D01*
X31701985Y-26077895D01*
X31701987Y-26077895D01*
X31857451Y-26042289D01*
X31928318Y-26046578D01*
X31985616Y-26088500D01*
X32010819Y-26151282D01*
X32025351Y-26282916D01*
X32027962Y-26290051D01*
X32040849Y-26325268D01*
X32045475Y-26396113D01*
X32039916Y-26414337D01*
X32028916Y-26442551D01*
X32026916Y-26457743D01*
X32008643Y-26596540D01*
X32006539Y-26612519D01*
X32025351Y-26782919D01*
X32027962Y-26790054D01*
X32040849Y-26825271D01*
X32045475Y-26896116D01*
X32039916Y-26914340D01*
X32037215Y-26921269D01*
X32028916Y-26942554D01*
X32025639Y-26967445D01*
X32009574Y-27089472D01*
X32006539Y-27112522D01*
X32005885Y-27112436D01*
X31986792Y-27175023D01*
X31939305Y-27217760D01*
X31818954Y-27279878D01*
X31813232Y-27284870D01*
X31813230Y-27284871D01*
X31695493Y-27387579D01*
X31689766Y-27392575D01*
X31642918Y-27459234D01*
X31626489Y-27482610D01*
X31570955Y-27526842D01*
X31500323Y-27534028D01*
X31439583Y-27504236D01*
X31332877Y-27409164D01*
X31332875Y-27409162D01*
X31327204Y-27404110D01*
X31320495Y-27400558D01*
X31320491Y-27400555D01*
X31182411Y-27327445D01*
X31182408Y-27327444D01*
X31175696Y-27323890D01*
X31127205Y-27311710D01*
X31016795Y-27283977D01*
X31016793Y-27283977D01*
X31009425Y-27282126D01*
X31001827Y-27282086D01*
X31001825Y-27282086D01*
X30845452Y-27281268D01*
X30777437Y-27260910D01*
X30742271Y-27226637D01*
X30699506Y-27164413D01*
X30699505Y-27164411D01*
X30695204Y-27158154D01*
X30689533Y-27153101D01*
X30572877Y-27049164D01*
X30572875Y-27049162D01*
X30567204Y-27044110D01*
X30560495Y-27040558D01*
X30560491Y-27040555D01*
X30422411Y-26967445D01*
X30422408Y-26967444D01*
X30415696Y-26963890D01*
X30389619Y-26957340D01*
X30256795Y-26923977D01*
X30256793Y-26923977D01*
X30249425Y-26922126D01*
X30241827Y-26922086D01*
X30241825Y-26922086D01*
X30167841Y-26921699D01*
X30077992Y-26921229D01*
X30070613Y-26923001D01*
X30070609Y-26923001D01*
X29918673Y-26959477D01*
X29918669Y-26959478D01*
X29911294Y-26961249D01*
X29904549Y-26964730D01*
X29904550Y-26964730D01*
X29768198Y-27035107D01*
X29758954Y-27039878D01*
X29753232Y-27044870D01*
X29753230Y-27044871D01*
X29635489Y-27147582D01*
X29635487Y-27147585D01*
X29629766Y-27152575D01*
X29625398Y-27158790D01*
X29623835Y-27160526D01*
X29563390Y-27197767D01*
X29492406Y-27196416D01*
X29433421Y-27156903D01*
X29418013Y-27132539D01*
X29417421Y-27130781D01*
X29410996Y-27120087D01*
X29365801Y-27044871D01*
X29322148Y-26972221D01*
X29312520Y-26962039D01*
X29218816Y-26862951D01*
X29195050Y-26837819D01*
X29109594Y-26779743D01*
X29064498Y-26724914D01*
X29056203Y-26654404D01*
X29063512Y-26628538D01*
X29065291Y-26624112D01*
X29089188Y-26564667D01*
X29113344Y-26394942D01*
X29113500Y-26380000D01*
X29111685Y-26364997D01*
X29101751Y-26282916D01*
X29092904Y-26209806D01*
X29032306Y-26049438D01*
X28964027Y-25950092D01*
X28939506Y-25914413D01*
X28939505Y-25914411D01*
X28935204Y-25908154D01*
X28929533Y-25903101D01*
X28812877Y-25799164D01*
X28812875Y-25799162D01*
X28807204Y-25794110D01*
X28800495Y-25790558D01*
X28800491Y-25790555D01*
X28662411Y-25717445D01*
X28662408Y-25717444D01*
X28655696Y-25713890D01*
X28601297Y-25700226D01*
X28496795Y-25673977D01*
X28496793Y-25673977D01*
X28489425Y-25672126D01*
X28481827Y-25672086D01*
X28481825Y-25672086D01*
X28407841Y-25671699D01*
X28317992Y-25671229D01*
X28310613Y-25673001D01*
X28310609Y-25673001D01*
X28158673Y-25709477D01*
X28158669Y-25709478D01*
X28151294Y-25711249D01*
X28139290Y-25717445D01*
X28010149Y-25784100D01*
X27998954Y-25789878D01*
X27993232Y-25794870D01*
X27993230Y-25794871D01*
X27892090Y-25883101D01*
X27869766Y-25902575D01*
X27771190Y-26042835D01*
X27708916Y-26202560D01*
X27707925Y-26210087D01*
X27687646Y-26364121D01*
X27686539Y-26372528D01*
X23350000Y-26372528D01*
X23350000Y-24749518D01*
X28998291Y-24749518D01*
X28999734Y-24756191D01*
X28999734Y-24756193D01*
X29029222Y-24892575D01*
X29037383Y-24930322D01*
X29114387Y-25098514D01*
X29118491Y-25103960D01*
X29118492Y-25103962D01*
X29185256Y-25192560D01*
X29225711Y-25246246D01*
X29230890Y-25250685D01*
X29230891Y-25250686D01*
X29332415Y-25337702D01*
X29366162Y-25366627D01*
X29443147Y-25407906D01*
X29523170Y-25450814D01*
X29523172Y-25450815D01*
X29529187Y-25454040D01*
X29535755Y-25455899D01*
X29535756Y-25455899D01*
X29550249Y-25460000D01*
X29707179Y-25504407D01*
X29713987Y-25504811D01*
X29713990Y-25504812D01*
X29866958Y-25513900D01*
X29891835Y-25515378D01*
X29981590Y-25501162D01*
X30067805Y-25487507D01*
X30067809Y-25487506D01*
X30074539Y-25486440D01*
X30080885Y-25483953D01*
X30080889Y-25483952D01*
X30240412Y-25421436D01*
X30240416Y-25421434D01*
X30246767Y-25418945D01*
X30319763Y-25370078D01*
X30394815Y-25319835D01*
X30394818Y-25319832D01*
X30400483Y-25316040D01*
X30528517Y-25182528D01*
X30551146Y-25145457D01*
X30608608Y-25051318D01*
X30624894Y-25024637D01*
X30642387Y-24973834D01*
X30682895Y-24856191D01*
X30682896Y-24856188D01*
X30685118Y-24849734D01*
X30689233Y-24814174D01*
X30705975Y-24669471D01*
X30705975Y-24669470D01*
X30706379Y-24665979D01*
X30706400Y-24660000D01*
X30705883Y-24655236D01*
X30692612Y-24533079D01*
X30686422Y-24476101D01*
X30651567Y-24372528D01*
X34606539Y-24372528D01*
X34625351Y-24542928D01*
X34641404Y-24586794D01*
X34679417Y-24690668D01*
X34684267Y-24703922D01*
X34688503Y-24710225D01*
X34688503Y-24710226D01*
X34740040Y-24786921D01*
X34779884Y-24846216D01*
X34785503Y-24851329D01*
X34785504Y-24851330D01*
X34895693Y-24951594D01*
X34906683Y-24961594D01*
X34913356Y-24965217D01*
X35050666Y-25039771D01*
X35050668Y-25039772D01*
X35057343Y-25043396D01*
X35064692Y-25045324D01*
X35215817Y-25084971D01*
X35215819Y-25084971D01*
X35223167Y-25086899D01*
X35310639Y-25088273D01*
X35386982Y-25089472D01*
X35386985Y-25089472D01*
X35394581Y-25089591D01*
X35401985Y-25087895D01*
X35401987Y-25087895D01*
X35464789Y-25073511D01*
X35561690Y-25051318D01*
X35714845Y-24974289D01*
X35781751Y-24917146D01*
X35819572Y-24884844D01*
X35884361Y-24855813D01*
X35954561Y-24866418D01*
X35986201Y-24887461D01*
X36043728Y-24939806D01*
X36056683Y-24951594D01*
X36089393Y-24969354D01*
X36200666Y-25029771D01*
X36200668Y-25029772D01*
X36207343Y-25033396D01*
X36214692Y-25035324D01*
X36365817Y-25074971D01*
X36365819Y-25074971D01*
X36373167Y-25076899D01*
X36460639Y-25078273D01*
X36536982Y-25079472D01*
X36536985Y-25079472D01*
X36544581Y-25079591D01*
X36695325Y-25045066D01*
X36755425Y-25046010D01*
X36873167Y-25076899D01*
X36960639Y-25078273D01*
X37036982Y-25079472D01*
X37036985Y-25079472D01*
X37044581Y-25079591D01*
X37051985Y-25077895D01*
X37051987Y-25077895D01*
X37114789Y-25063511D01*
X37211690Y-25041318D01*
X37345867Y-24973834D01*
X37415711Y-24961096D01*
X37462603Y-24975668D01*
X37587343Y-25043396D01*
X37585745Y-25046339D01*
X37629857Y-25080710D01*
X37653379Y-25147696D01*
X37636951Y-25216766D01*
X37630637Y-25226707D01*
X37591190Y-25282835D01*
X37528916Y-25442560D01*
X37527925Y-25450087D01*
X37507574Y-25604670D01*
X37506539Y-25612528D01*
X37525351Y-25782928D01*
X37527962Y-25790063D01*
X37540849Y-25825280D01*
X37545475Y-25896125D01*
X37539916Y-25914349D01*
X37528916Y-25942563D01*
X37526056Y-25964289D01*
X37509703Y-26088500D01*
X37506539Y-26112531D01*
X37525351Y-26282931D01*
X37527962Y-26290066D01*
X37540849Y-26325283D01*
X37545475Y-26396128D01*
X37539916Y-26414352D01*
X37528916Y-26442566D01*
X37526918Y-26457743D01*
X37508645Y-26596540D01*
X37506539Y-26612534D01*
X37525351Y-26782934D01*
X37527962Y-26790069D01*
X37540849Y-26825286D01*
X37545475Y-26896131D01*
X37539916Y-26914355D01*
X37531890Y-26934942D01*
X37528916Y-26942569D01*
X37525641Y-26967445D01*
X37509576Y-27089472D01*
X37506539Y-27112537D01*
X37525351Y-27282937D01*
X37527962Y-27290072D01*
X37540849Y-27325289D01*
X37545475Y-27396134D01*
X37539916Y-27414358D01*
X37528916Y-27442572D01*
X37526622Y-27460000D01*
X37509110Y-27593013D01*
X37506539Y-27612540D01*
X37525351Y-27782940D01*
X37527962Y-27790075D01*
X37540849Y-27825292D01*
X37545475Y-27896137D01*
X37539916Y-27914361D01*
X37528916Y-27942575D01*
X37526918Y-27957754D01*
X37508689Y-28096216D01*
X37506539Y-28112543D01*
X37525351Y-28282943D01*
X37547164Y-28342549D01*
X37578441Y-28428016D01*
X37584267Y-28443937D01*
X37588503Y-28450240D01*
X37588503Y-28450241D01*
X37666615Y-28566484D01*
X37679884Y-28586231D01*
X37685503Y-28591344D01*
X37685504Y-28591345D01*
X37793903Y-28689980D01*
X37806683Y-28701609D01*
X37830037Y-28714289D01*
X37950666Y-28779786D01*
X37950668Y-28779787D01*
X37957343Y-28783411D01*
X37964692Y-28785339D01*
X38115817Y-28824986D01*
X38115819Y-28824986D01*
X38123167Y-28826914D01*
X38210639Y-28828288D01*
X38286982Y-28829487D01*
X38286985Y-28829487D01*
X38294581Y-28829606D01*
X38328751Y-28821780D01*
X38399617Y-28826069D01*
X38456915Y-28867991D01*
X38482453Y-28934236D01*
X38468122Y-29003771D01*
X38459967Y-29017050D01*
X38402303Y-29099098D01*
X38340029Y-29258823D01*
X38339038Y-29266350D01*
X38322351Y-29393101D01*
X38317652Y-29428791D01*
X38336464Y-29599191D01*
X38339074Y-29606322D01*
X38375820Y-29706734D01*
X38395380Y-29760185D01*
X38399616Y-29766488D01*
X38399616Y-29766489D01*
X38481954Y-29889021D01*
X38490997Y-29902479D01*
X38496616Y-29907592D01*
X38496617Y-29907593D01*
X38549910Y-29956086D01*
X38617796Y-30017857D01*
X38624469Y-30021480D01*
X38761779Y-30096034D01*
X38761781Y-30096035D01*
X38768456Y-30099659D01*
X38775805Y-30101587D01*
X38926930Y-30141234D01*
X38926932Y-30141234D01*
X38934280Y-30143162D01*
X39021752Y-30144536D01*
X39098095Y-30145735D01*
X39098098Y-30145735D01*
X39105694Y-30145854D01*
X39113098Y-30144158D01*
X39113100Y-30144158D01*
X39175902Y-30129774D01*
X39272803Y-30107581D01*
X39425958Y-30030552D01*
X39510134Y-29958659D01*
X39550544Y-29924146D01*
X39550546Y-29924144D01*
X39556318Y-29919214D01*
X39571311Y-29898349D01*
X39627306Y-29854701D01*
X39698009Y-29848255D01*
X39733755Y-29861144D01*
X39742528Y-29865907D01*
X39821598Y-29908839D01*
X39821600Y-29908840D01*
X39828275Y-29912464D01*
X39835624Y-29914392D01*
X39986749Y-29954039D01*
X39986751Y-29954039D01*
X39994099Y-29955967D01*
X40081571Y-29957341D01*
X40157914Y-29958540D01*
X40157917Y-29958540D01*
X40165513Y-29958659D01*
X40214000Y-29947554D01*
X40284865Y-29951843D01*
X40326081Y-29980194D01*
X40327850Y-29978250D01*
X40454649Y-30093628D01*
X40461322Y-30097251D01*
X40598632Y-30171805D01*
X40598634Y-30171806D01*
X40605309Y-30175430D01*
X40612658Y-30177358D01*
X40763783Y-30217005D01*
X40763785Y-30217005D01*
X40771133Y-30218933D01*
X40858605Y-30220307D01*
X40934948Y-30221506D01*
X40934951Y-30221506D01*
X40942547Y-30221625D01*
X40949951Y-30219929D01*
X40949953Y-30219929D01*
X41035980Y-30200226D01*
X41109656Y-30183352D01*
X41262811Y-30106323D01*
X41393171Y-29994985D01*
X41397604Y-29988816D01*
X41488774Y-29861940D01*
X41488775Y-29861939D01*
X41493211Y-29855765D01*
X41557154Y-29696701D01*
X41581310Y-29526976D01*
X41581466Y-29512034D01*
X41560870Y-29341840D01*
X41500272Y-29181472D01*
X41486359Y-29161229D01*
X41407472Y-29046447D01*
X41407471Y-29046445D01*
X41403170Y-29040188D01*
X41321010Y-28966986D01*
X41283455Y-28906735D01*
X41284436Y-28835745D01*
X41306483Y-28797369D01*
X41305205Y-28796451D01*
X41400808Y-28663406D01*
X41400809Y-28663405D01*
X41405245Y-28657231D01*
X41469188Y-28498167D01*
X41493344Y-28328442D01*
X41493500Y-28313500D01*
X41491685Y-28298497D01*
X41479747Y-28199854D01*
X41472904Y-28143306D01*
X41412306Y-27982938D01*
X41402227Y-27968273D01*
X41319506Y-27847913D01*
X41319505Y-27847911D01*
X41315204Y-27841654D01*
X41308943Y-27836075D01*
X41308004Y-27835239D01*
X41307213Y-27833970D01*
X41304510Y-27830904D01*
X41305021Y-27830453D01*
X41270448Y-27774989D01*
X41271429Y-27703999D01*
X41310633Y-27644808D01*
X41363693Y-27618343D01*
X41474289Y-27593013D01*
X41481690Y-27591318D01*
X41634845Y-27514289D01*
X41765205Y-27402951D01*
X41773556Y-27391330D01*
X41860808Y-27269906D01*
X41860809Y-27269905D01*
X41865245Y-27263731D01*
X41929188Y-27104667D01*
X41953344Y-26934942D01*
X41953500Y-26920000D01*
X41951685Y-26904996D01*
X41937776Y-26790069D01*
X41932904Y-26749806D01*
X41917948Y-26710226D01*
X41874990Y-26596540D01*
X41874989Y-26596537D01*
X41872306Y-26589438D01*
X41868007Y-26583184D01*
X41868004Y-26583177D01*
X41834279Y-26534108D01*
X41812178Y-26466639D01*
X41813375Y-26444986D01*
X41814729Y-26435474D01*
X41823344Y-26374942D01*
X41823500Y-26360000D01*
X41821685Y-26344997D01*
X41815035Y-26290051D01*
X41802904Y-26189806D01*
X41742306Y-26029438D01*
X41685293Y-25946484D01*
X41649506Y-25894413D01*
X41649505Y-25894411D01*
X41645204Y-25888154D01*
X41639533Y-25883101D01*
X41522877Y-25779164D01*
X41522875Y-25779162D01*
X41517204Y-25774110D01*
X41510495Y-25770558D01*
X41510491Y-25770555D01*
X41372411Y-25697445D01*
X41372408Y-25697444D01*
X41365696Y-25693890D01*
X41348127Y-25689477D01*
X41206795Y-25653977D01*
X41206793Y-25653977D01*
X41199425Y-25652126D01*
X41191827Y-25652086D01*
X41191825Y-25652086D01*
X41117841Y-25651699D01*
X41027992Y-25651229D01*
X41020613Y-25653001D01*
X41020609Y-25653001D01*
X40868673Y-25689477D01*
X40868669Y-25689478D01*
X40861294Y-25691249D01*
X40708954Y-25769878D01*
X40703232Y-25774870D01*
X40703230Y-25774871D01*
X40594194Y-25869989D01*
X40579766Y-25882575D01*
X40481190Y-26022835D01*
X40418916Y-26182560D01*
X40417925Y-26190087D01*
X40400126Y-26325283D01*
X40396539Y-26352528D01*
X40415351Y-26522928D01*
X40474267Y-26683922D01*
X40478503Y-26690225D01*
X40478503Y-26690226D01*
X40516587Y-26746901D01*
X40537979Y-26814598D01*
X40536927Y-26833623D01*
X40527530Y-26904996D01*
X40527530Y-26905001D01*
X40526539Y-26912528D01*
X40545351Y-27082928D01*
X40571031Y-27153101D01*
X40597942Y-27226637D01*
X40604267Y-27243922D01*
X40608503Y-27250225D01*
X40608503Y-27250226D01*
X40689147Y-27370237D01*
X40699884Y-27386216D01*
X40705503Y-27391329D01*
X40705504Y-27391330D01*
X40713487Y-27398594D01*
X40750409Y-27459234D01*
X40748686Y-27530210D01*
X40708863Y-27588987D01*
X40658102Y-27614306D01*
X40651382Y-27615919D01*
X40538673Y-27642977D01*
X40538669Y-27642978D01*
X40531294Y-27644749D01*
X40475947Y-27673316D01*
X40412114Y-27706263D01*
X40378954Y-27723378D01*
X40373232Y-27728370D01*
X40373230Y-27728371D01*
X40294375Y-27797160D01*
X40249766Y-27836075D01*
X40151190Y-27976335D01*
X40088916Y-28136060D01*
X40087925Y-28143587D01*
X40069434Y-28284040D01*
X40066539Y-28306028D01*
X40075480Y-28387016D01*
X40078057Y-28410360D01*
X40065651Y-28480264D01*
X40017421Y-28532364D01*
X39982233Y-28546704D01*
X39936262Y-28557741D01*
X39865354Y-28554195D01*
X39829418Y-28533058D01*
X39829112Y-28533498D01*
X39823305Y-28529462D01*
X39823028Y-28529299D01*
X39822877Y-28529164D01*
X39822874Y-28529162D01*
X39817204Y-28524110D01*
X39810495Y-28520558D01*
X39810491Y-28520555D01*
X39672411Y-28447445D01*
X39672408Y-28447444D01*
X39665696Y-28443890D01*
X39637481Y-28436803D01*
X39506795Y-28403977D01*
X39506793Y-28403977D01*
X39499425Y-28402126D01*
X39491827Y-28402086D01*
X39491825Y-28402086D01*
X39417841Y-28401699D01*
X39327992Y-28401229D01*
X39320613Y-28403001D01*
X39320609Y-28403001D01*
X39168673Y-28439477D01*
X39168669Y-28439478D01*
X39161294Y-28441249D01*
X39132296Y-28456216D01*
X39074978Y-28485800D01*
X39005271Y-28499269D01*
X38939347Y-28472914D01*
X38898138Y-28415101D01*
X38894726Y-28344187D01*
X38900276Y-28326851D01*
X38909188Y-28304682D01*
X38933344Y-28134957D01*
X38933500Y-28120015D01*
X38931685Y-28105012D01*
X38917771Y-27990041D01*
X38912904Y-27949821D01*
X38902509Y-27922311D01*
X38900197Y-27916192D01*
X38894830Y-27845399D01*
X38901156Y-27824661D01*
X38906355Y-27811728D01*
X38906356Y-27811723D01*
X38909188Y-27804679D01*
X38933344Y-27634954D01*
X38933500Y-27620012D01*
X38932810Y-27614306D01*
X38919489Y-27504236D01*
X38912904Y-27449818D01*
X38900197Y-27416189D01*
X38894830Y-27345396D01*
X38901156Y-27324658D01*
X38906355Y-27311725D01*
X38906356Y-27311720D01*
X38909188Y-27304676D01*
X38920295Y-27226637D01*
X38927923Y-27173043D01*
X38957324Y-27108420D01*
X39016996Y-27069951D01*
X39084639Y-27068921D01*
X39153167Y-27086899D01*
X39240639Y-27088273D01*
X39316982Y-27089472D01*
X39316985Y-27089472D01*
X39324581Y-27089591D01*
X39331985Y-27087895D01*
X39331987Y-27087895D01*
X39414831Y-27068921D01*
X39491690Y-27051318D01*
X39644845Y-26974289D01*
X39775205Y-26862951D01*
X39875245Y-26723731D01*
X39939188Y-26564667D01*
X39963344Y-26394942D01*
X39963500Y-26380000D01*
X39961685Y-26364997D01*
X39951751Y-26282916D01*
X39942904Y-26209806D01*
X39882306Y-26049438D01*
X39815060Y-25951594D01*
X39813212Y-25948905D01*
X39791112Y-25881435D01*
X39808998Y-25812729D01*
X39860438Y-25764973D01*
X39941412Y-25724247D01*
X39975563Y-25707071D01*
X40105923Y-25595733D01*
X40173880Y-25501161D01*
X40229874Y-25457515D01*
X40278179Y-25448705D01*
X40293011Y-25448938D01*
X40326982Y-25449472D01*
X40326985Y-25449472D01*
X40334581Y-25449591D01*
X40341985Y-25447895D01*
X40341987Y-25447895D01*
X40457512Y-25421436D01*
X40501690Y-25411318D01*
X40654845Y-25334289D01*
X40785205Y-25222951D01*
X40789649Y-25216766D01*
X40880808Y-25089906D01*
X40880809Y-25089905D01*
X40885245Y-25083731D01*
X40949188Y-24924667D01*
X40973344Y-24754942D01*
X40973500Y-24740000D01*
X40969561Y-24707445D01*
X40963972Y-24661269D01*
X40952904Y-24569806D01*
X40892306Y-24409438D01*
X40874832Y-24384012D01*
X40799506Y-24274413D01*
X40799505Y-24274411D01*
X40795204Y-24268154D01*
X40789533Y-24263101D01*
X40672877Y-24159164D01*
X40672875Y-24159162D01*
X40667204Y-24154110D01*
X40660494Y-24150557D01*
X40660488Y-24150553D01*
X40533165Y-24083139D01*
X40482321Y-24033586D01*
X40466340Y-23964412D01*
X40490294Y-23897578D01*
X40535510Y-23859220D01*
X40578331Y-23837683D01*
X40624845Y-23814289D01*
X40755205Y-23702951D01*
X40782881Y-23664436D01*
X40838875Y-23620788D01*
X40909579Y-23614342D01*
X40972543Y-23647145D01*
X40976824Y-23651663D01*
X40979884Y-23656216D01*
X40985503Y-23661329D01*
X40985504Y-23661330D01*
X41076675Y-23744289D01*
X41106683Y-23771594D01*
X41113356Y-23775217D01*
X41250666Y-23849771D01*
X41250668Y-23849772D01*
X41257343Y-23853396D01*
X41264692Y-23855324D01*
X41415817Y-23894971D01*
X41415819Y-23894971D01*
X41423167Y-23896899D01*
X41510639Y-23898273D01*
X41586982Y-23899472D01*
X41586985Y-23899472D01*
X41594581Y-23899591D01*
X41601985Y-23897895D01*
X41601987Y-23897895D01*
X41689813Y-23877780D01*
X41761690Y-23861318D01*
X41784649Y-23849771D01*
X41814565Y-23834725D01*
X41884410Y-23821987D01*
X41903152Y-23825414D01*
X42015817Y-23854971D01*
X42015819Y-23854971D01*
X42023167Y-23856899D01*
X42110639Y-23858273D01*
X42186982Y-23859472D01*
X42186985Y-23859472D01*
X42194581Y-23859591D01*
X42201985Y-23857895D01*
X42201987Y-23857895D01*
X42264789Y-23843511D01*
X42361690Y-23821318D01*
X42514845Y-23744289D01*
X42645205Y-23632951D01*
X42661903Y-23609713D01*
X42740808Y-23499906D01*
X42740809Y-23499905D01*
X42745245Y-23493731D01*
X42809188Y-23334667D01*
X42833344Y-23164942D01*
X42833500Y-23150000D01*
X42820261Y-23040598D01*
X42831934Y-22970568D01*
X42879616Y-22917966D01*
X42939573Y-22901595D01*
X42939433Y-22900265D01*
X42946983Y-22899472D01*
X42954581Y-22899591D01*
X42961985Y-22897895D01*
X42961987Y-22897895D01*
X43054882Y-22876619D01*
X43121690Y-22861318D01*
X43274845Y-22784289D01*
X43405205Y-22672951D01*
X43422073Y-22649477D01*
X43500808Y-22539906D01*
X43500809Y-22539905D01*
X43505245Y-22533731D01*
X43569188Y-22374667D01*
X43593344Y-22204942D01*
X43593500Y-22190000D01*
X43591685Y-22174997D01*
X43573816Y-22027346D01*
X43572904Y-22019806D01*
X43512306Y-21859438D01*
X43503496Y-21846619D01*
X43419506Y-21724413D01*
X43419505Y-21724411D01*
X43415204Y-21718154D01*
X43409533Y-21713101D01*
X43292877Y-21609164D01*
X43292875Y-21609162D01*
X43287204Y-21604110D01*
X43280495Y-21600558D01*
X43280491Y-21600555D01*
X43142411Y-21527445D01*
X43142408Y-21527444D01*
X43135696Y-21523890D01*
X43118127Y-21519477D01*
X42976795Y-21483977D01*
X42976793Y-21483977D01*
X42969425Y-21482126D01*
X42961827Y-21482086D01*
X42961825Y-21482086D01*
X42887841Y-21481699D01*
X42797992Y-21481229D01*
X42790613Y-21483001D01*
X42790609Y-21483001D01*
X42638673Y-21519477D01*
X42638669Y-21519478D01*
X42631294Y-21521249D01*
X42478954Y-21599878D01*
X42473232Y-21604870D01*
X42473230Y-21604871D01*
X42415495Y-21655236D01*
X42349766Y-21712575D01*
X42251190Y-21852835D01*
X42188916Y-22012560D01*
X42166539Y-22182528D01*
X42169464Y-22209021D01*
X42179672Y-22301488D01*
X42167266Y-22371392D01*
X42119036Y-22423492D01*
X42053772Y-22441312D01*
X42037992Y-22441229D01*
X42030613Y-22443001D01*
X42030609Y-22443001D01*
X41878673Y-22479477D01*
X41878669Y-22479478D01*
X41871294Y-22481249D01*
X41864550Y-22484730D01*
X41864547Y-22484731D01*
X41826738Y-22504246D01*
X41757031Y-22517716D01*
X41738254Y-22514485D01*
X41678078Y-22499370D01*
X41616795Y-22483977D01*
X41616793Y-22483977D01*
X41609425Y-22482126D01*
X41601827Y-22482086D01*
X41601825Y-22482086D01*
X41527841Y-22481699D01*
X41437992Y-22481229D01*
X41430613Y-22483001D01*
X41430609Y-22483001D01*
X41278673Y-22519477D01*
X41278669Y-22519478D01*
X41271294Y-22521249D01*
X41118954Y-22599878D01*
X41113232Y-22604870D01*
X41113230Y-22604871D01*
X41084564Y-22629878D01*
X40989766Y-22712575D01*
X40985396Y-22718792D01*
X40985394Y-22718795D01*
X40967605Y-22744106D01*
X40912071Y-22788338D01*
X40841438Y-22795523D01*
X40778134Y-22763381D01*
X40770004Y-22754980D01*
X40769511Y-22754421D01*
X40765204Y-22748154D01*
X40745451Y-22730555D01*
X40642877Y-22639164D01*
X40642875Y-22639162D01*
X40637204Y-22634110D01*
X40630495Y-22630558D01*
X40630491Y-22630555D01*
X40492411Y-22557445D01*
X40492408Y-22557444D01*
X40485696Y-22553890D01*
X40430023Y-22539906D01*
X40326795Y-22513977D01*
X40326793Y-22513977D01*
X40319425Y-22512126D01*
X40311827Y-22512086D01*
X40311825Y-22512086D01*
X40237841Y-22511699D01*
X40147992Y-22511229D01*
X40140613Y-22513001D01*
X40140609Y-22513001D01*
X39988673Y-22549477D01*
X39988669Y-22549478D01*
X39981294Y-22551249D01*
X39828954Y-22629878D01*
X39823232Y-22634870D01*
X39823230Y-22634871D01*
X39739883Y-22707579D01*
X39699766Y-22742575D01*
X39601190Y-22882835D01*
X39538916Y-23042560D01*
X39537925Y-23050087D01*
X39522267Y-23169021D01*
X39516539Y-23212528D01*
X39535351Y-23382928D01*
X39537961Y-23390059D01*
X39575900Y-23493731D01*
X39594267Y-23543922D01*
X39598503Y-23550225D01*
X39598503Y-23550226D01*
X39675249Y-23664436D01*
X39689884Y-23686216D01*
X39695503Y-23691329D01*
X39695504Y-23691330D01*
X39811067Y-23796484D01*
X39816683Y-23801594D01*
X39823356Y-23805217D01*
X39956999Y-23877780D01*
X40007321Y-23927863D01*
X40022577Y-23997201D01*
X39997924Y-24063780D01*
X39954668Y-24100476D01*
X39858954Y-24149878D01*
X39853232Y-24154870D01*
X39853230Y-24154871D01*
X39782741Y-24216362D01*
X39729766Y-24262575D01*
X39702915Y-24300781D01*
X39667758Y-24350804D01*
X39612224Y-24395036D01*
X39564013Y-24404352D01*
X39526848Y-24404158D01*
X39498710Y-24404011D01*
X39491331Y-24405783D01*
X39491327Y-24405783D01*
X39339391Y-24442259D01*
X39339387Y-24442260D01*
X39332012Y-24444031D01*
X39325267Y-24447512D01*
X39325268Y-24447512D01*
X39191520Y-24516545D01*
X39179672Y-24522660D01*
X39173950Y-24527652D01*
X39173948Y-24527653D01*
X39128894Y-24566956D01*
X39064411Y-24596664D01*
X38994104Y-24586794D01*
X38940294Y-24540480D01*
X38928199Y-24516545D01*
X38928143Y-24516395D01*
X38870686Y-24364340D01*
X38773584Y-24223056D01*
X38766071Y-24216362D01*
X38651257Y-24114066D01*
X38651255Y-24114064D01*
X38645584Y-24109012D01*
X38638875Y-24105460D01*
X38638871Y-24105457D01*
X38500789Y-24032346D01*
X38500786Y-24032345D01*
X38494076Y-24028792D01*
X38493897Y-24028747D01*
X38437566Y-23984341D01*
X38389506Y-23914413D01*
X38389505Y-23914411D01*
X38385204Y-23908154D01*
X38379533Y-23903101D01*
X38262877Y-23799164D01*
X38262875Y-23799162D01*
X38257204Y-23794110D01*
X38250495Y-23790558D01*
X38250491Y-23790555D01*
X38112411Y-23717445D01*
X38112408Y-23717444D01*
X38105696Y-23713890D01*
X38098330Y-23712040D01*
X38098328Y-23712039D01*
X38043028Y-23698149D01*
X38000156Y-23687380D01*
X37938961Y-23651387D01*
X37912985Y-23609713D01*
X37911448Y-23605645D01*
X37908765Y-23598544D01*
X37863772Y-23533079D01*
X37815965Y-23463519D01*
X37815964Y-23463517D01*
X37811663Y-23457260D01*
X37805992Y-23452207D01*
X37689335Y-23348269D01*
X37689332Y-23348267D01*
X37683663Y-23343216D01*
X37598860Y-23298315D01*
X37548017Y-23248762D01*
X37532732Y-23202098D01*
X37527317Y-23157347D01*
X37527316Y-23157344D01*
X37526404Y-23149806D01*
X37465806Y-22989438D01*
X37416685Y-22917966D01*
X37373006Y-22854413D01*
X37373005Y-22854411D01*
X37368704Y-22848154D01*
X37363033Y-22843101D01*
X37246377Y-22739164D01*
X37246375Y-22739162D01*
X37240704Y-22734110D01*
X37233995Y-22730558D01*
X37233991Y-22730555D01*
X37095911Y-22657445D01*
X37095908Y-22657444D01*
X37089196Y-22653890D01*
X37030569Y-22639164D01*
X36930295Y-22613977D01*
X36930293Y-22613977D01*
X36922925Y-22612126D01*
X36915327Y-22612086D01*
X36915325Y-22612086D01*
X36841341Y-22611699D01*
X36751492Y-22611229D01*
X36744113Y-22613001D01*
X36744109Y-22613001D01*
X36592173Y-22649477D01*
X36592169Y-22649478D01*
X36584794Y-22651249D01*
X36432454Y-22729878D01*
X36426732Y-22734870D01*
X36426730Y-22734871D01*
X36357203Y-22795523D01*
X36303266Y-22842575D01*
X36204690Y-22982835D01*
X36142416Y-23142560D01*
X36141425Y-23150087D01*
X36134578Y-23202098D01*
X36120039Y-23312528D01*
X36138851Y-23482928D01*
X36141461Y-23490060D01*
X36180975Y-23598037D01*
X36185601Y-23668882D01*
X36151191Y-23730983D01*
X36120440Y-23753303D01*
X36075705Y-23776393D01*
X36075702Y-23776395D01*
X36068954Y-23779878D01*
X35971911Y-23864534D01*
X35907429Y-23894240D01*
X35837122Y-23884370D01*
X35805264Y-23863659D01*
X35732877Y-23799164D01*
X35732875Y-23799162D01*
X35727204Y-23794110D01*
X35720495Y-23790558D01*
X35720491Y-23790555D01*
X35582411Y-23717445D01*
X35582408Y-23717444D01*
X35575696Y-23713890D01*
X35507586Y-23696782D01*
X35416795Y-23673977D01*
X35416793Y-23673977D01*
X35409425Y-23672126D01*
X35401827Y-23672086D01*
X35401825Y-23672086D01*
X35327841Y-23671699D01*
X35237992Y-23671229D01*
X35230613Y-23673001D01*
X35230609Y-23673001D01*
X35078673Y-23709477D01*
X35078669Y-23709478D01*
X35071294Y-23711249D01*
X35059290Y-23717445D01*
X34928661Y-23784868D01*
X34918954Y-23789878D01*
X34913232Y-23794870D01*
X34913230Y-23794871D01*
X34796136Y-23897018D01*
X34789766Y-23902575D01*
X34691190Y-24042835D01*
X34628916Y-24202560D01*
X34627925Y-24210087D01*
X34607617Y-24364340D01*
X34606539Y-24372528D01*
X30651567Y-24372528D01*
X30646705Y-24358082D01*
X30629597Y-24307246D01*
X30629596Y-24307244D01*
X30627421Y-24300781D01*
X30532148Y-24142221D01*
X30405050Y-24007819D01*
X30341179Y-23964412D01*
X30257698Y-23907679D01*
X30252055Y-23903844D01*
X30245725Y-23901312D01*
X30245721Y-23901310D01*
X30086641Y-23837683D01*
X30080303Y-23835148D01*
X30073573Y-23834034D01*
X30073570Y-23834033D01*
X29904543Y-23806050D01*
X29904540Y-23806050D01*
X29897806Y-23804935D01*
X29890990Y-23805292D01*
X29890986Y-23805292D01*
X29770426Y-23811611D01*
X29713078Y-23814617D01*
X29706500Y-23816429D01*
X29706499Y-23816429D01*
X29541315Y-23861927D01*
X29541311Y-23861928D01*
X29534738Y-23863739D01*
X29528707Y-23866919D01*
X29528704Y-23866920D01*
X29497455Y-23883396D01*
X29371107Y-23950012D01*
X29365894Y-23954417D01*
X29365890Y-23954420D01*
X29235033Y-24065003D01*
X29235029Y-24065007D01*
X29229819Y-24069410D01*
X29225672Y-24074833D01*
X29225671Y-24074835D01*
X29121610Y-24210941D01*
X29121607Y-24210945D01*
X29117466Y-24216362D01*
X29039290Y-24384012D01*
X28998937Y-24564538D01*
X28998291Y-24749518D01*
X23350000Y-24749518D01*
X23350000Y-20799518D01*
X32008291Y-20799518D01*
X32009734Y-20806191D01*
X32009734Y-20806193D01*
X32045300Y-20970686D01*
X32047383Y-20980322D01*
X32124387Y-21148514D01*
X32128491Y-21153960D01*
X32128492Y-21153962D01*
X32206797Y-21257875D01*
X32235711Y-21296246D01*
X32376162Y-21416627D01*
X32452843Y-21457743D01*
X32533170Y-21500814D01*
X32533172Y-21500815D01*
X32539187Y-21504040D01*
X32545755Y-21505899D01*
X32545756Y-21505899D01*
X32609335Y-21523890D01*
X32717179Y-21554407D01*
X32723987Y-21554811D01*
X32723990Y-21554812D01*
X32876958Y-21563900D01*
X32901835Y-21565378D01*
X32982833Y-21552549D01*
X33077805Y-21537507D01*
X33077809Y-21537506D01*
X33084539Y-21536440D01*
X33090885Y-21533953D01*
X33090889Y-21533952D01*
X33250412Y-21471436D01*
X33250416Y-21471434D01*
X33256767Y-21468945D01*
X33303044Y-21437965D01*
X33404815Y-21369835D01*
X33404818Y-21369832D01*
X33410483Y-21366040D01*
X33538517Y-21232528D01*
X33544609Y-21222549D01*
X33619513Y-21099835D01*
X33634894Y-21074637D01*
X33648184Y-21036040D01*
X33692895Y-20906191D01*
X33692896Y-20906188D01*
X33695118Y-20899734D01*
X33704516Y-20818514D01*
X33715975Y-20719471D01*
X33715975Y-20719470D01*
X33716379Y-20715979D01*
X33716400Y-20710000D01*
X33715711Y-20703650D01*
X33704957Y-20604670D01*
X33696422Y-20526101D01*
X33663350Y-20427828D01*
X33639597Y-20357246D01*
X33639596Y-20357244D01*
X33637421Y-20350781D01*
X33542148Y-20192221D01*
X33415050Y-20057819D01*
X33343698Y-20009328D01*
X33276090Y-19963382D01*
X33262055Y-19953844D01*
X33255725Y-19951312D01*
X33255721Y-19951310D01*
X33096641Y-19887683D01*
X33090303Y-19885148D01*
X33083573Y-19884034D01*
X33083570Y-19884033D01*
X32914543Y-19856050D01*
X32914540Y-19856050D01*
X32907806Y-19854935D01*
X32900990Y-19855292D01*
X32900986Y-19855292D01*
X32780426Y-19861611D01*
X32723078Y-19864617D01*
X32716500Y-19866429D01*
X32716499Y-19866429D01*
X32551315Y-19911927D01*
X32551311Y-19911928D01*
X32544738Y-19913739D01*
X32538707Y-19916919D01*
X32538704Y-19916920D01*
X32498385Y-19938178D01*
X32381107Y-20000012D01*
X32375894Y-20004417D01*
X32375890Y-20004420D01*
X32245033Y-20115003D01*
X32245029Y-20115007D01*
X32239819Y-20119410D01*
X32235672Y-20124833D01*
X32235671Y-20124835D01*
X32131610Y-20260941D01*
X32131607Y-20260945D01*
X32127466Y-20266362D01*
X32049290Y-20434012D01*
X32008937Y-20614538D01*
X32008913Y-20621367D01*
X32008913Y-20621368D01*
X32008884Y-20629734D01*
X32008291Y-20799518D01*
X23350000Y-20799518D01*
X23350000Y-19385577D01*
X23370002Y-19317456D01*
X23414484Y-19278913D01*
X23413316Y-19277096D01*
X23528691Y-19202949D01*
X23528694Y-19202947D01*
X23536271Y-19198077D01*
X23564989Y-19164935D01*
X23626082Y-19094431D01*
X23626084Y-19094428D01*
X23631984Y-19087619D01*
X23692700Y-18954670D01*
X23700858Y-18897928D01*
X23712861Y-18814448D01*
X23712862Y-18814441D01*
X23713500Y-18810000D01*
X23713500Y-18727528D01*
X27692950Y-18727528D01*
X27711762Y-18897928D01*
X27770678Y-19058922D01*
X27774914Y-19065225D01*
X27774914Y-19065226D01*
X27859610Y-19191267D01*
X27866295Y-19201216D01*
X27871914Y-19206329D01*
X27871915Y-19206330D01*
X27986589Y-19310675D01*
X27993094Y-19316594D01*
X27999767Y-19320217D01*
X28137077Y-19394771D01*
X28137079Y-19394772D01*
X28143754Y-19398396D01*
X28151103Y-19400324D01*
X28302228Y-19439971D01*
X28302230Y-19439971D01*
X28309578Y-19441899D01*
X28397050Y-19443273D01*
X28473393Y-19444472D01*
X28473396Y-19444472D01*
X28480992Y-19444591D01*
X28488396Y-19442895D01*
X28488398Y-19442895D01*
X28553991Y-19427872D01*
X28648101Y-19406318D01*
X28801256Y-19329289D01*
X28931616Y-19217951D01*
X28948172Y-19194911D01*
X29027219Y-19084906D01*
X29027220Y-19084905D01*
X29031656Y-19078731D01*
X29095599Y-18919667D01*
X29119755Y-18749942D01*
X29119911Y-18735000D01*
X29118096Y-18719997D01*
X29106322Y-18622710D01*
X29099315Y-18564806D01*
X29038717Y-18404438D01*
X29005629Y-18356295D01*
X28945917Y-18269413D01*
X28945916Y-18269411D01*
X28941615Y-18263154D01*
X28935944Y-18258101D01*
X28819288Y-18154164D01*
X28819286Y-18154162D01*
X28813615Y-18149110D01*
X28806906Y-18145558D01*
X28806902Y-18145555D01*
X28668822Y-18072445D01*
X28668819Y-18072444D01*
X28662107Y-18068890D01*
X28626360Y-18059911D01*
X28503206Y-18028977D01*
X28503204Y-18028977D01*
X28495836Y-18027126D01*
X28488238Y-18027086D01*
X28488236Y-18027086D01*
X28414252Y-18026699D01*
X28324403Y-18026229D01*
X28317024Y-18028001D01*
X28317020Y-18028001D01*
X28165084Y-18064477D01*
X28165080Y-18064478D01*
X28157705Y-18066249D01*
X28005365Y-18144878D01*
X27999643Y-18149870D01*
X27999641Y-18149871D01*
X27944811Y-18197702D01*
X27876177Y-18257575D01*
X27777601Y-18397835D01*
X27715327Y-18557560D01*
X27714336Y-18565087D01*
X27694556Y-18715330D01*
X27692950Y-18727528D01*
X23713500Y-18727528D01*
X23713500Y-17910000D01*
X23708273Y-17836921D01*
X23684330Y-17755379D01*
X23669635Y-17705330D01*
X23669634Y-17705328D01*
X23667096Y-17696684D01*
X23617185Y-17619021D01*
X23592949Y-17581309D01*
X23592947Y-17581306D01*
X23588077Y-17573729D01*
X23536696Y-17529207D01*
X23484427Y-17483915D01*
X23484426Y-17483914D01*
X23477619Y-17478016D01*
X23469430Y-17474276D01*
X23469422Y-17474271D01*
X23423657Y-17453371D01*
X23370002Y-17406878D01*
X23350000Y-17338758D01*
X23350000Y-16131040D01*
X23370002Y-16062919D01*
X23423658Y-16016426D01*
X23476040Y-16005040D01*
X23524740Y-16005055D01*
G37*
%TD.AperFunction*%
%TD*%
M02*
