%TF.GenerationSoftware,KiCad,Pcbnew,(5.99.0-9634-gb691c18bfc)*%
%TF.CreationDate,2021-03-06T19:44:37+01:00*%
%TF.ProjectId,nRF52840Breakout,6e524635-3238-4343-9042-7265616b6f75,rev?*%
%TF.SameCoordinates,Original*%
%TF.FileFunction,Copper,L3,Inr*%
%TF.FilePolarity,Positive*%
%FSLAX46Y46*%
G04 Gerber Fmt 4.6, Leading zero omitted, Abs format (unit mm)*
G04 Created by KiCad (PCBNEW (5.99.0-9634-gb691c18bfc)) date 2021-03-06 19:44:37*
%MOMM*%
%LPD*%
G01*
G04 APERTURE LIST*
%TA.AperFunction,ComponentPad*%
%ADD10R,0.600000X0.800000*%
%TD*%
%TA.AperFunction,ComponentPad*%
%ADD11R,0.800000X0.600000*%
%TD*%
%TA.AperFunction,ComponentPad*%
%ADD12R,0.500000X0.900000*%
%TD*%
%TA.AperFunction,ViaPad*%
%ADD13C,0.685800*%
%TD*%
%TA.AperFunction,ViaPad*%
%ADD14C,0.400000*%
%TD*%
%TA.AperFunction,Conductor*%
%ADD15C,0.127000*%
%TD*%
G04 APERTURE END LIST*
D10*
%TO.N,Net-(J2-Pad1)*%
%TO.C,J2*%
X7900000Y0D03*
%TO.N,Net-(J2-Pad2)*%
X8900000Y0D03*
%TO.N,Net-(J2-Pad3)*%
X9900000Y0D03*
%TO.N,Net-(J2-Pad4)*%
X10900000Y0D03*
%TO.N,Net-(J2-Pad5)*%
X11900000Y0D03*
%TO.N,Net-(J2-Pad6)*%
X12900000Y0D03*
%TO.N,Net-(J2-Pad7)*%
X13900000Y0D03*
%TO.N,Net-(J2-Pad8)*%
X14900000Y0D03*
%TO.N,Net-(J2-Pad9)*%
X15900000Y0D03*
%TO.N,GND*%
X16900000Y0D03*
%TO.N,Net-(J2-Pad11)*%
X17900000Y0D03*
%TO.N,Net-(J2-Pad12)*%
X18900000Y0D03*
%TO.N,Net-(J2-Pad13)*%
X19900000Y0D03*
%TO.N,Net-(J2-Pad14)*%
X20900000Y0D03*
%TO.N,Net-(J2-Pad15)*%
X21900000Y0D03*
%TO.N,Net-(J2-Pad16)*%
X22900000Y0D03*
%TO.N,SWDCLK*%
X23900000Y0D03*
%TO.N,SWDIO*%
X24900000Y0D03*
%TO.N,RST*%
X25900000Y0D03*
%TO.N,GND*%
X26900000Y0D03*
%TD*%
D11*
%TO.N,Net-(J3-Pad1)*%
%TO.C,J3*%
X30900000Y-3010000D03*
%TO.N,Net-(J3-Pad2)*%
X30900000Y-4010000D03*
%TO.N,Net-(J3-Pad3)*%
X30900000Y-5010000D03*
%TO.N,Net-(J3-Pad4)*%
X30900000Y-6010000D03*
%TO.N,Net-(J3-Pad5)*%
X30900000Y-7010000D03*
%TO.N,Net-(J3-Pad6)*%
X30900000Y-8010000D03*
%TO.N,Net-(J3-Pad7)*%
X30900000Y-9010000D03*
%TO.N,Net-(J3-Pad8)*%
X30900000Y-10010000D03*
%TO.N,Net-(J3-Pad9)*%
X30900000Y-11010000D03*
%TO.N,GND*%
X30900000Y-12010000D03*
%TO.N,VDD*%
X30900000Y-13010000D03*
%TO.N,VDDH*%
X30900000Y-14010000D03*
%TO.N,Net-(J3-Pad13)*%
X30900000Y-15010000D03*
%TO.N,Net-(J3-Pad14)*%
X30900000Y-16010000D03*
%TO.N,Net-(J3-Pad15)*%
X30900000Y-17010000D03*
%TO.N,Net-(J3-Pad16)*%
X30900000Y-18010000D03*
%TO.N,Net-(J3-Pad17)*%
X30900000Y-19010000D03*
%TO.N,Net-(J3-Pad18)*%
X30900000Y-20010000D03*
%TO.N,USB_D+*%
X30900000Y-21010000D03*
%TO.N,USB_D-*%
X30900000Y-22010000D03*
%TD*%
D12*
%TO.N,N/C*%
%TO.C,AE1*%
X5910000Y-2210000D03*
%TD*%
D10*
%TO.N,GND*%
%TO.C,J1*%
X7910000Y-25010000D03*
%TO.N,Net-(J1-Pad2)*%
X8910000Y-25010000D03*
%TO.N,Net-(J1-Pad3)*%
X9910000Y-25010000D03*
%TO.N,Net-(J1-Pad4)*%
X10910000Y-25010000D03*
%TO.N,Net-(J1-Pad5)*%
X11910000Y-25010000D03*
%TO.N,GND*%
X12910000Y-25010000D03*
%TO.N,VDD*%
X13910000Y-25010000D03*
%TO.N,Net-(J1-Pad8)*%
X14910000Y-25010000D03*
%TO.N,Net-(J1-Pad9)*%
X15910000Y-25010000D03*
%TO.N,Net-(J1-Pad10)*%
X16910000Y-25010000D03*
%TO.N,Net-(J1-Pad11)*%
X17910000Y-25010000D03*
%TO.N,Net-(J1-Pad12)*%
X18910000Y-25010000D03*
%TO.N,Net-(J1-Pad13)*%
X19910000Y-25010000D03*
%TO.N,Net-(J1-Pad14)*%
X20910000Y-25010000D03*
%TO.N,Net-(J1-Pad15)*%
X21910000Y-25010000D03*
%TO.N,Net-(J1-Pad16)*%
X22910000Y-25010000D03*
%TO.N,Net-(J1-Pad17)*%
X23910000Y-25010000D03*
%TO.N,Net-(J1-Pad18)*%
X24910000Y-25010000D03*
%TO.N,VBUS*%
X25910000Y-25010000D03*
%TO.N,GND*%
X26910000Y-25010000D03*
%TD*%
D13*
%TO.N,GND*%
X20310000Y-10410000D03*
X13210000Y-20010000D03*
X17810000Y-12610000D03*
D14*
X20030000Y-5700000D03*
D13*
X19110000Y-11510000D03*
X16610000Y-9310000D03*
X18849831Y-17110000D03*
X26920000Y-1190000D03*
X17810000Y-11510000D03*
X19110000Y-12610000D03*
X29680000Y-12030000D03*
X17810000Y-9310000D03*
D14*
X12900000Y-23910000D03*
D13*
X16610000Y-12610000D03*
X6760000Y-2210000D03*
X14337500Y-17810000D03*
D14*
X7900000Y-23940000D03*
X24710000Y-12590000D03*
D13*
X27390000Y-20130000D03*
X22510000Y-15320000D03*
X16910000Y-1070000D03*
X17810000Y-10410000D03*
X10510000Y-9610000D03*
X19110000Y-10410000D03*
X20310000Y-12610000D03*
X13910000Y-10210000D03*
X16610000Y-11510000D03*
X21396400Y-22370000D03*
D14*
X13310000Y-4660000D03*
D13*
X16610000Y-10410000D03*
X19110000Y-9310000D03*
X20310000Y-9310000D03*
X17610000Y-20510000D03*
X20310000Y-11510000D03*
X26900000Y-23850000D03*
D14*
X24240000Y-8920000D03*
D13*
%TO.N,VDD*%
X21880000Y-4290000D03*
X13910000Y-23710000D03*
X23940000Y-3380000D03*
X23930000Y-4230000D03*
D14*
X23190000Y-7070000D03*
D13*
X23900000Y-1760000D03*
X11410000Y-17710000D03*
X12810000Y-8510000D03*
D14*
X24200000Y-10770000D03*
D13*
X21910000Y-1760000D03*
X21930000Y-3430000D03*
D14*
X19930000Y-18600000D03*
D13*
%TO.N,DEC4_6*%
X11600000Y-11340000D03*
X15820000Y-4560000D03*
D14*
%TO.N,Net-(J1-Pad3)*%
X13880000Y-11840000D03*
%TO.N,Net-(J1-Pad5)*%
X15680000Y-11970000D03*
%TO.N,USB_D-*%
X21991113Y-13286263D03*
%TO.N,USB_D+*%
X22370000Y-12960000D03*
%TO.N,RST*%
X21180000Y-10970009D03*
X25840000Y-6040000D03*
%TO.N,Net-(J1-Pad8)*%
X17337000Y-15360000D03*
%TO.N,Net-(J1-Pad9)*%
X17430000Y-13720000D03*
%TO.N,Net-(J1-Pad10)*%
X17488969Y-16385099D03*
%TO.N,Net-(J1-Pad11)*%
X17929550Y-13698743D03*
%TO.N,Net-(J1-Pad12)*%
X18293050Y-15320000D03*
%TO.N,Net-(J1-Pad13)*%
X18430000Y-13720000D03*
%TO.N,Net-(J1-Pad14)*%
X19090000Y-15230000D03*
%TO.N,Net-(J1-Pad15)*%
X18930003Y-13720000D03*
%TO.N,Net-(J1-Pad16)*%
X19703387Y-14796139D03*
%TO.N,Net-(J2-Pad4)*%
X15680000Y-10469991D03*
%TO.N,Net-(J2-Pad3)*%
X13120000Y-11480000D03*
%TO.N,Net-(J2-Pad2)*%
X15680000Y-10969994D03*
%TO.N,Net-(J2-Pad1)*%
X15680000Y-11469997D03*
%TO.N,Net-(J1-Pad2)*%
X14416935Y-12360980D03*
%TO.N,Net-(J1-Pad17)*%
X19680000Y-14220000D03*
%TO.N,Net-(J1-Pad18)*%
X19910000Y-13720000D03*
%TO.N,Net-(J1-Pad4)*%
X15180000Y-11720000D03*
%TO.N,Net-(J2-Pad5)*%
X11366411Y-2585000D03*
X11360000Y-10230000D03*
%TO.N,Net-(J2-Pad6)*%
X15680000Y-9969988D03*
%TO.N,Net-(J2-Pad7)*%
X15360000Y-1450000D03*
X15630000Y-8960000D03*
%TO.N,Net-(J2-Pad8)*%
X14580000Y-9220000D03*
%TO.N,Net-(J2-Pad12)*%
X18280000Y-8230000D03*
%TO.N,Net-(J2-Pad14)*%
X19430000Y-8220000D03*
%TO.N,Net-(J2-Pad15)*%
X19793500Y-7170000D03*
%TO.N,Net-(J2-Pad16)*%
X19930000Y-8220000D03*
%TO.N,Net-(J3-Pad1)*%
X23220000Y-8590000D03*
%TO.N,Net-(J3-Pad2)*%
X21198380Y-8544902D03*
D13*
%TO.N,VBUS*%
X24470000Y-16470000D03*
D14*
%TO.N,Net-(J3-Pad3)*%
X22540718Y-8962782D03*
%TO.N,Net-(J3-Pad4)*%
X21180000Y-9470000D03*
%TO.N,Net-(J3-Pad5)*%
X24070000Y-10210000D03*
%TO.N,Net-(J3-Pad6)*%
X21180000Y-9970003D03*
%TO.N,Net-(J3-Pad7)*%
X22210000Y-10230000D03*
%TO.N,Net-(J3-Pad8)*%
X20236459Y-7779106D03*
X25080000Y-7000000D03*
%TO.N,Net-(J3-Pad9)*%
X24480000Y-7040000D03*
X20810000Y-8230000D03*
%TO.N,Net-(J3-Pad13)*%
X21180000Y-10470006D03*
%TO.N,Net-(J3-Pad14)*%
X23740000Y-12163500D03*
%TO.N,Net-(J3-Pad15)*%
X21180000Y-11470012D03*
%TO.N,Net-(J3-Pad16)*%
X23827966Y-13362034D03*
%TO.N,Net-(J3-Pad17)*%
X21180000Y-11970015D03*
%TO.N,Net-(J3-Pad18)*%
X23050932Y-13099068D03*
%TD*%
D15*
%TO.N,RST*%
X22000966Y-10970009D02*
X23876489Y-9094486D01*
X25840000Y-6782003D02*
X25840000Y-6040000D01*
X21180000Y-10970009D02*
X22000966Y-10970009D01*
X23876489Y-8745514D02*
X25840000Y-6782003D01*
X23876489Y-9094486D02*
X23876489Y-8745514D01*
%TO.N,Net-(J2-Pad4)*%
X11729922Y-1989922D02*
X10900000Y-1160000D01*
X15680000Y-10469991D02*
X14399498Y-10469991D01*
X14153078Y-10716411D02*
X13666922Y-10716411D01*
X11729922Y-8779411D02*
X11729922Y-1989922D01*
X13666922Y-10716411D02*
X11729922Y-8779411D01*
X14399498Y-10469991D02*
X14153078Y-10716411D01*
X10900000Y-1160000D02*
X10900000Y-63520D01*
%TO.N,Net-(J2-Pad2)*%
X9190000Y-290000D02*
X8963520Y-63520D01*
X9616489Y-10746489D02*
X9190000Y-10320000D01*
X11979483Y-10969994D02*
X11755978Y-10746489D01*
X9190000Y-10320000D02*
X9190000Y-290000D01*
X11755978Y-10746489D02*
X9616489Y-10746489D01*
X15680000Y-10969994D02*
X11979483Y-10969994D01*
%TO.N,Net-(J2-Pad1)*%
X14624486Y-11613511D02*
X14275514Y-11613511D01*
X14881508Y-11356489D02*
X14624486Y-11613511D01*
X15566492Y-11356489D02*
X14881508Y-11356489D01*
X14275514Y-11613511D02*
X14275514Y-11982483D01*
X8200000Y-300000D02*
X7963520Y-63520D01*
X15680000Y-11469997D02*
X15566492Y-11356489D01*
X9213511Y-12203511D02*
X8200000Y-11190000D01*
X8200000Y-11190000D02*
X8200000Y-300000D01*
X14275514Y-11982483D02*
X14054486Y-12203511D01*
X14054486Y-12203511D02*
X9213511Y-12203511D01*
%TO.N,Net-(J2-Pad5)*%
X11360000Y-9988589D02*
X11360000Y-10230000D01*
X11360000Y-2591411D02*
X11360000Y-10230000D01*
%TO.N,Net-(J2-Pad6)*%
X12303589Y-8983589D02*
X12303589Y-1756411D01*
X12900000Y-1160000D02*
X12900000Y-63520D01*
X12690000Y-9370000D02*
X12303589Y-8983589D01*
X12303589Y-1756411D02*
X12900000Y-1160000D01*
X13890000Y-9370000D02*
X12690000Y-9370000D01*
X14489988Y-9969988D02*
X13890000Y-9370000D01*
X15680000Y-9969988D02*
X14489988Y-9969988D01*
%TO.N,Net-(J2-Pad16)*%
X19600000Y-7660000D02*
X19726489Y-7533511D01*
X19600000Y-7840000D02*
X19600000Y-7660000D01*
X19793511Y-8033511D02*
X19600000Y-7840000D01*
X20620000Y-6930000D02*
X22900000Y-4650000D01*
X19930000Y-8220000D02*
X19793511Y-8083511D01*
X22900000Y-4650000D02*
X22900000Y-4420000D01*
X19793511Y-8083511D02*
X19793511Y-8033511D01*
X22900000Y-4650000D02*
X22900000Y-63520D01*
X19967986Y-7533511D02*
X20571497Y-6930000D01*
X20571497Y-6930000D02*
X20620000Y-6930000D01*
X19726489Y-7533511D02*
X19967986Y-7533511D01*
%TD*%
%TA.AperFunction,Conductor*%
%TO.N,VDD*%
G36*
X28817343Y-517330D02*
G01*
X28885457Y-537354D01*
X28931933Y-591025D01*
X28942014Y-661302D01*
X28912500Y-725873D01*
X28903875Y-734878D01*
X28883663Y-753992D01*
X28883661Y-753995D01*
X28878704Y-758682D01*
X28874869Y-764325D01*
X28777043Y-908273D01*
X28771682Y-916161D01*
X28769150Y-922490D01*
X28769149Y-922493D01*
X28711355Y-1066988D01*
X28700972Y-1092947D01*
X28694804Y-1130204D01*
X28671216Y-1272689D01*
X28669874Y-1280793D01*
X28670231Y-1287610D01*
X28670231Y-1287614D01*
X28675343Y-1385148D01*
X28679839Y-1470935D01*
X28681650Y-1477509D01*
X28681650Y-1477510D01*
X28724939Y-1634667D01*
X28730402Y-1654502D01*
X28819203Y-1822929D01*
X28823605Y-1828138D01*
X28823607Y-1828141D01*
X28877728Y-1892184D01*
X28942100Y-1968357D01*
X29093359Y-2084004D01*
X29236792Y-2150887D01*
X29251821Y-2157895D01*
X29265923Y-2164471D01*
X29272580Y-2165959D01*
X29446697Y-2204879D01*
X29446700Y-2204879D01*
X29451740Y-2206006D01*
X29456904Y-2206295D01*
X29456906Y-2206295D01*
X29457609Y-2206334D01*
X29460575Y-2206500D01*
X29596027Y-2206500D01*
X29600575Y-2206006D01*
X29634139Y-2202360D01*
X29739289Y-2190937D01*
X29919747Y-2130206D01*
X29947724Y-2113396D01*
X30057056Y-2047702D01*
X30082954Y-2032141D01*
X30170240Y-1949599D01*
X30233478Y-1917328D01*
X30304125Y-1924368D01*
X30359750Y-1968485D01*
X30382812Y-2041097D01*
X30382835Y-2096936D01*
X30382844Y-2120298D01*
X30362869Y-2188426D01*
X30309231Y-2234940D01*
X30298177Y-2239065D01*
X30295329Y-2240366D01*
X30286684Y-2242904D01*
X30267998Y-2254913D01*
X30171309Y-2317051D01*
X30171306Y-2317053D01*
X30163729Y-2321923D01*
X30157828Y-2328733D01*
X30073918Y-2425569D01*
X30073916Y-2425572D01*
X30068016Y-2432381D01*
X30007300Y-2565330D01*
X30006018Y-2574245D01*
X30006018Y-2574246D01*
X29987139Y-2705552D01*
X29987138Y-2705559D01*
X29986500Y-2710000D01*
X29986500Y-3310000D01*
X29991727Y-3383079D01*
X29993631Y-3389562D01*
X30017153Y-3469672D01*
X30017153Y-3540668D01*
X30011161Y-3556734D01*
X30011044Y-3557131D01*
X30007300Y-3565330D01*
X30006018Y-3574247D01*
X29987139Y-3705552D01*
X29987138Y-3705559D01*
X29986500Y-3710000D01*
X29986500Y-4310000D01*
X29991727Y-4383079D01*
X30017153Y-4469672D01*
X30017153Y-4540668D01*
X30011161Y-4556734D01*
X30011044Y-4557131D01*
X30007300Y-4565330D01*
X30006018Y-4574247D01*
X29987139Y-4705552D01*
X29987138Y-4705559D01*
X29986500Y-4710000D01*
X29986500Y-5310000D01*
X29991727Y-5383079D01*
X30017153Y-5469672D01*
X30017153Y-5540668D01*
X30011161Y-5556734D01*
X30011044Y-5557131D01*
X30007300Y-5565330D01*
X30006018Y-5574247D01*
X29987139Y-5705552D01*
X29987138Y-5705559D01*
X29986500Y-5710000D01*
X29986500Y-6310000D01*
X29991727Y-6383079D01*
X30014674Y-6461229D01*
X30017153Y-6469672D01*
X30017153Y-6540668D01*
X30011161Y-6556734D01*
X30011044Y-6557131D01*
X30007300Y-6565330D01*
X30006018Y-6574247D01*
X29987139Y-6705552D01*
X29987138Y-6705559D01*
X29986500Y-6710000D01*
X29986500Y-7310000D01*
X29991727Y-7383079D01*
X30010949Y-7448544D01*
X30017153Y-7469672D01*
X30017153Y-7540668D01*
X30011161Y-7556734D01*
X30011044Y-7557131D01*
X30007300Y-7565330D01*
X30006018Y-7574247D01*
X29987139Y-7705552D01*
X29987138Y-7705559D01*
X29986500Y-7710000D01*
X29986500Y-8310000D01*
X29991727Y-8383079D01*
X29994619Y-8392928D01*
X30017153Y-8469672D01*
X30017153Y-8540668D01*
X30011161Y-8556734D01*
X30011044Y-8557131D01*
X30007300Y-8565330D01*
X30006018Y-8574247D01*
X29987139Y-8705552D01*
X29987138Y-8705559D01*
X29986500Y-8710000D01*
X29986500Y-9310000D01*
X29991727Y-9383079D01*
X30005210Y-9428998D01*
X30017153Y-9469672D01*
X30017153Y-9540668D01*
X30011161Y-9556734D01*
X30011044Y-9557131D01*
X30007300Y-9565330D01*
X30006018Y-9574247D01*
X29987139Y-9705552D01*
X29987138Y-9705559D01*
X29986500Y-9710000D01*
X29986500Y-10310000D01*
X29991727Y-10383079D01*
X29997200Y-10401718D01*
X30017153Y-10469672D01*
X30017153Y-10540668D01*
X30011161Y-10556734D01*
X30011044Y-10557131D01*
X30007300Y-10565330D01*
X30006018Y-10574247D01*
X29987139Y-10705552D01*
X29987138Y-10705559D01*
X29986500Y-10710000D01*
X29986500Y-11069188D01*
X29966498Y-11137309D01*
X29912842Y-11183802D01*
X29839920Y-11193496D01*
X29781366Y-11183802D01*
X29734542Y-11176050D01*
X29734540Y-11176050D01*
X29727806Y-11174935D01*
X29720990Y-11175292D01*
X29720986Y-11175292D01*
X29600426Y-11181611D01*
X29543078Y-11184617D01*
X29536500Y-11186429D01*
X29536499Y-11186429D01*
X29371315Y-11231927D01*
X29371311Y-11231928D01*
X29364738Y-11233739D01*
X29358707Y-11236919D01*
X29358704Y-11236920D01*
X29341130Y-11246186D01*
X29201107Y-11320012D01*
X29195894Y-11324417D01*
X29195890Y-11324420D01*
X29065033Y-11435003D01*
X29065029Y-11435007D01*
X29059819Y-11439410D01*
X29055672Y-11444833D01*
X29055671Y-11444835D01*
X28951610Y-11580941D01*
X28951607Y-11580945D01*
X28947466Y-11586362D01*
X28869290Y-11754012D01*
X28828937Y-11934538D01*
X28828913Y-11941367D01*
X28828913Y-11941368D01*
X28828827Y-11965922D01*
X28828291Y-12119518D01*
X28829734Y-12126191D01*
X28829734Y-12126193D01*
X28859768Y-12265101D01*
X28867383Y-12300322D01*
X28944387Y-12468514D01*
X28948491Y-12473960D01*
X28948492Y-12473962D01*
X29002511Y-12545647D01*
X29055711Y-12616246D01*
X29060890Y-12620685D01*
X29060891Y-12620686D01*
X29150694Y-12697656D01*
X29196162Y-12736627D01*
X29268681Y-12775511D01*
X29353170Y-12820814D01*
X29353172Y-12820815D01*
X29359187Y-12824040D01*
X29365755Y-12825899D01*
X29365756Y-12825899D01*
X29464253Y-12853771D01*
X29537179Y-12874407D01*
X29543987Y-12874811D01*
X29543990Y-12874812D01*
X29696958Y-12883900D01*
X29721835Y-12885378D01*
X29802833Y-12872549D01*
X29897805Y-12857507D01*
X29897809Y-12857506D01*
X29904539Y-12856440D01*
X29910885Y-12853953D01*
X29910889Y-12853952D01*
X30070412Y-12791436D01*
X30070416Y-12791434D01*
X30076767Y-12788945D01*
X30082434Y-12785151D01*
X30082442Y-12785147D01*
X30094169Y-12777296D01*
X30164262Y-12756000D01*
X30225663Y-12756000D01*
X30278006Y-12767387D01*
X30313498Y-12783596D01*
X30367153Y-12830089D01*
X30387155Y-12898159D01*
X30387243Y-13119005D01*
X30367268Y-13187134D01*
X30313631Y-13233648D01*
X30296741Y-13239951D01*
X30295330Y-13240365D01*
X30295328Y-13240366D01*
X30286684Y-13242904D01*
X30279105Y-13247775D01*
X30270904Y-13251520D01*
X30269539Y-13248530D01*
X30216861Y-13264000D01*
X30005115Y-13264000D01*
X29989876Y-13268475D01*
X29988671Y-13269865D01*
X29987000Y-13277548D01*
X29987000Y-13307743D01*
X29987161Y-13312250D01*
X29991740Y-13376269D01*
X29994125Y-13389488D01*
X30017467Y-13468983D01*
X30017467Y-13539980D01*
X30011182Y-13556829D01*
X30007300Y-13565330D01*
X30006018Y-13574245D01*
X30006018Y-13574246D01*
X29987139Y-13705552D01*
X29987138Y-13705559D01*
X29986500Y-13710000D01*
X29986500Y-14310000D01*
X29991727Y-14383079D01*
X30017153Y-14469672D01*
X30017153Y-14540668D01*
X30011161Y-14556734D01*
X30011044Y-14557131D01*
X30007300Y-14565330D01*
X30006018Y-14574247D01*
X29987139Y-14705552D01*
X29987138Y-14705559D01*
X29986500Y-14710000D01*
X29986500Y-15310000D01*
X29991727Y-15383079D01*
X30017000Y-15469152D01*
X30017153Y-15469672D01*
X30017153Y-15540668D01*
X30011161Y-15556734D01*
X30011044Y-15557131D01*
X30007300Y-15565330D01*
X30006018Y-15574247D01*
X29987139Y-15705552D01*
X29987138Y-15705559D01*
X29986500Y-15710000D01*
X29986500Y-16310000D01*
X29991727Y-16383079D01*
X30012546Y-16453981D01*
X30017153Y-16469672D01*
X30017153Y-16540668D01*
X30011161Y-16556734D01*
X30011044Y-16557131D01*
X30007300Y-16565330D01*
X30006018Y-16574247D01*
X29987139Y-16705552D01*
X29987138Y-16705559D01*
X29986500Y-16710000D01*
X29986500Y-17310000D01*
X29991727Y-17383079D01*
X30011606Y-17450781D01*
X30017153Y-17469672D01*
X30017153Y-17540668D01*
X30011161Y-17556734D01*
X30011044Y-17557131D01*
X30007300Y-17565330D01*
X30006018Y-17574247D01*
X29987139Y-17705552D01*
X29987138Y-17705559D01*
X29986500Y-17710000D01*
X29986500Y-18310000D01*
X29991727Y-18383079D01*
X30017153Y-18469672D01*
X30017153Y-18540668D01*
X30011161Y-18556734D01*
X30011044Y-18557131D01*
X30007300Y-18565330D01*
X30006018Y-18574247D01*
X29987139Y-18705552D01*
X29987138Y-18705559D01*
X29986500Y-18710000D01*
X29986500Y-19310000D01*
X29991727Y-19383079D01*
X30003866Y-19424420D01*
X30017153Y-19469672D01*
X30017153Y-19540668D01*
X30011161Y-19556734D01*
X30011044Y-19557131D01*
X30007300Y-19565330D01*
X30006018Y-19574247D01*
X29987139Y-19705552D01*
X29987138Y-19705559D01*
X29986500Y-19710000D01*
X29986500Y-20310000D01*
X29991727Y-20383079D01*
X30012540Y-20453962D01*
X30017153Y-20469672D01*
X30017153Y-20540668D01*
X30011161Y-20556734D01*
X30011044Y-20557131D01*
X30007300Y-20565330D01*
X30006018Y-20574247D01*
X29987139Y-20705552D01*
X29987138Y-20705559D01*
X29986500Y-20710000D01*
X29986500Y-21310000D01*
X29991727Y-21383079D01*
X29993631Y-21389562D01*
X30017153Y-21469672D01*
X30017153Y-21540668D01*
X30011161Y-21556734D01*
X30011044Y-21557131D01*
X30007300Y-21565330D01*
X30006018Y-21574247D01*
X29987139Y-21705552D01*
X29987138Y-21705559D01*
X29986500Y-21710000D01*
X29986500Y-22310000D01*
X29991727Y-22383079D01*
X30032904Y-22523316D01*
X30037775Y-22530895D01*
X30107051Y-22638691D01*
X30107053Y-22638694D01*
X30111923Y-22646271D01*
X30118733Y-22652172D01*
X30215569Y-22736082D01*
X30215572Y-22736084D01*
X30222381Y-22741984D01*
X30230578Y-22745728D01*
X30230582Y-22745730D01*
X30317499Y-22785424D01*
X30371154Y-22831917D01*
X30391156Y-22899987D01*
X30391747Y-24375950D01*
X30371772Y-24444078D01*
X30318135Y-24490593D01*
X30265747Y-24502000D01*
X27802342Y-24502000D01*
X27734221Y-24481998D01*
X27687728Y-24428342D01*
X27681446Y-24411500D01*
X27677096Y-24396684D01*
X27661647Y-24372645D01*
X27641645Y-24304524D01*
X27660096Y-24238880D01*
X27674894Y-24214637D01*
X27679501Y-24201257D01*
X27732895Y-24046191D01*
X27732896Y-24046188D01*
X27735118Y-24039734D01*
X27737073Y-24022842D01*
X27755975Y-23859471D01*
X27755975Y-23859470D01*
X27756379Y-23855979D01*
X27756400Y-23850000D01*
X27736422Y-23666101D01*
X27677421Y-23490781D01*
X27582148Y-23332221D01*
X27575198Y-23324871D01*
X27488320Y-23233001D01*
X27455050Y-23197819D01*
X27369990Y-23140012D01*
X27307698Y-23097679D01*
X27302055Y-23093844D01*
X27295725Y-23091312D01*
X27295721Y-23091310D01*
X27136641Y-23027683D01*
X27130303Y-23025148D01*
X27123573Y-23024034D01*
X27123570Y-23024033D01*
X26954543Y-22996050D01*
X26954540Y-22996050D01*
X26947806Y-22994935D01*
X26940990Y-22995292D01*
X26940986Y-22995292D01*
X26820426Y-23001611D01*
X26763078Y-23004617D01*
X26756500Y-23006429D01*
X26756499Y-23006429D01*
X26591315Y-23051927D01*
X26591311Y-23051928D01*
X26584738Y-23053739D01*
X26578707Y-23056919D01*
X26578704Y-23056920D01*
X26520051Y-23087845D01*
X26421107Y-23140012D01*
X26415894Y-23144417D01*
X26415890Y-23144420D01*
X26285033Y-23255003D01*
X26285029Y-23255007D01*
X26279819Y-23259410D01*
X26275672Y-23264833D01*
X26275671Y-23264835D01*
X26171610Y-23400941D01*
X26171607Y-23400945D01*
X26167466Y-23406362D01*
X26089290Y-23574012D01*
X26048937Y-23754538D01*
X26048291Y-23939518D01*
X26049734Y-23946194D01*
X26050447Y-23952974D01*
X26048554Y-23953173D01*
X26044083Y-24014672D01*
X26001469Y-24071457D01*
X25934920Y-24096189D01*
X25926079Y-24096500D01*
X25610000Y-24096500D01*
X25536921Y-24101727D01*
X25450328Y-24127153D01*
X25379332Y-24127153D01*
X25363266Y-24121161D01*
X25362869Y-24121044D01*
X25354670Y-24117300D01*
X25334947Y-24114464D01*
X25214448Y-24097139D01*
X25214441Y-24097138D01*
X25210000Y-24096500D01*
X24610000Y-24096500D01*
X24536921Y-24101727D01*
X24450328Y-24127153D01*
X24379332Y-24127153D01*
X24363266Y-24121161D01*
X24362869Y-24121044D01*
X24354670Y-24117300D01*
X24334947Y-24114464D01*
X24214448Y-24097139D01*
X24214441Y-24097138D01*
X24210000Y-24096500D01*
X23610000Y-24096500D01*
X23536921Y-24101727D01*
X23450328Y-24127153D01*
X23379332Y-24127153D01*
X23363266Y-24121161D01*
X23362869Y-24121044D01*
X23354670Y-24117300D01*
X23334947Y-24114464D01*
X23214448Y-24097139D01*
X23214441Y-24097138D01*
X23210000Y-24096500D01*
X22610000Y-24096500D01*
X22536921Y-24101727D01*
X22450328Y-24127153D01*
X22379332Y-24127153D01*
X22363266Y-24121161D01*
X22362869Y-24121044D01*
X22354670Y-24117300D01*
X22334947Y-24114464D01*
X22214448Y-24097139D01*
X22214441Y-24097138D01*
X22210000Y-24096500D01*
X21610000Y-24096500D01*
X21536921Y-24101727D01*
X21450328Y-24127153D01*
X21379332Y-24127153D01*
X21363266Y-24121161D01*
X21362869Y-24121044D01*
X21354670Y-24117300D01*
X21334947Y-24114464D01*
X21214448Y-24097139D01*
X21214441Y-24097138D01*
X21210000Y-24096500D01*
X20610000Y-24096500D01*
X20536921Y-24101727D01*
X20450328Y-24127153D01*
X20379332Y-24127153D01*
X20363266Y-24121161D01*
X20362869Y-24121044D01*
X20354670Y-24117300D01*
X20334947Y-24114464D01*
X20214448Y-24097139D01*
X20214441Y-24097138D01*
X20210000Y-24096500D01*
X19610000Y-24096500D01*
X19536921Y-24101727D01*
X19450328Y-24127153D01*
X19379332Y-24127153D01*
X19363266Y-24121161D01*
X19362869Y-24121044D01*
X19354670Y-24117300D01*
X19334947Y-24114464D01*
X19214448Y-24097139D01*
X19214441Y-24097138D01*
X19210000Y-24096500D01*
X18610000Y-24096500D01*
X18536921Y-24101727D01*
X18450328Y-24127153D01*
X18379332Y-24127153D01*
X18363266Y-24121161D01*
X18362869Y-24121044D01*
X18354670Y-24117300D01*
X18334947Y-24114464D01*
X18214448Y-24097139D01*
X18214441Y-24097138D01*
X18210000Y-24096500D01*
X17610000Y-24096500D01*
X17536921Y-24101727D01*
X17450328Y-24127153D01*
X17379332Y-24127153D01*
X17363266Y-24121161D01*
X17362869Y-24121044D01*
X17354670Y-24117300D01*
X17334947Y-24114464D01*
X17214448Y-24097139D01*
X17214441Y-24097138D01*
X17210000Y-24096500D01*
X16610000Y-24096500D01*
X16536921Y-24101727D01*
X16450328Y-24127153D01*
X16379332Y-24127153D01*
X16363266Y-24121161D01*
X16362869Y-24121044D01*
X16354670Y-24117300D01*
X16334947Y-24114464D01*
X16214448Y-24097139D01*
X16214441Y-24097138D01*
X16210000Y-24096500D01*
X15610000Y-24096500D01*
X15536921Y-24101727D01*
X15450328Y-24127153D01*
X15379332Y-24127153D01*
X15363266Y-24121161D01*
X15362869Y-24121044D01*
X15354670Y-24117300D01*
X15334947Y-24114464D01*
X15214448Y-24097139D01*
X15214441Y-24097138D01*
X15210000Y-24096500D01*
X14610000Y-24096500D01*
X14536921Y-24101727D01*
X14449602Y-24127366D01*
X14378607Y-24127366D01*
X14363737Y-24121820D01*
X14345612Y-24116498D01*
X14214446Y-24097639D01*
X14205505Y-24097000D01*
X14182115Y-24097000D01*
X14166876Y-24101475D01*
X14165671Y-24102865D01*
X14164000Y-24110548D01*
X14164000Y-24335663D01*
X14152615Y-24388002D01*
X14134191Y-24428345D01*
X14087700Y-24481998D01*
X14019579Y-24502000D01*
X13802342Y-24502000D01*
X13734221Y-24481998D01*
X13687728Y-24428342D01*
X13681446Y-24411500D01*
X13677096Y-24396684D01*
X13672225Y-24389104D01*
X13668480Y-24380904D01*
X13671470Y-24379539D01*
X13656000Y-24326861D01*
X13656000Y-24115115D01*
X13651525Y-24099876D01*
X13647280Y-24096197D01*
X13608897Y-24036471D01*
X13605050Y-23983220D01*
X13612763Y-23929024D01*
X13613344Y-23924942D01*
X13613500Y-23910000D01*
X13611685Y-23894997D01*
X13596534Y-23769806D01*
X13592904Y-23739806D01*
X13532306Y-23579438D01*
X13456262Y-23468793D01*
X13439506Y-23444413D01*
X13439505Y-23444411D01*
X13435204Y-23438154D01*
X13429533Y-23433101D01*
X13312877Y-23329164D01*
X13312875Y-23329162D01*
X13307204Y-23324110D01*
X13300495Y-23320558D01*
X13300491Y-23320555D01*
X13162411Y-23247445D01*
X13162408Y-23247444D01*
X13155696Y-23243890D01*
X13138127Y-23239477D01*
X12996795Y-23203977D01*
X12996793Y-23203977D01*
X12989425Y-23202126D01*
X12981827Y-23202086D01*
X12981825Y-23202086D01*
X12907841Y-23201699D01*
X12817992Y-23201229D01*
X12810613Y-23203001D01*
X12810609Y-23203001D01*
X12658673Y-23239477D01*
X12658669Y-23239478D01*
X12651294Y-23241249D01*
X12498954Y-23319878D01*
X12493232Y-23324870D01*
X12493230Y-23324871D01*
X12464564Y-23349878D01*
X12369766Y-23432575D01*
X12271190Y-23572835D01*
X12208916Y-23732560D01*
X12207925Y-23740087D01*
X12192208Y-23859471D01*
X12186539Y-23902528D01*
X12192517Y-23956673D01*
X12180111Y-24026577D01*
X12131882Y-24078677D01*
X12067278Y-24096500D01*
X11610000Y-24096500D01*
X11536921Y-24101727D01*
X11450328Y-24127153D01*
X11379332Y-24127153D01*
X11363266Y-24121161D01*
X11362869Y-24121044D01*
X11354670Y-24117300D01*
X11334947Y-24114464D01*
X11214448Y-24097139D01*
X11214441Y-24097138D01*
X11210000Y-24096500D01*
X10610000Y-24096500D01*
X10536921Y-24101727D01*
X10450328Y-24127153D01*
X10379332Y-24127153D01*
X10363266Y-24121161D01*
X10362869Y-24121044D01*
X10354670Y-24117300D01*
X10334947Y-24114464D01*
X10214448Y-24097139D01*
X10214441Y-24097138D01*
X10210000Y-24096500D01*
X9610000Y-24096500D01*
X9536921Y-24101727D01*
X9450328Y-24127153D01*
X9379332Y-24127153D01*
X9363266Y-24121161D01*
X9362869Y-24121044D01*
X9354670Y-24117300D01*
X9334947Y-24114464D01*
X9214448Y-24097139D01*
X9214441Y-24097138D01*
X9210000Y-24096500D01*
X8738254Y-24096500D01*
X8670133Y-24076498D01*
X8623640Y-24022842D01*
X8612617Y-23960947D01*
X8612763Y-23959021D01*
X8613344Y-23954942D01*
X8613500Y-23940000D01*
X8612616Y-23932689D01*
X8593816Y-23777346D01*
X8592904Y-23769806D01*
X8532306Y-23609438D01*
X8502877Y-23566619D01*
X8439506Y-23474413D01*
X8439505Y-23474411D01*
X8435204Y-23468154D01*
X8429533Y-23463101D01*
X8312877Y-23359164D01*
X8312875Y-23359162D01*
X8307204Y-23354110D01*
X8300495Y-23350558D01*
X8300491Y-23350555D01*
X8162411Y-23277445D01*
X8162408Y-23277444D01*
X8155696Y-23273890D01*
X8138127Y-23269477D01*
X7996795Y-23233977D01*
X7996793Y-23233977D01*
X7989425Y-23232126D01*
X7981827Y-23232086D01*
X7981825Y-23232086D01*
X7907841Y-23231699D01*
X7817992Y-23231229D01*
X7810613Y-23233001D01*
X7810609Y-23233001D01*
X7658673Y-23269477D01*
X7658669Y-23269478D01*
X7651294Y-23271249D01*
X7498954Y-23349878D01*
X7493232Y-23354870D01*
X7493230Y-23354871D01*
X7397028Y-23438793D01*
X7369766Y-23462575D01*
X7271190Y-23602835D01*
X7208916Y-23762560D01*
X7207925Y-23770087D01*
X7187538Y-23924942D01*
X7186539Y-23932528D01*
X7205351Y-24102928D01*
X7207959Y-24110054D01*
X7207960Y-24110059D01*
X7230759Y-24172359D01*
X7235385Y-24243204D01*
X7207658Y-24298172D01*
X7188865Y-24319860D01*
X7178016Y-24332381D01*
X7174272Y-24340579D01*
X7134192Y-24428342D01*
X7087699Y-24481998D01*
X7019578Y-24502000D01*
X6436000Y-24502000D01*
X6367879Y-24481998D01*
X6321386Y-24428342D01*
X6310000Y-24376000D01*
X6310000Y-22459518D01*
X20544691Y-22459518D01*
X20546134Y-22466191D01*
X20546134Y-22466193D01*
X20560124Y-22530895D01*
X20583783Y-22640322D01*
X20660787Y-22808514D01*
X20664891Y-22813960D01*
X20664892Y-22813962D01*
X20729717Y-22899987D01*
X20772111Y-22956246D01*
X20777290Y-22960685D01*
X20777291Y-22960686D01*
X20830661Y-23006429D01*
X20912562Y-23076627D01*
X20939946Y-23091310D01*
X21069570Y-23160814D01*
X21069572Y-23160815D01*
X21075587Y-23164040D01*
X21082155Y-23165899D01*
X21082156Y-23165899D01*
X21210038Y-23202086D01*
X21253579Y-23214407D01*
X21260387Y-23214811D01*
X21260390Y-23214812D01*
X21413358Y-23223900D01*
X21438235Y-23225378D01*
X21519233Y-23212549D01*
X21614205Y-23197507D01*
X21614209Y-23197506D01*
X21620939Y-23196440D01*
X21627285Y-23193953D01*
X21627289Y-23193952D01*
X21786812Y-23131436D01*
X21786816Y-23131434D01*
X21793167Y-23128945D01*
X21849385Y-23091310D01*
X21941215Y-23029835D01*
X21941218Y-23029832D01*
X21946883Y-23026040D01*
X22074917Y-22892528D01*
X22171294Y-22734637D01*
X22206067Y-22633650D01*
X22229295Y-22566191D01*
X22229296Y-22566188D01*
X22231518Y-22559734D01*
X22243904Y-22452689D01*
X22252375Y-22379471D01*
X22252375Y-22379470D01*
X22252779Y-22375979D01*
X22252800Y-22370000D01*
X22232822Y-22186101D01*
X22173821Y-22010781D01*
X22078548Y-21852221D01*
X21951450Y-21717819D01*
X21866390Y-21660012D01*
X21804098Y-21617679D01*
X21798455Y-21613844D01*
X21792125Y-21611312D01*
X21792121Y-21611310D01*
X21633041Y-21547683D01*
X21626703Y-21545148D01*
X21619973Y-21544034D01*
X21619970Y-21544033D01*
X21450943Y-21516050D01*
X21450940Y-21516050D01*
X21444206Y-21514935D01*
X21437390Y-21515292D01*
X21437386Y-21515292D01*
X21316826Y-21521611D01*
X21259478Y-21524617D01*
X21252900Y-21526429D01*
X21252899Y-21526429D01*
X21087715Y-21571927D01*
X21087711Y-21571928D01*
X21081138Y-21573739D01*
X21075107Y-21576919D01*
X21075104Y-21576920D01*
X21016451Y-21607845D01*
X20917507Y-21660012D01*
X20912294Y-21664417D01*
X20912290Y-21664420D01*
X20781433Y-21775003D01*
X20781429Y-21775007D01*
X20776219Y-21779410D01*
X20772072Y-21784833D01*
X20772071Y-21784835D01*
X20668010Y-21920941D01*
X20668007Y-21920945D01*
X20663866Y-21926362D01*
X20585690Y-22094012D01*
X20545337Y-22274538D01*
X20544691Y-22459518D01*
X6310000Y-22459518D01*
X6310000Y-20099518D01*
X12358291Y-20099518D01*
X12359734Y-20106191D01*
X12359734Y-20106193D01*
X12388811Y-20240675D01*
X12397383Y-20280322D01*
X12474387Y-20448514D01*
X12478491Y-20453960D01*
X12478492Y-20453962D01*
X12543830Y-20540668D01*
X12585711Y-20596246D01*
X12590890Y-20600685D01*
X12590891Y-20600686D01*
X12713241Y-20705552D01*
X12726162Y-20716627D01*
X12816364Y-20764993D01*
X12883170Y-20800814D01*
X12883172Y-20800815D01*
X12889187Y-20804040D01*
X12895755Y-20805899D01*
X12895756Y-20805899D01*
X12988645Y-20832184D01*
X13067179Y-20854407D01*
X13073987Y-20854811D01*
X13073990Y-20854812D01*
X13226958Y-20863900D01*
X13251835Y-20865378D01*
X13332833Y-20852549D01*
X13427805Y-20837507D01*
X13427809Y-20837506D01*
X13434539Y-20836440D01*
X13440885Y-20833953D01*
X13440889Y-20833952D01*
X13600412Y-20771436D01*
X13600416Y-20771434D01*
X13606767Y-20768945D01*
X13678855Y-20720686D01*
X13754815Y-20669835D01*
X13754818Y-20669832D01*
X13760483Y-20666040D01*
X13824276Y-20599518D01*
X16758291Y-20599518D01*
X16759734Y-20606191D01*
X16759734Y-20606193D01*
X16795462Y-20771436D01*
X16797383Y-20780322D01*
X16874387Y-20948514D01*
X16878491Y-20953960D01*
X16878492Y-20953962D01*
X16956797Y-21057875D01*
X16985711Y-21096246D01*
X17126162Y-21216627D01*
X17216364Y-21264993D01*
X17283170Y-21300814D01*
X17283172Y-21300815D01*
X17289187Y-21304040D01*
X17295755Y-21305899D01*
X17295756Y-21305899D01*
X17302273Y-21307743D01*
X17467179Y-21354407D01*
X17473987Y-21354811D01*
X17473990Y-21354812D01*
X17626958Y-21363900D01*
X17651835Y-21365378D01*
X17732833Y-21352549D01*
X17827805Y-21337507D01*
X17827809Y-21337506D01*
X17834539Y-21336440D01*
X17840885Y-21333953D01*
X17840889Y-21333952D01*
X18000412Y-21271436D01*
X18000416Y-21271434D01*
X18006767Y-21268945D01*
X18053044Y-21237965D01*
X18154815Y-21169835D01*
X18154818Y-21169832D01*
X18160483Y-21166040D01*
X18288517Y-21032528D01*
X18317298Y-20985378D01*
X18381334Y-20880469D01*
X18384894Y-20874637D01*
X18399512Y-20832184D01*
X18442895Y-20706191D01*
X18442896Y-20706188D01*
X18445118Y-20699734D01*
X18448578Y-20669835D01*
X18465975Y-20519471D01*
X18465975Y-20519470D01*
X18466379Y-20515979D01*
X18466400Y-20510000D01*
X18465883Y-20505236D01*
X18447159Y-20332888D01*
X18446422Y-20326101D01*
X18410553Y-20219518D01*
X26538291Y-20219518D01*
X26539734Y-20226191D01*
X26539734Y-20226193D01*
X26575057Y-20389562D01*
X26577383Y-20400322D01*
X26580224Y-20406527D01*
X26635245Y-20526703D01*
X26654387Y-20568514D01*
X26658491Y-20573960D01*
X26658492Y-20573962D01*
X26724168Y-20661116D01*
X26765711Y-20716246D01*
X26906162Y-20836627D01*
X26959783Y-20865378D01*
X27063170Y-20920814D01*
X27063172Y-20920815D01*
X27069187Y-20924040D01*
X27075755Y-20925899D01*
X27075756Y-20925899D01*
X27174893Y-20953952D01*
X27247179Y-20974407D01*
X27253987Y-20974811D01*
X27253990Y-20974812D01*
X27406958Y-20983900D01*
X27431835Y-20985378D01*
X27512833Y-20972549D01*
X27607805Y-20957507D01*
X27607809Y-20957506D01*
X27614539Y-20956440D01*
X27620885Y-20953953D01*
X27620889Y-20953952D01*
X27780412Y-20891436D01*
X27780416Y-20891434D01*
X27786767Y-20888945D01*
X27841134Y-20852549D01*
X27934815Y-20789835D01*
X27934818Y-20789832D01*
X27940483Y-20786040D01*
X28068517Y-20652528D01*
X28100162Y-20600686D01*
X28161334Y-20500469D01*
X28164894Y-20494637D01*
X28178900Y-20453962D01*
X28222895Y-20326191D01*
X28222896Y-20326188D01*
X28225118Y-20319734D01*
X28226506Y-20307743D01*
X28245975Y-20139471D01*
X28245975Y-20139470D01*
X28246379Y-20135979D01*
X28246400Y-20130000D01*
X28226422Y-19946101D01*
X28177258Y-19800012D01*
X28169597Y-19777246D01*
X28169596Y-19777244D01*
X28167421Y-19770781D01*
X28072148Y-19612221D01*
X27945050Y-19477819D01*
X27910988Y-19454670D01*
X27797698Y-19377679D01*
X27792055Y-19373844D01*
X27785725Y-19371312D01*
X27785721Y-19371310D01*
X27626641Y-19307683D01*
X27620303Y-19305148D01*
X27613573Y-19304034D01*
X27613570Y-19304033D01*
X27444543Y-19276050D01*
X27444540Y-19276050D01*
X27437806Y-19274935D01*
X27430990Y-19275292D01*
X27430986Y-19275292D01*
X27310426Y-19281611D01*
X27253078Y-19284617D01*
X27246500Y-19286429D01*
X27246499Y-19286429D01*
X27081315Y-19331927D01*
X27081311Y-19331928D01*
X27074738Y-19333739D01*
X27068707Y-19336919D01*
X27068704Y-19336920D01*
X27029066Y-19357819D01*
X26911107Y-19420012D01*
X26905894Y-19424417D01*
X26905890Y-19424420D01*
X26775033Y-19535003D01*
X26775029Y-19535007D01*
X26769819Y-19539410D01*
X26765672Y-19544833D01*
X26765671Y-19544835D01*
X26661610Y-19680941D01*
X26661607Y-19680945D01*
X26657466Y-19686362D01*
X26579290Y-19854012D01*
X26538937Y-20034538D01*
X26538291Y-20219518D01*
X18410553Y-20219518D01*
X18387421Y-20150781D01*
X18292148Y-19992221D01*
X18165050Y-19857819D01*
X18118379Y-19826101D01*
X18017698Y-19757679D01*
X18012055Y-19753844D01*
X18005725Y-19751312D01*
X18005721Y-19751310D01*
X17846641Y-19687683D01*
X17840303Y-19685148D01*
X17833573Y-19684034D01*
X17833570Y-19684033D01*
X17664543Y-19656050D01*
X17664540Y-19656050D01*
X17657806Y-19654935D01*
X17650990Y-19655292D01*
X17650986Y-19655292D01*
X17530426Y-19661611D01*
X17473078Y-19664617D01*
X17466500Y-19666429D01*
X17466499Y-19666429D01*
X17301315Y-19711927D01*
X17301311Y-19711928D01*
X17294738Y-19713739D01*
X17288707Y-19716919D01*
X17288704Y-19716920D01*
X17256287Y-19734012D01*
X17131107Y-19800012D01*
X17125894Y-19804417D01*
X17125890Y-19804420D01*
X16995033Y-19915003D01*
X16995029Y-19915007D01*
X16989819Y-19919410D01*
X16985672Y-19924833D01*
X16985671Y-19924835D01*
X16881610Y-20060941D01*
X16881607Y-20060945D01*
X16877466Y-20066362D01*
X16799290Y-20234012D01*
X16758937Y-20414538D01*
X16758291Y-20599518D01*
X13824276Y-20599518D01*
X13888517Y-20532528D01*
X13899361Y-20514764D01*
X13981334Y-20380469D01*
X13984894Y-20374637D01*
X14003799Y-20319734D01*
X14042895Y-20206191D01*
X14042896Y-20206188D01*
X14045118Y-20199734D01*
X14051459Y-20144935D01*
X14065975Y-20019471D01*
X14065975Y-20019470D01*
X14066379Y-20015979D01*
X14066400Y-20010000D01*
X14065105Y-19998073D01*
X14055305Y-19907872D01*
X14046422Y-19826101D01*
X14008863Y-19714496D01*
X13989597Y-19657246D01*
X13989596Y-19657244D01*
X13987421Y-19650781D01*
X13892148Y-19492221D01*
X13874900Y-19473981D01*
X13788937Y-19383079D01*
X13765050Y-19357819D01*
X13729618Y-19333739D01*
X13617698Y-19257679D01*
X13612055Y-19253844D01*
X13605725Y-19251312D01*
X13605721Y-19251310D01*
X13446641Y-19187683D01*
X13440303Y-19185148D01*
X13433573Y-19184034D01*
X13433570Y-19184033D01*
X13264543Y-19156050D01*
X13264540Y-19156050D01*
X13257806Y-19154935D01*
X13250990Y-19155292D01*
X13250986Y-19155292D01*
X13130426Y-19161611D01*
X13073078Y-19164617D01*
X13066500Y-19166429D01*
X13066499Y-19166429D01*
X12901315Y-19211927D01*
X12901311Y-19211928D01*
X12894738Y-19213739D01*
X12888707Y-19216919D01*
X12888704Y-19216920D01*
X12830051Y-19247845D01*
X12731107Y-19300012D01*
X12725894Y-19304417D01*
X12725890Y-19304420D01*
X12595033Y-19415003D01*
X12595029Y-19415007D01*
X12589819Y-19419410D01*
X12585672Y-19424833D01*
X12585671Y-19424835D01*
X12481610Y-19560941D01*
X12481607Y-19560945D01*
X12477466Y-19566362D01*
X12399290Y-19734012D01*
X12358937Y-19914538D01*
X12358291Y-20099518D01*
X6310000Y-20099518D01*
X6310000Y-17899518D01*
X13485791Y-17899518D01*
X13487234Y-17906191D01*
X13487234Y-17906193D01*
X13500031Y-17965378D01*
X13524883Y-18080322D01*
X13601887Y-18248514D01*
X13605991Y-18253960D01*
X13605992Y-18253962D01*
X13684297Y-18357875D01*
X13713211Y-18396246D01*
X13718390Y-18400685D01*
X13718391Y-18400686D01*
X13798879Y-18469672D01*
X13853662Y-18516627D01*
X13943864Y-18564993D01*
X14010670Y-18600814D01*
X14010672Y-18600815D01*
X14016687Y-18604040D01*
X14023255Y-18605899D01*
X14023256Y-18605899D01*
X14122393Y-18633952D01*
X14194679Y-18654407D01*
X14201487Y-18654811D01*
X14201490Y-18654812D01*
X14354458Y-18663900D01*
X14379335Y-18665378D01*
X14460333Y-18652549D01*
X14555305Y-18637507D01*
X14555309Y-18637506D01*
X14562039Y-18636440D01*
X14568385Y-18633953D01*
X14568389Y-18633952D01*
X14727912Y-18571436D01*
X14727916Y-18571434D01*
X14734267Y-18568945D01*
X14780544Y-18537965D01*
X14882315Y-18469835D01*
X14882318Y-18469832D01*
X14887983Y-18466040D01*
X14898887Y-18454670D01*
X15011295Y-18337452D01*
X15016017Y-18332528D01*
X15112394Y-18174637D01*
X15172618Y-17999734D01*
X15177863Y-17954407D01*
X15193475Y-17819471D01*
X15193475Y-17819470D01*
X15193879Y-17815979D01*
X15193900Y-17810000D01*
X15189125Y-17766040D01*
X15174659Y-17632888D01*
X15173922Y-17626101D01*
X15140850Y-17527828D01*
X15117097Y-17457246D01*
X15117096Y-17457244D01*
X15114921Y-17450781D01*
X15019648Y-17292221D01*
X14994757Y-17265899D01*
X14925525Y-17192689D01*
X14892550Y-17157819D01*
X14845789Y-17126040D01*
X14745198Y-17057679D01*
X14739555Y-17053844D01*
X14733225Y-17051312D01*
X14733221Y-17051310D01*
X14574141Y-16987683D01*
X14567803Y-16985148D01*
X14561073Y-16984034D01*
X14561070Y-16984033D01*
X14392043Y-16956050D01*
X14392040Y-16956050D01*
X14385306Y-16954935D01*
X14378490Y-16955292D01*
X14378486Y-16955292D01*
X14258465Y-16961583D01*
X14200578Y-16964617D01*
X14194000Y-16966429D01*
X14193999Y-16966429D01*
X14028815Y-17011927D01*
X14028811Y-17011928D01*
X14022238Y-17013739D01*
X14016207Y-17016919D01*
X14016204Y-17016920D01*
X13995341Y-17027920D01*
X13858607Y-17100012D01*
X13853394Y-17104417D01*
X13853390Y-17104420D01*
X13722533Y-17215003D01*
X13722529Y-17215007D01*
X13717319Y-17219410D01*
X13713172Y-17224833D01*
X13713171Y-17224835D01*
X13609110Y-17360941D01*
X13609107Y-17360945D01*
X13604966Y-17366362D01*
X13526790Y-17534012D01*
X13486437Y-17714538D01*
X13485791Y-17899518D01*
X6310000Y-17899518D01*
X6310000Y-3235577D01*
X6330002Y-3167456D01*
X6374484Y-3128913D01*
X6373316Y-3127096D01*
X6469350Y-3065378D01*
X6478617Y-3059423D01*
X6546736Y-3039421D01*
X6581045Y-3044182D01*
X6617179Y-3054407D01*
X6623987Y-3054811D01*
X6623990Y-3054812D01*
X6776958Y-3063900D01*
X6801835Y-3065378D01*
X6882833Y-3052549D01*
X6977805Y-3037507D01*
X6977809Y-3037506D01*
X6984539Y-3036440D01*
X6990885Y-3033953D01*
X6990889Y-3033952D01*
X7150412Y-2971436D01*
X7150416Y-2971434D01*
X7156767Y-2968945D01*
X7237014Y-2915224D01*
X7304815Y-2869835D01*
X7304818Y-2869832D01*
X7310483Y-2866040D01*
X7411058Y-2761162D01*
X7472645Y-2725839D01*
X7543551Y-2729420D01*
X7601265Y-2770767D01*
X7627463Y-2836754D01*
X7628000Y-2848372D01*
X7628000Y-11143757D01*
X7626922Y-11160203D01*
X7622999Y-11190000D01*
X7642661Y-11339339D01*
X7700303Y-11478500D01*
X7723108Y-11508220D01*
X7737774Y-11527333D01*
X7752873Y-11547010D01*
X7791999Y-11598001D01*
X7798549Y-11603027D01*
X7798550Y-11603028D01*
X7815843Y-11616297D01*
X7828234Y-11627165D01*
X8776346Y-12575277D01*
X8787213Y-12587667D01*
X8805510Y-12611512D01*
X8835900Y-12634831D01*
X8925011Y-12703208D01*
X9064172Y-12760850D01*
X9213511Y-12780512D01*
X9243308Y-12776589D01*
X9259754Y-12775511D01*
X13775724Y-12775511D01*
X13843845Y-12795513D01*
X13871105Y-12819180D01*
X13872583Y-12820893D01*
X13876819Y-12827196D01*
X13882436Y-12832307D01*
X13993900Y-12933731D01*
X14003618Y-12942574D01*
X14033285Y-12958682D01*
X14147601Y-13020751D01*
X14147603Y-13020752D01*
X14154278Y-13024376D01*
X14161627Y-13026304D01*
X14312752Y-13065951D01*
X14312754Y-13065951D01*
X14320102Y-13067879D01*
X14407574Y-13069253D01*
X14483917Y-13070452D01*
X14483920Y-13070452D01*
X14491516Y-13070571D01*
X14498920Y-13068875D01*
X14498922Y-13068875D01*
X14587822Y-13048514D01*
X14658625Y-13032298D01*
X14811780Y-12955269D01*
X14942140Y-12843931D01*
X14958751Y-12820814D01*
X15037743Y-12710886D01*
X15037744Y-12710885D01*
X15042180Y-12704711D01*
X15080676Y-12608949D01*
X15124642Y-12553204D01*
X15191767Y-12530079D01*
X15260739Y-12546916D01*
X15263476Y-12548676D01*
X15266683Y-12551594D01*
X15273358Y-12555218D01*
X15410666Y-12629771D01*
X15410668Y-12629772D01*
X15417343Y-12633396D01*
X15424692Y-12635324D01*
X15575817Y-12674971D01*
X15575819Y-12674971D01*
X15583167Y-12676899D01*
X15620870Y-12677491D01*
X15653948Y-12678011D01*
X15721746Y-12699080D01*
X15767391Y-12753460D01*
X15775123Y-12777366D01*
X15797383Y-12880322D01*
X15823545Y-12937464D01*
X15864219Y-13026304D01*
X15874387Y-13048514D01*
X15878491Y-13053960D01*
X15878492Y-13053962D01*
X15956797Y-13157875D01*
X15985711Y-13196246D01*
X15990890Y-13200685D01*
X15990891Y-13200686D01*
X16110071Y-13302835D01*
X16126162Y-13316627D01*
X16172183Y-13341303D01*
X16283170Y-13400814D01*
X16283172Y-13400815D01*
X16289187Y-13404040D01*
X16295755Y-13405899D01*
X16295756Y-13405899D01*
X16313461Y-13410909D01*
X16467179Y-13454407D01*
X16473987Y-13454811D01*
X16473990Y-13454812D01*
X16613206Y-13463083D01*
X16680020Y-13487090D01*
X16723249Y-13543408D01*
X16730655Y-13605308D01*
X16716539Y-13712528D01*
X16735351Y-13882928D01*
X16794267Y-14043922D01*
X16798503Y-14050225D01*
X16798503Y-14050226D01*
X16812883Y-14071625D01*
X16889884Y-14186216D01*
X16895503Y-14191329D01*
X16895504Y-14191330D01*
X16913698Y-14207885D01*
X17016683Y-14301594D01*
X17023356Y-14305217D01*
X17160666Y-14379771D01*
X17160668Y-14379772D01*
X17167343Y-14383396D01*
X17252140Y-14405642D01*
X17257099Y-14406943D01*
X17317914Y-14443577D01*
X17349269Y-14507274D01*
X17341210Y-14577812D01*
X17296294Y-14632795D01*
X17254538Y-14651338D01*
X17088294Y-14691249D01*
X16935954Y-14769878D01*
X16930232Y-14774870D01*
X16930230Y-14774871D01*
X16884046Y-14815160D01*
X16806766Y-14882575D01*
X16708190Y-15022835D01*
X16645916Y-15182560D01*
X16644925Y-15190087D01*
X16626575Y-15329471D01*
X16623539Y-15352528D01*
X16642351Y-15522928D01*
X16661131Y-15574247D01*
X16697541Y-15673739D01*
X16701267Y-15683922D01*
X16705503Y-15690225D01*
X16705503Y-15690226D01*
X16720774Y-15712951D01*
X16796884Y-15826216D01*
X16802503Y-15831329D01*
X16802504Y-15831330D01*
X16848361Y-15873057D01*
X16885283Y-15933697D01*
X16883560Y-16004673D01*
X16866648Y-16038700D01*
X16864530Y-16041713D01*
X16864526Y-16041720D01*
X16860159Y-16047934D01*
X16797885Y-16207659D01*
X16796894Y-16215186D01*
X16778973Y-16351310D01*
X16775508Y-16377627D01*
X16794320Y-16548027D01*
X16853236Y-16709021D01*
X16857472Y-16715324D01*
X16857472Y-16715325D01*
X16935926Y-16832077D01*
X16948853Y-16851315D01*
X16954472Y-16856428D01*
X16954473Y-16856429D01*
X17004897Y-16902311D01*
X17075652Y-16966693D01*
X17082325Y-16970316D01*
X17219635Y-17044870D01*
X17219637Y-17044871D01*
X17226312Y-17048495D01*
X17233661Y-17050423D01*
X17384786Y-17090070D01*
X17384788Y-17090070D01*
X17392136Y-17091998D01*
X17479608Y-17093372D01*
X17555951Y-17094571D01*
X17555954Y-17094571D01*
X17563550Y-17094690D01*
X17570954Y-17092994D01*
X17570956Y-17092994D01*
X17633758Y-17078610D01*
X17730659Y-17056417D01*
X17787319Y-17027920D01*
X17815764Y-17013614D01*
X17885609Y-17000876D01*
X17951252Y-17027920D01*
X17991854Y-17086161D01*
X17998377Y-17126617D01*
X17998122Y-17199518D01*
X17999565Y-17206191D01*
X17999565Y-17206193D01*
X18034196Y-17366362D01*
X18037214Y-17380322D01*
X18114218Y-17548514D01*
X18118322Y-17553960D01*
X18118323Y-17553962D01*
X18196628Y-17657875D01*
X18225542Y-17696246D01*
X18230721Y-17700685D01*
X18230722Y-17700686D01*
X18246884Y-17714538D01*
X18365993Y-17816627D01*
X18456195Y-17864993D01*
X18523001Y-17900814D01*
X18523003Y-17900815D01*
X18529018Y-17904040D01*
X18535586Y-17905899D01*
X18535587Y-17905899D01*
X18536626Y-17906193D01*
X18707010Y-17954407D01*
X18713818Y-17954811D01*
X18713821Y-17954812D01*
X18866789Y-17963900D01*
X18891666Y-17965378D01*
X18972664Y-17952549D01*
X19067636Y-17937507D01*
X19067640Y-17937506D01*
X19074370Y-17936440D01*
X19080716Y-17933953D01*
X19080720Y-17933952D01*
X19240243Y-17871436D01*
X19240247Y-17871434D01*
X19246598Y-17868945D01*
X19292875Y-17837965D01*
X19394646Y-17769835D01*
X19394649Y-17769832D01*
X19400314Y-17766040D01*
X19528348Y-17632528D01*
X19624725Y-17474637D01*
X19657200Y-17380322D01*
X19682726Y-17306191D01*
X19682727Y-17306188D01*
X19684949Y-17299734D01*
X19686393Y-17287259D01*
X19705806Y-17119471D01*
X19705806Y-17119470D01*
X19706210Y-17115979D01*
X19706231Y-17110000D01*
X19704289Y-17092117D01*
X19692943Y-16987683D01*
X19686253Y-16926101D01*
X19627252Y-16750781D01*
X19531979Y-16592221D01*
X19510745Y-16569766D01*
X19501054Y-16559518D01*
X23618291Y-16559518D01*
X23619734Y-16566191D01*
X23619734Y-16566193D01*
X23649073Y-16701887D01*
X23657383Y-16740322D01*
X23734387Y-16908514D01*
X23738491Y-16913960D01*
X23738492Y-16913962D01*
X23803987Y-17000876D01*
X23845711Y-17056246D01*
X23850890Y-17060685D01*
X23850891Y-17060686D01*
X23915403Y-17115979D01*
X23986162Y-17176627D01*
X24016118Y-17192689D01*
X24143170Y-17260814D01*
X24143172Y-17260815D01*
X24149187Y-17264040D01*
X24155755Y-17265899D01*
X24155756Y-17265899D01*
X24254893Y-17293952D01*
X24327179Y-17314407D01*
X24333987Y-17314811D01*
X24333990Y-17314812D01*
X24486958Y-17323900D01*
X24511835Y-17325378D01*
X24592833Y-17312549D01*
X24687805Y-17297507D01*
X24687809Y-17297506D01*
X24694539Y-17296440D01*
X24700885Y-17293953D01*
X24700889Y-17293952D01*
X24860412Y-17231436D01*
X24860416Y-17231434D01*
X24866767Y-17228945D01*
X24920925Y-17192689D01*
X25014815Y-17129835D01*
X25014818Y-17129832D01*
X25020483Y-17126040D01*
X25026783Y-17119471D01*
X25129914Y-17011927D01*
X25148517Y-16992528D01*
X25153703Y-16984033D01*
X25241334Y-16840469D01*
X25244894Y-16834637D01*
X25279667Y-16733650D01*
X25302895Y-16666191D01*
X25302896Y-16666188D01*
X25305118Y-16659734D01*
X25312930Y-16592221D01*
X25325975Y-16479471D01*
X25325975Y-16479470D01*
X25326379Y-16475979D01*
X25326400Y-16470000D01*
X25306422Y-16286101D01*
X25259781Y-16147507D01*
X25249597Y-16117246D01*
X25249596Y-16117244D01*
X25247421Y-16110781D01*
X25152148Y-15952221D01*
X25140205Y-15939591D01*
X25060426Y-15855228D01*
X25025050Y-15817819D01*
X24939990Y-15760012D01*
X24877698Y-15717679D01*
X24872055Y-15713844D01*
X24865725Y-15711312D01*
X24865721Y-15711310D01*
X24706641Y-15647683D01*
X24700303Y-15645148D01*
X24693573Y-15644034D01*
X24693570Y-15644033D01*
X24524543Y-15616050D01*
X24524540Y-15616050D01*
X24517806Y-15614935D01*
X24510990Y-15615292D01*
X24510986Y-15615292D01*
X24390426Y-15621611D01*
X24333078Y-15624617D01*
X24326500Y-15626429D01*
X24326499Y-15626429D01*
X24161315Y-15671927D01*
X24161311Y-15671928D01*
X24154738Y-15673739D01*
X24148707Y-15676919D01*
X24148704Y-15676920D01*
X24094399Y-15705552D01*
X23991107Y-15760012D01*
X23985894Y-15764417D01*
X23985890Y-15764420D01*
X23855033Y-15875003D01*
X23855029Y-15875007D01*
X23849819Y-15879410D01*
X23845672Y-15884833D01*
X23845671Y-15884835D01*
X23741610Y-16020941D01*
X23741607Y-16020945D01*
X23737466Y-16026362D01*
X23659290Y-16194012D01*
X23618937Y-16374538D01*
X23618913Y-16381367D01*
X23618913Y-16381368D01*
X23618848Y-16400012D01*
X23618291Y-16559518D01*
X19501054Y-16559518D01*
X19422054Y-16475979D01*
X19404881Y-16457819D01*
X19336500Y-16411347D01*
X19257529Y-16357679D01*
X19251886Y-16353844D01*
X19245556Y-16351312D01*
X19245552Y-16351310D01*
X19086472Y-16287683D01*
X19080134Y-16285148D01*
X19073404Y-16284034D01*
X19073401Y-16284033D01*
X18904374Y-16256050D01*
X18904371Y-16256050D01*
X18897637Y-16254935D01*
X18890821Y-16255292D01*
X18890817Y-16255292D01*
X18770257Y-16261611D01*
X18712909Y-16264617D01*
X18706331Y-16266429D01*
X18706330Y-16266429D01*
X18541146Y-16311927D01*
X18541142Y-16311928D01*
X18534569Y-16313739D01*
X18528538Y-16316919D01*
X18528535Y-16316920D01*
X18376138Y-16397270D01*
X18306551Y-16411347D01*
X18240400Y-16385568D01*
X18198687Y-16328117D01*
X18192286Y-16300951D01*
X18182785Y-16222444D01*
X18181873Y-16214905D01*
X18179190Y-16207806D01*
X18179189Y-16207800D01*
X18175856Y-16198980D01*
X18170489Y-16128187D01*
X18204249Y-16065730D01*
X18266415Y-16031440D01*
X18295699Y-16028461D01*
X18330377Y-16029006D01*
X18360033Y-16029472D01*
X18360036Y-16029472D01*
X18367631Y-16029591D01*
X18375035Y-16027895D01*
X18375037Y-16027895D01*
X18437839Y-16013511D01*
X18534740Y-15991318D01*
X18687895Y-15914289D01*
X18693674Y-15909353D01*
X18699996Y-15905153D01*
X18701070Y-15906769D01*
X18756660Y-15881855D01*
X18820095Y-15889545D01*
X18820669Y-15889772D01*
X18827343Y-15893396D01*
X18834687Y-15895323D01*
X18834688Y-15895323D01*
X18985817Y-15934971D01*
X18985819Y-15934971D01*
X18993167Y-15936899D01*
X19080639Y-15938273D01*
X19156982Y-15939472D01*
X19156985Y-15939472D01*
X19164581Y-15939591D01*
X19171985Y-15937895D01*
X19171987Y-15937895D01*
X19234789Y-15923511D01*
X19331690Y-15901318D01*
X19484845Y-15824289D01*
X19615205Y-15712951D01*
X19685637Y-15614935D01*
X19710813Y-15579899D01*
X19710814Y-15579898D01*
X19715245Y-15573731D01*
X19718078Y-15566684D01*
X19720571Y-15562149D01*
X19770916Y-15512090D01*
X19802854Y-15500030D01*
X19859090Y-15487151D01*
X19937677Y-15469152D01*
X19937678Y-15469152D01*
X19945077Y-15467457D01*
X20060276Y-15409518D01*
X21658291Y-15409518D01*
X21659734Y-15416191D01*
X21659734Y-15416193D01*
X21693796Y-15573731D01*
X21697383Y-15590322D01*
X21774387Y-15758514D01*
X21778491Y-15763960D01*
X21778492Y-15763962D01*
X21847266Y-15855228D01*
X21885711Y-15906246D01*
X21890890Y-15910685D01*
X21890891Y-15910686D01*
X21946179Y-15958073D01*
X22026162Y-16026627D01*
X22078214Y-16054537D01*
X22183170Y-16110814D01*
X22183172Y-16110815D01*
X22189187Y-16114040D01*
X22195755Y-16115899D01*
X22195756Y-16115899D01*
X22239181Y-16128187D01*
X22367179Y-16164407D01*
X22373987Y-16164811D01*
X22373990Y-16164812D01*
X22526958Y-16173900D01*
X22551835Y-16175378D01*
X22632833Y-16162549D01*
X22727805Y-16147507D01*
X22727809Y-16147506D01*
X22734539Y-16146440D01*
X22740885Y-16143953D01*
X22740889Y-16143952D01*
X22900412Y-16081436D01*
X22900416Y-16081434D01*
X22906767Y-16078945D01*
X22976081Y-16032543D01*
X23054815Y-15979835D01*
X23054818Y-15979832D01*
X23060483Y-15976040D01*
X23089290Y-15946001D01*
X23183795Y-15847452D01*
X23188517Y-15842528D01*
X23195353Y-15831330D01*
X23281334Y-15690469D01*
X23284894Y-15684637D01*
X23305561Y-15624617D01*
X23342895Y-15516191D01*
X23342896Y-15516188D01*
X23345118Y-15509734D01*
X23349814Y-15469152D01*
X23365975Y-15329471D01*
X23365975Y-15329470D01*
X23366379Y-15325979D01*
X23366400Y-15320000D01*
X23365069Y-15307743D01*
X23351469Y-15182560D01*
X23346422Y-15136101D01*
X23287421Y-14960781D01*
X23192148Y-14802221D01*
X23170079Y-14778883D01*
X23090560Y-14694795D01*
X23065050Y-14667819D01*
X23053791Y-14660167D01*
X22917698Y-14567679D01*
X22912055Y-14563844D01*
X22905725Y-14561312D01*
X22905721Y-14561310D01*
X22746641Y-14497683D01*
X22740303Y-14495148D01*
X22733573Y-14494034D01*
X22733570Y-14494033D01*
X22564543Y-14466050D01*
X22564540Y-14466050D01*
X22557806Y-14464935D01*
X22550990Y-14465292D01*
X22550986Y-14465292D01*
X22430426Y-14471611D01*
X22373078Y-14474617D01*
X22366500Y-14476429D01*
X22366499Y-14476429D01*
X22201315Y-14521927D01*
X22201311Y-14521928D01*
X22194738Y-14523739D01*
X22188707Y-14526919D01*
X22188704Y-14526920D01*
X22162629Y-14540668D01*
X22031107Y-14610012D01*
X22025894Y-14614417D01*
X22025890Y-14614420D01*
X21895033Y-14725003D01*
X21895029Y-14725007D01*
X21889819Y-14729410D01*
X21885672Y-14734833D01*
X21885671Y-14734835D01*
X21781610Y-14870941D01*
X21781607Y-14870945D01*
X21777466Y-14876362D01*
X21699290Y-15044012D01*
X21658937Y-15224538D01*
X21658291Y-15409518D01*
X20060276Y-15409518D01*
X20098232Y-15390428D01*
X20228592Y-15279090D01*
X20328632Y-15139870D01*
X20392575Y-14980806D01*
X20416731Y-14811081D01*
X20416887Y-14796139D01*
X20413605Y-14769013D01*
X20403979Y-14689477D01*
X20396291Y-14625945D01*
X20369170Y-14554172D01*
X20357423Y-14523084D01*
X20352055Y-14452291D01*
X20358381Y-14431551D01*
X20366355Y-14411714D01*
X20369188Y-14404667D01*
X20386026Y-14286359D01*
X20415427Y-14221737D01*
X20428943Y-14208299D01*
X20429428Y-14207885D01*
X20435205Y-14202951D01*
X20535245Y-14063731D01*
X20599188Y-13904667D01*
X20623344Y-13734942D01*
X20623500Y-13720000D01*
X20622429Y-13711144D01*
X20613446Y-13636921D01*
X20602904Y-13549806D01*
X20600220Y-13542702D01*
X20598407Y-13535321D01*
X20600070Y-13534913D01*
X20595403Y-13473366D01*
X20629162Y-13410909D01*
X20672663Y-13382310D01*
X20700412Y-13371436D01*
X20700416Y-13371434D01*
X20706767Y-13368945D01*
X20777007Y-13321923D01*
X20854815Y-13269835D01*
X20854818Y-13269832D01*
X20860483Y-13266040D01*
X20988517Y-13132528D01*
X20996772Y-13119005D01*
X21082326Y-12978844D01*
X21104199Y-12958986D01*
X21100529Y-12940831D01*
X21106927Y-12910651D01*
X21142894Y-12806193D01*
X21145118Y-12799734D01*
X21146346Y-12789119D01*
X21147268Y-12786944D01*
X21147414Y-12786300D01*
X21147529Y-12786326D01*
X21174046Y-12723749D01*
X21232691Y-12683732D01*
X21252317Y-12679570D01*
X21254581Y-12679606D01*
X21288751Y-12671780D01*
X21359617Y-12676069D01*
X21416915Y-12717991D01*
X21442453Y-12784236D01*
X21428122Y-12853771D01*
X21419967Y-12867050D01*
X21414512Y-12874812D01*
X21362303Y-12949098D01*
X21343454Y-12997444D01*
X21310695Y-13039885D01*
X21311559Y-13077179D01*
X21307266Y-13090261D01*
X21300029Y-13108823D01*
X21299038Y-13116350D01*
X21279331Y-13266040D01*
X21277652Y-13278791D01*
X21296464Y-13449191D01*
X21355380Y-13610185D01*
X21359616Y-13616488D01*
X21359616Y-13616489D01*
X21441954Y-13739021D01*
X21450997Y-13752479D01*
X21456616Y-13757592D01*
X21456617Y-13757593D01*
X21509910Y-13806086D01*
X21577796Y-13867857D01*
X21584469Y-13871480D01*
X21721779Y-13946034D01*
X21721781Y-13946035D01*
X21728456Y-13949659D01*
X21735805Y-13951587D01*
X21886930Y-13991234D01*
X21886932Y-13991234D01*
X21894280Y-13993162D01*
X21981752Y-13994536D01*
X22058095Y-13995735D01*
X22058098Y-13995735D01*
X22065694Y-13995854D01*
X22073098Y-13994158D01*
X22073100Y-13994158D01*
X22135902Y-13979774D01*
X22232803Y-13957581D01*
X22385958Y-13880552D01*
X22470134Y-13808659D01*
X22510544Y-13774146D01*
X22510546Y-13774144D01*
X22516318Y-13769214D01*
X22531311Y-13748349D01*
X22587306Y-13704701D01*
X22658009Y-13698255D01*
X22693755Y-13711144D01*
X22702528Y-13715907D01*
X22781598Y-13758839D01*
X22781600Y-13758840D01*
X22788275Y-13762464D01*
X22795624Y-13764392D01*
X22946749Y-13804039D01*
X22946751Y-13804039D01*
X22954099Y-13805967D01*
X23041571Y-13807341D01*
X23117914Y-13808540D01*
X23117917Y-13808540D01*
X23125513Y-13808659D01*
X23174000Y-13797554D01*
X23244865Y-13801843D01*
X23286081Y-13830194D01*
X23287850Y-13828250D01*
X23414649Y-13943628D01*
X23421322Y-13947251D01*
X23558632Y-14021805D01*
X23558634Y-14021806D01*
X23565309Y-14025430D01*
X23572658Y-14027358D01*
X23723783Y-14067005D01*
X23723785Y-14067005D01*
X23731133Y-14068933D01*
X23818605Y-14070307D01*
X23894948Y-14071506D01*
X23894951Y-14071506D01*
X23902547Y-14071625D01*
X23909951Y-14069929D01*
X23909953Y-14069929D01*
X23995980Y-14050226D01*
X24069656Y-14033352D01*
X24222811Y-13956323D01*
X24353171Y-13844985D01*
X24357604Y-13838816D01*
X24448774Y-13711940D01*
X24448775Y-13711939D01*
X24453211Y-13705765D01*
X24517154Y-13546701D01*
X24527592Y-13473366D01*
X24537190Y-13405926D01*
X24566591Y-13341303D01*
X24626263Y-13302835D01*
X24663911Y-13297696D01*
X24776982Y-13299472D01*
X24776985Y-13299472D01*
X24784581Y-13299591D01*
X24791985Y-13297895D01*
X24791987Y-13297895D01*
X24854789Y-13283511D01*
X24951690Y-13261318D01*
X25104845Y-13184289D01*
X25235205Y-13072951D01*
X25257222Y-13042311D01*
X25330808Y-12939906D01*
X25330809Y-12939905D01*
X25335245Y-12933731D01*
X25399188Y-12774667D01*
X25423344Y-12604942D01*
X25423500Y-12590000D01*
X25421719Y-12575277D01*
X25410500Y-12482575D01*
X25402904Y-12419806D01*
X25342306Y-12259438D01*
X25245204Y-12118154D01*
X25239533Y-12113101D01*
X25122877Y-12009164D01*
X25122875Y-12009162D01*
X25117204Y-12004110D01*
X25110495Y-12000558D01*
X25110491Y-12000555D01*
X24972411Y-11927445D01*
X24972408Y-11927444D01*
X24965696Y-11923890D01*
X24886968Y-11904115D01*
X24806795Y-11883977D01*
X24806793Y-11883977D01*
X24799425Y-11882126D01*
X24791827Y-11882086D01*
X24791825Y-11882086D01*
X24717841Y-11881699D01*
X24627992Y-11881229D01*
X24620607Y-11883002D01*
X24517883Y-11907663D01*
X24446976Y-11904115D01*
X24389242Y-11862796D01*
X24376809Y-11843521D01*
X24374991Y-11840043D01*
X24372306Y-11832938D01*
X24318062Y-11754012D01*
X24279506Y-11697913D01*
X24279505Y-11697911D01*
X24275204Y-11691654D01*
X24269533Y-11686601D01*
X24152877Y-11582664D01*
X24152875Y-11582662D01*
X24147204Y-11577610D01*
X24140495Y-11574058D01*
X24140491Y-11574055D01*
X24002411Y-11500945D01*
X24002408Y-11500944D01*
X23995696Y-11497390D01*
X23922012Y-11478882D01*
X23836795Y-11457477D01*
X23836793Y-11457477D01*
X23829425Y-11455626D01*
X23821827Y-11455586D01*
X23821825Y-11455586D01*
X23747841Y-11455199D01*
X23657992Y-11454729D01*
X23650613Y-11456501D01*
X23650609Y-11456501D01*
X23498673Y-11492977D01*
X23498669Y-11492978D01*
X23491294Y-11494749D01*
X23484549Y-11498230D01*
X23484550Y-11498230D01*
X23384845Y-11549692D01*
X23338954Y-11573378D01*
X23333232Y-11578370D01*
X23333230Y-11578371D01*
X23277296Y-11627165D01*
X23209766Y-11686075D01*
X23111190Y-11826335D01*
X23048916Y-11986060D01*
X23047925Y-11993587D01*
X23030467Y-12126193D01*
X23026539Y-12156028D01*
X23030752Y-12194187D01*
X23038057Y-12260360D01*
X23025651Y-12330264D01*
X22977421Y-12382364D01*
X22942233Y-12396704D01*
X22896262Y-12407741D01*
X22825354Y-12404195D01*
X22789418Y-12383058D01*
X22789112Y-12383498D01*
X22783305Y-12379462D01*
X22783028Y-12379299D01*
X22782877Y-12379164D01*
X22782874Y-12379162D01*
X22777204Y-12374110D01*
X22770495Y-12370558D01*
X22770491Y-12370555D01*
X22632411Y-12297445D01*
X22632408Y-12297444D01*
X22625696Y-12293890D01*
X22608127Y-12289477D01*
X22466795Y-12253977D01*
X22466793Y-12253977D01*
X22459425Y-12252126D01*
X22451827Y-12252086D01*
X22451825Y-12252086D01*
X22377841Y-12251699D01*
X22287992Y-12251229D01*
X22280613Y-12253001D01*
X22280609Y-12253001D01*
X22128673Y-12289477D01*
X22128669Y-12289478D01*
X22121294Y-12291249D01*
X22091694Y-12306527D01*
X22034978Y-12335800D01*
X21965271Y-12349269D01*
X21899347Y-12322914D01*
X21858138Y-12265101D01*
X21854726Y-12194187D01*
X21860276Y-12176851D01*
X21869188Y-12154682D01*
X21893344Y-11984957D01*
X21893500Y-11970015D01*
X21888349Y-11927445D01*
X21882760Y-11881269D01*
X21872904Y-11799821D01*
X21860197Y-11766192D01*
X21854830Y-11695399D01*
X21861156Y-11674661D01*
X21866355Y-11661728D01*
X21866356Y-11661723D01*
X21869188Y-11654679D01*
X21870258Y-11647160D01*
X21872224Y-11639823D01*
X21875415Y-11640678D01*
X21898611Y-11589612D01*
X21958259Y-11551108D01*
X21993419Y-11546016D01*
X22000966Y-11547010D01*
X22150305Y-11527348D01*
X22289466Y-11469706D01*
X22378577Y-11401329D01*
X22408967Y-11378010D01*
X22427264Y-11354165D01*
X22438131Y-11341775D01*
X23250321Y-10529585D01*
X23312633Y-10495559D01*
X23383448Y-10500624D01*
X23443998Y-10548404D01*
X23529884Y-10676216D01*
X23535503Y-10681329D01*
X23535504Y-10681330D01*
X23553697Y-10697884D01*
X23656683Y-10791594D01*
X23663356Y-10795217D01*
X23800666Y-10869771D01*
X23800668Y-10869772D01*
X23807343Y-10873396D01*
X23814692Y-10875324D01*
X23965817Y-10914971D01*
X23965819Y-10914971D01*
X23973167Y-10916899D01*
X24060639Y-10918273D01*
X24136982Y-10919472D01*
X24136985Y-10919472D01*
X24144581Y-10919591D01*
X24151985Y-10917895D01*
X24151987Y-10917895D01*
X24214789Y-10903511D01*
X24311690Y-10881318D01*
X24464845Y-10804289D01*
X24595205Y-10692951D01*
X24695245Y-10553731D01*
X24759188Y-10394667D01*
X24783344Y-10224942D01*
X24783500Y-10210000D01*
X24762904Y-10039806D01*
X24702306Y-9879438D01*
X24698005Y-9873180D01*
X24609506Y-9744413D01*
X24609505Y-9744411D01*
X24605204Y-9738154D01*
X24593726Y-9727927D01*
X24556171Y-9667681D01*
X24557149Y-9596691D01*
X24596352Y-9537500D01*
X24620931Y-9521287D01*
X24634845Y-9514289D01*
X24765205Y-9402951D01*
X24784327Y-9376340D01*
X24860808Y-9269906D01*
X24860809Y-9269905D01*
X24865245Y-9263731D01*
X24929188Y-9104667D01*
X24953344Y-8934942D01*
X24953500Y-8920000D01*
X24932904Y-8749806D01*
X24892614Y-8643181D01*
X24887246Y-8572389D01*
X24921385Y-8509549D01*
X26211762Y-7219171D01*
X26224154Y-7208303D01*
X26241452Y-7195030D01*
X26241455Y-7195027D01*
X26248001Y-7190004D01*
X26339697Y-7070503D01*
X26368900Y-7000000D01*
X26397340Y-6931342D01*
X26417001Y-6782003D01*
X26413078Y-6752205D01*
X26412000Y-6735759D01*
X26412000Y-6498404D01*
X26435676Y-6424880D01*
X26465245Y-6383731D01*
X26529188Y-6224667D01*
X26553344Y-6054942D01*
X26553500Y-6040000D01*
X26551685Y-6024997D01*
X26533816Y-5877346D01*
X26532904Y-5869806D01*
X26472306Y-5709438D01*
X26455508Y-5684997D01*
X26379506Y-5574413D01*
X26379505Y-5574411D01*
X26375204Y-5568154D01*
X26369533Y-5563101D01*
X26252877Y-5459164D01*
X26252875Y-5459162D01*
X26247204Y-5454110D01*
X26240495Y-5450558D01*
X26240491Y-5450555D01*
X26102411Y-5377445D01*
X26102408Y-5377444D01*
X26095696Y-5373890D01*
X26068337Y-5367018D01*
X25936795Y-5333977D01*
X25936793Y-5333977D01*
X25929425Y-5332126D01*
X25921827Y-5332086D01*
X25921825Y-5332086D01*
X25847841Y-5331699D01*
X25757992Y-5331229D01*
X25750613Y-5333001D01*
X25750609Y-5333001D01*
X25598673Y-5369477D01*
X25598669Y-5369478D01*
X25591294Y-5371249D01*
X25438954Y-5449878D01*
X25433232Y-5454870D01*
X25433230Y-5454871D01*
X25355636Y-5522560D01*
X25309766Y-5562575D01*
X25211190Y-5702835D01*
X25148916Y-5862560D01*
X25147925Y-5870087D01*
X25146006Y-5884667D01*
X25126539Y-6032528D01*
X25129464Y-6059021D01*
X25139672Y-6151488D01*
X25127266Y-6221392D01*
X25079036Y-6273492D01*
X25013772Y-6291312D01*
X24997992Y-6291229D01*
X24990613Y-6293001D01*
X24990609Y-6293001D01*
X24838673Y-6329477D01*
X24838669Y-6329478D01*
X24831294Y-6331249D01*
X24824550Y-6334730D01*
X24824547Y-6334731D01*
X24786738Y-6354246D01*
X24717031Y-6367716D01*
X24698254Y-6364485D01*
X24638078Y-6349370D01*
X24576795Y-6333977D01*
X24576793Y-6333977D01*
X24569425Y-6332126D01*
X24561827Y-6332086D01*
X24561825Y-6332086D01*
X24487841Y-6331699D01*
X24397992Y-6331229D01*
X24390613Y-6333001D01*
X24390609Y-6333001D01*
X24238673Y-6369477D01*
X24238669Y-6369478D01*
X24231294Y-6371249D01*
X24078954Y-6449878D01*
X24073232Y-6454870D01*
X24073230Y-6454871D01*
X23974879Y-6540668D01*
X23949766Y-6562575D01*
X23851190Y-6702835D01*
X23788916Y-6862560D01*
X23787925Y-6870087D01*
X23779861Y-6931342D01*
X23766539Y-7032528D01*
X23785351Y-7202928D01*
X23818554Y-7293658D01*
X23838950Y-7349392D01*
X23844267Y-7363922D01*
X23848503Y-7370225D01*
X23848503Y-7370226D01*
X23915328Y-7469672D01*
X23939884Y-7506216D01*
X23945503Y-7511329D01*
X23945504Y-7511330D01*
X24034331Y-7592156D01*
X24071254Y-7652797D01*
X24069531Y-7723772D01*
X24038627Y-7774445D01*
X23807429Y-8005643D01*
X23745117Y-8039669D01*
X23674302Y-8034604D01*
X23639162Y-8013426D01*
X23639112Y-8013498D01*
X23637999Y-8012724D01*
X23634518Y-8010626D01*
X23627204Y-8004110D01*
X23620495Y-8000558D01*
X23620491Y-8000555D01*
X23482411Y-7927445D01*
X23482408Y-7927444D01*
X23475696Y-7923890D01*
X23327313Y-7886619D01*
X23316795Y-7883977D01*
X23316793Y-7883977D01*
X23309425Y-7882126D01*
X23301827Y-7882086D01*
X23301825Y-7882086D01*
X23227841Y-7881699D01*
X23137992Y-7881229D01*
X23130613Y-7883001D01*
X23130609Y-7883001D01*
X22978673Y-7919477D01*
X22978669Y-7919478D01*
X22971294Y-7921249D01*
X22818954Y-7999878D01*
X22813232Y-8004870D01*
X22813230Y-8004871D01*
X22740860Y-8068003D01*
X22689766Y-8112575D01*
X22685396Y-8118793D01*
X22627758Y-8200804D01*
X22572224Y-8245036D01*
X22524013Y-8254352D01*
X22486848Y-8254158D01*
X22458710Y-8254011D01*
X22451331Y-8255783D01*
X22451327Y-8255783D01*
X22299391Y-8292259D01*
X22299387Y-8292260D01*
X22292012Y-8294031D01*
X22285267Y-8297512D01*
X22285268Y-8297512D01*
X22151520Y-8366545D01*
X22139672Y-8372660D01*
X22133950Y-8377652D01*
X22133948Y-8377653D01*
X22088894Y-8416956D01*
X22024411Y-8446664D01*
X21954104Y-8436794D01*
X21900294Y-8390480D01*
X21888199Y-8366545D01*
X21888143Y-8366395D01*
X21830686Y-8214340D01*
X21733584Y-8073056D01*
X21710580Y-8052560D01*
X21611257Y-7964066D01*
X21611255Y-7964064D01*
X21605584Y-7959012D01*
X21598875Y-7955460D01*
X21598871Y-7955457D01*
X21460789Y-7882346D01*
X21460786Y-7882345D01*
X21454076Y-7878792D01*
X21453897Y-7878747D01*
X21397566Y-7834341D01*
X21349506Y-7764413D01*
X21349505Y-7764411D01*
X21345204Y-7758154D01*
X21339533Y-7753101D01*
X21222877Y-7649164D01*
X21222875Y-7649162D01*
X21217204Y-7644110D01*
X21210495Y-7640558D01*
X21210491Y-7640555D01*
X21072406Y-7567443D01*
X21065696Y-7563890D01*
X21058334Y-7562041D01*
X21053544Y-7560202D01*
X20997116Y-7517116D01*
X20972941Y-7450362D01*
X20988693Y-7381135D01*
X21016133Y-7349392D01*
X21015610Y-7348869D01*
X21021455Y-7343024D01*
X21028001Y-7338001D01*
X21046298Y-7314156D01*
X21057165Y-7301766D01*
X23271766Y-5087165D01*
X23284157Y-5076297D01*
X23301456Y-5063023D01*
X23308001Y-5058001D01*
X23399697Y-4938500D01*
X23457339Y-4799339D01*
X23477001Y-4650000D01*
X23473078Y-4620203D01*
X23472000Y-4603757D01*
X23472000Y-1039357D01*
X23492002Y-971236D01*
X23545658Y-924743D01*
X23600000Y-914938D01*
X23600000Y-913500D01*
X24200000Y-913500D01*
X24273079Y-908273D01*
X24359672Y-882847D01*
X24430668Y-882847D01*
X24446734Y-888839D01*
X24447131Y-888956D01*
X24455330Y-892700D01*
X24464247Y-893982D01*
X24595552Y-912861D01*
X24595559Y-912862D01*
X24600000Y-913500D01*
X25200000Y-913500D01*
X25273079Y-908273D01*
X25359672Y-882847D01*
X25430668Y-882847D01*
X25446734Y-888839D01*
X25447131Y-888956D01*
X25455330Y-892700D01*
X25464247Y-893982D01*
X25595552Y-912861D01*
X25595559Y-912862D01*
X25600000Y-913500D01*
X25952131Y-913500D01*
X26020252Y-933502D01*
X26066745Y-987158D01*
X26076849Y-1057432D01*
X26075099Y-1066969D01*
X26068937Y-1094538D01*
X26068291Y-1279518D01*
X26069734Y-1286191D01*
X26069734Y-1286193D01*
X26103536Y-1442528D01*
X26107383Y-1460322D01*
X26110224Y-1466527D01*
X26165245Y-1586703D01*
X26184387Y-1628514D01*
X26188491Y-1633960D01*
X26188492Y-1633962D01*
X26254168Y-1721116D01*
X26295711Y-1776246D01*
X26300890Y-1780685D01*
X26300891Y-1780686D01*
X26382673Y-1850781D01*
X26436162Y-1896627D01*
X26489783Y-1925378D01*
X26593170Y-1980814D01*
X26593172Y-1980815D01*
X26599187Y-1984040D01*
X26605755Y-1985899D01*
X26605756Y-1985899D01*
X26704893Y-2013952D01*
X26777179Y-2034407D01*
X26783987Y-2034811D01*
X26783990Y-2034812D01*
X26936958Y-2043900D01*
X26961835Y-2045378D01*
X27048862Y-2031594D01*
X27137805Y-2017507D01*
X27137809Y-2017506D01*
X27144539Y-2016440D01*
X27150885Y-2013953D01*
X27150889Y-2013952D01*
X27310412Y-1951436D01*
X27310416Y-1951434D01*
X27316767Y-1948945D01*
X27387911Y-1901318D01*
X27464815Y-1849835D01*
X27464818Y-1849832D01*
X27470483Y-1846040D01*
X27598517Y-1712528D01*
X27608088Y-1696849D01*
X27684216Y-1572131D01*
X27694894Y-1554637D01*
X27699501Y-1541257D01*
X27752895Y-1386191D01*
X27752896Y-1386188D01*
X27755118Y-1379734D01*
X27756658Y-1366429D01*
X27775975Y-1199471D01*
X27775975Y-1199470D01*
X27776379Y-1195979D01*
X27776400Y-1190000D01*
X27774031Y-1168188D01*
X27763364Y-1070000D01*
X27756422Y-1006101D01*
X27725044Y-912861D01*
X27699597Y-837246D01*
X27699596Y-837244D01*
X27697421Y-830781D01*
X27654677Y-759643D01*
X27636737Y-690950D01*
X27648066Y-642406D01*
X27671700Y-590654D01*
X27718193Y-536998D01*
X27786355Y-516996D01*
X28817343Y-517330D01*
G37*
%TD.AperFunction*%
%TA.AperFunction,Conductor*%
G36*
X14446734Y-888839D02*
G01*
X14447131Y-888956D01*
X14455330Y-892700D01*
X14464247Y-893982D01*
X14595552Y-912861D01*
X14595559Y-912862D01*
X14600000Y-913500D01*
X14628725Y-913500D01*
X14696846Y-933502D01*
X14743339Y-987158D01*
X14753443Y-1057432D01*
X14737032Y-1098793D01*
X14739147Y-1099927D01*
X14735560Y-1106617D01*
X14731190Y-1112835D01*
X14668916Y-1272560D01*
X14667925Y-1280087D01*
X14647578Y-1434637D01*
X14646539Y-1442528D01*
X14665351Y-1612928D01*
X14694368Y-1692221D01*
X14706745Y-1726040D01*
X14724267Y-1773922D01*
X14728503Y-1780225D01*
X14728503Y-1780226D01*
X14786073Y-1865899D01*
X14819884Y-1916216D01*
X14825503Y-1921329D01*
X14825504Y-1921330D01*
X14940646Y-2026101D01*
X14946683Y-2031594D01*
X14976350Y-2047702D01*
X15090666Y-2109771D01*
X15090668Y-2109772D01*
X15097343Y-2113396D01*
X15104692Y-2115324D01*
X15255817Y-2154971D01*
X15255819Y-2154971D01*
X15263167Y-2156899D01*
X15350639Y-2158273D01*
X15426982Y-2159472D01*
X15426985Y-2159472D01*
X15434581Y-2159591D01*
X15441985Y-2157895D01*
X15441987Y-2157895D01*
X15504789Y-2143511D01*
X15601690Y-2121318D01*
X15754845Y-2044289D01*
X15885205Y-1932951D01*
X15985245Y-1793731D01*
X16042578Y-1651110D01*
X16086544Y-1595365D01*
X16153669Y-1572240D01*
X16222641Y-1589077D01*
X16260112Y-1622276D01*
X16281603Y-1650796D01*
X16281609Y-1650802D01*
X16285711Y-1656246D01*
X16290890Y-1660685D01*
X16290891Y-1660686D01*
X16414683Y-1766788D01*
X16426162Y-1776627D01*
X16501254Y-1816891D01*
X16583170Y-1860814D01*
X16583172Y-1860815D01*
X16589187Y-1864040D01*
X16595755Y-1865899D01*
X16595756Y-1865899D01*
X16688645Y-1892184D01*
X16767179Y-1914407D01*
X16773987Y-1914811D01*
X16773990Y-1914812D01*
X16926958Y-1923900D01*
X16951835Y-1925378D01*
X17032833Y-1912549D01*
X17127805Y-1897507D01*
X17127809Y-1897506D01*
X17134539Y-1896440D01*
X17140885Y-1893953D01*
X17140889Y-1893952D01*
X17300412Y-1831436D01*
X17300416Y-1831434D01*
X17306767Y-1828945D01*
X17353044Y-1797965D01*
X17454815Y-1729835D01*
X17454818Y-1729832D01*
X17460483Y-1726040D01*
X17588517Y-1592528D01*
X17592321Y-1586297D01*
X17681334Y-1440469D01*
X17684894Y-1434637D01*
X17701575Y-1386191D01*
X17742895Y-1266191D01*
X17742896Y-1266188D01*
X17745118Y-1259734D01*
X17746045Y-1251727D01*
X17765975Y-1079471D01*
X17765975Y-1079470D01*
X17766379Y-1075979D01*
X17766400Y-1070000D01*
X17766022Y-1066516D01*
X17766021Y-1066506D01*
X17764565Y-1053107D01*
X17777093Y-983225D01*
X17825414Y-931209D01*
X17889828Y-913500D01*
X18200000Y-913500D01*
X18273079Y-908273D01*
X18359672Y-882847D01*
X18430668Y-882847D01*
X18446734Y-888839D01*
X18447131Y-888956D01*
X18455330Y-892700D01*
X18464247Y-893982D01*
X18595552Y-912861D01*
X18595559Y-912862D01*
X18600000Y-913500D01*
X19200000Y-913500D01*
X19273079Y-908273D01*
X19359672Y-882847D01*
X19430668Y-882847D01*
X19446734Y-888839D01*
X19447131Y-888956D01*
X19455330Y-892700D01*
X19464247Y-893982D01*
X19595552Y-912861D01*
X19595559Y-912862D01*
X19600000Y-913500D01*
X20200000Y-913500D01*
X20273079Y-908273D01*
X20359672Y-882847D01*
X20430668Y-882847D01*
X20446734Y-888839D01*
X20447131Y-888956D01*
X20455330Y-892700D01*
X20464247Y-893982D01*
X20595552Y-912861D01*
X20595559Y-912862D01*
X20600000Y-913500D01*
X21200000Y-913500D01*
X21273079Y-908273D01*
X21359672Y-882847D01*
X21430668Y-882847D01*
X21446734Y-888839D01*
X21447131Y-888956D01*
X21455330Y-892700D01*
X21464247Y-893982D01*
X21595552Y-912861D01*
X21595559Y-912862D01*
X21600000Y-913500D01*
X22200000Y-913500D01*
X22200000Y-914139D01*
X22266317Y-931081D01*
X22314684Y-983053D01*
X22328000Y-1039429D01*
X22328000Y-4360879D01*
X22307998Y-4429000D01*
X22291095Y-4449974D01*
X20958174Y-5782895D01*
X20895862Y-5816921D01*
X20825047Y-5811856D01*
X20768211Y-5769309D01*
X20743486Y-5701321D01*
X20743500Y-5700000D01*
X20741685Y-5684997D01*
X20727622Y-5568793D01*
X20722904Y-5529806D01*
X20662306Y-5369438D01*
X20637272Y-5333013D01*
X20569506Y-5234413D01*
X20569505Y-5234411D01*
X20565204Y-5228154D01*
X20559533Y-5223101D01*
X20442877Y-5119164D01*
X20442875Y-5119162D01*
X20437204Y-5114110D01*
X20430495Y-5110558D01*
X20430491Y-5110555D01*
X20292411Y-5037445D01*
X20292408Y-5037444D01*
X20285696Y-5033890D01*
X20166547Y-5003962D01*
X20126795Y-4993977D01*
X20126793Y-4993977D01*
X20119425Y-4992126D01*
X20111827Y-4992086D01*
X20111825Y-4992086D01*
X20037841Y-4991699D01*
X19947992Y-4991229D01*
X19940613Y-4993001D01*
X19940609Y-4993001D01*
X19788673Y-5029477D01*
X19788669Y-5029478D01*
X19781294Y-5031249D01*
X19628954Y-5109878D01*
X19623232Y-5114870D01*
X19623230Y-5114871D01*
X19512902Y-5211116D01*
X19499766Y-5222575D01*
X19401190Y-5362835D01*
X19365385Y-5454670D01*
X19341956Y-5514764D01*
X19338916Y-5522560D01*
X19337925Y-5530087D01*
X19333579Y-5563101D01*
X19316539Y-5692528D01*
X19335351Y-5862928D01*
X19394267Y-6023922D01*
X19398503Y-6030225D01*
X19398503Y-6030226D01*
X19412342Y-6050820D01*
X19489884Y-6166216D01*
X19495503Y-6171329D01*
X19495504Y-6171330D01*
X19616666Y-6281579D01*
X19653588Y-6342219D01*
X19651865Y-6413195D01*
X19612043Y-6471971D01*
X19561281Y-6497291D01*
X19544794Y-6501249D01*
X19392454Y-6579878D01*
X19263266Y-6692575D01*
X19164690Y-6832835D01*
X19102416Y-6992560D01*
X19101425Y-7000087D01*
X19098146Y-7024997D01*
X19080039Y-7162528D01*
X19095411Y-7301766D01*
X19098851Y-7332928D01*
X19095322Y-7333318D01*
X19090223Y-7395835D01*
X19066598Y-7452870D01*
X19042661Y-7510661D01*
X19034290Y-7574247D01*
X19032922Y-7584634D01*
X19004199Y-7649561D01*
X18990829Y-7663136D01*
X18931912Y-7714532D01*
X18867429Y-7744240D01*
X18797122Y-7734370D01*
X18765264Y-7713659D01*
X18692877Y-7649164D01*
X18692875Y-7649162D01*
X18687204Y-7644110D01*
X18680495Y-7640558D01*
X18680491Y-7640555D01*
X18542411Y-7567445D01*
X18542406Y-7567443D01*
X18535696Y-7563890D01*
X18525182Y-7561249D01*
X18376795Y-7523977D01*
X18376793Y-7523977D01*
X18369425Y-7522126D01*
X18361827Y-7522086D01*
X18361825Y-7522086D01*
X18287841Y-7521699D01*
X18197992Y-7521229D01*
X18190613Y-7523001D01*
X18190609Y-7523001D01*
X18038673Y-7559477D01*
X18038669Y-7559478D01*
X18031294Y-7561249D01*
X17878954Y-7639878D01*
X17873232Y-7644870D01*
X17873230Y-7644871D01*
X17793417Y-7714496D01*
X17749766Y-7752575D01*
X17651190Y-7892835D01*
X17588916Y-8052560D01*
X17587925Y-8060087D01*
X17567617Y-8214340D01*
X17566539Y-8222528D01*
X17574433Y-8294031D01*
X17583867Y-8379487D01*
X17571461Y-8449391D01*
X17523231Y-8501491D01*
X17505008Y-8510466D01*
X17501321Y-8511926D01*
X17494738Y-8513739D01*
X17331107Y-8600012D01*
X17325890Y-8604420D01*
X17325891Y-8604420D01*
X17292224Y-8632871D01*
X17227283Y-8661563D01*
X17157140Y-8650590D01*
X17140074Y-8640845D01*
X17017698Y-8557679D01*
X17012055Y-8553844D01*
X17005725Y-8551312D01*
X17005721Y-8551310D01*
X16846641Y-8487683D01*
X16840303Y-8485148D01*
X16833573Y-8484034D01*
X16833570Y-8484033D01*
X16664543Y-8456050D01*
X16664540Y-8456050D01*
X16657806Y-8454935D01*
X16650990Y-8455292D01*
X16650986Y-8455292D01*
X16530426Y-8461611D01*
X16473078Y-8464617D01*
X16466500Y-8466429D01*
X16466499Y-8466429D01*
X16402587Y-8484033D01*
X16294738Y-8513739D01*
X16294734Y-8513726D01*
X16226685Y-8519959D01*
X16165321Y-8488023D01*
X16165204Y-8488154D01*
X16160579Y-8484033D01*
X16042877Y-8379164D01*
X16042875Y-8379162D01*
X16037204Y-8374110D01*
X16030495Y-8370558D01*
X16030491Y-8370555D01*
X15892411Y-8297445D01*
X15892408Y-8297444D01*
X15885696Y-8293890D01*
X15868127Y-8289477D01*
X15726795Y-8253977D01*
X15726793Y-8253977D01*
X15719425Y-8252126D01*
X15711827Y-8252086D01*
X15711825Y-8252086D01*
X15637841Y-8251699D01*
X15547992Y-8251229D01*
X15540613Y-8253001D01*
X15540609Y-8253001D01*
X15388673Y-8289477D01*
X15388669Y-8289478D01*
X15381294Y-8291249D01*
X15228954Y-8369878D01*
X15223232Y-8374870D01*
X15223230Y-8374871D01*
X15131041Y-8455292D01*
X15099766Y-8482575D01*
X15055495Y-8545567D01*
X14999962Y-8589797D01*
X14929330Y-8596983D01*
X14893449Y-8584469D01*
X14842411Y-8557445D01*
X14842408Y-8557444D01*
X14835696Y-8553890D01*
X14828327Y-8552039D01*
X14676795Y-8513977D01*
X14676793Y-8513977D01*
X14669425Y-8512126D01*
X14661827Y-8512086D01*
X14661825Y-8512086D01*
X14587841Y-8511699D01*
X14497992Y-8511229D01*
X14490613Y-8513001D01*
X14490609Y-8513001D01*
X14338673Y-8549477D01*
X14338669Y-8549478D01*
X14331294Y-8551249D01*
X14178954Y-8629878D01*
X14173232Y-8634870D01*
X14173230Y-8634871D01*
X14081954Y-8714496D01*
X14049766Y-8742575D01*
X14045396Y-8748793D01*
X14040316Y-8754435D01*
X14038534Y-8752830D01*
X13992146Y-8789780D01*
X13928142Y-8798021D01*
X13890000Y-8792999D01*
X13881812Y-8794077D01*
X13860204Y-8796922D01*
X13843757Y-8798000D01*
X13001589Y-8798000D01*
X12933468Y-8777998D01*
X12886975Y-8724342D01*
X12875589Y-8672000D01*
X12875589Y-5439816D01*
X12895591Y-5371695D01*
X12949247Y-5325202D01*
X13019521Y-5315098D01*
X13044095Y-5321632D01*
X13047343Y-5323396D01*
X13130255Y-5345148D01*
X13205817Y-5364971D01*
X13205819Y-5364971D01*
X13213167Y-5366899D01*
X13300639Y-5368273D01*
X13376982Y-5369472D01*
X13376985Y-5369472D01*
X13384581Y-5369591D01*
X13391985Y-5367895D01*
X13391987Y-5367895D01*
X13466566Y-5350814D01*
X13551690Y-5331318D01*
X13704845Y-5254289D01*
X13835205Y-5142951D01*
X13855383Y-5114871D01*
X13930808Y-5009906D01*
X13930809Y-5009905D01*
X13935245Y-5003731D01*
X13999188Y-4844667D01*
X14023344Y-4674942D01*
X14023500Y-4660000D01*
X14022232Y-4649518D01*
X14968291Y-4649518D01*
X14969734Y-4656191D01*
X14969734Y-4656193D01*
X14998914Y-4791150D01*
X15007383Y-4830322D01*
X15084387Y-4998514D01*
X15088491Y-5003960D01*
X15088492Y-5003962D01*
X15165681Y-5106395D01*
X15195711Y-5146246D01*
X15200890Y-5150685D01*
X15200891Y-5150686D01*
X15284766Y-5222575D01*
X15336162Y-5266627D01*
X15412843Y-5307743D01*
X15493170Y-5350814D01*
X15493172Y-5350815D01*
X15499187Y-5354040D01*
X15505755Y-5355899D01*
X15505756Y-5355899D01*
X15569335Y-5373890D01*
X15677179Y-5404407D01*
X15683987Y-5404811D01*
X15683990Y-5404812D01*
X15836958Y-5413900D01*
X15861835Y-5415378D01*
X15942833Y-5402549D01*
X16037805Y-5387507D01*
X16037809Y-5387506D01*
X16044539Y-5386440D01*
X16050885Y-5383953D01*
X16050889Y-5383952D01*
X16210412Y-5321436D01*
X16210416Y-5321434D01*
X16216767Y-5318945D01*
X16263044Y-5287965D01*
X16364815Y-5219835D01*
X16364818Y-5219832D01*
X16370483Y-5216040D01*
X16498517Y-5082528D01*
X16502321Y-5076297D01*
X16591334Y-4930469D01*
X16594894Y-4924637D01*
X16638038Y-4799339D01*
X16652895Y-4756191D01*
X16652896Y-4756188D01*
X16655118Y-4749734D01*
X16665501Y-4660000D01*
X16675975Y-4569471D01*
X16675975Y-4569470D01*
X16676379Y-4565979D01*
X16676400Y-4560000D01*
X16668775Y-4489806D01*
X16657159Y-4382888D01*
X16656422Y-4376101D01*
X16597421Y-4200781D01*
X16502148Y-4042221D01*
X16467616Y-4005704D01*
X16429126Y-3965003D01*
X16375050Y-3907819D01*
X16334515Y-3880271D01*
X16227698Y-3807679D01*
X16222055Y-3803844D01*
X16215725Y-3801312D01*
X16215721Y-3801310D01*
X16056641Y-3737683D01*
X16050303Y-3735148D01*
X16043573Y-3734034D01*
X16043570Y-3734033D01*
X15874543Y-3706050D01*
X15874540Y-3706050D01*
X15867806Y-3704935D01*
X15860990Y-3705292D01*
X15860986Y-3705292D01*
X15740426Y-3711611D01*
X15683078Y-3714617D01*
X15676500Y-3716429D01*
X15676499Y-3716429D01*
X15511315Y-3761927D01*
X15511311Y-3761928D01*
X15504738Y-3763739D01*
X15498707Y-3766919D01*
X15498704Y-3766920D01*
X15440051Y-3797845D01*
X15341107Y-3850012D01*
X15335894Y-3854417D01*
X15335890Y-3854420D01*
X15205033Y-3965003D01*
X15205029Y-3965007D01*
X15199819Y-3969410D01*
X15195672Y-3974833D01*
X15195671Y-3974835D01*
X15091610Y-4110941D01*
X15091607Y-4110945D01*
X15087466Y-4116362D01*
X15009290Y-4284012D01*
X14968937Y-4464538D01*
X14968913Y-4471367D01*
X14968913Y-4471368D01*
X14968849Y-4489806D01*
X14968291Y-4649518D01*
X14022232Y-4649518D01*
X14002904Y-4489806D01*
X13942306Y-4329438D01*
X13858326Y-4207246D01*
X13849506Y-4194413D01*
X13849505Y-4194411D01*
X13845204Y-4188154D01*
X13764627Y-4116362D01*
X13722877Y-4079164D01*
X13722875Y-4079162D01*
X13717204Y-4074110D01*
X13710495Y-4070558D01*
X13710491Y-4070555D01*
X13572411Y-3997445D01*
X13572408Y-3997444D01*
X13565696Y-3993890D01*
X13507762Y-3979338D01*
X13406795Y-3953977D01*
X13406793Y-3953977D01*
X13399425Y-3952126D01*
X13391827Y-3952086D01*
X13391825Y-3952086D01*
X13317841Y-3951699D01*
X13227992Y-3951229D01*
X13220613Y-3953001D01*
X13220609Y-3953001D01*
X13068673Y-3989477D01*
X13068669Y-3989478D01*
X13061294Y-3991249D01*
X13054551Y-3994729D01*
X13047424Y-3997380D01*
X13046442Y-3994740D01*
X12989651Y-4005704D01*
X12923732Y-3979338D01*
X12882532Y-3921518D01*
X12875589Y-3880271D01*
X12875589Y-2045533D01*
X12895591Y-1977412D01*
X12912493Y-1956438D01*
X13271765Y-1597165D01*
X13284157Y-1586297D01*
X13301456Y-1573023D01*
X13308001Y-1568001D01*
X13313781Y-1560469D01*
X13385864Y-1466527D01*
X13399697Y-1448500D01*
X13428399Y-1379207D01*
X13457340Y-1309338D01*
X13477001Y-1160000D01*
X13473078Y-1130202D01*
X13472000Y-1113756D01*
X13472000Y-1039357D01*
X13492002Y-971236D01*
X13545658Y-924743D01*
X13600000Y-914938D01*
X13600000Y-913500D01*
X14200000Y-913500D01*
X14273079Y-908273D01*
X14359672Y-882847D01*
X14430668Y-882847D01*
X14446734Y-888839D01*
G37*
%TD.AperFunction*%
%TD*%
M02*
