%TF.GenerationSoftware,KiCad,Pcbnew,(5.99.0-9634-gb691c18bfc)*%
%TF.CreationDate,2021-03-06T19:44:37+01:00*%
%TF.ProjectId,nRF52840Breakout,6e524635-3238-4343-9042-7265616b6f75,rev?*%
%TF.SameCoordinates,Original*%
%TF.FileFunction,Copper,L4,Bot*%
%TF.FilePolarity,Positive*%
%FSLAX46Y46*%
G04 Gerber Fmt 4.6, Leading zero omitted, Abs format (unit mm)*
G04 Created by KiCad (PCBNEW (5.99.0-9634-gb691c18bfc)) date 2021-03-06 19:44:37*
%MOMM*%
%LPD*%
G01*
G04 APERTURE LIST*
%TA.AperFunction,ComponentPad*%
%ADD10R,0.600000X0.800000*%
%TD*%
%TA.AperFunction,ComponentPad*%
%ADD11R,0.800000X0.600000*%
%TD*%
%TA.AperFunction,ComponentPad*%
%ADD12R,0.500000X0.900000*%
%TD*%
%TA.AperFunction,ViaPad*%
%ADD13C,0.685800*%
%TD*%
%TA.AperFunction,ViaPad*%
%ADD14C,0.400000*%
%TD*%
%TA.AperFunction,Conductor*%
%ADD15C,0.254000*%
%TD*%
%TA.AperFunction,Conductor*%
%ADD16C,0.127000*%
%TD*%
%TA.AperFunction,Conductor*%
%ADD17C,0.152400*%
%TD*%
G04 APERTURE END LIST*
D10*
%TO.P,J2,1,Pin_1*%
%TO.N,Net-(J2-Pad1)*%
X7900000Y0D03*
%TO.P,J2,2,Pin_2*%
%TO.N,Net-(J2-Pad2)*%
X8900000Y0D03*
%TO.P,J2,3,Pin_3*%
%TO.N,Net-(J2-Pad3)*%
X9900000Y0D03*
%TO.P,J2,4,Pin_4*%
%TO.N,Net-(J2-Pad4)*%
X10900000Y0D03*
%TO.P,J2,5,Pin_5*%
%TO.N,Net-(J2-Pad5)*%
X11900000Y0D03*
%TO.P,J2,6,Pin_6*%
%TO.N,Net-(J2-Pad6)*%
X12900000Y0D03*
%TO.P,J2,7,Pin_7*%
%TO.N,Net-(J2-Pad7)*%
X13900000Y0D03*
%TO.P,J2,8,Pin_8*%
%TO.N,Net-(J2-Pad8)*%
X14900000Y0D03*
%TO.P,J2,9,Pin_9*%
%TO.N,Net-(J2-Pad9)*%
X15900000Y0D03*
%TO.P,J2,10,Pin_10*%
%TO.N,GND*%
X16900000Y0D03*
%TO.P,J2,11,Pin_11*%
%TO.N,Net-(J2-Pad11)*%
X17900000Y0D03*
%TO.P,J2,12,Pin_12*%
%TO.N,Net-(J2-Pad12)*%
X18900000Y0D03*
%TO.P,J2,13,Pin_13*%
%TO.N,Net-(J2-Pad13)*%
X19900000Y0D03*
%TO.P,J2,14,Pin_14*%
%TO.N,Net-(J2-Pad14)*%
X20900000Y0D03*
%TO.P,J2,15,Pin_15*%
%TO.N,Net-(J2-Pad15)*%
X21900000Y0D03*
%TO.P,J2,16,Pin_16*%
%TO.N,Net-(J2-Pad16)*%
X22900000Y0D03*
%TO.P,J2,17,Pin_17*%
%TO.N,SWDCLK*%
X23900000Y0D03*
%TO.P,J2,18,Pin_18*%
%TO.N,SWDIO*%
X24900000Y0D03*
%TO.P,J2,19,Pin_19*%
%TO.N,RST*%
X25900000Y0D03*
%TO.P,J2,20,Pin_20*%
%TO.N,GND*%
X26900000Y0D03*
%TD*%
D11*
%TO.P,J3,1,Pin_1*%
%TO.N,Net-(J3-Pad1)*%
X30900000Y-3010000D03*
%TO.P,J3,2,Pin_2*%
%TO.N,Net-(J3-Pad2)*%
X30900000Y-4010000D03*
%TO.P,J3,3,Pin_3*%
%TO.N,Net-(J3-Pad3)*%
X30900000Y-5010000D03*
%TO.P,J3,4,Pin_4*%
%TO.N,Net-(J3-Pad4)*%
X30900000Y-6010000D03*
%TO.P,J3,5,Pin_5*%
%TO.N,Net-(J3-Pad5)*%
X30900000Y-7010000D03*
%TO.P,J3,6,Pin_6*%
%TO.N,Net-(J3-Pad6)*%
X30900000Y-8010000D03*
%TO.P,J3,7,Pin_7*%
%TO.N,Net-(J3-Pad7)*%
X30900000Y-9010000D03*
%TO.P,J3,8,Pin_8*%
%TO.N,Net-(J3-Pad8)*%
X30900000Y-10010000D03*
%TO.P,J3,9,Pin_9*%
%TO.N,Net-(J3-Pad9)*%
X30900000Y-11010000D03*
%TO.P,J3,10,Pin_10*%
%TO.N,GND*%
X30900000Y-12010000D03*
%TO.P,J3,11,Pin_11*%
%TO.N,VDD*%
X30900000Y-13010000D03*
%TO.P,J3,12,Pin_12*%
%TO.N,VDDH*%
X30900000Y-14010000D03*
%TO.P,J3,13,Pin_13*%
%TO.N,Net-(J3-Pad13)*%
X30900000Y-15010000D03*
%TO.P,J3,14,Pin_14*%
%TO.N,Net-(J3-Pad14)*%
X30900000Y-16010000D03*
%TO.P,J3,15,Pin_15*%
%TO.N,Net-(J3-Pad15)*%
X30900000Y-17010000D03*
%TO.P,J3,16,Pin_16*%
%TO.N,Net-(J3-Pad16)*%
X30900000Y-18010000D03*
%TO.P,J3,17,Pin_17*%
%TO.N,Net-(J3-Pad17)*%
X30900000Y-19010000D03*
%TO.P,J3,18,Pin_18*%
%TO.N,Net-(J3-Pad18)*%
X30900000Y-20010000D03*
%TO.P,J3,19,Pin_19*%
%TO.N,USB_D+*%
X30900000Y-21010000D03*
%TO.P,J3,20,Pin_20*%
%TO.N,USB_D-*%
X30900000Y-22010000D03*
%TD*%
D12*
%TO.P,AE1,2*%
%TO.N,N/C*%
X5910000Y-2210000D03*
%TD*%
D10*
%TO.P,J1,1,Pin_1*%
%TO.N,GND*%
X7910000Y-25010000D03*
%TO.P,J1,2,Pin_2*%
%TO.N,Net-(J1-Pad2)*%
X8910000Y-25010000D03*
%TO.P,J1,3,Pin_3*%
%TO.N,Net-(J1-Pad3)*%
X9910000Y-25010000D03*
%TO.P,J1,4,Pin_4*%
%TO.N,Net-(J1-Pad4)*%
X10910000Y-25010000D03*
%TO.P,J1,5,Pin_5*%
%TO.N,Net-(J1-Pad5)*%
X11910000Y-25010000D03*
%TO.P,J1,6,Pin_6*%
%TO.N,GND*%
X12910000Y-25010000D03*
%TO.P,J1,7,Pin_7*%
%TO.N,VDD*%
X13910000Y-25010000D03*
%TO.P,J1,8,Pin_8*%
%TO.N,Net-(J1-Pad8)*%
X14910000Y-25010000D03*
%TO.P,J1,9,Pin_9*%
%TO.N,Net-(J1-Pad9)*%
X15910000Y-25010000D03*
%TO.P,J1,10,Pin_10*%
%TO.N,Net-(J1-Pad10)*%
X16910000Y-25010000D03*
%TO.P,J1,11,Pin_11*%
%TO.N,Net-(J1-Pad11)*%
X17910000Y-25010000D03*
%TO.P,J1,12,Pin_12*%
%TO.N,Net-(J1-Pad12)*%
X18910000Y-25010000D03*
%TO.P,J1,13,Pin_13*%
%TO.N,Net-(J1-Pad13)*%
X19910000Y-25010000D03*
%TO.P,J1,14,Pin_14*%
%TO.N,Net-(J1-Pad14)*%
X20910000Y-25010000D03*
%TO.P,J1,15,Pin_15*%
%TO.N,Net-(J1-Pad15)*%
X21910000Y-25010000D03*
%TO.P,J1,16,Pin_16*%
%TO.N,Net-(J1-Pad16)*%
X22910000Y-25010000D03*
%TO.P,J1,17,Pin_17*%
%TO.N,Net-(J1-Pad17)*%
X23910000Y-25010000D03*
%TO.P,J1,18,Pin_18*%
%TO.N,Net-(J1-Pad18)*%
X24910000Y-25010000D03*
%TO.P,J1,19,Pin_19*%
%TO.N,VBUS*%
X25910000Y-25010000D03*
%TO.P,J1,20,Pin_20*%
%TO.N,GND*%
X26910000Y-25010000D03*
%TD*%
D13*
%TO.N,GND*%
X20310000Y-10410000D03*
X13210000Y-20010000D03*
X17810000Y-12610000D03*
D14*
X20030000Y-5700000D03*
D13*
X19110000Y-11510000D03*
X16610000Y-9310000D03*
X18849831Y-17110000D03*
X26920000Y-1190000D03*
X17810000Y-11510000D03*
X19110000Y-12610000D03*
X29680000Y-12030000D03*
X17810000Y-9310000D03*
D14*
X12900000Y-23910000D03*
D13*
X16610000Y-12610000D03*
X6760000Y-2210000D03*
X14337500Y-17810000D03*
D14*
X7900000Y-23940000D03*
X24710000Y-12590000D03*
D13*
X27390000Y-20130000D03*
X22510000Y-15320000D03*
X16910000Y-1070000D03*
X17810000Y-10410000D03*
X10510000Y-9610000D03*
X19110000Y-10410000D03*
X20310000Y-12610000D03*
X13910000Y-10210000D03*
X16610000Y-11510000D03*
X21396400Y-22370000D03*
D14*
X13310000Y-4660000D03*
D13*
X16610000Y-10410000D03*
X19110000Y-9310000D03*
X20310000Y-9310000D03*
X17610000Y-20510000D03*
X20310000Y-11510000D03*
X26900000Y-23850000D03*
D14*
X24240000Y-8920000D03*
D13*
%TO.N,VDD*%
X21880000Y-4290000D03*
X13910000Y-23710000D03*
X23940000Y-3380000D03*
X23930000Y-4230000D03*
D14*
X23190000Y-7070000D03*
D13*
X23900000Y-1760000D03*
X11410000Y-17710000D03*
X12810000Y-8510000D03*
D14*
X24200000Y-10770000D03*
D13*
X21910000Y-1760000D03*
X21930000Y-3430000D03*
D14*
X19930000Y-18600000D03*
D13*
%TO.N,DEC4_6*%
X11600000Y-11340000D03*
X15820000Y-4560000D03*
D14*
%TO.N,Net-(J1-Pad3)*%
X13880000Y-11840000D03*
%TO.N,Net-(J1-Pad5)*%
X15680000Y-11970000D03*
%TO.N,USB_D-*%
X21991113Y-13286263D03*
%TO.N,USB_D+*%
X22370000Y-12960000D03*
%TO.N,RST*%
X21180000Y-10970009D03*
X25840000Y-6040000D03*
%TO.N,Net-(J1-Pad8)*%
X17337000Y-15360000D03*
%TO.N,Net-(J1-Pad9)*%
X17430000Y-13720000D03*
%TO.N,Net-(J1-Pad10)*%
X17488969Y-16385099D03*
%TO.N,Net-(J1-Pad11)*%
X17929550Y-13698743D03*
%TO.N,Net-(J1-Pad12)*%
X18293050Y-15320000D03*
%TO.N,Net-(J1-Pad13)*%
X18430000Y-13720000D03*
%TO.N,Net-(J1-Pad14)*%
X19090000Y-15230000D03*
%TO.N,Net-(J1-Pad15)*%
X18930003Y-13720000D03*
%TO.N,Net-(J1-Pad16)*%
X19703387Y-14796139D03*
%TO.N,Net-(J2-Pad4)*%
X15680000Y-10469991D03*
%TO.N,Net-(J2-Pad3)*%
X13120000Y-11480000D03*
%TO.N,Net-(J2-Pad2)*%
X15680000Y-10969994D03*
%TO.N,Net-(J2-Pad1)*%
X15680000Y-11469997D03*
%TO.N,Net-(J1-Pad2)*%
X14416935Y-12360980D03*
%TO.N,Net-(J1-Pad17)*%
X19680000Y-14220000D03*
%TO.N,Net-(J1-Pad18)*%
X19910000Y-13720000D03*
%TO.N,Net-(J1-Pad4)*%
X15180000Y-11720000D03*
%TO.N,Net-(J2-Pad5)*%
X11366411Y-2585000D03*
X11360000Y-10230000D03*
%TO.N,Net-(J2-Pad6)*%
X15680000Y-9969988D03*
%TO.N,Net-(J2-Pad7)*%
X15360000Y-1450000D03*
X15630000Y-8960000D03*
%TO.N,Net-(J2-Pad8)*%
X14580000Y-9220000D03*
%TO.N,Net-(J2-Pad12)*%
X18280000Y-8230000D03*
%TO.N,Net-(J2-Pad14)*%
X19430000Y-8220000D03*
%TO.N,Net-(J2-Pad15)*%
X19793500Y-7170000D03*
%TO.N,Net-(J2-Pad16)*%
X19930000Y-8220000D03*
%TO.N,Net-(J3-Pad1)*%
X23220000Y-8590000D03*
%TO.N,Net-(J3-Pad2)*%
X21198380Y-8544902D03*
D13*
%TO.N,VBUS*%
X24470000Y-16470000D03*
D14*
%TO.N,Net-(J3-Pad3)*%
X22540718Y-8962782D03*
%TO.N,Net-(J3-Pad4)*%
X21180000Y-9470000D03*
%TO.N,Net-(J3-Pad5)*%
X24070000Y-10210000D03*
%TO.N,Net-(J3-Pad6)*%
X21180000Y-9970003D03*
%TO.N,Net-(J3-Pad7)*%
X22210000Y-10230000D03*
%TO.N,Net-(J3-Pad8)*%
X20236459Y-7779106D03*
X25080000Y-7000000D03*
%TO.N,Net-(J3-Pad9)*%
X24480000Y-7040000D03*
X20810000Y-8230000D03*
%TO.N,Net-(J3-Pad13)*%
X21180000Y-10470006D03*
%TO.N,Net-(J3-Pad14)*%
X23740000Y-12163500D03*
%TO.N,Net-(J3-Pad15)*%
X21180000Y-11470012D03*
%TO.N,Net-(J3-Pad16)*%
X23827966Y-13362034D03*
%TO.N,Net-(J3-Pad17)*%
X21180000Y-11970015D03*
%TO.N,Net-(J3-Pad18)*%
X23050932Y-13099068D03*
%TD*%
D15*
%TO.N,GND*%
X26910000Y-23860000D02*
X26910000Y-24882980D01*
X26920000Y-1190000D02*
X26920000Y-127020D01*
X26900000Y-23850000D02*
X26910000Y-23860000D01*
X26920000Y-127020D02*
X26900000Y-127020D01*
D16*
X12900000Y-24936480D02*
X12910000Y-24946480D01*
D15*
X16910000Y-1070000D02*
X16910000Y-127020D01*
D16*
X12900000Y-23910000D02*
X12900000Y-24936480D01*
X7900000Y-24946480D02*
X7910000Y-24946480D01*
D15*
X29680000Y-12030000D02*
X30913284Y-12030000D01*
X16910000Y-127020D02*
X16900000Y-127020D01*
D16*
X7900000Y-23940000D02*
X7900000Y-24946480D01*
D15*
%TO.N,VDD*%
X21910000Y-1760000D02*
X23900000Y-1760000D01*
X13910000Y-23710000D02*
X13910000Y-24882980D01*
%TO.N,DEC4_6*%
X11600000Y-11210000D02*
X15919250Y-6890750D01*
X15919250Y-6890750D02*
X15919250Y-6244219D01*
X15919250Y-6890750D02*
X15820000Y-4560000D01*
X11600000Y-11340000D02*
X11600000Y-11210000D01*
D16*
%TO.N,Net-(J1-Pad3)*%
X14800000Y-15778946D02*
X9910000Y-20668946D01*
X9910000Y-20668946D02*
X9910000Y-24946480D01*
X14433952Y-11840000D02*
X14800000Y-12206048D01*
X13880000Y-11840000D02*
X14433952Y-11840000D01*
X14800000Y-12206048D02*
X14800000Y-15778946D01*
%TO.N,Net-(J1-Pad5)*%
X15680000Y-11970000D02*
X15680000Y-16260000D01*
X14080511Y-17190000D02*
X12703589Y-18566922D01*
X15680000Y-16260000D02*
X14750000Y-17190000D01*
X11960000Y-24400000D02*
X11960000Y-24946480D01*
X14750000Y-17190000D02*
X14080511Y-17190000D01*
X12703589Y-18566922D02*
X12703589Y-21786411D01*
X11960000Y-22530000D02*
X11960000Y-24946480D01*
X12703589Y-21786411D02*
X11960000Y-22530000D01*
D17*
%TO.N,USB_D-*%
X22082631Y-13286263D02*
X30806368Y-22010000D01*
X21991113Y-13286263D02*
X22082631Y-13286263D01*
X30806368Y-22010000D02*
X30900000Y-22010000D01*
%TO.N,USB_D+*%
X22370000Y-12960000D02*
X22370000Y-12998894D01*
X23616670Y-14396740D02*
X23767846Y-14396740D01*
X23767846Y-14396740D02*
X30381106Y-21010000D01*
X30381106Y-21010000D02*
X30900000Y-21010000D01*
X22811212Y-13591282D02*
X23616670Y-14396740D01*
X22370000Y-12998894D02*
X22811212Y-13440106D01*
X22811212Y-13440106D02*
X22811212Y-13591282D01*
D16*
%TO.N,Net-(J1-Pad8)*%
X17337000Y-15360000D02*
X16923333Y-15360000D01*
X16923333Y-15360000D02*
X14910000Y-17373333D01*
X14910000Y-17373333D02*
X14910000Y-24946480D01*
%TO.N,Net-(J1-Pad9)*%
X15910000Y-17450000D02*
X15910000Y-24946480D01*
X17700511Y-13990511D02*
X17700511Y-15659489D01*
X17700511Y-15659489D02*
X15910000Y-17450000D01*
X17430000Y-13720000D02*
X17700511Y-13990511D01*
%TO.N,Net-(J1-Pad10)*%
X16910000Y-16964068D02*
X16910000Y-24946480D01*
X17488969Y-16385099D02*
X16910000Y-16964068D01*
%TO.N,Net-(J1-Pad11)*%
X17929550Y-13698743D02*
X17929550Y-16133543D01*
X17852480Y-16587520D02*
X18116411Y-16851451D01*
X17929550Y-16133543D02*
X17852480Y-16210613D01*
X18116411Y-16851451D02*
X18116411Y-24803589D01*
X17852480Y-16210613D02*
X17852480Y-16587520D01*
%TO.N,Net-(J1-Pad12)*%
X18343431Y-15370381D02*
X18343431Y-23373431D01*
X18293050Y-15320000D02*
X18343431Y-15370381D01*
X18910000Y-23940000D02*
X18910000Y-24940445D01*
X18880000Y-23910000D02*
X18910000Y-23940000D01*
X18343431Y-23373431D02*
X18910000Y-23940000D01*
%TO.N,Net-(J1-Pad13)*%
X18430000Y-13720000D02*
X18430000Y-14918953D01*
X19990000Y-24930000D02*
X19973520Y-24946480D01*
X19990000Y-23790000D02*
X19990000Y-24930000D01*
X19370000Y-23170000D02*
X19990000Y-23790000D01*
X18430000Y-14918953D02*
X18656561Y-15145514D01*
X18656561Y-15145514D02*
X18656561Y-15603579D01*
X18656561Y-15603579D02*
X19370000Y-16317018D01*
X19370000Y-16317018D02*
X19370000Y-23170000D01*
%TO.N,Net-(J1-Pad14)*%
X20760000Y-17220000D02*
X20760000Y-23840000D01*
X20760000Y-23840000D02*
X20920000Y-24000000D01*
X19078548Y-15538548D02*
X19078548Y-15241452D01*
X19078548Y-15538548D02*
X20760000Y-17220000D01*
X20920000Y-24000000D02*
X20920000Y-24939803D01*
X19078548Y-15241452D02*
X19090000Y-15230000D01*
%TO.N,Net-(J1-Pad15)*%
X22151054Y-18290000D02*
X22151054Y-24768946D01*
X19493999Y-15096001D02*
X19500000Y-15570000D01*
X18930003Y-13970003D02*
X18940000Y-13980000D01*
X18930003Y-13720000D02*
X18930003Y-13970003D01*
X18940000Y-14610000D02*
X19493999Y-15096001D01*
X18940000Y-13980000D02*
X18940000Y-14610000D01*
X19500000Y-15570000D02*
X22151054Y-18290000D01*
X22151054Y-24768946D02*
X21973520Y-24946480D01*
%TO.N,Net-(J1-Pad16)*%
X22910000Y-18189290D02*
X22910000Y-24946480D01*
X19703387Y-14982677D02*
X22910000Y-18189290D01*
X19703387Y-14796139D02*
X19703387Y-14982677D01*
X22810710Y-18090000D02*
X22910000Y-18189290D01*
%TO.N,Net-(J2-Pad3)*%
X12863589Y-11846411D02*
X10166411Y-11846411D01*
X13120000Y-11480000D02*
X13120000Y-11590000D01*
X13120000Y-11590000D02*
X12863589Y-11846411D01*
X10003589Y-1016411D02*
X9900000Y-912822D01*
X9900000Y-912822D02*
X9900000Y-63520D01*
X10003589Y-11683589D02*
X10003589Y-1016411D01*
X10166411Y-11846411D02*
X10003589Y-11683589D01*
%TO.N,Net-(J1-Pad2)*%
X14416935Y-12360980D02*
X14416935Y-15452554D01*
X14416935Y-15452554D02*
X8910000Y-20959489D01*
X8910000Y-20959489D02*
X8910000Y-24946480D01*
%TO.N,Net-(J1-Pad17)*%
X19680000Y-14220000D02*
X20066898Y-14606898D01*
X23910000Y-18813727D02*
X23910000Y-24946480D01*
X20066898Y-14970625D02*
X23910000Y-18813727D01*
X20066898Y-14606898D02*
X20066898Y-14970625D01*
%TO.N,Net-(J1-Pad18)*%
X24910000Y-18660000D02*
X24910000Y-24946480D01*
X19910000Y-13720000D02*
X19970000Y-13720000D01*
X19970000Y-13720000D02*
X24910000Y-18660000D01*
%TO.N,Net-(J1-Pad4)*%
X13950000Y-16950000D02*
X10910000Y-19990000D01*
X15180000Y-11720000D02*
X15180000Y-16310000D01*
X10910000Y-19990000D02*
X10910000Y-24946480D01*
X15180000Y-16310000D02*
X14540000Y-16950000D01*
X14540000Y-16950000D02*
X13950000Y-16950000D01*
%TO.N,Net-(J2-Pad7)*%
X15630000Y-8960000D02*
X16652680Y-7937320D01*
X16652680Y-7937320D02*
X16652680Y-2742680D01*
X16652680Y-2742680D02*
X15360000Y-1450000D01*
%TO.N,Net-(J2-Pad8)*%
X16425661Y-7374339D02*
X16425661Y-3905661D01*
X14580000Y-9220000D02*
X16425661Y-7374339D01*
X14890000Y-2370000D02*
X14890000Y-63520D01*
X16425661Y-3905661D02*
X14890000Y-2370000D01*
X14890000Y-63520D02*
X14900000Y-63520D01*
%TO.N,Net-(J2-Pad12)*%
X18900000Y-1110000D02*
X18900000Y-63520D01*
X18280000Y-8230000D02*
X18280000Y-1730000D01*
X18280000Y-1730000D02*
X18900000Y-1110000D01*
%TO.N,Net-(J2-Pad14)*%
X20890000Y-63520D02*
X20900000Y-63520D01*
X19430000Y-8220000D02*
X19430000Y-2160000D01*
X20890000Y-700000D02*
X20890000Y-63520D01*
X19430000Y-2160000D02*
X20890000Y-700000D01*
%TO.N,Net-(J2-Pad15)*%
X20393511Y-2406489D02*
X21910000Y-890000D01*
X21910000Y-63520D02*
X21900000Y-63520D01*
X21910000Y-890000D02*
X21910000Y-63520D01*
X20393511Y-6569989D02*
X20393511Y-2406489D01*
X19793500Y-7170000D02*
X20393511Y-6569989D01*
%TO.N,Net-(J3-Pad1)*%
X24027997Y-8590000D02*
X29607997Y-3010000D01*
X29607997Y-3010000D02*
X30900000Y-3010000D01*
X23220000Y-8590000D02*
X24027997Y-8590000D01*
%TO.N,Net-(J3-Pad2)*%
X21223478Y-8570000D02*
X22710000Y-8570000D01*
X24856489Y-9283511D02*
X30130000Y-4010000D01*
X21198380Y-8544902D02*
X21223478Y-8570000D01*
X22710000Y-8570000D02*
X22710000Y-8617997D01*
X30130000Y-4010000D02*
X30900000Y-4010000D01*
X22710000Y-8617997D02*
X23375514Y-9283511D01*
X23375514Y-9283511D02*
X24856489Y-9283511D01*
D15*
%TO.N,VBUS*%
X25950000Y-23620000D02*
X25950000Y-24882980D01*
X25600000Y-23270000D02*
X25950000Y-23620000D01*
X25600000Y-18370000D02*
X25600000Y-23270000D01*
D16*
X25600000Y-17600000D02*
X25600000Y-18370000D01*
X24470000Y-16470000D02*
X25600000Y-17600000D01*
D15*
X25950000Y-24882980D02*
X25910000Y-24882980D01*
D16*
%TO.N,Net-(J3-Pad3)*%
X22540718Y-8962782D02*
X23088466Y-9510530D01*
X25529470Y-9510530D02*
X30030000Y-5010000D01*
X23088466Y-9510530D02*
X25529470Y-9510530D01*
X30030000Y-5010000D02*
X30900000Y-5010000D01*
%TO.N,Net-(J3-Pad4)*%
X21180000Y-9470000D02*
X21550000Y-9100000D01*
X22797550Y-9737550D02*
X26522450Y-9737550D01*
X30250000Y-6010000D02*
X30900000Y-6010000D01*
X21550000Y-9100000D02*
X22160000Y-9100000D01*
X22160000Y-9100000D02*
X22797550Y-9737550D01*
X26522450Y-9737550D02*
X30250000Y-6010000D01*
%TO.N,Net-(J3-Pad5)*%
X30440000Y-7010000D02*
X30900000Y-7010000D01*
X27240000Y-10210000D02*
X30440000Y-7010000D01*
X24070000Y-10210000D02*
X27240000Y-10210000D01*
%TO.N,Net-(J3-Pad6)*%
X30730000Y-8010000D02*
X30900000Y-8010000D01*
X21180000Y-9970003D02*
X21283514Y-9866489D01*
X24746489Y-11133511D02*
X25400000Y-10480000D01*
X23770000Y-11090000D02*
X23813511Y-11133511D01*
X25400000Y-10480000D02*
X28260000Y-10480000D01*
X22488000Y-9970003D02*
X23210003Y-9970003D01*
X21283514Y-9866489D02*
X22384486Y-9866489D01*
X23210003Y-9970003D02*
X23770000Y-10530000D01*
X23813511Y-11133511D02*
X24746489Y-11133511D01*
X22384486Y-9866489D02*
X22488000Y-9970003D01*
X28260000Y-10480000D02*
X30730000Y-8010000D01*
X23770000Y-10530000D02*
X23770000Y-11090000D01*
X31254796Y-8290000D02*
X31254804Y-8310022D01*
%TO.N,Net-(J3-Pad7)*%
X22210000Y-10230000D02*
X23430000Y-11450000D01*
X25160000Y-11450000D02*
X25850000Y-10760000D01*
X23430000Y-11450000D02*
X25160000Y-11450000D01*
X30280000Y-9010000D02*
X30900000Y-9010000D01*
X25850000Y-10760000D02*
X28530000Y-10760000D01*
X28530000Y-10760000D02*
X30280000Y-9010000D01*
%TO.N,Net-(J3-Pad8)*%
X21740000Y-6240000D02*
X24410000Y-6240000D01*
X24410000Y-6240000D02*
X25080000Y-7000000D01*
X20236459Y-7779106D02*
X21740000Y-6240000D01*
%TO.N,Net-(J3-Pad9)*%
X20810000Y-8230000D02*
X22550000Y-6490000D01*
X23930000Y-6490000D02*
X24480000Y-7040000D01*
X23730000Y-6490000D02*
X23930000Y-6490000D01*
X22550000Y-6490000D02*
X23730000Y-6490000D01*
%TO.N,Net-(J3-Pad13)*%
X29390000Y-15010000D02*
X30900000Y-15010000D01*
X29370000Y-14990000D02*
X29390000Y-15010000D01*
X26180000Y-11800000D02*
X29370000Y-14990000D01*
X21180000Y-10470006D02*
X21920006Y-10470006D01*
X23250000Y-11800000D02*
X26180000Y-11800000D01*
X21920006Y-10470006D02*
X23250000Y-11800000D01*
%TO.N,Net-(J3-Pad14)*%
X30020000Y-16010000D02*
X30900000Y-16010000D01*
X26173500Y-12163500D02*
X30020000Y-16010000D01*
X23740000Y-12163500D02*
X26173500Y-12163500D01*
%TO.N,Net-(J3-Pad15)*%
X27990000Y-17010000D02*
X30900000Y-17010000D01*
X27780000Y-16800000D02*
X27990000Y-17010000D01*
X21610000Y-11170000D02*
X22150000Y-11170000D01*
X22150000Y-11170000D02*
X27780000Y-16800000D01*
X21180000Y-11470012D02*
X21309988Y-11470012D01*
X21309988Y-11470012D02*
X21610000Y-11170000D01*
%TO.N,Net-(J3-Pad16)*%
X27802966Y-17337034D02*
X28475932Y-18010000D01*
X23827966Y-13362034D02*
X27802966Y-17337034D01*
X28475932Y-18010000D02*
X30900000Y-18010000D01*
%TO.N,Net-(J3-Pad17)*%
X23440000Y-12970000D02*
X23440000Y-13560000D01*
X21180000Y-11970015D02*
X21180000Y-11960000D01*
X23810000Y-13930000D02*
X24070000Y-13930000D01*
X21306477Y-11833523D02*
X21426477Y-11833523D01*
X23440000Y-13560000D02*
X23810000Y-13930000D01*
X21180000Y-11960000D02*
X21306477Y-11833523D01*
X24070000Y-13930000D02*
X29150000Y-19010000D01*
X21660000Y-11600000D02*
X22070000Y-11600000D01*
X29150000Y-19010000D02*
X30900000Y-19010000D01*
X22070000Y-11600000D02*
X23440000Y-12970000D01*
X21426477Y-11833523D02*
X21660000Y-11600000D01*
%TO.N,Net-(J3-Pad18)*%
X23715966Y-14157020D02*
X23975966Y-14157020D01*
X29128946Y-19310000D02*
X29170000Y-19310000D01*
X23050932Y-13491986D02*
X23715966Y-14157020D01*
X29870000Y-20010000D02*
X30900000Y-20010000D01*
X29170000Y-19310000D02*
X29870000Y-20010000D01*
X23050932Y-13099068D02*
X23050932Y-13491986D01*
X23975966Y-14157020D02*
X29128946Y-19310000D01*
%TD*%
M02*
