%TF.GenerationSoftware,KiCad,Pcbnew,(5.99.0-9634-gb691c18bfc)*%
%TF.CreationDate,2021-03-09T19:13:24+01:00*%
%TF.ProjectId,nRF52840Breakout,6e524635-3238-4343-9042-7265616b6f75,rev?*%
%TF.SameCoordinates,Original*%
%TF.FileFunction,Soldermask,Bot*%
%TF.FilePolarity,Negative*%
%FSLAX46Y46*%
G04 Gerber Fmt 4.6, Leading zero omitted, Abs format (unit mm)*
G04 Created by KiCad (PCBNEW (5.99.0-9634-gb691c18bfc)) date 2021-03-09 19:13:24*
%MOMM*%
%LPD*%
G01*
G04 APERTURE LIST*
%ADD10R,0.600000X0.800000*%
%ADD11R,0.800000X0.600000*%
%ADD12C,1.448000*%
G04 APERTURE END LIST*
D10*
%TO.C,J2*%
X24940000Y-16150000D03*
X25940000Y-16150000D03*
X26940000Y-16150000D03*
X27940000Y-16150000D03*
X28940000Y-16150000D03*
X29940000Y-16150000D03*
X30940000Y-16150000D03*
X31940000Y-16150000D03*
X32940000Y-16150000D03*
X33940000Y-16150000D03*
X34940000Y-16150000D03*
X35940000Y-16150000D03*
X36940000Y-16150000D03*
X37940000Y-16150000D03*
X38940000Y-16150000D03*
X39940000Y-16150000D03*
X40940000Y-16150000D03*
X41940000Y-16150000D03*
X42940000Y-16150000D03*
X43940000Y-16150000D03*
%TD*%
D11*
%TO.C,J3*%
X47940000Y-19160000D03*
X47940000Y-20160000D03*
X47940000Y-21160000D03*
X47940000Y-22160000D03*
X47940000Y-23160000D03*
X47940000Y-24160000D03*
X47940000Y-25160000D03*
X47940000Y-26160000D03*
X47940000Y-27160000D03*
X47940000Y-28160000D03*
X47940000Y-29160000D03*
X47940000Y-30160000D03*
X47940000Y-31160000D03*
X47940000Y-32160000D03*
X47940000Y-33160000D03*
X47940000Y-34160000D03*
X47940000Y-35160000D03*
X47940000Y-36160000D03*
X47940000Y-37160000D03*
X47940000Y-38160000D03*
%TD*%
D12*
%TO.C,REF\u002A\u002A2*%
X46590000Y-17480000D03*
%TD*%
%TO.C,REF\u002A\u002A1*%
X18210000Y-40060000D03*
%TD*%
D10*
%TO.C,J1*%
X24950000Y-41160000D03*
X25950000Y-41160000D03*
X26950000Y-41160000D03*
X27950000Y-41160000D03*
X28950000Y-41160000D03*
X29950000Y-41160000D03*
X30950000Y-41160000D03*
X31950000Y-41160000D03*
X32950000Y-41160000D03*
X33950000Y-41160000D03*
X34950000Y-41160000D03*
X35950000Y-41160000D03*
X36950000Y-41160000D03*
X37950000Y-41160000D03*
X38950000Y-41160000D03*
X39950000Y-41160000D03*
X40950000Y-41160000D03*
X41950000Y-41160000D03*
X42950000Y-41160000D03*
X43950000Y-41160000D03*
%TD*%
M02*
