%TF.GenerationSoftware,KiCad,Pcbnew,(5.99.0-9634-gb691c18bfc)*%
%TF.CreationDate,2021-03-06T19:44:37+01:00*%
%TF.ProjectId,nRF52840Breakout,6e524635-3238-4343-9042-7265616b6f75,rev?*%
%TF.SameCoordinates,Original*%
%TF.FileFunction,Copper,L2,Inr*%
%TF.FilePolarity,Positive*%
%FSLAX46Y46*%
G04 Gerber Fmt 4.6, Leading zero omitted, Abs format (unit mm)*
G04 Created by KiCad (PCBNEW (5.99.0-9634-gb691c18bfc)) date 2021-03-06 19:44:37*
%MOMM*%
%LPD*%
G01*
G04 APERTURE LIST*
%TA.AperFunction,ComponentPad*%
%ADD10R,0.600000X0.800000*%
%TD*%
%TA.AperFunction,ComponentPad*%
%ADD11R,0.800000X0.600000*%
%TD*%
%TA.AperFunction,ComponentPad*%
%ADD12R,0.500000X0.900000*%
%TD*%
%TA.AperFunction,ViaPad*%
%ADD13C,0.685800*%
%TD*%
%TA.AperFunction,ViaPad*%
%ADD14C,0.400000*%
%TD*%
G04 APERTURE END LIST*
D10*
%TO.N,Net-(J2-Pad1)*%
%TO.C,J2*%
X7900000Y0D03*
%TO.N,Net-(J2-Pad2)*%
X8900000Y0D03*
%TO.N,Net-(J2-Pad3)*%
X9900000Y0D03*
%TO.N,Net-(J2-Pad4)*%
X10900000Y0D03*
%TO.N,Net-(J2-Pad5)*%
X11900000Y0D03*
%TO.N,Net-(J2-Pad6)*%
X12900000Y0D03*
%TO.N,Net-(J2-Pad7)*%
X13900000Y0D03*
%TO.N,Net-(J2-Pad8)*%
X14900000Y0D03*
%TO.N,Net-(J2-Pad9)*%
X15900000Y0D03*
%TO.N,GND*%
X16900000Y0D03*
%TO.N,Net-(J2-Pad11)*%
X17900000Y0D03*
%TO.N,Net-(J2-Pad12)*%
X18900000Y0D03*
%TO.N,Net-(J2-Pad13)*%
X19900000Y0D03*
%TO.N,Net-(J2-Pad14)*%
X20900000Y0D03*
%TO.N,Net-(J2-Pad15)*%
X21900000Y0D03*
%TO.N,Net-(J2-Pad16)*%
X22900000Y0D03*
%TO.N,SWDCLK*%
X23900000Y0D03*
%TO.N,SWDIO*%
X24900000Y0D03*
%TO.N,RST*%
X25900000Y0D03*
%TO.N,GND*%
X26900000Y0D03*
%TD*%
D11*
%TO.N,Net-(J3-Pad1)*%
%TO.C,J3*%
X30900000Y-3010000D03*
%TO.N,Net-(J3-Pad2)*%
X30900000Y-4010000D03*
%TO.N,Net-(J3-Pad3)*%
X30900000Y-5010000D03*
%TO.N,Net-(J3-Pad4)*%
X30900000Y-6010000D03*
%TO.N,Net-(J3-Pad5)*%
X30900000Y-7010000D03*
%TO.N,Net-(J3-Pad6)*%
X30900000Y-8010000D03*
%TO.N,Net-(J3-Pad7)*%
X30900000Y-9010000D03*
%TO.N,Net-(J3-Pad8)*%
X30900000Y-10010000D03*
%TO.N,Net-(J3-Pad9)*%
X30900000Y-11010000D03*
%TO.N,GND*%
X30900000Y-12010000D03*
%TO.N,VDD*%
X30900000Y-13010000D03*
%TO.N,VDDH*%
X30900000Y-14010000D03*
%TO.N,Net-(J3-Pad13)*%
X30900000Y-15010000D03*
%TO.N,Net-(J3-Pad14)*%
X30900000Y-16010000D03*
%TO.N,Net-(J3-Pad15)*%
X30900000Y-17010000D03*
%TO.N,Net-(J3-Pad16)*%
X30900000Y-18010000D03*
%TO.N,Net-(J3-Pad17)*%
X30900000Y-19010000D03*
%TO.N,Net-(J3-Pad18)*%
X30900000Y-20010000D03*
%TO.N,USB_D+*%
X30900000Y-21010000D03*
%TO.N,USB_D-*%
X30900000Y-22010000D03*
%TD*%
D12*
%TO.N,N/C*%
%TO.C,AE1*%
X5910000Y-2210000D03*
%TD*%
D10*
%TO.N,GND*%
%TO.C,J1*%
X7910000Y-25010000D03*
%TO.N,Net-(J1-Pad2)*%
X8910000Y-25010000D03*
%TO.N,Net-(J1-Pad3)*%
X9910000Y-25010000D03*
%TO.N,Net-(J1-Pad4)*%
X10910000Y-25010000D03*
%TO.N,Net-(J1-Pad5)*%
X11910000Y-25010000D03*
%TO.N,GND*%
X12910000Y-25010000D03*
%TO.N,VDD*%
X13910000Y-25010000D03*
%TO.N,Net-(J1-Pad8)*%
X14910000Y-25010000D03*
%TO.N,Net-(J1-Pad9)*%
X15910000Y-25010000D03*
%TO.N,Net-(J1-Pad10)*%
X16910000Y-25010000D03*
%TO.N,Net-(J1-Pad11)*%
X17910000Y-25010000D03*
%TO.N,Net-(J1-Pad12)*%
X18910000Y-25010000D03*
%TO.N,Net-(J1-Pad13)*%
X19910000Y-25010000D03*
%TO.N,Net-(J1-Pad14)*%
X20910000Y-25010000D03*
%TO.N,Net-(J1-Pad15)*%
X21910000Y-25010000D03*
%TO.N,Net-(J1-Pad16)*%
X22910000Y-25010000D03*
%TO.N,Net-(J1-Pad17)*%
X23910000Y-25010000D03*
%TO.N,Net-(J1-Pad18)*%
X24910000Y-25010000D03*
%TO.N,VBUS*%
X25910000Y-25010000D03*
%TO.N,GND*%
X26910000Y-25010000D03*
%TD*%
D13*
%TO.N,GND*%
X20310000Y-10410000D03*
X13210000Y-20010000D03*
X17810000Y-12610000D03*
D14*
X20030000Y-5700000D03*
D13*
X19110000Y-11510000D03*
X16610000Y-9310000D03*
X18849831Y-17110000D03*
X26920000Y-1190000D03*
X17810000Y-11510000D03*
X19110000Y-12610000D03*
X29680000Y-12030000D03*
X17810000Y-9310000D03*
D14*
X12900000Y-23910000D03*
D13*
X16610000Y-12610000D03*
X6760000Y-2210000D03*
X14337500Y-17810000D03*
D14*
X7900000Y-23940000D03*
X24710000Y-12590000D03*
D13*
X27390000Y-20130000D03*
X22510000Y-15320000D03*
X16910000Y-1070000D03*
X17810000Y-10410000D03*
X10510000Y-9610000D03*
X19110000Y-10410000D03*
X20310000Y-12610000D03*
X13910000Y-10210000D03*
X16610000Y-11510000D03*
X21396400Y-22370000D03*
D14*
X13310000Y-4660000D03*
D13*
X16610000Y-10410000D03*
X19110000Y-9310000D03*
X20310000Y-9310000D03*
X17610000Y-20510000D03*
X20310000Y-11510000D03*
X26900000Y-23850000D03*
D14*
X24240000Y-8920000D03*
D13*
%TO.N,VDD*%
X21880000Y-4290000D03*
X13910000Y-23710000D03*
X23940000Y-3380000D03*
X23930000Y-4230000D03*
D14*
X23190000Y-7070000D03*
D13*
X23900000Y-1760000D03*
X11410000Y-17710000D03*
X12810000Y-8510000D03*
D14*
X24200000Y-10770000D03*
D13*
X21910000Y-1760000D03*
X21930000Y-3430000D03*
D14*
X19930000Y-18600000D03*
D13*
%TO.N,DEC4_6*%
X11600000Y-11340000D03*
X15820000Y-4560000D03*
D14*
%TO.N,Net-(J1-Pad3)*%
X13880000Y-11840000D03*
%TO.N,Net-(J1-Pad5)*%
X15680000Y-11970000D03*
%TO.N,USB_D-*%
X21991113Y-13286263D03*
%TO.N,USB_D+*%
X22370000Y-12960000D03*
%TO.N,RST*%
X21180000Y-10970009D03*
X25840000Y-6040000D03*
%TO.N,Net-(J1-Pad8)*%
X17337000Y-15360000D03*
%TO.N,Net-(J1-Pad9)*%
X17430000Y-13720000D03*
%TO.N,Net-(J1-Pad10)*%
X17488969Y-16385099D03*
%TO.N,Net-(J1-Pad11)*%
X17929550Y-13698743D03*
%TO.N,Net-(J1-Pad12)*%
X18293050Y-15320000D03*
%TO.N,Net-(J1-Pad13)*%
X18430000Y-13720000D03*
%TO.N,Net-(J1-Pad14)*%
X19090000Y-15230000D03*
%TO.N,Net-(J1-Pad15)*%
X18930003Y-13720000D03*
%TO.N,Net-(J1-Pad16)*%
X19703387Y-14796139D03*
%TO.N,Net-(J2-Pad4)*%
X15680000Y-10469991D03*
%TO.N,Net-(J2-Pad3)*%
X13120000Y-11480000D03*
%TO.N,Net-(J2-Pad2)*%
X15680000Y-10969994D03*
%TO.N,Net-(J2-Pad1)*%
X15680000Y-11469997D03*
%TO.N,Net-(J1-Pad2)*%
X14416935Y-12360980D03*
%TO.N,Net-(J1-Pad17)*%
X19680000Y-14220000D03*
%TO.N,Net-(J1-Pad18)*%
X19910000Y-13720000D03*
%TO.N,Net-(J1-Pad4)*%
X15180000Y-11720000D03*
%TO.N,Net-(J2-Pad5)*%
X11366411Y-2585000D03*
X11360000Y-10230000D03*
%TO.N,Net-(J2-Pad6)*%
X15680000Y-9969988D03*
%TO.N,Net-(J2-Pad7)*%
X15360000Y-1450000D03*
X15630000Y-8960000D03*
%TO.N,Net-(J2-Pad8)*%
X14580000Y-9220000D03*
%TO.N,Net-(J2-Pad12)*%
X18280000Y-8230000D03*
%TO.N,Net-(J2-Pad14)*%
X19430000Y-8220000D03*
%TO.N,Net-(J2-Pad15)*%
X19793500Y-7170000D03*
%TO.N,Net-(J2-Pad16)*%
X19930000Y-8220000D03*
%TO.N,Net-(J3-Pad1)*%
X23220000Y-8590000D03*
%TO.N,Net-(J3-Pad2)*%
X21198380Y-8544902D03*
D13*
%TO.N,VBUS*%
X24470000Y-16470000D03*
D14*
%TO.N,Net-(J3-Pad3)*%
X22540718Y-8962782D03*
%TO.N,Net-(J3-Pad4)*%
X21180000Y-9470000D03*
%TO.N,Net-(J3-Pad5)*%
X24070000Y-10210000D03*
%TO.N,Net-(J3-Pad6)*%
X21180000Y-9970003D03*
%TO.N,Net-(J3-Pad7)*%
X22210000Y-10230000D03*
%TO.N,Net-(J3-Pad8)*%
X20236459Y-7779106D03*
X25080000Y-7000000D03*
%TO.N,Net-(J3-Pad9)*%
X24480000Y-7040000D03*
X20810000Y-8230000D03*
%TO.N,Net-(J3-Pad13)*%
X21180000Y-10470006D03*
%TO.N,Net-(J3-Pad14)*%
X23740000Y-12163500D03*
%TO.N,Net-(J3-Pad15)*%
X21180000Y-11470012D03*
%TO.N,Net-(J3-Pad16)*%
X23827966Y-13362034D03*
%TO.N,Net-(J3-Pad17)*%
X21180000Y-11970015D03*
%TO.N,Net-(J3-Pad18)*%
X23050932Y-13099068D03*
%TD*%
%TA.AperFunction,Conductor*%
%TO.N,GND*%
G36*
X7008368Y-510269D02*
G01*
X7076480Y-530293D01*
X7122956Y-583964D01*
X7129218Y-600763D01*
X7132904Y-613316D01*
X7138481Y-621994D01*
X7207051Y-728691D01*
X7207053Y-728694D01*
X7211923Y-736271D01*
X7218733Y-742172D01*
X7315569Y-826082D01*
X7315572Y-826084D01*
X7322381Y-831984D01*
X7330579Y-835728D01*
X7446876Y-888839D01*
X7455330Y-892700D01*
X7464245Y-893982D01*
X7464246Y-893982D01*
X7595552Y-912861D01*
X7595559Y-912862D01*
X7600000Y-913500D01*
X8200000Y-913500D01*
X8273079Y-908273D01*
X8359672Y-882847D01*
X8430668Y-882847D01*
X8446734Y-888839D01*
X8447131Y-888956D01*
X8455330Y-892700D01*
X8464247Y-893982D01*
X8595552Y-912861D01*
X8595559Y-912862D01*
X8600000Y-913500D01*
X9200000Y-913500D01*
X9273079Y-908273D01*
X9359672Y-882847D01*
X9430668Y-882847D01*
X9446734Y-888839D01*
X9447131Y-888956D01*
X9455330Y-892700D01*
X9464247Y-893982D01*
X9595552Y-912861D01*
X9595559Y-912862D01*
X9600000Y-913500D01*
X10200000Y-913500D01*
X10273079Y-908273D01*
X10359672Y-882847D01*
X10430668Y-882847D01*
X10446734Y-888839D01*
X10447131Y-888956D01*
X10455330Y-892700D01*
X10464247Y-893982D01*
X10595552Y-912861D01*
X10595559Y-912862D01*
X10600000Y-913500D01*
X11200000Y-913500D01*
X11273079Y-908273D01*
X11359672Y-882847D01*
X11430668Y-882847D01*
X11446734Y-888839D01*
X11447131Y-888956D01*
X11455330Y-892700D01*
X11464247Y-893982D01*
X11595552Y-912861D01*
X11595559Y-912862D01*
X11600000Y-913500D01*
X12200000Y-913500D01*
X12273079Y-908273D01*
X12359672Y-882847D01*
X12430668Y-882847D01*
X12446734Y-888839D01*
X12447131Y-888956D01*
X12455330Y-892700D01*
X12464247Y-893982D01*
X12595552Y-912861D01*
X12595559Y-912862D01*
X12600000Y-913500D01*
X13200000Y-913500D01*
X13273079Y-908273D01*
X13359672Y-882847D01*
X13430668Y-882847D01*
X13446734Y-888839D01*
X13447131Y-888956D01*
X13455330Y-892700D01*
X13464247Y-893982D01*
X13595552Y-912861D01*
X13595559Y-912862D01*
X13600000Y-913500D01*
X14200000Y-913500D01*
X14273079Y-908273D01*
X14359672Y-882847D01*
X14430668Y-882847D01*
X14446734Y-888839D01*
X14447131Y-888956D01*
X14455330Y-892700D01*
X14464247Y-893982D01*
X14595552Y-912861D01*
X14595559Y-912862D01*
X14600000Y-913500D01*
X14628725Y-913500D01*
X14696846Y-933502D01*
X14743339Y-987158D01*
X14753443Y-1057432D01*
X14737032Y-1098793D01*
X14739147Y-1099927D01*
X14735560Y-1106617D01*
X14731190Y-1112835D01*
X14668916Y-1272560D01*
X14667925Y-1280087D01*
X14649791Y-1417828D01*
X14646539Y-1442528D01*
X14665351Y-1612928D01*
X14684238Y-1664538D01*
X14720266Y-1762988D01*
X14724267Y-1773922D01*
X14728503Y-1780225D01*
X14728503Y-1780226D01*
X14794861Y-1878977D01*
X14819884Y-1916216D01*
X14825503Y-1921329D01*
X14825504Y-1921330D01*
X14941067Y-2026484D01*
X14946683Y-2031594D01*
X14960975Y-2039354D01*
X15090666Y-2109771D01*
X15090668Y-2109772D01*
X15097343Y-2113396D01*
X15104692Y-2115324D01*
X15255817Y-2154971D01*
X15255819Y-2154971D01*
X15263167Y-2156899D01*
X15350639Y-2158273D01*
X15426982Y-2159472D01*
X15426985Y-2159472D01*
X15434581Y-2159591D01*
X15441985Y-2157895D01*
X15441987Y-2157895D01*
X15504789Y-2143511D01*
X15601690Y-2121318D01*
X15754845Y-2044289D01*
X15885205Y-1932951D01*
X15907936Y-1901318D01*
X15980808Y-1799906D01*
X15980809Y-1799905D01*
X15985245Y-1793731D01*
X16049188Y-1634667D01*
X16073344Y-1464942D01*
X16073500Y-1450000D01*
X16071685Y-1434997D01*
X16065142Y-1380932D01*
X16052904Y-1279806D01*
X15992306Y-1119438D01*
X15986417Y-1110869D01*
X15985779Y-1108922D01*
X15984485Y-1106447D01*
X15984897Y-1106231D01*
X15964315Y-1043401D01*
X15982199Y-974694D01*
X16034389Y-926562D01*
X16090255Y-913500D01*
X16200000Y-913500D01*
X16273079Y-908273D01*
X16360398Y-882634D01*
X16431393Y-882634D01*
X16446263Y-888180D01*
X16464388Y-893502D01*
X16595554Y-912361D01*
X16604495Y-913000D01*
X16627885Y-913000D01*
X16643124Y-908525D01*
X16644329Y-907135D01*
X16646000Y-899452D01*
X16646000Y-674337D01*
X16657387Y-621994D01*
X16657388Y-621993D01*
X16673327Y-587091D01*
X16719820Y-533436D01*
X16787977Y-513435D01*
X17009319Y-513507D01*
X17077430Y-533530D01*
X17123906Y-587201D01*
X17130172Y-604012D01*
X17132904Y-613316D01*
X17137775Y-620895D01*
X17141520Y-629095D01*
X17138530Y-630460D01*
X17154000Y-683139D01*
X17154000Y-894885D01*
X17158475Y-910124D01*
X17159865Y-911329D01*
X17167548Y-913000D01*
X17197743Y-913000D01*
X17202250Y-912839D01*
X17266269Y-908260D01*
X17279488Y-905875D01*
X17358983Y-882533D01*
X17429980Y-882533D01*
X17446829Y-888818D01*
X17447134Y-888957D01*
X17455330Y-892700D01*
X17464245Y-893982D01*
X17464246Y-893982D01*
X17595552Y-912861D01*
X17595559Y-912862D01*
X17600000Y-913500D01*
X18200000Y-913500D01*
X18273079Y-908273D01*
X18359672Y-882847D01*
X18430668Y-882847D01*
X18446734Y-888839D01*
X18447131Y-888956D01*
X18455330Y-892700D01*
X18464247Y-893982D01*
X18595552Y-912861D01*
X18595559Y-912862D01*
X18600000Y-913500D01*
X19200000Y-913500D01*
X19273079Y-908273D01*
X19359672Y-882847D01*
X19430668Y-882847D01*
X19446734Y-888839D01*
X19447131Y-888956D01*
X19455330Y-892700D01*
X19464247Y-893982D01*
X19595552Y-912861D01*
X19595559Y-912862D01*
X19600000Y-913500D01*
X20200000Y-913500D01*
X20273079Y-908273D01*
X20359672Y-882847D01*
X20430668Y-882847D01*
X20446734Y-888839D01*
X20447131Y-888956D01*
X20455330Y-892700D01*
X20464247Y-893982D01*
X20595552Y-912861D01*
X20595559Y-912862D01*
X20600000Y-913500D01*
X21200000Y-913500D01*
X21202249Y-913339D01*
X21202253Y-913339D01*
X21243402Y-910396D01*
X21312776Y-925488D01*
X21362978Y-975690D01*
X21378069Y-1045064D01*
X21353258Y-1111584D01*
X21333721Y-1132310D01*
X21289819Y-1169410D01*
X21285672Y-1174833D01*
X21285671Y-1174835D01*
X21181610Y-1310941D01*
X21181607Y-1310945D01*
X21177466Y-1316362D01*
X21099290Y-1484012D01*
X21058937Y-1664538D01*
X21058291Y-1849518D01*
X21059734Y-1856191D01*
X21059734Y-1856193D01*
X21090635Y-1999110D01*
X21097383Y-2030322D01*
X21174387Y-2198514D01*
X21178491Y-2203960D01*
X21178492Y-2203962D01*
X21256797Y-2307875D01*
X21285711Y-2346246D01*
X21290890Y-2350685D01*
X21290891Y-2350686D01*
X21408874Y-2451809D01*
X21426162Y-2466627D01*
X21467957Y-2489037D01*
X21518540Y-2538856D01*
X21534159Y-2608113D01*
X21509855Y-2674820D01*
X21467179Y-2711538D01*
X21451107Y-2720012D01*
X21445894Y-2724417D01*
X21445890Y-2724420D01*
X21315033Y-2835003D01*
X21315029Y-2835007D01*
X21309819Y-2839410D01*
X21305672Y-2844833D01*
X21305671Y-2844835D01*
X21201610Y-2980941D01*
X21201607Y-2980945D01*
X21197466Y-2986362D01*
X21119290Y-3154012D01*
X21078937Y-3334538D01*
X21078291Y-3519518D01*
X21079734Y-3526191D01*
X21079734Y-3526193D01*
X21105130Y-3643650D01*
X21117383Y-3700322D01*
X21120224Y-3706527D01*
X21141788Y-3753628D01*
X21151958Y-3823893D01*
X21141419Y-3859328D01*
X21097268Y-3954012D01*
X21069290Y-4014012D01*
X21028937Y-4194538D01*
X21028913Y-4201367D01*
X21028913Y-4201368D01*
X21028825Y-4226508D01*
X21028291Y-4379518D01*
X21029734Y-4386191D01*
X21029734Y-4386193D01*
X21063134Y-4540668D01*
X21067383Y-4560322D01*
X21144387Y-4728514D01*
X21148491Y-4733960D01*
X21148492Y-4733962D01*
X21216077Y-4823650D01*
X21255711Y-4876246D01*
X21260890Y-4880685D01*
X21260891Y-4880686D01*
X21390106Y-4991436D01*
X21396162Y-4996627D01*
X21409842Y-5003962D01*
X21553170Y-5080814D01*
X21553172Y-5080815D01*
X21559187Y-5084040D01*
X21565755Y-5085899D01*
X21565756Y-5085899D01*
X21664893Y-5113952D01*
X21737179Y-5134407D01*
X21743987Y-5134811D01*
X21743990Y-5134812D01*
X21896958Y-5143900D01*
X21921835Y-5145378D01*
X22002833Y-5132549D01*
X22097805Y-5117507D01*
X22097809Y-5117506D01*
X22104539Y-5116440D01*
X22110885Y-5113953D01*
X22110889Y-5113952D01*
X22270412Y-5051436D01*
X22270416Y-5051434D01*
X22276767Y-5048945D01*
X22343961Y-5003962D01*
X22424815Y-4949835D01*
X22424818Y-4949832D01*
X22430483Y-4946040D01*
X22443771Y-4932184D01*
X22553795Y-4817452D01*
X22558517Y-4812528D01*
X22654894Y-4654637D01*
X22685233Y-4566527D01*
X22712895Y-4486191D01*
X22712896Y-4486188D01*
X22715118Y-4479734D01*
X22717648Y-4457872D01*
X22735975Y-4299471D01*
X22735975Y-4299470D01*
X22736379Y-4295979D01*
X22736400Y-4290000D01*
X22735750Y-4284012D01*
X22718208Y-4122543D01*
X22716422Y-4106101D01*
X22663498Y-3948838D01*
X22660728Y-3877897D01*
X22675368Y-3843009D01*
X22704894Y-3794637D01*
X22717841Y-3757035D01*
X22762895Y-3626191D01*
X22762896Y-3626188D01*
X22765118Y-3619734D01*
X22777504Y-3512689D01*
X22785975Y-3439471D01*
X22785975Y-3439470D01*
X22786379Y-3435979D01*
X22786400Y-3430000D01*
X22766422Y-3246101D01*
X22720847Y-3110675D01*
X22709597Y-3077246D01*
X22709596Y-3077244D01*
X22707421Y-3070781D01*
X22612148Y-2912221D01*
X22485050Y-2777819D01*
X22399990Y-2720012D01*
X22359186Y-2692282D01*
X22314087Y-2637449D01*
X22305793Y-2566939D01*
X22336936Y-2503137D01*
X22359914Y-2483366D01*
X22454815Y-2419835D01*
X22454818Y-2419832D01*
X22460483Y-2416040D01*
X22588517Y-2282528D01*
X22605374Y-2254913D01*
X22681334Y-2130469D01*
X22684894Y-2124637D01*
X22726376Y-2004164D01*
X22742895Y-1956191D01*
X22742896Y-1956188D01*
X22745118Y-1949734D01*
X22748276Y-1922445D01*
X22765975Y-1769471D01*
X22765975Y-1769470D01*
X22766379Y-1765979D01*
X22766400Y-1760000D01*
X22764645Y-1743839D01*
X22754939Y-1654502D01*
X22746422Y-1576101D01*
X22703985Y-1450000D01*
X22689597Y-1407246D01*
X22689596Y-1407244D01*
X22687421Y-1400781D01*
X22592148Y-1242221D01*
X22541591Y-1188758D01*
X22479617Y-1123223D01*
X22447345Y-1059985D01*
X22454385Y-989338D01*
X22498502Y-933713D01*
X22565689Y-910769D01*
X22589099Y-911933D01*
X22595546Y-912860D01*
X22595551Y-912860D01*
X22600000Y-913500D01*
X23200000Y-913500D01*
X23232476Y-911177D01*
X23301849Y-926268D01*
X23352052Y-976470D01*
X23367144Y-1045844D01*
X23342334Y-1112364D01*
X23322793Y-1133094D01*
X23285033Y-1165003D01*
X23285029Y-1165007D01*
X23279819Y-1169410D01*
X23275672Y-1174833D01*
X23275671Y-1174835D01*
X23171610Y-1310941D01*
X23171607Y-1310945D01*
X23167466Y-1316362D01*
X23089290Y-1484012D01*
X23048937Y-1664538D01*
X23048291Y-1849518D01*
X23049734Y-1856191D01*
X23049734Y-1856193D01*
X23080635Y-1999110D01*
X23087383Y-2030322D01*
X23164387Y-2198514D01*
X23168491Y-2203960D01*
X23168492Y-2203962D01*
X23246797Y-2307875D01*
X23275711Y-2346246D01*
X23280890Y-2350685D01*
X23280891Y-2350686D01*
X23398874Y-2451809D01*
X23416162Y-2466627D01*
X23427509Y-2472711D01*
X23478092Y-2522528D01*
X23493712Y-2591785D01*
X23469409Y-2658492D01*
X23449296Y-2679993D01*
X23325033Y-2785003D01*
X23325029Y-2785007D01*
X23319819Y-2789410D01*
X23315672Y-2794833D01*
X23315671Y-2794835D01*
X23211610Y-2930941D01*
X23211607Y-2930945D01*
X23207466Y-2936362D01*
X23129290Y-3104012D01*
X23088937Y-3284538D01*
X23088913Y-3291367D01*
X23088913Y-3291368D01*
X23088617Y-3376028D01*
X23088291Y-3469518D01*
X23089734Y-3476191D01*
X23089734Y-3476193D01*
X23124486Y-3636921D01*
X23127383Y-3650322D01*
X23130224Y-3656527D01*
X23169295Y-3741866D01*
X23179465Y-3812130D01*
X23168926Y-3847567D01*
X23163442Y-3859328D01*
X23119290Y-3954012D01*
X23078937Y-4134538D01*
X23078291Y-4319518D01*
X23079734Y-4326191D01*
X23079734Y-4326193D01*
X23114328Y-4486191D01*
X23117383Y-4500322D01*
X23194387Y-4668514D01*
X23198491Y-4673960D01*
X23198492Y-4673962D01*
X23276797Y-4777875D01*
X23305711Y-4816246D01*
X23446162Y-4936627D01*
X23470795Y-4949835D01*
X23603170Y-5020814D01*
X23603172Y-5020815D01*
X23609187Y-5024040D01*
X23615755Y-5025899D01*
X23615756Y-5025899D01*
X23683784Y-5045149D01*
X23787179Y-5074407D01*
X23793987Y-5074811D01*
X23793990Y-5074812D01*
X23946958Y-5083900D01*
X23971835Y-5085378D01*
X24052833Y-5072549D01*
X24147805Y-5057507D01*
X24147809Y-5057506D01*
X24154539Y-5056440D01*
X24160885Y-5053953D01*
X24160889Y-5053952D01*
X24320412Y-4991436D01*
X24320416Y-4991434D01*
X24326767Y-4988945D01*
X24390857Y-4946040D01*
X24474815Y-4889835D01*
X24474818Y-4889832D01*
X24480483Y-4886040D01*
X24608517Y-4752528D01*
X24623176Y-4728514D01*
X24701334Y-4600469D01*
X24704894Y-4594637D01*
X24716710Y-4560322D01*
X24762895Y-4426191D01*
X24762896Y-4426188D01*
X24765118Y-4419734D01*
X24770167Y-4376101D01*
X24785975Y-4239471D01*
X24785975Y-4239470D01*
X24786379Y-4235979D01*
X24786400Y-4230000D01*
X24781824Y-4187872D01*
X24767159Y-4052888D01*
X24766422Y-4046101D01*
X24707421Y-3870781D01*
X24705093Y-3866907D01*
X24694808Y-3797552D01*
X24709286Y-3757035D01*
X24708433Y-3756634D01*
X24711334Y-3750469D01*
X24714894Y-3744637D01*
X24725354Y-3714260D01*
X24772895Y-3576191D01*
X24772896Y-3576188D01*
X24775118Y-3569734D01*
X24786696Y-3469672D01*
X24795975Y-3389471D01*
X24795975Y-3389470D01*
X24796379Y-3385979D01*
X24796400Y-3380000D01*
X24796003Y-3376340D01*
X24782591Y-3252888D01*
X24776422Y-3196101D01*
X24736423Y-3077246D01*
X24719597Y-3027246D01*
X24719596Y-3027244D01*
X24717421Y-3020781D01*
X24622148Y-2862221D01*
X24495050Y-2727819D01*
X24483563Y-2720012D01*
X24396324Y-2660725D01*
X24351225Y-2605892D01*
X24342931Y-2535382D01*
X24374074Y-2471581D01*
X24397053Y-2451809D01*
X24444811Y-2419838D01*
X24444816Y-2419834D01*
X24450483Y-2416040D01*
X24578517Y-2282528D01*
X24595374Y-2254913D01*
X24671334Y-2130469D01*
X24674894Y-2124637D01*
X24716376Y-2004164D01*
X24732895Y-1956191D01*
X24732896Y-1956188D01*
X24735118Y-1949734D01*
X24738276Y-1922445D01*
X24755975Y-1769471D01*
X24755975Y-1769470D01*
X24756379Y-1765979D01*
X24756400Y-1760000D01*
X24754645Y-1743839D01*
X24744939Y-1654502D01*
X24736422Y-1576101D01*
X24693985Y-1450000D01*
X24679597Y-1407246D01*
X24679596Y-1407244D01*
X24677421Y-1400781D01*
X24582148Y-1242221D01*
X24468043Y-1121558D01*
X24435772Y-1058321D01*
X24442812Y-987674D01*
X24486929Y-932049D01*
X24554116Y-909105D01*
X24577525Y-910269D01*
X24595544Y-912860D01*
X24595553Y-912861D01*
X24600000Y-913500D01*
X25200000Y-913500D01*
X25273079Y-908273D01*
X25359672Y-882847D01*
X25430668Y-882847D01*
X25446734Y-888839D01*
X25447131Y-888956D01*
X25455330Y-892700D01*
X25464247Y-893982D01*
X25595552Y-912861D01*
X25595559Y-912862D01*
X25600000Y-913500D01*
X26200000Y-913500D01*
X26273079Y-908273D01*
X26360398Y-882634D01*
X26431393Y-882634D01*
X26446263Y-888180D01*
X26464388Y-893502D01*
X26595554Y-912361D01*
X26604495Y-913000D01*
X26627885Y-913000D01*
X26643124Y-908525D01*
X26644329Y-907135D01*
X26646000Y-899452D01*
X26646000Y-674337D01*
X26657387Y-621994D01*
X26671849Y-590327D01*
X26718343Y-536672D01*
X26786500Y-516672D01*
X27028045Y-516750D01*
X27096155Y-536773D01*
X27142631Y-590444D01*
X27154000Y-642749D01*
X27154000Y-894885D01*
X27158475Y-910124D01*
X27159865Y-911329D01*
X27167548Y-913000D01*
X27197743Y-913000D01*
X27202250Y-912839D01*
X27266269Y-908260D01*
X27279491Y-905874D01*
X27404458Y-869181D01*
X27420692Y-861767D01*
X27528360Y-792574D01*
X27541847Y-780888D01*
X27625662Y-684160D01*
X27635309Y-669149D01*
X27671157Y-590652D01*
X27717650Y-536997D01*
X27785809Y-516995D01*
X28817345Y-517329D01*
X28885458Y-537353D01*
X28931934Y-591024D01*
X28942015Y-661301D01*
X28912501Y-725872D01*
X28903876Y-734877D01*
X28883663Y-753992D01*
X28883661Y-753995D01*
X28878704Y-758682D01*
X28874869Y-764325D01*
X28775785Y-910124D01*
X28771682Y-916161D01*
X28769150Y-922490D01*
X28769149Y-922493D01*
X28714156Y-1059985D01*
X28700972Y-1092947D01*
X28694455Y-1132314D01*
X28672108Y-1267300D01*
X28669874Y-1280793D01*
X28670231Y-1287610D01*
X28670231Y-1287614D01*
X28672349Y-1328016D01*
X28679839Y-1470935D01*
X28681650Y-1477509D01*
X28681650Y-1477510D01*
X28724939Y-1634667D01*
X28730402Y-1654502D01*
X28819203Y-1822929D01*
X28823605Y-1828138D01*
X28823607Y-1828141D01*
X28885447Y-1901318D01*
X28942100Y-1968357D01*
X29093359Y-2084004D01*
X29236792Y-2150887D01*
X29251821Y-2157895D01*
X29265923Y-2164471D01*
X29272580Y-2165959D01*
X29446697Y-2204879D01*
X29446700Y-2204879D01*
X29451740Y-2206006D01*
X29456904Y-2206295D01*
X29456906Y-2206295D01*
X29457609Y-2206334D01*
X29460575Y-2206500D01*
X29596027Y-2206500D01*
X29600575Y-2206006D01*
X29669540Y-2198514D01*
X29739289Y-2190937D01*
X29919747Y-2130206D01*
X29929016Y-2124637D01*
X30062736Y-2044289D01*
X30082954Y-2032141D01*
X30170240Y-1949599D01*
X30233478Y-1917328D01*
X30304125Y-1924368D01*
X30359750Y-1968485D01*
X30382812Y-2041095D01*
X30382844Y-2120299D01*
X30362870Y-2188425D01*
X30309234Y-2234939D01*
X30298175Y-2239066D01*
X30295330Y-2240365D01*
X30286684Y-2242904D01*
X30248528Y-2267426D01*
X30171309Y-2317051D01*
X30171306Y-2317053D01*
X30163729Y-2321923D01*
X30157828Y-2328733D01*
X30073918Y-2425569D01*
X30073916Y-2425572D01*
X30068016Y-2432381D01*
X30064272Y-2440579D01*
X30050904Y-2469852D01*
X30007300Y-2565330D01*
X30006018Y-2574245D01*
X30006018Y-2574246D01*
X29987139Y-2705552D01*
X29987138Y-2705559D01*
X29986500Y-2710000D01*
X29986500Y-3310000D01*
X29991727Y-3383079D01*
X30017108Y-3469518D01*
X30017153Y-3469672D01*
X30017153Y-3540668D01*
X30011161Y-3556734D01*
X30011044Y-3557131D01*
X30007300Y-3565330D01*
X30006018Y-3574247D01*
X29987139Y-3705552D01*
X29987138Y-3705559D01*
X29986500Y-3710000D01*
X29986500Y-4310000D01*
X29991727Y-4383079D01*
X30017153Y-4469672D01*
X30017153Y-4540668D01*
X30011161Y-4556734D01*
X30011044Y-4557131D01*
X30007300Y-4565330D01*
X30006018Y-4574247D01*
X29987139Y-4705552D01*
X29987138Y-4705559D01*
X29986500Y-4710000D01*
X29986500Y-5310000D01*
X29991727Y-5383079D01*
X30017153Y-5469672D01*
X30017153Y-5540668D01*
X30011161Y-5556734D01*
X30011044Y-5557131D01*
X30007300Y-5565330D01*
X30006018Y-5574247D01*
X29987139Y-5705552D01*
X29987138Y-5705559D01*
X29986500Y-5710000D01*
X29986500Y-6310000D01*
X29991727Y-6383079D01*
X30014937Y-6462126D01*
X30017153Y-6469672D01*
X30017153Y-6540668D01*
X30011161Y-6556734D01*
X30011044Y-6557131D01*
X30007300Y-6565330D01*
X30006018Y-6574247D01*
X29987139Y-6705552D01*
X29987138Y-6705559D01*
X29986500Y-6710000D01*
X29986500Y-7310000D01*
X29991727Y-7383079D01*
X30010949Y-7448544D01*
X30017153Y-7469672D01*
X30017153Y-7540668D01*
X30011161Y-7556734D01*
X30011044Y-7557131D01*
X30007300Y-7565330D01*
X30006018Y-7574247D01*
X29987139Y-7705552D01*
X29987138Y-7705559D01*
X29986500Y-7710000D01*
X29986500Y-8310000D01*
X29991727Y-8383079D01*
X30000964Y-8414538D01*
X30017153Y-8469672D01*
X30017153Y-8540668D01*
X30011161Y-8556734D01*
X30011044Y-8557131D01*
X30007300Y-8565330D01*
X30006018Y-8574247D01*
X29987139Y-8705552D01*
X29987138Y-8705559D01*
X29986500Y-8710000D01*
X29986500Y-9310000D01*
X29991727Y-9383079D01*
X30009307Y-9442951D01*
X30017153Y-9469672D01*
X30017153Y-9540668D01*
X30011161Y-9556734D01*
X30011044Y-9557131D01*
X30007300Y-9565330D01*
X30006018Y-9574247D01*
X29987139Y-9705552D01*
X29987138Y-9705559D01*
X29986500Y-9710000D01*
X29986500Y-10310000D01*
X29991727Y-10383079D01*
X30010361Y-10446540D01*
X30017153Y-10469672D01*
X30017153Y-10540668D01*
X30011161Y-10556734D01*
X30011044Y-10557131D01*
X30007300Y-10565330D01*
X30006018Y-10574247D01*
X29987139Y-10705552D01*
X29987138Y-10705559D01*
X29986500Y-10710000D01*
X29986500Y-11310000D01*
X29991727Y-11383079D01*
X30017253Y-11470012D01*
X30017366Y-11470397D01*
X30017366Y-11541393D01*
X30011820Y-11556263D01*
X30006498Y-11574388D01*
X29987639Y-11705554D01*
X29987000Y-11714495D01*
X29987000Y-11737885D01*
X29991475Y-11753124D01*
X29992865Y-11754329D01*
X30000548Y-11756000D01*
X30225663Y-11756000D01*
X30278002Y-11767385D01*
X30313099Y-11783414D01*
X30366753Y-11829905D01*
X30386755Y-11897976D01*
X30386843Y-12119122D01*
X30366868Y-12187251D01*
X30313231Y-12233765D01*
X30296346Y-12240067D01*
X30295330Y-12240365D01*
X30295328Y-12240366D01*
X30286684Y-12242904D01*
X30279105Y-12247775D01*
X30270904Y-12251520D01*
X30269539Y-12248530D01*
X30216861Y-12264000D01*
X30005115Y-12264000D01*
X29989876Y-12268475D01*
X29988671Y-12269865D01*
X29987000Y-12277548D01*
X29987000Y-12307743D01*
X29987161Y-12312250D01*
X29991740Y-12376269D01*
X29994125Y-12389488D01*
X30017467Y-12468983D01*
X30017467Y-12539980D01*
X30011182Y-12556829D01*
X30007300Y-12565330D01*
X30006018Y-12574245D01*
X30006018Y-12574246D01*
X29987139Y-12705552D01*
X29987138Y-12705559D01*
X29986500Y-12710000D01*
X29986500Y-13310000D01*
X29991727Y-13383079D01*
X29993631Y-13389562D01*
X30017153Y-13469672D01*
X30017153Y-13540668D01*
X30011161Y-13556734D01*
X30011044Y-13557131D01*
X30007300Y-13565330D01*
X30006018Y-13574247D01*
X29987139Y-13705552D01*
X29987138Y-13705559D01*
X29986500Y-13710000D01*
X29986500Y-14310000D01*
X29991727Y-14383079D01*
X30012623Y-14454244D01*
X30017153Y-14469672D01*
X30017153Y-14540668D01*
X30011161Y-14556734D01*
X30011044Y-14557131D01*
X30007300Y-14565330D01*
X30006018Y-14574247D01*
X29987139Y-14705552D01*
X29987138Y-14705559D01*
X29986500Y-14710000D01*
X29986500Y-15310000D01*
X29991727Y-15383079D01*
X30017000Y-15469152D01*
X30017153Y-15469672D01*
X30017153Y-15540668D01*
X30011161Y-15556734D01*
X30011044Y-15557131D01*
X30007300Y-15565330D01*
X30006018Y-15574247D01*
X29987139Y-15705552D01*
X29987138Y-15705559D01*
X29986500Y-15710000D01*
X29986500Y-16310000D01*
X29991727Y-16383079D01*
X30012748Y-16454670D01*
X30017153Y-16469672D01*
X30017153Y-16540668D01*
X30011161Y-16556734D01*
X30011044Y-16557131D01*
X30007300Y-16565330D01*
X30006018Y-16574247D01*
X29987139Y-16705552D01*
X29987138Y-16705559D01*
X29986500Y-16710000D01*
X29986500Y-17310000D01*
X29991727Y-17383079D01*
X30006682Y-17434012D01*
X30017153Y-17469672D01*
X30017153Y-17540668D01*
X30011161Y-17556734D01*
X30011044Y-17557131D01*
X30007300Y-17565330D01*
X30006018Y-17574247D01*
X29987139Y-17705552D01*
X29987138Y-17705559D01*
X29986500Y-17710000D01*
X29986500Y-18310000D01*
X29991727Y-18383079D01*
X30017153Y-18469672D01*
X30017153Y-18540668D01*
X30011161Y-18556734D01*
X30011044Y-18557131D01*
X30007300Y-18565330D01*
X30006018Y-18574247D01*
X29987139Y-18705552D01*
X29987138Y-18705559D01*
X29986500Y-18710000D01*
X29986500Y-19310000D01*
X29991727Y-19383079D01*
X29993631Y-19389562D01*
X30017153Y-19469672D01*
X30017153Y-19540668D01*
X30011161Y-19556734D01*
X30011044Y-19557131D01*
X30007300Y-19565330D01*
X30006018Y-19574247D01*
X29987139Y-19705552D01*
X29987138Y-19705559D01*
X29986500Y-19710000D01*
X29986500Y-20310000D01*
X29991727Y-20383079D01*
X29993631Y-20389562D01*
X30017153Y-20469672D01*
X30017153Y-20540668D01*
X30011161Y-20556734D01*
X30011044Y-20557131D01*
X30007300Y-20565330D01*
X30006018Y-20574247D01*
X29987139Y-20705552D01*
X29987138Y-20705559D01*
X29986500Y-20710000D01*
X29986500Y-21310000D01*
X29991727Y-21383079D01*
X29993631Y-21389562D01*
X30017153Y-21469672D01*
X30017153Y-21540668D01*
X30011161Y-21556734D01*
X30011044Y-21557131D01*
X30007300Y-21565330D01*
X30006018Y-21574247D01*
X29987139Y-21705552D01*
X29987138Y-21705559D01*
X29986500Y-21710000D01*
X29986500Y-22310000D01*
X29991727Y-22383079D01*
X30032904Y-22523316D01*
X30037775Y-22530895D01*
X30107051Y-22638691D01*
X30107053Y-22638694D01*
X30111923Y-22646271D01*
X30118733Y-22652172D01*
X30215569Y-22736082D01*
X30215572Y-22736084D01*
X30222381Y-22741984D01*
X30230578Y-22745728D01*
X30230582Y-22745730D01*
X30317499Y-22785424D01*
X30371154Y-22831917D01*
X30391156Y-22899987D01*
X30391733Y-24340852D01*
X30391747Y-24375950D01*
X30371772Y-24444078D01*
X30318135Y-24490593D01*
X30265747Y-24502000D01*
X27801826Y-24502000D01*
X27733705Y-24481998D01*
X27687212Y-24428342D01*
X27680931Y-24411501D01*
X27679182Y-24405543D01*
X27671767Y-24389308D01*
X27602574Y-24281640D01*
X27590888Y-24268153D01*
X27494160Y-24184338D01*
X27479152Y-24174693D01*
X27362725Y-24121523D01*
X27345612Y-24116498D01*
X27214446Y-24097639D01*
X27205505Y-24097000D01*
X27182115Y-24097000D01*
X27166876Y-24101475D01*
X27165671Y-24102865D01*
X27164000Y-24110548D01*
X27164000Y-24376000D01*
X27143998Y-24444121D01*
X27090342Y-24490614D01*
X27038000Y-24502000D01*
X26802342Y-24502000D01*
X26734221Y-24481998D01*
X26687728Y-24428342D01*
X26681447Y-24411504D01*
X26677096Y-24396684D01*
X26672225Y-24389104D01*
X26668480Y-24380904D01*
X26671470Y-24379539D01*
X26656000Y-24326861D01*
X26656000Y-24115115D01*
X26651525Y-24099876D01*
X26650135Y-24098671D01*
X26642452Y-24097000D01*
X26612257Y-24097000D01*
X26607750Y-24097161D01*
X26543731Y-24101740D01*
X26530512Y-24104125D01*
X26451017Y-24127467D01*
X26380020Y-24127467D01*
X26363171Y-24121182D01*
X26362866Y-24121043D01*
X26354670Y-24117300D01*
X26345755Y-24116018D01*
X26345754Y-24116018D01*
X26214448Y-24097139D01*
X26214441Y-24097138D01*
X26210000Y-24096500D01*
X25610000Y-24096500D01*
X25536921Y-24101727D01*
X25450328Y-24127153D01*
X25379332Y-24127153D01*
X25363266Y-24121161D01*
X25362869Y-24121044D01*
X25354670Y-24117300D01*
X25334947Y-24114464D01*
X25214448Y-24097139D01*
X25214441Y-24097138D01*
X25210000Y-24096500D01*
X24610000Y-24096500D01*
X24536921Y-24101727D01*
X24450328Y-24127153D01*
X24379332Y-24127153D01*
X24363266Y-24121161D01*
X24362869Y-24121044D01*
X24354670Y-24117300D01*
X24334947Y-24114464D01*
X24214448Y-24097139D01*
X24214441Y-24097138D01*
X24210000Y-24096500D01*
X23610000Y-24096500D01*
X23536921Y-24101727D01*
X23450328Y-24127153D01*
X23379332Y-24127153D01*
X23363266Y-24121161D01*
X23362869Y-24121044D01*
X23354670Y-24117300D01*
X23334947Y-24114464D01*
X23214448Y-24097139D01*
X23214441Y-24097138D01*
X23210000Y-24096500D01*
X22610000Y-24096500D01*
X22536921Y-24101727D01*
X22450328Y-24127153D01*
X22379332Y-24127153D01*
X22363266Y-24121161D01*
X22362869Y-24121044D01*
X22354670Y-24117300D01*
X22334947Y-24114464D01*
X22214448Y-24097139D01*
X22214441Y-24097138D01*
X22210000Y-24096500D01*
X21610000Y-24096500D01*
X21536921Y-24101727D01*
X21450328Y-24127153D01*
X21379332Y-24127153D01*
X21363266Y-24121161D01*
X21362869Y-24121044D01*
X21354670Y-24117300D01*
X21334947Y-24114464D01*
X21214448Y-24097139D01*
X21214441Y-24097138D01*
X21210000Y-24096500D01*
X20610000Y-24096500D01*
X20536921Y-24101727D01*
X20450328Y-24127153D01*
X20379332Y-24127153D01*
X20363266Y-24121161D01*
X20362869Y-24121044D01*
X20354670Y-24117300D01*
X20334947Y-24114464D01*
X20214448Y-24097139D01*
X20214441Y-24097138D01*
X20210000Y-24096500D01*
X19610000Y-24096500D01*
X19536921Y-24101727D01*
X19450328Y-24127153D01*
X19379332Y-24127153D01*
X19363266Y-24121161D01*
X19362869Y-24121044D01*
X19354670Y-24117300D01*
X19334947Y-24114464D01*
X19214448Y-24097139D01*
X19214441Y-24097138D01*
X19210000Y-24096500D01*
X18610000Y-24096500D01*
X18536921Y-24101727D01*
X18450328Y-24127153D01*
X18379332Y-24127153D01*
X18363266Y-24121161D01*
X18362869Y-24121044D01*
X18354670Y-24117300D01*
X18334947Y-24114464D01*
X18214448Y-24097139D01*
X18214441Y-24097138D01*
X18210000Y-24096500D01*
X17610000Y-24096500D01*
X17536921Y-24101727D01*
X17450328Y-24127153D01*
X17379332Y-24127153D01*
X17363266Y-24121161D01*
X17362869Y-24121044D01*
X17354670Y-24117300D01*
X17334947Y-24114464D01*
X17214448Y-24097139D01*
X17214441Y-24097138D01*
X17210000Y-24096500D01*
X16610000Y-24096500D01*
X16536921Y-24101727D01*
X16450328Y-24127153D01*
X16379332Y-24127153D01*
X16363266Y-24121161D01*
X16362869Y-24121044D01*
X16354670Y-24117300D01*
X16334947Y-24114464D01*
X16214448Y-24097139D01*
X16214441Y-24097138D01*
X16210000Y-24096500D01*
X15610000Y-24096500D01*
X15536921Y-24101727D01*
X15450328Y-24127153D01*
X15379332Y-24127153D01*
X15363266Y-24121161D01*
X15362869Y-24121044D01*
X15354670Y-24117300D01*
X15334947Y-24114464D01*
X15214448Y-24097139D01*
X15214441Y-24097138D01*
X15210000Y-24096500D01*
X14854011Y-24096500D01*
X14785890Y-24076498D01*
X14739397Y-24022842D01*
X14729293Y-23952568D01*
X14734874Y-23929483D01*
X14745118Y-23899734D01*
X14757504Y-23792689D01*
X14765975Y-23719471D01*
X14765975Y-23719470D01*
X14766379Y-23715979D01*
X14766400Y-23710000D01*
X14746422Y-23526101D01*
X14687421Y-23350781D01*
X14592148Y-23192221D01*
X14465050Y-23057819D01*
X14379990Y-23000012D01*
X14317698Y-22957679D01*
X14312055Y-22953844D01*
X14305725Y-22951312D01*
X14305721Y-22951310D01*
X14146641Y-22887683D01*
X14140303Y-22885148D01*
X14133573Y-22884034D01*
X14133570Y-22884033D01*
X13964543Y-22856050D01*
X13964540Y-22856050D01*
X13957806Y-22854935D01*
X13950990Y-22855292D01*
X13950986Y-22855292D01*
X13830426Y-22861611D01*
X13773078Y-22864617D01*
X13766500Y-22866429D01*
X13766499Y-22866429D01*
X13601315Y-22911927D01*
X13601311Y-22911928D01*
X13594738Y-22913739D01*
X13588707Y-22916919D01*
X13588704Y-22916920D01*
X13530051Y-22947845D01*
X13431107Y-23000012D01*
X13425894Y-23004417D01*
X13425890Y-23004420D01*
X13295033Y-23115003D01*
X13295029Y-23115007D01*
X13289819Y-23119410D01*
X13285672Y-23124833D01*
X13285671Y-23124835D01*
X13181610Y-23260941D01*
X13181607Y-23260945D01*
X13177466Y-23266362D01*
X13099290Y-23434012D01*
X13058937Y-23614538D01*
X13058291Y-23799518D01*
X13059734Y-23806191D01*
X13059734Y-23806193D01*
X13086390Y-23929477D01*
X13097383Y-23980322D01*
X13100224Y-23986527D01*
X13152564Y-24100848D01*
X13164000Y-24153299D01*
X13164000Y-24335663D01*
X13152615Y-24388002D01*
X13134191Y-24428345D01*
X13087700Y-24481998D01*
X13019579Y-24502000D01*
X12802342Y-24502000D01*
X12734221Y-24481998D01*
X12687728Y-24428342D01*
X12681447Y-24411504D01*
X12677096Y-24396684D01*
X12672225Y-24389104D01*
X12668480Y-24380904D01*
X12671470Y-24379539D01*
X12656000Y-24326861D01*
X12656000Y-24115115D01*
X12651525Y-24099876D01*
X12650135Y-24098671D01*
X12642452Y-24097000D01*
X12612257Y-24097000D01*
X12607750Y-24097161D01*
X12543731Y-24101740D01*
X12530512Y-24104125D01*
X12451017Y-24127467D01*
X12380020Y-24127467D01*
X12363171Y-24121182D01*
X12362866Y-24121043D01*
X12354670Y-24117300D01*
X12345755Y-24116018D01*
X12345754Y-24116018D01*
X12214448Y-24097139D01*
X12214441Y-24097138D01*
X12210000Y-24096500D01*
X11610000Y-24096500D01*
X11536921Y-24101727D01*
X11450328Y-24127153D01*
X11379332Y-24127153D01*
X11363266Y-24121161D01*
X11362869Y-24121044D01*
X11354670Y-24117300D01*
X11334947Y-24114464D01*
X11214448Y-24097139D01*
X11214441Y-24097138D01*
X11210000Y-24096500D01*
X10610000Y-24096500D01*
X10536921Y-24101727D01*
X10450328Y-24127153D01*
X10379332Y-24127153D01*
X10363266Y-24121161D01*
X10362869Y-24121044D01*
X10354670Y-24117300D01*
X10334947Y-24114464D01*
X10214448Y-24097139D01*
X10214441Y-24097138D01*
X10210000Y-24096500D01*
X9610000Y-24096500D01*
X9536921Y-24101727D01*
X9450328Y-24127153D01*
X9379332Y-24127153D01*
X9363266Y-24121161D01*
X9362869Y-24121044D01*
X9354670Y-24117300D01*
X9334947Y-24114464D01*
X9214448Y-24097139D01*
X9214441Y-24097138D01*
X9210000Y-24096500D01*
X8610000Y-24096500D01*
X8536921Y-24101727D01*
X8449602Y-24127366D01*
X8378607Y-24127366D01*
X8363737Y-24121820D01*
X8345612Y-24116498D01*
X8214446Y-24097639D01*
X8205505Y-24097000D01*
X8182115Y-24097000D01*
X8166876Y-24101475D01*
X8165671Y-24102865D01*
X8164000Y-24110548D01*
X8164000Y-24335663D01*
X8152615Y-24388002D01*
X8134191Y-24428345D01*
X8087700Y-24481998D01*
X8019579Y-24502000D01*
X7782000Y-24502000D01*
X7713879Y-24481998D01*
X7667386Y-24428342D01*
X7656000Y-24376000D01*
X7656000Y-24115115D01*
X7651525Y-24099876D01*
X7650135Y-24098671D01*
X7642452Y-24097000D01*
X7612257Y-24097000D01*
X7607750Y-24097161D01*
X7543731Y-24101740D01*
X7530509Y-24104126D01*
X7405542Y-24140819D01*
X7389308Y-24148233D01*
X7281640Y-24217426D01*
X7268153Y-24229112D01*
X7184338Y-24325840D01*
X7174691Y-24340852D01*
X7134735Y-24428343D01*
X7088242Y-24481998D01*
X7020122Y-24502000D01*
X6436000Y-24502000D01*
X6367879Y-24481998D01*
X6321386Y-24428342D01*
X6310000Y-24376000D01*
X6310000Y-18592528D01*
X19216539Y-18592528D01*
X19235351Y-18762928D01*
X19294267Y-18923922D01*
X19389884Y-19066216D01*
X19395503Y-19071329D01*
X19395504Y-19071330D01*
X19413697Y-19087884D01*
X19516683Y-19181594D01*
X19523356Y-19185217D01*
X19660666Y-19259771D01*
X19660668Y-19259772D01*
X19667343Y-19263396D01*
X19674692Y-19265324D01*
X19825817Y-19304971D01*
X19825819Y-19304971D01*
X19833167Y-19306899D01*
X19920639Y-19308273D01*
X19996982Y-19309472D01*
X19996985Y-19309472D01*
X20004581Y-19309591D01*
X20011985Y-19307895D01*
X20011987Y-19307895D01*
X20074789Y-19293511D01*
X20171690Y-19271318D01*
X20324845Y-19194289D01*
X20455205Y-19082951D01*
X20555245Y-18943731D01*
X20619188Y-18784667D01*
X20643344Y-18614942D01*
X20643500Y-18600000D01*
X20641685Y-18584997D01*
X20623816Y-18437346D01*
X20622904Y-18429806D01*
X20562306Y-18269438D01*
X20532935Y-18226703D01*
X20469506Y-18134413D01*
X20469505Y-18134411D01*
X20465204Y-18128154D01*
X20459533Y-18123101D01*
X20342877Y-18019164D01*
X20342875Y-18019162D01*
X20337204Y-18014110D01*
X20330495Y-18010558D01*
X20330491Y-18010555D01*
X20192411Y-17937445D01*
X20192408Y-17937444D01*
X20185696Y-17933890D01*
X20075421Y-17906191D01*
X20026795Y-17893977D01*
X20026793Y-17893977D01*
X20019425Y-17892126D01*
X20011827Y-17892086D01*
X20011825Y-17892086D01*
X19937841Y-17891699D01*
X19847992Y-17891229D01*
X19840613Y-17893001D01*
X19840609Y-17893001D01*
X19688673Y-17929477D01*
X19688669Y-17929478D01*
X19681294Y-17931249D01*
X19528954Y-18009878D01*
X19399766Y-18122575D01*
X19301190Y-18262835D01*
X19238916Y-18422560D01*
X19237925Y-18430087D01*
X19218946Y-18574247D01*
X19216539Y-18592528D01*
X6310000Y-18592528D01*
X6310000Y-17799518D01*
X10558291Y-17799518D01*
X10559734Y-17806191D01*
X10559734Y-17806193D01*
X10587344Y-17933890D01*
X10597383Y-17980322D01*
X10600224Y-17986527D01*
X10665066Y-18128154D01*
X10674387Y-18148514D01*
X10678491Y-18153960D01*
X10678492Y-18153962D01*
X10755850Y-18256619D01*
X10785711Y-18296246D01*
X10790890Y-18300685D01*
X10790891Y-18300686D01*
X10894585Y-18389562D01*
X10926162Y-18416627D01*
X10937494Y-18422703D01*
X11083170Y-18500814D01*
X11083172Y-18500815D01*
X11089187Y-18504040D01*
X11095755Y-18505899D01*
X11095756Y-18505899D01*
X11194893Y-18533952D01*
X11267179Y-18554407D01*
X11273987Y-18554811D01*
X11273990Y-18554812D01*
X11426958Y-18563900D01*
X11451835Y-18565378D01*
X11532833Y-18552549D01*
X11627805Y-18537507D01*
X11627809Y-18537506D01*
X11634539Y-18536440D01*
X11640885Y-18533953D01*
X11640889Y-18533952D01*
X11800412Y-18471436D01*
X11800416Y-18471434D01*
X11806767Y-18468945D01*
X11875842Y-18422703D01*
X11954815Y-18369835D01*
X11954818Y-18369832D01*
X11960483Y-18366040D01*
X12088517Y-18232528D01*
X12184894Y-18074637D01*
X12233357Y-17933890D01*
X12242895Y-17906191D01*
X12242896Y-17906188D01*
X12245118Y-17899734D01*
X12246098Y-17891269D01*
X12265975Y-17719471D01*
X12265975Y-17719470D01*
X12266379Y-17715979D01*
X12266400Y-17710000D01*
X12246422Y-17526101D01*
X12200472Y-17389562D01*
X12189597Y-17357246D01*
X12189596Y-17357244D01*
X12187421Y-17350781D01*
X12092148Y-17192221D01*
X12077402Y-17176627D01*
X11997484Y-17092117D01*
X11965050Y-17057819D01*
X11957967Y-17053005D01*
X11817698Y-16957679D01*
X11812055Y-16953844D01*
X11805725Y-16951312D01*
X11805721Y-16951310D01*
X11646641Y-16887683D01*
X11640303Y-16885148D01*
X11633573Y-16884034D01*
X11633570Y-16884033D01*
X11464543Y-16856050D01*
X11464540Y-16856050D01*
X11457806Y-16854935D01*
X11450990Y-16855292D01*
X11450986Y-16855292D01*
X11330426Y-16861611D01*
X11273078Y-16864617D01*
X11266500Y-16866429D01*
X11266499Y-16866429D01*
X11101315Y-16911927D01*
X11101311Y-16911928D01*
X11094738Y-16913739D01*
X11088707Y-16916919D01*
X11088704Y-16916920D01*
X11030051Y-16947845D01*
X10931107Y-17000012D01*
X10925894Y-17004417D01*
X10925890Y-17004420D01*
X10795033Y-17115003D01*
X10795029Y-17115007D01*
X10789819Y-17119410D01*
X10785672Y-17124833D01*
X10785671Y-17124835D01*
X10681610Y-17260941D01*
X10681607Y-17260945D01*
X10677466Y-17266362D01*
X10599290Y-17434012D01*
X10558937Y-17614538D01*
X10558291Y-17799518D01*
X6310000Y-17799518D01*
X6310000Y-15352528D01*
X16623539Y-15352528D01*
X16642351Y-15522928D01*
X16661131Y-15574247D01*
X16697541Y-15673739D01*
X16701267Y-15683922D01*
X16705503Y-15690225D01*
X16705503Y-15690226D01*
X16720774Y-15712951D01*
X16796884Y-15826216D01*
X16802503Y-15831329D01*
X16802504Y-15831330D01*
X16848361Y-15873057D01*
X16885283Y-15933697D01*
X16883560Y-16004673D01*
X16866648Y-16038700D01*
X16864530Y-16041713D01*
X16864526Y-16041720D01*
X16860159Y-16047934D01*
X16797885Y-16207659D01*
X16796894Y-16215186D01*
X16784709Y-16307743D01*
X16775508Y-16377627D01*
X16794320Y-16548027D01*
X16853236Y-16709021D01*
X16857472Y-16715324D01*
X16857472Y-16715325D01*
X16933306Y-16828178D01*
X16948853Y-16851315D01*
X16954472Y-16856428D01*
X16954473Y-16856429D01*
X16986035Y-16885148D01*
X17075652Y-16966693D01*
X17082325Y-16970316D01*
X17219635Y-17044870D01*
X17219637Y-17044871D01*
X17226312Y-17048495D01*
X17233661Y-17050423D01*
X17384786Y-17090070D01*
X17384788Y-17090070D01*
X17392136Y-17091998D01*
X17479608Y-17093372D01*
X17555951Y-17094571D01*
X17555954Y-17094571D01*
X17563550Y-17094690D01*
X17570954Y-17092994D01*
X17570956Y-17092994D01*
X17633758Y-17078610D01*
X17730659Y-17056417D01*
X17883814Y-16979388D01*
X18014174Y-16868050D01*
X18042825Y-16828178D01*
X18109777Y-16735005D01*
X18109778Y-16735004D01*
X18114214Y-16728830D01*
X18178157Y-16569766D01*
X18179616Y-16559518D01*
X23618291Y-16559518D01*
X23619734Y-16566191D01*
X23619734Y-16566193D01*
X23653373Y-16721775D01*
X23657383Y-16740322D01*
X23734387Y-16908514D01*
X23738491Y-16913960D01*
X23738492Y-16913962D01*
X23803336Y-17000012D01*
X23845711Y-17056246D01*
X23850890Y-17060685D01*
X23850891Y-17060686D01*
X23919406Y-17119410D01*
X23986162Y-17176627D01*
X24005991Y-17187259D01*
X24143170Y-17260814D01*
X24143172Y-17260815D01*
X24149187Y-17264040D01*
X24155755Y-17265899D01*
X24155756Y-17265899D01*
X24254893Y-17293952D01*
X24327179Y-17314407D01*
X24333987Y-17314811D01*
X24333990Y-17314812D01*
X24486958Y-17323900D01*
X24511835Y-17325378D01*
X24592833Y-17312549D01*
X24687805Y-17297507D01*
X24687809Y-17297506D01*
X24694539Y-17296440D01*
X24700885Y-17293953D01*
X24700889Y-17293952D01*
X24860412Y-17231436D01*
X24860416Y-17231434D01*
X24866767Y-17228945D01*
X24929036Y-17187259D01*
X25014815Y-17129835D01*
X25014818Y-17129832D01*
X25020483Y-17126040D01*
X25148517Y-16992528D01*
X25154455Y-16982801D01*
X25241334Y-16840469D01*
X25244894Y-16834637D01*
X25279667Y-16733650D01*
X25302895Y-16666191D01*
X25302896Y-16666188D01*
X25305118Y-16659734D01*
X25317036Y-16556734D01*
X25325975Y-16479471D01*
X25325975Y-16479470D01*
X25326379Y-16475979D01*
X25326400Y-16470000D01*
X25306422Y-16286101D01*
X25247421Y-16110781D01*
X25152148Y-15952221D01*
X25140205Y-15939591D01*
X25060426Y-15855228D01*
X25025050Y-15817819D01*
X24939990Y-15760012D01*
X24877698Y-15717679D01*
X24872055Y-15713844D01*
X24865725Y-15711312D01*
X24865721Y-15711310D01*
X24706641Y-15647683D01*
X24700303Y-15645148D01*
X24693573Y-15644034D01*
X24693570Y-15644033D01*
X24524543Y-15616050D01*
X24524540Y-15616050D01*
X24517806Y-15614935D01*
X24510990Y-15615292D01*
X24510986Y-15615292D01*
X24390426Y-15621611D01*
X24333078Y-15624617D01*
X24326500Y-15626429D01*
X24326499Y-15626429D01*
X24161315Y-15671927D01*
X24161311Y-15671928D01*
X24154738Y-15673739D01*
X24148707Y-15676919D01*
X24148704Y-15676920D01*
X24094399Y-15705552D01*
X23991107Y-15760012D01*
X23985894Y-15764417D01*
X23985890Y-15764420D01*
X23855033Y-15875003D01*
X23855029Y-15875007D01*
X23849819Y-15879410D01*
X23845672Y-15884833D01*
X23845671Y-15884835D01*
X23741610Y-16020941D01*
X23741607Y-16020945D01*
X23737466Y-16026362D01*
X23659290Y-16194012D01*
X23618937Y-16374538D01*
X23618913Y-16381367D01*
X23618913Y-16381368D01*
X23618862Y-16395919D01*
X23618291Y-16559518D01*
X18179616Y-16559518D01*
X18202313Y-16400041D01*
X18202469Y-16385099D01*
X18200654Y-16370096D01*
X18182785Y-16222445D01*
X18181873Y-16214905D01*
X18179190Y-16207806D01*
X18179189Y-16207800D01*
X18175856Y-16198980D01*
X18170489Y-16128187D01*
X18204249Y-16065730D01*
X18266415Y-16031440D01*
X18295699Y-16028461D01*
X18330377Y-16029006D01*
X18360033Y-16029472D01*
X18360036Y-16029472D01*
X18367631Y-16029591D01*
X18375035Y-16027895D01*
X18375037Y-16027895D01*
X18437839Y-16013511D01*
X18534740Y-15991318D01*
X18687895Y-15914289D01*
X18693674Y-15909353D01*
X18699996Y-15905153D01*
X18701070Y-15906769D01*
X18756660Y-15881855D01*
X18820095Y-15889545D01*
X18820669Y-15889772D01*
X18827343Y-15893396D01*
X18834687Y-15895323D01*
X18834688Y-15895323D01*
X18985817Y-15934971D01*
X18985819Y-15934971D01*
X18993167Y-15936899D01*
X19080639Y-15938273D01*
X19156982Y-15939472D01*
X19156985Y-15939472D01*
X19164581Y-15939591D01*
X19171985Y-15937895D01*
X19171987Y-15937895D01*
X19234789Y-15923511D01*
X19331690Y-15901318D01*
X19484845Y-15824289D01*
X19615205Y-15712951D01*
X19715245Y-15573731D01*
X19718078Y-15566684D01*
X19720571Y-15562149D01*
X19770916Y-15512090D01*
X19802854Y-15500030D01*
X19859090Y-15487151D01*
X19937677Y-15469152D01*
X19937678Y-15469152D01*
X19945077Y-15467457D01*
X20098232Y-15390428D01*
X20228592Y-15279090D01*
X20328632Y-15139870D01*
X20392575Y-14980806D01*
X20416731Y-14811081D01*
X20416887Y-14796139D01*
X20413605Y-14769013D01*
X20403979Y-14689477D01*
X20396291Y-14625945D01*
X20369170Y-14554172D01*
X20357423Y-14523084D01*
X20352055Y-14452291D01*
X20358381Y-14431551D01*
X20366355Y-14411714D01*
X20369188Y-14404667D01*
X20386026Y-14286359D01*
X20415427Y-14221737D01*
X20428943Y-14208299D01*
X20429428Y-14207885D01*
X20435205Y-14202951D01*
X20535245Y-14063731D01*
X20599188Y-13904667D01*
X20623344Y-13734942D01*
X20623500Y-13720000D01*
X20622429Y-13711144D01*
X20613446Y-13636921D01*
X20602904Y-13549806D01*
X20542306Y-13389438D01*
X20487710Y-13310000D01*
X20449506Y-13254413D01*
X20449505Y-13254411D01*
X20445204Y-13248154D01*
X20439533Y-13243101D01*
X20322877Y-13139164D01*
X20322875Y-13139162D01*
X20317204Y-13134110D01*
X20310492Y-13130556D01*
X20310491Y-13130555D01*
X20172411Y-13057445D01*
X20172408Y-13057444D01*
X20165696Y-13053890D01*
X20148127Y-13049477D01*
X20006795Y-13013977D01*
X20006793Y-13013977D01*
X19999425Y-13012126D01*
X19991827Y-13012086D01*
X19991825Y-13012086D01*
X19917841Y-13011699D01*
X19827992Y-13011229D01*
X19820613Y-13013001D01*
X19820609Y-13013001D01*
X19668673Y-13049477D01*
X19668669Y-13049478D01*
X19661294Y-13051249D01*
X19508954Y-13129878D01*
X19503230Y-13134871D01*
X19496949Y-13139140D01*
X19496193Y-13138028D01*
X19438958Y-13164399D01*
X19368650Y-13154531D01*
X19348701Y-13143209D01*
X19342875Y-13139160D01*
X19337207Y-13134110D01*
X19322636Y-13126395D01*
X19192414Y-13057445D01*
X19192411Y-13057444D01*
X19185699Y-13053890D01*
X19168130Y-13049477D01*
X19026798Y-13013977D01*
X19026796Y-13013977D01*
X19019428Y-13012126D01*
X19011830Y-13012086D01*
X19011828Y-13012086D01*
X18937844Y-13011699D01*
X18847995Y-13011229D01*
X18840616Y-13013001D01*
X18840612Y-13013001D01*
X18708263Y-13044775D01*
X18648154Y-13044460D01*
X18526795Y-13013977D01*
X18526793Y-13013977D01*
X18519425Y-13012126D01*
X18511827Y-13012086D01*
X18511825Y-13012086D01*
X18437841Y-13011699D01*
X18347992Y-13011229D01*
X18250037Y-13034746D01*
X18185774Y-13030531D01*
X18185246Y-13032633D01*
X18026345Y-12992720D01*
X18026343Y-12992720D01*
X18018975Y-12990869D01*
X18011377Y-12990829D01*
X18011375Y-12990829D01*
X17937391Y-12990442D01*
X17847542Y-12989972D01*
X17840163Y-12991744D01*
X17840159Y-12991744D01*
X17688233Y-13028218D01*
X17680844Y-13029992D01*
X17679994Y-13030431D01*
X17608063Y-13034390D01*
X17568195Y-13024376D01*
X17526795Y-13013977D01*
X17526794Y-13013977D01*
X17519425Y-13012126D01*
X17511827Y-13012086D01*
X17511825Y-13012086D01*
X17437841Y-13011699D01*
X17347992Y-13011229D01*
X17340613Y-13013001D01*
X17340609Y-13013001D01*
X17188673Y-13049477D01*
X17188669Y-13049478D01*
X17181294Y-13051249D01*
X17028954Y-13129878D01*
X17023232Y-13134870D01*
X17023230Y-13134871D01*
X16966067Y-13184737D01*
X16899766Y-13242575D01*
X16801190Y-13382835D01*
X16738916Y-13542560D01*
X16737925Y-13550087D01*
X16737443Y-13553752D01*
X16716539Y-13712528D01*
X16735351Y-13882928D01*
X16794267Y-14043922D01*
X16798503Y-14050225D01*
X16798503Y-14050226D01*
X16812883Y-14071625D01*
X16889884Y-14186216D01*
X16895503Y-14191329D01*
X16895504Y-14191330D01*
X16913698Y-14207885D01*
X17016683Y-14301594D01*
X17023356Y-14305217D01*
X17160666Y-14379771D01*
X17160668Y-14379772D01*
X17167343Y-14383396D01*
X17252140Y-14405642D01*
X17257099Y-14406943D01*
X17317914Y-14443577D01*
X17349269Y-14507274D01*
X17341210Y-14577812D01*
X17296294Y-14632795D01*
X17254538Y-14651338D01*
X17088294Y-14691249D01*
X16935954Y-14769878D01*
X16930232Y-14774870D01*
X16930230Y-14774871D01*
X16884046Y-14815160D01*
X16806766Y-14882575D01*
X16708190Y-15022835D01*
X16645916Y-15182560D01*
X16644925Y-15190087D01*
X16628842Y-15312250D01*
X16623539Y-15352528D01*
X6310000Y-15352528D01*
X6310000Y-10222528D01*
X10646539Y-10222528D01*
X10665351Y-10392928D01*
X10693436Y-10469672D01*
X10719417Y-10540668D01*
X10724267Y-10553922D01*
X10728503Y-10560225D01*
X10728503Y-10560226D01*
X10805820Y-10675286D01*
X10819884Y-10696216D01*
X10846001Y-10719980D01*
X10852641Y-10726022D01*
X10889564Y-10786662D01*
X10887841Y-10857637D01*
X10873887Y-10884346D01*
X10875144Y-10885107D01*
X10871611Y-10890941D01*
X10867466Y-10896362D01*
X10789290Y-11064012D01*
X10773883Y-11132937D01*
X10750493Y-11237579D01*
X10748937Y-11244538D01*
X10748913Y-11251367D01*
X10748913Y-11251368D01*
X10748629Y-11332610D01*
X10748291Y-11429518D01*
X10749734Y-11436191D01*
X10749734Y-11436193D01*
X10780545Y-11578694D01*
X10787383Y-11610322D01*
X10864387Y-11778514D01*
X10868491Y-11783960D01*
X10868492Y-11783962D01*
X10946797Y-11887875D01*
X10975711Y-11926246D01*
X10980890Y-11930685D01*
X10980891Y-11930686D01*
X11039384Y-11980820D01*
X11116162Y-12046627D01*
X11206364Y-12094993D01*
X11273170Y-12130814D01*
X11273172Y-12130815D01*
X11279187Y-12134040D01*
X11285755Y-12135899D01*
X11285756Y-12135899D01*
X11428551Y-12176306D01*
X11457179Y-12184407D01*
X11463987Y-12184811D01*
X11463990Y-12184812D01*
X11616958Y-12193900D01*
X11641835Y-12195378D01*
X11723009Y-12182521D01*
X11817805Y-12167507D01*
X11817809Y-12167506D01*
X11824539Y-12166440D01*
X11830885Y-12163953D01*
X11830889Y-12163952D01*
X11990412Y-12101436D01*
X11990416Y-12101434D01*
X11996767Y-12098945D01*
X12060194Y-12056484D01*
X12144815Y-11999835D01*
X12144818Y-11999832D01*
X12150483Y-11996040D01*
X12278517Y-11862528D01*
X12292746Y-11839217D01*
X12345307Y-11791495D01*
X12415328Y-11779765D01*
X12480575Y-11807754D01*
X12504874Y-11834589D01*
X12579884Y-11946216D01*
X12585503Y-11951329D01*
X12585504Y-11951330D01*
X12690234Y-12046627D01*
X12706683Y-12061594D01*
X12713356Y-12065217D01*
X12850666Y-12139771D01*
X12850668Y-12139772D01*
X12857343Y-12143396D01*
X12864692Y-12145324D01*
X13015817Y-12184971D01*
X13015819Y-12184971D01*
X13023167Y-12186899D01*
X13194581Y-12189591D01*
X13194535Y-12192549D01*
X13250940Y-12202875D01*
X13298832Y-12245126D01*
X13335643Y-12299906D01*
X13335647Y-12299910D01*
X13339884Y-12306216D01*
X13345503Y-12311329D01*
X13345504Y-12311330D01*
X13416871Y-12376269D01*
X13466683Y-12421594D01*
X13617343Y-12503396D01*
X13624685Y-12505322D01*
X13624692Y-12505325D01*
X13661413Y-12514959D01*
X13722228Y-12551593D01*
X13747763Y-12593531D01*
X13778273Y-12676899D01*
X13781202Y-12684902D01*
X13785438Y-12691205D01*
X13785438Y-12691206D01*
X13815759Y-12736328D01*
X13876819Y-12827196D01*
X13882438Y-12832309D01*
X13882439Y-12832310D01*
X13946046Y-12890188D01*
X14003618Y-12942574D01*
X14010291Y-12946197D01*
X14147601Y-13020751D01*
X14147603Y-13020752D01*
X14154278Y-13024376D01*
X14161627Y-13026304D01*
X14312752Y-13065951D01*
X14312754Y-13065951D01*
X14320102Y-13067879D01*
X14407574Y-13069253D01*
X14483917Y-13070452D01*
X14483920Y-13070452D01*
X14491516Y-13070571D01*
X14498920Y-13068875D01*
X14498922Y-13068875D01*
X14583617Y-13049477D01*
X14658625Y-13032298D01*
X14811780Y-12955269D01*
X14942140Y-12843931D01*
X15019461Y-12736328D01*
X15037743Y-12710886D01*
X15037744Y-12710885D01*
X15042180Y-12704711D01*
X15080676Y-12608949D01*
X15124642Y-12553204D01*
X15191767Y-12530079D01*
X15260739Y-12546916D01*
X15263476Y-12548676D01*
X15266683Y-12551594D01*
X15296350Y-12567702D01*
X15410666Y-12629771D01*
X15410668Y-12629772D01*
X15417343Y-12633396D01*
X15424692Y-12635324D01*
X15575817Y-12674971D01*
X15575819Y-12674971D01*
X15583167Y-12676899D01*
X15670639Y-12678273D01*
X15746982Y-12679472D01*
X15746985Y-12679472D01*
X15754581Y-12679591D01*
X15761985Y-12677895D01*
X15761987Y-12677895D01*
X15824789Y-12663511D01*
X15921690Y-12641318D01*
X16074845Y-12564289D01*
X16205205Y-12452951D01*
X16255112Y-12383498D01*
X16300808Y-12319906D01*
X16300809Y-12319905D01*
X16305245Y-12313731D01*
X16369188Y-12154667D01*
X16393344Y-11984942D01*
X16393500Y-11970000D01*
X16388743Y-11930686D01*
X16377773Y-11840041D01*
X16372904Y-11799806D01*
X16360654Y-11767386D01*
X16360197Y-11766177D01*
X16354830Y-11695384D01*
X16361156Y-11674646D01*
X16366355Y-11661713D01*
X16366356Y-11661708D01*
X16369188Y-11654664D01*
X16393344Y-11484939D01*
X16393500Y-11469997D01*
X16392812Y-11464306D01*
X16380708Y-11364289D01*
X16372904Y-11299803D01*
X16364333Y-11277120D01*
X16360197Y-11266174D01*
X16354830Y-11195381D01*
X16361156Y-11174643D01*
X16366355Y-11161710D01*
X16366356Y-11161705D01*
X16369188Y-11154661D01*
X16393344Y-10984936D01*
X16393500Y-10969994D01*
X16392586Y-10962436D01*
X16384317Y-10894110D01*
X16372904Y-10799800D01*
X16360197Y-10766171D01*
X16354830Y-10695378D01*
X16361156Y-10674640D01*
X16366355Y-10661707D01*
X16366356Y-10661702D01*
X16369188Y-10654658D01*
X16393344Y-10484933D01*
X16393500Y-10469991D01*
X16391685Y-10454988D01*
X16374411Y-10312250D01*
X16372904Y-10299797D01*
X16360197Y-10266168D01*
X16354830Y-10195375D01*
X16361156Y-10174637D01*
X16366355Y-10161704D01*
X16366356Y-10161699D01*
X16369188Y-10154655D01*
X16393344Y-9984930D01*
X16393500Y-9969988D01*
X16389690Y-9938500D01*
X16383021Y-9883396D01*
X16372904Y-9799794D01*
X16312306Y-9639426D01*
X16260969Y-9564730D01*
X16216642Y-9500234D01*
X16194542Y-9432765D01*
X16212427Y-9364058D01*
X16218159Y-9355342D01*
X16250809Y-9309904D01*
X16255245Y-9303731D01*
X16319188Y-9144667D01*
X16343344Y-8974942D01*
X16343500Y-8960000D01*
X16342933Y-8955310D01*
X16327022Y-8823834D01*
X16322904Y-8789806D01*
X16262306Y-8629438D01*
X16235201Y-8590000D01*
X16169506Y-8494413D01*
X16169505Y-8494411D01*
X16165204Y-8488154D01*
X16159533Y-8483101D01*
X16042877Y-8379164D01*
X16042875Y-8379162D01*
X16037204Y-8374110D01*
X16030495Y-8370558D01*
X16030491Y-8370555D01*
X15892411Y-8297445D01*
X15892408Y-8297444D01*
X15885696Y-8293890D01*
X15868127Y-8289477D01*
X15726795Y-8253977D01*
X15726793Y-8253977D01*
X15719425Y-8252126D01*
X15711827Y-8252086D01*
X15711825Y-8252086D01*
X15637841Y-8251699D01*
X15547992Y-8251229D01*
X15540613Y-8253001D01*
X15540609Y-8253001D01*
X15388673Y-8289477D01*
X15388669Y-8289478D01*
X15381294Y-8291249D01*
X15228954Y-8369878D01*
X15223232Y-8374870D01*
X15223230Y-8374871D01*
X15152246Y-8436794D01*
X15099766Y-8482575D01*
X15055495Y-8545567D01*
X14999962Y-8589797D01*
X14929330Y-8596983D01*
X14893449Y-8584469D01*
X14842411Y-8557445D01*
X14842408Y-8557444D01*
X14835696Y-8553890D01*
X14818127Y-8549477D01*
X14676795Y-8513977D01*
X14676793Y-8513977D01*
X14669425Y-8512126D01*
X14661827Y-8512086D01*
X14661825Y-8512086D01*
X14587841Y-8511699D01*
X14497992Y-8511229D01*
X14490613Y-8513001D01*
X14490609Y-8513001D01*
X14338673Y-8549477D01*
X14338669Y-8549478D01*
X14331294Y-8551249D01*
X14178954Y-8629878D01*
X14173232Y-8634870D01*
X14173230Y-8634871D01*
X14058628Y-8734844D01*
X14049766Y-8742575D01*
X13951190Y-8882835D01*
X13888916Y-9042560D01*
X13887925Y-9050087D01*
X13870257Y-9184289D01*
X13866539Y-9212528D01*
X13885351Y-9382928D01*
X13903589Y-9432765D01*
X13937772Y-9526173D01*
X13944267Y-9543922D01*
X13948503Y-9550225D01*
X13948503Y-9550226D01*
X14013216Y-9646529D01*
X14039884Y-9686216D01*
X14045503Y-9691329D01*
X14045504Y-9691330D01*
X14156758Y-9792563D01*
X14166683Y-9801594D01*
X14173356Y-9805217D01*
X14310666Y-9879771D01*
X14310668Y-9879772D01*
X14317343Y-9883396D01*
X14324692Y-9885324D01*
X14475817Y-9924971D01*
X14475819Y-9924971D01*
X14483167Y-9926899D01*
X14570639Y-9928273D01*
X14646982Y-9929472D01*
X14646985Y-9929472D01*
X14654581Y-9929591D01*
X14661985Y-9927895D01*
X14661987Y-9927895D01*
X14817451Y-9892289D01*
X14888318Y-9896578D01*
X14945616Y-9938500D01*
X14970819Y-10001282D01*
X14985351Y-10132916D01*
X14987962Y-10140051D01*
X15000849Y-10175268D01*
X15005475Y-10246113D01*
X14999916Y-10264337D01*
X14988916Y-10292551D01*
X14986916Y-10307743D01*
X14968643Y-10446540D01*
X14966539Y-10462519D01*
X14985351Y-10632919D01*
X14987962Y-10640054D01*
X15000849Y-10675271D01*
X15005475Y-10746116D01*
X14999916Y-10764340D01*
X14997215Y-10771269D01*
X14988916Y-10792554D01*
X14985639Y-10817445D01*
X14969574Y-10939472D01*
X14966539Y-10962522D01*
X14965885Y-10962436D01*
X14946792Y-11025023D01*
X14899305Y-11067760D01*
X14778954Y-11129878D01*
X14773232Y-11134870D01*
X14773230Y-11134871D01*
X14655493Y-11237579D01*
X14649766Y-11242575D01*
X14602918Y-11309234D01*
X14586489Y-11332610D01*
X14530955Y-11376842D01*
X14460323Y-11384028D01*
X14399583Y-11354236D01*
X14292877Y-11259164D01*
X14292875Y-11259162D01*
X14287204Y-11254110D01*
X14280495Y-11250558D01*
X14280491Y-11250555D01*
X14142411Y-11177445D01*
X14142408Y-11177444D01*
X14135696Y-11173890D01*
X14087205Y-11161710D01*
X13976795Y-11133977D01*
X13976793Y-11133977D01*
X13969425Y-11132126D01*
X13961827Y-11132086D01*
X13961825Y-11132086D01*
X13805452Y-11131268D01*
X13737437Y-11110910D01*
X13702271Y-11076637D01*
X13659506Y-11014413D01*
X13659505Y-11014411D01*
X13655204Y-11008154D01*
X13649533Y-11003101D01*
X13532877Y-10899164D01*
X13532875Y-10899162D01*
X13527204Y-10894110D01*
X13520495Y-10890558D01*
X13520491Y-10890555D01*
X13382411Y-10817445D01*
X13382408Y-10817444D01*
X13375696Y-10813890D01*
X13349619Y-10807340D01*
X13216795Y-10773977D01*
X13216793Y-10773977D01*
X13209425Y-10772126D01*
X13201827Y-10772086D01*
X13201825Y-10772086D01*
X13127841Y-10771699D01*
X13037992Y-10771229D01*
X13030613Y-10773001D01*
X13030609Y-10773001D01*
X12878673Y-10809477D01*
X12878669Y-10809478D01*
X12871294Y-10811249D01*
X12864549Y-10814730D01*
X12864550Y-10814730D01*
X12728198Y-10885107D01*
X12718954Y-10889878D01*
X12713232Y-10894870D01*
X12713230Y-10894871D01*
X12595489Y-10997582D01*
X12595487Y-10997585D01*
X12589766Y-11002575D01*
X12585398Y-11008790D01*
X12583835Y-11010526D01*
X12523390Y-11047767D01*
X12452406Y-11046416D01*
X12393421Y-11006903D01*
X12378013Y-10982539D01*
X12377421Y-10980781D01*
X12370996Y-10970087D01*
X12325801Y-10894871D01*
X12282148Y-10822221D01*
X12272520Y-10812039D01*
X12178816Y-10712951D01*
X12155050Y-10687819D01*
X12069594Y-10629743D01*
X12024498Y-10574914D01*
X12016203Y-10504404D01*
X12023512Y-10478538D01*
X12025291Y-10474112D01*
X12049188Y-10414667D01*
X12073344Y-10244942D01*
X12073500Y-10230000D01*
X12071685Y-10214997D01*
X12061751Y-10132916D01*
X12052904Y-10059806D01*
X11992306Y-9899438D01*
X11924027Y-9800092D01*
X11899506Y-9764413D01*
X11899505Y-9764411D01*
X11895204Y-9758154D01*
X11889533Y-9753101D01*
X11772877Y-9649164D01*
X11772875Y-9649162D01*
X11767204Y-9644110D01*
X11760495Y-9640558D01*
X11760491Y-9640555D01*
X11622411Y-9567445D01*
X11622408Y-9567444D01*
X11615696Y-9563890D01*
X11561297Y-9550226D01*
X11456795Y-9523977D01*
X11456793Y-9523977D01*
X11449425Y-9522126D01*
X11441827Y-9522086D01*
X11441825Y-9522086D01*
X11367841Y-9521699D01*
X11277992Y-9521229D01*
X11270613Y-9523001D01*
X11270609Y-9523001D01*
X11118673Y-9559477D01*
X11118669Y-9559478D01*
X11111294Y-9561249D01*
X11099290Y-9567445D01*
X10970149Y-9634100D01*
X10958954Y-9639878D01*
X10953232Y-9644870D01*
X10953230Y-9644871D01*
X10852090Y-9733101D01*
X10829766Y-9752575D01*
X10731190Y-9892835D01*
X10668916Y-10052560D01*
X10667925Y-10060087D01*
X10647646Y-10214121D01*
X10646539Y-10222528D01*
X6310000Y-10222528D01*
X6310000Y-8599518D01*
X11958291Y-8599518D01*
X11959734Y-8606191D01*
X11959734Y-8606193D01*
X11989222Y-8742575D01*
X11997383Y-8780322D01*
X12074387Y-8948514D01*
X12078491Y-8953960D01*
X12078492Y-8953962D01*
X12145256Y-9042560D01*
X12185711Y-9096246D01*
X12190890Y-9100685D01*
X12190891Y-9100686D01*
X12292415Y-9187702D01*
X12326162Y-9216627D01*
X12403147Y-9257906D01*
X12483170Y-9300814D01*
X12483172Y-9300815D01*
X12489187Y-9304040D01*
X12495755Y-9305899D01*
X12495756Y-9305899D01*
X12510249Y-9310000D01*
X12667179Y-9354407D01*
X12673987Y-9354811D01*
X12673990Y-9354812D01*
X12826958Y-9363900D01*
X12851835Y-9365378D01*
X12941590Y-9351162D01*
X13027805Y-9337507D01*
X13027809Y-9337506D01*
X13034539Y-9336440D01*
X13040885Y-9333953D01*
X13040889Y-9333952D01*
X13200412Y-9271436D01*
X13200416Y-9271434D01*
X13206767Y-9268945D01*
X13279763Y-9220078D01*
X13354815Y-9169835D01*
X13354818Y-9169832D01*
X13360483Y-9166040D01*
X13488517Y-9032528D01*
X13511146Y-8995457D01*
X13568608Y-8901318D01*
X13584894Y-8874637D01*
X13602387Y-8823834D01*
X13642895Y-8706191D01*
X13642896Y-8706188D01*
X13645118Y-8699734D01*
X13649233Y-8664174D01*
X13665975Y-8519471D01*
X13665975Y-8519470D01*
X13666379Y-8515979D01*
X13666400Y-8510000D01*
X13665883Y-8505236D01*
X13652612Y-8383079D01*
X13646422Y-8326101D01*
X13611567Y-8222528D01*
X17566539Y-8222528D01*
X17585351Y-8392928D01*
X17601404Y-8436794D01*
X17639417Y-8540668D01*
X17644267Y-8553922D01*
X17648503Y-8560225D01*
X17648503Y-8560226D01*
X17700040Y-8636921D01*
X17739884Y-8696216D01*
X17745503Y-8701329D01*
X17745504Y-8701330D01*
X17855693Y-8801594D01*
X17866683Y-8811594D01*
X17873356Y-8815217D01*
X18010666Y-8889771D01*
X18010668Y-8889772D01*
X18017343Y-8893396D01*
X18024692Y-8895324D01*
X18175817Y-8934971D01*
X18175819Y-8934971D01*
X18183167Y-8936899D01*
X18270639Y-8938273D01*
X18346982Y-8939472D01*
X18346985Y-8939472D01*
X18354581Y-8939591D01*
X18361985Y-8937895D01*
X18361987Y-8937895D01*
X18424789Y-8923511D01*
X18521690Y-8901318D01*
X18674845Y-8824289D01*
X18741751Y-8767146D01*
X18779572Y-8734844D01*
X18844361Y-8705813D01*
X18914561Y-8716418D01*
X18946201Y-8737461D01*
X19003728Y-8789806D01*
X19016683Y-8801594D01*
X19049393Y-8819354D01*
X19160666Y-8879771D01*
X19160668Y-8879772D01*
X19167343Y-8883396D01*
X19174692Y-8885324D01*
X19325817Y-8924971D01*
X19325819Y-8924971D01*
X19333167Y-8926899D01*
X19420639Y-8928273D01*
X19496982Y-8929472D01*
X19496985Y-8929472D01*
X19504581Y-8929591D01*
X19655325Y-8895066D01*
X19715425Y-8896010D01*
X19833167Y-8926899D01*
X19920639Y-8928273D01*
X19996982Y-8929472D01*
X19996985Y-8929472D01*
X20004581Y-8929591D01*
X20011985Y-8927895D01*
X20011987Y-8927895D01*
X20074789Y-8913511D01*
X20171690Y-8891318D01*
X20305867Y-8823834D01*
X20375711Y-8811096D01*
X20422603Y-8825668D01*
X20547343Y-8893396D01*
X20545745Y-8896339D01*
X20589857Y-8930710D01*
X20613379Y-8997696D01*
X20596951Y-9066766D01*
X20590637Y-9076707D01*
X20551190Y-9132835D01*
X20488916Y-9292560D01*
X20487925Y-9300087D01*
X20467574Y-9454670D01*
X20466539Y-9462528D01*
X20485351Y-9632928D01*
X20487962Y-9640063D01*
X20500849Y-9675280D01*
X20505475Y-9746125D01*
X20499916Y-9764349D01*
X20488916Y-9792563D01*
X20486056Y-9814289D01*
X20469703Y-9938500D01*
X20466539Y-9962531D01*
X20485351Y-10132931D01*
X20487962Y-10140066D01*
X20500849Y-10175283D01*
X20505475Y-10246128D01*
X20499916Y-10264352D01*
X20488916Y-10292566D01*
X20486918Y-10307743D01*
X20468645Y-10446540D01*
X20466539Y-10462534D01*
X20485351Y-10632934D01*
X20487962Y-10640069D01*
X20500849Y-10675286D01*
X20505475Y-10746131D01*
X20499916Y-10764355D01*
X20491890Y-10784942D01*
X20488916Y-10792569D01*
X20485641Y-10817445D01*
X20469576Y-10939472D01*
X20466539Y-10962537D01*
X20485351Y-11132937D01*
X20487962Y-11140072D01*
X20500849Y-11175289D01*
X20505475Y-11246134D01*
X20499916Y-11264358D01*
X20488916Y-11292572D01*
X20486622Y-11310000D01*
X20469110Y-11443013D01*
X20466539Y-11462540D01*
X20485351Y-11632940D01*
X20487962Y-11640075D01*
X20500849Y-11675292D01*
X20505475Y-11746137D01*
X20499916Y-11764361D01*
X20488916Y-11792575D01*
X20486918Y-11807754D01*
X20468689Y-11946216D01*
X20466539Y-11962543D01*
X20485351Y-12132943D01*
X20507164Y-12192549D01*
X20538441Y-12278016D01*
X20544267Y-12293937D01*
X20548503Y-12300240D01*
X20548503Y-12300241D01*
X20626615Y-12416484D01*
X20639884Y-12436231D01*
X20645503Y-12441344D01*
X20645504Y-12441345D01*
X20753903Y-12539980D01*
X20766683Y-12551609D01*
X20790037Y-12564289D01*
X20910666Y-12629786D01*
X20910668Y-12629787D01*
X20917343Y-12633411D01*
X20924692Y-12635339D01*
X21075817Y-12674986D01*
X21075819Y-12674986D01*
X21083167Y-12676914D01*
X21170639Y-12678288D01*
X21246982Y-12679487D01*
X21246985Y-12679487D01*
X21254581Y-12679606D01*
X21288751Y-12671780D01*
X21359617Y-12676069D01*
X21416915Y-12717991D01*
X21442453Y-12784236D01*
X21428122Y-12853771D01*
X21419967Y-12867050D01*
X21362303Y-12949098D01*
X21300029Y-13108823D01*
X21299038Y-13116350D01*
X21282351Y-13243101D01*
X21277652Y-13278791D01*
X21296464Y-13449191D01*
X21299074Y-13456322D01*
X21335820Y-13556734D01*
X21355380Y-13610185D01*
X21359616Y-13616488D01*
X21359616Y-13616489D01*
X21441954Y-13739021D01*
X21450997Y-13752479D01*
X21456616Y-13757592D01*
X21456617Y-13757593D01*
X21509910Y-13806086D01*
X21577796Y-13867857D01*
X21584469Y-13871480D01*
X21721779Y-13946034D01*
X21721781Y-13946035D01*
X21728456Y-13949659D01*
X21735805Y-13951587D01*
X21886930Y-13991234D01*
X21886932Y-13991234D01*
X21894280Y-13993162D01*
X21981752Y-13994536D01*
X22058095Y-13995735D01*
X22058098Y-13995735D01*
X22065694Y-13995854D01*
X22073098Y-13994158D01*
X22073100Y-13994158D01*
X22135902Y-13979774D01*
X22232803Y-13957581D01*
X22385958Y-13880552D01*
X22470134Y-13808659D01*
X22510544Y-13774146D01*
X22510546Y-13774144D01*
X22516318Y-13769214D01*
X22531311Y-13748349D01*
X22587306Y-13704701D01*
X22658009Y-13698255D01*
X22693755Y-13711144D01*
X22702528Y-13715907D01*
X22781598Y-13758839D01*
X22781600Y-13758840D01*
X22788275Y-13762464D01*
X22795624Y-13764392D01*
X22946749Y-13804039D01*
X22946751Y-13804039D01*
X22954099Y-13805967D01*
X23041571Y-13807341D01*
X23117914Y-13808540D01*
X23117917Y-13808540D01*
X23125513Y-13808659D01*
X23174000Y-13797554D01*
X23244865Y-13801843D01*
X23286081Y-13830194D01*
X23287850Y-13828250D01*
X23414649Y-13943628D01*
X23421322Y-13947251D01*
X23558632Y-14021805D01*
X23558634Y-14021806D01*
X23565309Y-14025430D01*
X23572658Y-14027358D01*
X23723783Y-14067005D01*
X23723785Y-14067005D01*
X23731133Y-14068933D01*
X23818605Y-14070307D01*
X23894948Y-14071506D01*
X23894951Y-14071506D01*
X23902547Y-14071625D01*
X23909951Y-14069929D01*
X23909953Y-14069929D01*
X23995980Y-14050226D01*
X24069656Y-14033352D01*
X24222811Y-13956323D01*
X24353171Y-13844985D01*
X24357604Y-13838816D01*
X24448774Y-13711940D01*
X24448775Y-13711939D01*
X24453211Y-13705765D01*
X24517154Y-13546701D01*
X24541310Y-13376976D01*
X24541466Y-13362034D01*
X24520870Y-13191840D01*
X24460272Y-13031472D01*
X24446359Y-13011229D01*
X24367472Y-12896447D01*
X24367471Y-12896445D01*
X24363170Y-12890188D01*
X24281010Y-12816986D01*
X24243455Y-12756735D01*
X24244436Y-12685745D01*
X24266483Y-12647369D01*
X24265205Y-12646451D01*
X24360808Y-12513406D01*
X24360809Y-12513405D01*
X24365245Y-12507231D01*
X24429188Y-12348167D01*
X24453344Y-12178442D01*
X24453500Y-12163500D01*
X24451685Y-12148497D01*
X24439747Y-12049854D01*
X24432904Y-11993306D01*
X24372306Y-11832938D01*
X24356246Y-11809570D01*
X24279506Y-11697913D01*
X24279505Y-11697911D01*
X24275204Y-11691654D01*
X24268943Y-11686075D01*
X24268004Y-11685239D01*
X24267213Y-11683970D01*
X24264510Y-11680904D01*
X24265021Y-11680453D01*
X24230448Y-11624989D01*
X24231429Y-11553999D01*
X24270633Y-11494808D01*
X24323693Y-11468343D01*
X24434289Y-11443013D01*
X24441690Y-11441318D01*
X24594845Y-11364289D01*
X24725205Y-11252951D01*
X24733556Y-11241330D01*
X24820808Y-11119906D01*
X24820809Y-11119905D01*
X24825245Y-11113731D01*
X24889188Y-10954667D01*
X24913344Y-10784942D01*
X24913500Y-10770000D01*
X24911685Y-10754996D01*
X24897776Y-10640069D01*
X24892904Y-10599806D01*
X24877948Y-10560226D01*
X24834990Y-10446540D01*
X24834989Y-10446537D01*
X24832306Y-10439438D01*
X24828007Y-10433184D01*
X24828004Y-10433177D01*
X24794279Y-10384108D01*
X24772178Y-10316639D01*
X24773375Y-10294986D01*
X24774729Y-10285474D01*
X24783344Y-10224942D01*
X24783500Y-10210000D01*
X24781685Y-10194997D01*
X24775035Y-10140051D01*
X24762904Y-10039806D01*
X24702306Y-9879438D01*
X24645293Y-9796484D01*
X24609506Y-9744413D01*
X24609505Y-9744411D01*
X24605204Y-9738154D01*
X24599533Y-9733101D01*
X24482877Y-9629164D01*
X24482875Y-9629162D01*
X24477204Y-9624110D01*
X24470495Y-9620558D01*
X24470491Y-9620555D01*
X24332411Y-9547445D01*
X24332408Y-9547444D01*
X24325696Y-9543890D01*
X24308127Y-9539477D01*
X24166795Y-9503977D01*
X24166793Y-9503977D01*
X24159425Y-9502126D01*
X24151827Y-9502086D01*
X24151825Y-9502086D01*
X24077841Y-9501699D01*
X23987992Y-9501229D01*
X23980613Y-9503001D01*
X23980609Y-9503001D01*
X23828673Y-9539477D01*
X23828669Y-9539478D01*
X23821294Y-9541249D01*
X23668954Y-9619878D01*
X23663232Y-9624870D01*
X23663230Y-9624871D01*
X23554194Y-9719989D01*
X23539766Y-9732575D01*
X23441190Y-9872835D01*
X23378916Y-10032560D01*
X23377925Y-10040087D01*
X23360126Y-10175283D01*
X23356539Y-10202528D01*
X23375351Y-10372928D01*
X23434267Y-10533922D01*
X23438503Y-10540225D01*
X23438503Y-10540226D01*
X23476587Y-10596901D01*
X23497979Y-10664598D01*
X23496927Y-10683623D01*
X23487530Y-10754996D01*
X23487530Y-10755001D01*
X23486539Y-10762528D01*
X23505351Y-10932928D01*
X23531031Y-11003101D01*
X23557942Y-11076637D01*
X23564267Y-11093922D01*
X23568503Y-11100225D01*
X23568503Y-11100226D01*
X23649147Y-11220237D01*
X23659884Y-11236216D01*
X23665503Y-11241329D01*
X23665504Y-11241330D01*
X23673487Y-11248594D01*
X23710409Y-11309234D01*
X23708686Y-11380210D01*
X23668863Y-11438987D01*
X23618102Y-11464306D01*
X23611382Y-11465919D01*
X23498673Y-11492977D01*
X23498669Y-11492978D01*
X23491294Y-11494749D01*
X23435947Y-11523316D01*
X23372114Y-11556263D01*
X23338954Y-11573378D01*
X23333232Y-11578370D01*
X23333230Y-11578371D01*
X23254375Y-11647160D01*
X23209766Y-11686075D01*
X23111190Y-11826335D01*
X23048916Y-11986060D01*
X23047925Y-11993587D01*
X23029434Y-12134040D01*
X23026539Y-12156028D01*
X23035121Y-12233765D01*
X23038057Y-12260360D01*
X23025651Y-12330264D01*
X22977421Y-12382364D01*
X22942233Y-12396704D01*
X22896262Y-12407741D01*
X22825354Y-12404195D01*
X22789418Y-12383058D01*
X22789112Y-12383498D01*
X22783305Y-12379462D01*
X22783028Y-12379299D01*
X22782877Y-12379164D01*
X22782874Y-12379162D01*
X22777204Y-12374110D01*
X22770495Y-12370558D01*
X22770491Y-12370555D01*
X22632411Y-12297445D01*
X22632408Y-12297444D01*
X22625696Y-12293890D01*
X22597481Y-12286803D01*
X22466795Y-12253977D01*
X22466793Y-12253977D01*
X22459425Y-12252126D01*
X22451827Y-12252086D01*
X22451825Y-12252086D01*
X22377841Y-12251699D01*
X22287992Y-12251229D01*
X22280613Y-12253001D01*
X22280609Y-12253001D01*
X22128673Y-12289477D01*
X22128669Y-12289478D01*
X22121294Y-12291249D01*
X22092296Y-12306216D01*
X22034978Y-12335800D01*
X21965271Y-12349269D01*
X21899347Y-12322914D01*
X21858138Y-12265101D01*
X21854726Y-12194187D01*
X21860276Y-12176851D01*
X21869188Y-12154682D01*
X21893344Y-11984957D01*
X21893500Y-11970015D01*
X21891685Y-11955012D01*
X21877771Y-11840041D01*
X21872904Y-11799821D01*
X21860197Y-11766192D01*
X21854830Y-11695399D01*
X21861156Y-11674661D01*
X21866355Y-11661728D01*
X21866356Y-11661723D01*
X21869188Y-11654679D01*
X21893344Y-11484954D01*
X21893500Y-11470012D01*
X21892810Y-11464306D01*
X21879489Y-11354236D01*
X21872904Y-11299818D01*
X21860197Y-11266189D01*
X21854830Y-11195396D01*
X21861156Y-11174658D01*
X21866355Y-11161725D01*
X21866356Y-11161720D01*
X21869188Y-11154676D01*
X21880295Y-11076637D01*
X21887923Y-11023043D01*
X21917324Y-10958420D01*
X21976996Y-10919951D01*
X22044639Y-10918921D01*
X22113167Y-10936899D01*
X22200639Y-10938273D01*
X22276982Y-10939472D01*
X22276985Y-10939472D01*
X22284581Y-10939591D01*
X22291985Y-10937895D01*
X22291987Y-10937895D01*
X22374831Y-10918921D01*
X22451690Y-10901318D01*
X22604845Y-10824289D01*
X22735205Y-10712951D01*
X22835245Y-10573731D01*
X22899188Y-10414667D01*
X22923344Y-10244942D01*
X22923500Y-10230000D01*
X22921685Y-10214997D01*
X22911751Y-10132916D01*
X22902904Y-10059806D01*
X22842306Y-9899438D01*
X22775060Y-9801594D01*
X22773212Y-9798905D01*
X22751112Y-9731435D01*
X22768998Y-9662729D01*
X22820438Y-9614973D01*
X22901412Y-9574247D01*
X22935563Y-9557071D01*
X23065923Y-9445733D01*
X23133880Y-9351161D01*
X23189874Y-9307515D01*
X23238179Y-9298705D01*
X23253011Y-9298938D01*
X23286982Y-9299472D01*
X23286985Y-9299472D01*
X23294581Y-9299591D01*
X23301985Y-9297895D01*
X23301987Y-9297895D01*
X23417512Y-9271436D01*
X23461690Y-9261318D01*
X23614845Y-9184289D01*
X23745205Y-9072951D01*
X23749649Y-9066766D01*
X23840808Y-8939906D01*
X23840809Y-8939905D01*
X23845245Y-8933731D01*
X23909188Y-8774667D01*
X23933344Y-8604942D01*
X23933500Y-8590000D01*
X23929561Y-8557445D01*
X23923972Y-8511269D01*
X23912904Y-8419806D01*
X23852306Y-8259438D01*
X23834832Y-8234012D01*
X23759506Y-8124413D01*
X23759505Y-8124411D01*
X23755204Y-8118154D01*
X23749533Y-8113101D01*
X23632877Y-8009164D01*
X23632875Y-8009162D01*
X23627204Y-8004110D01*
X23620494Y-8000557D01*
X23620488Y-8000553D01*
X23493165Y-7933139D01*
X23442321Y-7883586D01*
X23426340Y-7814412D01*
X23450294Y-7747578D01*
X23495510Y-7709220D01*
X23538331Y-7687683D01*
X23584845Y-7664289D01*
X23715205Y-7552951D01*
X23742881Y-7514436D01*
X23798875Y-7470788D01*
X23869579Y-7464342D01*
X23932543Y-7497145D01*
X23936824Y-7501663D01*
X23939884Y-7506216D01*
X23945503Y-7511329D01*
X23945504Y-7511330D01*
X24036675Y-7594289D01*
X24066683Y-7621594D01*
X24073356Y-7625217D01*
X24210666Y-7699771D01*
X24210668Y-7699772D01*
X24217343Y-7703396D01*
X24224692Y-7705324D01*
X24375817Y-7744971D01*
X24375819Y-7744971D01*
X24383167Y-7746899D01*
X24470639Y-7748273D01*
X24546982Y-7749472D01*
X24546985Y-7749472D01*
X24554581Y-7749591D01*
X24561985Y-7747895D01*
X24561987Y-7747895D01*
X24649813Y-7727780D01*
X24721690Y-7711318D01*
X24744649Y-7699771D01*
X24774565Y-7684725D01*
X24844410Y-7671987D01*
X24863152Y-7675414D01*
X24975817Y-7704971D01*
X24975819Y-7704971D01*
X24983167Y-7706899D01*
X25070639Y-7708273D01*
X25146982Y-7709472D01*
X25146985Y-7709472D01*
X25154581Y-7709591D01*
X25161985Y-7707895D01*
X25161987Y-7707895D01*
X25224789Y-7693511D01*
X25321690Y-7671318D01*
X25474845Y-7594289D01*
X25605205Y-7482951D01*
X25621903Y-7459713D01*
X25700808Y-7349906D01*
X25700809Y-7349905D01*
X25705245Y-7343731D01*
X25769188Y-7184667D01*
X25793344Y-7014942D01*
X25793500Y-7000000D01*
X25780261Y-6890598D01*
X25791934Y-6820568D01*
X25839616Y-6767966D01*
X25899573Y-6751595D01*
X25899433Y-6750265D01*
X25906983Y-6749472D01*
X25914581Y-6749591D01*
X25921985Y-6747895D01*
X25921987Y-6747895D01*
X26014882Y-6726619D01*
X26081690Y-6711318D01*
X26234845Y-6634289D01*
X26365205Y-6522951D01*
X26382073Y-6499477D01*
X26460808Y-6389906D01*
X26460809Y-6389905D01*
X26465245Y-6383731D01*
X26529188Y-6224667D01*
X26553344Y-6054942D01*
X26553500Y-6040000D01*
X26551685Y-6024997D01*
X26533816Y-5877346D01*
X26532904Y-5869806D01*
X26472306Y-5709438D01*
X26463496Y-5696619D01*
X26379506Y-5574413D01*
X26379505Y-5574411D01*
X26375204Y-5568154D01*
X26369533Y-5563101D01*
X26252877Y-5459164D01*
X26252875Y-5459162D01*
X26247204Y-5454110D01*
X26240495Y-5450558D01*
X26240491Y-5450555D01*
X26102411Y-5377445D01*
X26102408Y-5377444D01*
X26095696Y-5373890D01*
X26078127Y-5369477D01*
X25936795Y-5333977D01*
X25936793Y-5333977D01*
X25929425Y-5332126D01*
X25921827Y-5332086D01*
X25921825Y-5332086D01*
X25847841Y-5331699D01*
X25757992Y-5331229D01*
X25750613Y-5333001D01*
X25750609Y-5333001D01*
X25598673Y-5369477D01*
X25598669Y-5369478D01*
X25591294Y-5371249D01*
X25438954Y-5449878D01*
X25433232Y-5454870D01*
X25433230Y-5454871D01*
X25375495Y-5505236D01*
X25309766Y-5562575D01*
X25211190Y-5702835D01*
X25148916Y-5862560D01*
X25126539Y-6032528D01*
X25129464Y-6059021D01*
X25139672Y-6151488D01*
X25127266Y-6221392D01*
X25079036Y-6273492D01*
X25013772Y-6291312D01*
X24997992Y-6291229D01*
X24990613Y-6293001D01*
X24990609Y-6293001D01*
X24838673Y-6329477D01*
X24838669Y-6329478D01*
X24831294Y-6331249D01*
X24824550Y-6334730D01*
X24824547Y-6334731D01*
X24786738Y-6354246D01*
X24717031Y-6367716D01*
X24698254Y-6364485D01*
X24638078Y-6349370D01*
X24576795Y-6333977D01*
X24576793Y-6333977D01*
X24569425Y-6332126D01*
X24561827Y-6332086D01*
X24561825Y-6332086D01*
X24487841Y-6331699D01*
X24397992Y-6331229D01*
X24390613Y-6333001D01*
X24390609Y-6333001D01*
X24238673Y-6369477D01*
X24238669Y-6369478D01*
X24231294Y-6371249D01*
X24078954Y-6449878D01*
X24073232Y-6454870D01*
X24073230Y-6454871D01*
X24044564Y-6479878D01*
X23949766Y-6562575D01*
X23945396Y-6568792D01*
X23945394Y-6568795D01*
X23927605Y-6594106D01*
X23872071Y-6638338D01*
X23801438Y-6645523D01*
X23738134Y-6613381D01*
X23730004Y-6604980D01*
X23729511Y-6604421D01*
X23725204Y-6598154D01*
X23705451Y-6580555D01*
X23602877Y-6489164D01*
X23602875Y-6489162D01*
X23597204Y-6484110D01*
X23590495Y-6480558D01*
X23590491Y-6480555D01*
X23452411Y-6407445D01*
X23452408Y-6407444D01*
X23445696Y-6403890D01*
X23390023Y-6389906D01*
X23286795Y-6363977D01*
X23286793Y-6363977D01*
X23279425Y-6362126D01*
X23271827Y-6362086D01*
X23271825Y-6362086D01*
X23197841Y-6361699D01*
X23107992Y-6361229D01*
X23100613Y-6363001D01*
X23100609Y-6363001D01*
X22948673Y-6399477D01*
X22948669Y-6399478D01*
X22941294Y-6401249D01*
X22788954Y-6479878D01*
X22783232Y-6484870D01*
X22783230Y-6484871D01*
X22699883Y-6557579D01*
X22659766Y-6592575D01*
X22561190Y-6732835D01*
X22498916Y-6892560D01*
X22497925Y-6900087D01*
X22482267Y-7019021D01*
X22476539Y-7062528D01*
X22495351Y-7232928D01*
X22497961Y-7240059D01*
X22535900Y-7343731D01*
X22554267Y-7393922D01*
X22558503Y-7400225D01*
X22558503Y-7400226D01*
X22635249Y-7514436D01*
X22649884Y-7536216D01*
X22655503Y-7541329D01*
X22655504Y-7541330D01*
X22771067Y-7646484D01*
X22776683Y-7651594D01*
X22783356Y-7655217D01*
X22916999Y-7727780D01*
X22967321Y-7777863D01*
X22982577Y-7847201D01*
X22957924Y-7913780D01*
X22914668Y-7950476D01*
X22818954Y-7999878D01*
X22813232Y-8004870D01*
X22813230Y-8004871D01*
X22742741Y-8066362D01*
X22689766Y-8112575D01*
X22662915Y-8150781D01*
X22627758Y-8200804D01*
X22572224Y-8245036D01*
X22524013Y-8254352D01*
X22486848Y-8254158D01*
X22458710Y-8254011D01*
X22451331Y-8255783D01*
X22451327Y-8255783D01*
X22299391Y-8292259D01*
X22299387Y-8292260D01*
X22292012Y-8294031D01*
X22285267Y-8297512D01*
X22285268Y-8297512D01*
X22151520Y-8366545D01*
X22139672Y-8372660D01*
X22133950Y-8377652D01*
X22133948Y-8377653D01*
X22088894Y-8416956D01*
X22024411Y-8446664D01*
X21954104Y-8436794D01*
X21900294Y-8390480D01*
X21888199Y-8366545D01*
X21888143Y-8366395D01*
X21830686Y-8214340D01*
X21733584Y-8073056D01*
X21726071Y-8066362D01*
X21611257Y-7964066D01*
X21611255Y-7964064D01*
X21605584Y-7959012D01*
X21598875Y-7955460D01*
X21598871Y-7955457D01*
X21460789Y-7882346D01*
X21460786Y-7882345D01*
X21454076Y-7878792D01*
X21453897Y-7878747D01*
X21397566Y-7834341D01*
X21349506Y-7764413D01*
X21349505Y-7764411D01*
X21345204Y-7758154D01*
X21339533Y-7753101D01*
X21222877Y-7649164D01*
X21222875Y-7649162D01*
X21217204Y-7644110D01*
X21210495Y-7640558D01*
X21210491Y-7640555D01*
X21072411Y-7567445D01*
X21072408Y-7567444D01*
X21065696Y-7563890D01*
X21058330Y-7562040D01*
X21058328Y-7562039D01*
X21003028Y-7548149D01*
X20960156Y-7537380D01*
X20898961Y-7501387D01*
X20872985Y-7459713D01*
X20871448Y-7455645D01*
X20868765Y-7448544D01*
X20823772Y-7383079D01*
X20775965Y-7313519D01*
X20775964Y-7313517D01*
X20771663Y-7307260D01*
X20765992Y-7302207D01*
X20649335Y-7198269D01*
X20649332Y-7198267D01*
X20643663Y-7193216D01*
X20558860Y-7148315D01*
X20508017Y-7098762D01*
X20492732Y-7052098D01*
X20487317Y-7007347D01*
X20487316Y-7007344D01*
X20486404Y-6999806D01*
X20425806Y-6839438D01*
X20376685Y-6767966D01*
X20333006Y-6704413D01*
X20333005Y-6704411D01*
X20328704Y-6698154D01*
X20323033Y-6693101D01*
X20206377Y-6589164D01*
X20206375Y-6589162D01*
X20200704Y-6584110D01*
X20193995Y-6580558D01*
X20193991Y-6580555D01*
X20055911Y-6507445D01*
X20055908Y-6507444D01*
X20049196Y-6503890D01*
X19990569Y-6489164D01*
X19890295Y-6463977D01*
X19890293Y-6463977D01*
X19882925Y-6462126D01*
X19875327Y-6462086D01*
X19875325Y-6462086D01*
X19801341Y-6461699D01*
X19711492Y-6461229D01*
X19704113Y-6463001D01*
X19704109Y-6463001D01*
X19552173Y-6499477D01*
X19552169Y-6499478D01*
X19544794Y-6501249D01*
X19392454Y-6579878D01*
X19386732Y-6584870D01*
X19386730Y-6584871D01*
X19317203Y-6645523D01*
X19263266Y-6692575D01*
X19164690Y-6832835D01*
X19102416Y-6992560D01*
X19101425Y-7000087D01*
X19094578Y-7052098D01*
X19080039Y-7162528D01*
X19098851Y-7332928D01*
X19101461Y-7340060D01*
X19140975Y-7448037D01*
X19145601Y-7518882D01*
X19111191Y-7580983D01*
X19080440Y-7603303D01*
X19035705Y-7626393D01*
X19035702Y-7626395D01*
X19028954Y-7629878D01*
X18931911Y-7714534D01*
X18867429Y-7744240D01*
X18797122Y-7734370D01*
X18765264Y-7713659D01*
X18692877Y-7649164D01*
X18692875Y-7649162D01*
X18687204Y-7644110D01*
X18680495Y-7640558D01*
X18680491Y-7640555D01*
X18542411Y-7567445D01*
X18542408Y-7567444D01*
X18535696Y-7563890D01*
X18467586Y-7546782D01*
X18376795Y-7523977D01*
X18376793Y-7523977D01*
X18369425Y-7522126D01*
X18361827Y-7522086D01*
X18361825Y-7522086D01*
X18287841Y-7521699D01*
X18197992Y-7521229D01*
X18190613Y-7523001D01*
X18190609Y-7523001D01*
X18038673Y-7559477D01*
X18038669Y-7559478D01*
X18031294Y-7561249D01*
X18019290Y-7567445D01*
X17888661Y-7634868D01*
X17878954Y-7639878D01*
X17873232Y-7644870D01*
X17873230Y-7644871D01*
X17756136Y-7747018D01*
X17749766Y-7752575D01*
X17651190Y-7892835D01*
X17588916Y-8052560D01*
X17587925Y-8060087D01*
X17567617Y-8214340D01*
X17566539Y-8222528D01*
X13611567Y-8222528D01*
X13606705Y-8208082D01*
X13589597Y-8157246D01*
X13589596Y-8157244D01*
X13587421Y-8150781D01*
X13492148Y-7992221D01*
X13365050Y-7857819D01*
X13301179Y-7814412D01*
X13217698Y-7757679D01*
X13212055Y-7753844D01*
X13205725Y-7751312D01*
X13205721Y-7751310D01*
X13046641Y-7687683D01*
X13040303Y-7685148D01*
X13033573Y-7684034D01*
X13033570Y-7684033D01*
X12864543Y-7656050D01*
X12864540Y-7656050D01*
X12857806Y-7654935D01*
X12850990Y-7655292D01*
X12850986Y-7655292D01*
X12730426Y-7661611D01*
X12673078Y-7664617D01*
X12666500Y-7666429D01*
X12666499Y-7666429D01*
X12501315Y-7711927D01*
X12501311Y-7711928D01*
X12494738Y-7713739D01*
X12488707Y-7716919D01*
X12488704Y-7716920D01*
X12457455Y-7733396D01*
X12331107Y-7800012D01*
X12325894Y-7804417D01*
X12325890Y-7804420D01*
X12195033Y-7915003D01*
X12195029Y-7915007D01*
X12189819Y-7919410D01*
X12185672Y-7924833D01*
X12185671Y-7924835D01*
X12081610Y-8060941D01*
X12081607Y-8060945D01*
X12077466Y-8066362D01*
X11999290Y-8234012D01*
X11958937Y-8414538D01*
X11958291Y-8599518D01*
X6310000Y-8599518D01*
X6310000Y-4649518D01*
X14968291Y-4649518D01*
X14969734Y-4656191D01*
X14969734Y-4656193D01*
X15005300Y-4820686D01*
X15007383Y-4830322D01*
X15084387Y-4998514D01*
X15088491Y-5003960D01*
X15088492Y-5003962D01*
X15166797Y-5107875D01*
X15195711Y-5146246D01*
X15336162Y-5266627D01*
X15412843Y-5307743D01*
X15493170Y-5350814D01*
X15493172Y-5350815D01*
X15499187Y-5354040D01*
X15505755Y-5355899D01*
X15505756Y-5355899D01*
X15569335Y-5373890D01*
X15677179Y-5404407D01*
X15683987Y-5404811D01*
X15683990Y-5404812D01*
X15836958Y-5413900D01*
X15861835Y-5415378D01*
X15942833Y-5402549D01*
X16037805Y-5387507D01*
X16037809Y-5387506D01*
X16044539Y-5386440D01*
X16050885Y-5383953D01*
X16050889Y-5383952D01*
X16210412Y-5321436D01*
X16210416Y-5321434D01*
X16216767Y-5318945D01*
X16263044Y-5287965D01*
X16364815Y-5219835D01*
X16364818Y-5219832D01*
X16370483Y-5216040D01*
X16498517Y-5082528D01*
X16504609Y-5072549D01*
X16579513Y-4949835D01*
X16594894Y-4924637D01*
X16608184Y-4886040D01*
X16652895Y-4756191D01*
X16652896Y-4756188D01*
X16655118Y-4749734D01*
X16664516Y-4668514D01*
X16675975Y-4569471D01*
X16675975Y-4569470D01*
X16676379Y-4565979D01*
X16676400Y-4560000D01*
X16675711Y-4553650D01*
X16664957Y-4454670D01*
X16656422Y-4376101D01*
X16623350Y-4277828D01*
X16599597Y-4207246D01*
X16599596Y-4207244D01*
X16597421Y-4200781D01*
X16502148Y-4042221D01*
X16375050Y-3907819D01*
X16303698Y-3859328D01*
X16236090Y-3813382D01*
X16222055Y-3803844D01*
X16215725Y-3801312D01*
X16215721Y-3801310D01*
X16056641Y-3737683D01*
X16050303Y-3735148D01*
X16043573Y-3734034D01*
X16043570Y-3734033D01*
X15874543Y-3706050D01*
X15874540Y-3706050D01*
X15867806Y-3704935D01*
X15860990Y-3705292D01*
X15860986Y-3705292D01*
X15740426Y-3711611D01*
X15683078Y-3714617D01*
X15676500Y-3716429D01*
X15676499Y-3716429D01*
X15511315Y-3761927D01*
X15511311Y-3761928D01*
X15504738Y-3763739D01*
X15498707Y-3766919D01*
X15498704Y-3766920D01*
X15458385Y-3788178D01*
X15341107Y-3850012D01*
X15335894Y-3854417D01*
X15335890Y-3854420D01*
X15205033Y-3965003D01*
X15205029Y-3965007D01*
X15199819Y-3969410D01*
X15195672Y-3974833D01*
X15195671Y-3974835D01*
X15091610Y-4110941D01*
X15091607Y-4110945D01*
X15087466Y-4116362D01*
X15009290Y-4284012D01*
X14968937Y-4464538D01*
X14968913Y-4471367D01*
X14968913Y-4471368D01*
X14968884Y-4479734D01*
X14968291Y-4649518D01*
X6310000Y-4649518D01*
X6310000Y-3235577D01*
X6330002Y-3167456D01*
X6374484Y-3128913D01*
X6373316Y-3127096D01*
X6488691Y-3052949D01*
X6488694Y-3052947D01*
X6496271Y-3048077D01*
X6524989Y-3014935D01*
X6586082Y-2944431D01*
X6586084Y-2944428D01*
X6591984Y-2937619D01*
X6652700Y-2804670D01*
X6660858Y-2747928D01*
X6672861Y-2664448D01*
X6672862Y-2664441D01*
X6673500Y-2660000D01*
X6673500Y-2577528D01*
X10652950Y-2577528D01*
X10671762Y-2747928D01*
X10730678Y-2908922D01*
X10734914Y-2915225D01*
X10734914Y-2915226D01*
X10819610Y-3041267D01*
X10826295Y-3051216D01*
X10831914Y-3056329D01*
X10831915Y-3056330D01*
X10946589Y-3160675D01*
X10953094Y-3166594D01*
X10959767Y-3170217D01*
X11097077Y-3244771D01*
X11097079Y-3244772D01*
X11103754Y-3248396D01*
X11111103Y-3250324D01*
X11262228Y-3289971D01*
X11262230Y-3289971D01*
X11269578Y-3291899D01*
X11357050Y-3293273D01*
X11433393Y-3294472D01*
X11433396Y-3294472D01*
X11440992Y-3294591D01*
X11448396Y-3292895D01*
X11448398Y-3292895D01*
X11513991Y-3277872D01*
X11608101Y-3256318D01*
X11761256Y-3179289D01*
X11891616Y-3067951D01*
X11908172Y-3044911D01*
X11987219Y-2934906D01*
X11987220Y-2934905D01*
X11991656Y-2928731D01*
X12055599Y-2769667D01*
X12079755Y-2599942D01*
X12079911Y-2585000D01*
X12078096Y-2569997D01*
X12066322Y-2472710D01*
X12059315Y-2414806D01*
X11998717Y-2254438D01*
X11965629Y-2206295D01*
X11905917Y-2119413D01*
X11905916Y-2119411D01*
X11901615Y-2113154D01*
X11895944Y-2108101D01*
X11779288Y-2004164D01*
X11779286Y-2004162D01*
X11773615Y-1999110D01*
X11766906Y-1995558D01*
X11766902Y-1995555D01*
X11628822Y-1922445D01*
X11628819Y-1922444D01*
X11622107Y-1918890D01*
X11586360Y-1909911D01*
X11463206Y-1878977D01*
X11463204Y-1878977D01*
X11455836Y-1877126D01*
X11448238Y-1877086D01*
X11448236Y-1877086D01*
X11374252Y-1876699D01*
X11284403Y-1876229D01*
X11277024Y-1878001D01*
X11277020Y-1878001D01*
X11125084Y-1914477D01*
X11125080Y-1914478D01*
X11117705Y-1916249D01*
X10965365Y-1994878D01*
X10959643Y-1999870D01*
X10959641Y-1999871D01*
X10904811Y-2047702D01*
X10836177Y-2107575D01*
X10737601Y-2247835D01*
X10675327Y-2407560D01*
X10674336Y-2415087D01*
X10654556Y-2565330D01*
X10652950Y-2577528D01*
X6673500Y-2577528D01*
X6673500Y-1760000D01*
X6668273Y-1686921D01*
X6644330Y-1605379D01*
X6629635Y-1555330D01*
X6629634Y-1555328D01*
X6627096Y-1546684D01*
X6577185Y-1469021D01*
X6552949Y-1431309D01*
X6552947Y-1431306D01*
X6548077Y-1423729D01*
X6437619Y-1328016D01*
X6429430Y-1324276D01*
X6429422Y-1324271D01*
X6383657Y-1303371D01*
X6330002Y-1256878D01*
X6310000Y-1188758D01*
X6310000Y-636084D01*
X6330002Y-567963D01*
X6383658Y-521470D01*
X6436040Y-510084D01*
X7008368Y-510269D01*
G37*
%TD.AperFunction*%
%TD*%
M02*
