%TF.GenerationSoftware,KiCad,Pcbnew,(5.99.0-9634-gb691c18bfc)*%
%TF.CreationDate,2021-03-08T14:44:59+01:00*%
%TF.ProjectId,nRF52840Breakout,6e524635-3238-4343-9042-7265616b6f75,rev?*%
%TF.SameCoordinates,Original*%
%TF.FileFunction,Copper,L1,Top*%
%TF.FilePolarity,Positive*%
%FSLAX46Y46*%
G04 Gerber Fmt 4.6, Leading zero omitted, Abs format (unit mm)*
G04 Created by KiCad (PCBNEW (5.99.0-9634-gb691c18bfc)) date 2021-03-08 14:44:59*
%MOMM*%
%LPD*%
G01*
G04 APERTURE LIST*
G04 Aperture macros list*
%AMRoundRect*
0 Rectangle with rounded corners*
0 $1 Rounding radius*
0 $2 $3 $4 $5 $6 $7 $8 $9 X,Y pos of 4 corners*
0 Add a 4 corners polygon primitive as box body*
4,1,4,$2,$3,$4,$5,$6,$7,$8,$9,$2,$3,0*
0 Add four circle primitives for the rounded corners*
1,1,$1+$1,$2,$3*
1,1,$1+$1,$4,$5*
1,1,$1+$1,$6,$7*
1,1,$1+$1,$8,$9*
0 Add four rect primitives between the rounded corners*
20,1,$1+$1,$2,$3,$4,$5,0*
20,1,$1+$1,$4,$5,$6,$7,0*
20,1,$1+$1,$6,$7,$8,$9,0*
20,1,$1+$1,$8,$9,$2,$3,0*%
G04 Aperture macros list end*
%TA.AperFunction,SMDPad,CuDef*%
%ADD10RoundRect,0.155000X-0.155000X0.212500X-0.155000X-0.212500X0.155000X-0.212500X0.155000X0.212500X0*%
%TD*%
%TA.AperFunction,ComponentPad*%
%ADD11R,0.600000X0.800000*%
%TD*%
%TA.AperFunction,ComponentPad*%
%ADD12R,0.800000X0.600000*%
%TD*%
%TA.AperFunction,SMDPad,CuDef*%
%ADD13RoundRect,0.155000X0.212500X0.155000X-0.212500X0.155000X-0.212500X-0.155000X0.212500X-0.155000X0*%
%TD*%
%TA.AperFunction,SMDPad,CuDef*%
%ADD14RoundRect,0.237500X0.237500X-0.300000X0.237500X0.300000X-0.237500X0.300000X-0.237500X-0.300000X0*%
%TD*%
%TA.AperFunction,ConnectorPad*%
%ADD15R,0.500000X0.500000*%
%TD*%
%TA.AperFunction,ComponentPad*%
%ADD16R,0.500000X0.900000*%
%TD*%
%TA.AperFunction,SMDPad,CuDef*%
%ADD17R,1.500000X2.000000*%
%TD*%
%TA.AperFunction,SMDPad,CuDef*%
%ADD18RoundRect,0.160000X-0.160000X0.197500X-0.160000X-0.197500X0.160000X-0.197500X0.160000X0.197500X0*%
%TD*%
%TA.AperFunction,SMDPad,CuDef*%
%ADD19RoundRect,0.160000X-0.222500X-0.160000X0.222500X-0.160000X0.222500X0.160000X-0.222500X0.160000X0*%
%TD*%
%TA.AperFunction,SMDPad,CuDef*%
%ADD20R,0.750000X0.700000*%
%TD*%
%TA.AperFunction,SMDPad,CuDef*%
%ADD21RoundRect,0.250001X0.462499X1.074999X-0.462499X1.074999X-0.462499X-1.074999X0.462499X-1.074999X0*%
%TD*%
%TA.AperFunction,SMDPad,CuDef*%
%ADD22RoundRect,0.250000X-0.412500X-0.650000X0.412500X-0.650000X0.412500X0.650000X-0.412500X0.650000X0*%
%TD*%
%TA.AperFunction,SMDPad,CuDef*%
%ADD23RoundRect,0.155000X0.155000X-0.212500X0.155000X0.212500X-0.155000X0.212500X-0.155000X-0.212500X0*%
%TD*%
%TA.AperFunction,SMDPad,CuDef*%
%ADD24RoundRect,0.250000X0.412500X0.650000X-0.412500X0.650000X-0.412500X-0.650000X0.412500X-0.650000X0*%
%TD*%
%TA.AperFunction,SMDPad,CuDef*%
%ADD25RoundRect,0.160000X0.160000X-0.222500X0.160000X0.222500X-0.160000X0.222500X-0.160000X-0.222500X0*%
%TD*%
%TA.AperFunction,SMDPad,CuDef*%
%ADD26RoundRect,0.237500X-0.237500X0.300000X-0.237500X-0.300000X0.237500X-0.300000X0.237500X0.300000X0*%
%TD*%
%TA.AperFunction,SMDPad,CuDef*%
%ADD27RoundRect,0.155000X-0.212500X-0.155000X0.212500X-0.155000X0.212500X0.155000X-0.212500X0.155000X0*%
%TD*%
%TA.AperFunction,SMDPad,CuDef*%
%ADD28R,1.800000X1.750000*%
%TD*%
%TA.AperFunction,SMDPad,CuDef*%
%ADD29C,0.250000*%
%TD*%
%TA.AperFunction,SMDPad,CuDef*%
%ADD30R,4.850000X4.850000*%
%TD*%
%TA.AperFunction,SMDPad,CuDef*%
%ADD31RoundRect,0.100000X0.217500X0.100000X-0.217500X0.100000X-0.217500X-0.100000X0.217500X-0.100000X0*%
%TD*%
%TA.AperFunction,SMDPad,CuDef*%
%ADD32RoundRect,0.237500X-0.300000X-0.237500X0.300000X-0.237500X0.300000X0.237500X-0.300000X0.237500X0*%
%TD*%
%TA.AperFunction,SMDPad,CuDef*%
%ADD33RoundRect,0.237500X0.300000X0.237500X-0.300000X0.237500X-0.300000X-0.237500X0.300000X-0.237500X0*%
%TD*%
%TA.AperFunction,ViaPad*%
%ADD34C,0.685800*%
%TD*%
%TA.AperFunction,ViaPad*%
%ADD35C,0.400000*%
%TD*%
%TA.AperFunction,Conductor*%
%ADD36C,0.508000*%
%TD*%
%TA.AperFunction,Conductor*%
%ADD37C,0.254000*%
%TD*%
%TA.AperFunction,Conductor*%
%ADD38C,0.127000*%
%TD*%
%TA.AperFunction,Conductor*%
%ADD39C,0.900000*%
%TD*%
%TA.AperFunction,Conductor*%
%ADD40C,0.762000*%
%TD*%
%TA.AperFunction,Conductor*%
%ADD41C,0.100000*%
%TD*%
G04 APERTURE END LIST*
%TO.C,AE1*%
G36*
X23200000Y-18810000D02*
G01*
X18300000Y-18810000D01*
X18300000Y-20210000D01*
X23200000Y-20210000D01*
X23200000Y-20710000D01*
X18300000Y-20710000D01*
X18300000Y-22410000D01*
X20940000Y-22410000D01*
X20940000Y-25410000D01*
X18300000Y-25410000D01*
X18300000Y-27110000D01*
X20940000Y-27110000D01*
X20940000Y-30110000D01*
X18300000Y-30110000D01*
X18300000Y-31810000D01*
X22240000Y-31810000D01*
X22240000Y-32310000D01*
X17800000Y-32310000D01*
X17800000Y-29610000D01*
X20440000Y-29610000D01*
X20440000Y-27610000D01*
X17800000Y-27610000D01*
X17800000Y-24910000D01*
X20440000Y-24910000D01*
X20440000Y-22910000D01*
X17800000Y-22910000D01*
X17800000Y-18352733D01*
X22802018Y-18352733D01*
X22808592Y-18402318D01*
X22828687Y-18447628D01*
X22861357Y-18482888D01*
X22893583Y-18499782D01*
X22941842Y-18508222D01*
X22991368Y-18501691D01*
X23036553Y-18481132D01*
X23071787Y-18447489D01*
X23082400Y-18428878D01*
X23095300Y-18383363D01*
X23096043Y-18334844D01*
X23083935Y-18292181D01*
X23079581Y-18284269D01*
X23046797Y-18246326D01*
X23004395Y-18222258D01*
X22956785Y-18212417D01*
X22908378Y-18217153D01*
X22863584Y-18236815D01*
X22826814Y-18271755D01*
X22809908Y-18304647D01*
X22802018Y-18352733D01*
X17800000Y-18352733D01*
X17800000Y-17910000D01*
X23200000Y-17910000D01*
X23200000Y-18810000D01*
G37*
%TD*%
D10*
%TO.P,C12,1*%
%TO.N,VDD*%
X30980000Y-24255000D03*
%TO.P,C12,2*%
%TO.N,GND*%
X30980000Y-25390000D03*
%TD*%
D11*
%TO.P,J2,1,Pin_1*%
%TO.N,Net-(J2-Pad1)*%
X24940000Y-16150000D03*
%TO.P,J2,2,Pin_2*%
%TO.N,Net-(J2-Pad2)*%
X25940000Y-16150000D03*
%TO.P,J2,3,Pin_3*%
%TO.N,Net-(J2-Pad3)*%
X26940000Y-16150000D03*
%TO.P,J2,4,Pin_4*%
%TO.N,Net-(J2-Pad4)*%
X27940000Y-16150000D03*
%TO.P,J2,5,Pin_5*%
%TO.N,Net-(J2-Pad5)*%
X28940000Y-16150000D03*
%TO.P,J2,6,Pin_6*%
%TO.N,Net-(J2-Pad6)*%
X29940000Y-16150000D03*
%TO.P,J2,7,Pin_7*%
%TO.N,Net-(J2-Pad7)*%
X30940000Y-16150000D03*
%TO.P,J2,8,Pin_8*%
%TO.N,Net-(J2-Pad8)*%
X31940000Y-16150000D03*
%TO.P,J2,9,Pin_9*%
%TO.N,Net-(J2-Pad9)*%
X32940000Y-16150000D03*
%TO.P,J2,10,Pin_10*%
%TO.N,GND*%
X33940000Y-16150000D03*
%TO.P,J2,11,Pin_11*%
%TO.N,Net-(J2-Pad11)*%
X34940000Y-16150000D03*
%TO.P,J2,12,Pin_12*%
%TO.N,Net-(J2-Pad12)*%
X35940000Y-16150000D03*
%TO.P,J2,13,Pin_13*%
%TO.N,Net-(J2-Pad13)*%
X36940000Y-16150000D03*
%TO.P,J2,14,Pin_14*%
%TO.N,Net-(J2-Pad14)*%
X37940000Y-16150000D03*
%TO.P,J2,15,Pin_15*%
%TO.N,Net-(J2-Pad15)*%
X38940000Y-16150000D03*
%TO.P,J2,16,Pin_16*%
%TO.N,Net-(J2-Pad16)*%
X39940000Y-16150000D03*
%TO.P,J2,17,Pin_17*%
%TO.N,SWDCLK*%
X40940000Y-16150000D03*
%TO.P,J2,18,Pin_18*%
%TO.N,SWDIO*%
X41940000Y-16150000D03*
%TO.P,J2,19,Pin_19*%
%TO.N,RST*%
X42940000Y-16150000D03*
%TO.P,J2,20,Pin_20*%
%TO.N,GND*%
X43940000Y-16150000D03*
%TD*%
D12*
%TO.P,J3,1,Pin_1*%
%TO.N,Net-(J3-Pad1)*%
X47940000Y-19160000D03*
%TO.P,J3,2,Pin_2*%
%TO.N,Net-(J3-Pad2)*%
X47940000Y-20160000D03*
%TO.P,J3,3,Pin_3*%
%TO.N,Net-(J3-Pad3)*%
X47940000Y-21160000D03*
%TO.P,J3,4,Pin_4*%
%TO.N,Net-(J3-Pad4)*%
X47940000Y-22160000D03*
%TO.P,J3,5,Pin_5*%
%TO.N,Net-(J3-Pad5)*%
X47940000Y-23160000D03*
%TO.P,J3,6,Pin_6*%
%TO.N,Net-(J3-Pad6)*%
X47940000Y-24160000D03*
%TO.P,J3,7,Pin_7*%
%TO.N,Net-(J3-Pad7)*%
X47940000Y-25160000D03*
%TO.P,J3,8,Pin_8*%
%TO.N,Net-(J3-Pad8)*%
X47940000Y-26160000D03*
%TO.P,J3,9,Pin_9*%
%TO.N,Net-(J3-Pad9)*%
X47940000Y-27160000D03*
%TO.P,J3,10,Pin_10*%
%TO.N,GND*%
X47940000Y-28160000D03*
%TO.P,J3,11,Pin_11*%
%TO.N,VDD*%
X47940000Y-29160000D03*
%TO.P,J3,12,Pin_12*%
%TO.N,VDDH*%
X47940000Y-30160000D03*
%TO.P,J3,13,Pin_13*%
%TO.N,Net-(J3-Pad13)*%
X47940000Y-31160000D03*
%TO.P,J3,14,Pin_14*%
%TO.N,Net-(J3-Pad14)*%
X47940000Y-32160000D03*
%TO.P,J3,15,Pin_15*%
%TO.N,Net-(J3-Pad15)*%
X47940000Y-33160000D03*
%TO.P,J3,16,Pin_16*%
%TO.N,Net-(J3-Pad16)*%
X47940000Y-34160000D03*
%TO.P,J3,17,Pin_17*%
%TO.N,Net-(J3-Pad17)*%
X47940000Y-35160000D03*
%TO.P,J3,18,Pin_18*%
%TO.N,Net-(J3-Pad18)*%
X47940000Y-36160000D03*
%TO.P,J3,19,Pin_19*%
%TO.N,USB_D+*%
X47940000Y-37160000D03*
%TO.P,J3,20,Pin_20*%
%TO.N,USB_D-*%
X47940000Y-38160000D03*
%TD*%
D13*
%TO.P,C10,1*%
%TO.N,DEC4_6*%
X32347500Y-20930000D03*
%TO.P,C10,2*%
%TO.N,GND*%
X31212500Y-20930000D03*
%TD*%
D14*
%TO.P,C21,1*%
%TO.N,GND*%
X40470000Y-32302500D03*
%TO.P,C21,2*%
%TO.N,VBUS*%
X40470000Y-30577500D03*
%TD*%
D15*
%TO.P,AE1,1,A*%
%TO.N,Net-(AE1-Pad1)*%
X22950000Y-20460000D03*
D16*
%TO.P,AE1,2*%
%TO.N,N/C*%
X22950000Y-18360000D03*
%TD*%
D17*
%TO.P,SW1,1,1*%
%TO.N,Net-(R1-Pad2)*%
X44350000Y-30790000D03*
%TO.P,SW1,2,2*%
%TO.N,RST*%
X44350000Y-22590000D03*
%TD*%
D18*
%TO.P,R1,1*%
%TO.N,GND*%
X41750000Y-29762500D03*
%TO.P,R1,2*%
%TO.N,Net-(R1-Pad2)*%
X41750000Y-30957500D03*
%TD*%
D19*
%TO.P,L1,1*%
%TO.N,Net-(AE1-Pad1)*%
X24167500Y-20460000D03*
%TO.P,L1,2*%
%TO.N,Net-(C3-Pad1)*%
X25312500Y-20460000D03*
%TD*%
D20*
%TO.P,X1,1,1*%
%TO.N,Net-(C1-Pad2)*%
X28450000Y-22160000D03*
%TO.P,X1,2*%
%TO.N,N/C*%
X27100000Y-22160000D03*
%TO.P,X1,3,3*%
%TO.N,Net-(C2-Pad2)*%
X27100000Y-23160000D03*
%TO.P,X1,4*%
%TO.N,N/C*%
X28450000Y-23160000D03*
%TD*%
D21*
%TO.P,L2,1*%
%TO.N,DCC*%
X29877500Y-30490000D03*
%TO.P,L2,2*%
%TO.N,Net-(L2-Pad2)*%
X26902500Y-30490000D03*
%TD*%
D22*
%TO.P,C6,1*%
%TO.N,VDD*%
X36467500Y-38050000D03*
%TO.P,C6,2*%
%TO.N,GND*%
X39592500Y-38050000D03*
%TD*%
D23*
%TO.P,C7,1*%
%TO.N,VDD*%
X40370000Y-26937500D03*
%TO.P,C7,2*%
%TO.N,GND*%
X40370000Y-25802500D03*
%TD*%
D24*
%TO.P,C20,1*%
%TO.N,GND*%
X43872500Y-34330000D03*
%TO.P,C20,2*%
%TO.N,Net-(C20-Pad2)*%
X40747500Y-34330000D03*
%TD*%
D13*
%TO.P,C1,1*%
%TO.N,GND*%
X29517500Y-20760000D03*
%TO.P,C1,2*%
%TO.N,Net-(C1-Pad2)*%
X28382500Y-20760000D03*
%TD*%
D21*
%TO.P,L4,1*%
%TO.N,Net-(L4-Pad1)*%
X38807500Y-35140000D03*
%TO.P,L4,2*%
%TO.N,VDD*%
X35832500Y-35140000D03*
%TD*%
D25*
%TO.P,L3,1*%
%TO.N,Net-(L2-Pad2)*%
X25300000Y-30550000D03*
%TO.P,L3,2*%
%TO.N,DEC4_6*%
X25300000Y-29405000D03*
%TD*%
D14*
%TO.P,C15,1*%
%TO.N,DEC4_6*%
X26240000Y-27902500D03*
%TO.P,C15,2*%
%TO.N,GND*%
X26240000Y-26177500D03*
%TD*%
D23*
%TO.P,C16,1*%
%TO.N,DEC4_6*%
X27710000Y-28120000D03*
%TO.P,C16,2*%
%TO.N,GND*%
X27710000Y-26985000D03*
%TD*%
D26*
%TO.P,C14,1*%
%TO.N,VDD*%
X29940000Y-33057500D03*
%TO.P,C14,2*%
%TO.N,GND*%
X29940000Y-34782500D03*
%TD*%
D27*
%TO.P,C9,1*%
%TO.N,Net-(C9-Pad1)*%
X36002500Y-22650000D03*
%TO.P,C9,2*%
%TO.N,GND*%
X37137500Y-22650000D03*
%TD*%
D11*
%TO.P,J1,1,Pin_1*%
%TO.N,GND*%
X24950000Y-41160000D03*
%TO.P,J1,2,Pin_2*%
%TO.N,Net-(J1-Pad2)*%
X25950000Y-41160000D03*
%TO.P,J1,3,Pin_3*%
%TO.N,Net-(J1-Pad3)*%
X26950000Y-41160000D03*
%TO.P,J1,4,Pin_4*%
%TO.N,Net-(J1-Pad4)*%
X27950000Y-41160000D03*
%TO.P,J1,5,Pin_5*%
%TO.N,Net-(J1-Pad5)*%
X28950000Y-41160000D03*
%TO.P,J1,6,Pin_6*%
%TO.N,GND*%
X29950000Y-41160000D03*
%TO.P,J1,7,Pin_7*%
%TO.N,VDD*%
X30950000Y-41160000D03*
%TO.P,J1,8,Pin_8*%
%TO.N,Net-(J1-Pad8)*%
X31950000Y-41160000D03*
%TO.P,J1,9,Pin_9*%
%TO.N,Net-(J1-Pad9)*%
X32950000Y-41160000D03*
%TO.P,J1,10,Pin_10*%
%TO.N,Net-(J1-Pad10)*%
X33950000Y-41160000D03*
%TO.P,J1,11,Pin_11*%
%TO.N,Net-(J1-Pad11)*%
X34950000Y-41160000D03*
%TO.P,J1,12,Pin_12*%
%TO.N,Net-(J1-Pad12)*%
X35950000Y-41160000D03*
%TO.P,J1,13,Pin_13*%
%TO.N,Net-(J1-Pad13)*%
X36950000Y-41160000D03*
%TO.P,J1,14,Pin_14*%
%TO.N,Net-(J1-Pad14)*%
X37950000Y-41160000D03*
%TO.P,J1,15,Pin_15*%
%TO.N,Net-(J1-Pad15)*%
X38950000Y-41160000D03*
%TO.P,J1,16,Pin_16*%
%TO.N,Net-(J1-Pad16)*%
X39950000Y-41160000D03*
%TO.P,J1,17,Pin_17*%
%TO.N,Net-(J1-Pad17)*%
X40950000Y-41160000D03*
%TO.P,J1,18,Pin_18*%
%TO.N,Net-(J1-Pad18)*%
X41950000Y-41160000D03*
%TO.P,J1,19,Pin_19*%
%TO.N,VBUS*%
X42950000Y-41160000D03*
%TO.P,J1,20,Pin_20*%
%TO.N,GND*%
X43950000Y-41160000D03*
%TD*%
D28*
%TO.P,X2,1,1*%
%TO.N,Net-(C18-Pad2)*%
X33100000Y-38265000D03*
%TO.P,X2,2,2*%
%TO.N,Net-(C17-Pad2)*%
X33100000Y-35015000D03*
%TD*%
D29*
%TO.P,U1,A8,AIN7/P0.31*%
%TO.N,Net-(J1-Pad2)*%
X32220000Y-28370000D03*
%TO.P,U1,A10,AIN5/P0.29*%
%TO.N,Net-(J1-Pad4)*%
X32220000Y-27870000D03*
%TO.P,U1,A12,AIN0/P0.02*%
%TO.N,Net-(J1-Pad3)*%
X32220000Y-27370000D03*
%TO.P,U1,A14,P1.15*%
%TO.N,Net-(J2-Pad3)*%
X32220000Y-26870000D03*
%TO.P,U1,A16,P1.13*%
%TO.N,Net-(J2-Pad5)*%
X32220000Y-26370000D03*
%TO.P,U1,A18,DEC2*%
%TO.N,Net-(C13-Pad1)*%
X32220000Y-25870000D03*
%TO.P,U1,A20,P1.10*%
%TO.N,Net-(J2-Pad8)*%
X32220000Y-25370000D03*
%TO.P,U1,A22,VDD*%
%TO.N,VDD*%
X32220000Y-24870000D03*
%TO.P,U1,A23,XC2*%
%TO.N,Net-(C2-Pad2)*%
X32220000Y-24370000D03*
%TO.P,U1,AA24,SWDCLK*%
%TO.N,SWDCLK*%
X37720000Y-23870000D03*
%TO.P,U1,AB2,DCCH*%
%TO.N,Net-(L4-Pad1)*%
X37970000Y-29870000D03*
%TO.P,U1,AC5,DECUSB*%
%TO.N,Net-(C20-Pad2)*%
X38220000Y-29120000D03*
%TO.P,U1,AC9,P0.14*%
%TO.N,Net-(J3-Pad17)*%
X38220000Y-28120000D03*
%TO.P,U1,AC11,P0.16*%
%TO.N,Net-(J3-Pad15)*%
X38220000Y-27620000D03*
%TO.P,U1,AC13,P0.18/~RESET*%
%TO.N,RST*%
X38220000Y-27120000D03*
%TO.P,U1,AC15,P0.19*%
%TO.N,Net-(J3-Pad13)*%
X38220000Y-26620000D03*
%TO.P,U1,AC17,P0.21*%
%TO.N,Net-(J3-Pad6)*%
X38220000Y-26120000D03*
%TO.P,U1,AC19,P0.23*%
%TO.N,Net-(J3-Pad4)*%
X38220000Y-25620000D03*
%TO.P,U1,AC21,P0.25*%
%TO.N,Net-(J3-Pad2)*%
X38220000Y-25120000D03*
%TO.P,U1,AC24,SWDIO*%
%TO.N,SWDIO*%
X38220000Y-23870000D03*
%TO.P,U1,AD2,VBUS*%
%TO.N,VBUS*%
X38720000Y-29870000D03*
%TO.P,U1,AD4,D-*%
%TO.N,USB_D-*%
X38720000Y-29370000D03*
%TO.P,U1,AD6,D+*%
%TO.N,USB_D+*%
X38720000Y-28870000D03*
%TO.P,U1,AD8,P0.13*%
%TO.N,Net-(J3-Pad18)*%
X38720000Y-28370000D03*
%TO.P,U1,AD10,P0.15*%
%TO.N,Net-(J3-Pad16)*%
X38720000Y-27870000D03*
%TO.P,U1,AD12,P0.17*%
%TO.N,Net-(J3-Pad14)*%
X38720000Y-27370000D03*
%TO.P,U1,AD14,VDD*%
%TO.N,VDD*%
X38720000Y-26870000D03*
%TO.P,U1,AD16,P0.20*%
%TO.N,Net-(J3-Pad7)*%
X38720000Y-26370000D03*
%TO.P,U1,AD18,P0.22*%
%TO.N,Net-(J3-Pad5)*%
X38720000Y-25870000D03*
%TO.P,U1,AD20,P0.24*%
%TO.N,Net-(J3-Pad3)*%
X38720000Y-25370000D03*
%TO.P,U1,AD22,TRACEDATA0/P1.00*%
%TO.N,Net-(J3-Pad1)*%
X38720000Y-24870000D03*
%TO.P,U1,AD23,VDD*%
%TO.N,VDD*%
X38720000Y-24370000D03*
%TO.P,U1,B1,VDD*%
X32720000Y-30370000D03*
%TO.P,U1,B3,DCC*%
%TO.N,DCC*%
X32720000Y-29620000D03*
%TO.P,U1,B5,DEC4*%
%TO.N,DEC4_6*%
X32720000Y-29120000D03*
%TO.P,U1,B7,VSS*%
%TO.N,GND*%
X32720000Y-28620000D03*
%TO.P,U1,B9,AIN6/P0.30*%
%TO.N,Net-(J1-Pad5)*%
X32720000Y-28120000D03*
%TO.P,U1,B11,AIN4/P0.28*%
%TO.N,Net-(J2-Pad1)*%
X32720000Y-27620000D03*
%TO.P,U1,B13,AIN1/P0.03*%
%TO.N,Net-(J2-Pad2)*%
X32720000Y-27120000D03*
%TO.P,U1,B15,P1.14*%
%TO.N,Net-(J2-Pad4)*%
X32720000Y-26620000D03*
%TO.P,U1,B17,P1.12*%
%TO.N,Net-(J2-Pad6)*%
X32720000Y-26120000D03*
%TO.P,U1,B19,P1.11*%
%TO.N,Net-(J2-Pad7)*%
X32720000Y-25620000D03*
%TO.P,U1,B24,XC1*%
%TO.N,Net-(C1-Pad2)*%
X32720000Y-23870000D03*
%TO.P,U1,C1,DEC1*%
%TO.N,Net-(C5-Pad1)*%
X33220000Y-30370000D03*
%TO.P,U1,D2,XL1/P0.00*%
%TO.N,Net-(C17-Pad2)*%
X33470000Y-29870000D03*
%TO.P,U1,D23,DEC3*%
%TO.N,Net-(C11-Pad1)*%
X33470000Y-24370000D03*
%TO.P,U1,E24,DEC6*%
%TO.N,DEC4_6*%
X33720000Y-23870000D03*
D30*
%TO.P,U1,EP,VSS*%
%TO.N,GND*%
X35470000Y-27120000D03*
D29*
%TO.P,U1,F2,XL2/P0.01*%
%TO.N,Net-(C18-Pad2)*%
X33970000Y-29870000D03*
%TO.P,U1,F23,VSS_PA*%
%TO.N,GND*%
X33970000Y-24370000D03*
%TO.P,U1,G1,P0.26*%
%TO.N,Net-(J1-Pad8)*%
X34220000Y-30370000D03*
%TO.P,U1,H2,P0.27*%
%TO.N,Net-(J1-Pad9)*%
X34470000Y-29870000D03*
%TO.P,U1,H23,ANT*%
%TO.N,Net-(C3-Pad1)*%
X34470000Y-24370000D03*
%TO.P,U1,J1,AIN2/P0.04*%
%TO.N,Net-(J1-Pad10)*%
X34720000Y-30370000D03*
%TO.P,U1,J24,NFC2/P0.10*%
%TO.N,Net-(J2-Pad9)*%
X34720000Y-23870000D03*
%TO.P,U1,K2,AIN3/P0.05*%
%TO.N,Net-(J1-Pad11)*%
X34970000Y-29870000D03*
%TO.P,U1,L1,P0.06*%
%TO.N,Net-(J1-Pad12)*%
X35220000Y-30370000D03*
%TO.P,U1,L24,NFC1/P0.09*%
%TO.N,Net-(J2-Pad11)*%
X35220000Y-23870000D03*
%TO.P,U1,M2,TRACECLK/P0.07*%
%TO.N,Net-(J1-Pad13)*%
X35470000Y-29870000D03*
%TO.P,U1,N1,P0.08*%
%TO.N,Net-(J1-Pad14)*%
X35720000Y-30370000D03*
%TO.P,U1,N24,DEC5*%
%TO.N,Net-(C9-Pad1)*%
X35720000Y-23870000D03*
%TO.P,U1,P2,P1.08*%
%TO.N,Net-(J1-Pad15)*%
X35970000Y-29870000D03*
%TO.P,U1,P23,P1.07*%
%TO.N,Net-(J2-Pad12)*%
X35970000Y-24370000D03*
%TO.P,U1,R1,TRACEDATA3/P1.09*%
%TO.N,Net-(J1-Pad16)*%
X36220000Y-30370000D03*
%TO.P,U1,R24,P1.06*%
%TO.N,Net-(J2-Pad13)*%
X36220000Y-23870000D03*
%TO.P,U1,T2,TRACEDATA2/P0.11*%
%TO.N,Net-(J1-Pad18)*%
X36470000Y-29870000D03*
%TO.P,U1,T23,P1.05*%
%TO.N,Net-(J2-Pad14)*%
X36470000Y-24370000D03*
%TO.P,U1,U1,TRACEDATA1/P0.12*%
%TO.N,Net-(J1-Pad17)*%
X36720000Y-30370000D03*
%TO.P,U1,U24,P1.04*%
%TO.N,Net-(J2-Pad15)*%
X36720000Y-23870000D03*
%TO.P,U1,V23,P1.03*%
%TO.N,Net-(J2-Pad16)*%
X36970000Y-24370000D03*
%TO.P,U1,W1,VDD*%
%TO.N,VDD*%
X37220000Y-30370000D03*
%TO.P,U1,W24,P1.02*%
%TO.N,Net-(J3-Pad8)*%
X37220000Y-23870000D03*
%TO.P,U1,Y2,VDDH*%
%TO.N,VDDH*%
X37470000Y-29870000D03*
%TO.P,U1,Y23,P1.01*%
%TO.N,Net-(J3-Pad9)*%
X37470000Y-24370000D03*
%TD*%
D31*
%TO.P,C3,1*%
%TO.N,Net-(C3-Pad1)*%
X25247500Y-19300000D03*
%TO.P,C3,2*%
%TO.N,GND*%
X24432500Y-19300000D03*
%TD*%
D32*
%TO.P,C19,1*%
%TO.N,GND*%
X35797500Y-32380000D03*
%TO.P,C19,2*%
%TO.N,VDDH*%
X37522500Y-32380000D03*
%TD*%
D13*
%TO.P,C5,1*%
%TO.N,Net-(C5-Pad1)*%
X32415000Y-33080000D03*
%TO.P,C5,2*%
%TO.N,GND*%
X31280000Y-33080000D03*
%TD*%
%TO.P,C2,1*%
%TO.N,GND*%
X28517500Y-24560000D03*
%TO.P,C2,2*%
%TO.N,Net-(C2-Pad2)*%
X27382500Y-24560000D03*
%TD*%
D33*
%TO.P,C11,1*%
%TO.N,Net-(C11-Pad1)*%
X32702500Y-22280000D03*
%TO.P,C11,2*%
%TO.N,GND*%
X30977500Y-22280000D03*
%TD*%
D10*
%TO.P,C18,1*%
%TO.N,GND*%
X34920000Y-37422500D03*
%TO.P,C18,2*%
%TO.N,Net-(C18-Pad2)*%
X34920000Y-38557500D03*
%TD*%
D13*
%TO.P,C13,1*%
%TO.N,Net-(C13-Pad1)*%
X29850000Y-25660000D03*
%TO.P,C13,2*%
%TO.N,GND*%
X28715000Y-25660000D03*
%TD*%
D27*
%TO.P,C8,1*%
%TO.N,VDD*%
X40242500Y-24020000D03*
%TO.P,C8,2*%
%TO.N,GND*%
X41377500Y-24020000D03*
%TD*%
D23*
%TO.P,C17,1*%
%TO.N,GND*%
X31300000Y-36227500D03*
%TO.P,C17,2*%
%TO.N,Net-(C17-Pad2)*%
X31300000Y-35092500D03*
%TD*%
D34*
%TO.N,GND*%
X37350000Y-26560000D03*
X30250000Y-36160000D03*
X34850000Y-28760000D03*
D35*
X37070000Y-21850000D03*
D34*
X36150000Y-27660000D03*
X33650000Y-25460000D03*
X35889831Y-33260000D03*
X43960000Y-17340000D03*
X34850000Y-27660000D03*
X36150000Y-28760000D03*
X46720000Y-28180000D03*
X34850000Y-25460000D03*
D35*
X29940000Y-40060000D03*
D34*
X33650000Y-28760000D03*
X23800000Y-18360000D03*
X31377500Y-33960000D03*
D35*
X24940000Y-40090000D03*
X41750000Y-28740000D03*
D34*
X44430000Y-36280000D03*
X39550000Y-31470000D03*
X33950000Y-17220000D03*
X34850000Y-26560000D03*
X27550000Y-25760000D03*
X36150000Y-26560000D03*
X37350000Y-28760000D03*
X30950000Y-26360000D03*
X33650000Y-27660000D03*
X38436400Y-38520000D03*
D35*
X30350000Y-20810000D03*
D34*
X33650000Y-26560000D03*
X36150000Y-25460000D03*
X37350000Y-25460000D03*
X34650000Y-36660000D03*
X37350000Y-27660000D03*
X43940000Y-40000000D03*
D35*
X41280000Y-25070000D03*
D34*
%TO.N,VDD*%
X38920000Y-20440000D03*
X30950000Y-39860000D03*
X40980000Y-19530000D03*
X40970000Y-20380000D03*
D35*
X40230000Y-23220000D03*
D34*
X40940000Y-17910000D03*
X28450000Y-33860000D03*
X29850000Y-24660000D03*
D35*
X41240000Y-26920000D03*
D34*
X38950000Y-17910000D03*
X38970000Y-19580000D03*
D35*
X36970000Y-34750000D03*
D34*
%TO.N,DEC4_6*%
X28640000Y-27490000D03*
X32860000Y-20710000D03*
D35*
%TO.N,Net-(J1-Pad3)*%
X30920000Y-27990000D03*
%TO.N,Net-(J1-Pad5)*%
X32720000Y-28120000D03*
%TO.N,USB_D-*%
X39031113Y-29436263D03*
%TO.N,USB_D+*%
X39410000Y-29110000D03*
%TO.N,RST*%
X38220000Y-27120009D03*
X42880000Y-22190000D03*
%TO.N,Net-(J1-Pad8)*%
X34377000Y-31510000D03*
%TO.N,Net-(J1-Pad9)*%
X34470000Y-29870000D03*
%TO.N,Net-(J1-Pad10)*%
X34528969Y-32535099D03*
%TO.N,Net-(J1-Pad11)*%
X34969550Y-29848743D03*
%TO.N,Net-(J1-Pad12)*%
X35333050Y-31470000D03*
%TO.N,Net-(J1-Pad13)*%
X35470000Y-29870000D03*
%TO.N,Net-(J1-Pad14)*%
X36130000Y-31380000D03*
%TO.N,Net-(J1-Pad15)*%
X35970003Y-29870000D03*
%TO.N,Net-(J1-Pad16)*%
X36743387Y-30946139D03*
%TO.N,Net-(J2-Pad4)*%
X32720000Y-26619991D03*
%TO.N,Net-(J2-Pad3)*%
X30160000Y-27630000D03*
%TO.N,Net-(J2-Pad2)*%
X32720000Y-27119994D03*
%TO.N,Net-(J2-Pad1)*%
X32720000Y-27619997D03*
%TO.N,Net-(J1-Pad2)*%
X31456935Y-28510980D03*
%TO.N,Net-(J1-Pad17)*%
X36720000Y-30370000D03*
%TO.N,Net-(J1-Pad18)*%
X36950000Y-29870000D03*
%TO.N,Net-(J1-Pad4)*%
X32220000Y-27870000D03*
%TO.N,Net-(J2-Pad5)*%
X28406411Y-18735000D03*
X28400000Y-26380000D03*
%TO.N,Net-(J2-Pad6)*%
X32720000Y-26119988D03*
%TO.N,Net-(J2-Pad7)*%
X32400000Y-17600000D03*
X32670000Y-25110000D03*
%TO.N,Net-(J2-Pad8)*%
X31620000Y-25370000D03*
%TO.N,Net-(J2-Pad12)*%
X35320000Y-24380000D03*
%TO.N,Net-(J2-Pad14)*%
X36470000Y-24370000D03*
%TO.N,Net-(J2-Pad15)*%
X36833500Y-23320000D03*
%TO.N,Net-(J2-Pad16)*%
X36970000Y-24370000D03*
%TO.N,Net-(J3-Pad1)*%
X40260000Y-24740000D03*
%TO.N,Net-(J3-Pad2)*%
X38238380Y-24694902D03*
D34*
%TO.N,VBUS*%
X41510000Y-32620000D03*
D35*
%TO.N,Net-(J3-Pad3)*%
X39580718Y-25112782D03*
%TO.N,Net-(J3-Pad4)*%
X38220000Y-25620000D03*
%TO.N,Net-(J3-Pad5)*%
X41110000Y-26360000D03*
%TO.N,Net-(J3-Pad6)*%
X38220000Y-26120003D03*
%TO.N,Net-(J3-Pad7)*%
X39250000Y-26380000D03*
%TO.N,Net-(J3-Pad8)*%
X37276459Y-23929106D03*
X42120000Y-23150000D03*
%TO.N,Net-(J3-Pad9)*%
X41520000Y-23190000D03*
X37850000Y-24380000D03*
%TO.N,Net-(J3-Pad13)*%
X38220000Y-26620006D03*
%TO.N,Net-(J3-Pad14)*%
X40780000Y-28313500D03*
%TO.N,Net-(J3-Pad15)*%
X38220000Y-27620012D03*
%TO.N,Net-(J3-Pad16)*%
X40867966Y-29512034D03*
%TO.N,Net-(J3-Pad17)*%
X38220000Y-28120015D03*
%TO.N,Net-(J3-Pad18)*%
X40090932Y-29249068D03*
%TD*%
D36*
%TO.N,Net-(AE1-Pad1)*%
X24167500Y-20460000D02*
X22950000Y-20460000D01*
D37*
%TO.N,Net-(C1-Pad2)*%
X28382500Y-20760000D02*
X28382500Y-22092500D01*
X29624886Y-22160000D02*
X30473906Y-23009020D01*
X28382500Y-22092500D02*
X28450000Y-22160000D01*
X31859020Y-23009020D02*
X32720000Y-23870000D01*
X28450000Y-22160000D02*
X29624886Y-22160000D01*
X30473906Y-23009020D02*
X31859020Y-23009020D01*
%TO.N,GND*%
X43872500Y-34330000D02*
X43872500Y-35722500D01*
X27710000Y-25920000D02*
X27550000Y-25760000D01*
X29940000Y-34782500D02*
X29940000Y-35850000D01*
D36*
X24432500Y-18992500D02*
X23800000Y-18360000D01*
D37*
X43872500Y-35722500D02*
X44430000Y-36280000D01*
X28517500Y-24792500D02*
X27550000Y-25760000D01*
X27650000Y-25660000D02*
X27550000Y-25760000D01*
D38*
X35470000Y-27220000D02*
X33650000Y-25400000D01*
D37*
X43960000Y-17340000D02*
X43960000Y-16277020D01*
X30977500Y-22280000D02*
X30977500Y-21165000D01*
X43960000Y-16277020D02*
X43940000Y-16277020D01*
D38*
X41750000Y-29762500D02*
X41750000Y-28740000D01*
D37*
X30317500Y-36227500D02*
X30250000Y-36160000D01*
X30980000Y-26330000D02*
X30950000Y-26360000D01*
D36*
X24432500Y-19300000D02*
X24432500Y-18992500D01*
D37*
X41377500Y-24972500D02*
X41280000Y-25070000D01*
D38*
X34920000Y-36930000D02*
X34650000Y-36660000D01*
D37*
X33950000Y-16277020D02*
X33940000Y-16277020D01*
X28517500Y-24560000D02*
X28517500Y-24792500D01*
X40370000Y-25802500D02*
X40547500Y-25802500D01*
X30980000Y-25390000D02*
X30980000Y-26330000D01*
X28715000Y-25660000D02*
X27650000Y-25660000D01*
D38*
X32720000Y-28620000D02*
X33510000Y-28620000D01*
D37*
X27132500Y-26177500D02*
X27550000Y-25760000D01*
D38*
X34920000Y-37422500D02*
X34920000Y-36930000D01*
D37*
X33950000Y-17220000D02*
X33950000Y-16277020D01*
X35797500Y-32380000D02*
X35797500Y-33167669D01*
X46720000Y-28180000D02*
X47953284Y-28180000D01*
X31280000Y-33080000D02*
X31280000Y-33862500D01*
D38*
X24940000Y-40090000D02*
X24940000Y-41086480D01*
D37*
X41377500Y-24020000D02*
X41377500Y-24972500D01*
D38*
X33510000Y-28620000D02*
X33650000Y-28760000D01*
D37*
X40547500Y-25802500D02*
X41280000Y-25070000D01*
X37137500Y-22650000D02*
X37137500Y-21917500D01*
D38*
X33650000Y-27700000D02*
X33650000Y-27660000D01*
D37*
X26240000Y-26177500D02*
X27132500Y-26177500D01*
D38*
X29940000Y-41096480D02*
X29950000Y-41096480D01*
D37*
X33970000Y-25620000D02*
X35470000Y-27120000D01*
X43940000Y-41022980D02*
X43950000Y-41032980D01*
X43940000Y-40000000D02*
X43940000Y-41022980D01*
X33970000Y-24370000D02*
X33970000Y-25620000D01*
X40382500Y-32302500D02*
X39550000Y-31470000D01*
X29517500Y-20760000D02*
X30300000Y-20760000D01*
D38*
X24940000Y-41086480D02*
X24950000Y-41096480D01*
D37*
X30977500Y-21165000D02*
X31212500Y-20930000D01*
X31212500Y-20930000D02*
X30470000Y-20930000D01*
D38*
X33650000Y-28800000D02*
X33650000Y-28760000D01*
D37*
X40470000Y-32302500D02*
X40382500Y-32302500D01*
D39*
X23800000Y-18360000D02*
X22950000Y-18360000D01*
D37*
X31300000Y-36227500D02*
X30317500Y-36227500D01*
X38906400Y-38050000D02*
X38436400Y-38520000D01*
X27710000Y-26985000D02*
X27710000Y-25920000D01*
X39592500Y-38050000D02*
X38906400Y-38050000D01*
X35797500Y-33167669D02*
X35889831Y-33260000D01*
D38*
X29940000Y-40060000D02*
X29940000Y-41096480D01*
D37*
X37137500Y-21917500D02*
X37070000Y-21850000D01*
D38*
X33650000Y-26600000D02*
X33650000Y-26560000D01*
X33650000Y-25500000D02*
X33650000Y-25460000D01*
D37*
X30470000Y-20930000D02*
X30350000Y-20810000D01*
X31152500Y-33862500D02*
X31250000Y-33960000D01*
X29940000Y-35850000D02*
X30250000Y-36160000D01*
X30300000Y-20760000D02*
X30350000Y-20810000D01*
%TO.N,Net-(C2-Pad2)*%
X31483480Y-23633480D02*
X32220000Y-24370000D01*
X27672500Y-23960000D02*
X30329056Y-23960000D01*
X27382500Y-24250000D02*
X27672500Y-23960000D01*
X30329056Y-23960000D02*
X30655576Y-23633480D01*
X27100000Y-23160000D02*
X27100000Y-24277500D01*
X30655576Y-23633480D02*
X31483480Y-23633480D01*
X27382500Y-24560000D02*
X27382500Y-24250000D01*
X27100000Y-24277500D02*
X27382500Y-24560000D01*
D40*
%TO.N,Net-(C3-Pad1)*%
X26360000Y-19790000D02*
X25690000Y-20460000D01*
D37*
X34345000Y-24245000D02*
X34345000Y-22865000D01*
D40*
X33030000Y-19790000D02*
X33159389Y-19790000D01*
D37*
X25690000Y-20460000D02*
X25312500Y-20460000D01*
X25247500Y-20395000D02*
X25312500Y-20460000D01*
X34470000Y-24370000D02*
X34345000Y-24245000D01*
D40*
X34400000Y-21030611D02*
X34400000Y-22810000D01*
D36*
X25247500Y-19300000D02*
X25247500Y-20395000D01*
D40*
X33030000Y-19790000D02*
X26360000Y-19790000D01*
X33159389Y-19790000D02*
X34400000Y-21030611D01*
D37*
X34345000Y-22865000D02*
X34400000Y-22810000D01*
%TO.N,Net-(C5-Pad1)*%
X33220000Y-32147500D02*
X32287500Y-33080000D01*
X33220000Y-30370000D02*
X33220000Y-32147500D01*
%TO.N,VDD*%
X29252500Y-33057500D02*
X28450000Y-33860000D01*
X40242500Y-24020000D02*
X40242500Y-23232500D01*
X41222500Y-26937500D02*
X41240000Y-26920000D01*
X35832500Y-35140000D02*
X35832500Y-37185000D01*
X36650000Y-31860000D02*
X37220000Y-31290000D01*
X37220000Y-31290000D02*
X37220000Y-30890000D01*
X30950000Y-39860000D02*
X30950000Y-41032980D01*
X32720000Y-30370000D02*
X30032500Y-33057500D01*
X38920000Y-20440000D02*
X40910000Y-20440000D01*
X30575000Y-24660000D02*
X29850000Y-24660000D01*
X41240000Y-26920000D02*
X43360000Y-26920000D01*
X43360000Y-26920000D02*
X45750000Y-29160000D01*
X40930000Y-19580000D02*
X40980000Y-19530000D01*
X30032500Y-33057500D02*
X29940000Y-33057500D01*
X38970000Y-19580000D02*
X40930000Y-19580000D01*
X38720000Y-26870000D02*
X40302500Y-26870000D01*
X36650000Y-34322500D02*
X36650000Y-34430000D01*
X40242500Y-23232500D02*
X40230000Y-23220000D01*
X40370000Y-26937500D02*
X41222500Y-26937500D01*
X36650000Y-34322500D02*
X36650000Y-31860000D01*
X39892500Y-24370000D02*
X40242500Y-24020000D01*
X36650000Y-34322500D02*
X35832500Y-35140000D01*
X29940000Y-33057500D02*
X29252500Y-33057500D01*
X40910000Y-20440000D02*
X40970000Y-20380000D01*
X37220000Y-31290000D02*
X37220000Y-30370000D01*
X35832500Y-37185000D02*
X36487500Y-37840000D01*
X45750000Y-29160000D02*
X47940000Y-29160000D01*
X38720000Y-24370000D02*
X39892500Y-24370000D01*
X32220000Y-24870000D02*
X31595000Y-24870000D01*
X30980000Y-24255000D02*
X30575000Y-24660000D01*
X31595000Y-24870000D02*
X30980000Y-24255000D01*
X40302500Y-26870000D02*
X40370000Y-26937500D01*
X36650000Y-34430000D02*
X36970000Y-34750000D01*
%TO.N,Net-(C9-Pad1)*%
X35720000Y-22932500D02*
X36002500Y-22650000D01*
X35720000Y-23870000D02*
X35720000Y-22932500D01*
%TO.N,DEC4_6*%
X32720000Y-29120000D02*
X32537980Y-28937980D01*
X32347500Y-20930000D02*
X32585114Y-20930000D01*
X26240000Y-28465000D02*
X25300000Y-29405000D01*
X32860000Y-20710000D02*
X32691388Y-20930000D01*
X27710000Y-28120000D02*
X26457500Y-28120000D01*
X31227980Y-28937980D02*
X30410000Y-28120000D01*
X32691388Y-20930000D02*
X32347500Y-20930000D01*
X28630000Y-28120000D02*
X27710000Y-28120000D01*
X28640000Y-27490000D02*
X28630000Y-27500000D01*
X26457500Y-28120000D02*
X26240000Y-27902500D01*
X32585114Y-20930000D02*
X33720000Y-22064886D01*
X28630000Y-27500000D02*
X28630000Y-28120000D01*
X26240000Y-27902500D02*
X26240000Y-28465000D01*
X32537980Y-28937980D02*
X31227980Y-28937980D01*
X33720000Y-22064886D02*
X33720000Y-23870000D01*
X30410000Y-28120000D02*
X28630000Y-28120000D01*
%TO.N,Net-(C11-Pad1)*%
X33340989Y-24240989D02*
X33340989Y-23950989D01*
X33470000Y-24370000D02*
X33340989Y-24240989D01*
X32702500Y-23312500D02*
X32702500Y-22280000D01*
X33340989Y-23950989D02*
X32702500Y-23312500D01*
%TO.N,Net-(C13-Pad1)*%
X31740000Y-25870000D02*
X32220000Y-25870000D01*
X31550000Y-26060000D02*
X31740000Y-25870000D01*
X29850000Y-25660000D02*
X29850000Y-26103469D01*
X29850000Y-26103469D02*
X30706531Y-26960000D01*
X31550000Y-26603469D02*
X31550000Y-26060000D01*
X31193469Y-26960000D02*
X31550000Y-26603469D01*
X30706531Y-26960000D02*
X31193469Y-26960000D01*
%TO.N,Net-(C17-Pad2)*%
X33470000Y-29870000D02*
X33595000Y-29995000D01*
X31300000Y-35092500D02*
X33022500Y-35092500D01*
X33595000Y-29995000D02*
X33595000Y-34520000D01*
X33595000Y-34520000D02*
X33100000Y-35015000D01*
X33022500Y-35092500D02*
X33100000Y-35015000D01*
%TO.N,Net-(C18-Pad2)*%
X33950000Y-30960000D02*
X33950000Y-32560000D01*
X33950000Y-32560000D02*
X34650000Y-33260000D01*
D41*
X33944989Y-29895011D02*
X33944989Y-30954989D01*
X33944989Y-30954989D02*
X33950000Y-30960000D01*
D37*
X34650000Y-35760000D02*
X33100000Y-37310000D01*
X33392500Y-38557500D02*
X33100000Y-38265000D01*
X33100000Y-37310000D02*
X33100000Y-38265000D01*
D41*
X33970000Y-29870000D02*
X33944989Y-29895011D01*
D37*
X34650000Y-33260000D02*
X34650000Y-35760000D01*
X34920000Y-38557500D02*
X33392500Y-38557500D01*
D38*
%TO.N,Net-(J1-Pad3)*%
X31570000Y-27990000D02*
X30920000Y-27990000D01*
X32190000Y-27370000D02*
X31570000Y-27990000D01*
X32220000Y-27370000D02*
X32190000Y-27370000D01*
D37*
%TO.N,Net-(C20-Pad2)*%
X38573361Y-30224020D02*
X38914020Y-30224020D01*
X38914020Y-31940952D02*
X39350000Y-32376932D01*
X39350000Y-33160000D02*
X40520000Y-34330000D01*
X40520000Y-34330000D02*
X40747500Y-34330000D01*
X38914020Y-30224020D02*
X38914020Y-31940952D01*
X38345000Y-29245000D02*
X38345000Y-29995659D01*
X38345000Y-29995659D02*
X38573361Y-30224020D01*
X39350000Y-32376932D02*
X39350000Y-33160000D01*
X38220000Y-29120000D02*
X38345000Y-29245000D01*
D38*
%TO.N,USB_D-*%
X39020000Y-29370000D02*
X39110000Y-29460000D01*
X38720000Y-29370000D02*
X39020000Y-29370000D01*
%TO.N,USB_D+*%
X38720000Y-28870000D02*
X39170000Y-28870000D01*
X39170000Y-28870000D02*
X39410000Y-29110000D01*
D37*
%TO.N,RST*%
X44350000Y-22590000D02*
X44350000Y-20790000D01*
X42940000Y-19380000D02*
X42940000Y-16277020D01*
D38*
X42880000Y-22190000D02*
X43280000Y-22590000D01*
X43280000Y-22590000D02*
X44350000Y-22590000D01*
X38220000Y-27120000D02*
X38220000Y-27120009D01*
D37*
X44350000Y-20790000D02*
X42940000Y-19380000D01*
%TO.N,SWDCLK*%
X39890000Y-17350000D02*
X40270000Y-16970000D01*
X38330000Y-22950000D02*
X38330000Y-21780000D01*
X37720000Y-19340000D02*
X38300000Y-18760000D01*
X37720000Y-23560000D02*
X38330000Y-22950000D01*
X38300000Y-18760000D02*
X39840000Y-18760000D01*
X40270000Y-16970000D02*
X40840000Y-16970000D01*
X40840000Y-16970000D02*
X40840000Y-16250000D01*
X39840000Y-18760000D02*
X39890000Y-18710000D01*
X38330000Y-21780000D02*
X37720000Y-21170000D01*
X37720000Y-21170000D02*
X37720000Y-19340000D01*
X39890000Y-18710000D02*
X39890000Y-17350000D01*
X37720000Y-23870000D02*
X37720000Y-23560000D01*
%TO.N,SWDIO*%
X41250000Y-21730000D02*
X41940000Y-21040000D01*
X40360000Y-21730000D02*
X41250000Y-21730000D01*
X38220000Y-23870000D02*
X40360000Y-21730000D01*
X41940000Y-21040000D02*
X41940000Y-16277020D01*
%TO.N,Net-(L2-Pad2)*%
X26842500Y-30550000D02*
X26902500Y-30490000D01*
X25300000Y-30550000D02*
X26842500Y-30550000D01*
%TO.N,DCC*%
X32720000Y-29620000D02*
X30747500Y-29620000D01*
X30747500Y-29620000D02*
X29877500Y-30490000D01*
%TO.N,Net-(L4-Pad1)*%
X37970000Y-29870000D02*
X37970000Y-30121319D01*
X38508681Y-33201319D02*
X38807500Y-33500138D01*
X38508681Y-30660000D02*
X38508681Y-33201319D01*
X37970000Y-30121319D02*
X38508681Y-30660000D01*
X38807500Y-33500138D02*
X38807500Y-35140000D01*
D38*
%TO.N,Net-(R1-Pad2)*%
X44182500Y-30957500D02*
X44350000Y-30790000D01*
X41750000Y-30957500D02*
X44182500Y-30957500D01*
%TO.N,Net-(J1-Pad8)*%
X34220000Y-30370000D02*
X34377000Y-30527000D01*
X34377000Y-30527000D02*
X34377000Y-31510000D01*
%TO.N,Net-(J1-Pad10)*%
X34845000Y-30495000D02*
X34845000Y-32219068D01*
X34720000Y-30370000D02*
X34845000Y-30495000D01*
X34845000Y-32219068D02*
X34528969Y-32535099D01*
%TO.N,Net-(J1-Pad11)*%
X34970000Y-29870000D02*
X34970000Y-29849193D01*
X34970000Y-29849193D02*
X34969550Y-29848743D01*
%TO.N,Net-(J1-Pad12)*%
X35220000Y-31356950D02*
X35333050Y-31470000D01*
X35220000Y-30370000D02*
X35220000Y-31356950D01*
%TO.N,Net-(J1-Pad14)*%
X36130000Y-31380000D02*
X35720000Y-30835041D01*
X35720000Y-30835041D02*
X35720000Y-30370000D01*
%TO.N,Net-(J1-Pad15)*%
X35970000Y-29870000D02*
X35970003Y-29870000D01*
%TO.N,Net-(J1-Pad16)*%
X36220000Y-30370000D02*
X36220000Y-30422752D01*
X36220000Y-30422752D02*
X36743387Y-30946139D01*
%TO.N,Net-(J2-Pad4)*%
X32720000Y-26620000D02*
X32720000Y-26619991D01*
%TO.N,Net-(J2-Pad3)*%
X31463511Y-27626489D02*
X32220000Y-26870000D01*
X30160000Y-27630000D02*
X30593511Y-27626489D01*
X30593511Y-27626489D02*
X31463511Y-27626489D01*
%TO.N,Net-(J2-Pad2)*%
X32720000Y-27120000D02*
X32720000Y-27119994D01*
%TO.N,Net-(J2-Pad1)*%
X32720000Y-27620000D02*
X32720000Y-27619997D01*
%TO.N,Net-(J1-Pad2)*%
X31597915Y-28370000D02*
X31456935Y-28510980D01*
X32220000Y-28370000D02*
X31597915Y-28370000D01*
%TO.N,Net-(J1-Pad18)*%
X36470000Y-29870000D02*
X36950000Y-29870000D01*
%TO.N,Net-(J2-Pad5)*%
X28406411Y-18735000D02*
X28940000Y-18201411D01*
X29160000Y-27260000D02*
X28400000Y-26500000D01*
X28940000Y-16990000D02*
X28940000Y-16213520D01*
X32220000Y-26370000D02*
X31330000Y-27260000D01*
X28940000Y-18201411D02*
X28940000Y-16213520D01*
X28400000Y-26500000D02*
X28400000Y-26380000D01*
X31330000Y-27260000D02*
X29160000Y-27260000D01*
%TO.N,Net-(J2-Pad6)*%
X32720000Y-26120000D02*
X32720000Y-26119988D01*
%TO.N,Net-(J2-Pad7)*%
X30940000Y-17180000D02*
X30940000Y-16213520D01*
X31360000Y-17600000D02*
X30940000Y-17180000D01*
X32400000Y-17600000D02*
X31360000Y-17600000D01*
X32720000Y-25620000D02*
X32720000Y-25160000D01*
X32720000Y-25160000D02*
X32670000Y-25110000D01*
%TO.N,Net-(J2-Pad8)*%
X32220000Y-25370000D02*
X31620000Y-25370000D01*
%TO.N,Net-(J2-Pad9)*%
X33350000Y-16560000D02*
X33003520Y-16213520D01*
X34720000Y-23870000D02*
X35006020Y-23583980D01*
X35006020Y-19086020D02*
X33350000Y-17430000D01*
X33350000Y-17430000D02*
X33350000Y-16560000D01*
X33003520Y-16213520D02*
X32940000Y-16213520D01*
X35006020Y-23583980D02*
X35006020Y-19086020D01*
%TO.N,Net-(J2-Pad11)*%
X35345000Y-16555000D02*
X35003520Y-16213520D01*
X35345000Y-23745000D02*
X35345000Y-16555000D01*
X35220000Y-23870000D02*
X35345000Y-23745000D01*
%TO.N,Net-(J2-Pad12)*%
X35970000Y-24370000D02*
X35330000Y-24370000D01*
X35330000Y-24370000D02*
X35320000Y-24380000D01*
%TO.N,Net-(J2-Pad13)*%
X36210000Y-23360000D02*
X36533520Y-23036480D01*
X36533520Y-17556480D02*
X36930000Y-17160000D01*
X36220000Y-23370000D02*
X36210000Y-23360000D01*
X36220000Y-23870000D02*
X36220000Y-23370000D01*
X36930000Y-16213520D02*
X36940000Y-16213520D01*
X36930000Y-17160000D02*
X36930000Y-16213520D01*
X36533520Y-23036480D02*
X36533520Y-17556480D01*
%TO.N,Net-(J2-Pad15)*%
X36720000Y-23433500D02*
X36833500Y-23320000D01*
X36720000Y-23870000D02*
X36720000Y-23433500D01*
%TO.N,Net-(J3-Pad1)*%
X38850000Y-24740000D02*
X40260000Y-24740000D01*
X38720000Y-24870000D02*
X38850000Y-24740000D01*
%TO.N,Net-(J3-Pad2)*%
X38220000Y-25120000D02*
X38220000Y-24713282D01*
X38220000Y-24713282D02*
X38238380Y-24694902D01*
D37*
%TO.N,VDDH*%
X37470000Y-29870000D02*
X37595000Y-29995000D01*
X37522500Y-32380000D02*
X37522500Y-36067106D01*
X40122590Y-36692020D02*
X41637020Y-35177590D01*
X46810000Y-30160000D02*
X47940000Y-30160000D01*
X45740000Y-31558620D02*
X45740000Y-31230000D01*
X37595000Y-32307500D02*
X37522500Y-32380000D01*
X41637020Y-33482410D02*
X43102419Y-32017011D01*
X43102419Y-32017011D02*
X45281609Y-32017011D01*
X37595000Y-29995000D02*
X37595000Y-32307500D01*
X45281609Y-32017011D02*
X45740000Y-31558620D01*
X41637020Y-35177590D02*
X41637020Y-33482410D01*
X38147414Y-36692020D02*
X40122590Y-36692020D01*
X37522500Y-36067106D02*
X38147414Y-36692020D01*
X45740000Y-31230000D02*
X46810000Y-30160000D01*
%TO.N,VBUS*%
X39762500Y-29870000D02*
X40470000Y-30577500D01*
X41510000Y-32190000D02*
X41510000Y-32620000D01*
X38720000Y-29870000D02*
X39762500Y-29870000D01*
X41172020Y-31852020D02*
X41510000Y-32190000D01*
X40470000Y-30577500D02*
X41172020Y-31279520D01*
X40470000Y-30577500D02*
X40470000Y-30910000D01*
X41172020Y-31279520D02*
X41172020Y-31852020D01*
D38*
%TO.N,Net-(J3-Pad3)*%
X39323500Y-25370000D02*
X39580718Y-25112782D01*
X38720000Y-25370000D02*
X39323500Y-25370000D01*
%TO.N,Net-(J3-Pad5)*%
X39370000Y-25870000D02*
X39820000Y-26320000D01*
X39820000Y-26320000D02*
X39860000Y-26360000D01*
X38720000Y-25870000D02*
X39370000Y-25870000D01*
X39860000Y-26360000D02*
X41110000Y-26360000D01*
%TO.N,Net-(J3-Pad6)*%
X38220000Y-26120000D02*
X38220000Y-26120003D01*
%TO.N,Net-(J3-Pad7)*%
X39240000Y-26370000D02*
X39250000Y-26380000D01*
X38720000Y-26370000D02*
X39240000Y-26370000D01*
%TO.N,Net-(J3-Pad8)*%
X42120000Y-23150000D02*
X45220000Y-26160000D01*
X45220000Y-26160000D02*
X47940000Y-26160000D01*
X37220000Y-23872647D02*
X37276459Y-23929106D01*
X37220000Y-23870000D02*
X37220000Y-23872647D01*
%TO.N,Net-(J3-Pad9)*%
X37840000Y-24370000D02*
X37850000Y-24380000D01*
X37470000Y-24370000D02*
X37840000Y-24370000D01*
X45490000Y-27160000D02*
X47940000Y-27160000D01*
X41520000Y-23190000D02*
X45490000Y-27160000D01*
%TO.N,Net-(J3-Pad13)*%
X38220000Y-26620000D02*
X38220000Y-26620006D01*
%TO.N,Net-(J3-Pad14)*%
X39836500Y-27370000D02*
X40780000Y-28313500D01*
X38720000Y-27370000D02*
X39836500Y-27370000D01*
%TO.N,Net-(J3-Pad15)*%
X38220000Y-27620000D02*
X38220000Y-27620012D01*
%TO.N,Net-(J3-Pad16)*%
X39225932Y-27870000D02*
X40867966Y-29512034D01*
X38720000Y-27870000D02*
X39225932Y-27870000D01*
%TO.N,Net-(J3-Pad17)*%
X38220000Y-28120000D02*
X38220000Y-28120015D01*
%TO.N,Net-(J3-Pad18)*%
X38720000Y-28370000D02*
X39211864Y-28370000D01*
X39211864Y-28370000D02*
X40090932Y-29249068D01*
%TD*%
M02*
