%TF.GenerationSoftware,KiCad,Pcbnew,(5.99.0-9634-gb691c18bfc)*%
%TF.CreationDate,2021-03-06T19:44:37+01:00*%
%TF.ProjectId,nRF52840Breakout,6e524635-3238-4343-9042-7265616b6f75,rev?*%
%TF.SameCoordinates,Original*%
%TF.FileFunction,Paste,Top*%
%TF.FilePolarity,Positive*%
%FSLAX46Y46*%
G04 Gerber Fmt 4.6, Leading zero omitted, Abs format (unit mm)*
G04 Created by KiCad (PCBNEW (5.99.0-9634-gb691c18bfc)) date 2021-03-06 19:44:37*
%MOMM*%
%LPD*%
G01*
G04 APERTURE LIST*
G04 Aperture macros list*
%AMRoundRect*
0 Rectangle with rounded corners*
0 $1 Rounding radius*
0 $2 $3 $4 $5 $6 $7 $8 $9 X,Y pos of 4 corners*
0 Add a 4 corners polygon primitive as box body*
4,1,4,$2,$3,$4,$5,$6,$7,$8,$9,$2,$3,0*
0 Add four circle primitives for the rounded corners*
1,1,$1+$1,$2,$3*
1,1,$1+$1,$4,$5*
1,1,$1+$1,$6,$7*
1,1,$1+$1,$8,$9*
0 Add four rect primitives between the rounded corners*
20,1,$1+$1,$2,$3,$4,$5,0*
20,1,$1+$1,$4,$5,$6,$7,0*
20,1,$1+$1,$6,$7,$8,$9,0*
20,1,$1+$1,$8,$9,$2,$3,0*%
G04 Aperture macros list end*
%ADD10RoundRect,0.155000X-0.155000X0.212500X-0.155000X-0.212500X0.155000X-0.212500X0.155000X0.212500X0*%
%ADD11RoundRect,0.155000X0.212500X0.155000X-0.212500X0.155000X-0.212500X-0.155000X0.212500X-0.155000X0*%
%ADD12RoundRect,0.237500X0.237500X-0.300000X0.237500X0.300000X-0.237500X0.300000X-0.237500X-0.300000X0*%
%ADD13R,1.500000X2.000000*%
%ADD14RoundRect,0.160000X-0.160000X0.197500X-0.160000X-0.197500X0.160000X-0.197500X0.160000X0.197500X0*%
%ADD15RoundRect,0.160000X-0.222500X-0.160000X0.222500X-0.160000X0.222500X0.160000X-0.222500X0.160000X0*%
%ADD16R,0.750000X0.700000*%
%ADD17RoundRect,0.250001X0.462499X1.074999X-0.462499X1.074999X-0.462499X-1.074999X0.462499X-1.074999X0*%
%ADD18RoundRect,0.250000X-0.412500X-0.650000X0.412500X-0.650000X0.412500X0.650000X-0.412500X0.650000X0*%
%ADD19RoundRect,0.155000X0.155000X-0.212500X0.155000X0.212500X-0.155000X0.212500X-0.155000X-0.212500X0*%
%ADD20RoundRect,0.250000X0.412500X0.650000X-0.412500X0.650000X-0.412500X-0.650000X0.412500X-0.650000X0*%
%ADD21RoundRect,0.160000X0.160000X-0.222500X0.160000X0.222500X-0.160000X0.222500X-0.160000X-0.222500X0*%
%ADD22RoundRect,0.237500X-0.237500X0.300000X-0.237500X-0.300000X0.237500X-0.300000X0.237500X0.300000X0*%
%ADD23RoundRect,0.155000X-0.212500X-0.155000X0.212500X-0.155000X0.212500X0.155000X-0.212500X0.155000X0*%
%ADD24R,1.800000X1.750000*%
%ADD25R,2.000000X2.000000*%
%ADD26C,0.250000*%
%ADD27RoundRect,0.090000X0.139000X0.090000X-0.139000X0.090000X-0.139000X-0.090000X0.139000X-0.090000X0*%
%ADD28RoundRect,0.237500X-0.300000X-0.237500X0.300000X-0.237500X0.300000X0.237500X-0.300000X0.237500X0*%
%ADD29RoundRect,0.237500X0.300000X0.237500X-0.300000X0.237500X-0.300000X-0.237500X0.300000X-0.237500X0*%
G04 APERTURE END LIST*
D10*
%TO.C,C12*%
X13940000Y-8105000D03*
X13940000Y-9240000D03*
%TD*%
D11*
%TO.C,C10*%
X15307500Y-4780000D03*
X14172500Y-4780000D03*
%TD*%
D12*
%TO.C,C21*%
X23430000Y-16152500D03*
X23430000Y-14427500D03*
%TD*%
D13*
%TO.C,SW1*%
X27310000Y-14640000D03*
X27310000Y-6440000D03*
%TD*%
D14*
%TO.C,R1*%
X24710000Y-13612500D03*
X24710000Y-14807500D03*
%TD*%
D15*
%TO.C,L1*%
X7127500Y-4310000D03*
X8272500Y-4310000D03*
%TD*%
D16*
%TO.C,X1*%
X11410000Y-6010000D03*
X10060000Y-6010000D03*
X10060000Y-7010000D03*
X11410000Y-7010000D03*
%TD*%
D17*
%TO.C,L2*%
X12837500Y-14340000D03*
X9862500Y-14340000D03*
%TD*%
D18*
%TO.C,C6*%
X19427500Y-21900000D03*
X22552500Y-21900000D03*
%TD*%
D19*
%TO.C,C7*%
X23330000Y-10787500D03*
X23330000Y-9652500D03*
%TD*%
D20*
%TO.C,C20*%
X26832500Y-18180000D03*
X23707500Y-18180000D03*
%TD*%
D11*
%TO.C,C1*%
X12477500Y-4610000D03*
X11342500Y-4610000D03*
%TD*%
D17*
%TO.C,L4*%
X21767500Y-18990000D03*
X18792500Y-18990000D03*
%TD*%
D21*
%TO.C,L3*%
X8260000Y-14400000D03*
X8260000Y-13255000D03*
%TD*%
D12*
%TO.C,C15*%
X9200000Y-11752500D03*
X9200000Y-10027500D03*
%TD*%
D19*
%TO.C,C16*%
X10670000Y-11970000D03*
X10670000Y-10835000D03*
%TD*%
D22*
%TO.C,C14*%
X12900000Y-16907500D03*
X12900000Y-18632500D03*
%TD*%
D23*
%TO.C,C9*%
X18962500Y-6500000D03*
X20097500Y-6500000D03*
%TD*%
D24*
%TO.C,X2*%
X16060000Y-22115000D03*
X16060000Y-18865000D03*
%TD*%
D25*
%TO.C,U1*%
X17217500Y-12182500D03*
X17217500Y-9757500D03*
X19642500Y-12182500D03*
X19642500Y-9757500D03*
D26*
X15180000Y-12220000D03*
X15180000Y-11720000D03*
X15180000Y-11220000D03*
X15180000Y-10720000D03*
X15180000Y-10220000D03*
X15180000Y-9720000D03*
X15180000Y-9220000D03*
X15180000Y-8720000D03*
X15180000Y-8220000D03*
X20680000Y-7720000D03*
X20930000Y-13720000D03*
X21180000Y-12970000D03*
X21180000Y-11970000D03*
X21180000Y-11470000D03*
X21180000Y-10970000D03*
X21180000Y-10470000D03*
X21180000Y-9970000D03*
X21180000Y-9470000D03*
X21180000Y-8970000D03*
X21180000Y-7720000D03*
X21680000Y-13720000D03*
X21680000Y-13220000D03*
X21680000Y-12720000D03*
X21680000Y-12220000D03*
X21680000Y-11720000D03*
X21680000Y-11220000D03*
X21680000Y-10720000D03*
X21680000Y-10220000D03*
X21680000Y-9720000D03*
X21680000Y-9220000D03*
X21680000Y-8720000D03*
X21680000Y-8220000D03*
X15680000Y-14220000D03*
X15680000Y-13470000D03*
X15680000Y-12970000D03*
X15680000Y-12470000D03*
X15680000Y-11970000D03*
X15680000Y-11470000D03*
X15680000Y-10970000D03*
X15680000Y-10470000D03*
X15680000Y-9970000D03*
X15680000Y-9470000D03*
X15680000Y-7720000D03*
X16180000Y-14220000D03*
X16430000Y-13720000D03*
X16430000Y-8220000D03*
X16680000Y-7720000D03*
X16930000Y-13720000D03*
X16930000Y-8220000D03*
X17180000Y-14220000D03*
X17430000Y-13720000D03*
X17430000Y-8220000D03*
X17680000Y-14220000D03*
X17680000Y-7720000D03*
X17930000Y-13720000D03*
X18180000Y-14220000D03*
X18180000Y-7720000D03*
X18430000Y-13720000D03*
X18680000Y-14220000D03*
X18680000Y-7720000D03*
X18930000Y-13720000D03*
X18930000Y-8220000D03*
X19180000Y-14220000D03*
X19180000Y-7720000D03*
X19430000Y-13720000D03*
X19430000Y-8220000D03*
X19680000Y-14220000D03*
X19680000Y-7720000D03*
X19930000Y-8220000D03*
X20180000Y-14220000D03*
X20180000Y-7720000D03*
X20430000Y-13720000D03*
X20430000Y-8220000D03*
%TD*%
D27*
%TO.C,C3*%
X8232500Y-3150000D03*
X7367500Y-3150000D03*
%TD*%
D28*
%TO.C,C19*%
X18757500Y-16230000D03*
X20482500Y-16230000D03*
%TD*%
D11*
%TO.C,C5*%
X15375000Y-16930000D03*
X14240000Y-16930000D03*
%TD*%
%TO.C,C2*%
X11477500Y-8410000D03*
X10342500Y-8410000D03*
%TD*%
D29*
%TO.C,C11*%
X15662500Y-6130000D03*
X13937500Y-6130000D03*
%TD*%
D10*
%TO.C,C18*%
X17880000Y-21272500D03*
X17880000Y-22407500D03*
%TD*%
D11*
%TO.C,C13*%
X12810000Y-9510000D03*
X11675000Y-9510000D03*
%TD*%
D23*
%TO.C,C8*%
X23202500Y-7870000D03*
X24337500Y-7870000D03*
%TD*%
D19*
%TO.C,C17*%
X14260000Y-20077500D03*
X14260000Y-18942500D03*
%TD*%
M02*
