%TF.GenerationSoftware,KiCad,Pcbnew,(5.99.0-9634-gb691c18bfc)*%
%TF.CreationDate,2021-03-09T19:13:23+01:00*%
%TF.ProjectId,nRF52840Breakout,6e524635-3238-4343-9042-7265616b6f75,rev?*%
%TF.SameCoordinates,Original*%
%TF.FileFunction,Copper,L3,Inr*%
%TF.FilePolarity,Positive*%
%FSLAX46Y46*%
G04 Gerber Fmt 4.6, Leading zero omitted, Abs format (unit mm)*
G04 Created by KiCad (PCBNEW (5.99.0-9634-gb691c18bfc)) date 2021-03-09 19:13:23*
%MOMM*%
%LPD*%
G01*
G04 APERTURE LIST*
%TA.AperFunction,ComponentPad*%
%ADD10R,0.600000X0.800000*%
%TD*%
%TA.AperFunction,ComponentPad*%
%ADD11R,0.800000X0.600000*%
%TD*%
%TA.AperFunction,ComponentPad*%
%ADD12R,0.500000X0.900000*%
%TD*%
%TA.AperFunction,ViaPad*%
%ADD13C,0.685800*%
%TD*%
%TA.AperFunction,ViaPad*%
%ADD14C,0.400000*%
%TD*%
%TA.AperFunction,Conductor*%
%ADD15C,0.127000*%
%TD*%
G04 APERTURE END LIST*
D10*
%TO.N,Net-(J2-Pad1)*%
%TO.C,J2*%
X24940000Y-16150000D03*
%TO.N,Net-(J2-Pad2)*%
X25940000Y-16150000D03*
%TO.N,Net-(J2-Pad3)*%
X26940000Y-16150000D03*
%TO.N,Net-(J2-Pad4)*%
X27940000Y-16150000D03*
%TO.N,Net-(J2-Pad5)*%
X28940000Y-16150000D03*
%TO.N,Net-(J2-Pad6)*%
X29940000Y-16150000D03*
%TO.N,Net-(J2-Pad7)*%
X30940000Y-16150000D03*
%TO.N,Net-(J2-Pad8)*%
X31940000Y-16150000D03*
%TO.N,Net-(J2-Pad9)*%
X32940000Y-16150000D03*
%TO.N,GND*%
X33940000Y-16150000D03*
%TO.N,Net-(J2-Pad11)*%
X34940000Y-16150000D03*
%TO.N,Net-(J2-Pad12)*%
X35940000Y-16150000D03*
%TO.N,Net-(J2-Pad13)*%
X36940000Y-16150000D03*
%TO.N,Net-(J2-Pad14)*%
X37940000Y-16150000D03*
%TO.N,Net-(J2-Pad15)*%
X38940000Y-16150000D03*
%TO.N,Net-(J2-Pad16)*%
X39940000Y-16150000D03*
%TO.N,SWDCLK*%
X40940000Y-16150000D03*
%TO.N,SWDIO*%
X41940000Y-16150000D03*
%TO.N,RST*%
X42940000Y-16150000D03*
%TO.N,GND*%
X43940000Y-16150000D03*
%TD*%
D11*
%TO.N,Net-(J3-Pad1)*%
%TO.C,J3*%
X47940000Y-19160000D03*
%TO.N,Net-(J3-Pad2)*%
X47940000Y-20160000D03*
%TO.N,Net-(J3-Pad3)*%
X47940000Y-21160000D03*
%TO.N,Net-(J3-Pad4)*%
X47940000Y-22160000D03*
%TO.N,Net-(J3-Pad5)*%
X47940000Y-23160000D03*
%TO.N,Net-(J3-Pad6)*%
X47940000Y-24160000D03*
%TO.N,Net-(J3-Pad7)*%
X47940000Y-25160000D03*
%TO.N,Net-(J3-Pad8)*%
X47940000Y-26160000D03*
%TO.N,Net-(J3-Pad9)*%
X47940000Y-27160000D03*
%TO.N,GND*%
X47940000Y-28160000D03*
%TO.N,VDD*%
X47940000Y-29160000D03*
%TO.N,VDDH*%
X47940000Y-30160000D03*
%TO.N,Net-(J3-Pad13)*%
X47940000Y-31160000D03*
%TO.N,Net-(J3-Pad14)*%
X47940000Y-32160000D03*
%TO.N,Net-(J3-Pad15)*%
X47940000Y-33160000D03*
%TO.N,Net-(J3-Pad16)*%
X47940000Y-34160000D03*
%TO.N,Net-(J3-Pad17)*%
X47940000Y-35160000D03*
%TO.N,Net-(J3-Pad18)*%
X47940000Y-36160000D03*
%TO.N,USB_D+*%
X47940000Y-37160000D03*
%TO.N,USB_D-*%
X47940000Y-38160000D03*
%TD*%
D12*
%TO.N,N/C*%
%TO.C,AE1*%
X22950000Y-18360000D03*
%TD*%
D10*
%TO.N,GND*%
%TO.C,J1*%
X24950000Y-41160000D03*
%TO.N,Net-(J1-Pad2)*%
X25950000Y-41160000D03*
%TO.N,Net-(J1-Pad3)*%
X26950000Y-41160000D03*
%TO.N,Net-(J1-Pad4)*%
X27950000Y-41160000D03*
%TO.N,Net-(J1-Pad5)*%
X28950000Y-41160000D03*
%TO.N,GND*%
X29950000Y-41160000D03*
%TO.N,VDD*%
X30950000Y-41160000D03*
%TO.N,Net-(J1-Pad8)*%
X31950000Y-41160000D03*
%TO.N,Net-(J1-Pad9)*%
X32950000Y-41160000D03*
%TO.N,Net-(J1-Pad10)*%
X33950000Y-41160000D03*
%TO.N,Net-(J1-Pad11)*%
X34950000Y-41160000D03*
%TO.N,Net-(J1-Pad12)*%
X35950000Y-41160000D03*
%TO.N,Net-(J1-Pad13)*%
X36950000Y-41160000D03*
%TO.N,Net-(J1-Pad14)*%
X37950000Y-41160000D03*
%TO.N,Net-(J1-Pad15)*%
X38950000Y-41160000D03*
%TO.N,Net-(J1-Pad16)*%
X39950000Y-41160000D03*
%TO.N,Net-(J1-Pad17)*%
X40950000Y-41160000D03*
%TO.N,Net-(J1-Pad18)*%
X41950000Y-41160000D03*
%TO.N,VBUS*%
X42950000Y-41160000D03*
%TO.N,GND*%
X43950000Y-41160000D03*
%TD*%
D13*
%TO.N,GND*%
X37350000Y-26560000D03*
X30250000Y-36160000D03*
X34850000Y-28760000D03*
D14*
X37070000Y-21850000D03*
D13*
X36150000Y-27660000D03*
X33650000Y-25460000D03*
X35889831Y-33260000D03*
X43960000Y-17340000D03*
X34850000Y-27660000D03*
X36150000Y-28760000D03*
X46720000Y-28180000D03*
X34850000Y-25460000D03*
D14*
X29940000Y-40060000D03*
D13*
X33650000Y-28760000D03*
X23800000Y-18360000D03*
X31377500Y-33960000D03*
D14*
X24940000Y-40090000D03*
X41750000Y-28740000D03*
D13*
X44430000Y-36280000D03*
X39550000Y-31470000D03*
X33950000Y-17220000D03*
X34850000Y-26560000D03*
X27550000Y-25760000D03*
X36150000Y-26560000D03*
X37350000Y-28760000D03*
X30950000Y-26360000D03*
X33650000Y-27660000D03*
X38436400Y-38520000D03*
D14*
X30350000Y-20810000D03*
D13*
X33650000Y-26560000D03*
X36150000Y-25460000D03*
X37350000Y-25460000D03*
X34650000Y-36660000D03*
X37350000Y-27660000D03*
X43940000Y-40000000D03*
D14*
X41280000Y-25070000D03*
D13*
%TO.N,VDD*%
X38920000Y-20440000D03*
X30950000Y-39860000D03*
X40980000Y-19530000D03*
X40970000Y-20380000D03*
D14*
X40230000Y-23220000D03*
D13*
X40940000Y-17910000D03*
X28450000Y-33860000D03*
X29850000Y-24660000D03*
D14*
X41240000Y-26920000D03*
D13*
X38950000Y-17910000D03*
X38970000Y-19580000D03*
D14*
X36970000Y-34750000D03*
D13*
%TO.N,DEC4_6*%
X28640000Y-27490000D03*
X32860000Y-20710000D03*
D14*
%TO.N,Net-(J1-Pad3)*%
X30920000Y-27990000D03*
%TO.N,Net-(J1-Pad5)*%
X32720000Y-28120000D03*
%TO.N,USB_D-*%
X39031113Y-29436263D03*
%TO.N,USB_D+*%
X39410000Y-29110000D03*
%TO.N,RST*%
X38220000Y-27120009D03*
X42880000Y-22190000D03*
%TO.N,Net-(J1-Pad8)*%
X34377000Y-31510000D03*
%TO.N,Net-(J1-Pad9)*%
X34470000Y-29870000D03*
%TO.N,Net-(J1-Pad10)*%
X34528969Y-32535099D03*
%TO.N,Net-(J1-Pad11)*%
X34969550Y-29848743D03*
%TO.N,Net-(J1-Pad12)*%
X35333050Y-31470000D03*
%TO.N,Net-(J1-Pad13)*%
X35470000Y-29870000D03*
%TO.N,Net-(J1-Pad14)*%
X36130000Y-31380000D03*
%TO.N,Net-(J1-Pad15)*%
X35970003Y-29870000D03*
%TO.N,Net-(J1-Pad16)*%
X36743387Y-30946139D03*
%TO.N,Net-(J2-Pad4)*%
X32720000Y-26619991D03*
%TO.N,Net-(J2-Pad3)*%
X30160000Y-27630000D03*
%TO.N,Net-(J2-Pad2)*%
X32720000Y-27119994D03*
%TO.N,Net-(J2-Pad1)*%
X32720000Y-27619997D03*
%TO.N,Net-(J1-Pad2)*%
X31456935Y-28510980D03*
%TO.N,Net-(J1-Pad17)*%
X36720000Y-30370000D03*
%TO.N,Net-(J1-Pad18)*%
X36950000Y-29870000D03*
%TO.N,Net-(J1-Pad4)*%
X32220000Y-27870000D03*
%TO.N,Net-(J2-Pad5)*%
X28406411Y-18735000D03*
X28400000Y-26380000D03*
%TO.N,Net-(J2-Pad6)*%
X32720000Y-26119988D03*
%TO.N,Net-(J2-Pad7)*%
X32400000Y-17600000D03*
X32670000Y-25110000D03*
%TO.N,Net-(J2-Pad8)*%
X31620000Y-25370000D03*
%TO.N,Net-(J2-Pad12)*%
X35320000Y-24380000D03*
%TO.N,Net-(J2-Pad14)*%
X36470000Y-24370000D03*
%TO.N,Net-(J2-Pad15)*%
X36833500Y-23320000D03*
%TO.N,Net-(J2-Pad16)*%
X36970000Y-24370000D03*
%TO.N,Net-(J3-Pad1)*%
X40260000Y-24740000D03*
%TO.N,Net-(J3-Pad2)*%
X38238380Y-24694902D03*
D13*
%TO.N,VBUS*%
X41510000Y-32620000D03*
D14*
%TO.N,Net-(J3-Pad3)*%
X39580718Y-25112782D03*
%TO.N,Net-(J3-Pad4)*%
X38220000Y-25620000D03*
%TO.N,Net-(J3-Pad5)*%
X41110000Y-26360000D03*
%TO.N,Net-(J3-Pad6)*%
X38220000Y-26120003D03*
%TO.N,Net-(J3-Pad7)*%
X39250000Y-26380000D03*
%TO.N,Net-(J3-Pad8)*%
X37276459Y-23929106D03*
X42120000Y-23150000D03*
%TO.N,Net-(J3-Pad9)*%
X41520000Y-23190000D03*
X37850000Y-24380000D03*
%TO.N,Net-(J3-Pad13)*%
X38220000Y-26620006D03*
%TO.N,Net-(J3-Pad14)*%
X40780000Y-28313500D03*
%TO.N,Net-(J3-Pad15)*%
X38220000Y-27620012D03*
%TO.N,Net-(J3-Pad16)*%
X40867966Y-29512034D03*
%TO.N,Net-(J3-Pad17)*%
X38220000Y-28120015D03*
%TO.N,Net-(J3-Pad18)*%
X40090932Y-29249068D03*
%TD*%
D15*
%TO.N,RST*%
X39040966Y-27120009D02*
X40916489Y-25244486D01*
X42880000Y-22932003D02*
X42880000Y-22190000D01*
X38220000Y-27120009D02*
X39040966Y-27120009D01*
X40916489Y-24895514D02*
X42880000Y-22932003D01*
X40916489Y-25244486D02*
X40916489Y-24895514D01*
%TO.N,Net-(J2-Pad4)*%
X28769922Y-18139922D02*
X27940000Y-17310000D01*
X32720000Y-26619991D02*
X31439498Y-26619991D01*
X31193078Y-26866411D02*
X30706922Y-26866411D01*
X28769922Y-24929411D02*
X28769922Y-18139922D01*
X30706922Y-26866411D02*
X28769922Y-24929411D01*
X31439498Y-26619991D02*
X31193078Y-26866411D01*
X27940000Y-17310000D02*
X27940000Y-16213520D01*
%TO.N,Net-(J2-Pad2)*%
X26230000Y-16440000D02*
X26003520Y-16213520D01*
X26656489Y-26896489D02*
X26230000Y-26470000D01*
X29019483Y-27119994D02*
X28795978Y-26896489D01*
X26230000Y-26470000D02*
X26230000Y-16440000D01*
X28795978Y-26896489D02*
X26656489Y-26896489D01*
X32720000Y-27119994D02*
X29019483Y-27119994D01*
%TO.N,Net-(J2-Pad1)*%
X31664486Y-27763511D02*
X31315514Y-27763511D01*
X31921508Y-27506489D02*
X31664486Y-27763511D01*
X32606492Y-27506489D02*
X31921508Y-27506489D01*
X31315514Y-27763511D02*
X31315514Y-28132483D01*
X25240000Y-16450000D02*
X25003520Y-16213520D01*
X32720000Y-27619997D02*
X32606492Y-27506489D01*
X26253511Y-28353511D02*
X25240000Y-27340000D01*
X25240000Y-27340000D02*
X25240000Y-16450000D01*
X31315514Y-28132483D02*
X31094486Y-28353511D01*
X31094486Y-28353511D02*
X26253511Y-28353511D01*
%TO.N,Net-(J2-Pad5)*%
X28400000Y-26138589D02*
X28400000Y-26380000D01*
X28400000Y-18741411D02*
X28400000Y-26380000D01*
%TO.N,Net-(J2-Pad6)*%
X29343589Y-25133589D02*
X29343589Y-17906411D01*
X29940000Y-17310000D02*
X29940000Y-16213520D01*
X29730000Y-25520000D02*
X29343589Y-25133589D01*
X29343589Y-17906411D02*
X29940000Y-17310000D01*
X30930000Y-25520000D02*
X29730000Y-25520000D01*
X31529988Y-26119988D02*
X30930000Y-25520000D01*
X32720000Y-26119988D02*
X31529988Y-26119988D01*
%TO.N,Net-(J2-Pad16)*%
X36640000Y-23810000D02*
X36766489Y-23683511D01*
X36640000Y-23990000D02*
X36640000Y-23810000D01*
X36833511Y-24183511D02*
X36640000Y-23990000D01*
X37660000Y-23080000D02*
X39940000Y-20800000D01*
X36970000Y-24370000D02*
X36833511Y-24233511D01*
X39940000Y-20800000D02*
X39940000Y-20570000D01*
X36833511Y-24233511D02*
X36833511Y-24183511D01*
X39940000Y-20800000D02*
X39940000Y-16213520D01*
X37007986Y-23683511D02*
X37611497Y-23080000D01*
X37611497Y-23080000D02*
X37660000Y-23080000D01*
X36766489Y-23683511D02*
X37007986Y-23683511D01*
%TD*%
%TA.AperFunction,Conductor*%
%TO.N,VDD*%
G36*
X47804040Y-16012751D02*
G01*
X47872154Y-16032775D01*
X47918630Y-16086445D01*
X47930000Y-16138751D01*
X47930000Y-18220500D01*
X47909998Y-18288621D01*
X47856342Y-18335114D01*
X47804000Y-18346500D01*
X47540000Y-18346500D01*
X47466921Y-18351727D01*
X47418383Y-18365979D01*
X47335330Y-18390365D01*
X47335328Y-18390366D01*
X47326684Y-18392904D01*
X47307998Y-18404913D01*
X47211309Y-18467051D01*
X47211306Y-18467053D01*
X47203729Y-18471923D01*
X47197828Y-18478733D01*
X47113918Y-18575569D01*
X47113916Y-18575572D01*
X47108016Y-18582381D01*
X47047300Y-18715330D01*
X47046018Y-18724245D01*
X47046018Y-18724246D01*
X47027139Y-18855552D01*
X47027138Y-18855559D01*
X47026500Y-18860000D01*
X47026500Y-19460000D01*
X47031727Y-19533079D01*
X47033631Y-19539562D01*
X47057153Y-19619672D01*
X47057153Y-19690668D01*
X47051161Y-19706734D01*
X47051044Y-19707131D01*
X47047300Y-19715330D01*
X47046018Y-19724247D01*
X47027139Y-19855552D01*
X47027138Y-19855559D01*
X47026500Y-19860000D01*
X47026500Y-20460000D01*
X47031727Y-20533079D01*
X47057153Y-20619672D01*
X47057153Y-20690668D01*
X47051161Y-20706734D01*
X47051044Y-20707131D01*
X47047300Y-20715330D01*
X47046018Y-20724247D01*
X47027139Y-20855552D01*
X47027138Y-20855559D01*
X47026500Y-20860000D01*
X47026500Y-21460000D01*
X47031727Y-21533079D01*
X47057153Y-21619672D01*
X47057153Y-21690668D01*
X47051161Y-21706734D01*
X47051044Y-21707131D01*
X47047300Y-21715330D01*
X47046018Y-21724247D01*
X47027139Y-21855552D01*
X47027138Y-21855559D01*
X47026500Y-21860000D01*
X47026500Y-22460000D01*
X47031727Y-22533079D01*
X47054674Y-22611229D01*
X47057153Y-22619672D01*
X47057153Y-22690668D01*
X47051161Y-22706734D01*
X47051044Y-22707131D01*
X47047300Y-22715330D01*
X47046018Y-22724247D01*
X47027139Y-22855552D01*
X47027138Y-22855559D01*
X47026500Y-22860000D01*
X47026500Y-23460000D01*
X47031727Y-23533079D01*
X47050949Y-23598544D01*
X47057153Y-23619672D01*
X47057153Y-23690668D01*
X47051161Y-23706734D01*
X47051044Y-23707131D01*
X47047300Y-23715330D01*
X47046018Y-23724247D01*
X47027139Y-23855552D01*
X47027138Y-23855559D01*
X47026500Y-23860000D01*
X47026500Y-24460000D01*
X47031727Y-24533079D01*
X47034619Y-24542928D01*
X47057153Y-24619672D01*
X47057153Y-24690668D01*
X47051161Y-24706734D01*
X47051044Y-24707131D01*
X47047300Y-24715330D01*
X47046018Y-24724247D01*
X47027139Y-24855552D01*
X47027138Y-24855559D01*
X47026500Y-24860000D01*
X47026500Y-25460000D01*
X47031727Y-25533079D01*
X47045210Y-25578998D01*
X47057153Y-25619672D01*
X47057153Y-25690668D01*
X47051161Y-25706734D01*
X47051044Y-25707131D01*
X47047300Y-25715330D01*
X47046018Y-25724247D01*
X47027139Y-25855552D01*
X47027138Y-25855559D01*
X47026500Y-25860000D01*
X47026500Y-26460000D01*
X47031727Y-26533079D01*
X47037200Y-26551718D01*
X47057153Y-26619672D01*
X47057153Y-26690668D01*
X47051161Y-26706734D01*
X47051044Y-26707131D01*
X47047300Y-26715330D01*
X47046018Y-26724247D01*
X47027139Y-26855552D01*
X47027138Y-26855559D01*
X47026500Y-26860000D01*
X47026500Y-27219188D01*
X47006498Y-27287309D01*
X46952842Y-27333802D01*
X46879920Y-27343496D01*
X46821366Y-27333802D01*
X46774542Y-27326050D01*
X46774540Y-27326050D01*
X46767806Y-27324935D01*
X46760990Y-27325292D01*
X46760986Y-27325292D01*
X46640426Y-27331611D01*
X46583078Y-27334617D01*
X46576500Y-27336429D01*
X46576499Y-27336429D01*
X46411315Y-27381927D01*
X46411311Y-27381928D01*
X46404738Y-27383739D01*
X46398707Y-27386919D01*
X46398704Y-27386920D01*
X46381130Y-27396186D01*
X46241107Y-27470012D01*
X46235894Y-27474417D01*
X46235890Y-27474420D01*
X46105033Y-27585003D01*
X46105029Y-27585007D01*
X46099819Y-27589410D01*
X46095672Y-27594833D01*
X46095671Y-27594835D01*
X45991610Y-27730941D01*
X45991607Y-27730945D01*
X45987466Y-27736362D01*
X45909290Y-27904012D01*
X45868937Y-28084538D01*
X45868913Y-28091367D01*
X45868913Y-28091368D01*
X45868827Y-28115922D01*
X45868291Y-28269518D01*
X45869734Y-28276191D01*
X45869734Y-28276193D01*
X45899768Y-28415101D01*
X45907383Y-28450322D01*
X45984387Y-28618514D01*
X45988491Y-28623960D01*
X45988492Y-28623962D01*
X46042511Y-28695647D01*
X46095711Y-28766246D01*
X46100890Y-28770685D01*
X46100891Y-28770686D01*
X46190694Y-28847656D01*
X46236162Y-28886627D01*
X46308681Y-28925511D01*
X46393170Y-28970814D01*
X46393172Y-28970815D01*
X46399187Y-28974040D01*
X46405755Y-28975899D01*
X46405756Y-28975899D01*
X46504253Y-29003771D01*
X46577179Y-29024407D01*
X46583987Y-29024811D01*
X46583990Y-29024812D01*
X46736958Y-29033900D01*
X46761835Y-29035378D01*
X46842833Y-29022549D01*
X46937805Y-29007507D01*
X46937809Y-29007506D01*
X46944539Y-29006440D01*
X46950885Y-29003953D01*
X46950889Y-29003952D01*
X47110412Y-28941436D01*
X47110416Y-28941434D01*
X47116767Y-28938945D01*
X47122434Y-28935151D01*
X47122442Y-28935147D01*
X47134169Y-28927296D01*
X47204262Y-28906000D01*
X47265663Y-28906000D01*
X47318006Y-28917387D01*
X47387133Y-28948957D01*
X47387136Y-28948958D01*
X47395330Y-28952700D01*
X47404247Y-28953982D01*
X47535552Y-28972861D01*
X47535559Y-28972862D01*
X47540000Y-28973500D01*
X47930000Y-28973500D01*
X47930000Y-29346500D01*
X47540000Y-29346500D01*
X47466921Y-29351727D01*
X47413884Y-29367300D01*
X47335330Y-29390365D01*
X47335328Y-29390366D01*
X47326684Y-29392904D01*
X47319105Y-29397775D01*
X47310904Y-29401520D01*
X47309539Y-29398530D01*
X47256861Y-29414000D01*
X47045115Y-29414000D01*
X47029876Y-29418475D01*
X47028671Y-29419865D01*
X47027000Y-29427548D01*
X47027000Y-29457743D01*
X47027161Y-29462250D01*
X47031740Y-29526269D01*
X47034125Y-29539488D01*
X47057467Y-29618983D01*
X47057467Y-29689980D01*
X47051182Y-29706829D01*
X47047300Y-29715330D01*
X47046018Y-29724245D01*
X47046018Y-29724246D01*
X47027139Y-29855552D01*
X47027138Y-29855559D01*
X47026500Y-29860000D01*
X47026500Y-30460000D01*
X47031727Y-30533079D01*
X47057153Y-30619672D01*
X47057153Y-30690668D01*
X47051161Y-30706734D01*
X47051044Y-30707131D01*
X47047300Y-30715330D01*
X47046018Y-30724247D01*
X47027139Y-30855552D01*
X47027138Y-30855559D01*
X47026500Y-30860000D01*
X47026500Y-31460000D01*
X47031727Y-31533079D01*
X47057000Y-31619152D01*
X47057153Y-31619672D01*
X47057153Y-31690668D01*
X47051161Y-31706734D01*
X47051044Y-31707131D01*
X47047300Y-31715330D01*
X47046018Y-31724247D01*
X47027139Y-31855552D01*
X47027138Y-31855559D01*
X47026500Y-31860000D01*
X47026500Y-32460000D01*
X47031727Y-32533079D01*
X47052546Y-32603981D01*
X47057153Y-32619672D01*
X47057153Y-32690668D01*
X47051161Y-32706734D01*
X47051044Y-32707131D01*
X47047300Y-32715330D01*
X47046018Y-32724247D01*
X47027139Y-32855552D01*
X47027138Y-32855559D01*
X47026500Y-32860000D01*
X47026500Y-33460000D01*
X47031727Y-33533079D01*
X47051606Y-33600781D01*
X47057153Y-33619672D01*
X47057153Y-33690668D01*
X47051161Y-33706734D01*
X47051044Y-33707131D01*
X47047300Y-33715330D01*
X47046018Y-33724247D01*
X47027139Y-33855552D01*
X47027138Y-33855559D01*
X47026500Y-33860000D01*
X47026500Y-34460000D01*
X47031727Y-34533079D01*
X47057153Y-34619672D01*
X47057153Y-34690668D01*
X47051161Y-34706734D01*
X47051044Y-34707131D01*
X47047300Y-34715330D01*
X47046018Y-34724247D01*
X47027139Y-34855552D01*
X47027138Y-34855559D01*
X47026500Y-34860000D01*
X47026500Y-35460000D01*
X47031727Y-35533079D01*
X47043866Y-35574420D01*
X47057153Y-35619672D01*
X47057153Y-35690668D01*
X47051161Y-35706734D01*
X47051044Y-35707131D01*
X47047300Y-35715330D01*
X47046018Y-35724247D01*
X47027139Y-35855552D01*
X47027138Y-35855559D01*
X47026500Y-35860000D01*
X47026500Y-36460000D01*
X47031727Y-36533079D01*
X47052540Y-36603962D01*
X47057153Y-36619672D01*
X47057153Y-36690668D01*
X47051161Y-36706734D01*
X47051044Y-36707131D01*
X47047300Y-36715330D01*
X47046018Y-36724247D01*
X47027139Y-36855552D01*
X47027138Y-36855559D01*
X47026500Y-36860000D01*
X47026500Y-37460000D01*
X47031727Y-37533079D01*
X47033631Y-37539562D01*
X47057153Y-37619672D01*
X47057153Y-37690668D01*
X47051161Y-37706734D01*
X47051044Y-37707131D01*
X47047300Y-37715330D01*
X47046018Y-37724247D01*
X47027139Y-37855552D01*
X47027138Y-37855559D01*
X47026500Y-37860000D01*
X47026500Y-38460000D01*
X47031727Y-38533079D01*
X47072904Y-38673316D01*
X47077775Y-38680895D01*
X47147051Y-38788691D01*
X47147053Y-38788694D01*
X47151923Y-38796271D01*
X47158733Y-38802172D01*
X47255569Y-38886082D01*
X47255572Y-38886084D01*
X47262381Y-38891984D01*
X47395330Y-38952700D01*
X47404245Y-38953982D01*
X47404246Y-38953982D01*
X47535552Y-38972861D01*
X47535559Y-38972862D01*
X47540000Y-38973500D01*
X47804000Y-38973500D01*
X47872121Y-38993502D01*
X47918614Y-39047158D01*
X47930000Y-39099500D01*
X47930000Y-41266000D01*
X47909998Y-41334121D01*
X47856342Y-41380614D01*
X47804000Y-41392000D01*
X44889500Y-41392000D01*
X44821379Y-41371998D01*
X44774886Y-41318342D01*
X44763500Y-41266000D01*
X44763500Y-40760000D01*
X44758273Y-40686921D01*
X44717096Y-40546684D01*
X44701647Y-40522645D01*
X44681645Y-40454524D01*
X44700096Y-40388880D01*
X44714894Y-40364637D01*
X44719501Y-40351257D01*
X44772895Y-40196191D01*
X44772896Y-40196188D01*
X44775118Y-40189734D01*
X44777073Y-40172842D01*
X44795975Y-40009471D01*
X44795975Y-40009470D01*
X44796379Y-40005979D01*
X44796400Y-40000000D01*
X44776422Y-39816101D01*
X44717421Y-39640781D01*
X44622148Y-39482221D01*
X44615198Y-39474871D01*
X44528320Y-39383001D01*
X44495050Y-39347819D01*
X44409990Y-39290012D01*
X44347698Y-39247679D01*
X44342055Y-39243844D01*
X44335725Y-39241312D01*
X44335721Y-39241310D01*
X44176641Y-39177683D01*
X44170303Y-39175148D01*
X44163573Y-39174034D01*
X44163570Y-39174033D01*
X43994543Y-39146050D01*
X43994540Y-39146050D01*
X43987806Y-39144935D01*
X43980990Y-39145292D01*
X43980986Y-39145292D01*
X43860426Y-39151611D01*
X43803078Y-39154617D01*
X43796500Y-39156429D01*
X43796499Y-39156429D01*
X43631315Y-39201927D01*
X43631311Y-39201928D01*
X43624738Y-39203739D01*
X43618707Y-39206919D01*
X43618704Y-39206920D01*
X43560051Y-39237845D01*
X43461107Y-39290012D01*
X43455894Y-39294417D01*
X43455890Y-39294420D01*
X43325033Y-39405003D01*
X43325029Y-39405007D01*
X43319819Y-39409410D01*
X43315672Y-39414833D01*
X43315671Y-39414835D01*
X43211610Y-39550941D01*
X43211607Y-39550945D01*
X43207466Y-39556362D01*
X43129290Y-39724012D01*
X43088937Y-39904538D01*
X43088291Y-40089518D01*
X43089734Y-40096194D01*
X43090447Y-40102974D01*
X43088554Y-40103173D01*
X43084083Y-40164672D01*
X43041469Y-40221457D01*
X42974920Y-40246189D01*
X42966079Y-40246500D01*
X42650000Y-40246500D01*
X42576921Y-40251727D01*
X42490328Y-40277153D01*
X42419332Y-40277153D01*
X42403266Y-40271161D01*
X42402869Y-40271044D01*
X42394670Y-40267300D01*
X42374947Y-40264464D01*
X42254448Y-40247139D01*
X42254441Y-40247138D01*
X42250000Y-40246500D01*
X41650000Y-40246500D01*
X41576921Y-40251727D01*
X41490328Y-40277153D01*
X41419332Y-40277153D01*
X41403266Y-40271161D01*
X41402869Y-40271044D01*
X41394670Y-40267300D01*
X41374947Y-40264464D01*
X41254448Y-40247139D01*
X41254441Y-40247138D01*
X41250000Y-40246500D01*
X40650000Y-40246500D01*
X40576921Y-40251727D01*
X40490328Y-40277153D01*
X40419332Y-40277153D01*
X40403266Y-40271161D01*
X40402869Y-40271044D01*
X40394670Y-40267300D01*
X40374947Y-40264464D01*
X40254448Y-40247139D01*
X40254441Y-40247138D01*
X40250000Y-40246500D01*
X39650000Y-40246500D01*
X39576921Y-40251727D01*
X39490328Y-40277153D01*
X39419332Y-40277153D01*
X39403266Y-40271161D01*
X39402869Y-40271044D01*
X39394670Y-40267300D01*
X39374947Y-40264464D01*
X39254448Y-40247139D01*
X39254441Y-40247138D01*
X39250000Y-40246500D01*
X38650000Y-40246500D01*
X38576921Y-40251727D01*
X38490328Y-40277153D01*
X38419332Y-40277153D01*
X38403266Y-40271161D01*
X38402869Y-40271044D01*
X38394670Y-40267300D01*
X38374947Y-40264464D01*
X38254448Y-40247139D01*
X38254441Y-40247138D01*
X38250000Y-40246500D01*
X37650000Y-40246500D01*
X37576921Y-40251727D01*
X37490328Y-40277153D01*
X37419332Y-40277153D01*
X37403266Y-40271161D01*
X37402869Y-40271044D01*
X37394670Y-40267300D01*
X37374947Y-40264464D01*
X37254448Y-40247139D01*
X37254441Y-40247138D01*
X37250000Y-40246500D01*
X36650000Y-40246500D01*
X36576921Y-40251727D01*
X36490328Y-40277153D01*
X36419332Y-40277153D01*
X36403266Y-40271161D01*
X36402869Y-40271044D01*
X36394670Y-40267300D01*
X36374947Y-40264464D01*
X36254448Y-40247139D01*
X36254441Y-40247138D01*
X36250000Y-40246500D01*
X35650000Y-40246500D01*
X35576921Y-40251727D01*
X35490328Y-40277153D01*
X35419332Y-40277153D01*
X35403266Y-40271161D01*
X35402869Y-40271044D01*
X35394670Y-40267300D01*
X35374947Y-40264464D01*
X35254448Y-40247139D01*
X35254441Y-40247138D01*
X35250000Y-40246500D01*
X34650000Y-40246500D01*
X34576921Y-40251727D01*
X34490328Y-40277153D01*
X34419332Y-40277153D01*
X34403266Y-40271161D01*
X34402869Y-40271044D01*
X34394670Y-40267300D01*
X34374947Y-40264464D01*
X34254448Y-40247139D01*
X34254441Y-40247138D01*
X34250000Y-40246500D01*
X33650000Y-40246500D01*
X33576921Y-40251727D01*
X33490328Y-40277153D01*
X33419332Y-40277153D01*
X33403266Y-40271161D01*
X33402869Y-40271044D01*
X33394670Y-40267300D01*
X33374947Y-40264464D01*
X33254448Y-40247139D01*
X33254441Y-40247138D01*
X33250000Y-40246500D01*
X32650000Y-40246500D01*
X32576921Y-40251727D01*
X32490328Y-40277153D01*
X32419332Y-40277153D01*
X32403266Y-40271161D01*
X32402869Y-40271044D01*
X32394670Y-40267300D01*
X32374947Y-40264464D01*
X32254448Y-40247139D01*
X32254441Y-40247138D01*
X32250000Y-40246500D01*
X31650000Y-40246500D01*
X31576921Y-40251727D01*
X31489602Y-40277366D01*
X31418607Y-40277366D01*
X31403737Y-40271820D01*
X31385612Y-40266498D01*
X31254446Y-40247639D01*
X31245505Y-40247000D01*
X31222115Y-40247000D01*
X31206876Y-40251475D01*
X31205671Y-40252865D01*
X31204000Y-40260548D01*
X31204000Y-40485663D01*
X31192613Y-40538005D01*
X31157300Y-40615330D01*
X31156018Y-40624246D01*
X31156018Y-40624247D01*
X31137139Y-40755552D01*
X31137138Y-40755559D01*
X31136500Y-40760000D01*
X31136500Y-41266000D01*
X31116498Y-41334121D01*
X31062842Y-41380614D01*
X31010500Y-41392000D01*
X30889500Y-41392000D01*
X30821379Y-41371998D01*
X30774886Y-41318342D01*
X30763500Y-41266000D01*
X30763500Y-40760000D01*
X30758273Y-40686921D01*
X30717096Y-40546684D01*
X30712225Y-40539105D01*
X30708480Y-40530904D01*
X30711470Y-40529539D01*
X30696000Y-40476861D01*
X30696000Y-40265115D01*
X30691525Y-40249876D01*
X30687280Y-40246197D01*
X30648897Y-40186471D01*
X30645050Y-40133220D01*
X30652763Y-40079024D01*
X30653344Y-40074942D01*
X30653500Y-40060000D01*
X30651685Y-40044997D01*
X30636534Y-39919806D01*
X30632904Y-39889806D01*
X30572306Y-39729438D01*
X30496262Y-39618793D01*
X30479506Y-39594413D01*
X30479505Y-39594411D01*
X30475204Y-39588154D01*
X30469533Y-39583101D01*
X30352877Y-39479164D01*
X30352875Y-39479162D01*
X30347204Y-39474110D01*
X30340495Y-39470558D01*
X30340491Y-39470555D01*
X30202411Y-39397445D01*
X30202408Y-39397444D01*
X30195696Y-39393890D01*
X30178127Y-39389477D01*
X30036795Y-39353977D01*
X30036793Y-39353977D01*
X30029425Y-39352126D01*
X30021827Y-39352086D01*
X30021825Y-39352086D01*
X29947841Y-39351699D01*
X29857992Y-39351229D01*
X29850613Y-39353001D01*
X29850609Y-39353001D01*
X29698673Y-39389477D01*
X29698669Y-39389478D01*
X29691294Y-39391249D01*
X29538954Y-39469878D01*
X29533232Y-39474870D01*
X29533230Y-39474871D01*
X29504564Y-39499878D01*
X29409766Y-39582575D01*
X29311190Y-39722835D01*
X29248916Y-39882560D01*
X29247925Y-39890087D01*
X29232208Y-40009471D01*
X29226539Y-40052528D01*
X29232517Y-40106673D01*
X29220111Y-40176577D01*
X29171882Y-40228677D01*
X29107278Y-40246500D01*
X28650000Y-40246500D01*
X28576921Y-40251727D01*
X28490328Y-40277153D01*
X28419332Y-40277153D01*
X28403266Y-40271161D01*
X28402869Y-40271044D01*
X28394670Y-40267300D01*
X28374947Y-40264464D01*
X28254448Y-40247139D01*
X28254441Y-40247138D01*
X28250000Y-40246500D01*
X27650000Y-40246500D01*
X27576921Y-40251727D01*
X27490328Y-40277153D01*
X27419332Y-40277153D01*
X27403266Y-40271161D01*
X27402869Y-40271044D01*
X27394670Y-40267300D01*
X27374947Y-40264464D01*
X27254448Y-40247139D01*
X27254441Y-40247138D01*
X27250000Y-40246500D01*
X26650000Y-40246500D01*
X26576921Y-40251727D01*
X26490328Y-40277153D01*
X26419332Y-40277153D01*
X26403266Y-40271161D01*
X26402869Y-40271044D01*
X26394670Y-40267300D01*
X26374947Y-40264464D01*
X26254448Y-40247139D01*
X26254441Y-40247138D01*
X26250000Y-40246500D01*
X25778254Y-40246500D01*
X25710133Y-40226498D01*
X25663640Y-40172842D01*
X25652617Y-40110947D01*
X25652763Y-40109021D01*
X25653344Y-40104942D01*
X25653500Y-40090000D01*
X25652616Y-40082689D01*
X25633816Y-39927346D01*
X25632904Y-39919806D01*
X25572306Y-39759438D01*
X25542877Y-39716619D01*
X25479506Y-39624413D01*
X25479505Y-39624411D01*
X25475204Y-39618154D01*
X25469533Y-39613101D01*
X25352877Y-39509164D01*
X25352875Y-39509162D01*
X25347204Y-39504110D01*
X25340495Y-39500558D01*
X25340491Y-39500555D01*
X25202411Y-39427445D01*
X25202408Y-39427444D01*
X25195696Y-39423890D01*
X25178127Y-39419477D01*
X25036795Y-39383977D01*
X25036793Y-39383977D01*
X25029425Y-39382126D01*
X25021827Y-39382086D01*
X25021825Y-39382086D01*
X24947841Y-39381699D01*
X24857992Y-39381229D01*
X24850613Y-39383001D01*
X24850609Y-39383001D01*
X24698673Y-39419477D01*
X24698669Y-39419478D01*
X24691294Y-39421249D01*
X24538954Y-39499878D01*
X24533232Y-39504870D01*
X24533230Y-39504871D01*
X24437028Y-39588793D01*
X24409766Y-39612575D01*
X24311190Y-39752835D01*
X24248916Y-39912560D01*
X24247925Y-39920087D01*
X24227538Y-40074942D01*
X24226539Y-40082528D01*
X24245351Y-40252928D01*
X24247959Y-40260054D01*
X24247960Y-40260059D01*
X24270759Y-40322359D01*
X24275385Y-40393204D01*
X24247658Y-40448172D01*
X24228865Y-40469860D01*
X24218016Y-40482381D01*
X24214272Y-40490579D01*
X24196480Y-40529539D01*
X24157300Y-40615330D01*
X24156018Y-40624245D01*
X24156018Y-40624246D01*
X24137139Y-40755552D01*
X24137138Y-40755559D01*
X24136500Y-40760000D01*
X24136500Y-41266000D01*
X24116498Y-41334121D01*
X24062842Y-41380614D01*
X24010500Y-41392000D01*
X23476000Y-41392000D01*
X23407879Y-41371998D01*
X23361386Y-41318342D01*
X23350000Y-41266000D01*
X23350000Y-38609518D01*
X37584691Y-38609518D01*
X37586134Y-38616191D01*
X37586134Y-38616193D01*
X37600124Y-38680895D01*
X37623783Y-38790322D01*
X37700787Y-38958514D01*
X37704891Y-38963960D01*
X37704892Y-38963962D01*
X37783197Y-39067875D01*
X37812111Y-39106246D01*
X37817290Y-39110685D01*
X37817291Y-39110686D01*
X37870661Y-39156429D01*
X37952562Y-39226627D01*
X37979946Y-39241310D01*
X38109570Y-39310814D01*
X38109572Y-39310815D01*
X38115587Y-39314040D01*
X38122155Y-39315899D01*
X38122156Y-39315899D01*
X38250038Y-39352086D01*
X38293579Y-39364407D01*
X38300387Y-39364811D01*
X38300390Y-39364812D01*
X38453358Y-39373900D01*
X38478235Y-39375378D01*
X38559233Y-39362549D01*
X38654205Y-39347507D01*
X38654209Y-39347506D01*
X38660939Y-39346440D01*
X38667285Y-39343953D01*
X38667289Y-39343952D01*
X38826812Y-39281436D01*
X38826816Y-39281434D01*
X38833167Y-39278945D01*
X38889385Y-39241310D01*
X38981215Y-39179835D01*
X38981218Y-39179832D01*
X38986883Y-39176040D01*
X39114917Y-39042528D01*
X39160243Y-38968273D01*
X39207734Y-38890469D01*
X39211294Y-38884637D01*
X39246067Y-38783650D01*
X39269295Y-38716191D01*
X39269296Y-38716188D01*
X39271518Y-38709734D01*
X39283904Y-38602689D01*
X39292375Y-38529471D01*
X39292375Y-38529470D01*
X39292779Y-38525979D01*
X39292800Y-38520000D01*
X39272822Y-38336101D01*
X39213821Y-38160781D01*
X39118548Y-38002221D01*
X38991450Y-37867819D01*
X38906390Y-37810012D01*
X38844098Y-37767679D01*
X38838455Y-37763844D01*
X38832125Y-37761312D01*
X38832121Y-37761310D01*
X38673041Y-37697683D01*
X38666703Y-37695148D01*
X38659973Y-37694034D01*
X38659970Y-37694033D01*
X38490943Y-37666050D01*
X38490940Y-37666050D01*
X38484206Y-37664935D01*
X38477390Y-37665292D01*
X38477386Y-37665292D01*
X38356826Y-37671611D01*
X38299478Y-37674617D01*
X38292900Y-37676429D01*
X38292899Y-37676429D01*
X38127715Y-37721927D01*
X38127711Y-37721928D01*
X38121138Y-37723739D01*
X38115107Y-37726919D01*
X38115104Y-37726920D01*
X38056451Y-37757845D01*
X37957507Y-37810012D01*
X37952294Y-37814417D01*
X37952290Y-37814420D01*
X37821433Y-37925003D01*
X37821429Y-37925007D01*
X37816219Y-37929410D01*
X37812072Y-37934833D01*
X37812071Y-37934835D01*
X37708010Y-38070941D01*
X37708007Y-38070945D01*
X37703866Y-38076362D01*
X37625690Y-38244012D01*
X37585337Y-38424538D01*
X37584691Y-38609518D01*
X23350000Y-38609518D01*
X23350000Y-36249518D01*
X29398291Y-36249518D01*
X29399734Y-36256191D01*
X29399734Y-36256193D01*
X29428811Y-36390675D01*
X29437383Y-36430322D01*
X29514387Y-36598514D01*
X29518491Y-36603960D01*
X29518492Y-36603962D01*
X29583830Y-36690668D01*
X29625711Y-36746246D01*
X29630890Y-36750685D01*
X29630891Y-36750686D01*
X29753241Y-36855552D01*
X29766162Y-36866627D01*
X29856364Y-36914993D01*
X29923170Y-36950814D01*
X29923172Y-36950815D01*
X29929187Y-36954040D01*
X29935755Y-36955899D01*
X29935756Y-36955899D01*
X30028645Y-36982184D01*
X30107179Y-37004407D01*
X30113987Y-37004811D01*
X30113990Y-37004812D01*
X30266958Y-37013900D01*
X30291835Y-37015378D01*
X30372833Y-37002549D01*
X30467805Y-36987507D01*
X30467809Y-36987506D01*
X30474539Y-36986440D01*
X30480885Y-36983953D01*
X30480889Y-36983952D01*
X30640412Y-36921436D01*
X30640416Y-36921434D01*
X30646767Y-36918945D01*
X30718855Y-36870686D01*
X30794815Y-36819835D01*
X30794818Y-36819832D01*
X30800483Y-36816040D01*
X30864276Y-36749518D01*
X33798291Y-36749518D01*
X33799734Y-36756191D01*
X33799734Y-36756193D01*
X33835462Y-36921436D01*
X33837383Y-36930322D01*
X33914387Y-37098514D01*
X33918491Y-37103960D01*
X33918492Y-37103962D01*
X33996797Y-37207875D01*
X34025711Y-37246246D01*
X34166162Y-37366627D01*
X34256364Y-37414993D01*
X34323170Y-37450814D01*
X34323172Y-37450815D01*
X34329187Y-37454040D01*
X34335755Y-37455899D01*
X34335756Y-37455899D01*
X34342273Y-37457743D01*
X34507179Y-37504407D01*
X34513987Y-37504811D01*
X34513990Y-37504812D01*
X34666958Y-37513900D01*
X34691835Y-37515378D01*
X34772833Y-37502549D01*
X34867805Y-37487507D01*
X34867809Y-37487506D01*
X34874539Y-37486440D01*
X34880885Y-37483953D01*
X34880889Y-37483952D01*
X35040412Y-37421436D01*
X35040416Y-37421434D01*
X35046767Y-37418945D01*
X35093044Y-37387965D01*
X35194815Y-37319835D01*
X35194818Y-37319832D01*
X35200483Y-37316040D01*
X35328517Y-37182528D01*
X35357298Y-37135378D01*
X35421334Y-37030469D01*
X35424894Y-37024637D01*
X35439512Y-36982184D01*
X35482895Y-36856191D01*
X35482896Y-36856188D01*
X35485118Y-36849734D01*
X35488578Y-36819835D01*
X35505975Y-36669471D01*
X35505975Y-36669470D01*
X35506379Y-36665979D01*
X35506400Y-36660000D01*
X35505883Y-36655236D01*
X35487159Y-36482888D01*
X35486422Y-36476101D01*
X35450553Y-36369518D01*
X43578291Y-36369518D01*
X43579734Y-36376191D01*
X43579734Y-36376193D01*
X43615057Y-36539562D01*
X43617383Y-36550322D01*
X43620224Y-36556527D01*
X43675245Y-36676703D01*
X43694387Y-36718514D01*
X43698491Y-36723960D01*
X43698492Y-36723962D01*
X43764168Y-36811116D01*
X43805711Y-36866246D01*
X43946162Y-36986627D01*
X43999783Y-37015378D01*
X44103170Y-37070814D01*
X44103172Y-37070815D01*
X44109187Y-37074040D01*
X44115755Y-37075899D01*
X44115756Y-37075899D01*
X44214893Y-37103952D01*
X44287179Y-37124407D01*
X44293987Y-37124811D01*
X44293990Y-37124812D01*
X44446958Y-37133900D01*
X44471835Y-37135378D01*
X44552833Y-37122549D01*
X44647805Y-37107507D01*
X44647809Y-37107506D01*
X44654539Y-37106440D01*
X44660885Y-37103953D01*
X44660889Y-37103952D01*
X44820412Y-37041436D01*
X44820416Y-37041434D01*
X44826767Y-37038945D01*
X44881134Y-37002549D01*
X44974815Y-36939835D01*
X44974818Y-36939832D01*
X44980483Y-36936040D01*
X45108517Y-36802528D01*
X45140162Y-36750686D01*
X45201334Y-36650469D01*
X45204894Y-36644637D01*
X45218900Y-36603962D01*
X45262895Y-36476191D01*
X45262896Y-36476188D01*
X45265118Y-36469734D01*
X45266506Y-36457743D01*
X45285975Y-36289471D01*
X45285975Y-36289470D01*
X45286379Y-36285979D01*
X45286400Y-36280000D01*
X45266422Y-36096101D01*
X45217258Y-35950012D01*
X45209597Y-35927246D01*
X45209596Y-35927244D01*
X45207421Y-35920781D01*
X45112148Y-35762221D01*
X44985050Y-35627819D01*
X44950988Y-35604670D01*
X44837698Y-35527679D01*
X44832055Y-35523844D01*
X44825725Y-35521312D01*
X44825721Y-35521310D01*
X44666641Y-35457683D01*
X44660303Y-35455148D01*
X44653573Y-35454034D01*
X44653570Y-35454033D01*
X44484543Y-35426050D01*
X44484540Y-35426050D01*
X44477806Y-35424935D01*
X44470990Y-35425292D01*
X44470986Y-35425292D01*
X44350426Y-35431611D01*
X44293078Y-35434617D01*
X44286500Y-35436429D01*
X44286499Y-35436429D01*
X44121315Y-35481927D01*
X44121311Y-35481928D01*
X44114738Y-35483739D01*
X44108707Y-35486919D01*
X44108704Y-35486920D01*
X44069066Y-35507819D01*
X43951107Y-35570012D01*
X43945894Y-35574417D01*
X43945890Y-35574420D01*
X43815033Y-35685003D01*
X43815029Y-35685007D01*
X43809819Y-35689410D01*
X43805672Y-35694833D01*
X43805671Y-35694835D01*
X43701610Y-35830941D01*
X43701607Y-35830945D01*
X43697466Y-35836362D01*
X43619290Y-36004012D01*
X43578937Y-36184538D01*
X43578291Y-36369518D01*
X35450553Y-36369518D01*
X35427421Y-36300781D01*
X35332148Y-36142221D01*
X35205050Y-36007819D01*
X35158379Y-35976101D01*
X35057698Y-35907679D01*
X35052055Y-35903844D01*
X35045725Y-35901312D01*
X35045721Y-35901310D01*
X34886641Y-35837683D01*
X34880303Y-35835148D01*
X34873573Y-35834034D01*
X34873570Y-35834033D01*
X34704543Y-35806050D01*
X34704540Y-35806050D01*
X34697806Y-35804935D01*
X34690990Y-35805292D01*
X34690986Y-35805292D01*
X34570426Y-35811611D01*
X34513078Y-35814617D01*
X34506500Y-35816429D01*
X34506499Y-35816429D01*
X34341315Y-35861927D01*
X34341311Y-35861928D01*
X34334738Y-35863739D01*
X34328707Y-35866919D01*
X34328704Y-35866920D01*
X34296287Y-35884012D01*
X34171107Y-35950012D01*
X34165894Y-35954417D01*
X34165890Y-35954420D01*
X34035033Y-36065003D01*
X34035029Y-36065007D01*
X34029819Y-36069410D01*
X34025672Y-36074833D01*
X34025671Y-36074835D01*
X33921610Y-36210941D01*
X33921607Y-36210945D01*
X33917466Y-36216362D01*
X33839290Y-36384012D01*
X33798937Y-36564538D01*
X33798291Y-36749518D01*
X30864276Y-36749518D01*
X30928517Y-36682528D01*
X30939361Y-36664764D01*
X31021334Y-36530469D01*
X31024894Y-36524637D01*
X31043799Y-36469734D01*
X31082895Y-36356191D01*
X31082896Y-36356188D01*
X31085118Y-36349734D01*
X31091459Y-36294935D01*
X31105975Y-36169471D01*
X31105975Y-36169470D01*
X31106379Y-36165979D01*
X31106400Y-36160000D01*
X31105105Y-36148073D01*
X31095305Y-36057872D01*
X31086422Y-35976101D01*
X31048863Y-35864496D01*
X31029597Y-35807246D01*
X31029596Y-35807244D01*
X31027421Y-35800781D01*
X30932148Y-35642221D01*
X30914900Y-35623981D01*
X30828937Y-35533079D01*
X30805050Y-35507819D01*
X30769618Y-35483739D01*
X30657698Y-35407679D01*
X30652055Y-35403844D01*
X30645725Y-35401312D01*
X30645721Y-35401310D01*
X30486641Y-35337683D01*
X30480303Y-35335148D01*
X30473573Y-35334034D01*
X30473570Y-35334033D01*
X30304543Y-35306050D01*
X30304540Y-35306050D01*
X30297806Y-35304935D01*
X30290990Y-35305292D01*
X30290986Y-35305292D01*
X30170426Y-35311611D01*
X30113078Y-35314617D01*
X30106500Y-35316429D01*
X30106499Y-35316429D01*
X29941315Y-35361927D01*
X29941311Y-35361928D01*
X29934738Y-35363739D01*
X29928707Y-35366919D01*
X29928704Y-35366920D01*
X29870051Y-35397845D01*
X29771107Y-35450012D01*
X29765894Y-35454417D01*
X29765890Y-35454420D01*
X29635033Y-35565003D01*
X29635029Y-35565007D01*
X29629819Y-35569410D01*
X29625672Y-35574833D01*
X29625671Y-35574835D01*
X29521610Y-35710941D01*
X29521607Y-35710945D01*
X29517466Y-35716362D01*
X29439290Y-35884012D01*
X29398937Y-36064538D01*
X29398291Y-36249518D01*
X23350000Y-36249518D01*
X23350000Y-34049518D01*
X30525791Y-34049518D01*
X30527234Y-34056191D01*
X30527234Y-34056193D01*
X30540031Y-34115378D01*
X30564883Y-34230322D01*
X30641887Y-34398514D01*
X30645991Y-34403960D01*
X30645992Y-34403962D01*
X30724297Y-34507875D01*
X30753211Y-34546246D01*
X30758390Y-34550685D01*
X30758391Y-34550686D01*
X30838879Y-34619672D01*
X30893662Y-34666627D01*
X30983864Y-34714993D01*
X31050670Y-34750814D01*
X31050672Y-34750815D01*
X31056687Y-34754040D01*
X31063255Y-34755899D01*
X31063256Y-34755899D01*
X31162393Y-34783952D01*
X31234679Y-34804407D01*
X31241487Y-34804811D01*
X31241490Y-34804812D01*
X31394458Y-34813900D01*
X31419335Y-34815378D01*
X31500333Y-34802549D01*
X31595305Y-34787507D01*
X31595309Y-34787506D01*
X31602039Y-34786440D01*
X31608385Y-34783953D01*
X31608389Y-34783952D01*
X31767912Y-34721436D01*
X31767916Y-34721434D01*
X31774267Y-34718945D01*
X31820544Y-34687965D01*
X31922315Y-34619835D01*
X31922318Y-34619832D01*
X31927983Y-34616040D01*
X31938887Y-34604670D01*
X32051295Y-34487452D01*
X32056017Y-34482528D01*
X32152394Y-34324637D01*
X32212618Y-34149734D01*
X32217863Y-34104407D01*
X32233475Y-33969471D01*
X32233475Y-33969470D01*
X32233879Y-33965979D01*
X32233900Y-33960000D01*
X32229125Y-33916040D01*
X32214659Y-33782888D01*
X32213922Y-33776101D01*
X32180850Y-33677828D01*
X32157097Y-33607246D01*
X32157096Y-33607244D01*
X32154921Y-33600781D01*
X32059648Y-33442221D01*
X32034757Y-33415899D01*
X31965525Y-33342689D01*
X31932550Y-33307819D01*
X31885789Y-33276040D01*
X31785198Y-33207679D01*
X31779555Y-33203844D01*
X31773225Y-33201312D01*
X31773221Y-33201310D01*
X31614141Y-33137683D01*
X31607803Y-33135148D01*
X31601073Y-33134034D01*
X31601070Y-33134033D01*
X31432043Y-33106050D01*
X31432040Y-33106050D01*
X31425306Y-33104935D01*
X31418490Y-33105292D01*
X31418486Y-33105292D01*
X31298465Y-33111583D01*
X31240578Y-33114617D01*
X31234000Y-33116429D01*
X31233999Y-33116429D01*
X31068815Y-33161927D01*
X31068811Y-33161928D01*
X31062238Y-33163739D01*
X31056207Y-33166919D01*
X31056204Y-33166920D01*
X31035341Y-33177920D01*
X30898607Y-33250012D01*
X30893394Y-33254417D01*
X30893390Y-33254420D01*
X30762533Y-33365003D01*
X30762529Y-33365007D01*
X30757319Y-33369410D01*
X30753172Y-33374833D01*
X30753171Y-33374835D01*
X30649110Y-33510941D01*
X30649107Y-33510945D01*
X30644966Y-33516362D01*
X30566790Y-33684012D01*
X30526437Y-33864538D01*
X30525791Y-34049518D01*
X23350000Y-34049518D01*
X23350000Y-19385577D01*
X23370002Y-19317456D01*
X23414484Y-19278913D01*
X23413316Y-19277096D01*
X23509350Y-19215378D01*
X23518617Y-19209423D01*
X23586736Y-19189421D01*
X23621045Y-19194182D01*
X23657179Y-19204407D01*
X23663987Y-19204811D01*
X23663990Y-19204812D01*
X23816958Y-19213900D01*
X23841835Y-19215378D01*
X23922833Y-19202549D01*
X24017805Y-19187507D01*
X24017809Y-19187506D01*
X24024539Y-19186440D01*
X24030885Y-19183953D01*
X24030889Y-19183952D01*
X24190412Y-19121436D01*
X24190416Y-19121434D01*
X24196767Y-19118945D01*
X24277014Y-19065224D01*
X24344815Y-19019835D01*
X24344818Y-19019832D01*
X24350483Y-19016040D01*
X24451058Y-18911162D01*
X24512645Y-18875839D01*
X24583551Y-18879420D01*
X24641265Y-18920767D01*
X24667463Y-18986754D01*
X24668000Y-18998372D01*
X24668000Y-27293757D01*
X24666922Y-27310203D01*
X24662999Y-27340000D01*
X24682661Y-27489339D01*
X24740303Y-27628500D01*
X24763108Y-27658220D01*
X24777774Y-27677333D01*
X24792873Y-27697010D01*
X24831999Y-27748001D01*
X24838549Y-27753027D01*
X24838550Y-27753028D01*
X24855843Y-27766297D01*
X24868234Y-27777165D01*
X25816346Y-28725277D01*
X25827213Y-28737667D01*
X25845510Y-28761512D01*
X25875900Y-28784831D01*
X25965011Y-28853208D01*
X26104172Y-28910850D01*
X26253511Y-28930512D01*
X26283308Y-28926589D01*
X26299754Y-28925511D01*
X30815724Y-28925511D01*
X30883845Y-28945513D01*
X30911105Y-28969180D01*
X30912583Y-28970893D01*
X30916819Y-28977196D01*
X30922436Y-28982307D01*
X31033900Y-29083731D01*
X31043618Y-29092574D01*
X31073285Y-29108682D01*
X31187601Y-29170751D01*
X31187603Y-29170752D01*
X31194278Y-29174376D01*
X31201627Y-29176304D01*
X31352752Y-29215951D01*
X31352754Y-29215951D01*
X31360102Y-29217879D01*
X31447574Y-29219253D01*
X31523917Y-29220452D01*
X31523920Y-29220452D01*
X31531516Y-29220571D01*
X31538920Y-29218875D01*
X31538922Y-29218875D01*
X31627822Y-29198514D01*
X31698625Y-29182298D01*
X31851780Y-29105269D01*
X31982140Y-28993931D01*
X31998751Y-28970814D01*
X32077743Y-28860886D01*
X32077744Y-28860885D01*
X32082180Y-28854711D01*
X32120676Y-28758949D01*
X32164642Y-28703204D01*
X32231767Y-28680079D01*
X32300739Y-28696916D01*
X32303476Y-28698676D01*
X32306683Y-28701594D01*
X32313358Y-28705218D01*
X32450666Y-28779771D01*
X32450668Y-28779772D01*
X32457343Y-28783396D01*
X32464692Y-28785324D01*
X32615817Y-28824971D01*
X32615819Y-28824971D01*
X32623167Y-28826899D01*
X32660870Y-28827491D01*
X32693948Y-28828011D01*
X32761746Y-28849080D01*
X32807391Y-28903460D01*
X32815123Y-28927366D01*
X32837383Y-29030322D01*
X32863545Y-29087464D01*
X32904219Y-29176304D01*
X32914387Y-29198514D01*
X32918491Y-29203960D01*
X32918492Y-29203962D01*
X32996797Y-29307875D01*
X33025711Y-29346246D01*
X33030890Y-29350685D01*
X33030891Y-29350686D01*
X33150071Y-29452835D01*
X33166162Y-29466627D01*
X33212183Y-29491303D01*
X33323170Y-29550814D01*
X33323172Y-29550815D01*
X33329187Y-29554040D01*
X33335755Y-29555899D01*
X33335756Y-29555899D01*
X33353461Y-29560909D01*
X33507179Y-29604407D01*
X33513987Y-29604811D01*
X33513990Y-29604812D01*
X33653206Y-29613083D01*
X33720020Y-29637090D01*
X33763249Y-29693408D01*
X33770655Y-29755308D01*
X33756539Y-29862528D01*
X33775351Y-30032928D01*
X33834267Y-30193922D01*
X33838503Y-30200225D01*
X33838503Y-30200226D01*
X33852883Y-30221625D01*
X33929884Y-30336216D01*
X33935503Y-30341329D01*
X33935504Y-30341330D01*
X33953698Y-30357885D01*
X34056683Y-30451594D01*
X34063356Y-30455217D01*
X34200666Y-30529771D01*
X34200668Y-30529772D01*
X34207343Y-30533396D01*
X34292140Y-30555642D01*
X34297099Y-30556943D01*
X34357914Y-30593577D01*
X34389269Y-30657274D01*
X34381210Y-30727812D01*
X34336294Y-30782795D01*
X34294538Y-30801338D01*
X34128294Y-30841249D01*
X33975954Y-30919878D01*
X33970232Y-30924870D01*
X33970230Y-30924871D01*
X33924046Y-30965160D01*
X33846766Y-31032575D01*
X33748190Y-31172835D01*
X33685916Y-31332560D01*
X33684925Y-31340087D01*
X33666575Y-31479471D01*
X33663539Y-31502528D01*
X33682351Y-31672928D01*
X33701131Y-31724247D01*
X33737541Y-31823739D01*
X33741267Y-31833922D01*
X33745503Y-31840225D01*
X33745503Y-31840226D01*
X33760774Y-31862951D01*
X33836884Y-31976216D01*
X33842503Y-31981329D01*
X33842504Y-31981330D01*
X33888361Y-32023057D01*
X33925283Y-32083697D01*
X33923560Y-32154673D01*
X33906648Y-32188700D01*
X33904530Y-32191713D01*
X33904526Y-32191720D01*
X33900159Y-32197934D01*
X33837885Y-32357659D01*
X33836894Y-32365186D01*
X33818973Y-32501310D01*
X33815508Y-32527627D01*
X33834320Y-32698027D01*
X33893236Y-32859021D01*
X33897472Y-32865324D01*
X33897472Y-32865325D01*
X33975926Y-32982077D01*
X33988853Y-33001315D01*
X33994472Y-33006428D01*
X33994473Y-33006429D01*
X34044897Y-33052311D01*
X34115652Y-33116693D01*
X34122325Y-33120316D01*
X34259635Y-33194870D01*
X34259637Y-33194871D01*
X34266312Y-33198495D01*
X34273661Y-33200423D01*
X34424786Y-33240070D01*
X34424788Y-33240070D01*
X34432136Y-33241998D01*
X34519608Y-33243372D01*
X34595951Y-33244571D01*
X34595954Y-33244571D01*
X34603550Y-33244690D01*
X34610954Y-33242994D01*
X34610956Y-33242994D01*
X34673758Y-33228610D01*
X34770659Y-33206417D01*
X34827319Y-33177920D01*
X34855764Y-33163614D01*
X34925609Y-33150876D01*
X34991252Y-33177920D01*
X35031854Y-33236161D01*
X35038377Y-33276617D01*
X35038122Y-33349518D01*
X35039565Y-33356191D01*
X35039565Y-33356193D01*
X35074196Y-33516362D01*
X35077214Y-33530322D01*
X35154218Y-33698514D01*
X35158322Y-33703960D01*
X35158323Y-33703962D01*
X35236628Y-33807875D01*
X35265542Y-33846246D01*
X35270721Y-33850685D01*
X35270722Y-33850686D01*
X35286884Y-33864538D01*
X35405993Y-33966627D01*
X35496195Y-34014993D01*
X35563001Y-34050814D01*
X35563003Y-34050815D01*
X35569018Y-34054040D01*
X35575586Y-34055899D01*
X35575587Y-34055899D01*
X35576626Y-34056193D01*
X35747010Y-34104407D01*
X35753818Y-34104811D01*
X35753821Y-34104812D01*
X35906789Y-34113900D01*
X35931666Y-34115378D01*
X36012664Y-34102549D01*
X36107636Y-34087507D01*
X36107640Y-34087506D01*
X36114370Y-34086440D01*
X36120716Y-34083953D01*
X36120720Y-34083952D01*
X36280243Y-34021436D01*
X36280247Y-34021434D01*
X36286598Y-34018945D01*
X36332875Y-33987965D01*
X36434646Y-33919835D01*
X36434649Y-33919832D01*
X36440314Y-33916040D01*
X36568348Y-33782528D01*
X36664725Y-33624637D01*
X36697200Y-33530322D01*
X36722726Y-33456191D01*
X36722727Y-33456188D01*
X36724949Y-33449734D01*
X36726393Y-33437259D01*
X36745806Y-33269471D01*
X36745806Y-33269470D01*
X36746210Y-33265979D01*
X36746231Y-33260000D01*
X36744289Y-33242117D01*
X36732943Y-33137683D01*
X36726253Y-33076101D01*
X36667252Y-32900781D01*
X36571979Y-32742221D01*
X36550745Y-32719766D01*
X36541054Y-32709518D01*
X40658291Y-32709518D01*
X40659734Y-32716191D01*
X40659734Y-32716193D01*
X40689073Y-32851887D01*
X40697383Y-32890322D01*
X40774387Y-33058514D01*
X40778491Y-33063960D01*
X40778492Y-33063962D01*
X40843987Y-33150876D01*
X40885711Y-33206246D01*
X40890890Y-33210685D01*
X40890891Y-33210686D01*
X40955403Y-33265979D01*
X41026162Y-33326627D01*
X41056118Y-33342689D01*
X41183170Y-33410814D01*
X41183172Y-33410815D01*
X41189187Y-33414040D01*
X41195755Y-33415899D01*
X41195756Y-33415899D01*
X41294893Y-33443952D01*
X41367179Y-33464407D01*
X41373987Y-33464811D01*
X41373990Y-33464812D01*
X41526958Y-33473900D01*
X41551835Y-33475378D01*
X41632833Y-33462549D01*
X41727805Y-33447507D01*
X41727809Y-33447506D01*
X41734539Y-33446440D01*
X41740885Y-33443953D01*
X41740889Y-33443952D01*
X41900412Y-33381436D01*
X41900416Y-33381434D01*
X41906767Y-33378945D01*
X41960925Y-33342689D01*
X42054815Y-33279835D01*
X42054818Y-33279832D01*
X42060483Y-33276040D01*
X42066783Y-33269471D01*
X42169914Y-33161927D01*
X42188517Y-33142528D01*
X42193703Y-33134033D01*
X42281334Y-32990469D01*
X42284894Y-32984637D01*
X42319667Y-32883650D01*
X42342895Y-32816191D01*
X42342896Y-32816188D01*
X42345118Y-32809734D01*
X42352930Y-32742221D01*
X42365975Y-32629471D01*
X42365975Y-32629470D01*
X42366379Y-32625979D01*
X42366400Y-32620000D01*
X42346422Y-32436101D01*
X42299781Y-32297507D01*
X42289597Y-32267246D01*
X42289596Y-32267244D01*
X42287421Y-32260781D01*
X42192148Y-32102221D01*
X42180205Y-32089591D01*
X42100426Y-32005228D01*
X42065050Y-31967819D01*
X41979990Y-31910012D01*
X41917698Y-31867679D01*
X41912055Y-31863844D01*
X41905725Y-31861312D01*
X41905721Y-31861310D01*
X41746641Y-31797683D01*
X41740303Y-31795148D01*
X41733573Y-31794034D01*
X41733570Y-31794033D01*
X41564543Y-31766050D01*
X41564540Y-31766050D01*
X41557806Y-31764935D01*
X41550990Y-31765292D01*
X41550986Y-31765292D01*
X41430426Y-31771611D01*
X41373078Y-31774617D01*
X41366500Y-31776429D01*
X41366499Y-31776429D01*
X41201315Y-31821927D01*
X41201311Y-31821928D01*
X41194738Y-31823739D01*
X41188707Y-31826919D01*
X41188704Y-31826920D01*
X41134399Y-31855552D01*
X41031107Y-31910012D01*
X41025894Y-31914417D01*
X41025890Y-31914420D01*
X40895033Y-32025003D01*
X40895029Y-32025007D01*
X40889819Y-32029410D01*
X40885672Y-32034833D01*
X40885671Y-32034835D01*
X40781610Y-32170941D01*
X40781607Y-32170945D01*
X40777466Y-32176362D01*
X40699290Y-32344012D01*
X40658937Y-32524538D01*
X40658913Y-32531367D01*
X40658913Y-32531368D01*
X40658848Y-32550012D01*
X40658291Y-32709518D01*
X36541054Y-32709518D01*
X36462054Y-32625979D01*
X36444881Y-32607819D01*
X36376500Y-32561347D01*
X36297529Y-32507679D01*
X36291886Y-32503844D01*
X36285556Y-32501312D01*
X36285552Y-32501310D01*
X36126472Y-32437683D01*
X36120134Y-32435148D01*
X36113404Y-32434034D01*
X36113401Y-32434033D01*
X35944374Y-32406050D01*
X35944371Y-32406050D01*
X35937637Y-32404935D01*
X35930821Y-32405292D01*
X35930817Y-32405292D01*
X35810257Y-32411611D01*
X35752909Y-32414617D01*
X35746331Y-32416429D01*
X35746330Y-32416429D01*
X35581146Y-32461927D01*
X35581142Y-32461928D01*
X35574569Y-32463739D01*
X35568538Y-32466919D01*
X35568535Y-32466920D01*
X35416138Y-32547270D01*
X35346551Y-32561347D01*
X35280400Y-32535568D01*
X35238687Y-32478117D01*
X35232286Y-32450951D01*
X35222785Y-32372444D01*
X35221873Y-32364905D01*
X35219190Y-32357806D01*
X35219189Y-32357800D01*
X35215856Y-32348980D01*
X35210489Y-32278187D01*
X35244249Y-32215730D01*
X35306415Y-32181440D01*
X35335699Y-32178461D01*
X35370377Y-32179006D01*
X35400033Y-32179472D01*
X35400036Y-32179472D01*
X35407631Y-32179591D01*
X35415035Y-32177895D01*
X35415037Y-32177895D01*
X35477839Y-32163511D01*
X35574740Y-32141318D01*
X35727895Y-32064289D01*
X35733674Y-32059353D01*
X35739996Y-32055153D01*
X35741070Y-32056769D01*
X35796660Y-32031855D01*
X35860095Y-32039545D01*
X35860669Y-32039772D01*
X35867343Y-32043396D01*
X35874687Y-32045323D01*
X35874688Y-32045323D01*
X36025817Y-32084971D01*
X36025819Y-32084971D01*
X36033167Y-32086899D01*
X36120639Y-32088273D01*
X36196982Y-32089472D01*
X36196985Y-32089472D01*
X36204581Y-32089591D01*
X36211985Y-32087895D01*
X36211987Y-32087895D01*
X36274789Y-32073511D01*
X36371690Y-32051318D01*
X36524845Y-31974289D01*
X36655205Y-31862951D01*
X36725637Y-31764935D01*
X36750813Y-31729899D01*
X36750814Y-31729898D01*
X36755245Y-31723731D01*
X36758078Y-31716684D01*
X36760571Y-31712149D01*
X36810916Y-31662090D01*
X36842854Y-31650030D01*
X36899090Y-31637151D01*
X36977677Y-31619152D01*
X36977678Y-31619152D01*
X36985077Y-31617457D01*
X37100276Y-31559518D01*
X38698291Y-31559518D01*
X38699734Y-31566191D01*
X38699734Y-31566193D01*
X38733796Y-31723731D01*
X38737383Y-31740322D01*
X38814387Y-31908514D01*
X38818491Y-31913960D01*
X38818492Y-31913962D01*
X38887266Y-32005228D01*
X38925711Y-32056246D01*
X38930890Y-32060685D01*
X38930891Y-32060686D01*
X38986179Y-32108073D01*
X39066162Y-32176627D01*
X39118214Y-32204537D01*
X39223170Y-32260814D01*
X39223172Y-32260815D01*
X39229187Y-32264040D01*
X39235755Y-32265899D01*
X39235756Y-32265899D01*
X39279181Y-32278187D01*
X39407179Y-32314407D01*
X39413987Y-32314811D01*
X39413990Y-32314812D01*
X39566958Y-32323900D01*
X39591835Y-32325378D01*
X39672833Y-32312549D01*
X39767805Y-32297507D01*
X39767809Y-32297506D01*
X39774539Y-32296440D01*
X39780885Y-32293953D01*
X39780889Y-32293952D01*
X39940412Y-32231436D01*
X39940416Y-32231434D01*
X39946767Y-32228945D01*
X40016081Y-32182543D01*
X40094815Y-32129835D01*
X40094818Y-32129832D01*
X40100483Y-32126040D01*
X40129290Y-32096001D01*
X40223795Y-31997452D01*
X40228517Y-31992528D01*
X40235353Y-31981330D01*
X40321334Y-31840469D01*
X40324894Y-31834637D01*
X40345561Y-31774617D01*
X40382895Y-31666191D01*
X40382896Y-31666188D01*
X40385118Y-31659734D01*
X40389814Y-31619152D01*
X40405975Y-31479471D01*
X40405975Y-31479470D01*
X40406379Y-31475979D01*
X40406400Y-31470000D01*
X40405069Y-31457743D01*
X40391469Y-31332560D01*
X40386422Y-31286101D01*
X40327421Y-31110781D01*
X40232148Y-30952221D01*
X40210079Y-30928883D01*
X40130560Y-30844795D01*
X40105050Y-30817819D01*
X40093791Y-30810167D01*
X39957698Y-30717679D01*
X39952055Y-30713844D01*
X39945725Y-30711312D01*
X39945721Y-30711310D01*
X39786641Y-30647683D01*
X39780303Y-30645148D01*
X39773573Y-30644034D01*
X39773570Y-30644033D01*
X39604543Y-30616050D01*
X39604540Y-30616050D01*
X39597806Y-30614935D01*
X39590990Y-30615292D01*
X39590986Y-30615292D01*
X39470426Y-30621611D01*
X39413078Y-30624617D01*
X39406500Y-30626429D01*
X39406499Y-30626429D01*
X39241315Y-30671927D01*
X39241311Y-30671928D01*
X39234738Y-30673739D01*
X39228707Y-30676919D01*
X39228704Y-30676920D01*
X39202629Y-30690668D01*
X39071107Y-30760012D01*
X39065894Y-30764417D01*
X39065890Y-30764420D01*
X38935033Y-30875003D01*
X38935029Y-30875007D01*
X38929819Y-30879410D01*
X38925672Y-30884833D01*
X38925671Y-30884835D01*
X38821610Y-31020941D01*
X38821607Y-31020945D01*
X38817466Y-31026362D01*
X38739290Y-31194012D01*
X38698937Y-31374538D01*
X38698291Y-31559518D01*
X37100276Y-31559518D01*
X37138232Y-31540428D01*
X37268592Y-31429090D01*
X37368632Y-31289870D01*
X37432575Y-31130806D01*
X37456731Y-30961081D01*
X37456887Y-30946139D01*
X37453605Y-30919013D01*
X37443979Y-30839477D01*
X37436291Y-30775945D01*
X37409170Y-30704172D01*
X37397423Y-30673084D01*
X37392055Y-30602291D01*
X37398381Y-30581551D01*
X37406355Y-30561714D01*
X37409188Y-30554667D01*
X37426026Y-30436359D01*
X37455427Y-30371737D01*
X37468943Y-30358299D01*
X37469428Y-30357885D01*
X37475205Y-30352951D01*
X37575245Y-30213731D01*
X37639188Y-30054667D01*
X37663344Y-29884942D01*
X37663500Y-29870000D01*
X37662429Y-29861144D01*
X37653446Y-29786921D01*
X37642904Y-29699806D01*
X37640220Y-29692702D01*
X37638407Y-29685321D01*
X37640070Y-29684913D01*
X37635403Y-29623366D01*
X37669162Y-29560909D01*
X37712663Y-29532310D01*
X37740412Y-29521436D01*
X37740416Y-29521434D01*
X37746767Y-29518945D01*
X37817007Y-29471923D01*
X37894815Y-29419835D01*
X37894818Y-29419832D01*
X37900483Y-29416040D01*
X38028517Y-29282528D01*
X38066409Y-29220452D01*
X38122326Y-29128844D01*
X38144199Y-29108986D01*
X38140529Y-29090831D01*
X38146927Y-29060651D01*
X38182894Y-28956193D01*
X38185118Y-28949734D01*
X38186346Y-28939119D01*
X38187268Y-28936944D01*
X38187414Y-28936300D01*
X38187529Y-28936326D01*
X38214046Y-28873749D01*
X38272691Y-28833732D01*
X38292317Y-28829570D01*
X38294581Y-28829606D01*
X38328751Y-28821780D01*
X38399617Y-28826069D01*
X38456915Y-28867991D01*
X38482453Y-28934236D01*
X38468122Y-29003771D01*
X38459967Y-29017050D01*
X38454512Y-29024812D01*
X38402303Y-29099098D01*
X38383454Y-29147444D01*
X38350695Y-29189885D01*
X38351559Y-29227179D01*
X38347266Y-29240261D01*
X38340029Y-29258823D01*
X38339038Y-29266350D01*
X38319331Y-29416040D01*
X38317652Y-29428791D01*
X38336464Y-29599191D01*
X38395380Y-29760185D01*
X38399616Y-29766488D01*
X38399616Y-29766489D01*
X38481954Y-29889021D01*
X38490997Y-29902479D01*
X38496616Y-29907592D01*
X38496617Y-29907593D01*
X38549910Y-29956086D01*
X38617796Y-30017857D01*
X38624469Y-30021480D01*
X38761779Y-30096034D01*
X38761781Y-30096035D01*
X38768456Y-30099659D01*
X38775805Y-30101587D01*
X38926930Y-30141234D01*
X38926932Y-30141234D01*
X38934280Y-30143162D01*
X39021752Y-30144536D01*
X39098095Y-30145735D01*
X39098098Y-30145735D01*
X39105694Y-30145854D01*
X39113098Y-30144158D01*
X39113100Y-30144158D01*
X39175902Y-30129774D01*
X39272803Y-30107581D01*
X39425958Y-30030552D01*
X39510134Y-29958659D01*
X39550544Y-29924146D01*
X39550546Y-29924144D01*
X39556318Y-29919214D01*
X39571311Y-29898349D01*
X39627306Y-29854701D01*
X39698009Y-29848255D01*
X39733755Y-29861144D01*
X39742528Y-29865907D01*
X39821598Y-29908839D01*
X39821600Y-29908840D01*
X39828275Y-29912464D01*
X39835624Y-29914392D01*
X39986749Y-29954039D01*
X39986751Y-29954039D01*
X39994099Y-29955967D01*
X40081571Y-29957341D01*
X40157914Y-29958540D01*
X40157917Y-29958540D01*
X40165513Y-29958659D01*
X40214000Y-29947554D01*
X40284865Y-29951843D01*
X40326081Y-29980194D01*
X40327850Y-29978250D01*
X40454649Y-30093628D01*
X40461322Y-30097251D01*
X40598632Y-30171805D01*
X40598634Y-30171806D01*
X40605309Y-30175430D01*
X40612658Y-30177358D01*
X40763783Y-30217005D01*
X40763785Y-30217005D01*
X40771133Y-30218933D01*
X40858605Y-30220307D01*
X40934948Y-30221506D01*
X40934951Y-30221506D01*
X40942547Y-30221625D01*
X40949951Y-30219929D01*
X40949953Y-30219929D01*
X41035980Y-30200226D01*
X41109656Y-30183352D01*
X41262811Y-30106323D01*
X41393171Y-29994985D01*
X41397604Y-29988816D01*
X41488774Y-29861940D01*
X41488775Y-29861939D01*
X41493211Y-29855765D01*
X41557154Y-29696701D01*
X41567592Y-29623366D01*
X41577190Y-29555926D01*
X41606591Y-29491303D01*
X41666263Y-29452835D01*
X41703911Y-29447696D01*
X41816982Y-29449472D01*
X41816985Y-29449472D01*
X41824581Y-29449591D01*
X41831985Y-29447895D01*
X41831987Y-29447895D01*
X41894789Y-29433511D01*
X41991690Y-29411318D01*
X42144845Y-29334289D01*
X42275205Y-29222951D01*
X42297222Y-29192311D01*
X42370808Y-29089906D01*
X42370809Y-29089905D01*
X42375245Y-29083731D01*
X42439188Y-28924667D01*
X42463344Y-28754942D01*
X42463500Y-28740000D01*
X42461719Y-28725277D01*
X42450500Y-28632575D01*
X42442904Y-28569806D01*
X42382306Y-28409438D01*
X42285204Y-28268154D01*
X42279533Y-28263101D01*
X42162877Y-28159164D01*
X42162875Y-28159162D01*
X42157204Y-28154110D01*
X42150495Y-28150558D01*
X42150491Y-28150555D01*
X42012411Y-28077445D01*
X42012408Y-28077444D01*
X42005696Y-28073890D01*
X41926968Y-28054115D01*
X41846795Y-28033977D01*
X41846793Y-28033977D01*
X41839425Y-28032126D01*
X41831827Y-28032086D01*
X41831825Y-28032086D01*
X41757841Y-28031699D01*
X41667992Y-28031229D01*
X41660607Y-28033002D01*
X41557883Y-28057663D01*
X41486976Y-28054115D01*
X41429242Y-28012796D01*
X41416809Y-27993521D01*
X41414991Y-27990043D01*
X41412306Y-27982938D01*
X41358062Y-27904012D01*
X41319506Y-27847913D01*
X41319505Y-27847911D01*
X41315204Y-27841654D01*
X41309533Y-27836601D01*
X41192877Y-27732664D01*
X41192875Y-27732662D01*
X41187204Y-27727610D01*
X41180495Y-27724058D01*
X41180491Y-27724055D01*
X41042411Y-27650945D01*
X41042408Y-27650944D01*
X41035696Y-27647390D01*
X40962012Y-27628882D01*
X40876795Y-27607477D01*
X40876793Y-27607477D01*
X40869425Y-27605626D01*
X40861827Y-27605586D01*
X40861825Y-27605586D01*
X40787841Y-27605199D01*
X40697992Y-27604729D01*
X40690613Y-27606501D01*
X40690609Y-27606501D01*
X40538673Y-27642977D01*
X40538669Y-27642978D01*
X40531294Y-27644749D01*
X40524549Y-27648230D01*
X40524550Y-27648230D01*
X40424845Y-27699692D01*
X40378954Y-27723378D01*
X40373232Y-27728370D01*
X40373230Y-27728371D01*
X40317296Y-27777165D01*
X40249766Y-27836075D01*
X40151190Y-27976335D01*
X40088916Y-28136060D01*
X40087925Y-28143587D01*
X40070467Y-28276193D01*
X40066539Y-28306028D01*
X40070752Y-28344187D01*
X40078057Y-28410360D01*
X40065651Y-28480264D01*
X40017421Y-28532364D01*
X39982233Y-28546704D01*
X39936262Y-28557741D01*
X39865354Y-28554195D01*
X39829418Y-28533058D01*
X39829112Y-28533498D01*
X39823305Y-28529462D01*
X39823028Y-28529299D01*
X39822877Y-28529164D01*
X39822874Y-28529162D01*
X39817204Y-28524110D01*
X39810495Y-28520558D01*
X39810491Y-28520555D01*
X39672411Y-28447445D01*
X39672408Y-28447444D01*
X39665696Y-28443890D01*
X39648127Y-28439477D01*
X39506795Y-28403977D01*
X39506793Y-28403977D01*
X39499425Y-28402126D01*
X39491827Y-28402086D01*
X39491825Y-28402086D01*
X39417841Y-28401699D01*
X39327992Y-28401229D01*
X39320613Y-28403001D01*
X39320609Y-28403001D01*
X39168673Y-28439477D01*
X39168669Y-28439478D01*
X39161294Y-28441249D01*
X39131694Y-28456527D01*
X39074978Y-28485800D01*
X39005271Y-28499269D01*
X38939347Y-28472914D01*
X38898138Y-28415101D01*
X38894726Y-28344187D01*
X38900276Y-28326851D01*
X38909188Y-28304682D01*
X38933344Y-28134957D01*
X38933500Y-28120015D01*
X38928349Y-28077445D01*
X38922760Y-28031269D01*
X38912904Y-27949821D01*
X38900197Y-27916192D01*
X38894830Y-27845399D01*
X38901156Y-27824661D01*
X38906355Y-27811728D01*
X38906356Y-27811723D01*
X38909188Y-27804679D01*
X38910258Y-27797160D01*
X38912224Y-27789823D01*
X38915415Y-27790678D01*
X38938611Y-27739612D01*
X38998259Y-27701108D01*
X39033419Y-27696016D01*
X39040966Y-27697010D01*
X39190305Y-27677348D01*
X39329466Y-27619706D01*
X39418577Y-27551329D01*
X39448967Y-27528010D01*
X39467264Y-27504165D01*
X39478131Y-27491775D01*
X40290321Y-26679585D01*
X40352633Y-26645559D01*
X40423448Y-26650624D01*
X40483998Y-26698404D01*
X40569884Y-26826216D01*
X40575503Y-26831329D01*
X40575504Y-26831330D01*
X40593697Y-26847884D01*
X40696683Y-26941594D01*
X40703356Y-26945217D01*
X40840666Y-27019771D01*
X40840668Y-27019772D01*
X40847343Y-27023396D01*
X40854692Y-27025324D01*
X41005817Y-27064971D01*
X41005819Y-27064971D01*
X41013167Y-27066899D01*
X41100639Y-27068273D01*
X41176982Y-27069472D01*
X41176985Y-27069472D01*
X41184581Y-27069591D01*
X41191985Y-27067895D01*
X41191987Y-27067895D01*
X41254789Y-27053511D01*
X41351690Y-27031318D01*
X41504845Y-26954289D01*
X41635205Y-26842951D01*
X41735245Y-26703731D01*
X41799188Y-26544667D01*
X41823344Y-26374942D01*
X41823500Y-26360000D01*
X41802904Y-26189806D01*
X41742306Y-26029438D01*
X41738005Y-26023180D01*
X41649506Y-25894413D01*
X41649505Y-25894411D01*
X41645204Y-25888154D01*
X41633726Y-25877927D01*
X41596171Y-25817681D01*
X41597149Y-25746691D01*
X41636352Y-25687500D01*
X41660931Y-25671287D01*
X41674845Y-25664289D01*
X41805205Y-25552951D01*
X41824327Y-25526340D01*
X41900808Y-25419906D01*
X41900809Y-25419905D01*
X41905245Y-25413731D01*
X41969188Y-25254667D01*
X41993344Y-25084942D01*
X41993500Y-25070000D01*
X41972904Y-24899806D01*
X41932614Y-24793181D01*
X41927246Y-24722389D01*
X41961385Y-24659549D01*
X43251762Y-23369171D01*
X43264154Y-23358303D01*
X43281452Y-23345030D01*
X43281455Y-23345027D01*
X43288001Y-23340004D01*
X43379697Y-23220503D01*
X43408900Y-23150000D01*
X43437340Y-23081342D01*
X43457001Y-22932003D01*
X43453078Y-22902205D01*
X43452000Y-22885759D01*
X43452000Y-22648404D01*
X43475676Y-22574880D01*
X43505245Y-22533731D01*
X43569188Y-22374667D01*
X43593344Y-22204942D01*
X43593500Y-22190000D01*
X43591685Y-22174997D01*
X43573816Y-22027346D01*
X43572904Y-22019806D01*
X43512306Y-21859438D01*
X43495508Y-21834997D01*
X43419506Y-21724413D01*
X43419505Y-21724411D01*
X43415204Y-21718154D01*
X43409533Y-21713101D01*
X43292877Y-21609164D01*
X43292875Y-21609162D01*
X43287204Y-21604110D01*
X43280495Y-21600558D01*
X43280491Y-21600555D01*
X43142411Y-21527445D01*
X43142408Y-21527444D01*
X43135696Y-21523890D01*
X43108337Y-21517018D01*
X42976795Y-21483977D01*
X42976793Y-21483977D01*
X42969425Y-21482126D01*
X42961827Y-21482086D01*
X42961825Y-21482086D01*
X42887841Y-21481699D01*
X42797992Y-21481229D01*
X42790613Y-21483001D01*
X42790609Y-21483001D01*
X42638673Y-21519477D01*
X42638669Y-21519478D01*
X42631294Y-21521249D01*
X42478954Y-21599878D01*
X42473232Y-21604870D01*
X42473230Y-21604871D01*
X42395636Y-21672560D01*
X42349766Y-21712575D01*
X42251190Y-21852835D01*
X42188916Y-22012560D01*
X42187925Y-22020087D01*
X42186006Y-22034667D01*
X42166539Y-22182528D01*
X42169464Y-22209021D01*
X42179672Y-22301488D01*
X42167266Y-22371392D01*
X42119036Y-22423492D01*
X42053772Y-22441312D01*
X42037992Y-22441229D01*
X42030613Y-22443001D01*
X42030609Y-22443001D01*
X41878673Y-22479477D01*
X41878669Y-22479478D01*
X41871294Y-22481249D01*
X41864550Y-22484730D01*
X41864547Y-22484731D01*
X41826738Y-22504246D01*
X41757031Y-22517716D01*
X41738254Y-22514485D01*
X41678078Y-22499370D01*
X41616795Y-22483977D01*
X41616793Y-22483977D01*
X41609425Y-22482126D01*
X41601827Y-22482086D01*
X41601825Y-22482086D01*
X41527841Y-22481699D01*
X41437992Y-22481229D01*
X41430613Y-22483001D01*
X41430609Y-22483001D01*
X41278673Y-22519477D01*
X41278669Y-22519478D01*
X41271294Y-22521249D01*
X41118954Y-22599878D01*
X41113232Y-22604870D01*
X41113230Y-22604871D01*
X41014879Y-22690668D01*
X40989766Y-22712575D01*
X40891190Y-22852835D01*
X40828916Y-23012560D01*
X40827925Y-23020087D01*
X40819861Y-23081342D01*
X40806539Y-23182528D01*
X40825351Y-23352928D01*
X40858554Y-23443658D01*
X40878950Y-23499392D01*
X40884267Y-23513922D01*
X40888503Y-23520225D01*
X40888503Y-23520226D01*
X40955328Y-23619672D01*
X40979884Y-23656216D01*
X40985503Y-23661329D01*
X40985504Y-23661330D01*
X41074331Y-23742156D01*
X41111254Y-23802797D01*
X41109531Y-23873772D01*
X41078627Y-23924445D01*
X40847429Y-24155643D01*
X40785117Y-24189669D01*
X40714302Y-24184604D01*
X40679162Y-24163426D01*
X40679112Y-24163498D01*
X40677999Y-24162724D01*
X40674518Y-24160626D01*
X40667204Y-24154110D01*
X40660495Y-24150558D01*
X40660491Y-24150555D01*
X40522411Y-24077445D01*
X40522408Y-24077444D01*
X40515696Y-24073890D01*
X40367313Y-24036619D01*
X40356795Y-24033977D01*
X40356793Y-24033977D01*
X40349425Y-24032126D01*
X40341827Y-24032086D01*
X40341825Y-24032086D01*
X40267841Y-24031699D01*
X40177992Y-24031229D01*
X40170613Y-24033001D01*
X40170609Y-24033001D01*
X40018673Y-24069477D01*
X40018669Y-24069478D01*
X40011294Y-24071249D01*
X39858954Y-24149878D01*
X39853232Y-24154870D01*
X39853230Y-24154871D01*
X39780860Y-24218003D01*
X39729766Y-24262575D01*
X39725396Y-24268793D01*
X39667758Y-24350804D01*
X39612224Y-24395036D01*
X39564013Y-24404352D01*
X39526848Y-24404158D01*
X39498710Y-24404011D01*
X39491331Y-24405783D01*
X39491327Y-24405783D01*
X39339391Y-24442259D01*
X39339387Y-24442260D01*
X39332012Y-24444031D01*
X39325267Y-24447512D01*
X39325268Y-24447512D01*
X39191520Y-24516545D01*
X39179672Y-24522660D01*
X39173950Y-24527652D01*
X39173948Y-24527653D01*
X39128894Y-24566956D01*
X39064411Y-24596664D01*
X38994104Y-24586794D01*
X38940294Y-24540480D01*
X38928199Y-24516545D01*
X38928143Y-24516395D01*
X38870686Y-24364340D01*
X38773584Y-24223056D01*
X38750580Y-24202560D01*
X38651257Y-24114066D01*
X38651255Y-24114064D01*
X38645584Y-24109012D01*
X38638875Y-24105460D01*
X38638871Y-24105457D01*
X38500789Y-24032346D01*
X38500786Y-24032345D01*
X38494076Y-24028792D01*
X38493897Y-24028747D01*
X38437566Y-23984341D01*
X38389506Y-23914413D01*
X38389505Y-23914411D01*
X38385204Y-23908154D01*
X38379533Y-23903101D01*
X38262877Y-23799164D01*
X38262875Y-23799162D01*
X38257204Y-23794110D01*
X38250495Y-23790558D01*
X38250491Y-23790555D01*
X38112406Y-23717443D01*
X38105696Y-23713890D01*
X38098334Y-23712041D01*
X38093544Y-23710202D01*
X38037116Y-23667116D01*
X38012941Y-23600362D01*
X38028693Y-23531135D01*
X38056133Y-23499392D01*
X38055610Y-23498869D01*
X38061455Y-23493024D01*
X38068001Y-23488001D01*
X38086298Y-23464156D01*
X38097165Y-23451766D01*
X40311766Y-21237165D01*
X40324157Y-21226297D01*
X40341456Y-21213023D01*
X40348001Y-21208001D01*
X40439697Y-21088500D01*
X40497339Y-20949339D01*
X40517001Y-20800000D01*
X40513078Y-20770203D01*
X40512000Y-20753757D01*
X40512000Y-17189357D01*
X40532002Y-17121236D01*
X40585658Y-17074743D01*
X40640000Y-17064938D01*
X40640000Y-17063500D01*
X41240000Y-17063500D01*
X41313079Y-17058273D01*
X41399672Y-17032847D01*
X41470668Y-17032847D01*
X41486734Y-17038839D01*
X41487131Y-17038956D01*
X41495330Y-17042700D01*
X41504247Y-17043982D01*
X41635552Y-17062861D01*
X41635559Y-17062862D01*
X41640000Y-17063500D01*
X42240000Y-17063500D01*
X42313079Y-17058273D01*
X42399672Y-17032847D01*
X42470668Y-17032847D01*
X42486734Y-17038839D01*
X42487131Y-17038956D01*
X42495330Y-17042700D01*
X42504247Y-17043982D01*
X42635552Y-17062861D01*
X42635559Y-17062862D01*
X42640000Y-17063500D01*
X42992131Y-17063500D01*
X43060252Y-17083502D01*
X43106745Y-17137158D01*
X43116849Y-17207432D01*
X43115099Y-17216969D01*
X43108937Y-17244538D01*
X43108291Y-17429518D01*
X43109734Y-17436191D01*
X43109734Y-17436193D01*
X43143536Y-17592528D01*
X43147383Y-17610322D01*
X43150224Y-17616527D01*
X43205245Y-17736703D01*
X43224387Y-17778514D01*
X43228491Y-17783960D01*
X43228492Y-17783962D01*
X43294168Y-17871116D01*
X43335711Y-17926246D01*
X43340890Y-17930685D01*
X43340891Y-17930686D01*
X43422673Y-18000781D01*
X43476162Y-18046627D01*
X43529783Y-18075378D01*
X43633170Y-18130814D01*
X43633172Y-18130815D01*
X43639187Y-18134040D01*
X43645755Y-18135899D01*
X43645756Y-18135899D01*
X43744893Y-18163952D01*
X43817179Y-18184407D01*
X43823987Y-18184811D01*
X43823990Y-18184812D01*
X43976958Y-18193900D01*
X44001835Y-18195378D01*
X44088862Y-18181594D01*
X44177805Y-18167507D01*
X44177809Y-18167506D01*
X44184539Y-18166440D01*
X44190885Y-18163953D01*
X44190889Y-18163952D01*
X44350412Y-18101436D01*
X44350416Y-18101434D01*
X44356767Y-18098945D01*
X44427911Y-18051318D01*
X44504815Y-17999835D01*
X44504818Y-17999832D01*
X44510483Y-17996040D01*
X44638517Y-17862528D01*
X44648088Y-17846849D01*
X44724216Y-17722131D01*
X44734894Y-17704637D01*
X44739501Y-17691257D01*
X44792895Y-17536191D01*
X44792896Y-17536188D01*
X44795118Y-17529734D01*
X44796658Y-17516429D01*
X44806566Y-17430793D01*
X45709874Y-17430793D01*
X45710231Y-17437610D01*
X45710231Y-17437614D01*
X45715343Y-17535148D01*
X45719839Y-17620935D01*
X45721650Y-17627509D01*
X45721650Y-17627510D01*
X45764939Y-17784667D01*
X45770402Y-17804502D01*
X45859203Y-17972929D01*
X45863605Y-17978138D01*
X45863607Y-17978141D01*
X45921325Y-18046440D01*
X45982100Y-18118357D01*
X46133359Y-18234004D01*
X46250487Y-18288621D01*
X46291821Y-18307895D01*
X46305923Y-18314471D01*
X46312580Y-18315959D01*
X46486697Y-18354879D01*
X46486700Y-18354879D01*
X46491740Y-18356006D01*
X46496904Y-18356295D01*
X46496906Y-18356295D01*
X46497609Y-18356334D01*
X46500575Y-18356500D01*
X46636027Y-18356500D01*
X46640575Y-18356006D01*
X46728080Y-18346500D01*
X46779289Y-18340937D01*
X46959747Y-18280206D01*
X46987724Y-18263396D01*
X47097056Y-18197702D01*
X47122954Y-18182141D01*
X47261296Y-18051318D01*
X47302209Y-17991116D01*
X47364484Y-17899481D01*
X47364485Y-17899479D01*
X47368318Y-17893839D01*
X47373920Y-17879835D01*
X47436492Y-17723394D01*
X47436493Y-17723392D01*
X47439028Y-17717053D01*
X47470126Y-17529207D01*
X47469745Y-17521923D01*
X47460518Y-17345878D01*
X47460161Y-17339065D01*
X47458350Y-17332490D01*
X47411410Y-17162076D01*
X47411410Y-17162075D01*
X47409598Y-17155498D01*
X47320797Y-16987071D01*
X47316395Y-16981862D01*
X47316393Y-16981859D01*
X47202305Y-16846856D01*
X47197900Y-16841643D01*
X47179558Y-16827619D01*
X47120605Y-16782546D01*
X47046641Y-16725996D01*
X46874077Y-16645529D01*
X46802645Y-16629562D01*
X46693303Y-16605121D01*
X46693300Y-16605121D01*
X46688260Y-16603994D01*
X46683096Y-16603705D01*
X46683094Y-16603705D01*
X46682391Y-16603666D01*
X46679425Y-16603500D01*
X46543973Y-16603500D01*
X46540576Y-16603869D01*
X46529051Y-16605121D01*
X46400711Y-16619063D01*
X46220253Y-16679794D01*
X46214403Y-16683309D01*
X46214401Y-16683310D01*
X46160179Y-16715890D01*
X46057046Y-16777859D01*
X45918704Y-16908682D01*
X45914869Y-16914325D01*
X45817043Y-17058273D01*
X45811682Y-17066161D01*
X45809150Y-17072490D01*
X45809149Y-17072493D01*
X45751355Y-17216988D01*
X45740972Y-17242947D01*
X45734804Y-17280204D01*
X45711216Y-17422689D01*
X45709874Y-17430793D01*
X44806566Y-17430793D01*
X44815975Y-17349471D01*
X44815975Y-17349470D01*
X44816379Y-17345979D01*
X44816400Y-17340000D01*
X44814031Y-17318188D01*
X44803364Y-17220000D01*
X44796422Y-17156101D01*
X44765044Y-17062861D01*
X44739597Y-16987246D01*
X44739596Y-16987244D01*
X44737421Y-16980781D01*
X44694677Y-16909643D01*
X44676737Y-16840950D01*
X44688066Y-16792406D01*
X44728958Y-16702865D01*
X44728959Y-16702862D01*
X44732700Y-16694670D01*
X44742993Y-16623079D01*
X44752861Y-16554448D01*
X44752862Y-16554441D01*
X44753500Y-16550000D01*
X44753500Y-16137824D01*
X44773502Y-16069703D01*
X44827158Y-16023210D01*
X44879539Y-16011824D01*
X47804040Y-16012751D01*
G37*
%TD.AperFunction*%
%TA.AperFunction,Conductor*%
G36*
X31486734Y-17038839D02*
G01*
X31487131Y-17038956D01*
X31495330Y-17042700D01*
X31504247Y-17043982D01*
X31635552Y-17062861D01*
X31635559Y-17062862D01*
X31640000Y-17063500D01*
X31668725Y-17063500D01*
X31736846Y-17083502D01*
X31783339Y-17137158D01*
X31793443Y-17207432D01*
X31777032Y-17248793D01*
X31779147Y-17249927D01*
X31775560Y-17256617D01*
X31771190Y-17262835D01*
X31708916Y-17422560D01*
X31707925Y-17430087D01*
X31687578Y-17584637D01*
X31686539Y-17592528D01*
X31705351Y-17762928D01*
X31734368Y-17842221D01*
X31746745Y-17876040D01*
X31764267Y-17923922D01*
X31768503Y-17930225D01*
X31768503Y-17930226D01*
X31826073Y-18015899D01*
X31859884Y-18066216D01*
X31865503Y-18071329D01*
X31865504Y-18071330D01*
X31980646Y-18176101D01*
X31986683Y-18181594D01*
X32016350Y-18197702D01*
X32130666Y-18259771D01*
X32130668Y-18259772D01*
X32137343Y-18263396D01*
X32144692Y-18265324D01*
X32295817Y-18304971D01*
X32295819Y-18304971D01*
X32303167Y-18306899D01*
X32390639Y-18308273D01*
X32466982Y-18309472D01*
X32466985Y-18309472D01*
X32474581Y-18309591D01*
X32481985Y-18307895D01*
X32481987Y-18307895D01*
X32566141Y-18288621D01*
X32641690Y-18271318D01*
X32794845Y-18194289D01*
X32925205Y-18082951D01*
X33025245Y-17943731D01*
X33082578Y-17801110D01*
X33126544Y-17745365D01*
X33193669Y-17722240D01*
X33262641Y-17739077D01*
X33300112Y-17772276D01*
X33321603Y-17800796D01*
X33321609Y-17800802D01*
X33325711Y-17806246D01*
X33330890Y-17810685D01*
X33330891Y-17810686D01*
X33454683Y-17916788D01*
X33466162Y-17926627D01*
X33541254Y-17966891D01*
X33623170Y-18010814D01*
X33623172Y-18010815D01*
X33629187Y-18014040D01*
X33635755Y-18015899D01*
X33635756Y-18015899D01*
X33728645Y-18042184D01*
X33807179Y-18064407D01*
X33813987Y-18064811D01*
X33813990Y-18064812D01*
X33966958Y-18073900D01*
X33991835Y-18075378D01*
X34072833Y-18062549D01*
X34167805Y-18047507D01*
X34167809Y-18047506D01*
X34174539Y-18046440D01*
X34180885Y-18043953D01*
X34180889Y-18043952D01*
X34340412Y-17981436D01*
X34340416Y-17981434D01*
X34346767Y-17978945D01*
X34393044Y-17947965D01*
X34494815Y-17879835D01*
X34494818Y-17879832D01*
X34500483Y-17876040D01*
X34628517Y-17742528D01*
X34632321Y-17736297D01*
X34721334Y-17590469D01*
X34724894Y-17584637D01*
X34741660Y-17535945D01*
X34782895Y-17416191D01*
X34782896Y-17416188D01*
X34785118Y-17409734D01*
X34786045Y-17401727D01*
X34805975Y-17229471D01*
X34805975Y-17229470D01*
X34806379Y-17225979D01*
X34806400Y-17220000D01*
X34806022Y-17216516D01*
X34806021Y-17216506D01*
X34804565Y-17203107D01*
X34817093Y-17133225D01*
X34865414Y-17081209D01*
X34929828Y-17063500D01*
X35240000Y-17063500D01*
X35313079Y-17058273D01*
X35399672Y-17032847D01*
X35470668Y-17032847D01*
X35486734Y-17038839D01*
X35487131Y-17038956D01*
X35495330Y-17042700D01*
X35504247Y-17043982D01*
X35635552Y-17062861D01*
X35635559Y-17062862D01*
X35640000Y-17063500D01*
X36240000Y-17063500D01*
X36313079Y-17058273D01*
X36399672Y-17032847D01*
X36470668Y-17032847D01*
X36486734Y-17038839D01*
X36487131Y-17038956D01*
X36495330Y-17042700D01*
X36504247Y-17043982D01*
X36635552Y-17062861D01*
X36635559Y-17062862D01*
X36640000Y-17063500D01*
X37240000Y-17063500D01*
X37313079Y-17058273D01*
X37399672Y-17032847D01*
X37470668Y-17032847D01*
X37486734Y-17038839D01*
X37487131Y-17038956D01*
X37495330Y-17042700D01*
X37504247Y-17043982D01*
X37635552Y-17062861D01*
X37635559Y-17062862D01*
X37640000Y-17063500D01*
X38240000Y-17063500D01*
X38313079Y-17058273D01*
X38399672Y-17032847D01*
X38470668Y-17032847D01*
X38486734Y-17038839D01*
X38487131Y-17038956D01*
X38495330Y-17042700D01*
X38504247Y-17043982D01*
X38635552Y-17062861D01*
X38635559Y-17062862D01*
X38640000Y-17063500D01*
X39240000Y-17063500D01*
X39240000Y-17064139D01*
X39306317Y-17081081D01*
X39354684Y-17133053D01*
X39368000Y-17189429D01*
X39368000Y-20510879D01*
X39347998Y-20579000D01*
X39331095Y-20599974D01*
X37998174Y-21932895D01*
X37935862Y-21966921D01*
X37865047Y-21961856D01*
X37808211Y-21919309D01*
X37783486Y-21851321D01*
X37783500Y-21850000D01*
X37781685Y-21834997D01*
X37767622Y-21718793D01*
X37762904Y-21679806D01*
X37702306Y-21519438D01*
X37677272Y-21483013D01*
X37609506Y-21384413D01*
X37609505Y-21384411D01*
X37605204Y-21378154D01*
X37599533Y-21373101D01*
X37482877Y-21269164D01*
X37482875Y-21269162D01*
X37477204Y-21264110D01*
X37470495Y-21260558D01*
X37470491Y-21260555D01*
X37332411Y-21187445D01*
X37332408Y-21187444D01*
X37325696Y-21183890D01*
X37206547Y-21153962D01*
X37166795Y-21143977D01*
X37166793Y-21143977D01*
X37159425Y-21142126D01*
X37151827Y-21142086D01*
X37151825Y-21142086D01*
X37077841Y-21141699D01*
X36987992Y-21141229D01*
X36980613Y-21143001D01*
X36980609Y-21143001D01*
X36828673Y-21179477D01*
X36828669Y-21179478D01*
X36821294Y-21181249D01*
X36668954Y-21259878D01*
X36663232Y-21264870D01*
X36663230Y-21264871D01*
X36552902Y-21361116D01*
X36539766Y-21372575D01*
X36441190Y-21512835D01*
X36405385Y-21604670D01*
X36381956Y-21664764D01*
X36378916Y-21672560D01*
X36377925Y-21680087D01*
X36373579Y-21713101D01*
X36356539Y-21842528D01*
X36375351Y-22012928D01*
X36434267Y-22173922D01*
X36438503Y-22180225D01*
X36438503Y-22180226D01*
X36452342Y-22200820D01*
X36529884Y-22316216D01*
X36535503Y-22321329D01*
X36535504Y-22321330D01*
X36656666Y-22431579D01*
X36693588Y-22492219D01*
X36691865Y-22563195D01*
X36652043Y-22621971D01*
X36601281Y-22647291D01*
X36584794Y-22651249D01*
X36432454Y-22729878D01*
X36303266Y-22842575D01*
X36204690Y-22982835D01*
X36142416Y-23142560D01*
X36141425Y-23150087D01*
X36138146Y-23174997D01*
X36120039Y-23312528D01*
X36135411Y-23451766D01*
X36138851Y-23482928D01*
X36135322Y-23483318D01*
X36130223Y-23545835D01*
X36106598Y-23602870D01*
X36082661Y-23660661D01*
X36074290Y-23724247D01*
X36072922Y-23734634D01*
X36044199Y-23799561D01*
X36030829Y-23813136D01*
X35971912Y-23864532D01*
X35907429Y-23894240D01*
X35837122Y-23884370D01*
X35805264Y-23863659D01*
X35732877Y-23799164D01*
X35732875Y-23799162D01*
X35727204Y-23794110D01*
X35720495Y-23790558D01*
X35720491Y-23790555D01*
X35582411Y-23717445D01*
X35582406Y-23717443D01*
X35575696Y-23713890D01*
X35565182Y-23711249D01*
X35416795Y-23673977D01*
X35416793Y-23673977D01*
X35409425Y-23672126D01*
X35401827Y-23672086D01*
X35401825Y-23672086D01*
X35327841Y-23671699D01*
X35237992Y-23671229D01*
X35230613Y-23673001D01*
X35230609Y-23673001D01*
X35078673Y-23709477D01*
X35078669Y-23709478D01*
X35071294Y-23711249D01*
X34918954Y-23789878D01*
X34913232Y-23794870D01*
X34913230Y-23794871D01*
X34833417Y-23864496D01*
X34789766Y-23902575D01*
X34691190Y-24042835D01*
X34628916Y-24202560D01*
X34627925Y-24210087D01*
X34607617Y-24364340D01*
X34606539Y-24372528D01*
X34614433Y-24444031D01*
X34623867Y-24529487D01*
X34611461Y-24599391D01*
X34563231Y-24651491D01*
X34545008Y-24660466D01*
X34541321Y-24661926D01*
X34534738Y-24663739D01*
X34371107Y-24750012D01*
X34365890Y-24754420D01*
X34365891Y-24754420D01*
X34332224Y-24782871D01*
X34267283Y-24811563D01*
X34197140Y-24800590D01*
X34180074Y-24790845D01*
X34057698Y-24707679D01*
X34052055Y-24703844D01*
X34045725Y-24701312D01*
X34045721Y-24701310D01*
X33886641Y-24637683D01*
X33880303Y-24635148D01*
X33873573Y-24634034D01*
X33873570Y-24634033D01*
X33704543Y-24606050D01*
X33704540Y-24606050D01*
X33697806Y-24604935D01*
X33690990Y-24605292D01*
X33690986Y-24605292D01*
X33570426Y-24611611D01*
X33513078Y-24614617D01*
X33506500Y-24616429D01*
X33506499Y-24616429D01*
X33442587Y-24634033D01*
X33334738Y-24663739D01*
X33334734Y-24663726D01*
X33266685Y-24669959D01*
X33205321Y-24638023D01*
X33205204Y-24638154D01*
X33200579Y-24634033D01*
X33082877Y-24529164D01*
X33082875Y-24529162D01*
X33077204Y-24524110D01*
X33070495Y-24520558D01*
X33070491Y-24520555D01*
X32932411Y-24447445D01*
X32932408Y-24447444D01*
X32925696Y-24443890D01*
X32908127Y-24439477D01*
X32766795Y-24403977D01*
X32766793Y-24403977D01*
X32759425Y-24402126D01*
X32751827Y-24402086D01*
X32751825Y-24402086D01*
X32677841Y-24401699D01*
X32587992Y-24401229D01*
X32580613Y-24403001D01*
X32580609Y-24403001D01*
X32428673Y-24439477D01*
X32428669Y-24439478D01*
X32421294Y-24441249D01*
X32268954Y-24519878D01*
X32263232Y-24524870D01*
X32263230Y-24524871D01*
X32171041Y-24605292D01*
X32139766Y-24632575D01*
X32095495Y-24695567D01*
X32039962Y-24739797D01*
X31969330Y-24746983D01*
X31933449Y-24734469D01*
X31882411Y-24707445D01*
X31882408Y-24707444D01*
X31875696Y-24703890D01*
X31868327Y-24702039D01*
X31716795Y-24663977D01*
X31716793Y-24663977D01*
X31709425Y-24662126D01*
X31701827Y-24662086D01*
X31701825Y-24662086D01*
X31627841Y-24661699D01*
X31537992Y-24661229D01*
X31530613Y-24663001D01*
X31530609Y-24663001D01*
X31378673Y-24699477D01*
X31378669Y-24699478D01*
X31371294Y-24701249D01*
X31218954Y-24779878D01*
X31213232Y-24784870D01*
X31213230Y-24784871D01*
X31121954Y-24864496D01*
X31089766Y-24892575D01*
X31085396Y-24898793D01*
X31080316Y-24904435D01*
X31078534Y-24902830D01*
X31032146Y-24939780D01*
X30968142Y-24948021D01*
X30930000Y-24942999D01*
X30921812Y-24944077D01*
X30900204Y-24946922D01*
X30883757Y-24948000D01*
X30041589Y-24948000D01*
X29973468Y-24927998D01*
X29926975Y-24874342D01*
X29915589Y-24822000D01*
X29915589Y-21589816D01*
X29935591Y-21521695D01*
X29989247Y-21475202D01*
X30059521Y-21465098D01*
X30084095Y-21471632D01*
X30087343Y-21473396D01*
X30170255Y-21495147D01*
X30245817Y-21514971D01*
X30245819Y-21514971D01*
X30253167Y-21516899D01*
X30340639Y-21518273D01*
X30416982Y-21519472D01*
X30416985Y-21519472D01*
X30424581Y-21519591D01*
X30431985Y-21517895D01*
X30431987Y-21517895D01*
X30506566Y-21500814D01*
X30591690Y-21481318D01*
X30744845Y-21404289D01*
X30875205Y-21292951D01*
X30895383Y-21264871D01*
X30970808Y-21159906D01*
X30970809Y-21159905D01*
X30975245Y-21153731D01*
X31039188Y-20994667D01*
X31063344Y-20824942D01*
X31063500Y-20810000D01*
X31062232Y-20799518D01*
X32008291Y-20799518D01*
X32009734Y-20806191D01*
X32009734Y-20806193D01*
X32038914Y-20941150D01*
X32047383Y-20980322D01*
X32124387Y-21148514D01*
X32128491Y-21153960D01*
X32128492Y-21153962D01*
X32205681Y-21256395D01*
X32235711Y-21296246D01*
X32240890Y-21300685D01*
X32240891Y-21300686D01*
X32324766Y-21372575D01*
X32376162Y-21416627D01*
X32452843Y-21457743D01*
X32533170Y-21500814D01*
X32533172Y-21500815D01*
X32539187Y-21504040D01*
X32545755Y-21505899D01*
X32545756Y-21505899D01*
X32609335Y-21523890D01*
X32717179Y-21554407D01*
X32723987Y-21554811D01*
X32723990Y-21554812D01*
X32876958Y-21563900D01*
X32901835Y-21565378D01*
X32982833Y-21552549D01*
X33077805Y-21537507D01*
X33077809Y-21537506D01*
X33084539Y-21536440D01*
X33090885Y-21533953D01*
X33090889Y-21533952D01*
X33250412Y-21471436D01*
X33250416Y-21471434D01*
X33256767Y-21468945D01*
X33303044Y-21437965D01*
X33404815Y-21369835D01*
X33404818Y-21369832D01*
X33410483Y-21366040D01*
X33538517Y-21232528D01*
X33542321Y-21226297D01*
X33631334Y-21080469D01*
X33634894Y-21074637D01*
X33678038Y-20949339D01*
X33692895Y-20906191D01*
X33692896Y-20906188D01*
X33695118Y-20899734D01*
X33705501Y-20810000D01*
X33715975Y-20719471D01*
X33715975Y-20719470D01*
X33716379Y-20715979D01*
X33716400Y-20710000D01*
X33708775Y-20639806D01*
X33697159Y-20532888D01*
X33696422Y-20526101D01*
X33637421Y-20350781D01*
X33542148Y-20192221D01*
X33507616Y-20155704D01*
X33469126Y-20115003D01*
X33415050Y-20057819D01*
X33374515Y-20030271D01*
X33267698Y-19957679D01*
X33262055Y-19953844D01*
X33255725Y-19951312D01*
X33255721Y-19951310D01*
X33096641Y-19887683D01*
X33090303Y-19885148D01*
X33083573Y-19884034D01*
X33083570Y-19884033D01*
X32914543Y-19856050D01*
X32914540Y-19856050D01*
X32907806Y-19854935D01*
X32900990Y-19855292D01*
X32900986Y-19855292D01*
X32780426Y-19861611D01*
X32723078Y-19864617D01*
X32716500Y-19866429D01*
X32716499Y-19866429D01*
X32551315Y-19911927D01*
X32551311Y-19911928D01*
X32544738Y-19913739D01*
X32538707Y-19916919D01*
X32538704Y-19916920D01*
X32480051Y-19947845D01*
X32381107Y-20000012D01*
X32375894Y-20004417D01*
X32375890Y-20004420D01*
X32245033Y-20115003D01*
X32245029Y-20115007D01*
X32239819Y-20119410D01*
X32235672Y-20124833D01*
X32235671Y-20124835D01*
X32131610Y-20260941D01*
X32131607Y-20260945D01*
X32127466Y-20266362D01*
X32049290Y-20434012D01*
X32008937Y-20614538D01*
X32008913Y-20621367D01*
X32008913Y-20621368D01*
X32008849Y-20639806D01*
X32008291Y-20799518D01*
X31062232Y-20799518D01*
X31042904Y-20639806D01*
X30982306Y-20479438D01*
X30898326Y-20357246D01*
X30889506Y-20344413D01*
X30889505Y-20344411D01*
X30885204Y-20338154D01*
X30804627Y-20266362D01*
X30762877Y-20229164D01*
X30762875Y-20229162D01*
X30757204Y-20224110D01*
X30750495Y-20220558D01*
X30750491Y-20220555D01*
X30612411Y-20147445D01*
X30612408Y-20147444D01*
X30605696Y-20143890D01*
X30547762Y-20129338D01*
X30446795Y-20103977D01*
X30446793Y-20103977D01*
X30439425Y-20102126D01*
X30431827Y-20102086D01*
X30431825Y-20102086D01*
X30357841Y-20101699D01*
X30267992Y-20101229D01*
X30260613Y-20103001D01*
X30260609Y-20103001D01*
X30108673Y-20139477D01*
X30108669Y-20139478D01*
X30101294Y-20141249D01*
X30094551Y-20144729D01*
X30087424Y-20147380D01*
X30086442Y-20144740D01*
X30029651Y-20155704D01*
X29963732Y-20129338D01*
X29922532Y-20071518D01*
X29915589Y-20030271D01*
X29915589Y-18195533D01*
X29935591Y-18127412D01*
X29952493Y-18106438D01*
X30311765Y-17747165D01*
X30324157Y-17736297D01*
X30341456Y-17723023D01*
X30348001Y-17718001D01*
X30353781Y-17710469D01*
X30425864Y-17616527D01*
X30439697Y-17598500D01*
X30468399Y-17529207D01*
X30497340Y-17459338D01*
X30517001Y-17310000D01*
X30513078Y-17280202D01*
X30512000Y-17263756D01*
X30512000Y-17189357D01*
X30532002Y-17121236D01*
X30585658Y-17074743D01*
X30640000Y-17064938D01*
X30640000Y-17063500D01*
X31240000Y-17063500D01*
X31313079Y-17058273D01*
X31399672Y-17032847D01*
X31470668Y-17032847D01*
X31486734Y-17038839D01*
G37*
%TD.AperFunction*%
%TD*%
M02*
