M48
; DRILL file {KiCad (5.99.0-9634-gb691c18bfc)} date Tue Mar  9 19:13:21 2021
; FORMAT={-:-/ absolute / inch / decimal}
; #@! TF.CreationDate,2021-03-09T19:13:21+01:00
; #@! TF.GenerationSoftware,Kicad,Pcbnew,(5.99.0-9634-gb691c18bfc)
; #@! TF.FileFunction,Plated,1,4,PTH
FMAT,2
INCH
T1C0.0079
T2C0.0118
T3C0.0130
T4C0.0157
%
G90
G05
T1
X0.9819Y-1.5783
X1.1181Y-1.0386
X1.1184Y-0.7376
X1.1787Y-1.5772
X1.1874Y-1.0878
X1.1949Y-0.8193
X1.2173Y-1.102
X1.2385Y-1.1225
X1.2449Y-0.9988
X1.2685Y-1.0972
X1.2756Y-0.6929
X1.2862Y-0.9886
X1.2882Y-1.0283
X1.2882Y-1.048
X1.2882Y-1.0677
X1.2882Y-1.0874
X1.2882Y-1.1071
X1.3534Y-1.2406
X1.3571Y-1.176
X1.3594Y-1.2809
X1.3768Y-1.1751
X1.3906Y-0.9598
X1.3911Y-1.239
X1.3965Y-1.176
X1.4161Y-1.176
X1.4224Y-1.2354
X1.4358Y-0.9594
X1.4457Y-1.1957
X1.4466Y-1.2184
X1.4501Y-0.9181
X1.4547Y-1.176
X1.4555Y-0.9594
X1.4555Y-1.3681
X1.4594Y-0.8602
X1.4676Y-0.9421
X1.4902Y-0.9598
X1.5047Y-1.0087
X1.5047Y-1.0283
X1.5047Y-1.048
X1.5047Y-1.0677
X1.5047Y-1.0874
X1.5047Y-1.1071
X1.5054Y-0.9722
X1.5367Y-1.1589
X1.5453Y-1.0386
X1.5516Y-1.1461
X1.5583Y-0.9887
X1.5784Y-1.1515
X1.5839Y-0.9142
X1.585Y-0.974
X1.6055Y-1.1147
X1.609Y-1.1619
X1.6185Y-1.0378
X1.6236Y-1.0598
X1.6252Y-0.987
X1.6346Y-0.913
X1.6437Y-1.1315
X1.6583Y-0.9114
X1.6882Y-0.8736
T2
X0.9035Y-0.7228
T3
X0.937Y-0.7228
X1.0846Y-1.0142
X1.1201Y-1.3331
X1.1276Y-1.0823
X1.1752Y-0.9709
X1.1909Y-1.4236
X1.2185Y-1.0378
X1.2185Y-1.5693
X1.2353Y-1.337
X1.2937Y-0.8154
X1.3248Y-1.0024
X1.3248Y-1.0457
X1.3248Y-1.089
X1.3248Y-1.1323
X1.3366Y-0.678
X1.3642Y-1.4433
X1.372Y-1.0024
X1.372Y-1.0457
X1.372Y-1.089
X1.372Y-1.1323
X1.413Y-1.3094
X1.4232Y-1.0024
X1.4232Y-1.0457
X1.4232Y-1.089
X1.4232Y-1.1323
X1.4705Y-1.0024
X1.4705Y-1.0457
X1.4705Y-1.089
X1.4705Y-1.1323
X1.5132Y-1.5165
X1.5323Y-0.8047
X1.5335Y-0.7051
X1.5343Y-0.7709
X1.5571Y-1.239
X1.6118Y-0.7051
X1.613Y-0.8024
X1.6134Y-0.7689
X1.6343Y-1.2843
X1.7299Y-1.5748
X1.7307Y-0.6827
X1.7492Y-1.4283
X1.8394Y-1.1094
T4
X0.9819Y-0.6358
X0.9823Y-1.6205
X1.0213Y-0.6358
X1.0217Y-1.6205
X1.0606Y-0.6358
X1.061Y-1.6205
X1.1Y-0.6358
X1.1004Y-1.6205
X1.1394Y-0.6358
X1.1398Y-1.6205
X1.1787Y-0.6358
X1.1791Y-1.6205
X1.2181Y-0.6358
X1.2185Y-1.6205
X1.2575Y-0.6358
X1.2579Y-1.6205
X1.2969Y-0.6358
X1.2972Y-1.6205
X1.3362Y-0.6358
X1.3366Y-1.6205
X1.3756Y-0.6358
X1.376Y-1.6205
X1.415Y-0.6358
X1.4154Y-1.6205
X1.4543Y-0.6358
X1.4547Y-1.6205
X1.4937Y-0.6358
X1.4941Y-1.6205
X1.5331Y-0.6358
X1.5335Y-1.6205
X1.5724Y-0.6358
X1.5728Y-1.6205
X1.6118Y-0.6358
X1.6122Y-1.6205
X1.6512Y-0.6358
X1.6516Y-1.6205
X1.6906Y-0.6358
X1.6909Y-1.6205
X1.7299Y-0.6358
X1.7303Y-1.6205
X1.8874Y-0.7543
X1.8874Y-0.7937
X1.8874Y-0.8331
X1.8874Y-0.8724
X1.8874Y-0.9118
X1.8874Y-0.9512
X1.8874Y-0.9906
X1.8874Y-1.0299
X1.8874Y-1.0693
X1.8874Y-1.1087
X1.8874Y-1.148
X1.8874Y-1.1874
X1.8874Y-1.2268
X1.8874Y-1.2661
X1.8874Y-1.3055
X1.8874Y-1.3449
X1.8874Y-1.3843
X1.8874Y-1.4236
X1.8874Y-1.463
X1.8874Y-1.5024
T0
M30
